<svg width="38" height="38" viewBox="0 0 38 38" fill="none" xmlns="http://www.w3.org/2000/svg">
<path fill-rule="evenodd" clip-rule="evenodd" d="M25.7432 9.30659C26.108 8.94165 26.6996 8.9415 27.0646 9.30626L31.82 14.0586C31.9953 14.2338 32.0939 14.4715 32.0939 14.7194C32.094 14.9673 31.9955 15.205 31.8202 15.3803L18.0999 29.1006C17.9247 29.2758 17.687 29.3743 17.4392 29.3743C17.1913 29.3743 16.9537 29.2758 16.7784 29.1006L6.81467 19.1369C6.44975 18.7719 6.44975 18.1803 6.81467 17.8154L11.567 13.063C11.9319 12.6981 12.5236 12.6981 12.8885 13.063L17.4391 17.6136L25.7432 9.30659ZM26.4044 11.2886L18.1 19.5958C17.9248 19.7711 17.6871 19.8696 17.4392 19.8696C17.1914 19.8697 16.9537 19.7712 16.7784 19.596L12.2277 15.0453L8.79689 18.4761L17.4392 27.1184L29.8378 14.7198L26.4044 11.2886Z" fill="#0272B0"/>
<path fill-rule="evenodd" clip-rule="evenodd" d="M19 36.1311C28.4613 36.1311 36.1311 28.4613 36.1311 19C36.1311 9.53873 28.4613 1.86885 19 1.86885C9.53873 1.86885 1.86885 9.53873 1.86885 19C1.86885 28.4613 9.53873 36.1311 19 36.1311ZM19 38C29.4934 38 38 29.4934 38 19C38 8.50659 29.4934 0 19 0C8.50659 0 0 8.50659 0 19C0 29.4934 8.50659 38 19 38Z" fill="#0272B0"/>
</svg>
