<svg width="30" height="30" viewBox="0 0 30 30" fill="none" xmlns="http://www.w3.org/2000/svg">
<path d="M6.18795 5C5.89043 5.02202 5.61074 5.14962 5.39978 5.35956C5.18882 5.56951 5.06061 5.84786 5.03848 6.14395C5.04132 6.29143 5.07719 6.43642 5.14347 6.56835C5.20976 6.70029 5.30479 6.81584 5.42164 6.90658L13.4679 14.9142L5.42164 22.9219C5.30843 23.0095 5.21367 23.1185 5.14277 23.2426C5.07187 23.3666 5.02622 23.5034 5.00843 23.645C4.99064 23.7867 5.00106 23.9304 5.03909 24.068C5.07711 24.2057 5.14201 24.3345 5.23006 24.4471C5.31812 24.5598 5.42761 24.6541 5.55228 24.7247C5.67696 24.7952 5.81438 24.8407 5.9567 24.8584C6.09902 24.8761 6.24344 24.8657 6.38174 24.8279C6.52003 24.79 6.64948 24.7254 6.76269 24.6378L6.95427 24.4471L15.0006 16.4395L23.0469 24.4471C23.142 24.5686 23.262 24.6685 23.3989 24.7403C23.5357 24.8121 23.6864 24.8541 23.8408 24.8636C23.9953 24.8731 24.1499 24.8498 24.2946 24.7952C24.4393 24.7407 24.5708 24.6562 24.6802 24.5473C24.7896 24.4385 24.8745 24.3077 24.9293 24.1637C24.984 24.0197 25.0075 23.8657 24.9979 23.712C24.9884 23.5583 24.9462 23.4084 24.874 23.2722C24.8019 23.136 24.7015 23.0166 24.5795 22.9219V22.9219L16.5332 14.9142L24.5795 6.90658C24.7641 6.69501 24.8658 6.42419 24.8658 6.14395C24.8658 5.86371 24.7641 5.59289 24.5795 5.38132C24.3683 5.1806 24.1013 5.04774 23.8132 5C23.5251 5.04774 23.2581 5.1806 23.0469 5.38132L15.0006 13.389L6.95427 5.38132C6.74304 5.1806 6.47604 5.04774 6.18795 5V5Z" fill="#1D5EE4"/>
</svg>
