<svg width="31" height="31" viewBox="0 0 31 31" fill="none" xmlns="http://www.w3.org/2000/svg">
<path d="M7.06295 4.94064C6.76543 4.96281 6.48574 5.09126 6.27478 5.30262C6.06382 5.51397 5.93561 5.79419 5.91348 6.09226C5.91632 6.24073 5.95219 6.3867 6.01847 6.51951C6.08476 6.65233 6.17979 6.76866 6.29664 6.86001L14.3429 14.9214L6.29664 22.9827C6.18343 23.0709 6.08867 23.1806 6.01777 23.3055C5.94687 23.4305 5.90122 23.5681 5.88343 23.7107C5.86564 23.8533 5.87606 23.998 5.91409 24.1365C5.95211 24.2751 6.01701 24.4048 6.10506 24.5182C6.19312 24.6316 6.30261 24.7266 6.42728 24.7976C6.55196 24.8686 6.68938 24.9144 6.8317 24.9322C6.97402 24.95 7.11844 24.9396 7.25674 24.9015C7.39503 24.8634 7.52448 24.7984 7.63769 24.7102L7.82927 24.5182L15.8756 16.4569L23.9219 24.5182C24.017 24.6405 24.137 24.741 24.2739 24.8133C24.4107 24.8856 24.5614 24.9279 24.7158 24.9374C24.8703 24.947 25.0249 24.9235 25.1696 24.8686C25.3143 24.8138 25.4458 24.7287 25.5552 24.6191C25.6646 24.5095 25.7495 24.3778 25.8043 24.2328C25.859 24.0879 25.8825 23.9329 25.8729 23.7782C25.8634 23.6234 25.8212 23.4725 25.749 23.3354C25.6769 23.1982 25.5765 23.078 25.4545 22.9827V22.9827L17.4082 14.9214L25.4545 6.86001C25.6391 6.64702 25.7408 6.37438 25.7408 6.09226C25.7408 5.81015 25.6391 5.53751 25.4545 5.32452C25.2433 5.12246 24.9763 4.98871 24.6882 4.94064C24.4001 4.98871 24.1331 5.12246 23.9219 5.32452L15.8756 13.3859L7.82927 5.32452C7.61804 5.12246 7.35104 4.98871 7.06295 4.94064V4.94064Z" fill="#0272B0"/>
</svg>
