<svg width="19" height="17" viewBox="0 0 19 17" fill="none" xmlns="http://www.w3.org/2000/svg">
<g clip-path="url(#clip0_1274_47)">
<path d="M17.9067 10.9453H16.4145C16.3316 10.9453 16.2487 11.0282 16.2487 11.1111V14.7588H1.82383V11.1111C1.82383 11.0282 1.74093 10.9453 1.65803 10.9453H0.165803C0.0829016 10.9453 0 11.0282 0 11.1111V15.7536C0 16.1681 0.331606 16.4997 0.746114 16.4997H17.3264C17.7409 16.4997 18.0725 16.1681 18.0725 15.7536V11.1111C18.0725 11.0282 17.9896 10.9453 17.9067 10.9453Z" fill="#0272B0"/>
<path d="M11.7723 8.62435H9.94854V0.665803C9.94854 0.582902 9.86563 0.5 9.78273 0.5H8.29051C8.2076 0.5 8.1247 0.582902 8.1247 0.665803V8.62435H6.30087C6.13507 8.62435 6.05216 8.79016 6.13507 8.95596L8.87082 12.272C8.87082 12.272 8.87082 12.272 8.95372 12.3549C9.03662 12.4378 9.03662 12.3549 9.03662 12.3549H9.11952C9.11952 12.3549 9.20242 12.3549 9.20242 12.272L11.9381 8.95596C12.021 8.87306 11.9381 8.62435 11.7723 8.62435Z" fill="#0272B0"/>
</g>
<defs>
<clipPath id="clip0_1274_47">
<rect width="19" height="17" fill="white"/>
</clipPath>
</defs>
</svg>
