<svg width="25" height="23" viewBox="0 0 25 23" fill="none" xmlns="http://www.w3.org/2000/svg">
<path d="M9.28142 5.42981H11.6525V16.0006C11.6525 16.1381 11.768 16.2506 11.9092 16.2506H13.8344C13.9755 16.2506 14.091 16.1381 14.091 16.0006V5.42981H16.4686C16.6836 5.42981 16.8023 5.18921 16.6707 5.02672L13.0771 0.595912C13.0531 0.566034 13.0224 0.541871 12.9874 0.525254C12.9524 0.508636 12.914 0.5 12.875 0.5C12.836 0.5 12.7976 0.508636 12.7626 0.525254C12.7275 0.541871 12.6969 0.566034 12.6729 0.595912L9.07928 5.0236C8.94773 5.18921 9.06644 5.42981 9.28142 5.42981ZM24.6183 15.0632H22.6932C22.552 15.0632 22.4365 15.1757 22.4365 15.3132V20.1252H3.3135V15.3132C3.3135 15.1757 3.19799 15.0632 3.05682 15.0632H1.13168C0.990508 15.0632 0.875 15.1757 0.875 15.3132V21.5001C0.875 22.0532 1.33382 22.5 1.90174 22.5H23.8483C24.4162 22.5 24.875 22.0532 24.875 21.5001V15.3132C24.875 15.1757 24.7595 15.0632 24.6183 15.0632Z" fill="#1D5EE4"/>
</svg>
