<svg width="22" height="15" viewBox="0 0 22 15" fill="none" xmlns="http://www.w3.org/2000/svg">
<path d="M19.8041 0.5H2.96816C2.41563 0.501804 1.88623 0.728016 1.49553 1.12928C1.10483 1.53054 0.884569 2.07425 0.882812 2.64172V12.3583C0.882812 12.9263 1.10251 13.471 1.49359 13.8727C1.88467 14.2744 2.41509 14.5 2.96816 14.5H19.8041C20.3572 14.5 20.8876 14.2744 21.2787 13.8727C21.6698 13.471 21.8895 12.9263 21.8895 12.3583V2.64172C21.8877 2.07425 21.6675 1.53054 21.2768 1.12928C20.8861 0.728016 20.3567 0.501804 19.8041 0.5ZM15.1071 7.00732L21.0167 2.03959C21.1052 2.22726 21.1508 2.4332 21.1499 2.64172V12.3583C21.1488 12.5563 21.108 12.7519 21.03 12.933L15.1071 7.00732ZM19.8041 1.25952C20.0588 1.25816 20.3085 1.33177 20.5237 1.47164L11.3895 9.15591L2.24861 1.47164C2.4638 1.33177 2.7135 1.25816 2.96816 1.25952H19.8041ZM1.74893 12.933C1.6666 12.7532 1.6234 12.557 1.62234 12.3583V2.64172C1.62151 2.4332 1.66709 2.22726 1.75559 2.03959L7.66517 7.00732L1.74893 12.933ZM2.96816 13.7405C2.70348 13.7403 2.44444 13.6619 2.22196 13.5147L8.21815 7.48631L11.3695 10.1344L14.5142 7.48631L20.5103 13.5147C20.289 13.6645 20.0292 13.7431 19.7642 13.7405H2.96816Z" fill="#1D5EE4"/>
</svg>
