<svg width="20" height="21" viewBox="0 0 20 21" fill="none" xmlns="http://www.w3.org/2000/svg">
<path d="M4.52722 0.996857C4.27226 1.00424 4.02172 1.06526 3.79192 1.17595C3.56212 1.28664 3.35822 1.44451 3.19351 1.63927L1.48974 3.58744C1.04748 4.17134 0.831667 4.89567 0.882234 5.62641C0.882234 8.07734 2.62094 11.7014 5.89584 14.9763C9.17074 18.2512 12.7948 19.9968 15.2527 19.9968C15.9798 20.0439 16.6993 19.8256 17.2777 19.3824L19.2259 17.6786C19.4245 17.5164 19.586 17.3133 19.6993 17.0832C19.8125 16.8531 19.8749 16.6013 19.8822 16.3449C19.8731 16.092 19.8119 15.8436 19.7026 15.6154C19.5933 15.3871 19.4381 15.1839 19.2468 15.0182L16.5724 12.3368C16.4119 12.1422 16.2104 11.9855 15.9822 11.878C15.7541 11.7704 15.5049 11.7146 15.2527 11.7146C15.0004 11.7146 14.7513 11.7704 14.5232 11.878C14.295 11.9855 14.0935 12.1422 13.933 12.3368L12.8925 13.3772C12.69 13.5658 12.5364 13.5867 12.3549 13.475L7.39014 8.51726C7.21557 8.34269 7.35522 8.16113 7.45996 8.02148L8.53531 6.93915C8.73213 6.7801 8.89088 6.57903 8.99994 6.35068C9.109 6.12233 9.1656 5.87248 9.1656 5.61942C9.1656 5.36636 9.109 5.11651 8.99994 4.88816C8.89088 4.65981 8.73213 4.45874 8.53531 4.29968L5.85394 1.61832C5.68756 1.42891 5.48381 1.27593 5.25551 1.16898C5.0272 1.06204 4.77925 1.00344 4.52722 0.996857ZM5.16963 2.30961L7.84401 4.99098C8.12332 5.2633 8.18617 5.35408 8.18617 5.62641C8.18617 5.89873 8.08841 6.00347 7.84401 6.24787L6.76868 7.33018C6.56674 7.54393 6.42884 7.81005 6.37066 8.09829C6.33493 8.27894 6.33957 8.46526 6.38423 8.64391C6.42889 8.82256 6.51249 8.98914 6.62903 9.13173L11.7474 14.2501C12.0442 14.4693 12.4157 14.5622 12.7808 14.5084C13.0601 14.4466 13.318 14.3117 13.528 14.1174L14.6242 13.0281C14.8617 12.7837 14.9873 12.6859 15.2527 12.6859C15.518 12.6859 15.6088 12.7558 15.8881 13.0281L18.5625 15.7095C18.7521 15.862 18.8748 16.0824 18.9046 16.3239C18.9046 16.708 18.9047 16.6801 18.5904 16.9384L16.6353 18.6492C16.2242 18.9253 15.7325 19.0556 15.2387 19.0193C13.2696 19.0193 9.7084 17.4202 6.56617 14.285C3.42395 11.1497 1.84585 7.58855 1.84585 5.62641C1.81017 5.13364 1.93778 4.64284 2.20896 4.22986L3.91275 2.28168C3.98492 2.18757 4.07656 2.11015 4.18141 2.05472C4.28625 1.99928 4.40183 1.96714 4.52024 1.96048C4.77332 1.98975 5.00563 2.11465 5.16963 2.30961Z" fill="#1D5EE4"/>
</svg>
