<svg width="31" height="31" viewBox="0 0 31 31" fill="none" xmlns="http://www.w3.org/2000/svg">
<path d="M19.5352 17.6766H18.5929L18.2589 17.3546C19.4279 15.9949 20.1316 14.2298 20.1316 12.3096C20.1316 8.02783 16.6605 4.55713 12.3783 4.55713C8.0961 4.55713 4.625 8.02783 4.625 12.3096C4.625 16.5913 8.0961 20.062 12.3783 20.062C14.2988 20.062 16.0641 19.3583 17.4239 18.1895L17.746 18.5234V19.4656L23.7101 25.4171L25.4874 23.64L19.5352 17.6766V17.6766ZM12.3783 17.6766C9.4082 17.6766 7.01064 15.2793 7.01064 12.3096C7.01064 9.33978 9.4082 6.94249 12.3783 6.94249C15.3484 6.94249 17.746 9.33978 17.746 12.3096C17.746 15.2793 15.3484 17.6766 12.3783 17.6766Z" fill="#0272B0"/>
</svg>
