<svg width="27" height="33" viewBox="0 0 27 33" fill="none" xmlns="http://www.w3.org/2000/svg">
<path d="M26.5937 9.5938L17.8437 0.8438C17.7603 0.75342 17.6587 0.681657 17.5456 0.633195C17.4325 0.584733 17.3105 0.560661 17.1875 0.56255H2.1875C1.60734 0.56255 1.05094 0.793018 0.640704 1.20325C0.230468 1.61349 0 2.16989 0 2.75005V30.25C0 30.8302 0.230468 31.3866 0.640704 31.7968C1.05094 32.2071 1.60734 32.4375 2.1875 32.4375H24.6875C25.2677 32.4375 25.8241 32.2071 26.2343 31.7968C26.6445 31.3866 26.875 30.8302 26.875 30.25V10.25C26.8769 10.127 26.8528 10.005 26.8044 9.89193C26.7559 9.77885 26.6841 9.67727 26.5937 9.5938ZM18.125 3.76567L23.6719 9.31255H18.125V3.76567ZM24.6875 30.5625H2.1875C2.10462 30.5625 2.02513 30.5296 1.96653 30.471C1.90792 30.4124 1.875 30.3329 1.875 30.25V2.75005C1.875 2.66717 1.90792 2.58768 1.96653 2.52908C2.02513 2.47047 2.10462 2.43755 2.1875 2.43755H16.25V10.25C16.25 10.4987 16.3488 10.7371 16.5246 10.913C16.7004 11.0888 16.9389 11.1876 17.1875 11.1876H25V30.25C25 30.3329 24.9671 30.4124 24.9085 30.471C24.8499 30.5296 24.7704 30.5625 24.6875 30.5625ZM18.4687 20.2188C18.5576 20.3034 18.6284 20.4053 18.6767 20.5181C18.7251 20.6309 18.75 20.7523 18.75 20.875C18.75 20.9978 18.7251 21.1192 18.6767 21.232C18.6284 21.3448 18.5576 21.4467 18.4687 21.5313L14.0937 25.9063C14.0091 25.9952 13.9073 26.0659 13.7945 26.1143C13.6817 26.1626 13.5602 26.1875 13.4375 26.1875C13.3148 26.1875 13.1933 26.1626 13.0805 26.1143C12.9677 26.0659 12.8659 25.9952 12.7812 25.9063L8.40625 21.5313C8.2322 21.3573 8.13442 21.1212 8.13442 20.875C8.13442 20.6289 8.2322 20.3928 8.40625 20.2188C8.5803 20.0448 8.81636 19.947 9.0625 19.947C9.30864 19.947 9.5447 20.0448 9.71875 20.2188L12.5 22.9844V15.2501C12.5 15.0014 12.5988 14.763 12.7746 14.5871C12.9504 14.4113 13.1889 14.3126 13.4375 14.3126C13.6861 14.3126 13.9246 14.4113 14.1004 14.5871C14.2762 14.763 14.375 15.0014 14.375 15.2501V22.9844L17.1562 20.2188C17.2409 20.1299 17.3427 20.0592 17.4555 20.0108C17.5683 19.9625 17.6898 19.9375 17.8125 19.9375C17.9352 19.9375 18.0567 19.9625 18.1695 20.0108C18.2823 20.0592 18.3841 20.1299 18.4687 20.2188Z" fill="#1D5EE4"/>
</svg>
