<svg width="463" height="531" viewBox="0 0 463 531" fill="none" xmlns="http://www.w3.org/2000/svg">
<g opacity="0.3" clip-path="url(#clip0_3437_5213)">
<path d="M387.455 217.707V218.207H387.955H576.466H576.966V217.707V92.7348V92.2348H576.466H387.955H387.455V92.7348V217.707ZM578.196 220.942H385.938C385.059 220.942 384.42 220.302 384.42 219.431V91.0742C384.553 90.5665 384.738 90.173 384.976 89.9097C385.206 89.6541 385.504 89.5 385.938 89.5H578.196C579.074 89.5 579.713 90.1396 579.713 91.011V219.718C579.713 220.254 579.125 220.942 578.196 220.942Z" fill="white" stroke="white"/>
<path d="M582.519 244.5H381.902C374.676 244.5 368.566 238.682 368.566 231.21V222.591C368.566 219.996 370.647 217.92 373.255 217.92H590.878C593.486 217.92 595.566 219.996 595.566 222.591V231.21C595.566 238.696 589.732 244.5 582.519 244.5ZM373.255 220.942C372.709 220.942 372.216 221.125 371.857 221.483C371.498 221.841 371.314 222.333 371.314 222.878V231.497C371.314 237.234 376.151 242.053 381.902 242.053H582.519C588.27 242.053 593.108 237.234 593.108 231.497V222.878C593.108 222.333 592.923 221.841 592.564 221.483C592.205 221.125 591.712 220.942 591.166 220.942H373.255Z" fill="white" stroke="white"/>
<path d="M469.528 160.898H438.109C437.231 160.898 436.592 160.258 436.592 159.387C436.592 158.515 437.231 157.876 438.109 157.876H469.528C470.39 157.876 471.022 158.492 471.045 159.339C470.915 159.946 470.676 160.329 470.419 160.559C470.157 160.794 469.846 160.898 469.528 160.898Z" fill="white" stroke="white"/>
<path d="M526.312 181.583H438.109C437.231 181.583 436.592 180.943 436.592 180.072C436.592 179.2 437.231 178.561 438.109 178.561H526.312C527.17 178.561 527.8 179.171 527.828 180.011C527.701 180.477 527.464 180.875 527.184 181.154C526.888 181.449 526.576 181.583 526.312 181.583Z" fill="white" stroke="white"/>
<path d="M526.312 201.981H438.109C437.231 201.981 436.592 201.341 436.592 200.47C436.592 199.598 437.231 198.958 438.109 198.958H526.312C527.174 198.958 527.806 199.575 527.829 200.421C527.699 201.029 527.46 201.411 527.203 201.642C526.941 201.877 526.63 201.981 526.312 201.981Z" fill="white" stroke="white"/>
<path d="M484.805 119.815H438.109C437.231 119.815 436.592 119.175 436.592 118.304C436.592 117.432 437.231 116.793 438.109 116.793H484.805C485.663 116.793 486.293 117.404 486.322 118.245C486.188 118.75 486.004 119.143 485.767 119.405C485.536 119.661 485.238 119.815 484.805 119.815Z" fill="white" stroke="white"/>
<path d="M451.368 140.5H437.82C436.942 140.5 436.303 139.86 436.303 138.989C436.303 138.117 436.942 137.478 437.82 137.478H451.368C452.246 137.478 452.886 138.117 452.886 138.989C452.886 139.86 452.246 140.5 451.368 140.5Z" fill="white" stroke="white"/>
</g>
<g opacity="0.3">
<path d="M181.931 155.953L181.895 155.881L181.84 155.825C181.84 155.825 181.818 155.797 181.792 155.712C181.763 155.62 181.74 155.498 181.724 155.349C181.694 155.077 181.691 154.771 181.69 154.492C182.563 151.862 183.444 148.909 183.74 146.232L183.743 146.204V146.176C183.743 145.897 183.888 145.577 184.147 145.316C184.407 145.056 184.726 144.912 185.003 144.912H193.216H193.716V144.412V137.647V137.147H193.216H184.71C184.375 137.147 184.045 137.034 183.808 136.848C183.576 136.667 183.45 136.436 183.45 136.176V136.135L183.443 136.095C182.55 130.722 180.173 125.356 176.609 120.882C176.368 120.513 176.264 120.172 176.264 119.853C176.264 119.54 176.363 119.207 176.595 118.846L182.424 113L182.766 112.658L182.435 112.305L177.742 107.305L177.388 106.928L177.023 107.294L171.157 113.176L171.132 113.201L171.111 113.23C170.4 114.181 169.522 114.155 169.129 113.981C164.649 110.699 159.009 108.923 153.703 108.036L153.662 108.029H153.62C153.343 108.029 153.024 107.886 152.764 107.625C152.505 107.364 152.36 107.044 152.36 106.765V98.5294V98.0294H151.86H149.514C148.618 98.0294 147.961 97.3722 147.961 96.4706V2.05882C147.961 1.15718 148.618 0.5 149.514 0.5H332.24C333.135 0.5 333.793 1.15718 333.793 2.05882V155.211C333.518 155.991 333.054 156.559 332.24 156.559H182.95C182.526 156.559 182.128 156.349 181.931 155.953ZM185.393 153.138L185.274 153.735H185.883H330.48H330.98V153.235V3.82353V3.32353H330.48H151.567H151.067V3.82353V94.7059V95.2059H151.567H153.914C154.809 95.2059 155.467 95.8631 155.467 96.7647V105.294V105.713L155.879 105.786C160.804 106.658 165.439 108.401 169.787 111.017L170.123 111.218L170.399 110.941L176.558 104.765C176.922 104.4 177.313 104.25 177.634 104.25C177.944 104.25 178.227 104.387 178.428 104.689L178.455 104.73L178.49 104.765L186.116 112.412C186.479 112.776 186.63 113.169 186.63 113.493C186.63 113.805 186.492 114.09 186.192 114.29L186.151 114.318L186.116 114.353L180.25 120.235L179.951 120.534L180.197 120.878C183.089 124.939 185.117 129.584 186.276 134.526L186.367 134.912H186.763H195.562C196.458 134.912 197.115 135.569 197.115 136.471V147.059C197.115 147.96 196.458 148.618 195.562 148.618H187.056H186.788L186.64 148.841C186.295 149.359 186.059 150.094 185.875 150.835C185.728 151.423 185.604 152.059 185.488 152.654C185.456 152.819 185.424 152.981 185.393 153.138Z" fill="white" stroke="white"/>
<path d="M332.24 39.2059H149.514C148.618 39.2059 147.961 38.5487 147.961 37.6471C147.961 36.7454 148.618 36.0883 149.514 36.0883H332.24C333.116 36.0883 333.764 36.7169 333.792 37.588C333.656 38.1082 333.467 38.5126 333.224 38.7837C332.987 39.0475 332.682 39.2059 332.24 39.2059Z" fill="white" stroke="white"/>
<path d="M211.57 19.7059V19.7225L211.571 19.7391C211.842 23.8193 208.599 26.853 204.444 26.853C200.615 26.853 197.318 23.5487 197.318 19.7059C197.318 15.8631 200.615 12.5588 204.444 12.5588C208.273 12.5588 211.57 15.8631 211.57 19.7059ZM204.444 15.3824C202.114 15.3824 200.131 17.3722 200.131 19.7059C200.131 22.3588 202.139 24.0294 204.444 24.0294C206.763 24.0294 208.737 22.0596 208.757 19.7412C209.078 17.3298 207.01 15.3824 204.444 15.3824Z" fill="white" stroke="white"/>
<path d="M243.454 26.853C239.625 26.853 236.328 23.5487 236.328 19.7059C236.328 15.8631 239.625 12.5588 243.454 12.5588C247.283 12.5588 250.58 15.8631 250.58 19.7059C250.58 23.8303 247.295 26.853 243.454 26.853ZM243.454 15.3824C241.123 15.3824 239.141 17.3722 239.141 19.7059C239.141 22.3588 241.149 24.0294 243.454 24.0294C245.784 24.0294 247.767 22.0395 247.767 19.7059C247.767 17.3722 245.784 15.3824 243.454 15.3824Z" fill="white" stroke="white"/>
<path d="M289.295 19.7059V19.7225L289.296 19.7391C289.567 23.8193 286.324 26.853 282.169 26.853C278.34 26.853 275.043 23.5487 275.043 19.7059C275.043 15.8631 278.34 12.5588 282.169 12.5588C285.998 12.5588 289.295 15.8631 289.295 19.7059ZM282.169 15.3824C279.838 15.3824 277.856 17.3722 277.856 19.7059C277.856 22.0395 279.838 24.0294 282.169 24.0294C284.488 24.0294 286.462 22.0596 286.482 19.7412C286.802 17.3298 284.734 15.3824 282.169 15.3824Z" fill="white" stroke="white"/>
<mask id="path-13-inside-1_3437_5213" fill="white">
<path d="M155.967 190H145.408C144.235 190 143.355 189.118 143.355 187.941V179.412C138.369 178.529 133.676 176.765 129.277 174.118L123.118 180.294C122.238 181.176 121.064 181.176 120.478 180.294L112.852 172.647C111.972 171.765 111.972 170.588 112.852 170L118.718 164.118C115.785 160 113.732 155.294 112.559 150.294H103.76C102.88 150.882 102 150 102 148.824V138.235C102 137.059 102.88 136.176 104.053 136.176H112.265C113.145 131.176 114.905 126.471 117.545 122.059L111.386 115.882C111.092 115.588 110.799 115 110.799 114.706C110.799 114.118 111.092 113.824 111.386 113.235L119.011 105.588C119.305 105.294 119.891 105 120.478 105C121.064 105 121.358 105.294 121.944 105.588L127.81 111.471C131.917 108.529 136.609 106.471 141.595 105.294V96.4706C141.595 95.2941 142.475 94.4117 143.649 94.4117H154.207C155.381 94.4117 156.26 95.2941 156.26 96.4706V105C161.247 105.882 165.939 107.647 170.339 110.294L176.498 104.118C177.378 103.235 178.551 103.235 179.138 104.118L186.764 111.765C187.643 112.647 187.643 113.824 186.764 114.412L180.898 120.294C183.831 124.412 185.884 129.118 187.057 134.118H195.856C197.029 134.118 197.909 135 197.909 136.176V146.765C197.909 147.941 197.029 148.824 195.856 148.824H187.35C186.47 153.824 184.71 158.529 182.071 162.941L188.23 169.118C189.11 170 189.11 171.176 188.23 171.765L180.604 179.412C180.311 179.706 179.724 180 179.138 180C178.551 180 178.258 179.706 177.671 179.412L171.805 173.529C167.699 176.471 163.006 178.529 158.02 179.706V188.529C158.02 189.118 157.14 190 155.967 190ZM147.461 186.176H154.207V177.647C154.207 176.765 154.794 175.882 155.674 175.882C160.953 175 166.233 172.647 170.632 169.118C171.512 168.529 172.392 168.529 173.272 169.412L179.138 175.294L184.124 170.294L178.258 164.412C177.671 163.824 177.378 162.647 177.965 162.059C181.191 157.353 182.951 152.059 183.831 146.765C183.831 145.882 184.71 145 185.59 145H193.803V138.235H185.297C184.417 138.235 183.537 137.647 183.537 136.765C182.657 131.471 180.311 126.176 176.791 121.765C176.205 120.882 176.205 120 176.791 119.118L182.657 113.235L177.965 108.235L172.099 114.118C170.632 114.706 169.459 114.706 168.872 114.412C164.473 111.176 158.9 109.412 153.621 108.529C152.741 108.529 151.861 107.647 151.861 106.765V98.5294H145.115V107.059C145.115 107.941 144.528 108.824 143.649 108.824C138.369 109.706 133.09 112.059 128.69 115.588C127.81 116.176 126.93 116.176 126.051 115.588L120.185 109.706L115.492 114.706L121.358 120.588C121.944 121.176 122.238 122.353 121.651 122.941C118.425 127.353 116.372 132.941 115.785 138.235C115.785 139.118 114.905 140 114.025 140H105.813V147.059H114.319C115.198 147.059 116.078 147.647 116.078 148.529C116.958 153.824 119.305 159.118 122.824 163.529C123.411 164.412 123.411 165.294 122.824 166.176L116.958 172.059L121.651 177.059L127.517 171.176C128.397 170 129.57 170 130.45 170.588C135.143 173.824 140.422 175.588 145.702 176.471C146.582 176.471 147.461 177.353 147.461 178.235V186.176Z"/>
</mask>
<path d="M155.967 190H145.408C144.235 190 143.355 189.118 143.355 187.941V179.412C138.369 178.529 133.676 176.765 129.277 174.118L123.118 180.294C122.238 181.176 121.064 181.176 120.478 180.294L112.852 172.647C111.972 171.765 111.972 170.588 112.852 170L118.718 164.118C115.785 160 113.732 155.294 112.559 150.294H103.76C102.88 150.882 102 150 102 148.824V138.235C102 137.059 102.88 136.176 104.053 136.176H112.265C113.145 131.176 114.905 126.471 117.545 122.059L111.386 115.882C111.092 115.588 110.799 115 110.799 114.706C110.799 114.118 111.092 113.824 111.386 113.235L119.011 105.588C119.305 105.294 119.891 105 120.478 105C121.064 105 121.358 105.294 121.944 105.588L127.81 111.471C131.917 108.529 136.609 106.471 141.595 105.294V96.4706C141.595 95.2941 142.475 94.4117 143.649 94.4117H154.207C155.381 94.4117 156.26 95.2941 156.26 96.4706V105C161.247 105.882 165.939 107.647 170.339 110.294L176.498 104.118C177.378 103.235 178.551 103.235 179.138 104.118L186.764 111.765C187.643 112.647 187.643 113.824 186.764 114.412L180.898 120.294C183.831 124.412 185.884 129.118 187.057 134.118H195.856C197.029 134.118 197.909 135 197.909 136.176V146.765C197.909 147.941 197.029 148.824 195.856 148.824H187.35C186.47 153.824 184.71 158.529 182.071 162.941L188.23 169.118C189.11 170 189.11 171.176 188.23 171.765L180.604 179.412C180.311 179.706 179.724 180 179.138 180C178.551 180 178.258 179.706 177.671 179.412L171.805 173.529C167.699 176.471 163.006 178.529 158.02 179.706V188.529C158.02 189.118 157.14 190 155.967 190ZM147.461 186.176H154.207V177.647C154.207 176.765 154.794 175.882 155.674 175.882C160.953 175 166.233 172.647 170.632 169.118C171.512 168.529 172.392 168.529 173.272 169.412L179.138 175.294L184.124 170.294L178.258 164.412C177.671 163.824 177.378 162.647 177.965 162.059C181.191 157.353 182.951 152.059 183.831 146.765C183.831 145.882 184.71 145 185.59 145H193.803V138.235H185.297C184.417 138.235 183.537 137.647 183.537 136.765C182.657 131.471 180.311 126.176 176.791 121.765C176.205 120.882 176.205 120 176.791 119.118L182.657 113.235L177.965 108.235L172.099 114.118C170.632 114.706 169.459 114.706 168.872 114.412C164.473 111.176 158.9 109.412 153.621 108.529C152.741 108.529 151.861 107.647 151.861 106.765V98.5294H145.115V107.059C145.115 107.941 144.528 108.824 143.649 108.824C138.369 109.706 133.09 112.059 128.69 115.588C127.81 116.176 126.93 116.176 126.051 115.588L120.185 109.706L115.492 114.706L121.358 120.588C121.944 121.176 122.238 122.353 121.651 122.941C118.425 127.353 116.372 132.941 115.785 138.235C115.785 139.118 114.905 140 114.025 140H105.813V147.059H114.319C115.198 147.059 116.078 147.647 116.078 148.529C116.958 153.824 119.305 159.118 122.824 163.529C123.411 164.412 123.411 165.294 122.824 166.176L116.958 172.059L121.651 177.059L127.517 171.176C128.397 170 129.57 170 130.45 170.588C135.143 173.824 140.422 175.588 145.702 176.471C146.582 176.471 147.461 177.353 147.461 178.235V186.176Z" fill="white" stroke="white" stroke-width="2" mask="url(#path-13-inside-1_3437_5213)"/>
<path d="M149.515 165.382C136.887 165.382 126.551 155.019 126.551 142.353C126.551 129.687 136.887 119.323 149.515 119.323C162.142 119.323 172.479 129.687 172.479 142.353C172.479 155.019 162.142 165.382 149.515 165.382ZM149.515 122.147C138.385 122.147 129.364 131.196 129.364 142.353C129.364 153.51 138.385 162.559 149.515 162.559C160.644 162.559 169.666 153.51 169.666 142.353C169.666 131.196 160.644 122.147 149.515 122.147Z" fill="white" stroke="white"/>
<path d="M293.526 66.5588H212.282C211.386 66.5588 210.729 65.9016 210.729 65C210.729 64.0983 211.386 63.4412 212.282 63.4412H293.526C294.421 63.4412 295.079 64.0983 295.079 65C295.079 65.9016 294.421 66.5588 293.526 66.5588Z" fill="white" stroke="white"/>
<path d="M293.524 100.971H219.026C218.13 100.971 217.473 100.313 217.473 99.4117C217.473 98.5101 218.13 97.8529 219.026 97.8529H293.817C294.693 97.8529 295.341 98.481 295.369 99.3516C295.102 100.336 294.389 100.971 293.524 100.971Z" fill="white" stroke="white"/>
<path d="M293.524 135.088H242.784C241.888 135.088 241.23 134.431 241.23 133.529C241.23 132.628 241.888 131.971 242.784 131.971H293.818C294.693 131.971 295.341 132.599 295.37 133.469C295.102 134.454 294.389 135.088 293.524 135.088Z" fill="white" stroke="white"/>
</g>
<g opacity="0.3" clip-path="url(#clip1_3437_5213)">
<path d="M123.189 313.778L123.223 313.762L123.253 313.74L248.499 225.732L248.535 225.707L248.566 225.676C249.014 225.227 249.663 225.227 250.112 225.676L250.142 225.706L250.178 225.731L375.102 313.74L375.132 313.762L375.166 313.778C375.708 314.05 376.178 314.553 376.178 315.266V315.347L376.203 315.423C376.293 315.692 376.219 315.985 375.962 316.242C375.701 316.503 375.268 316.7 374.746 316.7H124.253C123.575 316.7 123.076 316.271 122.796 315.43C122.523 314.609 122.843 313.952 123.189 313.778ZM130.405 312.6L129.112 313.509H130.693H367.985H369.562L368.273 312.6L249.788 229.105L249.5 228.902L249.212 229.104L130.405 312.6Z" fill="white" stroke="white"/>
<path d="M230.326 343.319V343.819H230.826H267.853H268.353V343.319V327.2V326.7H267.853H230.826H230.326V327.2V343.319ZM270.107 347.01H228.894C227.883 347.01 227.141 346.267 227.141 345.253V325.266C227.141 324.252 227.883 323.509 228.894 323.509H270.107C271.118 323.509 271.86 324.252 271.86 325.266V345.49C271.721 345.863 271.462 346.244 271.14 346.534C270.794 346.846 270.425 347.01 270.107 347.01Z" fill="white" stroke="white"/>
<path d="M316.935 343.319V343.819H317.435H354.462H354.962V343.319V327.2V326.7H354.462H317.435H316.935V327.2V343.319ZM356.716 347.01H315.182C314.17 347.01 313.428 346.267 313.428 345.253V325.266C313.428 324.252 314.17 323.509 315.182 323.509H356.394C357.405 323.509 358.147 324.252 358.147 325.266V345.575C358.147 345.896 357.982 346.259 357.69 346.552C357.398 346.844 357.036 347.01 356.716 347.01Z" fill="white" stroke="white"/>
<path d="M143.715 343.319V343.819H144.215H181.241H181.741V343.319V327.2V326.7H181.241H144.215H143.715V327.2V343.319ZM183.495 347.01H142.283C141.272 347.01 140.529 346.267 140.529 345.253V325.266C140.529 324.252 141.272 323.509 142.283 323.509H183.495C184.506 323.509 185.249 324.252 185.249 325.266V345.49C185.109 345.863 184.85 346.244 184.529 346.534C184.183 346.846 183.814 347.01 183.495 347.01Z" fill="white" stroke="white"/>
<path d="M230.326 454.532V455.032H230.826H267.853H268.353V454.532V438.413V437.913H267.853H230.826H230.326V438.413V454.532ZM270.107 458.223H228.894C227.883 458.223 227.141 457.48 227.141 456.467V436.157C227.141 435.143 227.883 434.4 228.894 434.4H270.107C271.118 434.4 271.86 435.143 271.86 436.157V456.403C271.716 456.941 271.444 457.402 271.121 457.725C270.783 458.063 270.421 458.223 270.107 458.223Z" fill="white" stroke="white"/>
<path d="M316.935 454.532V455.032H317.435H354.462H354.962V454.532V438.413V437.913H354.462H317.435H316.935V438.413V454.532ZM356.716 458.223H315.182C314.17 458.223 313.428 457.48 313.428 456.467V436.157C313.428 435.143 314.17 434.4 315.182 434.4H356.394C357.405 434.4 358.147 435.143 358.147 436.157V456.467C358.147 457.531 357.357 458.223 356.716 458.223Z" fill="white" stroke="white"/>
<path d="M143.715 454.532V455.032H144.215H181.241H181.741V454.532V438.413V437.913H181.241H144.215H143.715V438.413V454.532ZM183.495 458.223H142.283C141.272 458.223 140.529 457.48 140.529 456.467V436.157C140.529 435.143 141.272 434.4 142.283 434.4H183.495C184.506 434.4 185.249 435.143 185.249 436.157V456.403C185.104 456.941 184.833 457.402 184.51 457.725C184.172 458.063 183.809 458.223 183.495 458.223Z" fill="white" stroke="white"/>
<path d="M126.65 475.809V476.309H127.15H371.525H372.025V475.809V458.723V458.223H371.525H127.15H126.65V458.723V475.809ZM373.779 479.5H125.219C124.207 479.5 123.465 478.757 123.465 477.743V456.467C123.465 455.453 124.207 454.71 125.219 454.71H373.779C374.79 454.71 375.533 455.453 375.533 456.467V477.68C375.388 478.218 375.117 478.679 374.794 479.002C374.456 479.34 374.093 479.5 373.779 479.5Z" fill="white" stroke="white"/>
</g>
<g opacity="0.3">
<path d="M462.5 288C435.161 288 413 310.161 413 337.5C413 347.857 416.198 357.49 421.643 365.448L462.5 425.077L503.357 365.448C508.802 357.49 512 347.857 512 337.5C512 310.161 489.839 288 462.5 288Z" stroke="white" stroke-width="3.5" stroke-miterlimit="10" stroke-linecap="round" stroke-linejoin="round"/>
<path d="M462.5 360.346C475.118 360.346 485.347 350.118 485.347 337.5C485.347 324.883 475.118 314.654 462.5 314.654C449.883 314.654 439.654 324.883 439.654 337.5C439.654 350.118 449.883 360.346 462.5 360.346Z" stroke="white" stroke-width="3.5" stroke-miterlimit="10" stroke-linecap="round" stroke-linejoin="round"/>
</g>
<g opacity="0.3">
<mask id="path-28-inside-2_3437_5213" fill="white">
<path d="M105.969 274.589H95.4103C94.2371 274.589 93.3572 273.706 93.3572 272.53V264C88.3711 263.118 83.6783 261.353 79.2788 258.706L73.1195 264.883C72.2396 265.765 71.0664 265.765 70.4798 264.883L62.854 257.236C61.9741 256.353 61.9741 255.177 62.854 254.589L68.72 248.706C65.787 244.589 63.7339 239.883 62.5607 234.883H53.7618C52.8819 235.471 52.002 234.589 52.002 233.412V222.824C52.002 221.647 52.8819 220.765 54.0551 220.765H62.2674C63.1473 215.765 64.9071 211.059 67.5468 206.647L61.3875 200.471C61.0942 200.177 60.8009 199.589 60.8009 199.294C60.8009 198.706 61.0942 198.412 61.3875 197.824L69.0133 190.177C69.3066 189.883 69.8932 189.589 70.4798 189.589C71.0664 189.589 71.3597 189.883 71.9463 190.177L77.8123 196.059C81.9185 193.118 86.6113 191.059 91.5974 189.883V181.059C91.5974 179.883 92.4773 179 93.6505 179H104.209C105.382 179 106.262 179.883 106.262 181.059V189.589C111.248 190.471 115.941 192.236 120.341 194.883L126.5 188.706C127.38 187.824 128.553 187.824 129.14 188.706L136.766 196.353C137.645 197.236 137.645 198.412 136.766 199L130.9 204.883C133.833 209 135.886 213.706 137.059 218.706H145.858C147.031 218.706 147.911 219.589 147.911 220.765V231.353C147.911 232.53 147.031 233.412 145.858 233.412H137.352C136.472 238.412 134.712 243.118 132.073 247.53L138.232 253.706C139.112 254.589 139.112 255.765 138.232 256.353L130.606 264C130.313 264.294 129.726 264.589 129.14 264.589C128.553 264.589 128.26 264.294 127.673 264L121.807 258.118C117.701 261.059 113.008 263.118 108.022 264.294V273.118C108.022 273.706 107.142 274.589 105.969 274.589ZM97.4634 270.765H104.209V262.236C104.209 261.353 104.796 260.471 105.676 260.471C110.955 259.589 116.235 257.236 120.634 253.706C121.514 253.118 122.394 253.118 123.274 254L129.14 259.883L134.126 254.883L128.26 249C127.673 248.412 127.38 247.236 127.967 246.647C131.193 241.942 132.953 236.647 133.833 231.353C133.833 230.471 134.712 229.589 135.592 229.589H143.805V222.824H135.299C134.419 222.824 133.539 222.236 133.539 221.353C132.659 216.059 130.313 210.765 126.793 206.353C126.207 205.471 126.207 204.589 126.793 203.706L132.659 197.824L127.967 192.824L122.101 198.706C120.634 199.294 119.461 199.294 118.874 199C114.475 195.765 108.902 194 103.623 193.118C102.743 193.118 101.863 192.236 101.863 191.353V183.118H95.117V191.647C95.117 192.53 94.5304 193.412 93.6505 193.412C88.3711 194.294 83.0917 196.647 78.6922 200.177C77.8123 200.765 76.9324 200.765 76.0525 200.177L70.1865 194.294L65.4937 199.294L71.3597 205.177C71.9463 205.765 72.2396 206.942 71.653 207.53C68.4267 211.942 66.3736 217.53 65.787 222.824C65.787 223.706 64.9071 224.589 64.0272 224.589H55.8148V231.647H64.3205C65.2004 231.647 66.0803 232.236 66.0803 233.118C66.9602 238.412 69.3066 243.706 72.8262 248.118C73.4128 249 73.4128 249.883 72.8262 250.765L66.9602 256.647L71.653 261.647L77.519 255.765C78.3989 254.589 79.5721 254.589 80.452 255.177C85.1448 258.412 90.4242 260.177 95.7036 261.059C96.5835 261.059 97.4634 261.942 97.4634 262.824V270.765Z"/>
</mask>
<path d="M105.969 274.589H95.4103C94.2371 274.589 93.3572 273.706 93.3572 272.53V264C88.3711 263.118 83.6783 261.353 79.2788 258.706L73.1195 264.883C72.2396 265.765 71.0664 265.765 70.4798 264.883L62.854 257.236C61.9741 256.353 61.9741 255.177 62.854 254.589L68.72 248.706C65.787 244.589 63.7339 239.883 62.5607 234.883H53.7618C52.8819 235.471 52.002 234.589 52.002 233.412V222.824C52.002 221.647 52.8819 220.765 54.0551 220.765H62.2674C63.1473 215.765 64.9071 211.059 67.5468 206.647L61.3875 200.471C61.0942 200.177 60.8009 199.589 60.8009 199.294C60.8009 198.706 61.0942 198.412 61.3875 197.824L69.0133 190.177C69.3066 189.883 69.8932 189.589 70.4798 189.589C71.0664 189.589 71.3597 189.883 71.9463 190.177L77.8123 196.059C81.9185 193.118 86.6113 191.059 91.5974 189.883V181.059C91.5974 179.883 92.4773 179 93.6505 179H104.209C105.382 179 106.262 179.883 106.262 181.059V189.589C111.248 190.471 115.941 192.236 120.341 194.883L126.5 188.706C127.38 187.824 128.553 187.824 129.14 188.706L136.766 196.353C137.645 197.236 137.645 198.412 136.766 199L130.9 204.883C133.833 209 135.886 213.706 137.059 218.706H145.858C147.031 218.706 147.911 219.589 147.911 220.765V231.353C147.911 232.53 147.031 233.412 145.858 233.412H137.352C136.472 238.412 134.712 243.118 132.073 247.53L138.232 253.706C139.112 254.589 139.112 255.765 138.232 256.353L130.606 264C130.313 264.294 129.726 264.589 129.14 264.589C128.553 264.589 128.26 264.294 127.673 264L121.807 258.118C117.701 261.059 113.008 263.118 108.022 264.294V273.118C108.022 273.706 107.142 274.589 105.969 274.589ZM97.4634 270.765H104.209V262.236C104.209 261.353 104.796 260.471 105.676 260.471C110.955 259.589 116.235 257.236 120.634 253.706C121.514 253.118 122.394 253.118 123.274 254L129.14 259.883L134.126 254.883L128.26 249C127.673 248.412 127.38 247.236 127.967 246.647C131.193 241.942 132.953 236.647 133.833 231.353C133.833 230.471 134.712 229.589 135.592 229.589H143.805V222.824H135.299C134.419 222.824 133.539 222.236 133.539 221.353C132.659 216.059 130.313 210.765 126.793 206.353C126.207 205.471 126.207 204.589 126.793 203.706L132.659 197.824L127.967 192.824L122.101 198.706C120.634 199.294 119.461 199.294 118.874 199C114.475 195.765 108.902 194 103.623 193.118C102.743 193.118 101.863 192.236 101.863 191.353V183.118H95.117V191.647C95.117 192.53 94.5304 193.412 93.6505 193.412C88.3711 194.294 83.0917 196.647 78.6922 200.177C77.8123 200.765 76.9324 200.765 76.0525 200.177L70.1865 194.294L65.4937 199.294L71.3597 205.177C71.9463 205.765 72.2396 206.942 71.653 207.53C68.4267 211.942 66.3736 217.53 65.787 222.824C65.787 223.706 64.9071 224.589 64.0272 224.589H55.8148V231.647H64.3205C65.2004 231.647 66.0803 232.236 66.0803 233.118C66.9602 238.412 69.3066 243.706 72.8262 248.118C73.4128 249 73.4128 249.883 72.8262 250.765L66.9602 256.647L71.653 261.647L77.519 255.765C78.3989 254.589 79.5721 254.589 80.452 255.177C85.1448 258.412 90.4242 260.177 95.7036 261.059C96.5835 261.059 97.4634 261.942 97.4634 262.824V270.765Z" fill="white" stroke="white" stroke-width="2" mask="url(#path-28-inside-2_3437_5213)"/>
<path d="M99.5167 249.971C86.889 249.971 76.5527 239.608 76.5527 226.942C76.5527 214.275 86.889 203.912 99.5167 203.912C112.144 203.912 122.481 214.275 122.481 226.942C122.481 239.608 112.144 249.971 99.5167 249.971ZM99.5167 206.736C88.3872 206.736 79.3656 215.784 79.3656 226.942C79.3656 238.099 88.3872 247.147 99.5167 247.147C110.646 247.147 119.668 238.099 119.668 226.942C119.668 215.784 110.646 206.736 99.5167 206.736Z" fill="white" stroke="white"/>
</g>
<line opacity="0.3" x1="156.538" y1="282.449" x2="138.024" y2="264.194" stroke="white" stroke-width="5"/>
<circle opacity="0.3" cx="173.277" cy="299.655" r="16" transform="rotate(134.596 173.277 299.655)" stroke="white" stroke-width="4"/>
<line opacity="0.3" x1="42.1947" y1="172.662" x2="60.7085" y2="190.917" stroke="white" stroke-width="5"/>
<circle opacity="0.3" cx="25.4552" cy="155.455" r="16" transform="rotate(-45.4036 25.4552 155.455)" stroke="white" stroke-width="4"/>
<line opacity="0.3" y1="-2.5" x2="26" y2="-2.5" transform="matrix(0.71207 -0.702109 -0.702109 -0.71207 42.4395 281.937)" stroke="white" stroke-width="5"/>
<circle opacity="0.3" cx="18" cy="18" r="16" transform="matrix(0.702109 0.71207 0.71207 -0.702109 2 300.744)" stroke="white" stroke-width="4"/>
<path d="M468.802 35H464.331C463.373 35 462.734 35.6384 462.734 36.5959C462.734 37.5533 463.373 38.1917 464.331 38.1917H467.205V48.0857C467.205 49.0432 467.844 49.6815 468.802 49.6815C469.76 49.6815 470.399 49.0432 470.399 48.0857V36.5959C470.399 35.6384 469.76 35 468.802 35ZM448.364 35H432.398C431.44 35 430.801 35.6384 430.801 36.5959C430.801 37.5533 431.44 38.1917 432.398 38.1917H448.364C449.322 38.1917 449.961 37.5533 449.961 36.5959C449.961 35.6384 449.322 35 448.364 35ZM416.431 35H400.464C399.506 35 398.867 35.6384 398.867 36.5959C398.867 37.5533 399.506 38.1917 400.464 38.1917H416.431C417.389 38.1917 418.027 37.5533 418.027 36.5959C418.027 35.6384 417.389 35 416.431 35ZM384.497 35H368.53C367.572 35 366.934 35.6384 366.934 36.5959C366.934 37.5533 367.572 38.1917 368.53 38.1917H384.497C385.455 38.1917 386.094 37.5533 386.094 36.5959C386.094 35.6384 385.455 35 384.497 35ZM352.563 35H336.597C335.639 35 335 35.6384 335 36.5959C335 37.5533 335.639 38.1917 336.597 38.1917H352.563C353.521 38.1917 354.16 37.5533 354.16 36.5959C354.16 35.6384 353.521 35 352.563 35ZM468.802 62.4481C467.844 62.4481 467.205 63.0864 467.205 64.0439V80.0021C467.205 80.9596 467.844 81.5979 468.802 81.5979C469.76 81.5979 470.399 80.9596 470.399 80.0021V64.0439C470.399 63.0864 469.76 62.4481 468.802 62.4481Z" fill="white" fill-opacity="0.3"/>
<defs>
<clipPath id="clip0_3437_5213">
<rect width="228" height="156" fill="white" transform="translate(368.066 89)"/>
</clipPath>
<clipPath id="clip1_3437_5213">
<rect width="255" height="255" fill="white" transform="translate(122 225)"/>
</clipPath>
</defs>
</svg>
