<svg width="1920" height="1305" viewBox="0 0 1920 1305" fill="none" xmlns="http://www.w3.org/2000/svg">
<rect width="1920" height="1305" fill="#F2F7FA"/>
<path d="M1627.41 -56.8932L1595.09 -112.948M1659.36 -112.916L1626.98 -56.8878M1594.58 668.708L1626.97 612.693L1691.68 612.733M1626.56 612.738L1658.89 668.805M1691.71 613.149L1627 613.11L1594.66 557.003L1627.04 500.975L1691.75 501.015M1626.61 500.981L1658.93 557.035L1626.51 613.065M1691.73 501.407L1627.03 501.368L1594.7 445.3L1627.09 389.285L1691.8 389.325M1626.65 389.278L1658.98 445.345L1626.62 501.392M1691.85 389.714L1627.14 389.674L1594.83 333.62L1627.22 277.605L1691.93 277.644M1626.78 277.597L1659.14 333.73L1626.74 389.752M1691.97 278.087L1627.26 278.034L1594.88 221.862L1627.27 165.847L1691.97 165.887M1626.81 165.847L1659.13 221.902L1626.75 277.93M1692 166.291L1627.29 166.251L1594.95 110.144L1627.35 54.122L1692.06 54.1615M1626.9 54.1218L1659.22 110.189L1626.83 166.204M1692.04 54.5334L1627.34 54.494L1595.02 -1.56046L1627.42 -57.596L1692.12 -57.5359M1626.96 -57.5756L1659.28 -1.52119L1626.89 54.5069M1788.85 668.757L1724.13 668.725L1691.8 612.644L1724.21 556.622L1788.91 556.661M1723.79 556.687L1756.08 612.689L1723.69 668.704M1788.9 557.033L1724.19 556.994L1691.88 500.94L1724.26 444.912L1788.98 444.943M1723.83 444.917L1756.15 500.971L1723.75 556.986M1788.96 445.336L1724.26 445.296L1691.94 389.229L1724.33 333.214L1789.05 333.246M1723.89 333.206L1756.21 389.274L1723.86 445.334M1789.08 333.663L1724.37 333.623L1692.06 277.569L1724.45 221.554L1789.15 221.593M1724 221.533L1756.32 277.601L1723.93 333.616M1789.15 221.958L1724.46 221.823L1692.15 165.769L1724.54 109.754L1789.24 109.793M1724.1 109.746L1756.41 165.8L1724.03 221.828M1789.22 110.24L1724.45 110.171L1692.13 54.1032L1724.52 -1.91166L1789.22 -1.87225M1724.16 -1.96452L1756.48 54.1029L1724.09 110.118M1789.31 -1.53986L1724.6 -1.59243L1692.28 -57.6469L1724.66 -113.675L1789.38 -113.622M1724.14 -113.617L1756.46 -57.5624L1724.07 -1.53439M1821.59 -56.7246L1789.23 -112.857M1853.5 -112.812L1821.25 -56.7925M1788.79 668.795L1821.19 612.772L1885.89 612.812M1820.74 612.785L1853.06 668.839M1885.9 613.189L1821.18 613.144L1788.89 557.129L1821.28 501.093L1885.99 501.146M1820.84 501.106L1853.16 557.174L1820.77 613.189M1885.97 501.458L1821.32 501.456L1788.96 445.323L1821.35 389.308L1886.07 389.34M1820.91 389.388L1853.27 445.521L1820.88 501.536M1886.1 389.878L1821.29 389.79L1788.98 333.736L1821.36 277.708L1886.09 277.753M1821.01 277.668L1853.32 333.723L1820.94 389.751M1886.16 278.08L1821.45 278.04L1789.09 221.908L1821.48 165.893L1886.2 165.925M1821.04 165.885L1853.4 222.018L1820.98 278.035M1886.19 166.364L1821.53 166.403L1789.17 110.27L1821.56 54.255L1886.29 54.3M1821.13 54.2604L1853.45 110.315L1821.06 166.343M1886.28 54.672L1821.56 54.6194L1789.25 -1.43503L1821.64 -57.4499L1886.35 -57.4105M1821.2 -57.4576L1853.52 -1.39011L1821.13 54.6248M1983.07 668.869L1918.39 668.869L1886.03 612.736L1918.42 556.721L1983.12 556.761M1917.98 556.727L1950.3 612.781L1917.91 668.796M1983.13 557.138L1918.43 557.099L1886.12 501.057L1918.51 445.042L1983.21 445.082M1918.07 445.035L1950.39 501.102L1918 557.117M1983.19 445.407L1918.49 445.368L1886.19 389.339L1918.58 333.324L1983.28 333.364M1918.15 333.33L1950.51 389.463L1918.12 445.478M1983.34 333.82L1918.62 333.767L1886.26 277.635L1918.66 221.62L1983.36 221.659M1918.22 221.612L1950.53 277.666L1918.15 333.694M1983.38 222.016L1918.67 221.977L1886.35 165.909L1918.74 109.894L1983.46 109.926M1918.3 109.886L1950.62 165.954L1918.2 221.984M1983.43 110.306L1918.73 110.266L1886.41 54.2116L1918.82 -1.81084L1983.51 -1.76389M1918.35 -1.80344L1950.67 54.251L1918.28 110.279M1983.51 -1.39945L1918.79 -1.43134L1886.47 -57.4988L1918.87 -113.521L1983.58 -113.482M1918.42 -113.521L1950.74 -57.454L1918.35 -1.439M2015.43 -57.2107L1983.1 -113.278M2047.38 -113.233L2014.99 -57.2184M1982.61 668.37L2015 612.355L2079.7 612.395M2014.57 612.361L2046.88 668.415M2079.71 612.772L2015 612.72L1982.68 556.665L2015.08 500.65L2079.78 500.69M2014.64 500.643L2046.95 556.697L2014.55 612.733M2079.77 501.041L2015.07 501.002L1982.75 444.947L2015.14 388.932L2079.85 388.972M2014.72 388.971L2047.04 445.039L2014.65 501.054M2079.88 389.388L2015.17 389.336L1982.83 333.242L2015.24 277.22L2079.93 277.267M2014.77 277.227L2047.08 333.282L2014.7 389.31M2079.93 277.631L2015.21 277.599L1982.89 221.532L2015.29 165.509L2080 165.549M2014.84 165.509L2047.16 221.577L2014.79 277.618M2080.06 165.876L2015.35 165.844L1983.05 109.815L2015.43 53.7538L2080.09 53.87M2014.93 53.8305L2047.23 109.859L2014.85 165.887M2080.05 54.2234L2015.33 54.1915L1982.97 -1.94126L2015.41 -57.8984L2080.12 -57.8589M2014.96 -57.8986L2047.28 -1.84415L2014.89 54.1838M2176.85 668.413L2112.15 668.374L2079.83 612.319L2112.23 556.305L2176.93 556.344M2111.78 556.284L2144.14 612.417L2111.75 668.431M2176.97 556.774L2112.27 556.626L2079.96 500.571L2112.34 444.543L2177.05 444.596M2111.91 444.549L2144.22 500.603L2111.84 556.631M2177 444.99L2112.26 444.974L2079.93 388.906L2112.33 332.891L2177.03 332.931M2111.99 332.89L2144.32 388.958L2111.93 444.973M2177.15 333.315L2112.44 333.263L2080.09 277.156L2112.48 221.141L2177.19 221.18M2111.95 221.186L2144.27 277.24L2111.88 333.268M2177.1 221.598L2112.39 221.558L2080.07 165.491L2112.46 109.476L2177.17 109.515M2112.02 109.468L2144.34 165.536L2112.01 221.567M2177.24 109.889L2112.54 109.849L2080.22 53.7948L2112.6 -2.23325L2177.32 -2.18069M2112.17 -2.22784L2144.49 53.8266L2112.09 109.795M2177.32 -1.87049L2112.62 -1.90989L2080.29 -57.9773L2112.7 -114L2177.4 -113.96M2112.25 -114L2144.57 -57.9326L2112.18 -1.91755M2209.7 -57.1153L2177.39 -113.17M2241.66 -113.138L2209.23 -57.1005M2176.79 668.539L2209.24 612.507L2273.97 612.552M2208.82 612.471L2241.13 668.525M2273.96 612.883L2209.26 612.843L2176.9 556.71L2209.29 500.695L2274.01 500.727M2208.85 500.688L2241.21 556.821L2208.82 612.835M2274.03 501.165L2209.31 501.153L2176.99 445.086L2209.37 389.058L2274.1 389.103M2208.94 389.063L2241.25 445.118L2208.87 501.146M2274.09 389.475L2209.38 389.435L2177.06 333.368L2209.45 277.353L2274.17 277.385M2209.01 277.345L2241.33 333.413L2208.94 389.428M2274.16 277.757L2209.45 277.717L2177.09 221.585L2209.48 165.57L2274.2 165.602M2209.07 165.614L2241.43 221.747L2209.04 277.762M2274.26 166.104L2209.55 166.051L2177.2 109.945L2209.62 53.9822L2274.33 54.0216M2209.19 53.9746L2241.5 110.029L2209.12 166.057M2274.33 54.386L2209.63 54.3466L2177.27 -1.77303L2209.66 -57.788L2274.37 -57.7485M2209.23 -57.7957L2241.55 -1.72829L2209.14 54.2606M2371.1 668.544L2306.39 668.492L2274.07 612.437L2306.48 556.449L2371.18 556.488M2306.04 556.441L2338.35 612.495L2305.97 668.523M2371.19 556.852L2306.48 556.813L2274.12 500.68L2306.51 444.665L2371.27 444.729M2306.12 444.682L2338.48 500.814L2305.98 556.734M2371.21 445.056L2306.55 445.095L2274.19 388.962L2306.57 332.934L2371.29 332.987M2306.13 332.947L2338.44 389.002L2306.05 445.037M2371.27 333.359L2306.56 333.327L2274.26 277.312L2306.67 221.289L2371.37 221.329M2306.22 221.289L2338.54 277.356L2306.13 333.379M2371.36 221.633L2306.64 221.601L2274.28 165.469L2306.68 109.446L2371.4 109.499M2306.3 109.563L2338.66 165.696L2306.27 221.711M2371.5 110.046L2306.78 110.001L2274.42 53.8811L2306.83 -2.14133L2371.53 -2.10188M2306.38 -2.1416L2338.7 53.9259L2306.31 109.941M2371.52 -1.72996L2306.82 -1.76933L2274.46 -57.9021L2306.85 -113.917L2371.57 -113.885M2306.41 -113.925L2338.77 -57.792L2306.37 -1.79011" stroke="#28A3FC" stroke-opacity="0.2" stroke-width="1.38667" stroke-miterlimit="10" stroke-linecap="round"/>
<path d="M1626.94 725.448L1594.64 669.407M1658.91 669.452L1626.52 725.467M1594.07 1451.06L1626.46 1395.04L1691.18 1395.08M1626.02 1395.04L1658.38 1451.17M1691.21 1395.51L1626.49 1395.45L1594.13 1339.32L1626.51 1283.29L1691.17 1283.37M1626.1 1283.33L1658.42 1339.39L1626.03 1395.4M1691.25 1283.74L1626.54 1283.7L1594.22 1227.64L1626.61 1171.62L1691.32 1171.66M1626.17 1171.61L1658.49 1227.68L1626.1 1283.7M1691.31 1171.98L1626.6 1171.94L1594.3 1115.91L1626.69 1059.9L1691.41 1059.95M1626.25 1059.91L1658.56 1115.96L1626.17 1171.98M1691.4 1060.32L1626.69 1060.28L1594.33 1004.15L1626.72 948.133L1691.43 948.173M1626.28 948.126L1658.64 1004.26L1626.25 1060.27M1691.47 948.602L1626.76 948.563L1594.44 892.496L1626.83 836.481L1691.53 836.52M1626.4 836.486L1658.71 892.54L1626.32 948.555M1691.54 836.898L1626.82 836.853L1594.5 780.798L1626.89 724.783L1691.61 724.815M1626.53 724.73L1658.85 780.785L1626.45 836.82M1788.4 1451.06L1723.69 1451.02L1691.33 1394.89L1723.74 1338.86L1788.44 1338.9M1723.23 1338.98L1755.59 1395.11L1723.16 1451.03M1788.4 1339.36L1723.67 1339.32L1691.36 1283.26L1723.75 1227.23L1788.46 1227.28M1723.31 1227.24L1755.62 1283.3L1723.23 1339.31M1788.47 1227.65L1723.75 1227.61L1691.39 1171.48L1723.79 1115.46L1788.5 1115.5M1723.34 1115.46L1755.66 1171.53L1723.38 1227.6M1788.54 1115.93L1723.82 1115.9L1691.51 1059.85L1723.9 1003.84L1788.63 1003.88M1723.48 1003.86L1755.79 1059.91L1723.35 1115.94M1788.58 1004.28L1723.87 1004.24L1691.51 948.107L1723.9 892.092L1788.62 892.124M1723.46 892.084L1755.82 948.217L1723.47 1004.21M1788.68 892.539L1723.98 892.499L1691.66 836.432L1724.05 780.417L1788.77 780.449M1723.62 780.422L1755.93 836.477L1723.55 892.505M1788.77 780.847L1724.06 780.794L1691.74 724.74L1724.13 668.725L1788.84 668.764M1723.69 668.717L1756.01 724.772L1723.62 780.8M1821.14 725.609L1788.78 669.477M1853.05 669.521L1820.66 725.536M1788.29 1451.14L1820.67 1395.11L1885.38 1395.15M1820.24 1395.12L1852.58 1451.21M1885.41 1395.57L1820.7 1395.51L1788.38 1339.46L1820.77 1283.44L1885.48 1283.48M1820.33 1283.44L1852.69 1339.57L1820.3 1395.58M1885.52 1283.91L1820.8 1283.88L1788.44 1227.75L1820.83 1171.73L1885.54 1171.77M1820.39 1171.73L1852.75 1227.86L1820.36 1283.87M1885.59 1172.21L1820.83 1172.1L1788.52 1116.06L1820.91 1060.04L1885.62 1060.08M1820.47 1060.03L1852.79 1116.09L1820.41 1172.12M1885.63 1060.44L1820.92 1060.41L1788.59 1004.34L1820.98 948.324L1885.7 948.356M1820.54 948.316L1852.9 1004.45L1820.51 1060.46M1885.75 948.799L1821.02 948.754L1788.67 892.634L1821.05 836.606L1885.78 836.651M1820.59 836.559L1852.95 892.692L1820.57 948.72M1885.8 837.042L1821.08 837.01L1788.74 780.916L1821.15 724.927L1885.86 724.959M1820.71 724.92L1853.03 780.987L1820.64 837.002M1982.56 1451.22L1917.85 1451.18L1885.54 1395.13L1917.92 1339.1L1982.65 1339.14M1917.49 1339.1L1949.81 1395.16L1917.41 1451.17M1982.64 1339.52L1917.93 1339.48L1885.57 1283.34L1918.04 1227.37L1982.76 1227.4M1917.6 1227.36L1949.96 1283.5L1917.57 1339.51M1982.78 1227.84L1918.08 1227.8L1885.72 1171.67L1918.02 1115.71L1982.72 1115.75M1917.58 1115.7L1949.94 1171.83L1917.55 1227.85M1982.77 1116.19L1918.07 1116.04L1885.76 1059.99L1918.15 1003.97L1982.85 1004.01M1917.71 1003.96L1950.02 1060.02L1917.64 1116.05M1982.85 1004.37L1918.16 1004.33L1885.84 948.26L1918.23 892.245L1982.94 892.285M1917.79 892.237L1950.11 948.305L1917.72 1004.32M1982.94 892.662L1918.23 892.61L1885.92 836.555L1918.3 780.527L1983.01 780.58M1917.83 780.501L1950.19 836.634L1917.8 892.669M1983.02 780.991L1918.32 780.951L1885.97 724.845L1918.39 668.869L1983.09 668.908M1917.95 668.861L1950.27 724.929L1917.87 780.951M2014.94 725.179L1982.58 669.047M2046.84 669.099L2014.45 725.114M1982.1 1450.72L2014.49 1394.71L2079.21 1394.74M2014.03 1394.66L2046.39 1450.79M2079.22 1395.15L2014.51 1395.11L1982.15 1338.98L2014.54 1282.96L2079.25 1283M2014.1 1282.95L2046.46 1339.09L2014.07 1395.1M2079.29 1283.43L2014.58 1283.39L1982.22 1227.26L2014.61 1171.24L2079.32 1171.28M2014.18 1171.25L2046.5 1227.3L2014.1 1283.31M2079.32 1171.65L2014.64 1171.68L1982.28 1115.55L2014.67 1059.53L2079.39 1059.57M2014.34 1059.53L2046.65 1115.59L2014.27 1171.62M2079.49 1059.94L2014.78 1059.91L1982.46 1003.84L2014.85 947.823L2079.55 947.862M2014.32 947.868L2046.64 1003.94L2014.24 1059.96M2079.46 948.212L2014.75 948.173L1982.47 892.17L2014.85 836.143L2079.57 836.195M2014.41 836.135L2046.77 892.268L2014.38 948.303M2079.61 836.625L2014.9 836.585L1982.54 780.453L2014.94 724.43L2079.65 724.469M2014.49 724.43L2046.85 780.563L2014.46 836.49M2176.41 1450.73L2111.69 1450.69L2079.37 1394.63L2111.77 1338.6L2176.49 1338.66M2111.25 1338.61L2143.61 1394.74L2111.16 1450.74M2176.38 1339.08L2111.68 1339.04L2079.32 1282.91L2111.72 1226.89L2176.43 1226.93M2111.27 1226.89L2143.63 1283.02L2111.24 1339.03M2176.45 1227.36L2111.75 1227.32L2079.39 1171.19L2111.78 1115.18L2176.5 1115.21M2111.35 1115.18L2143.66 1171.24L2111.33 1227.26M2176.55 1115.6L2111.88 1115.62L2079.52 1059.49L2111.91 1003.48L2176.63 1003.51M2176.55 1115.6L2208.91 1171.73L2273.63 1171.76M2176.55 1115.6L2208.95 1059.57L2273.66 1059.61M2111.47 1003.47L2143.79 1059.52L2111.4 1115.55M2176.62 1003.88L2111.91 1003.84L2079.61 947.812L2112 891.797L2176.71 891.836M2176.62 1003.88L2208.98 1060.01L2273.7 1060.04M2176.62 1003.88L2209.02 947.857L2273.73 947.896M2111.56 891.789L2143.89 947.857L2111.5 1003.87M2176.69 892.161L2111.98 892.122L2079.69 836.107L2112.07 780.079L2176.77 780.139M2111.64 780.084L2143.96 836.139L2111.57 892.166M2176.79 780.496L2112.08 780.456L2079.72 724.323L2112.11 668.308L2176.82 668.348M2111.67 668.301L2144.03 724.434L2111.64 780.449M2209.16 725.258L2176.84 669.204M2241.11 669.236L2208.72 725.264M2176.34 1450.85L2208.73 1394.82L2273.44 1394.88M2208.3 1394.83L2240.61 1450.88M2273.46 1395.23L2208.75 1395.19L2176.43 1339.13L2208.82 1283.11L2273.52 1283.15M2208.37 1283.11L2240.73 1339.24L2208.34 1395.26M2273.57 1283.59L2208.86 1283.54L2176.5 1227.42L2208.91 1171.4L2273.64 1171.42M2208.48 1171.38L2240.78 1227.41L2208.4 1283.44M2208.5 1059.57L2240.86 1115.71L2208.47 1171.72M2208.58 947.87L2240.89 1003.92L2208.51 1059.95M2273.76 948.38L2209 948.324L2176.7 892.296L2209.13 836.258L2273.84 836.29M2208.69 836.251L2241.01 892.318L2208.62 948.333M2273.74 836.715L2209.04 836.676L2176.68 780.543L2209.1 724.593L2273.82 724.625M2208.67 724.599L2240.99 780.653L2208.6 836.668M2370.54 1450.93L2305.85 1450.79L2273.56 1394.79L2305.96 1338.77L2370.66 1338.81M2305.52 1338.77L2337.88 1394.9L2305.49 1450.91M2370.7 1339.24L2305.97 1339.13L2273.65 1283.06L2306.04 1227.05L2370.74 1227.09M2305.6 1227.04L2337.96 1283.17L2305.57 1339.19M2370.79 1227.53L2306.08 1227.48L2273.76 1171.42L2306.15 1115.41L2370.86 1115.45M2305.66 1115.34L2337.97 1171.38L2305.59 1227.41M2370.8 1115.74L2306.1 1115.7L2273.74 1059.57L2306.13 1003.55L2370.83 1003.59M2305.69 1003.55L2338.05 1059.68L2305.64 1115.7M2370.87 1004.02L2306.17 1003.98L2273.81 947.851L2306.2 891.836L2370.91 891.889M2305.76 891.842L2338.08 947.896L2305.68 1003.93M2370.91 892.253L2306.24 892.266L2273.93 836.225L2306.33 780.202L2371.04 780.242M2305.89 780.195L2338.21 836.262L2305.79 892.299M2371.01 780.621L2306.31 780.582L2273.98 724.514L2306.39 668.492L2371.09 668.531M2305.94 668.505L2338.26 724.559L2305.87 780.574" stroke="#28A3FC" stroke-opacity="0.2" stroke-width="1.38667" stroke-miterlimit="10" stroke-linecap="round"/>
</svg>
