<svg width="687" height="593" viewBox="0 0 687 593" fill="none" xmlns="http://www.w3.org/2000/svg">
<g clip-path="url(#clip0_5136_5643)">
<path d="M541.477 543.489H504.178V105.53L541.26 93.7969L541.477 543.489Z" fill="#0272B0"/>
<path d="M541.477 544.287H504.178C503.743 544.287 503.381 543.925 503.381 543.49V105.531C503.381 105.169 503.598 104.879 503.96 104.734L541.042 93.0011C541.26 92.9286 541.549 93.0011 541.767 93.1459C541.984 93.2908 542.129 93.5081 542.129 93.7978L542.346 543.49C542.346 543.707 542.274 543.925 542.129 544.069C541.839 544.214 541.622 544.287 541.477 544.287ZM504.974 542.693H540.68L540.463 94.8841L504.974 106.11V542.693Z" fill="#0272B0"/>
<path d="M685.531 543.491H541.621C541.404 543.491 541.259 543.346 541.259 543.057V94.2334C541.259 94.0161 541.404 93.7988 541.621 93.7988L685.531 97.8547C685.748 97.8547 685.893 98.072 685.893 98.2892V543.057C685.893 543.274 685.748 543.491 685.531 543.491Z" fill="white"/>
<path d="M685.531 544.288H541.621C540.969 544.288 540.462 543.781 540.462 543.056V94.2332C540.462 93.8711 540.607 93.5814 540.824 93.3641C541.041 93.1468 541.331 93.002 541.693 93.002L685.603 97.0578C686.255 97.0578 686.762 97.6372 686.762 98.289V543.056C686.69 543.708 686.183 544.288 685.531 544.288ZM542.055 542.694H685.096V98.7236L542.055 94.6677V542.694Z" fill="black"/>
<path d="M635.341 373.724C634.906 373.724 634.544 373.362 634.544 372.928V121.248C634.544 120.813 634.906 120.451 635.341 120.451C635.775 120.451 636.137 120.813 636.137 121.248V372.855C636.137 373.362 635.775 373.724 635.341 373.724Z" fill="black"/>
<path d="M565.305 173.467C564.87 173.467 564.508 173.105 564.508 172.671V145.801C564.508 145.366 564.87 145.004 565.305 145.004C565.739 145.004 566.101 145.366 566.101 145.801V172.671C566.174 173.105 565.812 173.467 565.305 173.467Z" fill="black"/>
<path d="M565.305 445.717C564.87 445.717 564.508 445.355 564.508 444.921V311.222C564.508 310.788 564.87 310.426 565.305 310.426C565.739 310.426 566.101 310.788 566.101 311.222V444.921C566.174 445.355 565.812 445.717 565.305 445.717Z" fill="black"/>
<path d="M661.848 320.563C661.414 320.563 661.052 320.201 661.052 319.766V292.896C661.052 292.462 661.414 292.1 661.848 292.1C662.283 292.1 662.645 292.462 662.645 292.896V319.766C662.645 320.201 662.283 320.563 661.848 320.563Z" fill="black"/>
<path d="M376.199 543.49H339.045V301.008L376.199 292.824V543.49Z" fill="#0272B0"/>
<path d="M376.199 544.288H339.117C338.682 544.288 338.32 543.925 338.32 543.491V301.009C338.32 300.647 338.61 300.285 338.972 300.212L376.054 292.101C376.271 292.028 376.561 292.101 376.706 292.246C376.923 292.39 376.996 292.608 376.996 292.897V543.491C376.996 543.925 376.634 544.288 376.199 544.288ZM339.914 542.694H375.402V293.839L339.914 301.588V542.694Z" fill="black"/>
<path d="M515.764 543.492H376.199V293.261C376.199 293.043 376.417 292.826 376.634 292.826L515.764 296.23V543.492Z" fill="white"/>
<path d="M515.764 544.289H376.199C375.764 544.289 375.402 543.927 375.402 543.492V293.261C375.402 292.898 375.547 292.609 375.764 292.391C375.982 292.174 376.344 292.029 376.634 292.029L515.764 295.433C516.198 295.433 516.56 295.795 516.56 296.23V543.492C516.56 543.927 516.198 544.289 515.764 544.289ZM376.996 542.695H514.967V297.027L376.996 293.695V542.695Z" fill="black"/>
<path d="M403.069 485.696C402.635 485.696 402.272 485.334 402.272 484.9V317.451C402.272 317.016 402.635 316.654 403.069 316.654C403.504 316.654 403.866 317.016 403.866 317.451V484.9C403.866 485.334 403.504 485.696 403.069 485.696Z" fill="black"/>
<path d="M494.471 500.038C494.036 500.038 493.674 499.676 493.674 499.241V331.793C493.674 331.358 494.036 330.996 494.471 330.996C494.905 330.996 495.267 331.358 495.267 331.793V499.241C495.267 499.676 494.905 500.038 494.471 500.038Z" fill="black"/>
<path d="M467.963 452.018C467.528 452.018 467.166 451.656 467.166 451.221V426.162C467.166 425.727 467.528 425.365 467.963 425.365C468.397 425.365 468.759 425.727 468.759 426.162V451.221C468.759 451.656 468.397 452.018 467.963 452.018Z" fill="black"/>
<path d="M203.464 543.492H166.02V423.772L203.102 416.457L203.464 543.492Z" fill="#0272B0"/>
<path d="M203.464 544.29H166.019C165.585 544.29 165.223 543.927 165.223 543.493V423.773C165.223 423.411 165.512 423.049 165.874 422.976L202.957 415.661C203.174 415.589 203.464 415.661 203.608 415.806C203.826 415.951 203.898 416.168 203.898 416.458L204.26 543.493C204.26 543.71 204.188 543.927 204.043 544.072C203.898 544.217 203.681 544.29 203.464 544.29ZM166.816 542.696H202.667L202.305 417.472L166.816 424.497V542.696Z" fill="black"/>
<path d="M348.822 543.492H203.464C203.246 543.492 203.102 543.347 203.102 543.13V416.819C203.102 416.602 203.246 416.457 203.464 416.457L348.895 418.123C349.112 418.123 349.257 418.268 349.257 418.485V543.202C349.185 543.347 349.04 543.492 348.822 543.492Z" fill="white"/>
<path d="M348.822 544.289H203.464C202.812 544.289 202.305 543.782 202.305 543.13V416.819C202.305 416.529 202.45 416.24 202.667 416.022C202.884 415.805 203.174 415.66 203.536 415.66L348.967 417.326C349.619 417.326 350.126 417.833 350.126 418.485V543.202C349.981 543.782 349.474 544.289 348.822 544.289ZM203.898 542.695H348.388V418.847L203.898 417.254V542.695Z" fill="black"/>
<path d="M318.621 519.373C318.186 519.373 317.824 519.011 317.824 518.576V434.49C317.824 434.055 318.186 433.693 318.621 433.693C319.055 433.693 319.418 434.055 319.418 434.49V518.576C319.418 519.011 319.055 519.373 318.621 519.373Z" fill="black"/>
<path d="M241.922 497.138C241.487 497.138 241.125 496.776 241.125 496.341V477.945C241.125 477.511 241.487 477.148 241.922 477.148C242.356 477.148 242.718 477.511 242.718 477.945V496.341C242.718 496.776 242.356 497.138 241.922 497.138Z" fill="black"/>
<path d="M38.8397 543.489H1.39551V492.139L38.4776 485.91L38.8397 543.489Z" fill="#0272B0"/>
<path d="M38.8395 544.286H1.39532C0.960762 544.286 0.598633 543.924 0.598633 543.49V492.14C0.598633 491.778 0.888336 491.415 1.25047 491.343L38.3325 485.114C38.5498 485.042 38.8395 485.114 38.9844 485.259C39.2016 485.404 39.2741 485.621 39.2741 485.839L39.6362 543.417C39.6362 543.634 39.5638 543.852 39.4189 543.997C39.2741 544.214 39.0568 544.286 38.8395 544.286ZM2.192 542.693H38.0428L37.6807 486.853L2.192 492.864V542.693Z" fill="black"/>
<path d="M179.201 543.489H38.8397C38.6224 543.489 38.4775 543.416 38.4775 543.272V486.055C38.4775 485.983 38.6224 485.838 38.8397 485.838L179.201 486.707C179.418 486.707 179.563 486.779 179.563 486.924V543.199C179.563 543.416 179.346 543.489 179.201 543.489Z" fill="white"/>
<path d="M179.201 544.285H38.8395C38.1876 544.285 37.6807 543.851 37.6807 543.271V486.055C37.6807 485.838 37.7531 485.548 37.9704 485.403C38.1876 485.186 38.5498 485.041 38.8395 485.041L179.201 485.91C179.853 485.91 180.36 486.345 180.36 486.924V543.199C180.36 543.851 179.853 544.285 179.201 544.285ZM39.274 542.692H178.694V487.648L39.274 486.779V542.692Z" fill="black"/>
<path d="M148.928 530.669C148.493 530.669 148.131 530.307 148.131 529.872V495.76C148.131 495.325 148.493 494.963 148.928 494.963C149.362 494.963 149.724 495.325 149.724 495.76V529.872C149.724 530.307 149.362 530.669 148.928 530.669Z" fill="black"/>
<path d="M77.2977 518.502C76.8631 518.502 76.501 518.14 76.501 517.706V507.638C76.501 507.204 76.8631 506.842 77.2977 506.842C77.7322 506.842 78.0943 507.204 78.0943 507.638V517.706C78.1668 518.14 77.8046 518.502 77.2977 518.502Z" fill="black"/>
<path d="M88.8711 462H57.7871V454.383L68.2461 443.807C70.4141 441.541 72.0938 439.725 73.2852 438.357C74.4961 436.99 75.3457 435.828 75.834 434.871C76.3223 433.914 76.5664 432.918 76.5664 431.883C76.5664 430.613 76.1562 429.695 75.3359 429.129C74.5156 428.562 73.5488 428.279 72.4355 428.279C71.0879 428.279 69.7207 428.67 68.334 429.451C66.9668 430.213 65.4141 431.346 63.6758 432.85L57.3184 425.408C58.6074 424.256 59.9746 423.162 61.4199 422.127C62.8652 421.072 64.5742 420.213 66.5469 419.549C68.5195 418.885 70.9219 418.553 73.7539 418.553C76.6641 418.553 79.1836 419.061 81.3125 420.076C83.4609 421.092 85.1211 422.488 86.293 424.266C87.4648 426.023 88.0508 428.025 88.0508 430.271C88.0508 432.752 87.5918 434.969 86.6738 436.922C85.7754 438.855 84.418 440.799 82.6016 442.752C80.7852 444.686 78.5195 446.883 75.8047 449.344L72.6699 452.156V452.449H88.8711V462ZM118.754 462H107.006V440.818C107.006 440.428 107.006 439.715 107.006 438.68C107.006 437.625 107.016 436.463 107.035 435.193C107.074 433.924 107.123 432.781 107.182 431.766C106.674 432.371 106.195 432.889 105.746 433.318C105.316 433.748 104.896 434.148 104.486 434.52L99.623 438.533L93.6172 431.15L108.324 419.168H118.754V462Z" fill="#272935"/>
<path d="M73.1255 353.716L163.873 263.148L197 386.777L73.1255 353.716Z" fill="url(#paint0_linear_5136_5643)" fill-opacity="0.22"/>
</g>
<path d="M575.598 61H563.85V39.8184C563.85 39.4277 563.85 38.7148 563.85 37.6797C563.85 36.625 563.859 35.4629 563.879 34.1934C563.918 32.9238 563.967 31.7812 564.025 30.7656C563.518 31.3711 563.039 31.8887 562.59 32.3184C562.16 32.748 561.74 33.1484 561.33 33.5195L556.467 37.5332L550.461 30.1504L565.168 18.168H575.598V61ZM616.262 36.9473C616.262 40.0137 615.988 42.8262 615.441 45.3848C614.914 47.9434 614.084 50.2285 612.951 52.2402C611.838 54.2324 610.402 55.9316 608.645 57.3379C606.887 58.7246 604.787 59.7793 602.346 60.502C599.904 61.2246 597.092 61.5859 593.908 61.5859C593.029 61.5859 592.004 61.5664 590.832 61.5273C589.68 61.4883 588.703 61.4102 587.902 61.293V52.123C588.742 52.2598 589.582 52.377 590.422 52.4746C591.262 52.5527 592.238 52.5918 593.352 52.5918C596.574 52.5918 599.064 52.1328 600.822 51.2148C602.6 50.2969 603.85 49.0273 604.572 47.4062C605.295 45.7656 605.715 43.8809 605.832 41.752H605.48C604.973 42.709 604.357 43.5684 603.635 44.3301C602.912 45.0723 602.004 45.6582 600.91 46.0879C599.816 46.5176 598.459 46.7324 596.838 46.7324C594.436 46.7324 592.346 46.1855 590.568 45.0918C588.811 43.998 587.443 42.416 586.467 40.3457C585.49 38.2559 585.002 35.7168 585.002 32.7285C585.002 29.5449 585.607 26.8301 586.818 24.584C588.049 22.3184 589.797 20.5801 592.062 19.3691C594.348 18.1582 597.062 17.5527 600.207 17.5527C602.434 17.5527 604.514 17.9336 606.447 18.6953C608.4 19.457 610.109 20.6289 611.574 22.2109C613.039 23.7734 614.182 25.7754 615.002 28.2168C615.842 30.6582 616.262 33.5684 616.262 36.9473ZM600.5 26.8105C599.152 26.8105 598.098 27.2695 597.336 28.1875C596.594 29.1055 596.223 30.5801 596.223 32.6113C596.223 34.2129 596.574 35.4824 597.277 36.4199C597.98 37.3574 599.016 37.8262 600.383 37.8262C601.242 37.8262 601.994 37.6016 602.639 37.1523C603.303 36.6836 603.82 36.0977 604.191 35.3945C604.562 34.6719 604.748 33.9297 604.748 33.168C604.748 32.4062 604.66 31.6543 604.484 30.9121C604.328 30.1504 604.074 29.4668 603.723 28.8613C603.391 28.2363 602.951 27.7383 602.404 27.3672C601.877 26.9961 601.242 26.8105 600.5 26.8105ZM624.436 61L639.143 27.748H620.598V18.168H651.506V24.9941L636.418 61H624.436Z" fill="#272935"/>
<path d="M228.123 392L242.83 358.748H224.285V349.168H255.193V355.994L240.105 392H228.123ZM284.754 392H273.006V370.818C273.006 370.428 273.006 369.715 273.006 368.68C273.006 367.625 273.016 366.463 273.035 365.193C273.074 363.924 273.123 362.781 273.182 361.766C272.674 362.371 272.195 362.889 271.746 363.318C271.316 363.748 270.896 364.148 270.486 364.52L265.623 368.533L259.617 361.15L274.324 349.168H284.754V392Z" fill="#272935"/>
<path d="M403.598 263H391.85V241.818C391.85 241.428 391.85 240.715 391.85 239.68C391.85 238.625 391.859 237.463 391.879 236.193C391.918 234.924 391.967 233.781 392.025 232.766C391.518 233.371 391.039 233.889 390.59 234.318C390.16 234.748 389.74 235.148 389.33 235.52L384.467 239.533L378.461 232.15L393.168 220.168H403.598V263ZM444.027 263H412.943V255.383L423.402 244.807C425.57 242.541 427.25 240.725 428.441 239.357C429.652 237.99 430.502 236.828 430.99 235.871C431.479 234.914 431.723 233.918 431.723 232.883C431.723 231.613 431.312 230.695 430.492 230.129C429.672 229.562 428.705 229.279 427.592 229.279C426.244 229.279 424.877 229.67 423.49 230.451C422.123 231.213 420.57 232.346 418.832 233.85L412.475 226.408C413.764 225.256 415.131 224.162 416.576 223.127C418.021 222.072 419.73 221.213 421.703 220.549C423.676 219.885 426.078 219.553 428.91 219.553C431.82 219.553 434.34 220.061 436.469 221.076C438.617 222.092 440.277 223.488 441.449 225.266C442.621 227.023 443.207 229.025 443.207 231.271C443.207 233.752 442.748 235.969 441.83 237.922C440.932 239.855 439.574 241.799 437.758 243.752C435.941 245.686 433.676 247.883 430.961 250.344L427.826 253.156V253.449H444.027V263ZM448.363 244.895C448.363 242.434 448.539 239.992 448.891 237.57C449.242 235.129 449.877 232.834 450.795 230.686C451.713 228.518 453.012 226.604 454.691 224.943C456.371 223.264 458.529 221.945 461.166 220.988C463.803 220.031 467.016 219.553 470.805 219.553C471.645 219.553 472.67 219.602 473.881 219.699C475.092 219.797 476.098 219.914 476.898 220.051V229.104C476.098 228.947 475.199 228.82 474.203 228.723C473.207 228.605 471.986 228.547 470.541 228.547C467.65 228.547 465.365 228.986 463.686 229.865C462.025 230.725 460.824 231.965 460.082 233.586C459.34 235.207 458.91 237.15 458.793 239.416H459.145C459.652 238.479 460.268 237.639 460.99 236.896C461.732 236.135 462.641 235.539 463.715 235.109C464.789 234.66 466.088 234.436 467.611 234.436C470.111 234.436 472.26 234.982 474.057 236.076C475.854 237.15 477.23 238.723 478.188 240.793C479.145 242.863 479.623 245.383 479.623 248.352C479.623 251.555 479.008 254.299 477.777 256.584C476.566 258.85 474.828 260.588 472.562 261.799C470.316 262.99 467.631 263.586 464.506 263.586C462.201 263.586 460.062 263.215 458.09 262.473C456.137 261.73 454.428 260.598 452.963 259.074C451.518 257.531 450.385 255.588 449.564 253.244C448.764 250.881 448.363 248.098 448.363 244.895ZM464.242 254.416C465.473 254.416 466.469 253.947 467.23 253.01C468.012 252.072 468.402 250.598 468.402 248.586C468.402 246.965 468.08 245.695 467.436 244.777C466.811 243.84 465.785 243.371 464.359 243.371C463.402 243.371 462.592 243.605 461.928 244.074C461.264 244.523 460.756 245.1 460.404 245.803C460.053 246.506 459.877 247.238 459.877 248C459.877 248.762 459.955 249.523 460.111 250.285C460.287 251.047 460.551 251.74 460.902 252.365C461.273 252.971 461.732 253.469 462.279 253.859C462.826 254.23 463.48 254.416 464.242 254.416Z" fill="#272935"/>
<path d="M81.8496 586H67.3477V583.407L72.8994 577.782C73.9736 576.688 74.8574 575.746 75.5508 574.955C76.2441 574.154 76.7568 573.397 77.0889 572.685C77.4307 571.972 77.6016 571.195 77.6016 570.355C77.6016 569.32 77.3037 568.539 76.708 568.012C76.1123 567.475 75.3262 567.206 74.3496 567.206C73.4219 567.206 72.5625 567.392 71.7715 567.763C70.9902 568.124 70.1797 568.642 69.3398 569.315L67.4502 567.045C68.0459 566.537 68.6807 566.073 69.3545 565.653C70.0381 565.233 70.7998 564.901 71.6396 564.657C72.4795 564.403 73.4365 564.276 74.5107 564.276C75.8682 564.276 77.04 564.521 78.0264 565.009C79.0127 565.487 79.7695 566.156 80.2969 567.016C80.834 567.875 81.1025 568.876 81.1025 570.019C81.1025 571.171 80.873 572.235 80.4141 573.212C79.9551 574.188 79.3008 575.155 78.4512 576.112C77.6016 577.06 76.5908 578.09 75.4189 579.203L71.7129 582.821V582.982H81.8496V586ZM99.0176 575.277C99.0176 577.006 98.8809 578.554 98.6074 579.921C98.3438 581.278 97.9238 582.431 97.3477 583.378C96.7715 584.325 96.0195 585.048 95.0918 585.546C94.1641 586.044 93.041 586.293 91.7227 586.293C90.0723 586.293 88.71 585.858 87.6357 584.989C86.5615 584.11 85.7656 582.851 85.248 581.21C84.7305 579.56 84.4717 577.582 84.4717 575.277C84.4717 572.973 84.7061 571 85.1748 569.359C85.6533 567.709 86.4248 566.444 87.4893 565.565C88.5537 564.687 89.9648 564.247 91.7227 564.247C93.3828 564.247 94.75 564.687 95.8242 565.565C96.9082 566.435 97.709 567.694 98.2266 569.345C98.7539 570.985 99.0176 572.963 99.0176 575.277ZM87.9434 575.277C87.9434 577.084 88.0605 578.593 88.2949 579.804C88.5391 581.015 88.9395 581.923 89.4961 582.528C90.0527 583.124 90.7949 583.422 91.7227 583.422C92.6504 583.422 93.3926 583.124 93.9492 582.528C94.5059 581.933 94.9062 581.029 95.1504 579.818C95.4043 578.607 95.5312 577.094 95.5312 575.277C95.5312 573.48 95.4092 571.977 95.165 570.766C94.9209 569.555 94.5205 568.646 93.9639 568.041C93.4072 567.426 92.6602 567.118 91.7227 567.118C90.7852 567.118 90.0381 567.426 89.4814 568.041C88.9346 568.646 88.5391 569.555 88.2949 570.766C88.0605 571.977 87.9434 573.48 87.9434 575.277ZM111.806 586H108.349V572.216C108.349 571.757 108.354 571.298 108.363 570.839C108.373 570.38 108.383 569.931 108.393 569.491C108.412 569.052 108.437 568.632 108.466 568.231C108.261 568.456 108.007 568.7 107.704 568.964C107.411 569.228 107.099 569.501 106.767 569.784L104.306 571.747L102.577 569.564L108.935 564.584H111.806V586ZM133.324 573.71C133.324 574.979 133.231 576.225 133.046 577.445C132.87 578.666 132.558 579.809 132.108 580.873C131.669 581.938 131.059 582.88 130.277 583.7C129.506 584.511 128.529 585.146 127.348 585.604C126.166 586.063 124.74 586.293 123.07 586.293C122.65 586.293 122.162 586.269 121.605 586.22C121.059 586.181 120.609 586.122 120.258 586.044V583.173C120.629 583.28 121.044 583.368 121.503 583.437C121.972 583.495 122.436 583.524 122.895 583.524C124.701 583.524 126.107 583.188 127.113 582.514C128.129 581.84 128.847 580.912 129.267 579.73C129.696 578.549 129.94 577.206 129.999 575.702H129.823C129.54 576.171 129.184 576.601 128.754 576.991C128.324 577.372 127.792 577.68 127.157 577.914C126.522 578.139 125.751 578.251 124.843 578.251C123.612 578.251 122.538 577.992 121.62 577.475C120.712 576.957 120.004 576.205 119.496 575.219C118.998 574.223 118.749 573.026 118.749 571.63C118.749 570.116 119.037 568.812 119.613 567.719C120.189 566.625 121.005 565.785 122.06 565.199C123.114 564.604 124.354 564.306 125.78 564.306C126.854 564.306 127.846 564.501 128.754 564.892C129.672 565.272 130.473 565.858 131.156 566.649C131.84 567.431 132.372 568.412 132.753 569.594C133.134 570.766 133.324 572.138 133.324 573.71ZM125.824 567.147C124.74 567.147 123.856 567.514 123.173 568.246C122.489 568.969 122.147 570.082 122.147 571.586C122.147 572.807 122.44 573.773 123.026 574.486C123.612 575.199 124.511 575.556 125.722 575.556C126.562 575.556 127.284 575.385 127.89 575.043C128.505 574.691 128.979 574.247 129.311 573.71C129.652 573.173 129.823 572.626 129.823 572.069C129.823 571.493 129.74 570.917 129.574 570.341C129.418 569.765 129.174 569.237 128.842 568.759C128.51 568.28 128.09 567.895 127.582 567.602C127.084 567.299 126.498 567.147 125.824 567.147Z" fill="#0D4ECA"/>
<path d="M252.85 586H238.348V583.407L243.899 577.782C244.974 576.688 245.857 575.746 246.551 574.955C247.244 574.154 247.757 573.397 248.089 572.685C248.431 571.972 248.602 571.195 248.602 570.355C248.602 569.32 248.304 568.539 247.708 568.012C247.112 567.475 246.326 567.206 245.35 567.206C244.422 567.206 243.562 567.392 242.771 567.763C241.99 568.124 241.18 568.642 240.34 569.315L238.45 567.045C239.046 566.537 239.681 566.073 240.354 565.653C241.038 565.233 241.8 564.901 242.64 564.657C243.479 564.403 244.437 564.276 245.511 564.276C246.868 564.276 248.04 564.521 249.026 565.009C250.013 565.487 250.77 566.156 251.297 567.016C251.834 567.875 252.103 568.876 252.103 570.019C252.103 571.171 251.873 572.235 251.414 573.212C250.955 574.188 250.301 575.155 249.451 576.112C248.602 577.06 247.591 578.09 246.419 579.203L242.713 582.821V582.982H252.85V586ZM270.018 575.277C270.018 577.006 269.881 578.554 269.607 579.921C269.344 581.278 268.924 582.431 268.348 583.378C267.771 584.325 267.02 585.048 266.092 585.546C265.164 586.044 264.041 586.293 262.723 586.293C261.072 586.293 259.71 585.858 258.636 584.989C257.562 584.11 256.766 582.851 256.248 581.21C255.73 579.56 255.472 577.582 255.472 575.277C255.472 572.973 255.706 571 256.175 569.359C256.653 567.709 257.425 566.444 258.489 565.565C259.554 564.687 260.965 564.247 262.723 564.247C264.383 564.247 265.75 564.687 266.824 565.565C267.908 566.435 268.709 567.694 269.227 569.345C269.754 570.985 270.018 572.963 270.018 575.277ZM258.943 575.277C258.943 577.084 259.061 578.593 259.295 579.804C259.539 581.015 259.939 581.923 260.496 582.528C261.053 583.124 261.795 583.422 262.723 583.422C263.65 583.422 264.393 583.124 264.949 582.528C265.506 581.933 265.906 581.029 266.15 579.818C266.404 578.607 266.531 577.094 266.531 575.277C266.531 573.48 266.409 571.977 266.165 570.766C265.921 569.555 265.521 568.646 264.964 568.041C264.407 567.426 263.66 567.118 262.723 567.118C261.785 567.118 261.038 567.426 260.481 568.041C259.935 568.646 259.539 569.555 259.295 570.766C259.061 571.977 258.943 573.48 258.943 575.277ZM287.186 586H272.684V583.407L278.235 577.782C279.31 576.688 280.193 575.746 280.887 574.955C281.58 574.154 282.093 573.397 282.425 572.685C282.767 571.972 282.938 571.195 282.938 570.355C282.938 569.32 282.64 568.539 282.044 568.012C281.448 567.475 280.662 567.206 279.686 567.206C278.758 567.206 277.898 567.392 277.107 567.763C276.326 568.124 275.516 568.642 274.676 569.315L272.786 567.045C273.382 566.537 274.017 566.073 274.69 565.653C275.374 565.233 276.136 564.901 276.976 564.657C277.815 564.403 278.772 564.276 279.847 564.276C281.204 564.276 282.376 564.521 283.362 565.009C284.349 565.487 285.105 566.156 285.633 567.016C286.17 567.875 286.438 568.876 286.438 570.019C286.438 571.171 286.209 572.235 285.75 573.212C285.291 574.188 284.637 575.155 283.787 576.112C282.938 577.06 281.927 578.09 280.755 579.203L277.049 582.821V582.982H287.186V586ZM304.354 575.277C304.354 577.006 304.217 578.554 303.943 579.921C303.68 581.278 303.26 582.431 302.684 583.378C302.107 584.325 301.355 585.048 300.428 585.546C299.5 586.044 298.377 586.293 297.059 586.293C295.408 586.293 294.046 585.858 292.972 584.989C291.897 584.11 291.102 582.851 290.584 581.21C290.066 579.56 289.808 577.582 289.808 575.277C289.808 572.973 290.042 571 290.511 569.359C290.989 567.709 291.761 566.444 292.825 565.565C293.89 564.687 295.301 564.247 297.059 564.247C298.719 564.247 300.086 564.687 301.16 565.565C302.244 566.435 303.045 567.694 303.562 569.345C304.09 570.985 304.354 572.963 304.354 575.277ZM293.279 575.277C293.279 577.084 293.396 578.593 293.631 579.804C293.875 581.015 294.275 581.923 294.832 582.528C295.389 583.124 296.131 583.422 297.059 583.422C297.986 583.422 298.729 583.124 299.285 582.528C299.842 581.933 300.242 581.029 300.486 579.818C300.74 578.607 300.867 577.094 300.867 575.277C300.867 573.48 300.745 571.977 300.501 570.766C300.257 569.555 299.856 568.646 299.3 568.041C298.743 567.426 297.996 567.118 297.059 567.118C296.121 567.118 295.374 567.426 294.817 568.041C294.271 568.646 293.875 569.555 293.631 570.766C293.396 571.977 293.279 573.48 293.279 575.277Z" fill="#0D4ECA"/>
<path d="M423.85 586H409.348V583.407L414.899 577.782C415.974 576.688 416.857 575.746 417.551 574.955C418.244 574.154 418.757 573.397 419.089 572.685C419.431 571.972 419.602 571.195 419.602 570.355C419.602 569.32 419.304 568.539 418.708 568.012C418.112 567.475 417.326 567.206 416.35 567.206C415.422 567.206 414.562 567.392 413.771 567.763C412.99 568.124 412.18 568.642 411.34 569.315L409.45 567.045C410.046 566.537 410.681 566.073 411.354 565.653C412.038 565.233 412.8 564.901 413.64 564.657C414.479 564.403 415.437 564.276 416.511 564.276C417.868 564.276 419.04 564.521 420.026 565.009C421.013 565.487 421.77 566.156 422.297 567.016C422.834 567.875 423.103 568.876 423.103 570.019C423.103 571.171 422.873 572.235 422.414 573.212C421.955 574.188 421.301 575.155 420.451 576.112C419.602 577.06 418.591 578.09 417.419 579.203L413.713 582.821V582.982H423.85V586ZM441.018 575.277C441.018 577.006 440.881 578.554 440.607 579.921C440.344 581.278 439.924 582.431 439.348 583.378C438.771 584.325 438.02 585.048 437.092 585.546C436.164 586.044 435.041 586.293 433.723 586.293C432.072 586.293 430.71 585.858 429.636 584.989C428.562 584.11 427.766 582.851 427.248 581.21C426.73 579.56 426.472 577.582 426.472 575.277C426.472 572.973 426.706 571 427.175 569.359C427.653 567.709 428.425 566.444 429.489 565.565C430.554 564.687 431.965 564.247 433.723 564.247C435.383 564.247 436.75 564.687 437.824 565.565C438.908 566.435 439.709 567.694 440.227 569.345C440.754 570.985 441.018 572.963 441.018 575.277ZM429.943 575.277C429.943 577.084 430.061 578.593 430.295 579.804C430.539 581.015 430.939 581.923 431.496 582.528C432.053 583.124 432.795 583.422 433.723 583.422C434.65 583.422 435.393 583.124 435.949 582.528C436.506 581.933 436.906 581.029 437.15 579.818C437.404 578.607 437.531 577.094 437.531 575.277C437.531 573.48 437.409 571.977 437.165 570.766C436.921 569.555 436.521 568.646 435.964 568.041C435.407 567.426 434.66 567.118 433.723 567.118C432.785 567.118 432.038 567.426 431.481 568.041C430.935 568.646 430.539 569.555 430.295 570.766C430.061 571.977 429.943 573.48 429.943 575.277ZM458.186 586H443.684V583.407L449.235 577.782C450.31 576.688 451.193 575.746 451.887 574.955C452.58 574.154 453.093 573.397 453.425 572.685C453.767 571.972 453.938 571.195 453.938 570.355C453.938 569.32 453.64 568.539 453.044 568.012C452.448 567.475 451.662 567.206 450.686 567.206C449.758 567.206 448.898 567.392 448.107 567.763C447.326 568.124 446.516 568.642 445.676 569.315L443.786 567.045C444.382 566.537 445.017 566.073 445.69 565.653C446.374 565.233 447.136 564.901 447.976 564.657C448.815 564.403 449.772 564.276 450.847 564.276C452.204 564.276 453.376 564.521 454.362 565.009C455.349 565.487 456.105 566.156 456.633 567.016C457.17 567.875 457.438 568.876 457.438 570.019C457.438 571.171 457.209 572.235 456.75 573.212C456.291 574.188 455.637 575.155 454.787 576.112C453.938 577.06 452.927 578.09 451.755 579.203L448.049 582.821V582.982H458.186V586ZM470.974 586H467.517V572.216C467.517 571.757 467.521 571.298 467.531 570.839C467.541 570.38 467.551 569.931 467.561 569.491C467.58 569.052 467.604 568.632 467.634 568.231C467.429 568.456 467.175 568.7 466.872 568.964C466.579 569.228 466.267 569.501 465.935 569.784L463.474 571.747L461.745 569.564L468.103 564.584H470.974V586Z" fill="#0D4ECA"/>
<path d="M594.85 586H580.348V583.407L585.899 577.782C586.974 576.688 587.857 575.746 588.551 574.955C589.244 574.154 589.757 573.397 590.089 572.685C590.431 571.972 590.602 571.195 590.602 570.355C590.602 569.32 590.304 568.539 589.708 568.012C589.112 567.475 588.326 567.206 587.35 567.206C586.422 567.206 585.562 567.392 584.771 567.763C583.99 568.124 583.18 568.642 582.34 569.315L580.45 567.045C581.046 566.537 581.681 566.073 582.354 565.653C583.038 565.233 583.8 564.901 584.64 564.657C585.479 564.403 586.437 564.276 587.511 564.276C588.868 564.276 590.04 564.521 591.026 565.009C592.013 565.487 592.77 566.156 593.297 567.016C593.834 567.875 594.103 568.876 594.103 570.019C594.103 571.171 593.873 572.235 593.414 573.212C592.955 574.188 592.301 575.155 591.451 576.112C590.602 577.06 589.591 578.09 588.419 579.203L584.713 582.821V582.982H594.85V586ZM612.018 575.277C612.018 577.006 611.881 578.554 611.607 579.921C611.344 581.278 610.924 582.431 610.348 583.378C609.771 584.325 609.02 585.048 608.092 585.546C607.164 586.044 606.041 586.293 604.723 586.293C603.072 586.293 601.71 585.858 600.636 584.989C599.562 584.11 598.766 582.851 598.248 581.21C597.73 579.56 597.472 577.582 597.472 575.277C597.472 572.973 597.706 571 598.175 569.359C598.653 567.709 599.425 566.444 600.489 565.565C601.554 564.687 602.965 564.247 604.723 564.247C606.383 564.247 607.75 564.687 608.824 565.565C609.908 566.435 610.709 567.694 611.227 569.345C611.754 570.985 612.018 572.963 612.018 575.277ZM600.943 575.277C600.943 577.084 601.061 578.593 601.295 579.804C601.539 581.015 601.939 581.923 602.496 582.528C603.053 583.124 603.795 583.422 604.723 583.422C605.65 583.422 606.393 583.124 606.949 582.528C607.506 581.933 607.906 581.029 608.15 579.818C608.404 578.607 608.531 577.094 608.531 575.277C608.531 573.48 608.409 571.977 608.165 570.766C607.921 569.555 607.521 568.646 606.964 568.041C606.407 567.426 605.66 567.118 604.723 567.118C603.785 567.118 603.038 567.426 602.481 568.041C601.935 568.646 601.539 569.555 601.295 570.766C601.061 571.977 600.943 573.48 600.943 575.277ZM629.186 586H614.684V583.407L620.235 577.782C621.31 576.688 622.193 575.746 622.887 574.955C623.58 574.154 624.093 573.397 624.425 572.685C624.767 571.972 624.938 571.195 624.938 570.355C624.938 569.32 624.64 568.539 624.044 568.012C623.448 567.475 622.662 567.206 621.686 567.206C620.758 567.206 619.898 567.392 619.107 567.763C618.326 568.124 617.516 568.642 616.676 569.315L614.786 567.045C615.382 566.537 616.017 566.073 616.69 565.653C617.374 565.233 618.136 564.901 618.976 564.657C619.815 564.403 620.772 564.276 621.847 564.276C623.204 564.276 624.376 564.521 625.362 565.009C626.349 565.487 627.105 566.156 627.633 567.016C628.17 567.875 628.438 568.876 628.438 570.019C628.438 571.171 628.209 572.235 627.75 573.212C627.291 574.188 626.637 575.155 625.787 576.112C624.938 577.06 623.927 578.09 622.755 579.203L619.049 582.821V582.982H629.186V586ZM646.354 586H631.852V583.407L637.403 577.782C638.478 576.688 639.361 575.746 640.055 574.955C640.748 574.154 641.261 573.397 641.593 572.685C641.935 571.972 642.105 571.195 642.105 570.355C642.105 569.32 641.808 568.539 641.212 568.012C640.616 567.475 639.83 567.206 638.854 567.206C637.926 567.206 637.066 567.392 636.275 567.763C635.494 568.124 634.684 568.642 633.844 569.315L631.954 567.045C632.55 566.537 633.185 566.073 633.858 565.653C634.542 565.233 635.304 564.901 636.144 564.657C636.983 564.403 637.94 564.276 639.015 564.276C640.372 564.276 641.544 564.521 642.53 565.009C643.517 565.487 644.273 566.156 644.801 567.016C645.338 567.875 645.606 568.876 645.606 570.019C645.606 571.171 645.377 572.235 644.918 573.212C644.459 574.188 643.805 575.155 642.955 576.112C642.105 577.06 641.095 578.09 639.923 579.203L636.217 582.821V582.982H646.354V586Z" fill="#0D4ECA"/>
<defs>
<linearGradient id="paint0_linear_5136_5643" x1="40.2516" y1="658.115" x2="338.535" y2="479.04" gradientUnits="userSpaceOnUse">
<stop stop-color="#64BDE1"/>
<stop offset="1" stop-color="#1783B2"/>
</linearGradient>
<clipPath id="clip0_5136_5643">
<rect width="686.09" height="451.286" fill="white" transform="translate(0.598633 93)"/>
</clipPath>
</defs>
</svg>
