<svg width="303" height="265" viewBox="0 0 303 265" fill="none" xmlns="http://www.w3.org/2000/svg">
<g clip-path="url(#clip0_4553_7311)">
<path d="M88.7759 186.223H4.75391V203.289H88.7759V186.223Z" fill="#444444"/>
<path d="M88.7757 203.929H4.75369C4.41414 203.929 4.1123 203.628 4.1123 203.289V186.222C4.1123 185.883 4.41414 185.582 4.75369 185.582H88.7757C89.1153 185.582 89.4171 185.883 89.4171 186.222V203.289C89.4171 203.628 89.1153 203.929 88.7757 203.929ZM5.39508 202.648H88.1344V186.863H5.39508V202.648Z" fill="#444444"/>
<path d="M70.2886 169.797H23.2408L15.3555 186.223H78.1739L70.2886 169.797Z" fill="white"/>
<path d="M78.1743 186.863H15.3558C15.1295 186.863 14.9408 186.75 14.8276 186.562C14.7144 186.373 14.7144 186.147 14.7899 185.959L22.6375 169.533C22.7507 169.307 22.977 169.156 23.2034 169.156H70.289C70.5531 169.156 70.7794 169.307 70.8549 169.533L78.7402 185.921C78.8534 186.11 78.8157 186.336 78.7025 186.524C78.5893 186.712 78.4007 186.863 78.1743 186.863ZM16.3745 185.582H77.1556L69.9117 170.475H23.6184L16.3745 185.582Z" fill="#444444"/>
<path d="M96.5482 70.7132C98.8119 68.9802 101.491 68.076 104.132 68.0006L87.2669 43.3994C86.7387 45.8859 85.4182 48.2217 83.3808 50.0677L75.9482 56.6607L91.4171 79.4536C91.9075 76.0629 93.643 72.8983 96.5482 70.7132Z" fill="white"/>
<path d="M91.4167 80.0567C91.1903 80.0567 91.0017 79.9436 90.8885 79.7929L75.4197 57.0001C75.231 56.7364 75.2687 56.3596 75.5328 56.1713L82.9654 49.5783C84.8519 47.9206 86.1346 45.7355 86.6628 43.249C86.7006 42.9853 86.9269 42.7969 87.1533 42.7593C87.4174 42.7216 87.6438 42.7969 87.7947 43.023L104.659 67.6242C104.773 67.8126 104.81 68.0763 104.697 68.2647C104.584 68.453 104.395 68.6037 104.131 68.6037C101.49 68.7167 99.0002 69.6209 96.8873 71.2032C94.2086 73.2376 92.4731 76.1762 92.0203 79.4916C91.9826 79.7553 91.794 79.9813 91.5299 80.019C91.4921 80.0567 91.4544 80.0567 91.4167 80.0567ZM76.7779 56.7364L91.0771 77.7962C91.8694 74.7823 93.6427 72.1074 96.1328 70.186C98.1324 68.6414 100.472 67.6995 102.962 67.3981L87.4929 44.8313C86.776 47.0164 85.4933 48.9378 83.7577 50.4825L76.7779 56.7364Z" fill="#444444"/>
<path d="M94.0953 89.626L89.7188 103.49L105.263 123.872L124.505 122.553L123.939 115.244L108.696 116.262L97.7927 101.945L100.471 94.1092C98.0191 93.318 95.7931 91.8111 94.0953 89.626Z" fill="white"/>
<path d="M105.263 124.513C105.075 124.513 104.886 124.437 104.735 124.249L89.1908 103.867C89.0776 103.717 89.0399 103.491 89.0776 103.302L93.4542 89.4381C93.5296 89.212 93.7183 89.0237 93.9446 88.986C94.171 88.9483 94.4351 89.0237 94.5483 89.212C96.0952 91.2088 98.208 92.6781 100.623 93.4692C100.774 93.5069 100.924 93.6576 101 93.8083C101.075 93.959 101.075 94.1473 101.038 94.298L98.4721 101.833L108.961 115.584L123.864 114.567C124.203 114.529 124.505 114.793 124.543 115.17L125.109 122.478C125.109 122.667 125.071 122.817 124.958 122.93C124.845 123.043 124.694 123.156 124.505 123.156L105.263 124.475C105.301 124.513 105.301 124.513 105.263 124.513ZM90.4736 103.378L105.603 123.194L123.864 121.951L123.373 115.923L108.772 116.903C108.546 116.903 108.357 116.827 108.206 116.639L97.3025 102.323C97.1893 102.134 97.1516 101.946 97.1893 101.72L99.6794 94.4487C97.6421 93.6953 95.8688 92.452 94.3974 90.8697L90.4736 103.378Z" fill="#444444"/>
<path d="M129.938 72.8232L115.412 73.3507C117.072 75.5735 117.94 78.0976 118.053 80.6971L126.353 80.1697L137.257 94.4859L132.239 108.915L139.106 111.402L145.482 93.205L129.938 72.8232Z" fill="white"/>
<path d="M139.106 112.042C139.031 112.042 138.955 112.042 138.88 112.004L132.013 109.518C131.673 109.405 131.523 109.028 131.636 108.689L136.54 94.5987L126.052 80.8477L118.129 81.3374C117.94 81.3374 117.789 81.2998 117.676 81.1867C117.563 81.0737 117.487 80.923 117.45 80.7346C117.337 78.2105 116.469 75.7993 114.922 73.7649C114.771 73.5766 114.771 73.3128 114.846 73.0868C114.922 72.8607 115.148 72.7477 115.412 72.7101L129.938 72.1826C130.164 72.1826 130.353 72.258 130.466 72.4463L146.01 92.828C146.124 93.0164 146.161 93.2425 146.124 93.4308L139.747 111.627C139.71 111.778 139.559 111.929 139.408 112.004C139.295 112.042 139.219 112.042 139.106 112.042ZM133.032 108.538L138.691 110.61L144.728 93.3178L129.598 73.5012L116.582 73.991C117.714 75.837 118.431 77.9091 118.619 80.0565L126.278 79.5667C126.505 79.5667 126.693 79.6421 126.844 79.8305L137.748 94.1466C137.861 94.335 137.899 94.5611 137.861 94.7494L133.032 108.538Z" fill="#444444"/>
<path d="M104.66 95.4283C103.188 95.4283 101.717 95.2022 100.245 94.7125C97.6044 93.846 95.3029 92.226 93.5674 90.0032C93.5297 89.9278 93.492 89.9278 93.4542 89.8902C91.1528 86.8386 90.1718 83.1088 90.7378 79.3037C91.266 75.6493 93.1901 72.4094 96.0952 70.1866C98.3967 68.4159 101.151 67.4364 104.056 67.3233C108.621 67.135 113.035 69.2071 115.79 72.8238C115.827 72.8615 115.827 72.8991 115.865 72.9368L115.903 72.9745C117.563 75.2349 118.544 77.8721 118.657 80.66C118.883 85.2939 116.808 89.7395 113.149 92.565C110.734 94.4487 107.716 95.4283 104.66 95.4283ZM104.66 68.6043C104.509 68.6043 104.32 68.6043 104.169 68.6043C101.528 68.7173 99.0381 69.6215 96.9253 71.2038C94.2465 73.2382 92.511 76.1768 92.0583 79.4921C91.5678 82.9204 92.4356 86.3488 94.5484 89.099C94.5861 89.1367 94.6238 89.1744 94.6615 89.212C96.2462 91.2088 98.3212 92.6781 100.736 93.4692C104.735 94.7878 109.149 94.0343 112.47 91.5102C115.827 88.9483 117.676 84.9172 117.487 80.6977C117.374 78.1735 116.507 75.7624 114.96 73.728C114.922 73.6903 114.922 73.6526 114.884 73.6149C112.432 70.4503 108.659 68.6043 104.66 68.6043Z" fill="#444444"/>
<path d="M73.3073 45.9619C71.9868 45.9619 70.704 45.5098 69.6476 44.6433C68.478 43.6638 67.7611 42.3075 67.6479 40.8005C67.5725 39.934 67.7234 39.0675 68.063 38.201C68.8175 36.3173 70.5531 34.961 72.5904 34.6973H72.6281C72.7036 34.6973 72.7791 34.6597 72.8545 34.6597C74.3637 34.509 75.8351 34.9987 77.0047 35.9783C78.1743 36.9578 78.8911 38.314 79.0043 39.821C79.2684 42.948 76.967 45.6982 73.8355 45.9996C73.6468 45.9619 73.4582 45.9619 73.3073 45.9619ZM72.93 35.8652H72.8923C72.8545 35.8652 72.7791 35.9029 72.7413 35.9029C71.1945 36.1289 69.8362 37.1462 69.2326 38.6154C68.9685 39.2936 68.8553 39.9717 68.9307 40.6498C69.0439 41.8177 69.5721 42.8726 70.4776 43.6261C71.3831 44.3796 72.515 44.7563 73.6846 44.6433C76.0992 44.4173 77.9102 42.2698 77.6838 39.8587C77.5706 38.6908 77.0424 37.6359 76.1369 36.8824C75.2314 36.1289 74.0996 35.7899 72.93 35.8652Z" fill="#444444"/>
<path d="M104.66 86.4238C107.452 86.4238 109.716 84.1636 109.716 81.3755C109.716 78.5874 107.452 76.3271 104.66 76.3271C101.868 76.3271 99.6045 78.5874 99.6045 81.3755C99.6045 84.1636 101.868 86.4238 104.66 86.4238Z" fill="white"/>
<path d="M104.66 87.0641C101.528 87.0641 98.9629 84.5023 98.9629 81.3753C98.9629 78.2484 101.528 75.6865 104.66 75.6865C107.791 75.6865 110.357 78.2484 110.357 81.3753C110.357 84.5023 107.791 87.0641 104.66 87.0641ZM104.66 76.9674C102.245 76.9674 100.246 78.9265 100.246 81.3753C100.246 83.8241 102.208 85.7832 104.66 85.7832C107.112 85.7832 109.074 83.8241 109.074 81.3753C109.074 78.9265 107.112 76.9674 104.66 76.9674Z" fill="#444444"/>
<path d="M73.3073 45.9619C71.9868 45.9619 70.704 45.5098 69.6476 44.6433C68.478 43.6638 67.7611 42.3075 67.6479 40.8005C67.5725 39.934 67.7234 39.0675 68.063 38.201C68.8175 36.3173 70.5531 34.961 72.5904 34.6973H72.6281C72.7036 34.6973 72.7791 34.6597 72.8545 34.6597C74.3637 34.509 75.8351 34.9987 77.0047 35.9783C78.1743 36.9578 78.8911 38.314 79.0043 39.821C79.2684 42.948 76.967 45.6982 73.8355 45.9996C73.6468 45.9619 73.4582 45.9619 73.3073 45.9619ZM72.93 35.8652H72.8923C72.8545 35.8652 72.7791 35.9029 72.7413 35.9029C71.1945 36.1289 69.8362 37.1462 69.2326 38.6154C68.9685 39.2936 68.8553 39.9717 68.9307 40.6498C69.0439 41.8177 69.5721 42.8726 70.4776 43.6261C71.3831 44.3796 72.515 44.7563 73.6846 44.6433C76.0992 44.4173 77.9102 42.2698 77.6838 39.8587C77.5706 38.6908 77.0424 37.6359 76.1369 36.8824C75.2314 36.1289 74.0996 35.7899 72.93 35.8652Z" fill="#444444"/>
<path d="M84.3614 32.3986L83.2295 31.1177C78.5889 25.9564 70.6658 25.5419 65.4592 30.1382L23.8066 67.1342C33.8048 68.3021 41.5769 76.5151 42.1051 86.6871L75.9478 56.5854L83.3804 49.9925C85.4555 48.1464 86.7383 45.8106 87.2665 43.3241C88.0965 39.5944 87.1533 35.4879 84.3614 32.3986ZM73.7596 45.2832C70.9676 45.5469 68.5153 43.4748 68.2889 40.687C68.2134 39.8581 68.3644 39.1046 68.6662 38.3888C69.3076 36.7312 70.8167 35.5256 72.6654 35.2619C72.7409 35.2619 72.8164 35.2242 72.8918 35.2242C75.6837 34.9605 78.1361 37.0326 78.3625 39.8204C78.5889 42.6083 76.5138 45.0572 73.7596 45.2832Z" fill="white"/>
<path d="M42.1049 87.3657C42.0294 87.3657 41.954 87.3657 41.8408 87.328C41.6144 87.215 41.4635 87.0266 41.4635 86.7629C40.973 76.8922 33.5404 68.943 23.7309 67.8128C23.4668 67.7751 23.2782 67.6244 23.2027 67.3607C23.1273 67.1346 23.2027 66.8709 23.3914 66.6825L65.044 29.6865C70.4769 24.8642 78.8527 25.3163 83.7197 30.7037L84.8516 31.9846C87.6435 35.1116 88.8131 39.4065 87.9076 43.5129C87.304 46.2631 85.908 48.6743 83.7952 50.5203L42.5199 87.215C42.4067 87.2903 42.2558 87.3657 42.1049 87.3657ZM25.2401 66.7202C34.5214 68.4156 41.5767 75.9881 42.5953 85.3689L82.8897 49.5408C84.7761 47.8831 86.0589 45.698 86.5871 43.2115C87.3794 39.4818 86.3608 35.6014 83.8329 32.7758L82.7011 31.4949C78.3245 26.6349 70.741 26.2205 65.8363 30.5907L25.2401 66.7202ZM73.3066 45.9618C71.9861 45.9618 70.7033 45.5097 69.6469 44.6432C68.4773 43.6636 67.7605 42.3074 67.6473 40.8004C67.5718 39.9339 67.7227 39.0674 68.0623 38.2009C68.8169 36.3172 70.5524 34.9609 72.5897 34.6972H72.6275C72.7029 34.6972 72.7784 34.6595 72.8539 34.6595C74.363 34.5088 75.8344 34.9986 77.004 35.9781C78.1736 36.9576 78.8905 38.3139 79.0036 39.8209C79.2677 42.9478 76.9663 45.698 73.8348 45.9994C73.6462 45.9618 73.4575 45.9618 73.3066 45.9618ZM73.3066 35.8651C73.1934 35.8651 73.0425 35.8651 72.9293 35.8651H72.8916C72.8538 35.8651 72.7784 35.9028 72.7407 35.9028C71.1938 36.1288 69.8355 37.146 69.2319 38.6153C68.9678 39.2934 68.8546 39.9716 68.93 40.6497C69.0432 41.8176 69.5714 42.8725 70.4769 43.626C71.3824 44.3794 72.5143 44.7562 73.6839 44.6432C76.0985 44.4171 77.9095 42.2697 77.6831 39.8585C77.5699 38.6906 77.0417 37.6358 76.1363 36.8823C75.3439 36.2042 74.3253 35.8651 73.3066 35.8651Z" fill="#444444"/>
<path d="M26.4482 87.7427C26.4482 84.9548 24.1845 82.6943 21.3926 82.6943C18.6006 82.6943 16.3369 84.9548 16.3369 87.7427C16.3369 88.0817 16.3746 88.4208 16.4501 88.7222C16.8274 90.5306 18.1479 91.9622 19.8834 92.5273C20.3739 92.678 20.8644 92.791 21.4303 92.791C24.1845 92.8287 26.4482 90.5306 26.4482 87.7427Z" fill="white"/>
<path d="M21.3924 93.469C20.8264 93.469 20.2605 93.356 19.6568 93.1676C17.6949 92.5271 16.1858 90.9071 15.8085 88.8727C15.733 88.496 15.6953 88.1192 15.6953 87.7425C15.6953 84.5779 18.2609 82.0537 21.3924 82.0537C24.5239 82.0537 27.0894 84.6155 27.0894 87.7425C27.0894 90.8695 24.5239 93.469 21.3924 93.469ZM21.3924 83.3346C18.94 83.3346 16.9781 85.3314 16.9781 87.7425C16.9781 88.0439 17.0158 88.3076 17.0536 88.609C17.3554 90.1537 18.525 91.4346 20.0341 91.9243C20.5246 92.075 20.9773 92.1504 21.3924 92.1504C23.8447 92.1504 25.8066 90.1536 25.8066 87.7425C25.8066 85.3314 23.8447 83.3346 21.3924 83.3346Z" fill="#444444"/>
<path d="M46.7839 136.342C50.1795 136.342 53.3865 137.058 56.2916 138.376L38.3327 99.7227C34.5598 105.035 28.41 108.538 21.3924 108.538C18.1478 108.538 15.054 107.747 12.2998 106.429L29.7305 143.651C34.0693 139.13 40.0682 136.342 46.7839 136.342Z" fill="white"/>
<path d="M29.768 144.254C29.7302 144.254 29.6925 144.254 29.6548 144.254C29.4284 144.216 29.2775 144.103 29.1643 143.877L11.7336 106.655C11.6204 106.391 11.6581 106.127 11.8468 105.939C12.0354 105.751 12.3372 105.713 12.5636 105.826C15.3556 107.182 18.2984 107.86 21.3544 107.86C27.8815 107.86 33.9936 104.658 37.7665 99.3461C37.8796 99.1578 38.106 99.0447 38.3324 99.0824C38.5588 99.1201 38.7474 99.2331 38.8606 99.4592L56.8195 138.113C56.9327 138.339 56.895 138.64 56.7063 138.829C56.5177 139.017 56.2158 139.055 55.9895 138.979C53.0466 137.661 49.9151 137.02 46.7459 137.02C40.4452 137.02 34.5972 139.544 30.2207 144.103C30.1075 144.178 29.9566 144.254 29.768 144.254ZM13.62 107.672L29.9566 142.521C34.4841 138.113 40.4452 135.702 46.7459 135.702C49.5756 135.702 52.3298 136.191 55.0085 137.171L38.2192 100.966C34.1822 106.127 27.957 109.179 21.3922 109.179C18.7134 109.141 16.1101 108.652 13.62 107.672Z" fill="#444444"/>
<path d="M56.2913 138.376C53.3862 137.095 50.1792 136.342 46.7836 136.342C40.1056 136.342 34.069 139.13 29.7679 143.613C25.731 147.832 23.2031 153.559 23.2031 159.888V169.985H70.3264V159.888C70.3264 150.281 64.5539 142.031 56.2913 138.376ZM46.7836 158.268C44.5954 158.268 42.7466 156.761 42.1053 154.727C41.9543 154.237 41.8412 153.71 41.8412 153.182C41.8412 150.357 44.0672 148.058 46.7836 148.058C48.8964 148.058 50.7074 149.452 51.3865 151.411C51.5752 151.939 51.6884 152.542 51.6884 153.144C51.6884 156.008 49.5001 158.268 46.7836 158.268Z" fill="white"/>
<path d="M70.3262 170.625H23.2029C22.8634 170.625 22.5615 170.324 22.5615 169.985V159.888C22.5615 153.634 24.9384 147.682 29.315 143.161C33.9179 138.338 40.1431 135.701 46.7834 135.701C50.179 135.701 53.4614 136.417 56.5552 137.773C65.3083 141.654 70.9676 150.319 70.9676 159.888V169.985C70.9676 170.361 70.6657 170.625 70.3262 170.625ZM23.8443 169.344H69.6848V159.888C69.6848 150.846 64.3273 142.596 56.027 138.941C53.0841 137.623 49.9526 136.982 46.7834 136.982C40.4827 136.982 34.6347 139.506 30.2582 144.065C26.1458 148.36 23.882 153.973 23.882 159.888V169.344H23.8443ZM46.7834 158.908C44.3688 158.908 42.256 157.288 41.5014 154.915C41.3127 154.275 41.1996 153.709 41.1996 153.144C41.1996 149.98 43.6897 147.38 46.7834 147.38C49.1226 147.38 51.1977 148.887 52.0277 151.185C52.2541 151.863 52.3673 152.504 52.3673 153.144C52.3295 156.347 49.8394 158.908 46.7834 158.908ZM46.7834 148.699C44.4065 148.699 42.4823 150.695 42.4823 153.182C42.4823 153.596 42.5578 154.048 42.7087 154.538C43.2746 156.384 44.9347 157.628 46.7834 157.628C49.1603 157.628 51.0845 155.631 51.0845 153.144C51.0845 152.655 51.009 152.127 50.8204 151.6C50.179 149.904 48.5567 148.699 46.7834 148.699Z" fill="#444444"/>
<path d="M42.1056 86.7251C41.6151 76.553 33.8052 68.3024 23.8071 67.1722C23.0148 67.0968 22.2225 67.0215 21.3924 67.0215C9.92289 67.0215 0.641602 76.327 0.641602 87.7799C0.641602 95.9929 5.39543 103.038 12.3375 106.429C15.0917 107.785 18.1478 108.538 21.4302 108.538C28.4477 108.538 34.6353 105.072 38.3704 99.7227C40.7473 96.332 42.181 92.2255 42.181 87.7799C42.1433 87.4032 42.1056 87.0641 42.1056 86.7251ZM21.3924 92.8283C20.8642 92.8283 20.336 92.7153 19.8456 92.5646C18.11 91.9994 16.7895 90.5678 16.4122 88.7595C16.3368 88.4204 16.2991 88.119 16.2991 87.7799C16.2991 84.9921 18.5628 82.7316 21.3547 82.7316C24.1466 82.7316 26.4104 84.9921 26.4104 87.7799C26.4481 90.5302 24.1844 92.8283 21.3924 92.8283Z" fill="white"/>
<path d="M21.3922 109.142C18.1476 109.142 14.9783 108.426 12.0355 106.956C4.60291 103.34 0 95.9933 0 87.7427C0 75.9507 9.58312 66.3438 21.3922 66.3438C22.1468 66.3438 22.9768 66.3814 23.8823 66.4944C34.2955 67.7 42.2185 76.1767 42.7467 86.6501C42.7467 86.7631 42.7467 86.8762 42.7845 86.9892C42.7845 87.2152 42.8222 87.4789 42.8222 87.705C42.8222 92.1505 41.464 96.4077 38.8984 100.024C34.8614 105.751 28.3343 109.142 21.3922 109.142ZM21.3922 67.6247C10.3 67.6247 1.28278 76.6665 1.28278 87.7427C1.28278 95.4659 5.62159 102.398 12.6014 105.826C15.3934 107.183 18.3362 107.861 21.3922 107.861C27.9193 107.861 34.0314 104.658 37.8043 99.3463C40.2189 95.918 41.5017 91.9245 41.5017 87.7803C41.5017 87.5543 41.5017 87.3659 41.464 87.1399C41.464 87.0269 41.464 86.9138 41.4262 86.7631C40.9357 76.8925 33.5032 68.9433 23.6937 67.813C22.8637 67.7 22.1091 67.6247 21.3922 67.6247ZM21.3922 93.4691C20.8263 93.4691 20.2604 93.3561 19.6567 93.1677C17.6948 92.5273 16.1857 90.9073 15.8084 88.8729C15.7329 88.4961 15.6952 88.1194 15.6952 87.7427C15.6952 84.578 18.2607 82.0539 21.3922 82.0539C24.5237 82.0539 27.0893 84.6157 27.0893 87.7427C27.0893 90.8696 24.5237 93.4691 21.3922 93.4691ZM21.3922 83.3348C18.9399 83.3348 16.978 85.3315 16.978 87.7427C16.978 88.0441 17.0157 88.3078 17.0534 88.6092C17.3552 90.1538 18.5248 91.4347 20.034 91.9245C20.5245 92.0752 20.9772 92.1505 21.3922 92.1505C23.8446 92.1505 25.8065 90.1538 25.8065 87.7427C25.8065 85.3315 23.8446 83.3348 21.3922 83.3348Z" fill="#444444"/>
<path d="M21.3924 93.469C20.8264 93.469 20.2605 93.356 19.6568 93.1676C17.6949 92.5271 16.1858 90.9071 15.8085 88.8727C15.733 88.496 15.6953 88.1192 15.6953 87.7425C15.6953 84.5779 18.2609 82.0537 21.3924 82.0537C24.5239 82.0537 27.0894 84.6155 27.0894 87.7425C27.0894 90.8695 24.5239 93.469 21.3924 93.469ZM21.3924 83.3346C18.94 83.3346 16.9781 85.3314 16.9781 87.7425C16.9781 88.0439 17.0158 88.3076 17.0536 88.609C17.3554 90.1537 18.525 91.4346 20.0341 91.9243C20.5246 92.075 20.9773 92.1504 21.3924 92.1504C23.8447 92.1504 25.8066 90.1536 25.8066 87.7425C25.8066 85.3314 23.8447 83.3346 21.3924 83.3346Z" fill="#444444"/>
<path d="M123.072 193.909H114.13V158.57H123.072" fill="white"/>
<path d="M123.072 194.549H114.168C113.828 194.549 113.526 194.248 113.526 193.909V158.57C113.526 158.231 113.828 157.93 114.168 157.93H123.072C123.411 157.93 123.713 158.231 123.713 158.57C123.713 158.909 123.411 159.211 123.072 159.211H114.809V193.268H123.072C123.411 193.268 123.713 193.569 123.713 193.909C123.713 194.248 123.411 194.549 123.072 194.549Z" fill="#444444"/>
<path d="M236.561 153.07H123.072V199.41H236.561V153.07Z" fill="white"/>
<path d="M236.56 200.05H123.072C122.732 200.05 122.431 199.748 122.431 199.409V153.07C122.431 152.731 122.732 152.43 123.072 152.43H236.56C236.9 152.43 237.202 152.731 237.202 153.07V199.409C237.202 199.748 236.9 200.05 236.56 200.05ZM123.713 198.769H235.919V153.711H123.713V198.769Z" fill="#444444"/>
<path d="M141.447 180.271C137.146 181.928 134.203 185.809 133.071 190.48L129.26 217.869C129.109 218.434 128.996 219.037 128.996 219.678C128.996 223.483 132.09 226.572 135.9 226.572C138.919 226.572 140.956 224.538 143.446 221.9L157.67 201.33C159.556 199.07 160.047 195.039 160.311 192.063" fill="white"/>
<path d="M135.9 227.25C131.75 227.25 128.354 223.86 128.354 219.716C128.354 219.075 128.43 218.435 128.619 217.757L132.429 190.405C132.429 190.367 132.429 190.367 132.429 190.33C133.712 185.206 136.919 181.326 141.22 179.668C141.56 179.555 141.937 179.706 142.05 180.045C142.163 180.384 142.012 180.761 141.673 180.874C137.787 182.381 134.844 185.922 133.674 190.593L129.864 217.983C129.864 218.02 129.864 218.02 129.864 218.058C129.713 218.623 129.637 219.15 129.637 219.716C129.637 223.182 132.467 225.969 135.9 225.969C138.617 225.969 140.428 224.199 142.918 221.524L157.104 200.992L157.142 200.954C158.877 198.882 159.368 195.077 159.632 192.025C159.669 191.686 159.971 191.422 160.311 191.422C160.65 191.46 160.914 191.761 160.914 192.1C160.65 195.34 160.084 199.334 158.16 201.707L143.936 222.277C143.936 222.315 143.899 222.315 143.861 222.353C141.258 225.216 139.107 227.25 135.9 227.25Z" fill="#444444"/>
<path d="M220.375 193.005L216.904 217.87C216.753 218.435 216.64 219.038 216.64 219.678C216.64 223.483 219.733 226.572 223.544 226.572C226.562 226.572 228.6 224.538 231.09 221.901L245.314 201.331C247.2 199.07 247.69 197.488 247.955 194.512C247.577 189.727 247.125 187.994 245.54 185.131" fill="white"/>
<path d="M223.582 227.25C219.432 227.25 216.036 223.86 216.036 219.715C216.036 219.075 216.112 218.434 216.3 217.756L219.771 192.929C219.809 192.59 220.149 192.326 220.488 192.364C220.828 192.402 221.092 192.741 221.054 193.08L217.583 217.945C217.583 217.982 217.583 217.982 217.583 218.02C217.432 218.585 217.357 219.113 217.357 219.678C217.357 223.144 220.186 225.932 223.62 225.932C226.336 225.932 228.147 224.161 230.637 221.486L244.823 200.954L244.861 200.916C246.559 198.882 247.087 197.488 247.351 194.511C246.974 189.877 246.559 188.257 245.012 185.432C244.823 185.13 244.936 184.716 245.276 184.565C245.578 184.377 245.993 184.49 246.144 184.829C247.804 187.805 248.257 189.614 248.634 194.474C248.634 194.511 248.634 194.549 248.634 194.587C248.407 197.488 247.955 199.221 245.88 201.707L231.656 222.277C231.656 222.315 231.618 222.315 231.58 222.353C228.939 225.216 226.827 227.25 223.582 227.25Z" fill="#444444"/>
<path d="M155.293 248.159C158.835 248.159 161.707 245.291 161.707 241.754C161.707 238.217 158.835 235.35 155.293 235.35C151.751 235.35 148.879 238.217 148.879 241.754C148.879 245.291 151.751 248.159 155.293 248.159Z" fill="white"/>
<path d="M155.293 248.762C151.407 248.762 148.237 245.597 148.237 241.717C148.237 237.836 151.407 234.672 155.293 234.672C159.179 234.672 162.348 237.836 162.348 241.717C162.31 245.597 159.141 248.762 155.293 248.762ZM155.293 235.99C152.123 235.99 149.52 238.552 149.52 241.755C149.52 244.919 152.086 247.519 155.293 247.519C158.5 247.519 161.065 244.957 161.065 241.755C161.027 238.552 158.462 235.99 155.293 235.99Z" fill="#444444"/>
<path d="M143.634 264.36C143.634 258.52 138.88 253.773 133.032 253.773C127.184 253.773 122.431 258.52 122.431 264.36H143.634Z" fill="#444444"/>
<path d="M143.634 265H122.469C122.129 265 121.827 264.699 121.827 264.36C121.827 258.181 126.883 253.133 133.07 253.133C139.258 253.133 144.314 258.181 144.314 264.36C144.276 264.736 143.974 265 143.634 265ZM123.11 263.719H142.955C142.616 258.558 138.315 254.414 133.033 254.414C127.751 254.451 123.449 258.558 123.11 263.719Z" fill="#1F75BA"/>
<path d="M151.104 237.536C150.916 237.536 150.765 237.46 150.614 237.31L139.71 225.442C139.484 225.179 139.484 224.764 139.748 224.538C140.012 224.312 140.427 224.312 140.653 224.576L151.557 236.443C151.783 236.707 151.783 237.121 151.519 237.347C151.444 237.46 151.293 237.536 151.104 237.536Z" fill="#444444"/>
<path d="M141.182 258.256C141.031 258.256 140.843 258.181 140.729 258.068C140.465 257.804 140.465 257.427 140.729 257.164L151.293 246.615C151.557 246.351 151.935 246.351 152.199 246.615C152.463 246.879 152.463 247.255 152.199 247.519L141.635 258.068C141.484 258.181 141.333 258.256 141.182 258.256Z" fill="#444444"/>
<path d="M216.677 220.318C216.639 220.318 216.602 220.318 216.602 220.318C216.262 220.28 215.998 219.941 216.036 219.602L219.733 192.929C219.771 192.59 220.111 192.326 220.45 192.364C220.79 192.402 221.054 192.741 221.016 193.08L217.319 219.753C217.243 220.092 216.979 220.318 216.677 220.318Z" fill="#444444"/>
<path d="M172.912 189.915C173.101 190.669 172.573 191.422 171.78 191.573C156.802 194.7 142.05 186.223 138.39 172.096C134.731 157.968 143.484 143.425 158.085 138.867C158.877 138.641 159.669 139.018 159.858 139.771L172.912 189.915Z" fill="#1F75BA"/>
<path d="M135.9 153.711C135.561 153.711 135.259 153.41 135.259 153.071V146.139C135.259 145.799 135.561 145.498 135.9 145.498C136.24 145.498 136.542 145.799 136.542 146.139V153.071C136.542 153.41 136.24 153.711 135.9 153.711Z" fill="#444444"/>
<path d="M140.767 140.713H127.034V146.1H140.767V140.713Z" fill="white"/>
<path d="M140.767 146.741H127.034C126.694 146.741 126.393 146.439 126.393 146.1V140.713C126.393 140.374 126.694 140.072 127.034 140.072H140.767C141.107 140.072 141.409 140.374 141.409 140.713V146.1C141.409 146.477 141.107 146.741 140.767 146.741ZM127.675 145.46H140.126V141.353H127.675V145.46Z" fill="#444444"/>
<path d="M202.944 177.483C203.736 177.483 204.339 176.805 204.264 176.014C203.547 168.328 197.058 162.338 189.21 162.338C181.325 162.338 174.873 168.328 174.156 176.014C174.081 176.805 174.722 177.483 175.477 177.483H177.477C178.156 177.483 178.722 176.955 178.797 176.277C179.401 171.078 183.815 167.047 189.172 167.047C194.53 167.047 198.982 171.078 199.548 176.277C199.623 176.955 200.189 177.483 200.868 177.483H202.944Z" fill="white"/>
<path d="M202.944 178.124H200.944C199.926 178.124 199.096 177.37 198.982 176.353C198.416 171.418 194.229 167.688 189.211 167.688C184.23 167.688 180.005 171.418 179.439 176.353C179.326 177.37 178.496 178.124 177.477 178.124H175.477C174.911 178.124 174.383 177.898 174.006 177.483C173.629 177.069 173.44 176.541 173.515 175.976C174.308 167.839 181.061 161.735 189.211 161.735C197.398 161.735 204.151 167.876 204.906 175.976C204.944 176.504 204.793 177.069 204.415 177.483C204.038 177.898 203.51 178.124 202.944 178.124ZM189.211 166.407C194.87 166.407 199.586 170.626 200.227 176.202C200.265 176.579 200.567 176.843 200.907 176.843H202.906C203.095 176.843 203.283 176.767 203.434 176.617C203.548 176.466 203.623 176.278 203.623 176.089C202.906 168.63 196.719 163.016 189.173 163.016C181.665 163.016 175.44 168.63 174.723 176.089C174.723 176.278 174.76 176.466 174.911 176.617C175.062 176.767 175.251 176.843 175.44 176.843H177.439C177.779 176.843 178.081 176.579 178.118 176.202C178.835 170.626 183.551 166.407 189.211 166.407Z" fill="#444444"/>
<path d="M202.114 178.312V190.292C202.114 199.635 209.698 207.245 219.092 207.245C225.204 207.245 230.147 202.31 230.147 196.207V193.004" fill="white"/>
<path d="M219.092 207.886C209.396 207.886 201.473 200.012 201.473 190.292V178.311C201.473 177.972 201.774 177.671 202.114 177.671C202.454 177.671 202.755 177.972 202.755 178.311V190.292C202.755 199.296 210.075 206.605 219.092 206.605C224.827 206.605 229.505 201.933 229.505 196.207V193.004C229.505 192.665 229.807 192.364 230.147 192.364C230.486 192.364 230.788 192.665 230.788 193.004V196.207C230.75 202.649 225.506 207.886 219.092 207.886Z" fill="#444444"/>
<path d="M242.936 248.159C246.479 248.159 249.35 245.291 249.35 241.754C249.35 238.217 246.479 235.35 242.936 235.35C239.394 235.35 236.522 238.217 236.522 241.754C236.522 245.291 239.394 248.159 242.936 248.159Z" fill="white"/>
<path d="M242.936 248.762C239.05 248.762 235.881 245.597 235.881 241.717C235.881 237.836 239.05 234.672 242.936 234.672C246.822 234.672 249.991 237.836 249.991 241.717C249.991 245.597 246.822 248.762 242.936 248.762ZM242.936 235.99C239.767 235.99 237.164 238.552 237.164 241.755C237.164 244.919 239.729 247.519 242.936 247.519C246.143 247.519 248.709 244.957 248.709 241.755C248.709 238.552 246.105 235.99 242.936 235.99Z" fill="#444444"/>
<path d="M238.636 237.649C238.447 237.649 238.296 237.573 238.145 237.423L227.166 225.518C226.94 225.254 226.94 224.839 227.204 224.613C227.468 224.387 227.883 224.387 228.11 224.651L239.089 236.556C239.315 236.82 239.315 237.234 239.051 237.46C238.975 237.573 238.825 237.649 238.636 237.649Z" fill="#444444"/>
<path d="M230.901 264.36C230.901 258.52 226.147 253.773 220.299 253.773C214.451 253.773 209.697 258.52 209.697 264.36H230.901Z" fill="#444444"/>
<path d="M230.901 265H209.735C209.396 265 209.094 264.699 209.094 264.36C209.094 258.181 214.149 253.133 220.337 253.133C226.524 253.133 231.58 258.181 231.58 264.36C231.542 264.736 231.278 265 230.901 265ZM210.377 263.719H230.222C229.882 258.558 225.581 254.414 220.299 254.414C215.017 254.414 210.716 258.558 210.377 263.719Z" fill="#1F75BA"/>
<path d="M228.449 258.256C228.298 258.256 228.109 258.181 227.996 258.068C227.732 257.804 227.732 257.428 227.996 257.164L238.749 246.464C239.013 246.201 239.39 246.201 239.654 246.464C239.918 246.728 239.918 247.105 239.654 247.369L228.901 258.068C228.788 258.181 228.6 258.256 228.449 258.256Z" fill="#444444"/>
<path d="M244.069 143.425C244.295 143.161 244.71 143.123 244.974 143.387C256.444 154.049 257.349 171.982 246.898 183.736C236.41 195.49 221.771 196.696 209.849 186.562C209.547 186.298 244.069 143.425 244.069 143.425Z" fill="#1F75BA"/>
<path d="M227.128 194.059C220.941 194.059 214.866 191.648 209.433 187.014C208.943 186.6 209.283 186.148 209.66 185.62C209.886 185.281 210.263 184.829 210.716 184.226C211.584 183.096 212.867 181.438 214.565 179.291C217.394 175.712 221.356 170.701 226.336 164.485C234.825 153.861 243.465 143.124 243.578 143.011C243.578 143.011 243.578 143.011 243.616 142.973C243.842 142.709 244.182 142.559 244.521 142.559C244.861 142.559 245.2 142.672 245.464 142.898C251.161 148.172 254.482 155.368 254.859 163.091C255.236 170.852 252.595 178.311 247.426 184.151C242.144 190.066 235.806 193.456 229.015 193.984C228.336 194.059 227.732 194.059 227.128 194.059ZM210.679 186.411C222.261 195.943 236.221 194.737 246.408 183.322C256.557 171.944 255.727 154.238 244.559 143.877C231.882 159.587 213.169 182.945 210.679 186.411Z" fill="#1F75BA"/>
<path d="M299.379 73.5767C301.152 72.5218 301.906 70.2237 300.888 68.4153C299.831 66.5693 297.492 66.0042 295.681 67.0967L300.435 64.2335C302.208 63.1786 302.963 60.8805 301.944 59.0721C300.888 57.2261 298.549 56.661 296.738 57.7535L297.945 57C299.718 55.9452 300.473 53.647 299.454 51.8387C298.398 49.9926 296.058 49.4275 294.247 50.5201L290.097 53.0442C291.908 51.9517 292.474 49.5782 291.342 47.8075C290.248 46.0745 287.871 45.6601 286.098 46.7527L264.668 59.6749L270.818 50.5578C271.987 48.8624 271.686 46.4513 269.988 45.2834C268.252 44.0778 265.875 44.5299 264.668 46.2629C264.668 46.2629 255.802 55.9452 252.255 64.9493C252.255 64.9493 251.161 68.679 251.123 70.6381C251.01 73.9911 251.84 77.4194 253.727 80.5087C258.858 88.91 270.101 91.3212 278.59 86.1598L299.379 73.5767Z" fill="white"/>
<path d="M268.856 89.5509C262.593 89.5509 256.518 86.4616 253.085 80.8859C251.199 77.7966 250.255 74.2552 250.406 70.6385C250.482 68.6418 251.538 64.9497 251.576 64.799C251.576 64.7613 251.576 64.7613 251.614 64.7613C255.085 55.9079 263.423 46.6401 264.102 45.9243C264.781 44.9447 265.8 44.3043 266.969 44.0782C268.139 43.8522 269.308 44.1159 270.289 44.794C272.214 46.1503 272.666 48.9005 271.27 50.9726L266.743 57.6786L285.683 46.2633C287.796 44.9824 290.55 45.5475 291.833 47.5442C292.474 48.5238 292.663 49.7293 292.398 50.8972C292.398 50.9349 292.398 50.9349 292.398 50.9726L293.908 50.0684C294.926 49.4279 296.134 49.2773 297.303 49.5786C298.473 49.88 299.416 50.5959 299.982 51.6507C300.925 53.2707 300.623 55.3051 299.378 56.7367C299.529 56.7744 299.642 56.7744 299.793 56.8121C300.963 57.1135 301.906 57.8293 302.472 58.8842C303.642 60.9186 302.849 63.6311 300.774 64.912L298.699 66.1553C298.737 66.1553 298.737 66.1553 298.775 66.1553C299.944 66.4567 300.887 67.1725 301.453 68.2274C302.623 70.2618 301.831 72.9743 299.756 74.2552L278.816 86.7254C275.685 88.6467 272.251 89.5509 268.856 89.5509ZM252.783 65.1757C252.67 65.5148 251.727 68.9055 251.651 70.6762C251.538 74.0292 252.406 77.3068 254.141 80.2077C259.046 88.2323 269.837 90.6811 278.137 85.6705L299.001 73.0873C300.51 72.1831 301.076 70.2618 300.284 68.7925C299.869 68.0767 299.19 67.5492 298.397 67.3232C297.567 67.0971 296.7 67.2478 295.983 67.6622C295.681 67.8506 295.304 67.7376 295.115 67.4362C294.926 67.1348 295.039 66.7581 295.341 66.5697L300.095 63.7065C301.604 62.8023 302.17 60.8809 301.378 59.4116C300.963 58.6958 300.284 58.1684 299.491 57.9423C298.661 57.7163 297.794 57.867 297.077 58.2814C296.775 58.4697 296.398 58.3567 296.209 58.0553C296.02 57.7539 296.134 57.3772 296.435 57.1888L297.643 56.4353C299.152 55.5312 299.718 53.6098 298.926 52.1405C298.511 51.4247 297.831 50.8972 297.039 50.6712C296.209 50.4452 295.341 50.5958 294.624 51.0103L290.474 53.5344C290.172 53.7228 289.795 53.6098 289.607 53.3084C289.418 53.007 289.531 52.6303 289.833 52.4419C290.55 51.9898 291.078 51.3117 291.267 50.4828C291.455 49.654 291.304 48.8252 290.852 48.1094C289.946 46.7154 287.984 46.301 286.475 47.2429L265.045 60.1651C264.781 60.3158 264.441 60.2781 264.253 60.0521C264.064 59.826 264.026 59.487 264.177 59.2609L270.327 50.1438C271.308 48.6745 271.006 46.7154 269.648 45.7359C268.969 45.2461 268.139 45.0577 267.271 45.2084C266.441 45.3591 265.686 45.8489 265.234 46.527C265.234 46.5647 265.196 46.5647 265.158 46.6024C264.97 46.8284 256.254 56.3977 252.783 65.1757Z" fill="#444444"/>
<path d="M277.42 61.2956C277.194 61.2956 277.005 61.1826 276.854 60.9942C276.665 60.6928 276.778 60.3161 277.08 60.1277L290.172 52.2161C290.474 52.0277 290.851 52.1408 291.04 52.4422C291.229 52.7436 291.115 53.1203 290.814 53.3087L277.722 61.2202C277.646 61.2579 277.533 61.2956 277.42 61.2956Z" fill="#444444"/>
<path d="M281.307 67.6998C281.08 67.6998 280.892 67.5867 280.741 67.3984C280.552 67.097 280.665 66.7202 280.967 66.5319L296.775 57.0003C297.077 56.8119 297.455 56.9249 297.643 57.2263C297.832 57.5277 297.719 57.9045 297.417 58.0928L281.608 67.6244C281.533 67.6621 281.42 67.6998 281.307 67.6998Z" fill="#444444"/>
<path d="M285.154 74.0671C284.928 74.0671 284.739 73.954 284.588 73.7657C284.4 73.4643 284.513 73.0875 284.815 72.8991L300.321 63.556C300.623 63.3676 301 63.4806 301.189 63.782C301.378 64.0834 301.264 64.4601 300.963 64.6485L285.456 73.9917C285.381 74.067 285.267 74.0671 285.154 74.0671Z" fill="#444444"/>
<path d="M210.753 117.619C210.526 117.619 210.3 117.506 210.187 117.28C210.036 116.978 210.149 116.564 210.451 116.413L237.125 102.285C237.427 102.135 237.842 102.248 237.993 102.549C238.144 102.85 238.031 103.265 237.729 103.415L211.054 117.543C210.941 117.619 210.866 117.619 210.753 117.619Z" fill="#444444"/>
<path d="M206.754 93.3944C206.49 93.3944 206.264 93.2437 206.15 92.98C206.037 92.6409 206.188 92.2641 206.528 92.1511L229.203 83.373C229.542 83.26 229.92 83.4107 230.033 83.7498C230.146 84.0889 229.995 84.4656 229.655 84.5786L206.98 93.3567C206.943 93.3944 206.83 93.3944 206.754 93.3944Z" fill="#444444"/>
<path d="M193.436 121.8L197.284 120.218C197.661 120.067 197.812 119.653 197.661 119.276L196.567 116.677C197.36 116.074 198.076 115.358 198.68 114.567L201.057 115.546C201.434 115.697 201.849 115.509 202 115.17L203.585 111.327C203.736 110.95 203.547 110.536 203.208 110.385L200.831 109.405C200.982 108.426 200.982 107.409 200.831 106.392L202.528 105.676C202.906 105.525 203.057 105.111 202.906 104.734L201.321 100.891C201.17 100.514 200.755 100.364 200.378 100.514L198.68 101.23C198.076 100.439 197.36 99.7232 196.567 99.1204L197.397 97.1237C197.548 96.7469 197.36 96.3325 197.02 96.1818L193.172 94.5995C192.794 94.4488 192.379 94.6372 192.228 94.9763L191.398 96.973C190.417 96.8223 189.437 96.8223 188.418 96.973L187.437 94.5995C187.286 94.2228 186.871 94.0721 186.494 94.2228L182.645 95.8051C182.268 95.9558 182.117 96.3702 182.268 96.7469L183.249 99.1204C182.419 99.7232 181.702 100.477 181.098 101.268L178.571 100.251C178.193 100.1 177.778 100.288 177.627 100.627L176.043 104.47C175.892 104.847 176.081 105.261 176.42 105.412L178.948 106.429C178.797 107.409 178.797 108.388 178.948 109.405L176.496 110.423C176.118 110.573 175.967 110.988 176.118 111.365L177.703 115.207C177.854 115.584 178.269 115.735 178.646 115.584L181.061 114.567C181.664 115.396 182.419 116.111 183.211 116.714L182.042 119.577C181.891 119.954 182.079 120.369 182.419 120.519L186.267 122.102C186.645 122.252 187.06 122.064 187.211 121.725L188.38 118.862C189.361 119.012 190.38 119.012 191.398 118.862L192.493 121.461C192.681 121.8 193.096 121.951 193.436 121.8ZM185.098 110.084C184.041 107.522 185.249 104.546 187.814 103.491C190.38 102.436 193.36 103.641 194.417 106.203C195.473 108.765 194.266 111.741 191.7 112.796C189.135 113.889 186.154 112.645 185.098 110.084Z" fill="white"/>
<path d="M186.569 122.78C186.38 122.78 186.229 122.742 186.041 122.667L182.192 121.085C181.853 120.934 181.589 120.67 181.475 120.369C181.324 120.03 181.324 119.653 181.475 119.352L182.456 116.94C181.89 116.488 181.362 115.961 180.872 115.358L178.91 116.187C178.231 116.488 177.438 116.149 177.137 115.471L175.552 111.628C175.25 110.95 175.59 110.159 176.269 109.858L178.268 109.029C178.193 108.313 178.193 107.597 178.268 106.881L176.193 106.015C175.854 105.864 175.59 105.638 175.476 105.299C175.326 104.96 175.326 104.583 175.476 104.282L177.061 100.439C177.212 100.1 177.438 99.8364 177.778 99.7233C178.117 99.5726 178.495 99.5726 178.797 99.7233L180.872 100.59C181.324 100.025 181.853 99.4973 182.456 99.0075L181.664 97.0861C181.362 96.408 181.702 95.6168 182.381 95.3155L186.229 93.7331C186.569 93.5824 186.946 93.5824 187.248 93.7331C187.587 93.8838 187.852 94.1476 187.965 94.4489L188.757 96.3703C189.474 96.295 190.191 96.295 190.908 96.3703L191.549 94.8257C191.7 94.4866 191.926 94.2229 192.266 94.1099C192.605 93.9969 192.983 93.9592 193.284 94.1099L197.133 95.6922C197.472 95.8429 197.736 96.1066 197.85 96.408C198.001 96.7471 198.001 97.1238 197.85 97.4252L197.208 98.9699C197.774 99.4219 198.265 99.9494 198.755 100.477L200 99.9494C200.679 99.648 201.472 99.9871 201.773 100.665L203.358 104.508C203.66 105.186 203.32 105.977 202.641 106.279L201.396 106.806C201.472 107.56 201.472 108.275 201.396 109.029L203.32 109.82C203.999 110.121 204.339 110.875 204.037 111.591L202.453 115.433C202.151 116.112 201.396 116.451 200.679 116.149L198.755 115.358C198.302 115.923 197.774 116.413 197.246 116.903L198.151 119.088C198.302 119.427 198.302 119.804 198.151 120.105C198.001 120.444 197.774 120.708 197.435 120.821L193.586 122.403C193.247 122.554 192.869 122.554 192.568 122.403C192.228 122.252 191.964 121.989 191.851 121.687L190.945 119.54C190.191 119.615 189.474 119.615 188.719 119.54L187.738 121.951C187.587 122.29 187.361 122.554 187.021 122.667C186.908 122.742 186.72 122.78 186.569 122.78ZM181.098 113.926C181.287 113.926 181.475 114.002 181.626 114.19C182.192 114.944 182.871 115.622 183.664 116.225C183.89 116.413 183.965 116.714 183.852 116.978L182.683 119.841C182.683 119.879 182.683 119.917 182.72 119.917L186.569 121.499C186.606 121.499 186.644 121.499 186.644 121.461L187.814 118.598C187.927 118.334 188.191 118.184 188.493 118.221C189.436 118.334 190.379 118.334 191.36 118.221C191.662 118.184 191.926 118.334 192.039 118.598L193.134 121.198C193.134 121.235 193.209 121.235 193.209 121.235L197.057 119.653C197.095 119.653 197.095 119.615 197.095 119.578L196.001 116.978C195.888 116.714 195.963 116.413 196.19 116.225C196.944 115.659 197.586 114.981 198.151 114.228C198.34 114.002 198.642 113.926 198.906 114.04L201.283 115.019C201.321 115.019 201.358 115.019 201.358 114.981L202.943 111.139C202.943 111.101 202.943 111.063 202.905 111.063L200.528 110.084C200.264 109.971 200.113 109.707 200.151 109.406C200.264 108.464 200.264 107.522 200.151 106.542C200.113 106.241 200.264 105.977 200.528 105.864L202.226 105.148C202.264 105.148 202.264 105.111 202.264 105.073L200.679 101.23C200.679 101.193 200.642 101.193 200.604 101.193L198.906 101.908C198.642 102.021 198.34 101.946 198.151 101.72C197.586 100.967 196.906 100.326 196.152 99.761C195.925 99.5726 195.85 99.2712 195.963 99.0075L196.793 97.0108C196.793 96.9731 196.793 96.9354 196.756 96.9354L192.907 95.3531C192.869 95.3531 192.832 95.3531 192.832 95.3908L192.002 97.3875C191.888 97.6513 191.624 97.8019 191.323 97.7643C190.379 97.6513 189.474 97.6513 188.531 97.7643C188.229 97.8019 187.965 97.6513 187.852 97.3875L186.871 95.0141C186.871 94.9764 186.795 94.9764 186.795 94.9764L182.947 96.5587C182.909 96.5587 182.909 96.634 182.909 96.634L183.89 99.0075C184.003 99.2712 183.928 99.5726 183.701 99.761C182.947 100.326 182.268 101.004 181.664 101.795C181.475 102.021 181.174 102.097 180.909 101.984L178.382 100.967C178.344 100.967 178.306 100.967 178.306 101.004L176.722 104.847C176.722 104.885 176.722 104.922 176.759 104.922L179.287 105.94C179.551 106.053 179.702 106.316 179.664 106.618C179.551 107.56 179.551 108.464 179.664 109.406C179.702 109.707 179.551 109.971 179.287 110.084L176.835 111.101C176.797 111.101 176.797 111.139 176.797 111.176L178.382 115.019C178.382 115.057 178.419 115.057 178.457 115.057L180.872 114.04C180.947 113.964 181.023 113.926 181.098 113.926ZM189.776 113.851C187.55 113.851 185.437 112.533 184.494 110.347C183.89 108.953 183.89 107.409 184.494 105.977C185.097 104.546 186.154 103.491 187.587 102.888C190.493 101.682 193.85 103.039 195.058 105.94C195.661 107.334 195.661 108.878 195.058 110.31C194.492 111.704 193.398 112.796 191.964 113.399C191.247 113.7 190.493 113.851 189.776 113.851ZM189.738 103.717C189.172 103.717 188.606 103.83 188.04 104.056C186.946 104.508 186.116 105.374 185.663 106.429C185.21 107.484 185.21 108.727 185.663 109.82C186.606 112.08 189.172 113.135 191.436 112.193C192.53 111.741 193.36 110.875 193.813 109.82C194.265 108.765 194.265 107.522 193.813 106.429C193.134 104.772 191.473 103.717 189.738 103.717Z" fill="#444444"/>
<path d="M167.478 41.5549L173.25 39.7089C173.778 39.5205 174.08 38.9554 173.929 38.4279L172.684 34.4722C173.929 33.681 175.023 32.7391 176.004 31.6843L179.362 33.4173C179.853 33.681 180.494 33.4926 180.758 32.9652L183.512 27.5778C183.776 27.088 183.588 26.4476 183.06 26.1838L179.702 24.4508C180.041 23.0192 180.154 21.5499 180.079 20.043L182.607 19.2141C183.135 19.0258 183.437 18.4606 183.286 17.9332L181.437 12.1691C181.249 11.6416 180.683 11.3402 180.154 11.4909L177.589 12.3198C176.797 11.0765 175.853 9.98396 174.797 9.00443L176.231 6.21654C176.495 5.72678 176.306 5.08632 175.778 4.8226L170.383 2.07238C169.892 1.80867 169.251 1.99704 168.987 2.52447L167.553 5.31236C166.157 5.01097 164.686 4.86027 163.214 4.93562L162.082 1.35658C161.894 0.829137 161.328 0.527744 160.8 0.678441L155.027 2.52447C154.499 2.71284 154.197 3.27796 154.348 3.8054L155.48 7.38444C154.197 8.1756 153.065 9.15512 152.084 10.2477L148.575 8.43932C148.085 8.1756 147.444 8.36397 147.179 8.89141L144.425 14.2788C144.161 14.7686 144.35 15.409 144.878 15.6728L148.387 17.4811C148.085 18.8751 147.934 20.3443 148.009 21.8136L144.35 22.9815C143.822 23.1699 143.52 23.735 143.671 24.2625L145.519 30.0266C145.708 30.554 146.274 30.8554 146.802 30.7047L150.462 29.5368C151.254 30.8178 152.235 31.948 153.329 32.9275L151.216 36.921C150.952 37.4107 151.141 38.0512 151.669 38.3149L157.064 41.0651C157.555 41.3289 158.196 41.1405 158.46 40.613L160.535 36.5819C161.969 36.921 163.441 37.034 164.95 36.9586L166.195 40.8768C166.346 41.4419 166.949 41.7056 167.478 41.5549ZM156.8 23.4713C155.555 19.5909 157.706 15.4467 161.592 14.2035C165.478 12.9602 169.628 15.1076 170.873 18.9881C172.118 22.8685 169.968 27.0127 166.082 28.2559C162.196 29.4615 158.008 27.3517 156.8 23.4713Z" fill="#444444"/>
<path d="M167.176 42.2325C166.912 42.2325 166.648 42.1572 166.422 42.0442C166.007 41.8558 165.743 41.4791 165.592 41.0646L164.497 37.5986C163.29 37.6363 162.083 37.5233 160.876 37.2972L159.027 40.8763C158.838 41.2907 158.461 41.5544 158.046 41.7051C157.631 41.8558 157.178 41.8181 156.763 41.5921L151.368 38.8419C150.953 38.6535 150.689 38.2768 150.538 37.8623C150.387 37.4479 150.425 36.9958 150.651 36.5814L152.5 33.0024C151.632 32.1735 150.84 31.2317 150.161 30.2522L146.991 31.2694C146.124 31.5331 145.18 31.081 144.879 30.1768L143.03 24.4127C142.766 23.5462 143.218 22.6043 144.124 22.3029L147.331 21.2857C147.293 20.1178 147.406 18.9122 147.633 17.782L144.539 16.1997C143.709 15.7853 143.407 14.7681 143.822 13.9393L146.614 8.55186C146.803 8.13744 147.18 7.87372 147.595 7.72303C148.01 7.57233 148.463 7.61 148.878 7.83605L151.972 9.41836C152.802 8.55186 153.745 7.7607 154.726 7.08256L153.745 3.99328C153.594 3.57887 153.632 3.12678 153.858 2.71236C154.047 2.29795 154.424 2.03423 154.839 1.88353L160.611 0.0374989C161.479 -0.22622 162.422 0.22587 162.724 1.13005L163.743 4.257C164.912 4.21933 166.12 4.33235 167.252 4.5584L168.459 2.18493C168.648 1.77051 169.025 1.50679 169.44 1.35609C169.855 1.2054 170.308 1.24307 170.723 1.46912L176.118 4.257C176.533 4.44537 176.797 4.82212 176.948 5.23653C177.099 5.65095 177.061 6.10304 176.835 6.51745L175.627 8.89092C176.495 9.68208 177.25 10.5863 177.891 11.5658L180.004 10.8877C180.419 10.737 180.872 10.7746 181.287 11.0007C181.702 11.189 181.966 11.5658 182.117 11.9802L183.966 17.7444C184.116 18.1588 184.079 18.6109 183.852 19.0253C183.664 19.4397 183.286 19.7034 182.871 19.8541L180.796 20.5322C180.834 21.7378 180.721 22.9434 180.494 24.149L183.4 25.6559C184.23 26.0703 184.531 27.0875 184.116 27.9164L181.325 33.3038C181.136 33.7182 180.759 33.9819 180.344 34.1326C179.929 34.2833 179.476 34.2456 179.061 34.0196L176.156 32.5126C175.363 33.3791 174.458 34.1326 173.477 34.7731L174.609 38.2391C174.873 39.1056 174.42 40.0474 173.515 40.3488L167.742 42.1949C167.516 42.2325 167.327 42.2325 167.176 42.2325ZM164.913 36.3177C165.177 36.3177 165.441 36.5061 165.516 36.7698L166.761 40.6879C166.799 40.8009 166.874 40.8763 166.95 40.914C167.025 40.9516 167.138 40.9893 167.252 40.9516L173.024 39.1056C173.213 39.0302 173.326 38.8042 173.288 38.6158L172.043 34.66C171.968 34.3963 172.081 34.0949 172.307 33.9066C173.477 33.1531 174.571 32.2489 175.477 31.2317C175.665 31.0057 176.005 30.968 176.231 31.081L179.589 32.814C179.664 32.8517 179.778 32.8894 179.891 32.8517C180.004 32.814 180.079 32.7387 180.117 32.6633L182.909 27.2759C183.022 27.0875 182.947 26.8615 182.758 26.7485L179.4 25.0155C179.136 24.8648 178.985 24.601 179.061 24.2997C179.363 22.9057 179.476 21.5118 179.4 20.0801C179.4 19.7788 179.551 19.515 179.853 19.4397L182.381 18.6109C182.494 18.5732 182.57 18.4978 182.607 18.4225C182.645 18.3471 182.683 18.2341 182.645 18.1211L180.796 12.3569C180.759 12.2439 180.683 12.1686 180.608 12.1309C180.532 12.0932 180.419 12.0932 180.306 12.0932L177.74 12.9221C177.476 12.9974 177.174 12.8844 176.986 12.6583C176.231 11.4904 175.326 10.3979 174.307 9.49371C174.081 9.30534 174.043 8.96627 174.156 8.74023L175.59 5.95234C175.627 5.87699 175.665 5.76397 175.627 5.65095C175.59 5.53792 175.514 5.46258 175.439 5.4249L170.044 2.63702C169.968 2.59934 169.855 2.56167 169.742 2.59934C169.629 2.63702 169.553 2.71236 169.515 2.78771L168.082 5.5756C167.931 5.83932 167.667 5.99001 167.365 5.91467C166.007 5.61327 164.611 5.50025 163.215 5.5756C162.913 5.5756 162.649 5.4249 162.573 5.12351L161.441 1.54446C161.366 1.35609 161.14 1.24307 160.951 1.28075L155.178 3.12678C155.065 3.16445 154.99 3.2398 154.952 3.31515C154.914 3.3905 154.877 3.50352 154.914 3.61654L156.046 7.19559C156.122 7.45931 156.008 7.7607 155.782 7.94907C154.575 8.70255 153.481 9.64441 152.537 10.6993C152.349 10.9253 152.009 10.963 151.783 10.85L148.274 9.04162C148.199 9.00395 148.085 8.96627 147.972 9.00395C147.859 9.04162 147.784 9.11697 147.746 9.19232L144.954 14.5797C144.841 14.7681 144.916 14.9941 145.105 15.1072L148.614 16.9155C148.878 17.0662 149.029 17.3299 148.953 17.6313C148.651 18.9876 148.538 20.3815 148.614 21.7755C148.614 22.0769 148.463 22.3406 148.161 22.4159L144.501 23.5838C144.313 23.6592 144.199 23.8852 144.237 24.0736L146.086 29.8378C146.161 30.0261 146.388 30.1768 146.576 30.1015L150.236 28.9336C150.5 28.8582 150.802 28.9712 150.991 29.1973C151.745 30.4029 152.688 31.4954 153.745 32.4373C153.971 32.6256 154.009 32.9647 153.896 33.1908L151.821 37.2219C151.783 37.2972 151.745 37.4103 151.783 37.5233C151.821 37.6363 151.896 37.7116 151.972 37.7493L157.367 40.5372C157.442 40.5749 157.555 40.6126 157.669 40.5749C157.782 40.5372 157.857 40.4619 157.895 40.3865L159.97 36.3554C160.121 36.0917 160.385 35.941 160.687 36.0163C162.045 36.28 163.479 36.3931 164.913 36.3177ZM163.818 29.235C162.573 29.235 161.291 28.9336 160.159 28.3308C158.272 27.3513 156.839 25.6936 156.197 23.6592C154.839 19.4397 157.178 14.9188 161.404 13.6002C165.629 12.2439 170.157 14.5797 171.477 18.7992C172.119 20.8336 171.968 23.0187 170.987 24.9024C170.006 26.7861 168.346 28.2178 166.308 28.8582C165.441 29.1219 164.611 29.235 163.818 29.235ZM163.818 14.5044C163.139 14.5044 162.46 14.6174 161.781 14.8434C158.234 15.9737 156.273 19.7788 157.404 23.3201C157.97 25.0155 159.14 26.4471 160.725 27.2382C162.309 28.0671 164.158 28.2178 165.856 27.6527C167.554 27.0875 168.987 25.9196 169.78 24.3373C170.61 22.755 170.76 20.909 170.195 19.2136C169.327 16.3127 166.648 14.5044 163.818 14.5044Z" fill="#1F75BA"/>
<path d="M259.158 96.0687L261.686 93.3561C261.913 93.0924 261.913 92.7157 261.649 92.452L259.8 90.719C260.215 89.9278 260.554 89.099 260.743 88.2325L263.044 88.1571C263.384 88.1571 263.686 87.8557 263.648 87.5167L263.535 83.7869C263.535 83.4478 263.233 83.1465 262.894 83.1841L260.592 83.2595C260.328 82.393 259.951 81.5641 259.46 80.773L260.592 79.5674C260.818 79.3037 260.818 78.9269 260.554 78.6632L257.838 76.1391C257.574 75.913 257.197 75.913 256.932 76.1767L255.801 77.3823C255.008 76.9679 254.178 76.6288 253.31 76.4404L253.235 74.5191C253.235 74.18 252.933 73.8786 252.594 73.9163L248.858 74.0293C248.519 74.0293 248.217 74.3307 248.255 74.6698L248.33 76.5911C247.5 76.8549 246.67 77.1939 245.916 77.6837L244.218 76.1014C243.954 75.8753 243.576 75.8753 243.312 76.1391L240.785 78.8516C240.558 79.1153 240.558 79.4921 240.822 79.7558L242.52 81.3381C242.067 82.1669 241.765 82.9958 241.577 83.8999L239.124 83.9753C238.785 83.9753 238.483 84.2767 238.521 84.6157L238.634 88.3455C238.634 88.6845 238.936 88.9859 239.275 88.9483L241.728 88.8729C241.992 89.7017 242.331 90.5306 242.822 91.2841L241.2 93.0171C240.973 93.2808 240.973 93.6575 241.237 93.9213L243.954 96.4454C244.218 96.6715 244.595 96.6715 244.859 96.4077L246.482 94.6747C247.312 95.1268 248.142 95.4282 249.047 95.6166L249.16 98.4045C249.16 98.7436 249.462 99.0449 249.802 99.0073L253.537 98.8942C253.876 98.8942 254.178 98.5928 254.14 98.2538L254.027 95.4659C254.895 95.2022 255.725 94.8254 256.517 94.3357L258.366 96.0687C258.517 96.3324 258.932 96.3324 259.158 96.0687ZM247.991 89.5887C246.142 87.8934 246.067 85.0302 247.764 83.1841C249.462 81.3381 252.33 81.2627 254.178 82.9581C256.027 84.6534 256.102 87.5166 254.405 89.3627C252.707 91.2087 249.802 91.2841 247.991 89.5887Z" fill="#1F75BA"/>
<path d="M249.651 99.7235C249.312 99.7235 249.01 99.6104 248.783 99.3844C248.519 99.1583 248.406 98.8193 248.368 98.4802L248.293 96.1821C247.689 96.0314 247.086 95.8053 246.52 95.5039L245.237 96.8602C245.011 97.1239 244.671 97.237 244.331 97.2746C243.992 97.2746 243.652 97.1616 243.426 96.9356L240.709 94.4114C240.445 94.1854 240.332 93.8463 240.294 93.5072C240.294 93.1681 240.408 92.8291 240.634 92.603L241.917 91.2091C241.615 90.6817 241.351 90.1165 241.162 89.5138L239.2 89.5891C238.861 89.5891 238.521 89.4761 238.295 89.25C238.031 89.024 237.918 88.6849 237.88 88.3459L237.767 84.6161C237.767 84.277 237.88 83.938 238.106 83.7119C238.333 83.4859 238.672 83.3352 239.012 83.2975L240.974 83.2222C241.124 82.6194 241.351 82.0166 241.653 81.4515L240.332 80.2459C240.068 80.0199 239.955 79.6808 239.917 79.3417C239.917 79.0027 240.03 78.6636 240.257 78.4376L242.785 75.725C243.275 75.1976 244.067 75.1976 244.596 75.6497L245.954 76.8929C246.482 76.5915 247.048 76.3278 247.652 76.1394L247.614 74.7078C247.576 73.992 248.142 73.4269 248.859 73.3892L252.594 73.2762C253.273 73.2385 253.877 73.8036 253.915 74.5194L253.952 75.9887C254.556 76.1394 255.122 76.3655 255.688 76.6292L256.48 75.7627C256.706 75.499 257.046 75.3859 257.386 75.3483C257.725 75.3483 258.065 75.4613 258.291 75.6873L261.008 78.2115C261.536 78.7013 261.536 79.4924 261.083 80.0199L260.291 80.8487C260.593 81.4138 260.857 81.9789 261.083 82.5817L262.932 82.5064C263.271 82.5064 263.611 82.6194 263.837 82.8454C264.101 83.0715 264.214 83.4105 264.252 83.7496L264.365 87.4793C264.365 87.8184 264.252 88.1575 264.026 88.3835C263.799 88.6473 263.46 88.7603 263.12 88.7979L261.272 88.8733C261.121 89.4761 260.894 90.0412 260.63 90.6063L262.139 92.0002C262.404 92.2263 262.517 92.5654 262.554 92.9044C262.554 93.2435 262.441 93.5826 262.215 93.8086L259.687 96.5212C259.197 97.0486 258.404 97.0486 257.876 96.5965L256.367 95.2025C255.801 95.5039 255.235 95.7677 254.631 95.9937L254.707 98.2918C254.745 99.0076 254.179 99.5727 253.462 99.6104L249.727 99.7235C249.689 99.7235 249.689 99.7235 249.651 99.7235ZM246.406 94.0723C246.52 94.0723 246.633 94.11 246.708 94.1477C247.463 94.5621 248.255 94.8635 249.085 95.0519C249.387 95.1272 249.576 95.3532 249.576 95.6546L249.689 98.4425L253.386 98.2918L253.273 95.5039C253.273 95.2025 253.462 94.9388 253.726 94.8635C254.556 94.6374 255.31 94.2607 256.027 93.8086C256.291 93.6579 256.593 93.6956 256.82 93.884L258.668 95.617L261.196 92.9044L259.347 91.1714C259.121 90.983 259.083 90.644 259.234 90.4179C259.649 89.6644 259.913 88.911 260.102 88.0821C260.178 87.7807 260.404 87.5924 260.706 87.5924L263.007 87.517L262.856 83.825L260.555 83.9003C260.253 83.938 259.989 83.7119 259.913 83.4482C259.687 82.6194 259.31 81.8659 258.857 81.1501C258.706 80.8864 258.744 80.585 258.932 80.3589L260.064 79.1534L257.348 76.6292L256.216 77.8348C256.027 78.0608 255.688 78.0985 255.461 77.9478C254.707 77.5334 253.952 77.2697 253.122 77.0813C252.82 77.0059 252.632 76.7799 252.632 76.4785L252.556 74.5571L248.859 74.7078L248.934 76.6292C248.934 76.9306 248.746 77.1943 248.482 77.2697C247.689 77.4957 246.935 77.8348 246.218 78.2869C245.954 78.4376 245.652 78.3999 245.426 78.2115L243.728 76.6292L241.2 79.3417L242.898 80.8864C243.124 81.0747 243.162 81.4138 243.011 81.6775C242.596 82.431 242.294 83.2222 242.105 84.051C242.03 84.3524 241.804 84.5408 241.502 84.5408L239.049 84.6161L239.2 88.3082L241.615 88.2328C241.917 88.2328 242.181 88.4212 242.256 88.6849C242.483 89.4761 242.822 90.2296 243.275 90.9454C243.426 91.2091 243.388 91.5105 243.2 91.7365L241.577 93.4695L244.294 95.9937L245.878 94.2607C246.029 94.1477 246.218 94.0723 246.406 94.0723ZM251.085 91.4351C249.802 91.4351 248.557 90.983 247.538 90.0412C245.463 88.0821 245.35 84.8045 247.274 82.7324C249.236 80.6603 252.519 80.5473 254.594 82.4687C255.612 83.4105 256.178 84.6915 256.216 86.0854C256.254 87.4793 255.763 88.7979 254.82 89.7775C253.839 90.87 252.443 91.4351 251.085 91.4351ZM248.406 89.0993C249.991 90.5686 252.443 90.4933 253.915 88.911C254.631 88.1575 255.009 87.178 254.971 86.1231C254.933 85.0682 254.48 84.1263 253.726 83.4105C252.141 81.9412 249.689 82.0166 248.217 83.5989C246.784 85.1812 246.859 87.63 248.406 89.0993Z" fill="#1F75BA"/>
<path d="M213.47 103.227C213.206 103.227 212.979 103.076 212.866 102.85C212.715 102.511 212.866 102.134 213.206 102.021L228.561 95.202C228.901 95.0513 229.278 95.202 229.391 95.541C229.542 95.8801 229.391 96.2568 229.052 96.3699L213.696 103.189C213.658 103.227 213.545 103.227 213.47 103.227Z" fill="#444444"/>
<path d="M180.721 87.4411C180.457 87.4411 180.193 87.2527 180.118 86.989L170.044 50.9348C169.931 50.5957 170.157 50.2567 170.497 50.1437C170.836 50.0306 171.176 50.2567 171.289 50.5957L181.363 86.6499C181.476 86.989 181.25 87.328 180.91 87.4411C180.835 87.4411 180.797 87.4411 180.721 87.4411Z" fill="#444444"/>
<path d="M194.831 87.2154C194.529 87.2154 194.265 86.9893 194.19 86.6879L185.248 38.5404C185.172 38.2013 185.399 37.8622 185.776 37.7869C186.116 37.7115 186.455 37.9376 186.531 38.3143L195.51 86.4619C195.586 86.801 195.359 87.14 194.982 87.2154C194.906 87.2154 194.869 87.2154 194.831 87.2154Z" fill="#444444"/>
<path d="M168.836 96.5589C168.572 96.5589 168.345 96.4082 168.232 96.1445L151.594 50.5964C151.481 50.2573 151.632 49.8806 151.971 49.7676C152.311 49.6546 152.688 49.8052 152.801 50.1443L169.44 95.6924C169.553 96.0314 169.402 96.4082 169.062 96.5212C168.987 96.5589 168.911 96.5589 168.836 96.5589Z" fill="#444444"/>
</g>
<defs>
<clipPath id="clip0_4553_7311">
<rect width="303" height="265" fill="white"/>
</clipPath>
</defs>
</svg>
