<svg width="221" height="218" viewBox="0 0 221 218" fill="none" xmlns="http://www.w3.org/2000/svg">
<g clip-path="url(#clip0_4553_6290)">
<path d="M111.575 200.281C75.6729 200.281 46.4355 171.037 46.4355 135.127C46.4355 99.2161 75.6729 69.9717 111.575 69.9717C147.476 69.9717 176.714 99.2161 176.714 135.127C176.714 171.037 147.519 200.281 111.575 200.281Z" fill="white"/>
<path d="M111.575 200.152C147.479 200.152 176.585 171.039 176.585 135.126C176.585 99.2137 147.479 70.1006 111.575 70.1006C75.6705 70.1006 46.5645 99.2137 46.5645 135.126C46.5645 171.039 75.6705 200.152 111.575 200.152Z" fill="white"/>
<path d="M41.835 199.679C41.663 199.679 41.491 199.593 41.319 199.464C30.011 188.153 21.5408 174.864 16.1233 159.941C16.0803 159.769 16.0803 159.554 16.1663 159.382C16.2523 159.21 16.3813 159.081 16.5533 159.038C16.6393 158.995 16.7252 158.995 16.8112 158.995C17.1122 158.995 17.3702 159.167 17.4562 159.468C22.7877 174.176 31.1719 187.336 42.3509 198.475C42.6089 198.733 42.6089 199.206 42.3509 199.464C42.1789 199.636 42.007 199.679 41.835 199.679ZM15.1344 155.468C14.8334 155.468 14.5754 155.253 14.4465 154.952L14.3605 154.694C14.3175 154.522 14.3175 154.307 14.4035 154.178C14.4894 154.006 14.6184 153.877 14.8334 153.834C14.9194 153.834 14.9624 153.791 15.0484 153.791C15.3494 153.791 15.6503 154.006 15.7363 154.307L15.8223 154.565C15.9513 154.952 15.7363 155.339 15.3494 155.425C15.2634 155.468 15.1774 155.468 15.1344 155.468ZM13.6295 150.221C13.3286 150.221 13.0276 150.006 12.9416 149.705C10.7488 140.975 9.58789 131.987 9.58789 122.955C9.58789 116.203 10.2328 109.451 11.4797 102.828C11.5227 102.484 11.8237 102.269 12.1677 102.269C12.2107 102.269 12.2536 102.269 12.2966 102.269C12.4686 102.312 12.6406 102.398 12.7266 102.57C12.8126 102.742 12.8556 102.914 12.8556 103.086C11.6087 109.623 11.0068 116.289 11.0068 122.955C11.0068 131.858 12.1247 140.76 14.3175 149.361C14.3605 149.533 14.3175 149.748 14.2315 149.877C14.1455 150.049 13.9735 150.135 13.8015 150.178C13.7585 150.178 13.6725 150.221 13.6295 150.221ZM13.2856 98.5276C13.2426 98.5276 13.1566 98.5276 13.1136 98.5276C12.9416 98.4846 12.7696 98.3556 12.6836 98.2266C12.5976 98.0545 12.5546 97.8825 12.5976 97.7105L12.6406 97.4525C12.7266 97.1514 12.9846 96.8934 13.3286 96.8934C13.3715 96.8934 13.4575 96.8934 13.5005 96.8934C13.8875 96.9794 14.1025 97.3664 14.0165 97.7535L13.9735 98.0115C13.8875 98.3126 13.5865 98.5276 13.2856 98.5276ZM14.6614 93.2378C14.5754 93.2378 14.5324 93.2378 14.4465 93.1948C14.2745 93.1518 14.1025 93.0228 14.0165 92.8508C13.9305 92.6787 13.8875 92.5067 13.9735 92.3347C18.4451 77.0674 26.0984 63.2623 36.6324 51.3065C36.7614 51.1344 36.9764 51.0484 37.1484 51.0484C37.3204 51.0484 37.4924 51.0914 37.6213 51.2205C37.9223 51.4785 37.9223 51.9086 37.6643 52.2096C27.2163 63.9934 19.692 77.6265 15.3064 92.7217C15.2634 93.0228 15.0054 93.2378 14.6614 93.2378ZM40.7601 48.6401C40.5881 48.6401 40.4161 48.5541 40.2871 48.425C40.0291 48.167 39.9861 47.6939 40.2871 47.4359L40.4591 47.2639C40.5881 47.1348 40.7601 47.0488 40.975 47.0488C41.147 47.0488 41.319 47.1348 41.448 47.2639C41.577 47.3929 41.663 47.5649 41.663 47.7799C41.663 47.952 41.577 48.124 41.448 48.296L41.276 48.468C41.104 48.5971 40.9321 48.6401 40.7601 48.6401Z" fill="#444444"/>
<path d="M41.8349 199.593C41.7059 199.593 41.5339 199.55 41.4049 199.421C30.097 188.11 21.6267 174.821 16.2092 159.941C16.0802 159.64 16.2522 159.296 16.5532 159.21C16.8542 159.081 17.1981 159.253 17.2841 159.554C22.6156 174.305 30.9999 187.422 42.1789 198.604C42.3938 198.819 42.3938 199.206 42.1789 199.421C42.1359 199.507 41.9639 199.593 41.8349 199.593ZM15.1343 155.339C14.8763 155.339 14.6614 155.167 14.5754 154.909L14.4894 154.651C14.4034 154.35 14.5754 154.006 14.8763 153.92C15.1773 153.834 15.5213 154.006 15.6073 154.307L15.6933 154.565C15.7792 154.866 15.6073 155.21 15.3063 155.296C15.2203 155.339 15.1773 155.339 15.1343 155.339ZM13.6294 150.092C13.3715 150.092 13.1135 149.92 13.0705 149.662C10.8777 140.932 9.7168 131.944 9.7168 122.955C9.7168 116.203 10.3617 109.451 11.6086 102.871C11.6516 102.57 11.9526 102.355 12.2966 102.398C12.5975 102.441 12.8125 102.742 12.7695 103.086C11.5226 109.623 10.9207 116.332 10.9207 122.955C10.9207 131.858 12.0386 140.76 14.2314 149.404C14.3174 149.705 14.1024 150.049 13.8014 150.092C13.7154 150.092 13.6724 150.092 13.6294 150.092ZM13.2855 98.3985C13.2425 98.3985 13.1995 98.3985 13.1565 98.3985C12.8555 98.3125 12.6405 98.0114 12.7265 97.7104L12.7695 97.4523C12.8555 97.1513 13.1565 96.9363 13.4575 97.0223C13.7584 97.1083 13.9734 97.4093 13.8874 97.7104L13.8444 97.9684C13.7584 98.2265 13.5435 98.3985 13.2855 98.3985ZM14.6613 93.1087C14.6184 93.1087 14.5324 93.1087 14.4894 93.0657C14.1884 92.9797 14.0164 92.6356 14.1024 92.3346C18.574 77.0673 26.1843 63.3052 36.7614 51.3494C36.9763 51.0913 37.3203 51.0913 37.5783 51.3064C37.8363 51.5214 37.8363 51.8654 37.6213 52.1235C27.1732 63.9503 19.6489 77.5833 15.2203 92.6786C15.1773 92.9797 14.9193 93.1087 14.6613 93.1087ZM40.76 48.5109C40.631 48.5109 40.459 48.4679 40.373 48.3389C40.158 48.1239 40.158 47.7368 40.373 47.5218L40.545 47.3498C40.76 47.1347 41.147 47.1347 41.3619 47.3498C41.5769 47.5648 41.5769 47.9518 41.3619 48.1669L41.19 48.3389C41.061 48.4679 40.889 48.5109 40.76 48.5109Z" fill="#444444"/>
<path d="M10.3187 132.374C4.94417 132.374 0.601562 128.031 0.601562 122.655C0.601562 117.279 4.94417 112.936 10.3187 112.936C15.6502 112.936 20.0358 117.279 20.0358 122.655C20.0358 128.031 15.6502 132.374 10.3187 132.374Z" fill="white"/>
<path d="M10.3186 132.245C15.614 132.245 19.9067 127.952 19.9067 122.655C19.9067 117.358 15.614 113.064 10.3186 113.064C5.02322 113.064 0.730469 117.358 0.730469 122.655C0.730469 127.952 5.02322 132.245 10.3186 132.245Z" fill="white"/>
<path d="M10.3191 132.976C4.64358 132.976 0 128.331 0 122.655C0 116.978 4.64358 112.333 10.3191 112.333C15.9946 112.333 20.6381 116.978 20.6381 122.655C20.6381 128.331 15.9946 132.976 10.3191 132.976ZM10.3191 113.795C5.41751 113.795 1.46187 117.752 1.46187 122.655C1.46187 127.557 5.41751 131.514 10.3191 131.514C15.2206 131.514 19.1763 127.557 19.1763 122.655C19.1763 117.752 15.1776 113.795 10.3191 113.795Z" fill="#444444"/>
<path d="M10.319 132.847C4.68649 132.847 0.128906 128.288 0.128906 122.654C0.128906 117.021 4.68649 112.462 10.319 112.462C15.9515 112.462 20.5091 117.021 20.5091 122.654C20.5091 128.288 15.9515 132.847 10.319 132.847ZM10.319 113.666C5.37443 113.666 1.3328 117.709 1.3328 122.654C1.3328 127.6 5.37443 131.643 10.319 131.643C15.2635 131.643 19.3052 127.6 19.3052 122.654C19.3052 117.709 15.2635 113.666 10.319 113.666Z" fill="#444444"/>
<path d="M5.28809 122.87L6.44898 121.967L9.5447 125.923L14.5322 117.838L15.7361 118.612L9.67369 128.461L5.28809 122.87Z" fill="#444444"/>
<path d="M9.67358 128.245L5.45996 122.87L6.40588 122.138L9.54459 126.138L14.5751 118.01L15.607 118.655L9.67358 128.245Z" fill="#444444"/>
<path d="M84.4417 122.021L33.4053 122.26L33.4119 123.679L84.4483 123.44L84.4417 122.021Z" fill="#444444"/>
<path d="M84.3136 122.159L33.5352 122.379L33.5402 123.54L84.3186 123.32L84.3136 122.159Z" fill="#444444"/>
<path d="M36.0303 99.5165L37.0192 98.5273L46.1344 107.602L84.3149 107.258V108.677L45.5324 109.021L36.0303 99.5165Z" fill="#444444"/>
<path d="M45.5753 108.892L36.2021 99.5163L37.0191 98.6992L46.0483 107.731L84.1858 107.387V108.548L45.5753 108.892Z" fill="#444444"/>
<path d="M36.2454 102.356C38.145 102.356 39.685 100.815 39.685 98.9151C39.685 97.015 38.145 95.4746 36.2454 95.4746C34.3457 95.4746 32.8057 97.015 32.8057 98.9151C32.8057 100.815 34.3457 102.356 36.2454 102.356Z" fill="white"/>
<path d="M36.2453 102.227C38.0737 102.227 39.556 100.744 39.556 98.915C39.556 97.0861 38.0737 95.6035 36.2453 95.6035C34.4168 95.6035 32.9346 97.0861 32.9346 98.915C32.9346 100.744 34.4168 102.227 36.2453 102.227Z" fill="white"/>
<path d="M36.2457 102.957C34.0099 102.957 32.2041 101.151 32.2041 98.9147C32.2041 96.6783 34.0099 94.8721 36.2457 94.8721C38.4815 94.8721 40.2874 96.6783 40.2874 98.9147C40.2874 101.151 38.4815 102.957 36.2457 102.957ZM36.2457 96.2913C34.7839 96.2913 33.623 97.4525 33.623 98.9147C33.623 100.377 34.7839 101.538 36.2457 101.538C37.7076 101.538 38.8685 100.377 38.8685 98.9147C38.8685 97.4955 37.6646 96.2913 36.2457 96.2913Z" fill="#444444"/>
<path d="M36.2457 102.828C34.0959 102.828 32.333 101.065 32.333 98.9146C32.333 96.7642 34.0959 95.001 36.2457 95.001C38.3955 95.001 40.1583 96.7642 40.1583 98.9146C40.1583 101.065 38.3955 102.828 36.2457 102.828ZM36.2457 96.2052C34.7408 96.2052 33.4939 97.4524 33.4939 98.9576C33.4939 100.463 34.7408 101.71 36.2457 101.71C37.7505 101.71 38.9974 100.463 38.9974 98.9576C38.9974 97.4093 37.7505 96.2052 36.2457 96.2052Z" fill="#444444"/>
<path d="M38.3525 144.329L45.4039 137.276L84.1864 137.62V138.997L46.0058 138.696L39.3415 145.362L38.3525 144.329Z" fill="#444444"/>
<path d="M39.3413 145.189L38.5244 144.329L45.4468 137.405H45.7048L84.0573 137.749V138.911L45.9627 138.566L39.3413 145.189Z" fill="#444444"/>
<path d="M36.5895 151.254C34.3537 151.254 32.5479 149.448 32.5479 147.212C32.5479 144.975 34.3537 143.169 36.5895 143.169C38.8253 143.169 40.6311 144.975 40.6311 147.212C40.6311 149.448 38.7823 151.254 36.5895 151.254ZM36.5895 144.631C35.1276 144.631 33.9667 145.792 33.9667 147.255C33.9667 148.717 35.1276 149.878 36.5895 149.878C38.0514 149.878 39.2122 148.717 39.2122 147.255C39.2122 145.792 38.0084 144.631 36.5895 144.631Z" fill="#444444"/>
<path d="M36.5894 151.125C34.4396 151.125 32.6768 149.362 32.6768 147.211C32.6768 145.061 34.4396 143.298 36.5894 143.298C38.7392 143.298 40.502 145.061 40.502 147.211C40.502 149.405 38.7392 151.125 36.5894 151.125ZM36.5894 144.502C35.0845 144.502 33.8377 145.749 33.8377 147.254C33.8377 148.76 35.0845 150.007 36.5894 150.007C38.0943 150.007 39.3412 148.76 39.3412 147.254C39.3412 145.706 38.0943 144.502 36.5894 144.502Z" fill="#444444"/>
<path d="M30.2262 126.869C27.9904 126.869 26.1846 125.063 26.1846 122.827C26.1846 120.59 27.9904 118.784 30.2262 118.784C32.462 118.784 34.2678 120.59 34.2678 122.827C34.2678 125.063 32.462 126.869 30.2262 126.869ZM30.2262 120.246C28.7643 120.246 27.6034 121.408 27.6034 122.87C27.6034 124.332 28.7643 125.493 30.2262 125.493C31.6881 125.493 32.849 124.332 32.849 122.87C32.849 121.408 31.6881 120.246 30.2262 120.246Z" fill="#444444"/>
<path d="M30.2261 126.74C28.0763 126.74 26.3135 124.977 26.3135 122.827C26.3135 120.676 28.0763 118.913 30.2261 118.913C32.3759 118.913 34.1388 120.676 34.1388 122.827C34.1388 125.02 32.3759 126.74 30.2261 126.74ZM30.2261 120.117C28.7213 120.117 27.4744 121.364 27.4744 122.87C27.4744 124.375 28.7213 125.622 30.2261 125.622C31.731 125.622 32.9779 124.375 32.9779 122.87C32.9779 121.321 31.774 120.117 30.2261 120.117Z" fill="#444444"/>
<path d="M179.207 199.679C179.035 199.679 178.864 199.593 178.692 199.464C178.434 199.206 178.434 198.733 178.692 198.475C184.41 192.755 189.484 186.39 193.74 179.595C193.869 179.38 194.084 179.251 194.342 179.251C194.471 179.251 194.6 179.294 194.729 179.337C195.073 179.552 195.159 179.982 194.944 180.326C190.644 187.207 185.528 193.658 179.723 199.464C179.551 199.636 179.379 199.679 179.207 199.679ZM196.965 176.197C196.836 176.197 196.707 176.154 196.621 176.111C196.277 175.939 196.148 175.509 196.363 175.165L196.492 174.95C196.621 174.735 196.836 174.606 197.094 174.606C197.223 174.606 197.352 174.649 197.438 174.692C197.61 174.778 197.739 174.95 197.782 175.122C197.825 175.294 197.825 175.509 197.739 175.638L197.61 175.853C197.481 176.068 197.223 176.197 196.965 176.197ZM199.545 171.381C199.416 171.381 199.33 171.337 199.244 171.294C199.072 171.208 198.943 171.079 198.9 170.907C198.857 170.735 198.857 170.52 198.943 170.391C205.779 156.586 209.606 141.018 209.993 125.45C209.993 125.062 210.337 124.761 210.681 124.761C211.068 124.761 211.412 125.105 211.369 125.493C210.982 141.276 207.112 157.016 200.19 171.036C200.061 171.208 199.803 171.381 199.545 171.381ZM210.681 120.891C210.294 120.891 209.993 120.59 209.993 120.203V119.945C209.993 119.558 210.294 119.214 210.681 119.214C211.068 119.214 211.412 119.515 211.412 119.902V120.16C211.412 120.332 211.369 120.547 211.197 120.676C211.068 120.848 210.853 120.891 210.681 120.891ZM210.423 115.429C210.036 115.429 209.735 115.128 209.735 114.784C208.574 99.3446 203.93 84.0343 196.32 70.4872C196.148 70.1432 196.234 69.7131 196.578 69.5411C196.664 69.4981 196.793 69.4551 196.922 69.4551C197.18 69.4551 197.395 69.5841 197.524 69.7991C205.263 83.5182 209.95 99.0436 211.111 114.655C211.154 115.042 210.853 115.386 210.466 115.429C210.423 115.429 210.423 115.429 210.423 115.429Z" fill="#444444"/>
<path d="M179.207 199.593C179.078 199.593 178.906 199.55 178.777 199.421C178.562 199.206 178.562 198.819 178.777 198.604C184.496 192.884 189.569 186.519 193.826 179.724C193.998 179.466 194.342 179.38 194.643 179.552C194.901 179.724 194.987 180.068 194.815 180.369C190.515 187.25 185.399 193.658 179.594 199.464C179.508 199.507 179.336 199.593 179.207 199.593ZM196.965 176.111C196.879 176.111 196.793 176.068 196.664 176.025C196.363 175.853 196.277 175.509 196.449 175.251L196.578 175.036C196.75 174.735 197.094 174.649 197.352 174.821C197.653 174.993 197.739 175.337 197.567 175.595L197.438 175.81C197.395 175.982 197.18 176.111 196.965 176.111ZM199.545 171.252C199.459 171.252 199.373 171.252 199.287 171.209C198.986 171.08 198.9 170.735 199.029 170.434C205.865 156.586 209.692 141.018 210.079 125.45C210.079 125.149 210.337 124.891 210.681 124.891C210.982 124.891 211.24 125.149 211.24 125.493C210.853 141.276 206.983 156.973 200.061 170.994C199.975 171.123 199.76 171.252 199.545 171.252ZM210.681 120.805C210.38 120.805 210.122 120.547 210.079 120.246V119.988C210.079 119.687 210.337 119.386 210.638 119.386C210.939 119.386 211.24 119.644 211.24 119.945V120.203C211.24 120.504 210.982 120.762 210.681 120.805ZM210.423 115.3C210.122 115.3 209.864 115.085 209.864 114.741C208.703 99.3016 204.059 83.9483 196.449 70.4013C196.277 70.1002 196.406 69.7562 196.664 69.6272C196.922 69.4551 197.309 69.5842 197.438 69.8422C205.177 83.5613 209.864 99.0436 211.025 114.655C211.068 114.956 210.81 115.257 210.509 115.257C210.423 115.3 210.423 115.3 210.423 115.3Z" fill="#444444"/>
<path d="M210.681 132.934C205.306 132.934 200.964 128.59 200.964 123.215C200.964 117.839 205.306 113.495 210.681 113.495C216.056 113.495 220.398 117.839 220.398 123.215C220.398 128.59 216.056 132.934 210.681 132.934Z" fill="white"/>
<path d="M210.681 132.805C215.976 132.805 220.269 128.511 220.269 123.214C220.269 117.918 215.976 113.624 210.681 113.624C205.386 113.624 201.093 117.918 201.093 123.214C201.093 128.511 205.386 132.805 210.681 132.805Z" fill="white"/>
<path d="M210.681 133.536C205.006 133.536 200.362 128.891 200.362 123.214C200.362 117.537 205.006 112.893 210.681 112.893C216.357 112.893 221 117.537 221 123.214C221 128.891 216.4 133.536 210.681 133.536ZM210.681 114.355C205.78 114.355 201.824 118.311 201.824 123.214C201.824 128.117 205.78 132.073 210.681 132.073C215.583 132.073 219.539 128.117 219.539 123.214C219.582 118.311 215.583 114.355 210.681 114.355Z" fill="#444444"/>
<path d="M210.681 133.407C205.049 133.407 200.491 128.848 200.491 123.214C200.491 117.58 205.049 113.021 210.681 113.021C216.314 113.021 220.871 117.58 220.871 123.214C220.871 128.805 216.314 133.407 210.681 133.407ZM210.681 114.226C205.737 114.226 201.695 118.268 201.695 123.214C201.695 128.16 205.737 132.202 210.681 132.202C215.626 132.202 219.667 128.16 219.667 123.214C219.667 118.268 215.669 114.226 210.681 114.226Z" fill="#444444"/>
<path d="M205.693 123.386L206.811 122.483L209.907 126.483L214.895 118.397L216.141 119.129L210.036 129.02L205.693 123.386Z" fill="#444444"/>
<path d="M210.036 128.805L205.865 123.429L206.811 122.655L209.907 126.698L214.937 118.569L215.969 119.171L210.036 128.805Z" fill="#444444"/>
<path d="M187.891 122.193L136.554 122.432L136.56 123.851L187.898 123.612L187.891 122.193Z" fill="#444444"/>
<path d="M187.763 122.331L136.684 122.551L136.689 123.712L187.768 123.492L187.763 122.331Z" fill="#444444"/>
<path d="M174.908 138.266L136.728 138.61L136.685 137.191L175.467 136.847L183.163 144.545L182.174 145.534L174.908 138.266Z" fill="#444444"/>
<path d="M182.174 145.362L174.951 138.137L136.856 138.481L136.813 137.32L175.424 136.976L182.991 144.545L182.174 145.362Z" fill="#444444"/>
<path d="M184.755 150.952C182.519 150.952 180.713 149.146 180.713 146.91C180.713 144.673 182.519 142.867 184.755 142.867C186.99 142.867 188.796 144.673 188.796 146.91C188.796 149.146 186.99 150.952 184.755 150.952ZM184.755 144.329C183.293 144.329 182.132 145.491 182.132 146.953C182.132 148.415 183.293 149.576 184.755 149.576C186.216 149.576 187.377 148.415 187.377 146.953C187.377 145.491 186.216 144.329 184.755 144.329Z" fill="#444444"/>
<path d="M184.754 150.823C182.605 150.823 180.842 149.06 180.842 146.91C180.842 144.759 182.605 142.996 184.754 142.996C186.904 142.996 188.667 144.759 188.667 146.91C188.667 149.103 186.947 150.823 184.754 150.823ZM184.754 144.2C183.25 144.2 182.003 145.447 182.003 146.953C182.003 148.458 183.25 149.705 184.754 149.705C186.259 149.705 187.506 148.458 187.506 146.953C187.506 145.404 186.302 144.2 184.754 144.2Z" fill="#444444"/>
<path d="M136.813 108.247L136.856 106.828L175.037 107.172L182.002 100.205L182.991 101.194L175.596 108.591L136.813 108.247Z" fill="#444444"/>
<path d="M175.553 108.462H175.295L136.942 108.118V106.957L175.08 107.301L182.002 100.377L182.819 101.194L175.553 108.462Z" fill="#444444"/>
<path d="M185.055 102.957C182.82 102.957 181.014 101.151 181.014 98.9147C181.014 96.6783 182.82 94.8721 185.055 94.8721C187.291 94.8721 189.097 96.6783 189.097 98.9147C189.054 101.151 187.248 102.957 185.055 102.957ZM185.055 96.2913C183.593 96.2913 182.433 97.4525 182.433 98.9147C182.433 100.377 183.593 101.538 185.055 101.538C186.517 101.538 187.678 100.377 187.678 98.9147C187.678 97.4955 186.474 96.2913 185.055 96.2913Z" fill="#444444"/>
<path d="M185.055 102.828C182.905 102.828 181.143 101.065 181.143 98.9146C181.143 96.7642 182.905 95.001 185.055 95.001C187.205 95.001 188.968 96.7642 188.968 98.9146C188.925 101.065 187.205 102.828 185.055 102.828ZM185.055 96.2052C183.55 96.2052 182.303 97.4524 182.303 98.9576C182.303 100.463 183.55 101.71 185.055 101.71C186.56 101.71 187.807 100.463 187.807 98.9576C187.764 97.4093 186.56 96.2052 185.055 96.2052Z" fill="#444444"/>
<path d="M190.774 126.698C188.538 126.698 186.732 124.891 186.732 122.655C186.732 120.419 188.538 118.612 190.774 118.612C193.01 118.612 194.816 120.419 194.816 122.655C194.816 124.891 193.01 126.698 190.774 126.698ZM190.774 120.032C189.312 120.032 188.151 121.193 188.151 122.655C188.151 124.117 189.312 125.278 190.774 125.278C192.236 125.278 193.397 124.117 193.397 122.655C193.397 121.193 192.236 120.032 190.774 120.032Z" fill="#444444"/>
<path d="M190.774 126.568C188.624 126.568 186.861 124.805 186.861 122.655C186.861 120.504 188.624 118.741 190.774 118.741C192.924 118.741 194.687 120.504 194.687 122.655C194.687 124.805 192.924 126.568 190.774 126.568ZM190.774 119.902C189.269 119.902 188.022 121.15 188.022 122.655C188.022 124.16 189.269 125.407 190.774 125.407C192.279 125.407 193.526 124.16 193.526 122.655C193.526 121.15 192.279 119.902 190.774 119.902Z" fill="#444444"/>
<path d="M141.8 94.9585V88.1205C137.974 87.2603 134.319 85.7551 131.008 83.6478L126.15 88.5075L115.186 77.5409L120.044 72.6811C117.938 69.3266 116.433 65.7141 115.573 61.8865H108.736V46.3611H115.573C116.433 42.5336 117.938 38.878 120.044 35.5665L115.186 30.7068L126.15 19.7401L130.965 24.5138C134.319 22.4065 137.931 20.9013 141.757 20.0412V13.2031H157.279V20.0412C161.106 20.9013 164.76 22.4065 168.071 24.5138L172.93 19.6541L183.894 30.6208L179.035 35.4805C181.142 38.835 182.647 42.4475 183.507 46.2751H190.343V61.8005H183.593C182.733 65.6281 181.228 69.2836 179.121 72.5951L183.98 77.4549L173.016 88.4215L168.157 83.5618C164.803 85.6691 161.192 87.1743 157.365 88.0345V94.8725H141.8V94.9585ZM149.583 43.4797C143.735 43.4797 139.006 48.2104 139.006 54.0593C139.006 59.9082 143.735 64.6389 149.583 64.6389C155.43 64.6389 160.16 59.9082 160.16 54.0593C160.16 48.2104 155.387 43.4797 149.583 43.4797Z" fill="white"/>
<path d="M190.343 61.7144V46.4471H183.507C182.604 42.4905 181.056 38.7919 178.949 35.4804L183.765 30.6637L172.972 19.8691L168.157 24.6858C164.846 22.5785 161.149 21.0302 157.193 20.1271V13.2891H141.886V20.1271C137.931 21.0302 134.233 22.5785 130.922 24.6858L126.107 19.8691L115.315 30.6637L120.13 35.4804C118.023 38.7919 116.476 42.4905 115.573 46.4471H108.779V61.7574H115.616C116.519 65.714 118.066 69.4126 120.173 72.7241L115.358 77.5408L126.15 88.3354L130.965 83.5187C134.276 85.626 137.974 87.1742 141.929 88.0774V94.9154H157.236V88.0774C161.192 87.1742 164.889 85.626 168.2 83.5187L173.015 88.3354L183.808 77.5408L178.949 72.6811C181.056 69.3696 182.604 65.671 183.507 61.7144H190.343ZM149.583 64.7679C143.692 64.7679 138.877 59.9941 138.877 54.0592C138.877 48.1673 143.649 43.3506 149.583 43.3506C155.473 43.3506 160.289 48.1243 160.289 54.0592C160.246 59.9941 155.473 64.7679 149.583 64.7679Z" fill="white"/>
<path d="M141.199 95.5601V88.5931C137.63 87.733 134.233 86.3137 131.095 84.3784L126.15 89.3242L114.326 77.4974L119.271 72.5517C117.336 69.4122 115.96 66.0147 115.057 62.4451H108.092V45.7156H115.057C115.917 42.1461 117.336 38.7485 119.271 35.6091L114.326 30.6633L126.15 18.8365L131.095 23.7823C134.233 21.847 137.63 20.4708 141.199 19.5676V12.6006H157.924V19.5676C161.493 20.4278 164.89 21.847 168.028 23.7823L172.973 18.8365L184.797 30.6633L179.852 35.6091C181.787 38.7485 183.163 42.1461 184.066 45.7156H191.031V62.4451H184.066C183.206 66.0147 181.787 69.4122 179.852 72.5517L184.797 77.4974L172.973 89.3242L168.028 84.3784C164.89 86.3137 161.493 87.6899 157.924 88.5931V95.5601H141.199ZM156.462 94.1409V87.4749L157.021 87.3459C160.848 86.4858 164.417 84.9805 167.727 82.9162L168.2 82.6152L172.93 87.3459L182.733 77.5404L178.003 72.8097L178.304 72.3366C180.411 69.0251 181.873 65.4126 182.733 61.628L182.862 61.0689H189.612V47.2208H182.948L182.819 46.6617C181.959 42.8342 180.454 39.2646 178.39 35.9531L178.089 35.48L182.819 30.7493L173.016 20.9438L168.286 25.6746L167.813 25.3735C164.503 23.2662 160.891 21.804 157.107 20.9438L156.548 20.8148V14.0198H142.704V20.6858L142.145 20.8148C138.318 21.675 134.749 23.1802 131.439 25.2445L130.966 25.5455L126.236 20.8148L116.433 30.6203L121.163 35.351L120.862 35.8241C118.755 39.1356 117.293 42.7481 116.433 46.5327L116.304 47.0918H109.64V60.9399H116.304L116.433 61.499C117.293 65.3266 118.798 68.8961 120.862 72.2076L121.163 72.6807L116.433 77.4114L126.236 87.2169L130.966 82.4862L131.439 82.7872C134.749 84.8945 138.361 86.3568 142.145 87.2169L142.704 87.3459V94.0119H156.462V94.1409ZM149.583 65.4986C143.263 65.4986 138.146 60.3808 138.146 54.0589C138.146 47.7369 143.263 42.6191 149.583 42.6191C155.903 42.6191 161.02 47.7369 161.02 54.0589C160.977 60.3808 155.86 65.4986 149.583 65.4986ZM149.583 44.0814C144.08 44.0814 139.608 48.554 139.608 54.0589C139.608 59.5637 144.08 64.0364 149.583 64.0364C155.087 64.0364 159.558 59.5637 159.558 54.0589C159.558 48.554 155.044 44.0814 149.583 44.0814Z" fill="#444444"/>
<path d="M157.795 95.4741H141.285V88.55C137.673 87.6899 134.233 86.2707 131.009 84.2924L126.107 89.1951L114.455 77.5403L119.357 72.6376C117.379 69.4551 115.96 66.0146 115.1 62.359H108.178V45.8445H115.1C115.96 42.232 117.379 38.7915 119.357 35.566L114.455 30.6632L126.107 19.0085L131.009 23.9112C134.19 21.9329 137.63 20.5137 141.285 19.6536V12.6865H157.795V19.6106C161.407 20.4707 164.847 21.8899 168.071 23.8682L172.973 18.9655L184.625 30.6202L179.723 35.566C181.701 38.7485 183.12 42.189 183.98 45.8445H190.902V62.359H183.98C183.12 65.9716 181.701 69.4121 179.723 72.6376L184.625 77.5403L172.973 89.1951L168.071 84.2924C164.89 86.2707 161.45 87.6899 157.795 88.55V95.4741ZM142.532 94.2269H156.634V87.5179L157.107 87.4318C160.934 86.5717 164.546 85.0665 167.856 82.9592L168.286 82.7011L173.016 87.4318L182.991 77.4543L178.261 72.7236L178.519 72.2936C180.626 68.9821 182.131 65.3695 182.991 61.5419L183.077 61.0689H189.784V46.9627H183.077L182.991 46.4896C182.131 42.6621 180.626 39.0495 178.519 35.738L178.261 35.3079L182.991 30.5772L173.016 20.5997L168.286 25.3304L167.856 25.0724C164.546 22.9651 160.934 21.4599 157.107 20.5997L156.634 20.5137V13.8907H142.532V20.5997L142.059 20.6857C138.232 21.5459 134.62 23.0511 131.31 25.1584L130.88 25.4165L126.15 20.6857L116.175 30.6632L120.905 35.394L120.647 35.824C118.54 39.1355 117.035 42.7481 116.175 46.5757L116.089 47.0487H109.382V61.1549H116.089L116.175 61.6279C117.035 65.4555 118.54 69.0681 120.647 72.3796L120.905 72.8096L116.175 77.5403L126.15 87.5179L130.88 82.7871L131.31 83.0452C134.62 85.1525 138.232 86.6577 142.059 87.5179L142.532 87.6039V94.2269ZM149.583 65.3695C143.349 65.3695 138.275 60.2947 138.275 54.0588C138.275 47.8228 143.349 42.7481 149.583 42.7481C155.817 42.7481 160.891 47.8228 160.891 54.0588C160.891 60.2947 155.817 65.3695 149.583 65.3695ZM149.583 43.9953C143.993 43.9953 139.479 48.5109 139.479 54.1018C139.479 59.6926 143.993 64.2083 149.583 64.2083C155.172 64.2083 159.687 59.6926 159.687 54.1018C159.644 48.5109 155.129 43.9953 149.583 43.9953Z" fill="#444444"/>
<path d="M87.4115 42.6625C87.0245 42.6625 86.7236 42.3614 86.7236 41.9744V39.0929C85.0467 38.6629 83.4559 38.0178 81.994 37.1146L79.9302 39.1789C79.8012 39.3079 79.6292 39.394 79.4142 39.394C79.1992 39.394 79.0703 39.3079 78.8983 39.1789L73.4378 33.7171C73.3088 33.5881 73.2228 33.4161 73.2228 33.201C73.2228 32.986 73.3088 32.857 73.4378 32.6849L75.5016 30.6206C74.6417 29.1584 73.9537 27.5672 73.5238 25.8899H70.643C70.2561 25.8899 69.9551 25.5889 69.9551 25.2018V17.4606C69.9551 17.0736 70.2561 16.7725 70.643 16.7725H73.5238C73.9537 15.0953 74.5987 13.504 75.5016 12.0418L73.4378 9.97751C73.3088 9.84849 73.2228 9.67647 73.2228 9.46143C73.2228 9.2464 73.3088 9.11738 73.4378 8.94535L78.8983 3.48353C79.0273 3.35451 79.1992 3.26849 79.4142 3.26849C79.6292 3.26849 79.7582 3.35451 79.9302 3.48353L81.994 5.54784C83.4559 4.68771 85.0467 3.99961 86.7236 3.56954V0.688104C86.7236 0.301046 87.0245 0 87.4115 0H95.1508C95.5378 0 95.8387 0.301046 95.8387 0.688104V3.56954C97.5156 3.99961 99.1064 4.6447 100.568 5.54784L102.632 3.48353C102.761 3.35451 102.933 3.26849 103.148 3.26849C103.32 3.26849 103.492 3.35451 103.664 3.48353L109.125 8.94535C109.383 9.20339 109.383 9.67647 109.125 9.9345L107.061 11.9988C107.921 13.461 108.609 15.0523 109.039 16.7295H111.919C112.306 16.7295 112.607 17.0306 112.607 17.4176V25.1588C112.607 25.5459 112.306 25.8469 111.919 25.8469H109.039C108.609 27.5242 107.964 29.1154 107.061 30.5776L109.125 32.6419C109.383 32.9 109.383 33.3731 109.125 33.6311L103.621 39.1359C103.492 39.2649 103.32 39.351 103.105 39.351C102.933 39.351 102.761 39.2649 102.589 39.1359L100.525 37.0716C99.0634 37.9317 97.4726 38.6198 95.7957 39.0499V41.9313C95.7957 42.3184 95.4948 42.6194 95.1078 42.6194H87.4115V42.6625ZM94.4199 41.2432V38.4908C94.4199 38.1468 94.6348 37.8887 94.9788 37.8027C96.8706 37.3727 98.6765 36.6415 100.31 35.6094C100.439 35.5234 100.568 35.4804 100.697 35.4804C100.869 35.4804 101.041 35.5664 101.213 35.6954L103.148 37.6307L107.62 33.158L105.685 31.2227C105.47 31.0077 105.427 30.6206 105.599 30.3626C106.631 28.7283 107.362 26.9221 107.792 25.0298C107.878 24.6857 108.136 24.4707 108.48 24.4707H111.231V18.1487H108.48C108.136 18.1487 107.878 17.9337 107.792 17.5897C107.362 15.6974 106.631 13.8911 105.599 12.2569C105.427 11.9558 105.47 11.6118 105.685 11.3967L107.62 9.46143L103.148 4.98876L101.213 6.92405C101.084 7.05307 100.912 7.13908 100.697 7.13908C100.568 7.13908 100.439 7.09607 100.31 7.01006C98.6765 5.9779 96.8706 5.24679 94.9788 4.81673C94.6348 4.73072 94.4199 4.47268 94.4199 4.12862V1.41921H88.0994V4.17163C88.0994 4.51568 87.8845 4.77372 87.5405 4.85974C85.6487 5.2898 83.8428 6.02091 82.209 7.05307C82.08 7.13908 81.951 7.18209 81.822 7.18209C81.65 7.18209 81.478 7.09607 81.3061 6.96705L79.3712 5.03176L74.9426 9.46143L76.8775 11.3967C77.0924 11.6118 77.1354 11.9988 76.9634 12.2569C75.9315 13.8911 75.2006 15.6974 74.7706 17.5897C74.6846 17.9337 74.4267 18.1487 74.0827 18.1487H71.331V24.5137H74.0827C74.4267 24.5137 74.6846 24.7287 74.7706 25.0728C75.2006 26.9651 75.9315 28.7714 76.9634 30.4056C77.1354 30.7066 77.0924 31.0507 76.8775 31.2657L74.9426 33.201L79.4142 37.6737L81.349 35.7384C81.478 35.6094 81.65 35.5234 81.865 35.5234C81.994 35.5234 82.123 35.5664 82.252 35.6524C83.8858 36.6846 85.6917 37.4157 87.5835 37.8457C87.9275 37.9317 88.1424 38.1898 88.1424 38.5338V41.2862H94.4199V41.2432ZM91.2812 27.4382C87.9275 27.4382 85.1757 24.6857 85.1757 21.3312C85.1757 17.9767 87.9275 15.2243 91.2812 15.2243C94.6348 15.2243 97.3866 17.9767 97.3866 21.3312C97.3866 24.6857 94.6348 27.4382 91.2812 27.4382ZM91.2812 16.6005C88.7014 16.6005 86.5516 18.7078 86.5516 21.3312C86.5516 23.9546 88.6584 26.0619 91.2812 26.0619C93.9039 26.0619 96.0107 23.9546 96.0107 21.3312C96.0107 18.7078 93.8609 16.6005 91.2812 16.6005Z" fill="#444444"/>
<path d="M95.1508 42.5334H87.4115C87.1105 42.5334 86.8095 42.2753 86.8095 41.9313V38.9208C85.0897 38.4908 83.4558 37.8027 81.951 36.8995L79.8442 39.0068C79.6292 39.2219 79.2422 39.2219 79.0272 39.0068L73.5237 33.588C73.3087 33.373 73.3087 32.9859 73.5237 32.7709L75.6305 30.6636C74.7276 29.1583 74.0397 27.5241 73.6097 25.8038H70.6C70.299 25.8038 69.998 25.5458 69.998 25.2017V17.4606C69.998 17.1595 70.256 16.8585 70.6 16.8585H73.6097C74.0397 15.1382 74.7276 13.504 75.6305 11.9987L73.5237 9.89142C73.3087 9.67639 73.3087 9.28933 73.5237 9.0743L78.9842 3.61247C79.1992 3.39744 79.5862 3.39744 79.8012 3.61247L81.908 5.71979C83.4128 4.81665 85.0467 4.12855 86.7665 3.69848V0.688029C86.7665 0.386983 87.0245 0.0859375 87.3685 0.0859375H95.1078C95.4087 0.0859375 95.7097 0.343977 95.7097 0.688029V3.69848C97.4296 4.12855 99.0634 4.81665 100.568 5.71979L102.675 3.61247C102.89 3.39744 103.277 3.39744 103.492 3.61247L108.953 9.0743C109.167 9.28933 109.167 9.67639 108.953 9.89142L106.846 11.9987C107.749 13.504 108.437 15.1382 108.867 16.8585H111.876C112.177 16.8585 112.478 17.1165 112.478 17.4606V25.2017C112.478 25.5028 112.22 25.8038 111.876 25.8038H108.867C108.437 27.5241 107.749 29.1583 106.846 30.6636L108.953 32.7709C109.167 32.9859 109.167 33.373 108.953 33.588L103.492 39.0498C103.277 39.2649 102.89 39.2649 102.675 39.0498L100.568 36.9425C99.0634 37.8457 97.4296 38.5338 95.7097 38.9638V41.9743C95.7097 42.2753 95.4517 42.5334 95.1508 42.5334ZM87.9704 41.3722H94.5488V38.4908C94.5488 38.2327 94.7208 37.9747 95.0218 37.9317C96.9136 37.5016 98.7194 36.7705 100.396 35.6953C100.611 35.5663 100.912 35.5663 101.127 35.7813L103.148 37.8027L107.792 33.1579L105.771 31.1366C105.599 30.9646 105.556 30.6636 105.685 30.4055C106.717 28.7713 107.491 26.965 107.921 25.0297C107.964 24.7717 108.222 24.5566 108.48 24.5566H111.36V18.0627H108.48C108.222 18.0627 107.964 17.8906 107.921 17.5896C107.491 15.6973 106.76 13.891 105.685 12.2138C105.556 11.9987 105.556 11.6977 105.771 11.4827L107.792 9.46136L103.148 4.81665L101.127 6.83796C100.955 7.00999 100.654 7.05299 100.396 6.92397C98.7624 5.89182 96.9566 5.1177 95.0218 4.68763C94.7638 4.64463 94.5488 4.38659 94.5488 4.12855V1.29012H87.9704V4.17156C87.9704 4.4296 87.7984 4.68763 87.4975 4.73064C85.6056 5.16071 83.7998 5.89182 82.1229 6.96698C81.908 7.096 81.607 7.096 81.392 6.88097L79.3712 4.85966L74.7706 9.46136L76.7914 11.4827C76.9634 11.6547 77.0064 11.9557 76.8774 12.2138C75.8455 13.848 75.0716 15.6543 74.6416 17.5896C74.5986 17.8476 74.3407 18.0627 74.0827 18.0627H71.2019V24.6427H74.0827C74.3407 24.6427 74.5986 24.8147 74.6416 25.1157C75.0716 27.008 75.8025 28.8143 76.8774 30.4915C77.0064 30.7066 77.0064 31.0076 76.7914 31.2227L74.7706 33.244L79.4142 37.8457L81.435 35.8244C81.607 35.6523 81.908 35.6093 82.1659 35.7383C83.7998 36.7705 85.6056 37.5446 87.5405 37.9747C87.7984 38.0177 88.0134 38.2757 88.0134 38.5338V41.3722H87.9704ZM91.2811 27.3521C87.9704 27.3521 85.3047 24.6427 85.3047 21.3742C85.3047 18.0627 88.0134 15.3963 91.2811 15.3963C94.5488 15.3963 97.2576 18.1057 97.2576 21.3742C97.2576 24.6427 94.5488 27.3521 91.2811 27.3521ZM91.2811 16.5144C88.6154 16.5144 86.4656 18.6647 86.4656 21.3312C86.4656 23.9976 88.6154 26.1479 91.2811 26.1479C93.9469 26.1479 96.0967 23.9976 96.0967 21.3312C96.0967 18.6647 93.9469 16.5144 91.2811 16.5144Z" fill="#444444"/>
<path d="M140.855 217.312H82.3804C76.8769 217.312 72.4053 212.84 72.4053 207.335V62.9619C72.4053 57.4571 76.8769 52.9844 82.3804 52.9844H140.855C146.359 52.9844 150.83 57.4571 150.83 62.9619V207.335C150.83 212.797 146.316 217.312 140.855 217.312Z" fill="#1F75BA"/>
<path d="M145.799 75.3486H77.3496V191.724H145.799V75.3486Z" fill="white"/>
<path d="M145.713 75.4775H77.4785V191.638H145.713V75.4775Z" fill="white"/>
<path d="M76.791 192.326V74.7461H146.402V192.283H76.791V192.326ZM144.983 190.907V76.1653H78.2099V190.907H144.983Z" fill="#444444"/>
<path d="M146.273 192.197H76.9199V74.875H146.316V192.197H146.273ZM78.0808 191.036H145.155V76.0362H78.0808V191.036Z" fill="#444444"/>
<path d="M111.574 208.968C108.349 208.968 105.684 206.345 105.684 203.076C105.684 199.808 108.306 197.185 111.574 197.185C114.842 197.185 117.465 199.808 117.465 203.076C117.465 206.345 114.842 208.968 111.574 208.968Z" fill="white"/>
<path d="M111.574 208.883C114.756 208.883 117.335 206.303 117.335 203.12C117.335 199.938 114.756 197.357 111.574 197.357C108.392 197.357 105.812 199.938 105.812 203.12C105.812 206.303 108.392 208.883 111.574 208.883Z" fill="white"/>
<path d="M111.574 209.571C108.006 209.571 105.125 206.689 105.125 203.12C105.125 199.55 108.006 196.669 111.574 196.669C115.143 196.669 118.024 199.55 118.024 203.12C118.067 206.646 115.143 209.571 111.574 209.571ZM111.574 198.045C108.78 198.045 106.544 200.325 106.544 203.077C106.544 205.872 108.823 208.109 111.574 208.109C114.369 208.109 116.605 205.829 116.605 203.077C116.648 200.325 114.369 198.045 111.574 198.045Z" fill="#444444"/>
<path d="M111.574 209.442C108.092 209.442 105.254 206.603 105.254 203.12C105.254 199.636 108.092 196.798 111.574 196.798C115.057 196.798 117.895 199.636 117.895 203.12C117.938 206.603 115.1 209.442 111.574 209.442ZM111.574 197.959C108.737 197.959 106.415 200.281 106.415 203.12C106.415 205.958 108.737 208.281 111.574 208.281C114.412 208.281 116.734 205.958 116.734 203.12C116.777 200.238 114.455 197.959 111.574 197.959Z" fill="#444444"/>
<path d="M111.574 68.2521C113.165 68.2521 114.455 66.9621 114.455 65.3707C114.455 63.7793 113.165 62.4893 111.574 62.4893C109.983 62.4893 108.693 63.7793 108.693 65.3707C108.693 66.9621 109.983 68.2521 111.574 68.2521Z" fill="white"/>
<path d="M111.574 68.123C113.094 68.123 114.326 66.8907 114.326 65.3706C114.326 63.8505 113.094 62.6182 111.574 62.6182C110.054 62.6182 108.822 63.8505 108.822 65.3706C108.822 66.8907 110.054 68.123 111.574 68.123Z" fill="white"/>
<path d="M111.574 68.8107C109.683 68.8107 108.135 67.2625 108.135 65.3702C108.135 63.4779 109.683 61.9297 111.574 61.9297C113.466 61.9297 115.014 63.4779 115.014 65.3702C115.057 67.2625 113.509 68.8107 111.574 68.8107ZM111.574 63.3059C110.457 63.3059 109.511 64.209 109.511 65.3702C109.511 66.4884 110.414 67.4345 111.574 67.4345C112.692 67.4345 113.638 66.5314 113.638 65.3702C113.638 64.252 112.735 63.3059 111.574 63.3059Z" fill="#444444"/>
<path d="M111.574 68.6816C109.726 68.6816 108.264 67.1764 108.264 65.3701C108.264 63.5208 109.769 62.0586 111.574 62.0586C113.423 62.0586 114.885 63.5638 114.885 65.3701C114.928 67.2194 113.423 68.6816 111.574 68.6816ZM111.574 63.1768C110.37 63.1768 109.425 64.1659 109.425 65.3271C109.425 66.5313 110.413 67.4774 111.574 67.4774C112.778 67.4774 113.724 66.4883 113.724 65.3271C113.767 64.1659 112.778 63.1768 111.574 63.1768Z" fill="#444444"/>
<path d="M103.836 64.9834H88.5293V66.4026H103.836V64.9834Z" fill="#444444"/>
<path d="M103.707 65.1123H88.6582V66.2735H103.707V65.1123Z" fill="#444444"/>
<path d="M134.664 64.9834H119.357V66.4026H134.664V64.9834Z" fill="#444444"/>
<path d="M134.535 65.1123H119.486V66.2735H134.535V65.1123Z" fill="#444444"/>
<path d="M122.754 186.046V185.917C122.754 185.659 122.797 185.401 122.797 185.186C122.797 179.38 118.067 174.65 112.262 174.65C106.458 174.65 101.728 179.38 101.728 185.186C101.728 185.444 101.728 185.702 101.771 185.917V186.046H83.4551V179.896H88.2706C88.8726 177.23 89.9475 174.65 91.4094 172.327L88.0127 168.93L95.795 161.146L99.1916 164.543C101.513 163.081 104.093 162.006 106.759 161.404V156.544H117.766V161.361C120.432 161.963 123.011 163.038 125.333 164.5L128.73 161.103L136.512 168.887L133.116 172.284C134.577 174.607 135.652 177.187 136.254 179.853H141.07V186.003H122.754V186.046Z" fill="white"/>
<path d="M136.125 179.982C135.523 177.187 134.405 174.607 132.944 172.284L136.34 168.887L128.73 161.275L125.333 164.672C123.011 163.21 120.389 162.092 117.637 161.49V156.673H106.888V161.49C104.093 162.092 101.513 163.21 99.1916 164.672L95.7949 161.275L88.1846 168.887L91.5813 172.284C90.1194 174.607 89.0015 177.23 88.3996 179.982H83.584V185.917H101.642C101.642 185.659 101.599 185.401 101.599 185.143C101.599 179.251 106.372 174.478 112.262 174.478C118.153 174.478 122.925 179.251 122.925 185.143C122.925 185.401 122.925 185.659 122.882 185.917H140.941V179.982H136.125Z" fill="white"/>
<path d="M68.75 131.514C67.0302 131.514 65.6543 130.138 65.6543 128.418V91.5613C65.6543 89.8411 67.0302 88.4648 68.75 88.4648H123.441C125.161 88.4648 126.537 89.8411 126.537 91.5613V128.418C126.537 130.138 125.161 131.514 123.441 131.514H68.75Z" fill="white"/>
<path d="M123.441 88.5508H68.7499C67.1161 88.5508 65.7832 89.884 65.7832 91.5182V128.375C65.7832 130.009 67.1161 131.342 68.7499 131.342H123.441C125.075 131.342 126.408 130.009 126.408 128.375V91.5182C126.408 89.884 125.075 88.5508 123.441 88.5508Z" fill="white"/>
<path d="M67.2885 132.116C66.0416 132.116 65.0527 131.127 65.0527 129.88V90.0986C65.0527 88.8515 66.0416 87.8623 67.2885 87.8623H124.903C126.15 87.8623 127.139 88.8515 127.139 90.0986V129.88C127.139 131.127 126.15 132.116 124.903 132.116H67.2885ZM67.2885 89.2815C66.8586 89.2815 66.5146 89.6256 66.5146 90.0556V129.88C66.5146 130.31 66.8586 130.654 67.2885 130.654H124.903C125.333 130.654 125.677 130.31 125.677 129.88V90.0986C125.677 89.6686 125.333 89.3245 124.903 89.3245H67.2885V89.2815Z" fill="#444444"/>
<path d="M124.903 131.987H67.2884C66.1276 131.987 65.1816 131.041 65.1816 129.88V90.0985C65.1816 88.9374 66.1276 87.9912 67.2884 87.9912H124.903C126.064 87.9912 127.01 88.9374 127.01 90.0985V129.88C127.01 131.041 126.064 131.987 124.903 131.987ZM67.2884 89.1524C66.7725 89.1524 66.3855 89.5394 66.3855 90.0555V129.88C66.3855 130.396 66.7725 130.783 67.2884 130.783H124.903C125.419 130.783 125.806 130.396 125.806 129.88V90.0985C125.806 89.5824 125.419 89.1954 124.903 89.1954H67.2884V89.1524Z" fill="#444444"/>
<path d="M126.15 98.0986H65.7402V98.3567H126.15V98.0986Z" fill="white"/>
<path d="M126.322 97.4961H65.6543V98.9583H126.322V97.4961Z" fill="#444444"/>
<path d="M126.15 97.625H65.7402V98.8292H126.15V97.625Z" fill="#444444"/>
<path d="M120.174 95.2595C121.005 95.2595 121.679 94.5856 121.679 93.7543C121.679 92.9229 121.005 92.249 120.174 92.249C119.343 92.249 118.669 92.9229 118.669 93.7543C118.669 94.5856 119.343 95.2595 120.174 95.2595Z" fill="white"/>
<path d="M120.174 95.1303C120.934 95.1303 121.55 94.5142 121.55 93.7541C121.55 92.9941 120.934 92.3779 120.174 92.3779C119.414 92.3779 118.798 92.9941 118.798 93.7541C118.798 94.5142 119.414 95.1303 120.174 95.1303Z" fill="white"/>
<path d="M120.174 95.8611C119.013 95.8611 118.067 94.915 118.067 93.7538C118.067 92.5926 119.013 91.6465 120.174 91.6465C121.335 91.6465 122.281 92.5926 122.281 93.7538C122.281 94.915 121.335 95.8611 120.174 95.8611ZM120.174 93.0657C119.83 93.0657 119.529 93.3667 119.529 93.7108C119.529 94.0548 119.83 94.3559 120.174 94.3559C120.518 94.3559 120.819 94.0548 120.819 93.7108C120.819 93.3667 120.561 93.0657 120.174 93.0657Z" fill="#444444"/>
<path d="M120.174 95.732C119.099 95.732 118.196 94.8289 118.196 93.7537C118.196 92.6785 119.099 91.7754 120.174 91.7754C121.249 91.7754 122.152 92.6785 122.152 93.7537C122.152 94.8289 121.292 95.732 120.174 95.732ZM120.174 92.9796C119.744 92.9796 119.4 93.3236 119.4 93.7537C119.4 94.1838 119.744 94.5278 120.174 94.5278C120.604 94.5278 120.948 94.1838 120.948 93.7537C120.948 93.3236 120.604 92.9796 120.174 92.9796Z" fill="#444444"/>
<path d="M114.713 95.2595C115.544 95.2595 116.218 94.5856 116.218 93.7543C116.218 92.9229 115.544 92.249 114.713 92.249C113.882 92.249 113.208 92.9229 113.208 93.7543C113.208 94.5856 113.882 95.2595 114.713 95.2595Z" fill="white"/>
<path d="M114.713 95.1303C115.473 95.1303 116.089 94.5142 116.089 93.7541C116.089 92.9941 115.473 92.3779 114.713 92.3779C113.953 92.3779 113.337 92.9941 113.337 93.7541C113.337 94.5142 113.953 95.1303 114.713 95.1303Z" fill="white"/>
<path d="M114.713 95.8611C113.552 95.8611 112.606 94.915 112.606 93.7538C112.606 92.5926 113.552 91.6465 114.713 91.6465C115.874 91.6465 116.82 92.5926 116.82 93.7538C116.82 94.915 115.874 95.8611 114.713 95.8611ZM114.713 93.0657C114.369 93.0657 114.068 93.3667 114.068 93.7108C114.068 94.0548 114.369 94.3559 114.713 94.3559C115.057 94.3559 115.358 94.0548 115.358 93.7108C115.401 93.3667 115.1 93.0657 114.713 93.0657Z" fill="#444444"/>
<path d="M114.713 95.732C113.638 95.732 112.735 94.8289 112.735 93.7537C112.735 92.6785 113.638 91.7754 114.713 91.7754C115.788 91.7754 116.691 92.6785 116.691 93.7537C116.734 94.8289 115.831 95.732 114.713 95.732ZM114.713 92.9796C114.283 92.9796 113.939 93.3236 113.939 93.7537C113.939 94.1838 114.283 94.5278 114.713 94.5278C115.143 94.5278 115.487 94.1838 115.487 93.7537C115.487 93.3236 115.143 92.9796 114.713 92.9796Z" fill="#444444"/>
<path d="M109.295 95.2595C110.126 95.2595 110.8 94.5856 110.8 93.7543C110.8 92.9229 110.126 92.249 109.295 92.249C108.464 92.249 107.79 92.9229 107.79 93.7543C107.79 94.5856 108.464 95.2595 109.295 95.2595Z" fill="white"/>
<path d="M109.295 95.1303C110.055 95.1303 110.671 94.5142 110.671 93.7541C110.671 92.9941 110.055 92.3779 109.295 92.3779C108.535 92.3779 107.919 92.9941 107.919 93.7541C107.919 94.5142 108.535 95.1303 109.295 95.1303Z" fill="white"/>
<path d="M109.295 95.8611C108.134 95.8611 107.188 94.915 107.188 93.7538C107.188 92.5926 108.134 91.6465 109.295 91.6465C110.456 91.6465 111.402 92.5926 111.402 93.7538C111.402 94.915 110.456 95.8611 109.295 95.8611ZM109.295 93.0657C108.951 93.0657 108.65 93.3667 108.65 93.7108C108.65 94.0548 108.951 94.3559 109.295 94.3559C109.639 94.3559 109.94 94.0548 109.94 93.7108C109.94 93.3667 109.639 93.0657 109.295 93.0657Z" fill="#444444"/>
<path d="M109.295 95.732C108.22 95.732 107.317 94.8289 107.317 93.7537C107.317 92.6785 108.22 91.7754 109.295 91.7754C110.37 91.7754 111.273 92.6785 111.273 93.7537C111.273 94.8289 110.37 95.732 109.295 95.732ZM109.295 92.9796C108.865 92.9796 108.521 93.3236 108.521 93.7537C108.521 94.1838 108.865 94.5278 109.295 94.5278C109.725 94.5278 110.069 94.1838 110.069 93.7537C110.069 93.3236 109.725 92.9796 109.295 92.9796Z" fill="#444444"/>
<path d="M71.2016 109.623C70.8146 109.623 70.5137 109.322 70.5137 108.935C70.5137 108.548 70.8146 108.247 71.2016 108.247H82.8106C83.1975 108.247 83.4985 108.548 83.4985 108.935C83.4985 109.322 83.1975 109.623 82.8106 109.623H71.2016Z" fill="#444444"/>
<path d="M82.8535 109.494H71.2445C70.9435 109.494 70.6426 109.236 70.6426 108.892C70.6426 108.591 70.9006 108.29 71.2445 108.29H82.8535C83.1544 108.29 83.4554 108.548 83.4554 108.892C83.4124 109.236 83.1544 109.494 82.8535 109.494Z" fill="#444444"/>
<path d="M85.8637 109.623C85.4768 109.623 85.1758 109.322 85.1758 108.935C85.1758 108.548 85.4768 108.247 85.8637 108.247H85.9927C86.3797 108.247 86.6806 108.548 86.6806 108.935C86.6806 109.322 86.3797 109.623 85.9927 109.623H85.8637Z" fill="#444444"/>
<path d="M85.9927 109.494H85.8207C85.5197 109.494 85.2188 109.236 85.2188 108.892C85.2188 108.591 85.4767 108.29 85.8207 108.29H85.9927C86.2937 108.29 86.5946 108.548 86.5946 108.892C86.5946 109.236 86.3367 109.494 85.9927 109.494Z" fill="#444444"/>
<path d="M104.094 109.623C103.707 109.623 103.406 109.322 103.406 108.935C103.406 108.548 103.707 108.247 104.094 108.247H104.223C104.61 108.247 104.911 108.548 104.911 108.935C104.911 109.322 104.61 109.623 104.223 109.623H104.094ZM89.0024 109.623C88.6154 109.623 88.3145 109.322 88.3145 108.935C88.3145 108.548 88.6154 108.247 89.0024 108.247H101.041C101.428 108.247 101.729 108.548 101.729 108.935C101.729 109.322 101.428 109.623 101.041 109.623H89.0024Z" fill="#444444"/>
<path d="M104.223 109.494H104.051C103.75 109.494 103.449 109.236 103.449 108.892C103.449 108.591 103.707 108.29 104.051 108.29H104.223C104.524 108.29 104.825 108.548 104.825 108.892C104.825 109.236 104.567 109.494 104.223 109.494ZM101.084 109.494H89.0453C88.7443 109.494 88.4434 109.236 88.4434 108.892C88.4434 108.591 88.7013 108.29 89.0453 108.29H101.084C101.385 108.29 101.686 108.548 101.686 108.892C101.643 109.236 101.385 109.494 101.084 109.494Z" fill="#444444"/>
<path d="M107.232 109.623C106.845 109.623 106.544 109.322 106.544 108.935C106.544 108.548 106.845 108.247 107.232 108.247H118.841C119.228 108.247 119.529 108.548 119.529 108.935C119.529 109.322 119.228 109.623 118.841 109.623H107.232Z" fill="#444444"/>
<path d="M118.841 109.494H107.232C106.931 109.494 106.63 109.236 106.63 108.892C106.63 108.591 106.888 108.29 107.232 108.29H118.841C119.142 108.29 119.443 108.548 119.443 108.892C119.443 109.236 119.185 109.494 118.841 109.494Z" fill="#444444"/>
<path d="M106.372 119.86C105.985 119.86 105.684 119.559 105.684 119.172C105.684 118.784 105.985 118.483 106.372 118.483H118.884C119.271 118.483 119.572 118.784 119.572 119.172C119.572 119.559 119.271 119.86 118.884 119.86H106.372ZM100.267 119.86C99.88 119.86 99.579 119.559 99.579 119.172C99.579 118.784 99.88 118.483 100.267 118.483H100.568C100.955 118.483 101.256 118.784 101.256 119.172C101.256 119.559 100.955 119.86 100.568 119.86H100.267ZM71.2016 119.86C70.8146 119.86 70.5137 119.559 70.5137 119.172C70.5137 118.784 70.8146 118.483 71.2016 118.483H94.4625C94.8495 118.483 95.1504 118.784 95.1504 119.172C95.1504 119.559 94.8495 119.86 94.4625 119.86H71.2016Z" fill="#444444"/>
<path d="M118.841 119.774H106.329C106.028 119.774 105.727 119.515 105.727 119.171C105.727 118.827 105.985 118.569 106.329 118.569H118.841C119.142 118.569 119.443 118.827 119.443 119.171C119.443 119.515 119.185 119.774 118.841 119.774ZM100.568 119.774H100.267C99.966 119.774 99.665 119.515 99.665 119.171C99.665 118.827 99.923 118.569 100.267 118.569H100.568C100.869 118.569 101.17 118.827 101.17 119.171C101.17 119.515 100.869 119.774 100.568 119.774ZM94.4625 119.774H71.2016C70.9006 119.774 70.5996 119.515 70.5996 119.171C70.5996 118.827 70.8576 118.569 71.2016 118.569H94.4625C94.7634 118.569 95.0644 118.827 95.0644 119.171C95.0644 119.515 94.7634 119.774 94.4625 119.774Z" fill="#444444"/>
<path d="M140.21 186.046V180.713H135.567L135.438 180.154C134.836 177.488 133.804 174.993 132.342 172.671L132.041 172.198L135.352 168.886L128.773 162.306L125.463 165.618L124.99 165.317C122.668 163.855 120.174 162.822 117.508 162.22L116.949 162.091V157.404H107.662V162.048L107.103 162.177C104.438 162.779 101.944 163.812 99.6219 165.274L99.149 165.575L95.8383 162.263L89.2599 168.843L92.5706 172.155L92.2696 172.628C90.8077 174.95 89.7758 177.445 89.1739 180.111L89.0449 180.67H84.4013V186.003H82.9395V179.251H87.884C88.486 176.843 89.4319 174.52 90.7218 172.37L87.2391 168.886L95.8813 160.242L99.364 163.726C101.514 162.435 103.836 161.489 106.243 160.887V155.941H118.454V160.887C120.862 161.489 123.184 162.435 125.334 163.726L128.816 160.242L137.459 168.886L133.976 172.37C135.266 174.52 136.212 176.8 136.814 179.251H141.758V186.003H140.21V186.046Z" fill="#444444"/>
<path d="M141.543 185.917H140.339V180.584H135.653L135.567 180.111C134.965 177.445 133.933 174.907 132.471 172.585L132.213 172.155L135.524 168.843L128.73 162.134L125.42 165.446L124.99 165.188C122.668 163.725 120.131 162.693 117.465 162.091L116.992 162.005V157.317H107.49V162.005L107.017 162.091C104.351 162.693 101.815 163.725 99.4929 165.188L99.063 165.446L95.7523 162.134L89.0019 168.886L92.3126 172.198L92.0546 172.628C90.5927 174.95 89.5608 177.488 88.9589 180.154L88.8729 180.627H84.1863V185.96H82.9824V179.423H87.927C88.5289 176.928 89.5178 174.606 90.8507 172.413L87.368 168.929L95.8383 160.457L99.3209 163.941C101.514 162.607 103.836 161.661 106.329 161.016V156.07H118.239V161.016C120.733 161.618 123.055 162.607 125.248 163.941L128.73 160.457L137.201 168.929L133.718 172.413C135.051 174.606 135.997 176.928 136.642 179.423H141.586V185.917H141.543Z" fill="#444444"/>
<path d="M122.84 186.648C122.625 186.648 122.453 186.562 122.324 186.39C122.195 186.261 122.152 186.046 122.152 185.874C122.152 185.616 122.195 185.401 122.195 185.186C122.195 183.251 121.636 181.401 120.604 179.767C120.518 179.595 120.475 179.423 120.518 179.208C120.561 178.993 120.69 178.864 120.819 178.735C120.948 178.649 121.077 178.606 121.206 178.606C121.464 178.606 121.679 178.735 121.808 178.95C123.012 180.799 123.657 182.949 123.657 185.143C123.657 185.401 123.657 185.659 123.614 185.96C123.571 186.347 123.27 186.648 122.883 186.648H122.84ZM101.643 186.648C101.256 186.648 100.955 186.347 100.912 185.96C100.912 185.659 100.869 185.401 100.869 185.143C100.869 178.864 105.986 173.746 112.263 173.746C115.316 173.746 118.197 174.95 120.346 177.144C120.647 177.445 120.604 177.875 120.346 178.176C120.217 178.305 120.045 178.391 119.83 178.391C119.615 178.391 119.443 178.305 119.314 178.176C117.423 176.283 114.929 175.208 112.263 175.208C106.803 175.208 102.331 179.681 102.331 185.143C102.331 185.358 102.331 185.573 102.374 185.831C102.374 186.046 102.331 186.218 102.202 186.347C102.073 186.476 101.901 186.562 101.686 186.605L101.643 186.648Z" fill="#444444"/>
<path d="M122.883 186.519H122.84C122.496 186.476 122.238 186.218 122.281 185.874C122.281 185.616 122.324 185.358 122.324 185.143C122.324 183.207 121.765 181.315 120.69 179.681C120.518 179.38 120.604 179.036 120.862 178.864C121.163 178.692 121.507 178.778 121.679 179.036C122.883 180.842 123.485 182.992 123.485 185.143C123.485 185.401 123.485 185.659 123.442 185.96C123.442 186.261 123.184 186.519 122.883 186.519ZM101.643 186.519C101.342 186.519 101.084 186.261 101.041 185.96C101.041 185.659 100.998 185.401 100.998 185.143C100.998 178.95 106.029 173.875 112.263 173.875C115.316 173.875 118.154 175.079 120.26 177.23C120.475 177.488 120.475 177.832 120.26 178.09C120.002 178.305 119.658 178.305 119.4 178.09C117.509 176.154 114.972 175.079 112.263 175.079C106.717 175.079 102.202 179.595 102.202 185.143C102.202 185.358 102.202 185.573 102.245 185.874C102.288 186.218 102.03 186.476 101.686 186.519C101.643 186.519 101.643 186.519 101.643 186.519Z" fill="#444444"/>
</g>
<defs>
<clipPath id="clip0_4553_6290">
<rect width="221" height="218" fill="white"/>
</clipPath>
</defs>
</svg>
