<svg width="206" height="182" viewBox="0 0 206 182" fill="none" xmlns="http://www.w3.org/2000/svg">
<g clip-path="url(#clip0_4553_6459)">
<path d="M19.7329 84.403C19.5538 84.403 19.3747 84.3313 19.2315 84.1878C19.0882 84.0444 19.0166 83.8651 19.0166 83.6859C19.0166 83.5066 19.0882 83.3273 19.2315 83.1839L29.6174 72.7859C29.7607 72.6425 29.9398 72.5708 30.1188 72.5708C30.2979 72.5708 30.477 72.6425 30.6202 72.7859C30.7635 72.9294 30.8351 73.1086 30.8351 73.2879C30.8351 73.4672 30.7635 73.6465 30.6202 73.7899L20.2343 84.1878C20.091 84.3313 19.9119 84.403 19.7329 84.403ZM33.7002 70.4195C33.5211 70.4195 33.3421 70.3478 33.1988 70.2044C32.9123 69.9175 32.9123 69.4873 33.1988 69.2004L33.3779 69.0212C33.5211 68.8777 33.7002 68.806 33.8793 68.806C34.0583 68.806 34.2374 68.8777 34.3806 69.0212C34.5239 69.1646 34.5955 69.3439 34.5955 69.5231C34.5955 69.7024 34.5239 69.8817 34.3806 70.0251L34.2016 70.2044C34.0583 70.3478 33.8793 70.4195 33.7002 70.4195ZM34.2016 65.364C33.8076 65.364 33.4853 65.0413 33.4853 64.6469V54.3206C33.4853 53.9262 33.8076 53.6035 34.2016 53.6035C34.5955 53.6035 34.9179 53.9262 34.9179 54.3206V64.6469C34.9179 65.0413 34.5955 65.364 34.2016 65.364Z" fill="#444444"/>
<path d="M19.7329 84.2953C19.5538 84.2953 19.4105 84.2235 19.3031 84.116C19.1957 84.0084 19.124 83.865 19.124 83.6857C19.124 83.5064 19.1957 83.363 19.3031 83.2555L29.689 72.8575C29.7965 72.7499 29.9397 72.6782 30.1188 72.6782C30.2979 72.6782 30.4411 72.7499 30.5486 72.8575C30.656 72.9651 30.7276 73.1085 30.7276 73.2878C30.7276 73.467 30.656 73.6105 30.5486 73.718L20.1626 84.116C20.0552 84.2235 19.9119 84.2953 19.7329 84.2953ZM33.7002 70.3118C33.5211 70.3118 33.3778 70.2401 33.2704 70.1325C33.0197 69.8815 33.0197 69.523 33.2704 69.272L33.4495 69.0927C33.5569 68.9852 33.7002 68.9135 33.8792 68.9135C34.0583 68.9135 34.2016 68.9852 34.309 69.0927C34.4164 69.2003 34.4881 69.3437 34.4881 69.523C34.4881 69.7023 34.4164 69.8457 34.309 69.9533L34.1299 70.1325C33.9867 70.2401 33.8434 70.3118 33.7002 70.3118ZM34.2016 65.2562C33.8792 65.2562 33.5927 64.9694 33.5927 64.6467V54.3205C33.5927 53.9978 33.8792 53.7109 34.2016 53.7109C34.5239 53.7109 34.8104 53.9978 34.8104 54.3205V64.6467C34.8104 64.9694 34.5597 65.2562 34.2016 65.2562Z" fill="#444444"/>
<path d="M47.5249 86.9482C47.4891 86.9482 47.4532 86.9482 47.4174 86.9482C47.0593 86.9124 46.8086 86.5897 46.8086 86.1953V75.3312C46.8086 74.9727 47.0593 74.65 47.3816 74.6141C47.4174 74.6141 47.4532 74.6141 47.4891 74.6141C47.883 74.6141 48.2053 74.9368 48.2053 75.3312V86.267C48.2411 86.6255 47.9188 86.9482 47.5249 86.9482ZM47.5249 70.9928C47.1309 70.9928 46.8086 70.6701 46.8086 70.2757V70.0247C46.8086 69.6303 47.1309 69.3076 47.5249 69.3076C47.9188 69.3076 48.2411 69.6303 48.2411 70.0247V70.2757C48.2411 70.6701 47.9188 70.9928 47.5249 70.9928ZM47.5249 65.6862C47.1309 65.6862 46.8086 65.3635 46.8086 64.9691V54.6429C46.8086 54.2485 47.1309 53.9258 47.5249 53.9258C47.9188 53.9258 48.2411 54.2485 48.2411 54.6429V64.9691C48.2411 65.3635 47.9188 65.6862 47.5249 65.6862Z" fill="#444444"/>
<path d="M47.5248 86.8405C47.489 86.8405 47.4532 86.8405 47.4532 86.8405C47.1667 86.8047 46.9518 86.5178 46.9518 86.1951V75.3311C46.9518 75.0084 47.1667 74.7574 47.4532 74.7215C47.489 74.7215 47.5248 74.7215 47.5607 74.7215C47.883 74.7215 48.1695 75.0084 48.1695 75.3311V86.2669C48.1337 86.5537 47.8472 86.8405 47.5248 86.8405ZM47.5248 70.8851C47.2025 70.8851 46.916 70.5982 46.916 70.2755V70.0245C46.916 69.7018 47.2025 69.415 47.5248 69.415C47.8472 69.415 48.1337 69.7018 48.1337 70.0245V70.2755C48.1337 70.5982 47.8472 70.8851 47.5248 70.8851ZM47.5248 65.5785C47.2025 65.5785 46.916 65.2917 46.916 64.969V54.6427C46.916 54.32 47.2025 54.0332 47.5248 54.0332C47.8472 54.0332 48.1337 54.32 48.1337 54.6427V64.969C48.1337 65.3275 47.8472 65.5785 47.5248 65.5785Z" fill="#444444"/>
<path d="M29.439 54.249C29.2241 54.249 29.0092 54.249 28.8302 54.249C22.4195 54.249 17.2266 48.9783 17.2266 42.4527C17.2266 35.963 22.4195 30.6564 28.8302 30.6564C30.7641 30.6564 32.6622 31.1584 34.3455 32.0548C34.238 31.1943 34.1664 30.3337 34.1664 29.4374C34.1664 19.2904 42.2961 11.0079 52.3239 11.0079C54.1862 11.0079 56.0127 11.2947 57.7318 11.8326C62.0652 4.69741 69.5861 0.430664 77.859 0.430664C83.8399 0.430664 89.5343 2.68953 93.9035 6.81285C98.2012 10.8645 100.851 16.3144 101.389 22.2305C102.248 22.0871 103.108 22.0154 103.967 22.0154C112.706 22.0154 119.797 29.2222 119.797 38.1143C119.797 45.608 114.819 52.026 107.656 53.7471V54.1773H29.439V54.249Z" fill="#1F75BA"/>
<path d="M132.725 111.366C114.567 111.366 99.7764 96.5577 99.7764 78.3792C99.7764 60.2007 114.567 45.3926 132.725 45.3926C150.882 45.3926 165.673 60.2007 165.673 78.3792C165.673 96.5577 150.882 111.366 132.725 111.366Z" fill="white"/>
<path d="M132.725 111.258C114.603 111.258 99.8838 96.5217 99.8838 78.379C99.8838 60.2364 114.603 45.5 132.725 45.5C150.847 45.5 165.566 60.2364 165.566 78.379C165.566 96.5217 150.847 111.258 132.725 111.258Z" fill="white"/>
<path d="M97.5564 154.463C76.892 154.463 59.7372 147.363 58.3763 138.256H58.3047V52.0609C58.3047 42.4876 75.925 34.707 97.5564 34.707C119.188 34.707 136.808 42.4876 136.808 52.0609V139.045H136.557C134.373 147.83 117.648 154.463 97.5564 154.463Z" fill="white"/>
<path d="M97.5561 154.355C76.7484 154.355 59.7011 147.184 58.4834 138.149H58.376V52.0607C58.376 42.5591 75.9605 34.8145 97.5203 34.8145C119.08 34.8145 136.665 42.5591 136.665 52.0607V138.937H136.45V138.866C134.48 147.543 117.791 154.355 97.5561 154.355Z" fill="white"/>
<path d="M159.478 120.509C159.228 120.509 158.977 120.365 158.87 120.15C158.762 119.971 158.762 119.791 158.798 119.612C158.834 119.433 158.977 119.289 159.12 119.182C165.674 115.345 171.118 110.254 175.308 103.979C175.451 103.8 175.666 103.657 175.881 103.657C176.024 103.657 176.168 103.693 176.275 103.764C176.418 103.872 176.526 104.015 176.562 104.23C176.597 104.41 176.562 104.589 176.454 104.768C172.121 111.186 166.534 116.457 159.801 120.401C159.729 120.473 159.622 120.509 159.478 120.509ZM177.779 102.079C177.672 102.079 177.529 102.043 177.421 101.971C177.099 101.792 176.955 101.362 177.17 101.003C180.859 94.5495 183.115 87.1992 183.653 79.7414C183.688 79.3828 184.011 79.096 184.369 79.096H184.405C184.799 79.1319 185.085 79.4545 185.049 79.8489C184.512 87.4861 182.184 95.0515 178.388 101.721C178.245 101.936 178.03 102.079 177.779 102.079ZM184.476 76.9805C184.082 76.9805 183.76 76.6578 183.76 76.2634V76.1559C183.76 68.6263 182.113 61.3836 178.818 54.607C178.639 54.2485 178.782 53.8182 179.14 53.6748C179.248 53.6389 179.355 53.6031 179.462 53.6031C179.749 53.6031 180 53.7465 180.107 53.9975C183.474 60.9534 185.193 68.4112 185.193 76.1559V76.2634C185.193 76.6578 184.87 76.9805 184.476 76.9805ZM177.851 51.882C177.6 51.882 177.349 51.7386 177.242 51.5235C177.17 51.3801 177.099 51.2367 177.027 51.1291C173.302 44.711 168.324 39.3328 162.236 35.1736C162.093 35.066 161.985 34.9226 161.95 34.7075C161.914 34.5282 161.95 34.3489 162.057 34.1697C162.2 33.9904 162.415 33.847 162.63 33.847C162.773 33.847 162.917 33.8828 163.024 33.9545C169.256 38.2571 174.377 43.7788 178.245 50.3761C178.316 50.5196 178.388 50.663 178.495 50.8064C178.603 50.9857 178.603 51.1649 178.567 51.3442C178.531 51.5235 178.388 51.6669 178.245 51.7745C178.102 51.8462 177.958 51.882 177.851 51.882ZM159.622 33.4167C159.514 33.4167 159.371 33.3809 159.264 33.3092C152.853 29.5444 145.511 27.2138 138.098 26.6043C137.919 26.6043 137.74 26.4967 137.632 26.3533C137.525 26.2099 137.453 26.0306 137.453 25.8513C137.489 25.4928 137.775 25.2059 138.169 25.2059C138.205 25.2059 138.205 25.2059 138.241 25.2059C145.869 25.8155 153.39 28.2177 160.016 32.0901C160.338 32.3052 160.481 32.7355 160.266 33.0582C160.087 33.2733 159.872 33.4167 159.622 33.4167ZM108.659 33.345C108.408 33.345 108.158 33.2016 108.05 32.9865C107.943 32.8072 107.943 32.6279 107.978 32.4486C108.014 32.2694 108.158 32.1259 108.301 32.0184C108.587 31.875 108.838 31.6957 109.124 31.5523C109.232 31.4805 109.339 31.4447 109.483 31.4447C109.733 31.4447 109.984 31.5881 110.091 31.8032C110.271 32.1259 110.163 32.5921 109.805 32.7713C109.518 32.9147 109.268 33.094 108.981 33.2374C108.91 33.3091 108.802 33.345 108.659 33.345ZM112.634 31.2654C112.348 31.2654 112.097 31.122 111.99 30.871C111.918 30.6917 111.882 30.5125 111.954 30.3332C112.025 30.1539 112.133 30.0105 112.312 29.9388C119.152 26.7118 126.458 25.0625 134.015 25.0625C134.015 25.0625 134.481 25.0625 134.624 25.0625C134.803 25.0625 134.982 25.1342 135.125 25.2776C135.268 25.421 135.34 25.6003 135.34 25.7796C135.34 26.174 135.018 26.4608 134.624 26.4608C134.409 26.4608 134.23 26.4608 134.015 26.4608C126.673 26.4608 119.582 28.0385 112.921 31.1937C112.849 31.2296 112.742 31.2654 112.634 31.2654Z" fill="#444444"/>
<path d="M159.479 120.401C159.264 120.401 159.049 120.294 158.941 120.114C158.87 119.971 158.834 119.828 158.87 119.648C158.906 119.505 159.013 119.361 159.156 119.29C165.71 115.453 171.19 110.326 175.38 104.051C175.487 103.872 175.666 103.8 175.881 103.8C175.989 103.8 176.132 103.836 176.204 103.908C176.347 104.015 176.418 104.123 176.454 104.302C176.49 104.446 176.454 104.625 176.347 104.768C172.049 111.186 166.462 116.457 159.729 120.365C159.693 120.365 159.586 120.401 159.479 120.401ZM177.779 101.972C177.672 101.972 177.564 101.936 177.493 101.9C177.206 101.721 177.099 101.362 177.278 101.075C181.003 94.5856 183.223 87.2353 183.796 79.7775C183.832 79.4548 184.083 79.2038 184.405 79.2038H184.441C184.763 79.2397 185.014 79.5265 185.014 79.8492C184.476 87.4863 182.149 95.0159 178.352 101.649C178.173 101.864 177.994 101.972 177.779 101.972ZM184.476 76.9091C184.154 76.9091 183.868 76.6223 183.868 76.2996V76.192C183.868 68.6625 182.22 61.3839 178.925 54.6073C178.782 54.3205 178.89 53.9261 179.212 53.7826C179.283 53.7468 179.391 53.7109 179.463 53.7109C179.677 53.7109 179.892 53.8543 180 54.0695C183.366 61.0253 185.049 68.4832 185.049 76.192V76.2996C185.085 76.6223 184.835 76.9091 184.476 76.9091ZM177.851 51.7748C177.636 51.7748 177.421 51.6672 177.314 51.4521C177.242 51.3086 177.17 51.1652 177.063 51.0577C173.303 44.6396 168.325 39.2614 162.236 35.0663C162.093 34.9588 162.021 34.8512 161.985 34.6719C161.95 34.4926 161.986 34.3492 162.093 34.2058C162.2 34.0265 162.379 33.9548 162.594 33.9548C162.702 33.9548 162.845 33.9907 162.952 34.0624C169.184 38.3291 174.305 43.8508 178.137 50.4481C178.209 50.5915 178.281 50.735 178.388 50.8784C178.46 51.0218 178.496 51.1652 178.46 51.3445C178.424 51.4879 178.317 51.6313 178.173 51.703C178.066 51.7748 177.958 51.7748 177.851 51.7748ZM159.622 33.3094C159.514 33.3094 159.407 33.2736 159.299 33.2377C152.853 29.4729 145.547 27.1424 138.098 26.5328C137.919 26.5328 137.775 26.4611 137.668 26.3177C137.561 26.2101 137.525 26.0309 137.525 25.8874C137.561 25.5647 137.811 25.3138 138.134 25.3138H138.169C145.798 25.9233 153.319 28.3256 159.908 32.1979C160.195 32.3772 160.302 32.7357 160.123 33.0226C160.016 33.2019 159.837 33.3094 159.622 33.3094ZM108.659 33.2377C108.444 33.2377 108.229 33.1302 108.122 32.9509C108.05 32.8075 108.014 32.664 108.05 32.4848C108.086 32.3413 108.193 32.1979 108.337 32.1262C108.623 31.9828 108.874 31.8035 109.16 31.6601C109.268 31.6242 109.339 31.5884 109.447 31.5884C109.662 31.5884 109.877 31.696 109.984 31.9111C110.163 32.1979 110.056 32.5565 109.769 32.7357C109.483 32.8792 109.232 33.0584 108.946 33.2019C108.874 33.2019 108.766 33.2377 108.659 33.2377ZM112.634 31.1581C112.384 31.1581 112.169 31.0147 112.097 30.7996C112.025 30.6562 112.025 30.4769 112.061 30.3335C112.133 30.19 112.24 30.0466 112.384 29.9749C119.224 26.748 126.494 25.0986 134.051 25.0986C134.051 25.0986 134.516 25.0986 134.66 25.0986C134.839 25.0986 134.982 25.1703 135.089 25.2779C135.197 25.3855 135.269 25.5647 135.269 25.7082C135.269 26.0309 134.982 26.3177 134.66 26.3177C134.445 26.3177 134.266 26.3177 134.051 26.3177C126.673 26.3177 119.582 27.9312 112.921 31.0506C112.813 31.1223 112.706 31.1581 112.634 31.1581Z" fill="#444444"/>
<path d="M181.431 24.1305C181.252 24.1305 181.109 24.0588 180.966 23.9513C175.343 18.9674 169.004 14.9158 162.056 11.9398C161.877 11.8681 161.734 11.7247 161.662 11.5454C161.591 11.3662 161.591 11.1869 161.662 11.0076C161.77 10.7566 162.02 10.5773 162.307 10.5773C162.414 10.5773 162.486 10.6132 162.593 10.6491C169.649 13.6967 176.131 17.8201 181.861 22.9115C182.004 23.0549 182.076 23.1983 182.112 23.4134C182.112 23.5927 182.076 23.772 181.933 23.9154C181.825 24.0588 181.611 24.1305 181.431 24.1305ZM159.048 10.6849C158.976 10.6849 158.869 10.6849 158.797 10.6491C151.742 8.03164 144.364 6.52573 136.844 6.23889C136.664 6.23889 136.485 6.16718 136.342 6.02376C136.199 5.88034 136.163 5.70106 136.163 5.52179C136.163 5.12738 136.485 4.84054 136.879 4.84054C144.543 5.12738 152.1 6.63329 159.299 9.32242C159.657 9.46584 159.836 9.86024 159.728 10.2188C159.621 10.5056 159.334 10.6849 159.048 10.6849ZM111.094 10.0754C110.807 10.0754 110.52 9.8961 110.413 9.60926C110.27 9.25071 110.485 8.82045 110.843 8.71288C118.077 6.20303 125.67 4.8764 133.334 4.80469C133.728 4.80469 134.05 5.12738 134.05 5.52179C134.05 5.70106 133.978 5.88034 133.835 6.02376C133.692 6.16718 133.513 6.23889 133.334 6.23889C125.813 6.3106 118.399 7.60138 111.273 10.0754C111.237 10.0754 111.165 10.0754 111.094 10.0754Z" fill="#444444"/>
<path d="M181.432 24.0587C181.288 24.0587 181.145 23.987 181.038 23.9153C175.415 18.9314 169.04 14.8798 162.128 11.868C161.985 11.7963 161.878 11.6887 161.806 11.5453C161.734 11.4019 161.734 11.2226 161.806 11.0792C161.913 10.864 162.128 10.7206 162.379 10.7206C162.451 10.7206 162.558 10.7206 162.63 10.7565C169.685 13.8042 176.167 17.8916 181.897 22.983C182.005 23.0906 182.076 23.234 182.112 23.4133C182.148 23.5926 182.076 23.736 181.969 23.8436C181.754 23.9511 181.575 24.0587 181.432 24.0587ZM159.048 10.5772C158.977 10.5772 158.905 10.5772 158.833 10.5413C151.778 7.92393 144.365 6.41802 136.844 6.13118C136.665 6.13118 136.521 6.05947 136.414 5.9519C136.307 5.84434 136.235 5.66506 136.271 5.52164C136.271 5.19895 136.557 4.94796 136.88 4.94796C144.544 5.2348 152.065 6.74071 159.263 9.42984C159.585 9.5374 159.729 9.89596 159.621 10.2186C159.55 10.4338 159.299 10.5772 159.048 10.5772ZM111.094 9.96766C110.843 9.96766 110.592 9.78839 110.521 9.57326C110.413 9.25057 110.592 8.92787 110.879 8.82031C118.113 6.31045 125.67 4.98382 133.334 4.91211C133.656 4.91211 133.943 5.19895 133.943 5.52164C133.943 5.84434 133.692 6.13118 133.334 6.13118C125.777 6.20289 118.364 7.49367 111.237 9.96766C111.201 9.96766 111.13 9.96766 111.094 9.96766Z" fill="#444444"/>
<path d="M181.933 130.083C181.718 130.083 181.539 130.011 181.396 129.832C181.145 129.545 181.145 129.079 181.431 128.828C187.018 123.772 191.71 117.892 195.399 111.33C195.542 111.115 195.757 110.972 196.008 110.972C196.115 110.972 196.258 111.008 196.366 111.079C196.545 111.187 196.652 111.33 196.688 111.51C196.724 111.689 196.724 111.868 196.616 112.048C192.82 118.752 188.021 124.74 182.363 129.903C182.291 130.011 182.112 130.083 181.933 130.083ZM197.727 109.287C197.619 109.287 197.512 109.251 197.404 109.215C197.225 109.143 197.118 109 197.046 108.821C196.975 108.641 197.01 108.462 197.082 108.283C200.449 101.542 202.705 94.371 203.815 86.9131C203.851 86.5546 204.173 86.3036 204.531 86.3036C204.567 86.3036 204.603 86.3036 204.639 86.3036C204.818 86.3395 204.997 86.447 205.104 86.5905C205.212 86.7339 205.248 86.9132 205.248 87.1283C204.137 94.7295 201.809 102.08 198.371 108.928C198.228 109.143 198.013 109.287 197.727 109.287ZM204.961 84.1882C204.925 84.1882 204.925 84.1882 204.889 84.1882C204.71 84.1882 204.531 84.0806 204.424 83.9372C204.316 83.7938 204.245 83.6145 204.281 83.4352C204.495 81.1763 204.603 78.8816 204.603 76.5869C204.603 71.3521 204.03 66.1173 202.848 61.0617C202.812 60.8824 202.848 60.7031 202.955 60.5239C203.063 60.3805 203.206 60.237 203.385 60.2012C203.421 60.2012 203.493 60.2012 203.529 60.2012C203.851 60.2012 204.137 60.4163 204.209 60.739C205.391 65.938 206 71.2445 206 76.5869C206 78.9175 205.892 81.2481 205.677 83.5428C205.642 83.9013 205.319 84.1882 204.961 84.1882Z" fill="#444444"/>
<path d="M181.933 129.975C181.754 129.975 181.611 129.903 181.467 129.76C181.253 129.509 181.253 129.114 181.503 128.899C187.09 123.844 191.782 117.963 195.506 111.366C195.614 111.187 195.829 111.043 196.044 111.043C196.151 111.043 196.259 111.079 196.33 111.115C196.473 111.187 196.581 111.33 196.617 111.474C196.652 111.617 196.652 111.796 196.545 111.94C192.785 118.645 187.986 124.632 182.291 129.76C182.255 129.903 182.112 129.975 181.933 129.975ZM197.727 109.179C197.619 109.179 197.548 109.143 197.44 109.107C197.297 109.036 197.19 108.928 197.154 108.749C197.118 108.605 197.118 108.426 197.19 108.283C200.556 101.542 202.812 94.335 203.923 86.8772C203.958 86.5903 204.209 86.3752 204.531 86.3752C204.567 86.3752 204.603 86.3752 204.603 86.3752C204.746 86.411 204.89 86.4827 204.997 86.6262C205.104 86.7696 205.14 86.913 205.104 87.0923C203.994 94.6935 201.666 102.008 198.264 108.856C198.157 109.036 197.942 109.179 197.727 109.179ZM204.961 84.0805C204.925 84.0805 204.925 84.0805 204.89 84.0805C204.746 84.0805 204.567 83.9729 204.496 83.8653C204.424 83.7578 204.352 83.5785 204.352 83.4351C204.567 81.1762 204.675 78.8815 204.675 76.5868C204.675 71.3519 204.102 66.1171 202.92 61.0257C202.884 60.8823 202.92 60.703 202.991 60.5596C203.063 60.4162 203.206 60.3444 203.385 60.3086C203.421 60.3086 203.457 60.3086 203.529 60.3086C203.815 60.3086 204.066 60.5237 204.102 60.7747C205.284 65.9378 205.857 71.2802 205.857 76.5868C205.857 78.9173 205.749 81.2479 205.534 83.5426C205.534 83.8295 205.284 84.0805 204.961 84.0805Z" fill="#444444"/>
<path d="M14.9339 95.626C11.1018 95.626 7.9502 92.5066 7.9502 88.6343C7.9502 84.762 11.066 81.6426 14.9339 81.6426C18.8017 81.6426 21.9175 84.762 21.9175 88.6343C21.9175 92.5066 18.7659 95.626 14.9339 95.626Z" fill="white"/>
<path d="M14.9338 95.5183C11.1376 95.5183 8.05762 92.4348 8.05762 88.6342C8.05762 84.8335 11.1376 81.75 14.9338 81.75C18.7301 81.75 21.8101 84.8335 21.8101 88.6342C21.8101 92.4348 18.7301 95.5183 14.9338 95.5183Z" fill="white"/>
<path d="M14.9343 96.128C10.8157 96.128 7.44922 92.7576 7.44922 88.6343C7.44922 84.511 10.8157 81.1406 14.9343 81.1406C19.0528 81.1406 22.4193 84.511 22.4193 88.6343C22.4193 92.7576 19.0528 96.128 14.9343 96.128ZM14.9343 82.5748C11.6036 82.5748 8.88176 85.2998 8.88176 88.6343C8.88176 91.9688 11.6036 94.6938 14.9343 94.6938C18.2649 94.6938 20.9868 91.9688 20.9868 88.6343C20.9868 85.2998 18.2649 82.5748 14.9343 82.5748Z" fill="#444444"/>
<path d="M14.9342 96.0203C10.8873 96.0203 7.55664 92.7216 7.55664 88.6342C7.55664 84.5826 10.8515 81.248 14.9342 81.248C19.017 81.248 22.3119 84.5467 22.3119 88.6342C22.3119 92.7216 19.017 96.0203 14.9342 96.0203ZM14.9342 82.4671C11.532 82.4671 8.7743 85.2279 8.7743 88.6342C8.7743 92.0404 11.532 94.8012 14.9342 94.8012C18.3365 94.8012 21.0942 92.0404 21.0942 88.6342C21.0942 85.2638 18.3365 82.4671 14.9342 82.4671Z" fill="#444444"/>
<path d="M47.5247 100.179C43.6926 100.179 40.541 97.0594 40.541 93.187C40.541 89.3147 43.6568 86.1953 47.5247 86.1953C51.3925 86.1953 54.5083 89.3147 54.5083 93.187C54.5083 97.0594 51.3567 100.179 47.5247 100.179Z" fill="white"/>
<path d="M47.5247 100.106C43.7284 100.106 40.6484 97.0227 40.6484 93.2221C40.6484 89.4214 43.7284 86.3379 47.5247 86.3379C51.3209 86.3379 54.4009 89.4214 54.4009 93.2221C54.4009 97.0227 51.3209 100.106 47.5247 100.106Z" fill="white"/>
<path d="M47.5251 100.681C43.4065 100.681 40.04 97.3104 40.04 93.1871C40.04 89.0637 43.4065 85.6934 47.5251 85.6934C51.6437 85.6934 55.0101 89.0637 55.0101 93.1871C55.0101 97.3462 51.6437 100.681 47.5251 100.681ZM47.5251 87.1634C44.1944 87.1634 41.4726 89.8884 41.4726 93.2229C41.4726 96.5574 44.1944 99.2824 47.5251 99.2824C50.8558 99.2824 53.5776 96.5574 53.5776 93.2229C53.5776 89.8884 50.8558 87.1634 47.5251 87.1634Z" fill="#444444"/>
<path d="M47.5251 100.608C43.4781 100.608 40.1475 97.3095 40.1475 93.2221C40.1475 89.1705 43.4423 85.8359 47.5251 85.8359C51.6078 85.8359 54.9027 89.1346 54.9027 93.2221C54.9027 97.2737 51.6078 100.608 47.5251 100.608ZM47.5251 87.055C44.1228 87.055 41.3651 89.8158 41.3651 93.2221C41.3651 96.6283 44.1228 99.3891 47.5251 99.3891C50.9274 99.3891 53.685 96.6283 53.685 93.2221C53.685 89.8158 50.9274 87.055 47.5251 87.055Z" fill="#444444"/>
<path d="M135.912 139.117V52.0609C135.912 47.7941 132.009 43.7067 124.882 40.5873C117.576 37.3962 107.87 35.6393 97.5559 35.6393C87.2057 35.6393 77.5002 37.3962 70.2301 40.5873C63.139 43.7067 59.1995 47.7941 59.1995 52.0609V138.364H57.8027V52.0609C57.8027 47.1846 62.0287 42.631 69.657 39.2965C77.1063 36.0337 87.0267 34.2051 97.5559 34.2051C108.085 34.2051 118.005 35.9978 125.455 39.2965C133.119 42.6669 137.309 47.1846 137.309 52.0609V139.117H135.912Z" fill="#444444"/>
<path d="M135.984 139.045V52.0607C135.984 47.7223 132.044 43.6348 124.917 40.4796C117.611 37.2885 107.906 35.4957 97.5558 35.4957C87.2057 35.4957 77.4644 37.2526 70.1942 40.4796C63.0673 43.5989 59.1278 47.7223 59.1278 52.0607V138.256H57.9102V52.0607C57.9102 47.2203 62.1004 42.7384 69.7287 39.3681C77.1779 36.1053 87.0625 34.3125 97.5917 34.3125C108.121 34.3125 118.005 36.1053 125.455 39.3681C133.083 42.7026 137.273 47.2203 137.273 52.0607V139.045H135.984Z" fill="#444444"/>
<path d="M97.5559 154.965C87.0267 154.965 77.1063 153.173 69.657 149.874C61.9929 146.504 57.8027 141.986 57.8027 137.11V136.895H59.1995V137.11C59.1995 141.376 63.1032 145.464 70.2301 148.583C77.536 151.774 87.2415 153.531 97.5559 153.531C107.906 153.531 117.612 151.774 124.882 148.583C131.973 145.464 135.912 141.376 135.912 137.11V136.895H137.309V137.11C137.309 141.986 133.083 146.54 125.455 149.874C117.97 153.137 108.085 154.965 97.5559 154.965Z" fill="#444444"/>
<path d="M97.5565 154.858C87.0273 154.858 77.1427 153.065 69.6935 149.802C62.0652 146.468 57.875 141.95 57.875 137.11V137.002H59.0927V137.11C59.0927 141.448 63.0322 145.535 70.1591 148.691C77.4651 151.882 87.1705 153.675 97.5207 153.675C107.871 153.675 117.612 151.918 124.882 148.691C132.009 145.571 135.949 141.448 135.949 137.11V137.002H137.166V137.11C137.166 141.95 132.976 146.432 125.348 149.802C117.97 153.065 108.05 154.858 97.5565 154.858Z" fill="#444444"/>
<path d="M97.5559 133.704C87.0267 133.704 77.1063 131.911 69.657 128.612C61.9929 125.242 57.8027 120.724 57.8027 115.848V115.633H59.1995V115.848C59.1995 120.115 63.1032 124.202 70.2301 127.322C77.536 130.513 87.2415 132.27 97.5559 132.27C107.906 132.27 117.612 130.513 124.882 127.322C131.973 124.202 135.912 120.115 135.912 115.848V115.633H137.309V115.848C137.309 120.724 133.083 125.278 125.455 128.612C117.97 131.875 108.085 133.704 97.5559 133.704Z" fill="#444444"/>
<path d="M97.5565 133.596C87.0273 133.596 77.1427 131.803 69.6935 128.54C62.0652 125.206 57.875 120.688 57.875 115.848V115.74H59.0927V115.848C59.0927 120.186 63.0322 124.274 70.1591 127.429C77.4651 130.62 87.1705 132.413 97.5207 132.413C107.871 132.413 117.612 130.656 124.882 127.429C132.009 124.31 135.949 120.186 135.949 115.848V115.74H137.166V115.848C137.166 120.688 132.976 125.17 125.348 128.54C117.97 131.803 108.05 133.596 97.5565 133.596Z" fill="#444444"/>
<path d="M97.5559 112.442C87.0267 112.442 77.1063 110.649 69.657 107.351C61.9929 103.98 57.8027 99.4625 57.8027 94.5862V94.3711H59.1995V94.5862C59.1995 98.853 63.1032 102.94 70.2301 106.06C77.536 109.251 87.2415 111.008 97.5559 111.008C107.87 111.008 117.612 109.251 124.882 106.06C131.973 102.94 135.912 98.853 135.912 94.5862V94.3711H137.309V94.5862C137.309 99.4625 133.083 104.016 125.455 107.351C117.97 110.613 108.085 112.442 97.5559 112.442Z" fill="#444444"/>
<path d="M97.5565 112.334C87.0273 112.334 77.1427 110.542 69.6935 107.279C62.0652 103.944 57.875 99.4265 57.875 94.5861V94.4785H59.0927V94.5861C59.0927 98.9245 63.0322 103.012 70.1591 106.167C77.4651 109.358 87.1705 111.151 97.5207 111.151C107.871 111.151 117.612 109.394 124.882 106.167C132.009 103.048 135.949 98.9245 135.949 94.5861V94.4785H137.166V94.5861C137.166 99.4265 132.976 103.908 125.348 107.279C117.97 110.542 108.05 112.334 97.5565 112.334Z" fill="#444444"/>
<path d="M97.5559 91.1783C87.0267 91.1783 77.1063 89.3856 69.657 86.0869C61.9929 82.7166 57.8027 78.1988 57.8027 73.3226V73.1074H59.1995V73.3226C59.1995 77.5893 63.1032 81.6768 70.2301 84.7962C77.536 87.9873 87.2415 89.7441 97.5559 89.7441C107.906 89.7441 117.612 87.9873 124.882 84.7962C131.973 81.6768 135.912 77.5893 135.912 73.3226V73.1074H137.309V73.3226C137.309 78.1988 133.083 82.7524 125.455 86.0869C117.97 89.3497 108.085 91.1783 97.5559 91.1783Z" fill="#444444"/>
<path d="M97.5565 91.0726C87.0273 91.0726 77.1427 89.2798 69.6935 86.017C62.0652 82.6825 57.875 78.1648 57.875 73.3244V73.2168H59.0927V73.3244C59.0927 77.6628 63.0322 81.7503 70.1591 84.9055C77.4651 88.0966 87.1705 89.8894 97.5207 89.8894C107.871 89.8894 117.612 88.1325 124.882 84.9055C132.009 81.7861 135.949 77.6628 135.949 73.3244V73.2168H137.166V73.3244C137.166 78.1648 132.976 82.6467 125.348 86.017C117.97 89.2798 108.05 91.0726 97.5565 91.0726Z" fill="#444444"/>
<path d="M97.5559 69.9167C87.0267 69.9167 77.1063 68.1239 69.657 64.8253C61.9929 61.4549 57.8027 56.9372 57.8027 52.0609C57.8027 47.1846 62.0287 42.631 69.657 39.2965C77.1063 36.0337 87.0267 34.2051 97.5559 34.2051C108.085 34.2051 118.005 35.9978 125.455 39.2965C133.119 42.6669 137.309 47.1846 137.309 52.0609C137.309 56.9372 133.083 61.4907 125.455 64.8253C117.97 68.0881 108.085 69.9167 97.5559 69.9167ZM97.5559 35.6034C87.2057 35.6034 77.5002 37.3603 70.2301 40.5514C63.139 43.6708 59.1995 47.7583 59.1995 52.025C59.1995 56.2918 63.1032 60.3792 70.2301 63.4986C77.536 66.6897 87.2415 68.4466 97.5559 68.4466C107.906 68.4466 117.612 66.6897 124.882 63.4986C131.973 60.3792 135.912 56.2918 135.912 52.025C135.912 47.7583 132.009 43.6708 124.882 40.5514C117.576 37.3603 107.87 35.6034 97.5559 35.6034Z" fill="#444444"/>
<path d="M97.5565 69.809C87.0273 69.809 77.1427 68.0162 69.6935 64.7534C62.0652 61.4189 57.875 56.9012 57.875 52.0607C57.875 47.2203 62.0652 42.7384 69.6935 39.3681C77.1427 36.1053 87.0273 34.3125 97.5565 34.3125C108.086 34.3125 117.97 36.1053 125.42 39.3681C133.048 42.7026 137.238 47.2203 137.238 52.0607C137.238 56.9012 133.048 61.383 125.42 64.7534C117.97 67.9804 108.05 69.809 97.5565 69.809ZM97.5565 35.4957C87.2064 35.4957 77.4651 37.2526 70.1949 40.4796C63.068 43.5989 59.1285 47.7223 59.1285 52.0607C59.1285 56.3992 63.068 60.4867 70.1949 63.6419C77.5009 66.833 87.2064 68.6257 97.5565 68.6257C107.907 68.6257 117.648 66.8688 124.918 63.6419C132.045 60.5225 135.985 56.3992 135.985 52.0607C135.985 47.7223 132.045 43.6348 124.918 40.4796C117.612 37.2526 107.907 35.4957 97.5565 35.4957Z" fill="#444444"/>
<path d="M64.8225 73.4319C63.0318 73.4319 61.5635 71.9618 61.5635 70.1691C61.5635 68.3763 63.0318 66.9062 64.8225 66.9062C66.6132 66.9062 68.0816 68.3763 68.0816 70.1691C68.0816 71.9618 66.6132 73.4319 64.8225 73.4319Z" fill="white"/>
<path d="M64.8225 73.3593C63.1034 73.3593 61.6709 71.961 61.6709 70.2041C61.6709 68.4472 63.0676 67.0488 64.8225 67.0488C66.5416 67.0488 67.9741 68.4472 67.9741 70.2041C67.9741 71.961 66.5416 73.3593 64.8225 73.3593Z" fill="white"/>
<path d="M64.8229 73.9338C62.7457 73.9338 61.0625 72.2487 61.0625 70.1691C61.0625 68.0895 62.7457 66.4043 64.8229 66.4043C66.9001 66.4043 68.5834 68.0895 68.5834 70.1691C68.5834 72.2487 66.9001 73.9338 64.8229 73.9338ZM64.8229 67.8385C63.5336 67.8385 62.495 68.8783 62.495 70.1691C62.495 71.4599 63.5336 72.4996 64.8229 72.4996C66.1122 72.4996 67.1508 71.4599 67.1508 70.1691C67.1508 68.9141 66.1122 67.8385 64.8229 67.8385Z" fill="#444444"/>
<path d="M64.8229 73.8613C62.8173 73.8613 61.1699 72.212 61.1699 70.2041C61.1699 68.1962 62.8173 66.5469 64.8229 66.5469C66.8285 66.5469 68.4759 68.1962 68.4759 70.2041C68.4759 72.212 66.8285 73.8613 64.8229 73.8613ZM64.8229 67.7659C63.462 67.7659 62.3876 68.8774 62.3876 70.2041C62.3876 71.5666 63.4978 72.6422 64.8229 72.6422C66.148 72.6422 67.2582 71.5307 67.2582 70.2041C67.2582 68.8416 66.1838 67.7659 64.8229 67.7659Z" fill="#444444"/>
<path d="M64.8225 96.3069C63.0318 96.3069 61.5635 94.8368 61.5635 93.0441C61.5635 91.2513 63.0318 89.7812 64.8225 89.7812C66.6132 89.7812 68.0816 91.2513 68.0816 93.0441C68.0816 94.8368 66.6132 96.3069 64.8225 96.3069Z" fill="white"/>
<path d="M64.8225 96.1991C63.1034 96.1991 61.6709 94.8008 61.6709 93.0439C61.6709 91.287 63.0676 89.8887 64.8225 89.8887C66.5416 89.8887 67.9741 91.287 67.9741 93.0439C67.9741 94.8008 66.5416 96.1991 64.8225 96.1991Z" fill="white"/>
<path d="M64.8229 96.8088C62.7457 96.8088 61.0625 95.1237 61.0625 93.0441C61.0625 90.9645 62.7457 89.2793 64.8229 89.2793C66.9001 89.2793 68.5834 90.9645 68.5834 93.0441C68.5834 95.1237 66.9001 96.8088 64.8229 96.8088ZM64.8229 90.7135C63.5336 90.7135 62.495 91.7533 62.495 93.0441C62.495 94.3349 63.5336 95.3746 64.8229 95.3746C66.1122 95.3746 67.1508 94.3349 67.1508 93.0441C67.1508 91.7533 66.1122 90.7135 64.8229 90.7135Z" fill="#444444"/>
<path d="M64.8229 96.7011C62.8173 96.7011 61.1699 95.0518 61.1699 93.0439C61.1699 91.036 62.8173 89.3867 64.8229 89.3867C66.8285 89.3867 68.4759 91.036 68.4759 93.0439C68.4759 95.0518 66.8285 96.7011 64.8229 96.7011ZM64.8229 90.6058C63.462 90.6058 62.3876 91.7173 62.3876 93.0439C62.3876 94.4064 63.4978 95.4821 64.8229 95.4821C66.148 95.4821 67.2582 94.3706 67.2582 93.0439C67.2582 91.7173 66.1838 90.6058 64.8229 90.6058Z" fill="#444444"/>
<path d="M64.8225 117.641C63.0318 117.641 61.5635 116.171 61.5635 114.378C61.5635 112.585 63.0318 111.115 64.8225 111.115C66.6132 111.115 68.0816 112.585 68.0816 114.378C68.0816 116.171 66.6132 117.641 64.8225 117.641Z" fill="white"/>
<path d="M64.8225 117.533C63.1034 117.533 61.6709 116.135 61.6709 114.378C61.6709 112.657 63.0676 111.223 64.8225 111.223C66.5416 111.223 67.9741 112.621 67.9741 114.378C67.9741 116.099 66.5416 117.533 64.8225 117.533Z" fill="white"/>
<path d="M64.8229 118.143C62.7457 118.143 61.0625 116.458 61.0625 114.378C61.0625 112.298 62.7457 110.613 64.8229 110.613C66.9001 110.613 68.5834 112.298 68.5834 114.378C68.5834 116.458 66.9001 118.143 64.8229 118.143ZM64.8229 112.047C63.5336 112.047 62.495 113.087 62.495 114.378C62.495 115.669 63.5336 116.709 64.8229 116.709C66.1122 116.709 67.1508 115.669 67.1508 114.378C67.1508 113.087 66.1122 112.047 64.8229 112.047Z" fill="#444444"/>
<path d="M64.8229 118.035C62.8173 118.035 61.1699 116.386 61.1699 114.378C61.1699 112.37 62.8173 110.721 64.8229 110.721C66.8285 110.721 68.4759 112.37 68.4759 114.378C68.4759 116.386 66.8285 118.035 64.8229 118.035ZM64.8229 111.94C63.462 111.94 62.3876 113.051 62.3876 114.378C62.3876 115.74 63.4978 116.816 64.8229 116.816C66.148 116.816 67.2582 115.705 67.2582 114.378C67.2582 113.015 66.1838 111.94 64.8229 111.94Z" fill="#444444"/>
<path d="M64.8229 138.795C62.7457 138.795 61.0625 137.11 61.0625 135.03C61.0625 132.951 62.7457 131.266 64.8229 131.266C66.9001 131.266 68.5834 132.951 68.5834 135.03C68.5834 137.11 66.9001 138.795 64.8229 138.795ZM64.8229 132.7C63.5336 132.7 62.495 133.74 62.495 135.03C62.495 136.321 63.5336 137.361 64.8229 137.361C66.1122 137.361 67.1508 136.321 67.1508 135.03C67.1508 133.74 66.1122 132.7 64.8229 132.7Z" fill="#444444"/>
<path d="M64.8229 138.687C62.8173 138.687 61.1699 137.038 61.1699 135.03C61.1699 133.022 62.8173 131.373 64.8229 131.373C66.8285 131.373 68.4759 133.022 68.4759 135.03C68.4759 137.038 66.8285 138.687 64.8229 138.687ZM64.8229 132.592C63.462 132.592 62.3876 133.704 62.3876 135.03C62.3876 136.393 63.4978 137.468 64.8229 137.468C66.148 137.468 67.2582 136.357 67.2582 135.03C67.2582 133.704 66.1838 132.592 64.8229 132.592Z" fill="#444444"/>
<path d="M132.797 181.498V175.008C129.215 174.183 125.813 172.785 122.697 170.813L118.113 175.402L107.62 164.897L112.204 160.307C110.234 157.188 108.837 153.782 108.014 150.196H101.531V135.352H108.014C108.837 131.767 110.234 128.36 112.204 125.241L107.62 120.652L118.113 110.146L122.697 114.736C125.813 112.764 129.215 111.365 132.797 110.541V104.051H147.623V110.541C151.205 111.365 154.607 112.764 157.723 114.736L162.307 110.146L172.8 120.652L168.216 125.241C170.186 128.36 171.583 131.767 172.406 135.352H178.889V150.196H172.406C171.583 153.782 170.186 157.188 168.216 160.307L172.8 164.897L162.307 175.402L157.723 170.813C154.607 172.785 151.205 174.183 147.623 175.008V181.498H132.797ZM140.21 132.842C134.766 132.842 130.29 137.288 130.29 142.774C130.29 148.26 134.73 152.706 140.21 152.706C145.689 152.706 150.13 148.26 150.13 142.774C150.13 137.288 145.654 132.842 140.21 132.842Z" fill="white"/>
<path d="M132.904 181.391V174.937C129.287 174.113 125.849 172.678 122.697 170.706L118.113 175.296L107.763 164.934L112.347 160.344C110.342 157.189 108.945 153.747 108.121 150.126H101.675V135.461H108.121C108.945 131.84 110.378 128.397 112.347 125.242L107.763 120.653L118.113 110.291L122.697 114.88C125.849 112.872 129.287 111.474 132.904 110.649V104.195H147.552V110.649C151.169 111.474 154.607 112.908 157.759 114.88L162.343 110.291L172.693 120.653L168.109 125.242C170.115 128.397 171.511 131.84 172.335 135.461H178.782V150.126H172.335C171.511 153.747 170.079 157.189 168.109 160.344L172.693 164.934L162.343 175.296L157.759 170.67C154.607 172.678 151.169 174.077 147.552 174.901V181.355H132.904V181.391ZM140.21 132.736C134.695 132.736 130.218 137.218 130.218 142.739C130.218 148.261 134.695 152.743 140.21 152.743C145.726 152.743 150.202 148.261 150.202 142.739C150.202 137.218 145.726 132.736 140.21 132.736Z" fill="white"/>
<path d="M132.296 182V175.403C128.929 174.578 125.742 173.252 122.769 171.459L118.113 176.12L106.904 164.897L111.559 160.236C109.769 157.26 108.408 154.069 107.62 150.699H101.03V134.815H107.62C108.444 131.445 109.769 128.254 111.559 125.278L106.904 120.617L118.113 109.394L122.769 114.055C125.742 112.262 128.929 110.9 132.296 110.111V103.514H148.161V110.111C151.527 110.936 154.715 112.262 157.687 114.055L162.343 109.394L173.553 120.617L168.897 125.278C170.688 128.254 172.049 131.445 172.837 134.815H179.426V150.699H172.837C172.013 154.069 170.688 157.26 168.897 160.236L173.553 164.897L162.343 176.12L157.687 171.459C154.715 173.252 151.527 174.614 148.161 175.403V182H132.296ZM146.728 180.566V174.256L147.266 174.148C150.847 173.359 154.249 171.925 157.365 169.953L157.831 169.666L162.272 174.112L171.476 164.897L167.035 160.451L167.321 159.985C169.291 156.866 170.724 153.46 171.511 149.874L171.619 149.336H177.994V136.249H171.691L171.583 135.711C170.759 132.126 169.363 128.72 167.393 125.6L167.106 125.134L171.547 120.688L162.343 111.473L157.902 115.919L157.437 115.633C154.321 113.661 150.919 112.226 147.337 111.438L146.8 111.33V105.02H133.764V111.33L133.227 111.438C129.645 112.226 126.243 113.661 123.127 115.633L122.662 115.919L118.221 111.473L109.017 120.688L113.458 125.134L113.171 125.6C111.201 128.72 109.769 132.126 108.981 135.711L108.873 136.249H102.427V149.301H108.73L108.838 149.838C109.661 153.424 111.058 156.83 113.028 159.949L113.314 160.416L108.873 164.862L118.078 174.076L122.518 169.63L122.984 169.917C126.1 171.889 129.502 173.323 133.083 174.112L133.621 174.22V180.53H146.728V180.566ZM140.21 153.567C134.265 153.567 129.395 148.727 129.395 142.739C129.395 136.787 134.23 131.911 140.21 131.911C146.155 131.911 151.026 136.751 151.026 142.739C151.026 148.727 146.155 153.567 140.21 153.567ZM140.21 133.345C135.017 133.345 130.827 137.576 130.827 142.739C130.827 147.938 135.053 152.133 140.21 152.133C145.368 152.133 149.594 147.902 149.594 142.739C149.594 137.576 145.403 133.345 140.21 133.345Z" fill="#444444"/>
<path d="M132.403 181.893V175.331C129.001 174.506 125.742 173.18 122.769 171.315L118.113 175.976L107.047 164.897L111.703 160.236C109.876 157.224 108.515 153.997 107.692 150.591H101.138V134.923H107.692C108.515 131.516 109.84 128.253 111.703 125.278L107.047 120.616L118.113 109.537L122.769 114.198C125.777 112.37 129.001 111.007 132.403 110.183V103.621H148.054V110.183C151.456 111.007 154.715 112.334 157.687 114.198L162.343 109.537L173.41 120.616L168.754 125.278C170.58 128.289 171.941 131.516 172.765 134.923H179.319V150.591H172.765C171.941 153.997 170.616 157.26 168.754 160.236L173.41 164.897L162.343 175.976L157.687 171.315C154.679 173.144 151.456 174.506 148.054 175.331V181.893H132.403ZM146.836 180.673V174.363L147.301 174.255C150.919 173.431 154.321 172.032 157.437 170.06L157.831 169.809L162.307 174.291L171.655 164.933L167.178 160.451L167.429 160.057C169.398 156.937 170.831 153.495 171.619 149.91L171.726 149.444H178.03V136.213H171.726L171.619 135.747C170.795 132.126 169.398 128.72 167.429 125.6L167.178 125.206L171.655 120.724L162.307 111.366L157.831 115.848L157.437 115.597C154.321 113.625 150.883 112.19 147.301 111.402L146.836 111.151V104.84H133.585V111.151L133.119 111.258C129.502 112.083 126.1 113.481 122.984 115.453L122.59 115.704L118.113 111.222L108.766 120.581L113.243 125.062L112.992 125.457C111.022 128.576 109.59 132.018 108.802 135.604L108.694 136.07H102.391V149.3H108.694L108.802 149.766C109.626 153.388 111.022 156.794 112.992 159.913L113.243 160.308L108.766 164.79L118.113 174.148L122.59 169.666L122.984 169.917C126.1 171.889 129.538 173.323 133.119 174.112L133.585 174.22V180.53H146.836V180.673ZM140.21 153.46C134.301 153.46 129.502 148.655 129.502 142.739C129.502 136.823 134.301 132.018 140.21 132.018C146.12 132.018 150.919 136.823 150.919 142.739C150.919 148.655 146.12 153.46 140.21 153.46ZM140.21 133.237C134.982 133.237 130.72 137.504 130.72 142.739C130.72 147.974 134.982 152.24 140.21 152.24C145.439 152.24 149.701 147.974 149.701 142.739C149.701 137.504 145.439 133.237 140.21 133.237Z" fill="#444444"/>
<path d="M2.61398 169.02C1.43213 169.02 0.500977 168.052 0.500977 166.905V112.369C0.500977 111.186 1.46794 110.254 2.61398 110.254H32.017C32.9123 110.254 33.7002 110.828 34.0225 111.652L37.1741 120.257H76.2826C77.4645 120.257 78.3956 121.226 78.3956 122.373V166.941C78.3956 168.124 77.4287 169.056 76.2826 169.056H2.61398V169.02Z" fill="#1F75BA"/>
<path d="M2.61396 168.948C1.50374 168.948 0.608398 168.052 0.608398 166.941V112.369C0.608398 111.258 1.50374 110.361 2.61396 110.361H32.017C32.8765 110.361 33.6286 110.899 33.9151 111.688L37.1025 120.365H76.2826C77.3928 120.365 78.2882 121.261 78.2882 122.373V166.941C78.2882 168.052 77.3928 168.948 76.2826 168.948H2.61396Z" fill="#1F75BA"/>
<path d="M177.886 60.4166C173.194 60.4166 169.362 56.5801 169.362 51.8831C169.362 47.1861 173.194 43.3496 177.886 43.3496C182.578 43.3496 186.41 47.1861 186.41 51.8831C186.41 56.5801 182.578 60.4166 177.886 60.4166Z" fill="white"/>
<path d="M177.886 60.3089C173.23 60.3089 169.47 56.5441 169.47 51.883C169.47 47.2218 173.23 43.457 177.886 43.457C182.542 43.457 186.302 47.2218 186.302 51.883C186.266 56.5441 182.506 60.3089 177.886 60.3089Z" fill="white"/>
<path d="M177.886 60.9186C172.908 60.9186 168.861 56.867 168.861 51.8831C168.861 46.8993 172.908 42.8477 177.886 42.8477C182.864 42.8477 186.911 46.8993 186.911 51.8831C186.876 56.867 182.829 60.9186 177.886 60.9186ZM177.886 44.2819C173.696 44.2819 170.294 47.6881 170.294 51.8831C170.294 56.0782 173.696 59.4844 177.886 59.4844C182.077 59.4844 185.479 56.0782 185.479 51.8831C185.479 47.6881 182.077 44.2819 177.886 44.2819Z" fill="#444444"/>
<path d="M177.886 60.8109C172.98 60.8109 168.969 56.7951 168.969 51.883C168.969 46.9708 172.98 42.9551 177.886 42.9551C182.793 42.9551 186.804 46.9708 186.804 51.883C186.804 56.7951 182.793 60.8109 177.886 60.8109ZM177.886 44.1741C173.625 44.1741 170.186 47.6521 170.186 51.883C170.186 56.1139 173.66 59.5918 177.886 59.5918C182.148 59.5918 185.586 56.1139 185.586 51.883C185.586 47.6521 182.112 44.1741 177.886 44.1741Z" fill="#444444"/>
<path d="M173.409 52.0261L174.519 51.1656L177.17 54.6077L181.503 47.5801L182.721 48.333L177.313 57.0817L173.409 52.0261Z" fill="#444444"/>
<path d="M173.553 52.0611L174.484 51.3082L177.206 54.7861L181.539 47.7227L182.578 48.368L177.313 56.9015L173.553 52.0611Z" fill="#444444"/>
</g>
<defs>
<clipPath id="clip0_4553_6459">
<rect width="206" height="182" fill="white"/>
</clipPath>
</defs>
</svg>
