<svg width="231" height="206" viewBox="0 0 231 206" fill="none" xmlns="http://www.w3.org/2000/svg">
<g clip-path="url(#clip0_4553_6942)">
<path d="M100.098 162.536C98.5602 162.536 97.022 162.211 95.5649 161.643C95.0387 161.44 94.472 161.196 93.8649 160.912C92.5696 161.562 91.1934 161.886 89.7767 161.886C85.1624 161.886 81.2766 158.477 80.6695 153.891C80.0219 154.013 79.3338 154.054 78.6457 154.054C72.2099 154.054 66.9884 148.818 66.9884 142.366C66.9884 142.325 66.9884 142.244 66.9884 142.203C59.3383 140.539 53.793 133.64 53.7121 125.808L53.5502 125.727C46.062 124.225 40.5977 117.569 40.5977 109.859C40.5977 106.166 41.8524 102.554 44.1596 99.7128V99.5911C43.6739 98.0084 43.431 96.385 43.431 94.7211C43.431 87.9843 47.4787 82.0592 53.7121 79.6242C54.1168 71.9946 59.5407 65.5824 66.9479 63.9591C66.9479 63.9185 66.9479 63.8374 66.9479 63.7968C66.9479 57.3441 72.1694 52.1088 78.6052 52.1088C79.2528 52.1088 79.9409 52.1494 80.629 52.2712C81.2362 47.7259 85.1219 44.2763 89.7363 44.2763C91.1529 44.2763 92.5291 44.6009 93.8244 45.2503C94.4315 44.9662 94.9982 44.7227 95.5244 44.5198C96.9816 43.911 98.5197 43.627 100.058 43.627C106.575 43.627 111.877 48.9433 111.877 55.4772V150.726C111.917 157.219 106.615 162.536 100.098 162.536Z" fill="white"/>
<path d="M100.098 162.454C98.5604 162.454 97.0627 162.17 95.6056 161.561C95.0794 161.317 94.4722 161.074 93.8651 160.79C92.5698 161.439 91.2341 161.764 89.7769 161.764C85.1626 161.764 81.3173 158.314 80.7911 153.769C80.103 153.891 79.3744 153.972 78.6863 153.972C72.3315 153.972 67.1505 148.777 67.1505 142.406C67.1505 142.324 67.1505 142.243 67.1505 142.162C59.5004 140.539 53.9147 133.68 53.8742 125.767L53.6313 125.645C46.1836 124.143 40.7598 117.528 40.7598 109.858C40.7598 106.165 42.0145 102.594 44.3217 99.7528L44.3622 99.5904C43.8765 98.0077 43.6336 96.3844 43.6336 94.7205C43.6336 88.0242 47.6408 82.1397 53.8337 79.7047L53.9147 79.6641C54.279 72.0345 59.7028 65.6224 67.1505 64.0396C67.1505 63.9584 67.1505 63.8773 67.1505 63.7961C67.1505 57.4246 72.3315 52.2299 78.6863 52.2299C79.3744 52.2299 80.103 52.3111 80.7911 52.4328C81.3173 47.8469 85.1626 44.438 89.7769 44.438C91.1936 44.438 92.5698 44.7626 93.8651 45.412C94.5127 45.1279 95.0794 44.8844 95.6056 44.6409C97.0627 44.0321 98.5604 43.748 100.098 43.748C106.575 43.748 111.837 49.0239 111.837 55.5172V150.766C111.796 157.178 106.534 162.454 100.098 162.454Z" fill="white"/>
<path d="M131.103 162.535C128.068 162.535 125.032 161.318 122.846 159.167C120.539 156.935 119.284 153.931 119.284 150.685V55.4362C119.284 48.9023 124.587 43.5859 131.103 43.5859C132.641 43.5859 134.18 43.9106 135.637 44.4788C136.163 44.6817 136.73 44.9252 137.337 45.2093C138.632 44.5599 140.008 44.2353 141.425 44.2353C146.039 44.2353 149.925 47.6442 150.532 52.2301C151.18 52.1084 151.868 52.0678 152.556 52.0678C158.992 52.0678 164.213 57.303 164.213 63.7558C164.213 63.7963 164.213 63.8775 164.213 63.9181C171.62 65.5414 177.085 71.9536 177.449 79.5832L177.49 79.6238C183.723 82.0588 187.73 87.9839 187.73 94.7207C187.73 96.3846 187.487 98.0079 187.002 99.5907V99.7124C189.309 102.594 190.563 106.206 190.563 109.858C190.563 117.569 185.099 124.265 177.57 125.767L177.449 125.848C177.368 133.681 171.823 140.58 164.173 142.244C164.173 142.284 164.173 142.365 164.173 142.406C164.173 148.859 158.951 154.094 152.515 154.094C151.868 154.094 151.18 154.053 150.492 153.931C149.884 158.477 145.999 161.926 141.384 161.926C139.968 161.926 138.592 161.602 137.296 160.952C136.689 161.236 136.122 161.48 135.596 161.683C134.18 162.251 132.641 162.535 131.103 162.535Z" fill="white"/>
<path d="M131.104 162.455C128.109 162.455 125.113 161.237 122.928 159.127C120.661 156.895 119.406 153.932 119.406 150.726V55.4371C119.406 48.9438 124.668 43.668 131.144 43.668C132.683 43.668 134.18 43.9521 135.637 44.5608C136.164 44.8043 136.771 45.0478 137.378 45.3319C138.673 44.6825 140.009 44.3579 141.466 44.3579C146.08 44.3579 149.926 47.8074 150.452 52.3528C151.14 52.231 151.868 52.1498 152.557 52.1498C158.911 52.1498 164.092 57.3445 164.092 63.716C164.092 63.7972 164.092 63.8784 164.092 63.9595C171.54 65.5423 176.964 71.9544 177.328 79.584L177.409 79.6246C183.602 82.0596 187.609 87.9442 187.609 94.5998C187.609 96.2637 187.366 97.887 186.881 99.4698L186.921 99.6321C189.228 102.473 190.483 106.085 190.483 109.737C190.483 117.408 185.059 124.023 177.571 125.524L177.369 125.646C177.328 133.519 171.783 140.378 164.092 142.041C164.092 142.123 164.092 142.204 164.092 142.285C164.092 148.657 158.911 153.851 152.557 153.851C151.868 153.851 151.14 153.77 150.452 153.648C149.926 158.234 146.08 161.643 141.466 161.643C140.049 161.643 138.673 161.318 137.378 160.669C136.73 160.953 136.164 161.197 135.637 161.44C134.14 162.13 132.642 162.455 131.104 162.455Z" fill="white"/>
<path d="M41.0838 178.606C40.8814 178.606 40.679 178.525 40.5171 178.362C29.4265 167.243 21.0884 154.175 15.7859 139.484C15.624 139.078 15.8669 138.591 16.2716 138.469C16.3526 138.429 16.4336 138.429 16.555 138.429C16.8788 138.429 17.2026 138.632 17.324 138.956C22.5455 153.404 30.7623 166.269 41.691 177.226C42.0148 177.551 42.0148 178.038 41.691 178.362C41.4886 178.525 41.2862 178.606 41.0838 178.606ZM14.8954 135.141C14.5312 135.141 14.2478 134.898 14.1264 134.573L14.0454 134.33C13.9645 134.127 14.005 133.924 14.0859 133.721C14.1669 133.518 14.3692 133.396 14.5716 133.315C14.6526 133.275 14.7335 133.275 14.8145 133.275C15.1788 133.275 15.4621 133.518 15.5835 133.843L15.6645 134.086C15.7859 134.492 15.5431 134.938 15.1383 135.101C15.0574 135.141 14.9764 135.141 14.8954 135.141ZM13.4383 129.987C13.074 129.987 12.7502 129.744 12.6692 129.379C10.4835 120.816 9.39062 111.968 9.39062 103.081C9.39062 96.4657 9.99777 89.81 11.2121 83.2762C11.293 82.9109 11.6168 82.6268 11.9811 82.6268C12.0216 82.6268 12.0621 82.6268 12.143 82.6268C12.5883 82.708 12.8716 83.1138 12.7907 83.5602C11.5764 89.9724 10.9692 96.5063 10.9692 103.04C10.9692 111.766 12.0621 120.491 14.2073 128.932C14.3288 129.379 14.0454 129.784 13.6407 129.906C13.5597 129.947 13.5192 129.987 13.4383 129.987ZM13.074 79.2179C12.993 79.2179 12.9526 79.2179 12.8716 79.1773C12.4264 79.0555 12.1835 78.6497 12.2645 78.2033L12.3049 77.9598C12.3859 77.5945 12.7097 77.351 13.074 77.351C13.1549 77.351 13.1954 77.351 13.2764 77.3916C13.4788 77.4322 13.6407 77.5539 13.7621 77.7569C13.8835 77.9192 13.924 78.1627 13.8431 78.3656L13.8026 78.6091C13.8026 78.9744 13.4788 79.2179 13.074 79.2179ZM14.4907 74.0232C14.4097 74.0232 14.3288 74.0232 14.2478 73.9826C14.0454 73.942 13.8835 73.7797 13.7621 73.6174C13.6407 73.4145 13.6407 73.2115 13.6811 73.0086C18.0931 57.9929 25.5408 44.3975 35.9433 32.669C36.1052 32.5067 36.3076 32.3849 36.5504 32.3849C36.7528 32.3849 36.9147 32.4661 37.0766 32.5878C37.2385 32.7096 37.3195 32.9125 37.36 33.156C37.4004 33.3995 37.3195 33.5618 37.1576 33.7242C26.9575 45.2904 19.5907 58.6828 15.2597 73.455C15.1383 73.7797 14.8145 74.0232 14.4907 74.0232ZM40.0314 30.1934C39.829 30.1934 39.6267 30.1123 39.4647 29.9499C39.3028 29.7876 39.2219 29.5847 39.2219 29.3818C39.2219 29.1789 39.3028 28.9759 39.4647 28.8136L39.6266 28.6107C39.7886 28.4484 39.9909 28.3672 40.1933 28.3672C40.3957 28.3672 40.5981 28.4484 40.76 28.6107C41.0838 28.9354 41.0838 29.4223 40.76 29.747L40.5981 29.9093C40.4362 30.1123 40.2338 30.1934 40.0314 30.1934Z" fill="#444444"/>
<path d="M41.0835 178.484C40.8811 178.484 40.7192 178.403 40.5978 178.281C29.5072 167.161 21.2095 154.094 15.907 139.443C15.7856 139.078 15.9475 138.712 16.3118 138.55C16.3927 138.51 16.4737 138.51 16.5546 138.51C16.838 138.51 17.0808 138.672 17.2023 138.956C22.4238 153.404 30.6405 166.309 41.5692 177.307C41.8525 177.591 41.8525 177.997 41.5692 178.281C41.4073 178.403 41.2454 178.484 41.0835 178.484ZM14.8951 135.019C14.6118 135.019 14.3284 134.817 14.2475 134.532L14.1665 134.289C14.1261 134.127 14.1261 133.924 14.207 133.761C14.288 133.599 14.4499 133.477 14.6118 133.437C14.6927 133.437 14.7332 133.396 14.8142 133.396C15.0975 133.396 15.3808 133.599 15.4618 133.883L15.5427 134.127C15.6642 134.492 15.4618 134.857 15.0975 134.979C15.057 135.019 14.9761 135.019 14.8951 135.019ZM13.4379 129.865C13.1141 129.865 12.8713 129.662 12.7903 129.338C10.6046 120.775 9.51172 111.928 9.51172 103.081C9.51172 96.4655 10.1189 89.8098 11.3332 83.3165C11.4141 82.9919 11.657 82.7484 12.0213 82.7484C12.0617 82.7484 12.1022 82.7484 12.1427 82.7484C12.507 82.8295 12.7498 83.1948 12.6689 83.56C11.4546 89.9722 10.8474 96.5466 10.8474 103.081C10.8474 111.846 11.9403 120.572 14.0856 129.013C14.1665 129.378 13.9641 129.744 13.5999 129.865C13.5594 129.865 13.5189 129.865 13.4379 129.865ZM13.0737 79.0959C13.0332 79.0959 12.9522 79.0959 12.9118 79.0959C12.5475 79.0147 12.3046 78.6495 12.3856 78.2842L12.426 78.0407C12.507 77.7161 12.7903 77.5131 13.0737 77.5131C13.1141 77.5131 13.1951 77.5131 13.2356 77.5131C13.3975 77.5537 13.5594 77.6755 13.6403 77.8378C13.7213 78.0001 13.7618 78.1625 13.7213 78.3654L13.6808 78.6089C13.6808 78.893 13.3975 79.0959 13.0737 79.0959ZM14.4903 73.9012C14.4094 73.9012 14.3689 73.9012 14.288 73.8607C14.1261 73.8201 13.9641 73.6983 13.8832 73.536C13.8022 73.3737 13.7618 73.1707 13.8427 73.0084C18.2142 58.0332 25.6619 44.4785 36.0239 32.7094C36.1453 32.547 36.3477 32.4659 36.5501 32.4659C36.712 32.4659 36.8739 32.547 36.9953 32.6282C37.1168 32.7499 37.1977 32.9123 37.2382 33.1152C37.2382 33.3181 37.1977 33.4804 37.0763 33.6022C26.8762 45.209 19.469 58.6014 15.138 73.3737C15.057 73.6983 14.7737 73.9012 14.4903 73.9012ZM40.0311 30.112C39.8692 30.112 39.6668 30.0309 39.5454 29.9091C39.4239 29.7874 39.343 29.625 39.343 29.4221C39.343 29.2192 39.4239 29.0569 39.5454 28.9351L39.7073 28.7322C39.8287 28.6105 40.0311 28.5293 40.193 28.5293C40.3549 28.5293 40.5573 28.6105 40.6787 28.7322C40.962 29.0163 40.962 29.4221 40.6787 29.7062L40.5168 29.8685C40.3954 30.0309 40.193 30.112 40.0311 30.112Z" fill="#444444"/>
<path d="M191.009 177.714C190.807 177.714 190.604 177.633 190.442 177.471C190.119 177.146 190.119 176.659 190.442 176.334L190.604 176.172C190.766 176.01 190.969 175.929 191.171 175.929C191.373 175.929 191.576 176.01 191.738 176.172C191.9 176.334 191.98 176.537 191.98 176.74C191.98 176.943 191.9 177.146 191.738 177.308L191.576 177.511C191.414 177.633 191.211 177.714 191.009 177.714ZM194.652 173.778C194.45 173.778 194.288 173.697 194.126 173.575C193.964 173.453 193.883 173.25 193.842 173.007C193.842 172.804 193.883 172.601 194.045 172.438C204.245 160.872 211.612 147.48 215.943 132.708C216.024 132.383 216.347 132.139 216.712 132.139C216.793 132.139 216.874 132.139 216.955 132.18C217.359 132.302 217.602 132.748 217.481 133.154C213.069 148.17 205.621 161.765 195.219 173.494C195.097 173.656 194.854 173.778 194.652 173.778ZM218.047 128.771C217.966 128.771 217.926 128.771 217.845 128.73C217.643 128.69 217.481 128.568 217.359 128.365C217.238 128.203 217.197 127.959 217.278 127.756L217.319 127.513C217.4 127.148 217.724 126.904 218.088 126.904C218.169 126.904 218.209 126.904 218.29 126.945C218.493 126.985 218.655 127.107 218.776 127.31C218.897 127.472 218.938 127.716 218.857 127.919L218.816 128.162C218.736 128.527 218.412 128.771 218.047 128.771ZM219.181 123.495C219.14 123.495 219.1 123.495 219.019 123.495C218.574 123.414 218.29 123.008 218.371 122.562C219.586 116.15 220.193 109.575 220.193 103.082C220.193 94.3565 219.1 85.6311 216.955 77.1898C216.833 76.7434 217.116 76.3376 217.521 76.2158C217.602 76.2158 217.643 76.1752 217.724 76.1752C218.088 76.1752 218.412 76.4187 218.493 76.784C220.678 85.347 221.771 94.1942 221.771 103.082C221.771 109.697 221.164 116.353 219.95 122.886C219.869 123.252 219.545 123.495 219.181 123.495ZM216.347 72.8474C215.983 72.8474 215.7 72.6039 215.578 72.2793L215.497 72.0358C215.376 71.6299 215.619 71.1835 216.024 71.0212C216.105 70.9806 216.185 70.9806 216.266 70.9806C216.631 70.9806 216.914 71.2241 217.036 71.5488L217.116 71.7923C217.197 71.9952 217.157 72.1981 217.076 72.401C216.995 72.6039 216.793 72.7257 216.59 72.8068C216.509 72.8068 216.428 72.8474 216.347 72.8474ZM214.647 67.7339C214.324 67.7339 214 67.531 213.878 67.2064C208.657 52.7588 200.44 39.8939 189.511 28.9365C189.35 28.7741 189.269 28.5712 189.269 28.3683C189.269 28.1654 189.35 27.9625 189.511 27.8001C189.673 27.6378 189.876 27.5566 190.078 27.5566C190.28 27.5566 190.483 27.6378 190.645 27.8001C201.735 38.9199 210.074 51.9877 215.376 66.6788C215.457 66.8817 215.457 67.0846 215.335 67.2875C215.255 67.4904 215.093 67.6122 214.89 67.6934C214.85 67.7339 214.769 67.7339 214.647 67.7339Z" fill="#444444"/>
<path d="M191.009 177.591C190.847 177.591 190.645 177.51 190.524 177.388C190.24 177.104 190.24 176.699 190.524 176.414L190.685 176.252C190.807 176.13 191.009 176.049 191.171 176.049C191.333 176.049 191.535 176.13 191.657 176.252C191.778 176.374 191.859 176.536 191.859 176.739C191.859 176.942 191.778 177.104 191.657 177.226L191.495 177.429C191.333 177.51 191.171 177.591 191.009 177.591ZM194.652 173.655C194.49 173.655 194.328 173.614 194.207 173.492C194.085 173.371 194.005 173.208 193.964 173.005C193.964 172.803 194.005 172.64 194.126 172.519C204.326 160.912 211.733 147.519 216.064 132.747C216.145 132.463 216.429 132.26 216.712 132.26C216.793 132.26 216.833 132.26 216.914 132.301C217.279 132.422 217.481 132.788 217.36 133.153C212.988 148.169 205.5 161.723 195.138 173.452C195.016 173.574 194.855 173.655 194.652 173.655ZM218.048 128.648C218.007 128.648 217.926 128.648 217.886 128.648C217.724 128.608 217.562 128.486 217.481 128.323C217.4 128.161 217.36 127.999 217.4 127.796L217.44 127.552C217.521 127.228 217.805 127.025 218.088 127.025C218.129 127.025 218.21 127.025 218.25 127.025C218.614 127.106 218.857 127.471 218.776 127.836L218.736 128.08C218.614 128.445 218.371 128.648 218.048 128.648ZM219.181 123.413C219.14 123.413 219.1 123.413 219.06 123.413C218.695 123.332 218.452 122.966 218.533 122.601C219.748 116.189 220.355 109.615 220.355 103.081C220.355 94.3148 219.262 85.5894 217.117 77.1481C217.036 76.7829 217.238 76.4176 217.602 76.2959C217.643 76.2959 217.724 76.2553 217.764 76.2553C218.088 76.2553 218.331 76.4582 218.412 76.7829C220.598 85.3459 221.691 94.1931 221.691 103.04C221.691 109.655 221.083 116.311 219.869 122.804C219.788 123.169 219.505 123.413 219.181 123.413ZM216.348 72.7246C216.064 72.7246 215.781 72.5217 215.7 72.2376L215.619 71.9941C215.498 71.6288 215.7 71.2636 216.064 71.1418C216.145 71.1013 216.186 71.1013 216.267 71.1013C216.55 71.1013 216.833 71.3042 216.914 71.5882L216.995 71.8318C217.036 71.9941 217.036 72.197 216.955 72.3593C216.874 72.5217 216.712 72.6434 216.55 72.684C216.51 72.7246 216.429 72.7246 216.348 72.7246ZM214.648 67.6111C214.364 67.6111 214.121 67.4488 214 67.1647C208.778 52.7171 200.562 39.8117 189.633 28.8136C189.512 28.6919 189.431 28.5295 189.431 28.3266C189.431 28.1237 189.512 27.9614 189.633 27.8396C189.754 27.7179 189.916 27.6367 190.119 27.6367C190.321 27.6367 190.483 27.7179 190.604 27.8396C201.695 38.9594 209.993 52.0272 215.295 66.6777C215.376 66.84 215.336 67.0429 215.255 67.2053C215.174 67.3676 215.052 67.4894 214.85 67.5705C214.809 67.6111 214.729 67.6111 214.648 67.6111Z" fill="#444444"/>
<path d="M117.342 2.87712L115.764 2.88867L116.011 36.8973L117.59 36.8858L117.342 2.87712Z" fill="#444444"/>
<path d="M117.264 2.99785L115.888 3.00781L116.131 36.773L117.507 36.763L117.264 2.99785Z" fill="#444444"/>
<path d="M163.201 46.1034V29.4237H130.496L130.132 19.075L139.563 9.61914L140.696 10.7555L131.751 19.7243L132.034 27.841H164.82V46.1034H163.201Z" fill="#444444"/>
<path d="M163.323 45.9814V29.3017H130.618L130.254 19.1154L139.564 9.78125L140.535 10.7552L131.63 19.643L131.954 27.9219H164.7V45.9814H163.323Z" fill="#444444"/>
<path d="M140.13 13.4744C142.053 13.4744 143.611 11.9118 143.611 9.98429C143.611 8.05673 142.053 6.49414 140.13 6.49414C138.208 6.49414 136.649 8.05673 136.649 9.98429C136.649 11.9118 138.208 13.4744 140.13 13.4744Z" fill="white"/>
<path d="M140.13 13.352C141.986 13.352 143.49 11.844 143.49 9.98364C143.49 8.12332 141.986 6.61523 140.13 6.61523C138.275 6.61523 136.771 8.12332 136.771 9.98364C136.771 11.844 138.275 13.352 140.13 13.352Z" fill="white"/>
<path d="M140.13 14.0424C137.903 14.0424 136.082 12.2162 136.082 9.9841C136.082 7.75202 137.903 5.92578 140.13 5.92578C142.356 5.92578 144.177 7.75202 144.177 9.9841C144.177 12.2162 142.356 14.0424 140.13 14.0424ZM140.13 7.50852C138.753 7.50852 137.661 8.60427 137.661 9.9841C137.661 11.3639 138.753 12.4597 140.13 12.4597C141.506 12.4597 142.599 11.3639 142.599 9.9841C142.599 8.60427 141.506 7.50852 140.13 7.50852Z" fill="#444444"/>
<path d="M140.13 13.92C137.945 13.92 136.204 12.1343 136.204 9.98344C136.204 7.83253 137.985 6.04688 140.13 6.04688C142.276 6.04688 144.057 7.83253 144.057 9.98344C144.057 12.1343 142.316 13.92 140.13 13.92ZM140.13 7.38612C138.714 7.38612 137.54 8.56303 137.54 9.98344C137.54 11.4038 138.714 12.5808 140.13 12.5808C141.547 12.5808 142.721 11.4038 142.721 9.98344C142.721 8.56303 141.547 7.38612 140.13 7.38612Z" fill="#444444"/>
<path d="M68.041 46.1034V27.841H100.787L101.07 19.7243L92.1246 10.7555L93.2579 9.61914L102.689 19.075L102.325 29.4237H69.6196V46.1034H68.041Z" fill="#444444"/>
<path d="M68.1221 45.9814V27.9219H100.908L101.191 19.643L92.2866 10.7552L93.258 9.78125L102.568 19.1154L102.203 29.3017H69.4983V45.9814H68.1221Z" fill="#444444"/>
<path d="M92.691 13.4744C94.6134 13.4744 96.1719 11.9118 96.1719 9.98429C96.1719 8.05673 94.6134 6.49414 92.691 6.49414C90.7685 6.49414 89.21 8.05673 89.21 9.98429C89.21 11.9118 90.7685 13.4744 92.691 13.4744Z" fill="white"/>
<path d="M92.6916 13.352C94.547 13.352 96.0512 11.844 96.0512 9.98364C96.0512 8.12332 94.547 6.61523 92.6916 6.61523C90.8362 6.61523 89.332 8.12332 89.332 9.98364C89.332 11.844 90.8362 13.352 92.6916 13.352Z" fill="white"/>
<path d="M92.6912 14.0424C90.465 14.0424 88.6436 12.2162 88.6436 9.9841C88.6436 7.75202 90.465 5.92578 92.6912 5.92578C94.9174 5.92578 96.7389 7.75202 96.7389 9.9841C96.7389 12.2162 94.9174 14.0424 92.6912 14.0424ZM92.6912 7.50852C91.315 7.50852 90.2221 8.60427 90.2221 9.9841C90.2221 11.3639 91.315 12.4597 92.6912 12.4597C94.0674 12.4597 95.1603 11.3639 95.1603 9.9841C95.1603 8.60427 94.0674 7.50852 92.6912 7.50852Z" fill="#444444"/>
<path d="M92.6919 13.92C90.5061 13.92 88.7656 12.1343 88.7656 9.98344C88.7656 7.83253 90.5466 6.04688 92.6919 6.04688C94.8371 6.04688 96.6181 7.83253 96.6181 9.98344C96.6181 12.1343 94.8776 13.92 92.6919 13.92ZM92.6919 7.38612C91.2752 7.38612 90.1014 8.56303 90.1014 9.98344C90.1014 11.4038 91.2752 12.5808 92.6919 12.5808C94.1085 12.5808 95.2824 11.4038 95.2824 9.98344C95.2824 8.56303 94.1085 7.38612 92.6919 7.38612Z" fill="#444444"/>
<path d="M116.33 7.54866C114.387 7.54866 112.849 5.96592 112.849 4.05851C112.849 2.1511 114.427 0.568359 116.33 0.568359C118.232 0.568359 119.811 2.1511 119.811 4.05851C119.811 5.96592 118.273 7.54866 116.33 7.54866Z" fill="white"/>
<path d="M116.33 7.42625C118.186 7.42625 119.69 5.91817 119.69 4.05785C119.69 2.19754 118.186 0.689453 116.33 0.689453C114.475 0.689453 112.971 2.19754 112.971 4.05785C112.971 5.91817 114.475 7.42625 116.33 7.42625Z" fill="white"/>
<path d="M116.33 8.15764C114.104 8.15764 112.282 6.3314 112.282 4.09933C112.282 1.86726 114.104 0.0410156 116.33 0.0410156C118.556 0.0410156 120.378 1.86726 120.378 4.09933C120.418 6.3314 118.597 8.15764 116.33 8.15764ZM116.33 1.58317C114.954 1.58317 113.861 2.67892 113.861 4.05875C113.861 5.43857 114.954 6.53432 116.33 6.53432C117.706 6.53432 118.799 5.43857 118.799 4.05875C118.799 2.7195 117.706 1.58317 116.33 1.58317Z" fill="#444444"/>
<path d="M116.33 8.03524C114.144 8.03524 112.403 6.24958 112.403 4.09867C112.403 1.90718 114.184 0.162109 116.33 0.162109C118.475 0.162109 120.256 1.94777 120.256 4.09867C120.296 6.24958 118.515 8.03524 116.33 8.03524ZM116.33 1.50135C114.913 1.50135 113.739 2.67826 113.739 4.09867C113.739 5.51908 114.913 6.69599 116.33 6.69599C117.746 6.69599 118.92 5.51908 118.92 4.09867C118.92 2.63768 117.746 1.50135 116.33 1.50135Z" fill="#444444"/>
<path d="M116.694 40.0955C118.616 40.0955 120.175 38.5329 120.175 36.6054C120.175 34.6778 118.616 33.1152 116.694 33.1152C114.771 33.1152 113.213 34.6778 113.213 36.6054C113.213 38.5329 114.771 40.0955 116.694 40.0955Z" fill="white"/>
<path d="M116.695 39.9751C118.55 39.9751 120.054 38.467 120.054 36.6067C120.054 34.7464 118.55 33.2383 116.695 33.2383C114.839 33.2383 113.335 34.7464 113.335 36.6067C113.335 38.467 114.839 39.9751 116.695 39.9751Z" fill="white"/>
<path d="M116.694 40.7045C114.468 40.7045 112.646 38.8783 112.646 36.6462C112.646 34.4141 114.468 32.5879 116.694 32.5879C118.92 32.5879 120.742 34.4141 120.742 36.6462C120.742 38.8783 118.92 40.7045 116.694 40.7045ZM116.694 34.13C115.318 34.13 114.225 35.2258 114.225 36.6056C114.225 37.9854 115.318 39.0812 116.694 39.0812C118.07 39.0812 119.163 37.9854 119.163 36.6056C119.163 35.2664 118.07 34.13 116.694 34.13Z" fill="#444444"/>
<path d="M116.694 40.5841C114.508 40.5841 112.768 38.7984 112.768 36.6475C112.768 34.456 114.549 32.7109 116.694 32.7109C118.839 32.7109 120.62 34.4966 120.62 36.6475C120.661 38.7984 118.88 40.5841 116.694 40.5841ZM116.694 34.0502C115.277 34.0502 114.103 35.2271 114.103 36.6475C114.103 38.0679 115.277 39.2448 116.694 39.2448C118.11 39.2448 119.284 38.0679 119.284 36.6475C119.284 35.2271 118.11 34.0502 116.694 34.0502Z" fill="#444444"/>
<path d="M68.8101 48.0506C70.7326 48.0506 72.2911 46.488 72.2911 44.5605C72.2911 42.6329 70.7326 41.0703 68.8101 41.0703C66.8876 41.0703 65.3291 42.6329 65.3291 44.5605C65.3291 46.488 66.8876 48.0506 68.8101 48.0506Z" fill="white"/>
<path d="M68.8098 47.9282C70.6652 47.9282 72.1693 46.4201 72.1693 44.5598C72.1693 42.6995 70.6652 41.1914 68.8098 41.1914C66.9543 41.1914 65.4502 42.6995 65.4502 44.5598C65.4502 46.4201 66.9543 47.9282 68.8098 47.9282Z" fill="white"/>
<path d="M68.8104 48.6186C66.5841 48.6186 64.7627 46.7923 64.7627 44.5603C64.7627 42.3282 66.5841 40.502 68.8104 40.502C71.0366 40.502 72.858 42.3282 72.858 44.5603C72.858 46.7923 71.0366 48.6186 68.8104 48.6186ZM68.8104 42.0847C67.4342 42.0847 66.3413 43.1804 66.3413 44.5603C66.3413 45.9401 67.4342 47.0358 68.8104 47.0358C70.1866 47.0358 71.2794 45.9401 71.2794 44.5603C71.2794 43.1804 70.1461 42.0847 68.8104 42.0847Z" fill="#444444"/>
<path d="M68.81 48.4962C66.6243 48.4962 64.8838 46.7105 64.8838 44.5596C64.8838 42.4087 66.6648 40.623 68.81 40.623C70.9553 40.623 72.7362 42.4087 72.7362 44.5596C72.7362 46.7105 70.9553 48.4962 68.81 48.4962ZM68.81 41.9623C67.3933 41.9623 66.2195 43.1392 66.2195 44.5596C66.2195 45.98 67.3933 47.1569 68.81 47.1569C70.2267 47.1569 71.4005 45.98 71.4005 44.5596C71.4005 43.1392 70.2267 41.9623 68.81 41.9623Z" fill="#444444"/>
<path d="M164.132 48.0506C166.055 48.0506 167.613 46.488 167.613 44.5605C167.613 42.6329 166.055 41.0703 164.132 41.0703C162.21 41.0703 160.651 42.6329 160.651 44.5605C160.651 46.488 162.21 48.0506 164.132 48.0506Z" fill="white"/>
<path d="M164.133 47.9282C165.988 47.9282 167.493 46.4201 167.493 44.5598C167.493 42.6995 165.988 41.1914 164.133 41.1914C162.278 41.1914 160.773 42.6995 160.773 44.5598C160.773 46.4201 162.278 47.9282 164.133 47.9282Z" fill="white"/>
<path d="M164.133 48.6186C161.906 48.6186 160.085 46.7923 160.085 44.5603C160.085 42.3282 161.906 40.502 164.133 40.502C166.359 40.502 168.18 42.3282 168.18 44.5603C168.18 46.7923 166.399 48.6186 164.133 48.6186ZM164.133 42.0847C162.756 42.0847 161.664 43.1804 161.664 44.5603C161.664 45.9401 162.756 47.0358 164.133 47.0358C165.509 47.0358 166.602 45.9401 166.602 44.5603C166.602 43.1804 165.509 42.0847 164.133 42.0847Z" fill="#444444"/>
<path d="M164.132 48.4962C161.947 48.4962 160.206 46.7105 160.206 44.5596C160.206 42.4087 161.987 40.623 164.132 40.623C166.278 40.623 168.059 42.4087 168.059 44.5596C168.059 46.7105 166.318 48.4962 164.132 48.4962ZM164.132 41.9623C162.716 41.9623 161.542 43.1392 161.542 44.5596C161.542 45.98 162.716 47.1569 164.132 47.1569C165.549 47.1569 166.723 45.98 166.723 44.5596C166.723 43.1392 165.549 41.9623 164.132 41.9623Z" fill="#444444"/>
<path d="M115.601 110.792C112.524 110.792 109.732 108.966 108.517 106.085C108.113 105.111 107.91 104.096 107.91 103.041C107.91 99.9566 109.732 97.1563 112.605 95.9388C113.577 95.533 114.589 95.3301 115.641 95.3301C118.717 95.3301 121.51 97.1563 122.725 100.038C123.129 101.012 123.332 102.026 123.332 103.081C123.332 105.638 122.077 107.992 120.013 109.453C119.891 109.534 119.729 109.575 119.567 109.575C119.325 109.575 119.041 109.453 118.92 109.21C118.798 109.047 118.758 108.804 118.798 108.601C118.839 108.398 118.96 108.195 119.122 108.073C120.782 106.937 121.753 105.029 121.753 103.041C121.753 102.229 121.591 101.418 121.267 100.646C120.296 98.3738 118.11 96.9128 115.641 96.9128C114.832 96.9128 114.022 97.0752 113.253 97.3998C110.986 98.3738 109.529 100.565 109.529 103.041C109.529 103.853 109.691 104.664 110.015 105.435C110.986 107.708 113.172 109.169 115.641 109.169C116.086 109.169 116.572 109.128 117.017 109.007C117.058 109.007 117.139 108.966 117.179 108.966C117.544 108.966 117.867 109.21 117.948 109.575C118.029 110.021 117.786 110.427 117.341 110.549C116.775 110.711 116.167 110.792 115.601 110.792Z" fill="#444444"/>
<path d="M115.601 110.669C112.565 110.669 109.813 108.843 108.598 106.043C108.194 105.069 107.991 104.095 107.991 103.04C107.991 99.996 109.813 97.2364 112.606 96.0189C113.577 95.6131 114.548 95.4102 115.601 95.4102C118.637 95.4102 121.389 97.2364 122.603 100.037C123.008 101.011 123.21 101.985 123.21 103.04C123.21 105.556 121.996 107.91 119.932 109.33C119.81 109.411 119.689 109.452 119.527 109.452C119.284 109.452 119.082 109.33 118.96 109.168C118.839 109.006 118.798 108.843 118.839 108.64C118.879 108.478 118.96 108.316 119.122 108.194C120.822 107.017 121.794 105.11 121.794 103.04C121.794 102.188 121.632 101.376 121.308 100.605C120.337 98.2916 118.07 96.8306 115.601 96.8306C114.751 96.8306 113.941 96.9929 113.172 97.3176C110.865 98.2916 109.408 100.564 109.408 103.04C109.408 103.892 109.57 104.704 109.894 105.475C110.865 107.788 113.132 109.249 115.601 109.249C116.087 109.249 116.532 109.208 117.018 109.087C117.058 109.087 117.139 109.087 117.179 109.087C117.503 109.087 117.787 109.29 117.827 109.614C117.908 109.98 117.665 110.345 117.301 110.426C116.734 110.629 116.167 110.669 115.601 110.669Z" fill="#444444"/>
<path d="M116.91 169.109L115.331 169.119L115.553 203.128L117.132 203.117L116.91 169.109Z" fill="#444444"/>
<path d="M116.827 169.231L115.451 169.24L115.675 203.005L117.051 202.996L116.827 169.231Z" fill="#444444"/>
<path d="M92.2461 195.246L101.191 186.277L100.908 178.161H68.1221V159.898H69.7411V176.578H102.446L102.811 186.927L93.3795 196.383L92.2461 195.246Z" fill="#444444"/>
<path d="M92.4077 195.245L101.313 186.317L100.989 178.038H68.2432V159.979H69.6194V176.658H102.324L102.689 186.885L93.3791 196.219L92.4077 195.245Z" fill="#444444"/>
<path d="M92.813 199.508C90.8701 199.508 89.332 197.925 89.332 196.017C89.332 194.11 90.9106 192.527 92.813 192.527C94.7154 192.527 96.294 194.11 96.294 196.017C96.294 197.925 94.7154 199.508 92.813 199.508Z" fill="white"/>
<path d="M92.8127 199.385C94.6681 199.385 96.1722 197.877 96.1722 196.017C96.1722 194.157 94.6681 192.648 92.8127 192.648C90.9573 192.648 89.4531 194.157 89.4531 196.017C89.4531 197.877 90.9573 199.385 92.8127 199.385Z" fill="white"/>
<path d="M92.8133 200.076C90.5871 200.076 88.7656 198.249 88.7656 196.017C88.7656 193.785 90.5871 191.959 92.8133 191.959C95.0395 191.959 96.8609 193.785 96.8609 196.017C96.8609 198.249 95.0395 200.076 92.8133 200.076ZM92.8133 193.542C91.4371 193.542 90.3442 194.637 90.3442 196.017C90.3442 197.397 91.4371 198.493 92.8133 198.493C94.1895 198.493 95.2824 197.397 95.2824 196.017C95.2824 194.678 94.149 193.542 92.8133 193.542Z" fill="#444444"/>
<path d="M92.8129 199.994C90.6272 199.994 88.8867 198.209 88.8867 196.058C88.8867 193.866 90.6677 192.121 92.8129 192.121C94.9582 192.121 96.7392 193.907 96.7392 196.058C96.7392 198.209 94.9987 199.994 92.8129 199.994ZM92.8129 193.46C91.3963 193.46 90.2224 194.637 90.2224 196.058C90.2224 197.478 91.3963 198.655 92.8129 198.655C94.2296 198.655 95.4034 197.478 95.4034 196.058C95.4034 194.637 94.2296 193.46 92.8129 193.46Z" fill="#444444"/>
<path d="M130.254 186.927L130.618 176.578H163.323V159.898H164.902V178.161H132.156L131.873 186.277L140.818 195.246L139.685 196.383L130.254 186.927Z" fill="#444444"/>
<path d="M130.375 186.885L130.739 176.658H163.444V159.979H164.821V178.038H132.035L131.751 186.317L140.656 195.245L139.685 196.219L130.375 186.885Z" fill="#444444"/>
<path d="M140.251 199.508C138.309 199.508 136.771 197.925 136.771 196.017C136.771 194.11 138.349 192.527 140.251 192.527C142.154 192.527 143.732 194.11 143.732 196.017C143.732 197.925 142.194 199.508 140.251 199.508Z" fill="white"/>
<path d="M140.251 199.385C142.107 199.385 143.611 197.877 143.611 196.017C143.611 194.157 142.107 192.648 140.251 192.648C138.396 192.648 136.892 194.157 136.892 196.017C136.892 197.877 138.396 199.385 140.251 199.385Z" fill="white"/>
<path d="M140.252 200.076C138.026 200.076 136.204 198.249 136.204 196.017C136.204 193.785 138.026 191.959 140.252 191.959C142.478 191.959 144.299 193.785 144.299 196.017C144.299 198.249 142.478 200.076 140.252 200.076ZM140.252 193.542C138.876 193.542 137.783 194.637 137.783 196.017C137.783 197.397 138.876 198.493 140.252 198.493C141.628 198.493 142.721 197.397 142.721 196.017C142.721 194.678 141.628 193.542 140.252 193.542Z" fill="#444444"/>
<path d="M140.251 199.994C138.066 199.994 136.325 198.209 136.325 196.058C136.325 193.866 138.106 192.121 140.251 192.121C142.437 192.121 144.178 193.907 144.178 196.058C144.178 198.209 142.437 199.994 140.251 199.994ZM140.251 193.46C138.835 193.46 137.661 194.637 137.661 196.058C137.661 197.478 138.835 198.655 140.251 198.655C141.668 198.655 142.842 197.478 142.842 196.058C142.842 194.637 141.668 193.46 140.251 193.46Z" fill="#444444"/>
<path d="M116.613 205.431C114.67 205.431 113.132 203.849 113.132 201.941C113.132 200.034 114.71 198.451 116.613 198.451C118.515 198.451 120.094 200.034 120.094 201.941C120.094 203.849 118.515 205.431 116.613 205.431Z" fill="white"/>
<path d="M116.613 205.27C118.469 205.27 119.973 203.762 119.973 201.902C119.973 200.041 118.469 198.533 116.613 198.533C114.758 198.533 113.254 200.041 113.254 201.902C113.254 203.762 114.758 205.27 116.613 205.27Z" fill="white"/>
<path d="M116.613 205.999C114.387 205.999 112.565 204.173 112.565 201.941C112.565 199.709 114.387 197.883 116.613 197.883C118.839 197.883 120.661 199.709 120.661 201.941C120.661 204.173 118.839 205.999 116.613 205.999ZM116.613 199.466C115.237 199.466 114.144 200.561 114.144 201.941C114.144 203.321 115.237 204.417 116.613 204.417C117.989 204.417 119.082 203.321 119.082 201.941C119.042 200.561 117.949 199.466 116.613 199.466Z" fill="#444444"/>
<path d="M116.613 205.879C114.427 205.879 112.687 204.093 112.687 201.942C112.687 199.751 114.467 198.006 116.613 198.006C118.798 198.006 120.539 199.792 120.539 201.942C120.539 204.093 118.758 205.879 116.613 205.879ZM116.613 199.345C115.196 199.345 114.022 200.522 114.022 201.942C114.022 203.363 115.196 204.54 116.613 204.54C118.029 204.54 119.203 203.363 119.203 201.942C119.203 200.522 118.029 199.345 116.613 199.345Z" fill="#444444"/>
<path d="M116.249 172.885C114.306 172.885 112.768 171.302 112.768 169.394C112.768 167.487 114.346 165.904 116.249 165.904C118.151 165.904 119.73 167.487 119.73 169.394C119.73 171.302 118.151 172.885 116.249 172.885Z" fill="white"/>
<path d="M116.249 172.721C118.105 172.721 119.609 171.213 119.609 169.353C119.609 167.492 118.105 165.984 116.249 165.984C114.394 165.984 112.89 167.492 112.89 169.353C112.89 171.213 114.394 172.721 116.249 172.721Z" fill="white"/>
<path d="M116.249 173.453C114.023 173.453 112.201 171.626 112.201 169.394C112.201 167.162 114.023 165.336 116.249 165.336C118.475 165.336 120.296 167.162 120.296 169.394C120.296 171.626 118.475 173.453 116.249 173.453ZM116.249 166.919C114.873 166.919 113.78 168.014 113.78 169.394C113.78 170.774 114.873 171.87 116.249 171.87C117.625 171.87 118.718 170.774 118.718 169.394C118.718 168.014 117.585 166.919 116.249 166.919Z" fill="#444444"/>
<path d="M116.249 173.33C114.063 173.33 112.322 171.544 112.322 169.394C112.322 167.202 114.103 165.457 116.249 165.457C118.434 165.457 120.175 167.243 120.175 169.394C120.175 171.544 118.434 173.33 116.249 173.33ZM116.249 166.796C114.832 166.796 113.658 167.973 113.658 169.394C113.658 170.814 114.832 171.991 116.249 171.991C117.665 171.991 118.839 170.814 118.839 169.394C118.839 167.973 117.665 166.796 116.249 166.796Z" fill="#444444"/>
<path d="M164.132 164.93C166.055 164.93 167.613 163.367 167.613 161.439C167.613 159.512 166.055 157.949 164.132 157.949C162.21 157.949 160.651 159.512 160.651 161.439C160.651 163.367 162.21 164.93 164.132 164.93Z" fill="white"/>
<path d="M164.133 164.809C165.988 164.809 167.493 163.301 167.493 161.441C167.493 159.58 165.988 158.072 164.133 158.072C162.278 158.072 160.773 159.58 160.773 161.441C160.773 163.301 162.278 164.809 164.133 164.809Z" fill="white"/>
<path d="M164.133 165.497C161.906 165.497 160.085 163.671 160.085 161.439C160.085 159.207 161.906 157.381 164.133 157.381C166.359 157.381 168.18 159.207 168.18 161.439C168.18 163.671 166.399 165.497 164.133 165.497ZM164.133 158.964C162.756 158.964 161.664 160.059 161.664 161.439C161.664 162.819 162.756 163.915 164.133 163.915C165.509 163.915 166.602 162.819 166.602 161.439C166.602 160.059 165.509 158.964 164.133 158.964Z" fill="#444444"/>
<path d="M164.132 165.377C161.947 165.377 160.206 163.591 160.206 161.44C160.206 159.29 161.987 157.504 164.132 157.504C166.278 157.504 168.059 159.29 168.059 161.44C168.059 163.591 166.318 165.377 164.132 165.377ZM164.132 158.843C162.716 158.843 161.542 160.02 161.542 161.44C161.542 162.861 162.716 164.038 164.132 164.038C165.549 164.038 166.723 162.861 166.723 161.44C166.723 160.02 165.549 158.843 164.132 158.843Z" fill="#444444"/>
<path d="M68.8101 164.93C70.7326 164.93 72.2911 163.367 72.2911 161.439C72.2911 159.512 70.7326 157.949 68.8101 157.949C66.8876 157.949 65.3291 159.512 65.3291 161.439C65.3291 163.367 66.8876 164.93 68.8101 164.93Z" fill="white"/>
<path d="M68.8098 164.809C70.6652 164.809 72.1693 163.301 72.1693 161.441C72.1693 159.58 70.6652 158.072 68.8098 158.072C66.9543 158.072 65.4502 159.58 65.4502 161.441C65.4502 163.301 66.9543 164.809 68.8098 164.809Z" fill="white"/>
<path d="M68.8104 165.497C66.5841 165.497 64.7627 163.671 64.7627 161.439C64.7627 159.207 66.5841 157.381 68.8104 157.381C71.0366 157.381 72.858 159.207 72.858 161.439C72.858 163.671 71.0366 165.497 68.8104 165.497ZM68.8104 158.964C67.4342 158.964 66.3413 160.059 66.3413 161.439C66.3413 162.819 67.4342 163.915 68.8104 163.915C70.1866 163.915 71.2794 162.819 71.2794 161.439C71.2794 160.059 70.1461 158.964 68.8104 158.964Z" fill="#444444"/>
<path d="M68.81 165.377C66.6243 165.377 64.8838 163.591 64.8838 161.44C64.8838 159.29 66.6648 157.504 68.81 157.504C70.9553 157.504 72.7362 159.29 72.7362 161.44C72.7362 163.591 70.9553 165.377 68.81 165.377ZM68.81 158.843C67.3933 158.843 66.2195 160.02 66.2195 161.44C66.2195 162.861 67.3933 164.038 68.81 164.038C70.2267 164.038 71.4005 162.861 71.4005 161.44C71.36 160.02 70.2267 158.843 68.81 158.843Z" fill="#444444"/>
<path d="M10.1998 112.456C4.8974 112.456 0.566406 108.114 0.566406 102.797C0.566406 97.4811 4.8974 93.1387 10.1998 93.1387C15.5023 93.1387 19.8333 97.4811 19.8333 102.797C19.8333 108.114 15.5023 112.456 10.1998 112.456Z" fill="#1F75BA"/>
<path d="M10.2005 112.334C4.93852 112.334 0.688477 108.073 0.688477 102.797C0.688477 97.521 4.93852 93.2598 10.2005 93.2598C15.4624 93.2598 19.7125 97.521 19.7125 102.797C19.7125 108.073 15.422 112.334 10.2005 112.334Z" fill="#1F75BA"/>
<path d="M10.2001 113.024C4.57386 113.024 0 108.438 0 102.797C0 97.1562 4.57386 92.5703 10.2001 92.5703C15.8264 92.5703 20.4002 97.1562 20.4002 102.797C20.4002 108.438 15.8264 113.024 10.2001 113.024ZM10.2001 94.1936C5.46434 94.1936 1.61906 98.049 1.61906 102.797C1.61906 107.545 5.46434 111.401 10.2001 111.401C14.9359 111.401 18.7811 107.545 18.7811 102.797C18.7811 98.049 14.9359 94.1936 10.2001 94.1936Z" fill="#444444"/>
<path d="M10.1998 112.902C4.65447 112.902 0.121094 108.357 0.121094 102.797C0.121094 97.2367 4.65447 92.6914 10.1998 92.6914C15.7451 92.6914 20.2784 97.2367 20.2784 102.797C20.2784 108.357 15.7451 112.902 10.1998 112.902ZM10.1998 94.0712C5.38305 94.0712 1.4973 98.0078 1.4973 102.797C1.4973 107.585 5.42353 111.522 10.1998 111.522C15.0165 111.522 18.9022 107.585 18.9022 102.797C18.9022 98.0078 14.976 94.0712 10.1998 94.0712Z" fill="#444444"/>
<path d="M5.54492 102.553L15.4617 98.0078L9.51163 107.667L5.54492 102.553Z" fill="#1F75BA"/>
<path d="M5.74805 102.595L15.1386 98.293L9.51237 107.465L5.74805 102.595Z" fill="#1F75BA"/>
<path d="M220.799 112.456C215.497 112.456 211.166 108.114 211.166 102.797C211.166 97.4811 215.497 93.1387 220.799 93.1387C226.102 93.1387 230.433 97.4811 230.433 102.797C230.433 108.114 226.102 112.456 220.799 112.456Z" fill="#1F75BA"/>
<path d="M220.8 112.334C215.538 112.334 211.288 108.073 211.288 102.797C211.288 97.521 215.538 93.2598 220.8 93.2598C226.062 93.2598 230.312 97.521 230.312 102.797C230.312 108.073 226.062 112.334 220.8 112.334Z" fill="#1F75BA"/>
<path d="M220.8 113.024C215.173 113.024 210.6 108.438 210.6 102.797C210.6 97.1562 215.173 92.5703 220.8 92.5703C226.426 92.5703 231 97.1562 231 102.797C231 108.438 226.426 113.024 220.8 113.024ZM220.8 94.1936C216.064 94.1936 212.219 98.049 212.219 102.797C212.219 107.545 216.064 111.401 220.8 111.401C225.535 111.401 229.381 107.545 229.381 102.797C229.421 98.049 225.535 94.1936 220.8 94.1936Z" fill="#444444"/>
<path d="M220.8 112.902C215.255 112.902 210.722 108.357 210.722 102.797C210.722 97.2367 215.255 92.6914 220.8 92.6914C226.346 92.6914 230.879 97.2367 230.879 102.797C230.879 108.357 226.386 112.902 220.8 112.902ZM220.8 94.0712C215.984 94.0712 212.098 98.0078 212.098 102.797C212.098 107.585 216.024 111.522 220.8 111.522C225.617 111.522 229.503 107.585 229.503 102.797C229.503 98.0078 225.617 94.0712 220.8 94.0712Z" fill="#444444"/>
<path d="M216.186 102.553L226.062 98.0078L220.152 107.667L216.186 102.553Z" fill="#1F75BA"/>
<path d="M216.348 102.595L225.779 98.293L220.112 107.465L216.348 102.595Z" fill="#1F75BA"/>
<path d="M79.7766 102.071L28.5332 102.307L28.5405 103.889L79.7838 103.653L79.7766 102.071Z" fill="#444444"/>
<path d="M79.6963 102.193L28.6553 102.428L28.6616 103.808L79.7026 103.572L79.6963 102.193Z" fill="#444444"/>
<path d="M35.2549 80.0699L36.3882 78.9336L45.3336 87.9025L79.9815 87.5778V89.1605L44.6859 89.5258L35.2549 80.0699Z" fill="#444444"/>
<path d="M35.417 80.0697L36.3884 79.0957L45.2933 88.024L79.8603 87.6993V89.0386L44.7266 89.4038L35.417 80.0697Z" fill="#444444"/>
<path d="M35.6197 82.992C33.6768 82.992 32.1387 81.4093 32.1387 79.5019C32.1387 77.5945 33.7173 76.0117 35.6197 76.0117C37.5221 76.0117 39.1006 77.5945 39.1006 79.5019C39.1006 81.4093 37.5221 82.992 35.6197 82.992Z" fill="white"/>
<path d="M35.6193 82.8716C37.4748 82.8716 38.9789 81.3635 38.9789 79.5032C38.9789 77.6428 37.4748 76.1348 35.6193 76.1348C33.7639 76.1348 32.2598 77.6428 32.2598 79.5032C32.2598 81.3635 33.7639 82.8716 35.6193 82.8716Z" fill="white"/>
<path d="M35.6189 83.56C33.3927 83.56 31.5713 81.7337 31.5713 79.5017C31.5713 77.2696 33.3927 75.4434 35.6189 75.4434C37.8452 75.4434 39.6666 77.2696 39.6666 79.5017C39.6666 81.7337 37.8452 83.56 35.6189 83.56ZM35.6189 77.0261C34.2427 77.0261 33.1499 78.1218 33.1499 79.5017C33.1499 80.8815 34.2427 81.9772 35.6189 81.9772C36.9952 81.9772 38.088 80.8815 38.088 79.5017C38.088 78.1218 36.9547 77.0261 35.6189 77.0261Z" fill="#444444"/>
<path d="M35.6196 83.4395C33.4339 83.4395 31.6934 81.6539 31.6934 79.503C31.6934 77.3521 33.4743 75.5664 35.6196 75.5664C37.8053 75.5664 39.5458 77.3521 39.5458 79.503C39.5458 81.6539 37.7648 83.4395 35.6196 83.4395ZM35.6196 76.9057C34.2029 76.9057 33.0291 78.0826 33.0291 79.503C33.0291 80.9234 34.2029 82.1003 35.6196 82.1003C37.0363 82.1003 38.2101 80.9234 38.2101 79.503C38.2101 78.0826 37.0363 76.9057 35.6196 76.9057Z" fill="#444444"/>
<path d="M35.1338 126.497L44.5648 117.041L79.8604 117.366V118.989L45.2125 118.664L36.2671 127.633L35.1338 126.497Z" fill="#444444"/>
<path d="M35.2959 126.498L44.6055 117.164L79.7392 117.489V118.869L45.1722 118.544L36.2673 127.472L35.2959 126.498Z" fill="#444444"/>
<path d="M35.3365 130.15C33.3936 130.15 31.8555 128.567 31.8555 126.66C31.8555 124.753 33.4341 123.17 35.3365 123.17C37.2389 123.17 38.8174 124.753 38.8174 126.66C38.8174 128.567 37.2793 130.15 35.3365 130.15Z" fill="white"/>
<path d="M35.3361 130.028C37.1916 130.028 38.6957 128.52 38.6957 126.659C38.6957 124.799 37.1916 123.291 35.3361 123.291C33.4807 123.291 31.9766 124.799 31.9766 126.659C31.9766 128.52 33.4807 130.028 35.3361 130.028Z" fill="white"/>
<path d="M35.3357 130.718C33.1095 130.718 31.2881 128.892 31.2881 126.66C31.2881 124.428 33.1095 122.602 35.3357 122.602C37.562 122.602 39.3834 124.428 39.3834 126.66C39.3834 128.892 37.6024 130.718 35.3357 130.718ZM35.3357 124.184C33.9595 124.184 32.8667 125.28 32.8667 126.66C32.8667 128.04 33.9595 129.135 35.3357 129.135C36.712 129.135 37.8048 128.04 37.8048 126.66C37.8048 125.28 36.712 124.184 35.3357 124.184Z" fill="#444444"/>
<path d="M35.3364 130.596C33.1507 130.596 31.4102 128.81 31.4102 126.659C31.4102 124.468 33.1911 122.723 35.3364 122.723C37.4816 122.723 39.2626 124.508 39.2626 126.659C39.3031 128.81 37.5221 130.596 35.3364 130.596ZM35.3364 124.062C33.9197 124.062 32.7459 125.239 32.7459 126.659C32.7459 128.08 33.9197 129.257 35.3364 129.257C36.7531 129.257 37.9269 128.08 37.9269 126.659C37.9269 125.239 36.7531 124.062 35.3364 124.062Z" fill="#444444"/>
<path d="M29.7095 106.49C31.632 106.49 33.1905 104.927 33.1905 103C33.1905 101.072 31.632 99.5098 29.7095 99.5098C27.787 99.5098 26.2285 101.072 26.2285 103C26.2285 104.927 27.787 106.49 29.7095 106.49Z" fill="white"/>
<path d="M29.7101 106.368C31.5656 106.368 33.0697 104.86 33.0697 102.999C33.0697 101.139 31.5656 99.6309 29.7101 99.6309C27.8547 99.6309 26.3506 101.139 26.3506 102.999C26.3506 104.86 27.8547 106.368 29.7101 106.368Z" fill="white"/>
<path d="M29.7098 107.058C27.4836 107.058 25.6621 105.232 25.6621 103C25.6621 100.768 27.4836 98.9414 29.7098 98.9414C31.936 98.9414 33.7574 100.768 33.7574 103C33.7979 105.232 31.9765 107.058 29.7098 107.058ZM29.7098 100.524C28.3336 100.524 27.2407 101.62 27.2407 103C27.2407 104.38 28.3336 105.475 29.7098 105.475C31.086 105.475 32.1788 104.38 32.1788 103C32.1788 101.62 31.086 100.524 29.7098 100.524Z" fill="#444444"/>
<path d="M29.7094 106.936C27.5237 106.936 25.7832 105.15 25.7832 102.999C25.7832 100.808 27.5642 99.0625 29.7094 99.0625C31.8952 99.0625 33.6357 100.848 33.6357 102.999C33.6761 105.15 31.8952 106.936 29.7094 106.936ZM29.7094 100.402C28.2928 100.402 27.1189 101.579 27.1189 102.999C27.1189 104.419 28.2928 105.596 29.7094 105.596C31.1261 105.596 32.2999 104.419 32.2999 102.999C32.2999 101.579 31.1261 100.402 29.7094 100.402Z" fill="#444444"/>
<path d="M82.8963 107.058C80.6701 107.058 78.8486 105.232 78.8486 103C78.8486 100.768 80.6701 98.9414 82.8963 98.9414C85.1225 98.9414 86.944 100.768 86.944 103C86.944 105.232 85.1225 107.058 82.8963 107.058ZM82.8963 100.524C81.5201 100.524 80.4272 101.62 80.4272 103C80.4272 104.38 81.5201 105.475 82.8963 105.475C84.2725 105.475 85.3654 104.38 85.3654 103C85.3654 101.62 84.232 100.524 82.8963 100.524Z" fill="#444444"/>
<path d="M82.896 106.936C80.7102 106.936 78.9697 105.15 78.9697 102.999C78.9697 100.808 80.7507 99.0625 82.896 99.0625C85.0817 99.0625 86.8222 100.848 86.8222 102.999C86.8222 105.15 85.0817 106.936 82.896 106.936ZM82.896 100.402C81.4793 100.402 80.3054 101.579 80.3054 102.999C80.3054 104.419 81.4793 105.596 82.896 105.596C84.3126 105.596 85.4865 104.419 85.4865 102.999C85.4865 101.579 84.3126 100.402 82.896 100.402Z" fill="#444444"/>
<path d="M82.8963 92.2865C80.6701 92.2865 78.8486 90.4603 78.8486 88.2282C78.8486 85.9962 80.6701 84.1699 82.8963 84.1699C85.1225 84.1699 86.944 85.9962 86.944 88.2282C86.944 90.4603 85.1225 92.2865 82.8963 92.2865ZM82.8963 85.7527C81.5201 85.7527 80.4272 86.8484 80.4272 88.2282C80.4272 89.6081 81.5201 90.7038 82.8963 90.7038C84.2725 90.7038 85.3654 89.6081 85.3654 88.2282C85.3654 86.8484 84.232 85.7527 82.8963 85.7527Z" fill="#444444"/>
<path d="M82.896 92.1641C80.7102 92.1641 78.9697 90.3785 78.9697 88.2276C78.9697 86.0361 80.7507 84.291 82.896 84.291C85.0817 84.291 86.8222 86.0767 86.8222 88.2276C86.8222 90.4191 85.0817 92.1641 82.896 92.1641ZM82.896 85.6303C81.4793 85.6303 80.3054 86.8072 80.3054 88.2276C80.3054 89.648 81.4793 90.8249 82.896 90.8249C84.3126 90.8249 85.4865 89.648 85.4865 88.2276C85.446 86.8072 84.3126 85.6303 82.896 85.6303Z" fill="#444444"/>
<path d="M82.8963 122.521C80.6701 122.521 78.8486 120.695 78.8486 118.463C78.8486 116.231 80.6701 114.404 82.8963 114.404C85.1225 114.404 86.944 116.231 86.944 118.463C86.944 120.695 85.1225 122.521 82.8963 122.521ZM82.8963 115.987C81.5201 115.987 80.4272 117.083 80.4272 118.463C80.4272 119.842 81.5201 120.938 82.8963 120.938C84.2725 120.938 85.3654 119.842 85.3654 118.463C85.3654 117.123 84.232 115.987 82.8963 115.987Z" fill="#444444"/>
<path d="M82.896 122.44C80.7102 122.44 78.9697 120.654 78.9697 118.503C78.9697 116.311 80.7507 114.566 82.896 114.566C85.0817 114.566 86.8222 116.352 86.8222 118.503C86.8222 120.654 85.0817 122.44 82.896 122.44ZM82.896 115.865C81.4793 115.865 80.3054 117.042 80.3054 118.462C80.3054 119.883 81.4793 121.06 82.896 121.06C84.3126 121.06 85.4865 119.883 85.4865 118.462C85.4865 117.042 84.3126 115.865 82.896 115.865Z" fill="#444444"/>
<path d="M202.664 102.233L152.23 102.469L152.238 104.051L202.672 103.816L202.664 102.233Z" fill="#444444"/>
<path d="M202.544 102.357L152.312 102.592L152.319 103.972L202.55 103.737L202.544 102.357Z" fill="#444444"/>
<path d="M185.869 118.219L152.516 118.585L152.476 116.961L186.516 116.637L195.947 126.093L194.814 127.188L185.869 118.219Z" fill="#444444"/>
<path d="M185.909 118.138L152.597 118.462V117.082L186.476 116.758L195.785 126.092L194.814 127.025L185.909 118.138Z" fill="#444444"/>
<path d="M195.583 130.15C193.64 130.15 192.102 128.567 192.102 126.66C192.102 124.753 193.68 123.17 195.583 123.17C197.485 123.17 199.064 124.753 199.064 126.66C199.064 128.567 197.525 130.15 195.583 130.15Z" fill="white"/>
<path d="M195.583 130.028C197.439 130.028 198.943 128.52 198.943 126.659C198.943 124.799 197.439 123.291 195.583 123.291C193.728 123.291 192.224 124.799 192.224 126.659C192.224 128.52 193.728 130.028 195.583 130.028Z" fill="white"/>
<path d="M195.583 130.718C193.357 130.718 191.535 128.892 191.535 126.66C191.535 124.428 193.357 122.602 195.583 122.602C197.809 122.602 199.63 124.428 199.63 126.66C199.63 128.892 197.809 130.718 195.583 130.718ZM195.583 124.184C194.207 124.184 193.114 125.28 193.114 126.66C193.114 128.04 194.207 129.135 195.583 129.135C196.959 129.135 198.052 128.04 198.052 126.66C198.052 125.28 196.959 124.184 195.583 124.184Z" fill="#444444"/>
<path d="M195.582 130.596C193.397 130.596 191.656 128.81 191.656 126.659C191.656 124.468 193.437 122.723 195.582 122.723C197.728 122.723 199.509 124.508 199.509 126.659C199.549 128.81 197.768 130.596 195.582 130.596ZM195.582 124.062C194.166 124.062 192.992 125.239 192.992 126.659C192.992 128.08 194.166 129.257 195.582 129.257C196.999 129.257 198.173 128.08 198.173 126.659C198.173 125.239 196.999 124.062 195.582 124.062Z" fill="#444444"/>
<path d="M152.516 88.7562V87.1735L185.99 87.4982L194.935 78.5293L196.068 79.6656L186.637 89.0809L152.516 88.7562Z" fill="#444444"/>
<path d="M152.597 88.6343L152.637 87.2544L186.03 87.6197L194.935 78.6914L195.907 79.6654L186.597 88.9995L152.597 88.6343Z" fill="#444444"/>
<path d="M195.867 82.992C193.924 82.992 192.386 81.4093 192.386 79.5019C192.386 77.5945 193.964 76.0117 195.867 76.0117C197.769 76.0117 199.348 77.5945 199.348 79.5019C199.348 81.4093 197.769 82.992 195.867 82.992Z" fill="white"/>
<path d="M195.866 82.8716C197.722 82.8716 199.226 81.3635 199.226 79.5032C199.226 77.6428 197.722 76.1348 195.866 76.1348C194.011 76.1348 192.507 77.6428 192.507 79.5032C192.507 81.3635 194.011 82.8716 195.866 82.8716Z" fill="white"/>
<path d="M195.866 83.56C193.64 83.56 191.818 81.7337 191.818 79.5017C191.818 77.2696 193.64 75.4434 195.866 75.4434C198.092 75.4434 199.914 77.2696 199.914 79.5017C199.914 81.7337 198.092 83.56 195.866 83.56ZM195.866 77.0261C194.49 77.0261 193.397 78.1218 193.397 79.5017C193.397 80.8815 194.49 81.9772 195.866 81.9772C197.242 81.9772 198.335 80.8815 198.335 79.5017C198.335 78.1218 197.202 77.0261 195.866 77.0261Z" fill="#444444"/>
<path d="M195.867 83.4395C193.681 83.4395 191.94 81.6539 191.94 79.503C191.94 77.3521 193.721 75.5664 195.867 75.5664C198.052 75.5664 199.793 77.3521 199.793 79.503C199.793 81.6539 198.012 83.4395 195.867 83.4395ZM195.867 76.9057C194.45 76.9057 193.276 78.0826 193.276 79.503C193.276 80.9234 194.45 82.1003 195.867 82.1003C197.283 82.1003 198.457 80.9234 198.457 79.503C198.457 78.0826 197.283 76.9057 195.867 76.9057Z" fill="#444444"/>
<path d="M201.452 106.287C199.509 106.287 197.971 104.704 197.971 102.797C197.971 100.889 199.549 99.3066 201.452 99.3066C203.354 99.3066 204.933 100.889 204.933 102.797C204.933 104.704 203.395 106.287 201.452 106.287Z" fill="white"/>
<path d="M201.452 106.165C203.308 106.165 204.812 104.656 204.812 102.796C204.812 100.936 203.308 99.4277 201.452 99.4277C199.597 99.4277 198.093 100.936 198.093 102.796C198.093 104.656 199.597 106.165 201.452 106.165Z" fill="white"/>
<path d="M201.452 106.855C199.226 106.855 197.404 105.029 197.404 102.797C197.404 100.565 199.226 98.7383 201.452 98.7383C203.678 98.7383 205.5 100.565 205.5 102.797C205.54 105.029 203.719 106.855 201.452 106.855ZM201.452 100.321C200.076 100.321 198.983 101.417 198.983 102.797C198.983 104.176 200.076 105.272 201.452 105.272C202.828 105.272 203.921 104.176 203.921 102.797C203.921 101.417 202.828 100.321 201.452 100.321Z" fill="#444444"/>
<path d="M201.452 106.734C199.266 106.734 197.525 104.949 197.525 102.798C197.525 100.606 199.306 98.8613 201.452 98.8613C203.597 98.8613 205.378 100.647 205.378 102.798C205.418 104.989 203.637 106.734 201.452 106.734ZM201.452 100.201C200.035 100.201 198.861 101.377 198.861 102.798C198.861 104.218 200.035 105.395 201.452 105.395C202.868 105.395 204.042 104.218 204.042 102.798C204.042 101.377 202.909 100.201 201.452 100.201Z" fill="#444444"/>
<path d="M149.358 107.423C147.132 107.423 145.311 105.597 145.311 103.365C145.311 101.133 147.132 99.3066 149.358 99.3066C151.584 99.3066 153.406 101.133 153.406 103.365C153.406 105.597 151.584 107.423 149.358 107.423ZM149.358 100.889C147.982 100.889 146.889 101.985 146.889 103.365C146.889 104.745 147.982 105.841 149.358 105.841C150.734 105.841 151.827 104.745 151.827 103.365C151.787 101.985 150.694 100.889 149.358 100.889Z" fill="#444444"/>
<path d="M149.359 107.301C147.173 107.301 145.433 105.515 145.433 103.364C145.433 101.173 147.214 99.4277 149.359 99.4277C151.504 99.4277 153.285 101.213 153.285 103.364C153.285 105.515 151.504 107.301 149.359 107.301ZM149.359 100.767C147.942 100.767 146.768 101.944 146.768 103.364C146.768 104.785 147.942 105.962 149.359 105.962C150.776 105.962 151.949 104.785 151.949 103.364C151.909 101.903 150.776 100.767 149.359 100.767Z" fill="#444444"/>
<path d="M149.358 92.0424C147.132 92.0424 145.311 90.2162 145.311 87.9841C145.311 85.752 147.132 83.9258 149.358 83.9258C151.584 83.9258 153.406 85.752 153.406 87.9841C153.406 90.2162 151.584 92.0424 149.358 92.0424ZM149.358 85.5085C147.982 85.5085 146.889 86.6043 146.889 87.9841C146.889 89.3639 147.982 90.4597 149.358 90.4597C150.734 90.4597 151.827 89.3639 151.827 87.9841C151.827 86.6043 150.694 85.5085 149.358 85.5085Z" fill="#444444"/>
<path d="M149.359 91.92C147.173 91.92 145.433 90.1343 145.433 87.9834C145.433 85.7919 147.214 84.0469 149.359 84.0469C151.504 84.0469 153.285 85.8325 153.285 87.9834C153.285 90.1343 151.504 91.92 149.359 91.92ZM149.359 85.3861C147.942 85.3861 146.768 86.563 146.768 87.9834C146.768 89.4038 147.942 90.5808 149.359 90.5808C150.776 90.5808 151.949 89.4038 151.949 87.9834C151.909 86.563 150.776 85.3861 149.359 85.3861Z" fill="#444444"/>
<path d="M149.358 122.033C147.132 122.033 145.311 120.206 145.311 117.974C145.311 115.742 147.132 113.916 149.358 113.916C151.584 113.916 153.406 115.742 153.406 117.974C153.406 120.206 151.584 122.033 149.358 122.033ZM149.358 115.499C147.982 115.499 146.889 116.595 146.889 117.974C146.889 119.354 147.982 120.45 149.358 120.45C150.734 120.45 151.827 119.354 151.827 117.974C151.787 116.595 150.694 115.499 149.358 115.499Z" fill="#444444"/>
<path d="M149.359 121.912C147.173 121.912 145.433 120.127 145.433 117.976C145.433 115.784 147.214 114.039 149.359 114.039C151.504 114.039 153.285 115.825 153.285 117.976C153.285 120.127 151.504 121.912 149.359 121.912ZM149.359 115.378C147.942 115.378 146.768 116.555 146.768 117.976C146.768 119.396 147.942 120.573 149.359 120.573C150.776 120.573 151.949 119.396 151.949 117.976C151.949 116.555 150.776 115.378 149.359 115.378Z" fill="#444444"/>
<path d="M100.949 125.848L102.608 121.709C100.584 120.288 98.8033 118.543 97.3461 116.555L93.258 118.3L89.2103 108.763L93.2984 107.018C92.8532 104.583 92.8532 102.107 93.2175 99.6315L89.0889 97.9676L92.9341 88.3494L97.0628 90.0133C98.4794 87.9842 100.22 86.1985 102.203 84.7375L100.463 80.6386L109.975 76.5803L111.715 80.6792C113.011 80.4357 114.346 80.3139 115.642 80.3139C116.775 80.3139 117.949 80.3951 119.082 80.5574L120.742 76.418L130.335 80.2734L128.675 84.4128C130.699 85.8333 132.48 87.5783 133.937 89.5669L138.025 87.8218L142.073 97.3589L137.985 99.1039C138.43 101.539 138.43 104.014 138.066 106.49L142.194 108.154L138.349 117.772L134.22 116.108C132.804 118.137 131.063 119.923 129.08 121.384L130.82 125.483L121.308 129.541L119.568 125.442C118.272 125.686 116.937 125.808 115.642 125.808C114.508 125.808 113.334 125.726 112.201 125.564L110.541 129.704L100.949 125.848Z" fill="#1F75BA"/>
<path d="M115.601 110.225C112.727 110.225 110.177 108.52 109.044 105.882C107.506 102.27 109.165 98.0498 112.808 96.5076C113.699 96.1424 114.63 95.9395 115.601 95.9395C118.475 95.9395 121.025 97.6439 122.158 100.282C123.696 103.894 122.037 108.114 118.394 109.657C117.503 110.022 116.572 110.225 115.601 110.225Z" fill="white"/>
<path d="M115.601 110.102C112.768 110.102 110.258 108.438 109.125 105.841C107.587 102.269 109.247 98.1299 112.809 96.5877C113.699 96.2224 114.63 96.0195 115.561 96.0195C118.394 96.0195 120.904 97.6834 122.037 100.281C123.575 103.852 121.916 107.992 118.354 109.534C117.463 109.94 116.532 110.102 115.601 110.102Z" fill="white"/>
<path d="M115.601 110.792C114.63 110.792 113.659 110.589 112.728 110.224C110.825 109.453 109.328 107.992 108.518 106.085C107.709 104.177 107.668 102.067 108.437 100.159C109.206 98.2521 110.663 96.7505 112.566 95.9388C113.537 95.533 114.549 95.3301 115.601 95.3301C118.678 95.3301 121.471 97.1563 122.685 99.9971C123.494 101.905 123.535 104.015 122.766 105.922C121.997 107.83 120.54 109.331 118.637 110.143C117.666 110.589 116.654 110.792 115.601 110.792ZM115.601 96.9534C114.792 96.9534 113.982 97.1157 113.213 97.4404C111.716 98.0897 110.542 99.2666 109.935 100.809C109.328 102.31 109.328 103.974 109.975 105.476C110.623 106.977 111.797 108.154 113.335 108.763C114.063 109.047 114.832 109.21 115.601 109.21C116.411 109.21 117.221 109.047 117.99 108.723C119.487 108.073 120.661 106.896 121.268 105.354C121.875 103.853 121.875 102.189 121.228 100.687C120.256 98.4144 118.03 96.9534 115.601 96.9534Z" fill="#444444"/>
<path d="M115.602 110.669C114.63 110.669 113.699 110.466 112.768 110.101C110.906 109.33 109.409 107.91 108.599 106.043C107.79 104.176 107.79 102.106 108.518 100.199C109.287 98.3321 110.704 96.8306 112.566 96.0189C113.497 95.6131 114.509 95.4102 115.561 95.4102C118.597 95.4102 121.349 97.2364 122.564 100.037C123.373 101.903 123.373 103.973 122.644 105.881C121.875 107.788 120.459 109.249 118.597 110.061C117.625 110.467 116.613 110.669 115.602 110.669ZM115.602 96.8306C114.752 96.8306 113.942 96.9929 113.173 97.3176C111.635 97.9669 110.461 99.1844 109.854 100.727C109.247 102.269 109.247 103.973 109.894 105.515C110.542 107.058 111.756 108.234 113.294 108.843C114.023 109.127 114.833 109.29 115.602 109.29C116.452 109.29 117.261 109.127 118.03 108.803C119.568 108.153 120.742 106.936 121.349 105.394C121.956 103.851 121.956 102.147 121.309 100.605C120.337 98.3321 118.071 96.8306 115.602 96.8306Z" fill="#444444"/>
<path d="M131.104 163.104C128.635 163.104 126.247 162.373 124.183 160.993C120.742 158.68 118.678 154.825 118.678 150.685V134.817H120.256V150.685C120.256 154.338 121.997 157.625 125.033 159.654C126.814 160.872 128.918 161.48 131.064 161.48C132.48 161.48 133.856 161.196 135.192 160.669C135.759 160.425 136.326 160.182 136.973 159.898L137.337 159.735L137.661 159.898C138.835 160.506 140.09 160.79 141.385 160.79C145.554 160.79 149.035 157.666 149.48 153.485L149.561 152.633L150.411 152.796C151.099 152.917 151.788 152.998 152.476 152.998C158.345 152.998 163.121 148.21 163.121 142.325C163.121 142.244 163.121 142.203 163.121 142.122L163.081 141.311L163.728 141.189C171.054 139.687 176.357 133.113 176.357 125.605V125.361H177.935V125.605C177.935 133.559 172.35 140.702 164.659 142.609C164.497 149.224 159.033 154.581 152.435 154.581C151.909 154.581 151.423 154.541 150.897 154.5C150.007 159.086 145.999 162.414 141.345 162.414C139.928 162.414 138.552 162.089 137.256 161.521C136.73 161.764 136.245 161.967 135.799 162.17C134.342 162.779 132.723 163.104 131.104 163.104Z" fill="#444444"/>
<path d="M131.103 162.983C128.675 162.983 126.287 162.252 124.263 160.872C120.863 158.6 118.839 154.744 118.839 150.645V134.899H120.215V150.645C120.215 154.338 121.956 157.666 125.032 159.736C126.853 160.953 128.958 161.603 131.144 161.603C132.56 161.603 133.977 161.319 135.313 160.791C135.88 160.548 136.446 160.304 137.094 160.02L137.377 159.898L137.66 160.061C138.834 160.669 140.089 160.994 141.425 160.994C145.675 160.994 149.196 157.788 149.642 153.567L149.723 152.837L150.451 152.999C151.139 153.121 151.827 153.202 152.515 153.202C158.425 153.202 163.282 148.373 163.282 142.407C163.282 142.326 163.282 142.245 163.282 142.204L163.242 141.514L163.808 141.392C171.175 139.85 176.518 133.276 176.518 125.727V125.605H177.894V125.727C177.894 133.682 172.308 140.784 164.618 142.65C164.496 149.265 159.073 154.582 152.515 154.582C151.989 154.582 151.423 154.541 150.896 154.46C150.087 159.046 146.12 162.374 141.425 162.374C140.008 162.374 138.632 162.049 137.337 161.44C136.81 161.684 136.284 161.887 135.839 162.09C134.301 162.698 132.722 162.983 131.103 162.983Z" fill="#444444"/>
<path d="M100.098 163.104C98.4794 163.104 96.8603 162.779 95.3627 162.17C94.877 161.967 94.3913 161.764 93.9056 161.521C92.6103 162.13 91.2341 162.414 89.8174 162.414C85.1221 162.414 81.1149 159.086 80.2649 154.5C79.7387 154.581 79.253 154.581 78.7268 154.581C72.1291 154.581 66.6648 149.224 66.5029 142.609C58.8123 140.702 53.2266 133.559 53.2266 125.605V125.361H54.8051V125.605C54.8051 133.113 60.1076 139.647 67.4339 141.189L68.0815 141.311C68.0815 141.311 68.041 142.244 68.041 142.325C68.041 148.21 72.8172 152.998 78.6863 152.998C79.3744 152.998 80.0626 152.917 80.7507 152.796L81.6007 152.633L81.6816 153.485C82.1269 157.666 85.6078 160.79 89.7769 160.79C91.0722 160.79 92.327 160.506 93.5008 159.898L93.8246 159.735L94.1889 159.898C94.796 160.182 95.4032 160.425 95.9699 160.669C97.3056 161.196 98.6818 161.48 100.098 161.48C102.244 161.48 104.349 160.831 106.129 159.654C109.165 157.625 110.906 154.338 110.906 150.685V134.817H112.484V150.685C112.484 154.825 110.42 158.68 106.979 160.993C104.956 162.373 102.568 163.104 100.098 163.104Z" fill="#444444"/>
<path d="M100.099 162.982C98.48 162.982 96.9015 162.657 95.4038 162.049C94.9181 161.846 94.4324 161.643 93.9062 161.399C92.6109 162.008 91.2347 162.333 89.8181 162.333C85.1228 162.333 81.1561 159.005 80.3465 154.419C79.8203 154.5 79.2537 154.541 78.7275 154.541C72.1298 154.541 66.7059 149.184 66.625 142.609C58.9344 140.743 53.3486 133.641 53.3486 125.686V125.564H54.7248V125.686C54.7248 133.235 60.0678 139.85 67.4345 141.351L68.0012 141.473V142.163C68.0012 142.244 68.0012 142.325 68.0012 142.406C68.0012 148.332 72.8179 153.202 78.7679 153.202C79.456 153.202 80.1441 153.12 80.8322 152.999L81.5608 152.836L81.6418 153.567C82.087 157.787 85.6085 160.994 89.8585 160.994C91.1943 160.994 92.449 160.669 93.6229 160.06L93.9062 159.898L94.1895 160.02C94.8372 160.304 95.4038 160.547 95.9705 160.791C97.3062 161.359 98.7229 161.602 100.14 161.602C102.325 161.602 104.43 160.953 106.252 159.735C109.328 157.666 111.068 154.378 111.068 150.645V134.899H112.444V150.645C112.444 154.744 110.421 158.559 107.021 160.872C104.916 162.292 102.528 162.982 100.099 162.982Z" fill="#444444"/>
<path d="M176.438 80.6798V80.4363C176.438 72.9284 171.136 66.3946 163.809 64.8524L163.162 64.7306L163.202 63.919C163.202 63.8378 163.202 63.7972 163.202 63.7161C163.202 57.8315 158.426 53.0427 152.557 53.0427C151.869 53.0427 151.181 53.1239 150.492 53.2456L149.642 53.408L149.561 52.5557C149.116 48.3756 145.635 45.2507 141.466 45.2507C140.171 45.2507 138.916 45.5348 137.742 46.1436L137.419 46.3059L137.054 46.1436C136.407 45.8595 135.84 45.616 135.273 45.3725C133.938 44.8449 132.561 44.5608 131.145 44.5608C128.999 44.5608 126.895 45.2102 125.114 46.3871C122.078 48.4162 120.337 51.7035 120.337 55.3559V71.2239H118.759V55.3559C118.759 51.2165 120.823 47.3611 124.264 45.0478C126.328 43.668 128.716 42.9375 131.185 42.9375C132.804 42.9375 134.423 43.2622 135.921 43.8709C136.407 44.0738 136.852 44.2767 137.378 44.5202C138.673 43.9115 140.049 43.6274 141.466 43.6274C146.161 43.6274 150.169 46.9552 151.019 51.5411C151.545 51.46 152.031 51.46 152.557 51.46C159.154 51.46 164.619 56.8169 164.781 63.432C172.471 65.3394 178.057 72.482 178.057 80.4363V80.6798H176.438Z" fill="#444444"/>
<path d="M176.559 80.5978V80.476C176.559 72.9276 171.216 66.3125 163.849 64.8109L163.283 64.6892L163.323 64.0399C163.323 63.9587 163.323 63.8775 163.323 63.7964C163.323 57.8712 158.506 53.0012 152.556 53.0012C151.868 53.0012 151.18 53.0824 150.492 53.2042L149.764 53.3665L149.683 52.636C149.237 48.4153 145.716 45.2093 141.466 45.2093C140.13 45.2093 138.875 45.5339 137.702 46.1427L137.418 46.305L137.135 46.1833C136.487 45.8992 135.921 45.6557 135.354 45.4122C134.018 44.844 132.601 44.6005 131.185 44.6005C128.999 44.6005 126.894 45.2499 125.073 46.4674C121.997 48.5371 120.256 51.8243 120.256 55.558V71.3042H118.88V55.558C118.88 51.4591 120.904 47.6443 124.304 45.331C126.328 43.9512 128.716 43.2207 131.144 43.2207C132.763 43.2207 134.342 43.5454 135.84 44.1541C136.325 44.357 136.811 44.5599 137.337 44.8034C138.632 44.1947 140.009 43.87 141.425 43.87C146.121 43.87 150.087 47.1978 150.897 51.7837C151.423 51.7026 151.99 51.662 152.516 51.662C159.114 51.662 164.537 57.019 164.618 63.5934C172.309 65.4603 177.895 72.5623 177.895 80.5166V80.6384H176.559V80.5978Z" fill="#444444"/>
<path d="M53.1865 80.6798V80.4363C53.1865 72.482 58.7723 65.3394 66.4629 63.432C66.6248 56.8169 72.0891 51.46 78.6868 51.46C79.213 51.46 79.6987 51.5005 80.2249 51.5411C81.1154 46.9552 85.1226 43.6274 89.7774 43.6274C91.1941 43.6274 92.5703 43.9521 93.8655 44.5202C94.3917 44.2767 94.8774 44.0738 95.3227 43.8709C96.8203 43.2622 98.4394 42.9375 100.058 42.9375C102.528 42.9375 104.916 43.668 106.98 45.0478C110.42 47.3611 112.485 51.2165 112.485 55.3559V71.2239H110.906V55.3559C110.906 51.7035 109.166 48.4162 106.13 46.3871C104.349 45.1696 102.244 44.5608 100.099 44.5608C98.6822 44.5608 97.306 44.8449 95.9703 45.3725C95.4036 45.616 94.837 45.8595 94.1893 46.1436L93.825 46.3059L93.5012 46.1436C92.3274 45.5348 91.0726 45.2507 89.7774 45.2507C85.6083 45.2507 82.1273 48.3756 81.6821 52.5557L81.6011 53.408L80.7511 53.2456C80.063 53.1239 79.3749 53.0427 78.6868 53.0427C72.8177 53.0427 68.0414 57.8315 68.0414 63.7161C68.0414 63.7566 68.0819 64.6089 68.0819 64.6089V64.6901L67.4343 64.8118C60.108 66.3134 54.8056 72.8879 54.8056 80.3957V80.6392H53.1865V80.6798Z" fill="#444444"/>
<path d="M53.2676 80.5973V80.4756C53.2676 72.5213 58.8533 65.4192 66.5439 63.5524C66.6653 56.9374 72.0892 51.621 78.6464 51.621C79.1726 51.621 79.7393 51.6616 80.2655 51.7427C81.075 47.1568 85.0417 43.829 89.737 43.829C91.1537 43.829 92.5299 44.1537 93.8251 44.7624C94.3513 44.5189 94.8775 44.316 95.3228 44.1131C96.8204 43.5044 98.399 43.1797 100.018 43.1797C102.447 43.1797 104.835 43.9102 106.859 45.29C110.259 47.5627 112.282 51.4181 112.282 55.517V71.2632H110.906V55.517C110.906 51.8239 109.166 48.4961 106.09 46.4263C104.268 45.2088 102.163 44.5595 99.9776 44.5595C98.5609 44.5595 97.1442 44.8436 95.8085 45.3712C95.2418 45.6147 94.6751 45.8582 94.0275 46.1423L93.7442 46.264L93.4608 46.1017C92.287 45.4929 91.0323 45.1683 89.6965 45.1683C85.4465 45.1683 81.925 48.3743 81.4798 52.595L81.3988 53.3255L80.6702 53.1631C79.9821 53.0414 79.294 52.9602 78.6059 52.9602C72.6963 52.9602 67.8392 57.7896 67.8392 63.7553C67.8392 63.8365 67.8392 63.8771 67.8392 63.9583L67.8796 64.6482L67.313 64.7699C59.9462 66.3121 54.6033 72.8865 54.6033 80.435V80.5568H53.2676V80.5973Z" fill="#444444"/>
</g>
<defs>
<clipPath id="clip0_4553_6942">
<rect width="231" height="206" fill="white"/>
</clipPath>
</defs>
</svg>
