<svg width="247" height="241" viewBox="0 0 247 241" fill="none" xmlns="http://www.w3.org/2000/svg">
<g clip-path="url(#clip0_4553_7499)">
<path d="M224.279 146.137C224.279 137.258 217.843 129.735 209.121 128.314L181.445 123.891H163.197L135.52 128.314C126.799 129.703 120.362 137.258 120.362 146.137C120.362 150.981 124.289 154.92 129.116 154.92H215.493C220.385 154.92 224.279 150.981 224.279 146.137Z" fill="white"/>
<path d="M215.526 155.468H129.148C124.031 155.468 119.848 151.27 119.848 146.136C119.848 136.934 126.413 129.217 135.456 127.797L163.133 123.373C163.165 123.373 163.197 123.373 163.23 123.373H181.477C181.509 123.373 181.541 123.373 181.574 123.373L209.25 127.797C218.294 129.25 224.859 136.966 224.859 146.136C224.827 151.27 220.675 155.468 215.526 155.468ZM163.262 124.439L135.617 128.862C127.121 130.218 120.942 137.483 120.942 146.136C120.942 150.689 124.611 154.37 129.148 154.37H215.526C220.064 154.37 223.732 150.689 223.732 146.136C223.732 137.483 217.553 130.218 209.057 128.862L181.413 124.439H163.262Z" fill="#444444"/>
<path d="M181.477 116.916V123.923C181.477 126.441 180.447 128.734 178.806 130.38C177.165 132.027 174.88 133.06 172.369 133.06C167.317 133.06 163.262 128.96 163.262 123.923V116.916C166.094 118.046 169.151 118.66 172.369 118.66C175.588 118.66 178.645 118.046 181.477 116.916Z" fill="white"/>
<path d="M172.337 133.608C166.995 133.608 162.683 129.25 162.683 123.922V116.915C162.683 116.722 162.779 116.56 162.908 116.463C163.069 116.367 163.262 116.334 163.423 116.399C166.255 117.529 169.28 118.11 172.337 118.11C175.395 118.11 178.42 117.529 181.252 116.399C181.413 116.334 181.606 116.367 181.767 116.463C181.928 116.56 181.992 116.722 181.992 116.915V123.922C181.992 126.505 180.994 128.959 179.16 130.767C177.358 132.575 174.912 133.608 172.337 133.608ZM163.777 117.69V123.89C163.777 128.636 167.607 132.478 172.337 132.478C174.622 132.478 176.779 131.574 178.388 129.96C179.997 128.346 180.898 126.182 180.898 123.89V117.69C178.162 118.691 175.266 119.208 172.337 119.208C169.409 119.208 166.512 118.691 163.777 117.69Z" fill="#444444"/>
<path d="M180.962 27.8002V23.4735H191.872L172.338 0.548828L152.835 23.4735H163.713V28.9303" fill="white"/>
<path d="M163.713 29.4792C163.423 29.4792 163.165 29.2209 163.165 28.9303V24.0225H152.803C152.577 24.0225 152.384 23.8934 152.32 23.6996C152.223 23.5059 152.256 23.2799 152.416 23.1184L171.951 0.19373C172.144 -0.0645766 172.563 -0.0645766 172.788 0.19373L192.323 23.1184C192.451 23.2799 192.484 23.5059 192.419 23.6996C192.323 23.8934 192.13 24.0225 191.936 24.0225H181.509V27.8002C181.509 28.0908 181.252 28.3491 180.962 28.3491C180.673 28.3491 180.415 28.0908 180.415 27.8002V23.4736C180.415 23.183 180.673 22.9247 180.962 22.9247H190.681L172.337 1.3884L153.993 22.9247H163.713C164.002 22.9247 164.26 23.183 164.26 23.4736V28.9626C164.26 29.2532 164.034 29.4792 163.713 29.4792Z" fill="#444444"/>
<path d="M132.334 63.5121H121.778V52.5664L98.9287 72.1331L121.778 91.7321V80.7864H136.904" fill="white"/>
<path d="M121.778 92.2802C121.65 92.2802 121.521 92.2479 121.424 92.151L98.5749 72.552C98.4462 72.4552 98.3818 72.2937 98.3818 72.1323C98.3818 71.9708 98.4462 71.8094 98.5749 71.7125L121.424 52.1135C121.585 51.9844 121.811 51.9521 122.004 52.0167C122.197 52.1135 122.326 52.3073 122.326 52.501V62.9624H132.366C132.656 62.9624 132.914 63.2207 132.914 63.5113C132.914 63.8019 132.656 64.0602 132.366 64.0602H121.778C121.618 64.0602 121.489 63.9956 121.392 63.8988C121.296 63.8019 121.231 63.6405 121.231 63.5113V53.7602L99.7657 72.1646L121.231 90.5689V80.8178C121.231 80.5272 121.489 80.2689 121.778 80.2689H136.936C137.226 80.2689 137.483 80.5272 137.483 80.8178C137.483 81.1084 137.226 81.3667 136.936 81.3667H122.326V91.7636C122.326 91.9896 122.197 92.1833 122.004 92.2479C121.939 92.2802 121.843 92.2802 121.778 92.2802Z" fill="#444444"/>
<path d="M207.77 80.7844H223.603V91.7302L246.453 72.1312L223.603 52.5645V63.5102H212.339" fill="white"/>
<path d="M223.603 92.2799C223.539 92.2799 223.443 92.2476 223.378 92.2153C223.185 92.1184 223.056 91.9247 223.056 91.731V81.3341H207.77C207.48 81.3341 207.223 81.0758 207.223 80.7852C207.223 80.4946 207.48 80.2363 207.77 80.2363H223.603C223.893 80.2363 224.151 80.4946 224.151 80.7852V90.5363L245.616 72.132L224.151 53.7276V63.4787C224.151 63.7693 223.893 64.0276 223.603 64.0276H212.34C212.05 64.0276 211.793 63.7693 211.793 63.4787C211.793 63.1881 212.05 62.9298 212.34 62.9298H223.056V52.533C223.056 52.3069 223.185 52.1132 223.378 52.0486C223.571 51.9518 223.797 51.9841 223.958 52.1455L246.807 71.7445C246.936 71.8414 247 72.0028 247 72.1642C247 72.3257 246.936 72.4871 246.807 72.584L223.958 92.183C223.861 92.2476 223.732 92.2799 223.603 92.2799Z" fill="#444444"/>
<path d="M201.429 78.654C206.096 71.7443 206.836 64.3825 205.259 58.3446C207.351 56.6333 209.25 54.6315 210.955 52.2744C196.795 52.2744 194.124 30.4798 169.505 33.6441C162.424 34.5481 155.795 39.3591 152.898 45.5262C142.021 45.4293 132.849 63.1233 143.212 78.5894" fill="white"/>
<path d="M201.43 79.2024C201.333 79.2024 201.204 79.1701 201.14 79.1055C200.882 78.9441 200.818 78.5889 200.979 78.3306C205.131 72.1635 206.45 65.1247 204.744 58.4733C204.68 58.2796 204.777 58.0535 204.937 57.9244C206.772 56.4068 208.445 54.6956 209.894 52.7905C204.358 52.3708 200.496 48.6576 196.441 44.7185C190.455 38.9389 183.665 32.3843 169.569 34.1925C162.746 35.0643 156.245 39.7138 153.381 45.7517C153.285 45.9454 153.092 46.0746 152.899 46.0746C152.866 46.0746 152.834 46.0746 152.802 46.0746C148.49 46.0746 144.37 48.9805 141.763 53.8561C138.642 59.6357 137.515 69.0961 143.662 78.2983C143.823 78.5566 143.759 78.8795 143.501 79.0732C143.244 79.2347 142.922 79.1701 142.729 78.9118C136.292 69.3222 137.515 59.4096 140.766 53.3394C143.533 48.2056 147.91 45.1059 152.512 45.0091C155.57 38.7774 162.328 34.031 169.408 33.127C184.051 31.2542 191.035 38.0025 197.182 43.9758C201.526 48.1733 205.259 51.7896 210.923 51.7896C211.117 51.7896 211.31 51.9188 211.406 52.0802C211.503 52.2416 211.47 52.4999 211.374 52.6614C209.765 54.857 207.93 56.8589 205.871 58.6024C207.544 65.4476 206.128 72.6801 201.88 79.0087C201.784 79.1378 201.623 79.2024 201.43 79.2024Z" fill="#444444"/>
<path d="M201.462 71.2594V88.1462C201.462 91.375 199.66 94.1518 197.053 95.5725C195.862 96.2183 194.479 96.6057 193.03 96.6057H183.183C179.836 96.6057 176.875 94.5393 175.684 91.4073L175.298 90.3741C175.073 89.7606 174.654 89.2763 174.172 88.9211C173.657 88.5659 173.045 88.3722 172.402 88.3722C171.114 88.3722 169.956 89.1794 169.505 90.3741L169.119 91.4073C167.928 94.5393 164.935 96.6057 161.588 96.6057H151.74C150.292 96.6057 148.908 96.2183 147.718 95.5725C145.079 94.1518 143.309 91.3427 143.309 88.1462V71.2594C143.309 66.5776 147.074 62.7676 151.74 62.7676H193.063C197.665 62.7999 201.462 66.5776 201.462 71.2594Z" fill="#1F75BA"/>
<path d="M185.95 57.7316V62.8008H158.756V57.7316C158.756 56.1817 160.011 54.9225 161.556 54.9225H183.118C184.695 54.8902 185.95 56.1494 185.95 57.7316Z" fill="white"/>
<path d="M185.95 63.3492H158.756C158.466 63.3492 158.209 63.0909 158.209 62.8003V57.731C158.209 55.8583 159.722 54.373 161.556 54.373H183.118C184.985 54.373 186.465 55.8906 186.465 57.731V62.8003C186.497 63.0909 186.24 63.3492 185.95 63.3492ZM159.303 62.2514H185.403V57.731C185.403 56.4718 184.373 55.4709 183.15 55.4709H161.588C160.333 55.4709 159.335 56.5041 159.335 57.731V62.2514H159.303Z" fill="#444444"/>
<path d="M197.052 95.5744C196.377 105.261 190.101 113.43 181.476 116.885C178.644 118.015 175.587 118.628 172.368 118.628C169.15 118.628 166.061 118.015 163.261 116.885C160.364 115.722 157.725 114.043 155.473 111.912C151.032 107.747 148.135 101.967 147.685 95.5421C148.875 96.1879 150.259 96.5753 151.707 96.5753H161.555C164.902 96.5753 167.895 94.5089 169.086 91.3769L169.472 90.3437C169.923 89.149 171.081 88.3418 172.368 88.3418C173.012 88.3418 173.624 88.5355 174.139 88.8907C174.653 89.2459 175.04 89.7302 175.265 90.3437L175.651 91.3769C176.842 94.5089 179.835 96.5753 183.15 96.5753H192.997C194.446 96.6399 195.829 96.2524 197.052 95.5744Z" fill="white"/>
<path d="M172.336 119.208C169.118 119.208 165.997 118.595 163.004 117.433C160.075 116.27 157.372 114.559 155.054 112.363C150.356 107.94 147.524 101.999 147.073 95.638C147.073 95.4443 147.17 95.2505 147.331 95.1214C147.492 95.0245 147.717 94.9922 147.878 95.0891C149.036 95.7349 150.324 96.0577 151.643 96.0577H161.491C164.58 96.0577 167.413 94.1204 168.507 91.2145L168.893 90.1813C169.44 88.7606 170.792 87.8242 172.304 87.8242C173.044 87.8242 173.785 88.0502 174.364 88.47C174.975 88.8897 175.458 89.5032 175.716 90.1813L176.102 91.2145C177.196 94.1204 180.028 96.0577 183.118 96.0577H192.965C194.285 96.0577 195.572 95.7349 196.731 95.0891C196.892 94.9922 197.117 94.9922 197.278 95.1214C197.439 95.2182 197.535 95.412 197.535 95.638C196.859 105.26 190.584 113.816 181.605 117.433C178.676 118.595 175.555 119.208 172.336 119.208ZM148.296 96.5098C148.94 102.225 151.579 107.552 155.827 111.556C158.047 113.655 160.622 115.302 163.422 116.399C166.254 117.529 169.279 118.111 172.336 118.111C175.394 118.111 178.419 117.529 181.251 116.399C189.554 113.074 195.411 105.324 196.409 96.5098C195.347 96.9618 194.188 97.1878 192.998 97.1878H183.15C179.61 97.1878 176.391 94.9599 175.136 91.6342L174.75 90.601C174.557 90.1167 174.235 89.6969 173.817 89.4063C173.398 89.1157 172.884 88.9543 172.369 88.9543C171.307 88.9543 170.341 89.6324 169.987 90.601L169.601 91.6342C168.346 94.9599 165.095 97.1878 161.555 97.1878H151.708C150.517 97.1878 149.358 96.9295 148.296 96.5098Z" fill="#444444"/>
<path d="M41.9658 127.828L70.3185 141.26L80.3916 118.691L52.9722 105.711L41.9658 127.828Z" fill="#444444"/>
<path d="M100.023 122.503L102.115 118.079C102.919 116.336 102.179 114.269 100.473 113.462L94.1656 110.459C92.4278 109.652 90.3681 110.395 89.5635 112.106L87.4717 116.529" fill="white"/>
<path d="M100.023 123.051C99.9584 123.051 99.8619 123.018 99.7975 122.986C99.5401 122.857 99.4113 122.534 99.5401 122.244L101.632 117.82C101.954 117.11 102.018 116.302 101.728 115.592C101.471 114.849 100.924 114.268 100.216 113.945L93.9081 110.943C93.2001 110.62 92.3956 110.555 91.6876 110.846C90.9474 111.104 90.3681 111.653 90.0463 112.363L87.9544 116.787C87.8257 117.045 87.5038 117.174 87.2142 117.045C86.9567 116.916 86.828 116.593 86.9568 116.302L89.0486 111.879C89.4992 110.91 90.3037 110.168 91.3336 109.813C92.3312 109.457 93.4254 109.49 94.3909 109.974L100.699 112.977C101.664 113.429 102.404 114.236 102.758 115.269C103.112 116.27 103.08 117.368 102.597 118.337L100.506 122.76C100.409 122.922 100.216 123.051 100.023 123.051Z" fill="#444444"/>
<path d="M102.727 134.158C102.63 134.578 102.534 135.03 102.405 135.45L91.7206 174.002C90.562 180.201 84.6083 184.269 78.4292 183.107C72.2502 181.945 68.1952 175.971 69.3538 169.772L71.3491 149.882L80.0705 132.221L102.727 134.158Z" fill="white"/>
<path d="M80.553 183.849C79.8128 183.849 79.0726 183.784 78.3324 183.655C71.8637 182.428 67.6157 176.197 68.8064 169.707L70.8017 149.817C70.8017 149.752 70.8339 149.688 70.8661 149.623L79.5875 131.962C79.6841 131.768 79.9093 131.639 80.1346 131.671L102.791 133.608C102.952 133.608 103.081 133.705 103.177 133.834C103.274 133.963 103.306 134.125 103.274 134.254C103.209 134.641 103.113 134.997 102.984 135.481C102.984 135.513 102.984 135.546 102.952 135.578L92.2674 174.098C91.1732 179.845 86.1527 183.849 80.553 183.849ZM71.8959 150.043L69.9006 169.836V169.868C68.8064 175.745 72.6683 181.46 78.5577 182.557C84.4149 183.655 90.1112 179.781 91.2054 173.872V173.84L101.89 135.384C101.89 135.352 101.89 135.32 101.922 135.287C101.986 135.061 102.051 134.835 102.083 134.641L80.4243 132.769L71.8959 150.043Z" fill="#444444"/>
<path d="M73.0537 133.029L73.3755 129.961C73.4077 129.541 73.4721 129.089 73.5364 128.67C75.049 120.598 82.805 115.27 90.8828 116.788C98.9284 118.305 104.238 126.087 102.726 134.191C101.213 142.263 93.4574 147.591 85.3796 146.073C82.8693 145.589 80.6488 144.523 78.7822 143.038L73.0537 133.029Z" fill="white"/>
<path d="M88.1474 146.847C87.2141 146.847 86.2487 146.751 85.2832 146.589C82.773 146.105 80.4236 145.039 78.4605 143.425C78.3961 143.393 78.364 143.328 78.3318 143.263L72.5711 133.286C72.5068 133.189 72.4746 133.06 72.5068 132.963L72.8286 129.896C72.8286 129.864 72.8286 129.831 72.8608 129.799C72.9251 129.315 72.9573 128.927 73.0217 128.54C73.7941 124.472 76.079 120.984 79.4582 118.627C82.8373 116.303 86.9567 115.431 90.9795 116.206C95.0345 116.981 98.5102 119.273 100.859 122.663C103.177 126.086 104.046 130.187 103.273 134.223C101.889 141.681 95.3885 146.847 88.1474 146.847ZM79.2329 142.65C81.0351 144.103 83.1913 145.104 85.5085 145.524C93.2644 146.977 100.763 141.843 102.211 134.061C102.919 130.283 102.115 126.473 99.9584 123.309C97.8021 120.145 94.5517 118.014 90.7864 117.304C87.021 116.593 83.2235 117.4 80.0696 119.564C76.9158 121.727 74.7917 124.988 74.0837 128.766C74.0193 129.121 73.955 129.509 73.9228 130.025C73.9228 130.057 73.9228 130.09 73.8906 130.122L73.601 132.931L79.2329 142.65Z" fill="#444444"/>
<path d="M50.14 98.8661L52.2319 94.4426C53.0364 92.699 52.2962 90.6325 50.5906 89.8253L44.2828 86.8225C42.545 86.0153 40.4853 86.7579 39.6807 88.4692L37.5889 92.8927" fill="white"/>
<path d="M50.14 99.4153C50.0756 99.4153 49.9791 99.383 49.9147 99.3507C49.6573 99.2215 49.5285 98.8986 49.6573 98.6081L51.7491 94.1846C52.425 92.7316 51.8135 90.988 50.3653 90.2777L44.0575 87.2749C42.6093 86.5968 40.8715 87.2103 40.1635 88.6633L38.0716 93.0867C37.9429 93.3451 37.621 93.4742 37.3314 93.3451C37.0739 93.2159 36.9452 92.893 37.0739 92.6024L39.1658 88.1789C40.0991 86.1771 42.5128 85.3053 44.5081 86.2416L50.8158 89.2444C52.8111 90.1808 53.6801 92.6024 52.7468 94.6043L50.6549 99.0278C50.5584 99.2861 50.3331 99.4153 50.14 99.4153Z" fill="#444444"/>
<path d="M26.872 98.2207C26.5823 98.5759 26.3249 98.8988 26.0674 99.2862L3.18572 132.059C-0.837079 136.902 -0.193431 144.102 4.60175 148.138C9.42911 152.174 16.6058 151.529 20.6286 146.718L34.6601 132.543L39.3909 112.976L26.872 98.2207Z" fill="white"/>
<path d="M11.9076 151.334C9.10769 151.334 6.43654 150.365 4.28032 148.557C-0.772315 144.327 -1.44815 136.772 2.76775 131.735L25.6173 98.9624C25.6494 98.9301 25.6494 98.8978 25.6816 98.8978C25.9713 98.478 26.1965 98.1875 26.454 97.8969C26.5505 97.7677 26.7115 97.7031 26.8724 97.7031C27.0333 97.7031 27.1942 97.7677 27.2907 97.8969L39.8419 112.62C39.9706 112.749 40.0028 112.943 39.9706 113.105L35.2398 132.671C35.2076 132.768 35.1754 132.865 35.1111 132.93L21.0795 147.104C19.052 149.558 16.1556 151.043 13.0018 151.334C12.6156 151.334 12.2616 151.334 11.9076 151.334ZM26.454 99.6727L3.63667 132.381L3.60449 132.413C-0.225215 136.998 0.386251 143.875 4.95615 147.718C7.17674 149.59 9.97661 150.462 12.873 150.204C15.7694 149.946 18.3762 148.59 20.2106 146.362L20.2428 146.329L34.1778 132.252L38.812 113.105L26.8724 99.0915C26.7758 99.253 26.6471 99.4144 26.5184 99.5758C26.4862 99.6081 26.4862 99.6404 26.454 99.6727Z" fill="#444444"/>
<path d="M46.6001 120.5L48.7564 118.305C49.0782 117.982 49.3678 117.691 49.6575 117.336C54.9032 111.007 54.0665 101.611 47.7909 96.3485C41.4831 91.0855 32.118 91.925 26.8723 98.2212C21.6266 104.55 22.4633 113.946 28.7389 119.209C30.702 120.855 32.9548 121.889 35.2719 122.373L46.6001 120.5Z" fill="white"/>
<path d="M35.2722 122.921C35.24 122.921 35.2078 122.921 35.1756 122.921C32.6976 122.404 30.3483 121.274 28.4173 119.628C25.2634 116.98 23.3325 113.267 22.9463 109.166C22.5601 105.066 23.8474 101.062 26.4542 97.8976C29.0931 94.7333 32.7941 92.796 36.8813 92.4086C40.9685 92.0534 44.9591 93.3126 48.1129 95.928C51.2668 98.5756 53.1978 102.289 53.584 106.389C53.938 110.49 52.6829 114.494 50.0761 117.658C49.8508 117.949 49.5612 118.239 49.2071 118.594C49.175 118.627 49.175 118.659 49.1428 118.659L46.9866 120.855C46.89 120.951 46.7935 120.984 46.6969 121.016L35.3687 122.889C35.3043 122.921 35.2722 122.921 35.2722 122.921ZM38.2651 93.4418C37.8468 93.4418 37.3962 93.4741 36.9778 93.5064C33.1803 93.8615 29.7368 95.6697 27.2909 98.6079C24.8451 101.546 23.6543 105.259 24.0083 109.069C24.3623 112.879 26.1645 116.334 29.0931 118.788C30.8954 120.273 33.0194 121.339 35.2722 121.823L46.3429 119.983L48.306 117.981C48.3382 117.949 48.3382 117.916 48.3704 117.916C48.7244 117.561 48.9819 117.271 49.2393 116.98C51.6852 114.042 52.8438 110.329 52.5219 106.486C52.2001 102.644 50.3657 99.2214 47.4371 96.7675C44.8303 94.6042 41.6121 93.4418 38.2651 93.4418Z" fill="#444444"/>
<path d="M49.7913 131.554C51.8324 127.216 49.9821 122.039 45.6585 119.991C41.3349 117.944 36.1753 119.8 34.1342 124.138C32.0931 128.476 33.9435 133.652 38.2671 135.7C42.5907 137.748 47.7503 135.891 49.7913 131.554Z" fill="white"/>
<path d="M41.9663 137.064C40.6146 137.064 39.2952 136.773 38.04 136.192C35.8195 135.127 34.146 133.286 33.3092 130.961C32.4725 128.637 32.6012 126.15 33.6632 123.923C35.8195 119.338 41.3226 117.336 45.8926 119.531C48.1131 120.597 49.7866 122.437 50.6234 124.762C51.4601 127.087 51.3314 129.573 50.2694 131.801C49.2073 134.029 47.3729 135.708 45.0558 136.547C44.0582 136.902 43.0283 137.064 41.9663 137.064ZM41.9985 119.725C38.9733 119.725 36.0447 121.436 34.6609 124.375C33.7276 126.344 33.6311 128.54 34.3712 130.574C35.1114 132.608 36.5918 134.255 38.5228 135.191C40.4859 136.128 42.6743 136.224 44.7018 135.482C46.7293 134.739 48.3706 133.254 49.3039 131.317C50.2372 129.379 50.3337 127.151 49.5935 125.117C48.8533 123.083 47.3729 121.436 45.442 120.5C44.3156 119.951 43.157 119.725 41.9985 119.725Z" fill="#444444"/>
<path d="M78.1449 144.979C80.1859 140.642 78.3356 135.465 74.012 133.417C69.6884 131.369 64.5288 133.226 62.4877 137.564C60.4466 141.901 62.297 147.078 66.6206 149.126C70.9442 151.174 76.1038 149.317 78.1449 144.979Z" fill="white"/>
<path d="M70.3188 150.497C68.9993 150.497 67.6798 150.206 66.3925 149.625C61.8226 147.461 59.8273 141.94 62.0157 137.355C63.0777 135.127 64.9121 133.448 67.2293 132.609C69.5464 131.769 72.0244 131.899 74.245 132.964C76.4656 134.03 78.1391 135.87 78.9758 138.195C79.8126 140.52 79.6839 143.006 78.6218 145.234C77.0771 148.527 73.7623 150.497 70.3188 150.497ZM70.3188 133.125C69.3855 133.125 68.4844 133.287 67.5833 133.61C65.5558 134.352 63.9145 135.838 62.9812 137.775C61.0824 141.843 62.8203 146.687 66.8431 148.592C70.8659 150.497 75.7254 148.753 77.6242 144.717C78.5575 142.747 78.654 140.552 77.9138 138.518C77.1736 136.483 75.6932 134.837 73.7623 133.9C72.7003 133.416 71.5095 133.125 70.3188 133.125Z" fill="#444444"/>
<path d="M180.833 240.451C180.35 240.451 179.835 240.451 179.353 240.419C168.636 239.806 149.455 236.286 141.281 234.769C140.058 234.543 139.157 234.381 138.674 234.284C136.003 233.832 133.332 233.832 130.725 234.284C130.725 234.284 130.725 234.284 130.693 234.284C130.693 234.284 130.629 234.284 130.596 234.284C130.178 234.349 129.277 234.51 128.022 234.736C119.847 236.222 100.667 239.741 89.95 240.387C82.7411 240.806 75.5644 238.191 70.19 233.251L70.0934 233.154C61.6294 225.308 56.4481 214.395 55.9653 203.191C54.9677 181.105 70.7049 171.709 73.8588 170.03C82.5158 165.478 88.3408 165.058 94.4877 165.026C95.9359 165.026 97.4485 165.058 98.9932 165.123L132.656 166.995C133.332 167.028 133.975 167.06 134.651 167.06C135.327 167.06 135.971 167.028 136.647 166.995L170.309 165.123C171.854 165.026 173.367 164.993 174.815 165.026C180.962 165.058 186.787 165.478 195.444 170.03C198.598 171.677 214.335 181.105 213.337 203.191C212.822 214.395 207.673 225.308 199.177 233.154L199.113 233.219C194.124 237.868 187.527 240.451 180.833 240.451Z" fill="#1F75BA"/>
<path d="M129.727 225.986C132.978 225.437 136.325 225.437 139.575 225.986C139.607 225.986 139.607 225.986 139.64 225.986C142.987 226.567 166.222 231.055 177.647 231.733C182.7 232.024 187.656 230.183 191.389 226.728L191.453 226.664C198.115 220.497 202.299 211.972 202.717 202.899C203.393 187.724 193.738 180.072 189.361 177.747C182.603 174.195 178.226 173.808 172.852 173.775C171.565 173.775 170.277 173.808 168.99 173.872L136.936 175.648C136.164 175.68 135.424 175.713 134.651 175.713C133.879 175.713 133.139 175.68 132.366 175.648L100.313 173.872C99.0254 173.808 97.7381 173.775 96.4508 173.775C91.0763 173.808 86.6995 174.195 79.9412 177.747C75.5644 180.039 65.9097 187.692 66.5855 202.899C67.0039 212.005 71.1876 220.497 77.8493 226.664L77.9137 226.728C81.6469 230.183 86.6029 232.024 91.6556 231.733C103.08 231.087 126.316 226.567 129.663 225.986C129.695 225.986 129.695 225.986 129.727 225.986Z" fill="white"/>
<path d="M127.828 185.141L117.24 217.881L106.652 185.141" fill="white"/>
<path d="M117.24 218.43C117.015 218.43 116.79 218.268 116.725 218.042L106.137 185.302C106.041 185.011 106.202 184.688 106.491 184.624C106.781 184.527 107.103 184.688 107.167 184.979L117.24 216.105L127.313 184.979C127.41 184.688 127.7 184.527 127.989 184.624C128.279 184.721 128.44 185.011 128.343 185.302L117.755 218.042C117.691 218.268 117.466 218.43 117.24 218.43Z" fill="#444444"/>
<path d="M136.968 218.43C136.678 218.43 136.421 218.172 136.421 217.881V185.141C136.421 184.85 136.678 184.592 136.968 184.592C137.258 184.592 137.515 184.85 137.515 185.141V217.881C137.515 218.172 137.258 218.43 136.968 218.43Z" fill="#444444"/>
<path d="M142.857 207.581H136.968V184.592H142.857C149.165 184.592 154.314 189.758 154.314 196.086C154.314 202.415 149.165 207.581 142.857 207.581Z" fill="white"/>
<path d="M142.857 208.13H136.968C136.678 208.13 136.421 207.872 136.421 207.581V184.592C136.421 184.301 136.678 184.043 136.968 184.043H142.857C149.487 184.043 154.861 189.435 154.861 196.087C154.861 202.738 149.487 208.13 142.857 208.13ZM137.515 207.032H142.857C148.875 207.032 153.767 202.124 153.767 196.087C153.767 190.049 148.875 185.141 142.857 185.141H137.515V207.032Z" fill="#444444"/>
<path d="M154.315 218.431C154.154 218.431 153.993 218.366 153.897 218.237L145.787 208.551C145.594 208.325 145.626 207.969 145.851 207.776C146.077 207.582 146.431 207.614 146.624 207.84L154.734 217.527C154.927 217.753 154.895 218.108 154.669 218.302C154.573 218.366 154.444 218.431 154.315 218.431Z" fill="#444444"/>
</g>
<defs>
<clipPath id="clip0_4553_7499">
<rect width="247" height="241" fill="white"/>
</clipPath>
</defs>
</svg>
