<svg width="379" height="415" fill="none" xmlns="http://www.w3.org/2000/svg"><path d="M193.551 36.986h-7.067c-.598 0-1.074 0-1.039-.476.182-.52.408-1.023.675-1.505 0-.312.477-.476 1.031-.476h5.724a1.075 1.075 0 01.987.476c.285.479.526.983.719 1.505.009.242-.467.476-1.03.476zm14.765-7.69a5.259 5.259 0 00-4.72-2.18h-26.56c-2.598 0-3.966.752-4.685 2.18a36.835 36.835 0 00-3.135 6.98c0 1.471 2.104 2.224 4.685 2.224h32.761c2.598 0 4.599-1.073 4.72-2.224a35.605 35.605 0 00-3.109-6.98M202.93 8.317h-15.008v-1.66h15.008v1.66zm0 3.573h-15.008v-1.67h15.008v1.67zm0 3.564h-15.008v-1.661h15.008v1.66zm0 3.573h-25.114V17.34h25.114v1.687zm-25.253-12.37h7.942v8.72h-7.942v-8.72zM203.606.902h-26.561a4.556 4.556 0 00-1.801.364 4.666 4.666 0 00-1.533 1.02c-.434.44-.778.96-1.013 1.532a4.608 4.608 0 00-.338 1.808v14.827a4.678 4.678 0 001.375 3.304 4.69 4.69 0 003.31 1.367h26.561a4.685 4.685 0 003.334-1.358c.44-.434.791-.952 1.03-1.522a4.747 4.747 0 00.355-1.8V5.627a4.751 4.751 0 00-.355-1.808 4.733 4.733 0 00-1.03-1.532 4.54 4.54 0 00-1.524-1.02 4.703 4.703 0 00-1.81-.364zm-10.055 232.621h-7.067c-.598 0-1.074 0-1.039-.475.18-.521.406-1.025.675-1.506 0-.32.477-.475 1.031-.475h5.724c.193-.016.386.017.563.095.174.085.321.217.424.38.295.474.536.979.719 1.506.009.233-.467.475-1.03.475zm14.774-7.699a5.202 5.202 0 00-4.72-2.223h-26.569c-2.598 0-3.966.796-4.685 2.223a36.74 36.74 0 00-3.135 6.973c0 1.427 2.104 2.188 4.685 2.188h32.761c2.598 0 4.599-1.072 4.72-2.188a35.533 35.533 0 00-3.109-6.973m-5.343-21.014h-15.008v-1.661h15.008v1.661zm0 3.573h-15.008v-1.67h15.008v1.67zm0 3.564h-15.008v-1.696h15.008v1.696zm0 3.573h-25.114v-1.67h25.114v1.67zm-25.253-12.371h7.942v8.72h-7.942v-8.72zm25.928-5.718h-26.56a4.696 4.696 0 00-3.313 1.371 4.665 4.665 0 00-1.372 3.309v14.836c-.01.616.105 1.228.338 1.799a4.664 4.664 0 001.013 1.531c.44.439.96.789 1.533 1.03a4.713 4.713 0 001.801.355h26.56a4.711 4.711 0 004.366-2.908 4.686 4.686 0 00.354-1.807v-14.836a4.667 4.667 0 00-1.384-3.322 4.692 4.692 0 00-3.336-1.358zm-10.054 215.17h-7.067c-.598 0-1.074 0-1.039-.476.182-.52.408-1.023.675-1.505 0-.311.477-.476 1.031-.476h5.724a1.073 1.073 0 01.987.476c.285.479.526.983.719 1.505.009.243-.467.476-1.03.476zm14.774-7.708a5.32 5.32 0 00-4.72-2.223h-26.569c-2.598 0-3.966.796-4.685 2.223a36.848 36.848 0 00-3.135 6.982c0 1.427 2.104 2.223 4.685 2.223h32.761c2.598 0 4.599-1.073 4.72-2.223a35.61 35.61 0 00-3.109-6.982m-5.343-20.96h-15.008v-1.661h15.008v1.661zm0 3.573h-15.008v-1.548h15.008v1.548zm0 3.564h-15.008v-1.661h15.008v1.661zm0 3.573h-25.114v-1.67h25.114v1.67zm-25.253-12.371h7.942v8.72h-7.942v-8.72zm25.928-5.752h-26.56a4.546 4.546 0 00-1.801.363 4.658 4.658 0 00-1.533 1.021 4.76 4.76 0 00-1.013 1.531 4.566 4.566 0 00-.338 1.799v14.836a4.677 4.677 0 004.685 4.68h26.56a4.68 4.68 0 003.335-1.358c.44-.434.791-.952 1.03-1.522a4.753 4.753 0 00.355-1.8v-14.836a4.655 4.655 0 00-1.385-3.33 4.686 4.686 0 00-1.525-1.03 4.838 4.838 0 00-1.81-.354zM24.378 133.554h-7.11c-.554 0-1.03 0-.987-.475.164-.53.39-1.038.675-1.514 0-.312.433-.476.988-.476h5.759c.193-.019.388.017.563.104.172.087.32.215.433.372.284.476.51.984.675 1.514 0 .233-.442.475-.996.475zm14.722-7.699a5.192 5.192 0 00-4.685-2.214H7.863c-2.598 0-3.975.787-4.685 2.214A38.45 38.45 0 000 132.836c0 1.428 2.104 2.18 4.728 2.18h32.83c2.599 0 4.608-1.072 4.686-2.18a33.46 33.46 0 00-3.135-6.981H39.1zm-5.354-20.979H18.738v-1.661h15.008v1.661zm0 3.529H18.738v-1.626h15.008v1.626zm0 3.573H18.738v-1.626h15.008v1.626zm0 3.564H8.632v-1.661h25.114v1.661zM8.502 103.215h7.933v8.72H8.502v-8.72zm25.92-5.753H7.862a4.766 4.766 0 00-3.344 1.384 4.755 4.755 0 00-1.385 3.339v14.828a4.684 4.684 0 001.394 3.321 4.682 4.682 0 003.334 1.359h26.56a4.685 4.685 0 003.319-1.366 4.66 4.66 0 001.367-3.314v-14.828a4.67 4.67 0 00-1.36-3.339 4.723 4.723 0 00-3.325-1.384zm325.5 36.092h-7.024c-.563 0-1.039 0-.996-.475a6.94 6.94 0 01.676-1.514c0-.312.433-.476.996-.476h5.715c.2-.018.4.018.581.104.182.079.338.208.45.372.285.476.511.984.675 1.514-.043.233-.485.475-1.073.475zm14.722-7.699a5.193 5.193 0 00-4.685-2.214h-26.518c-2.598 0-3.975.787-4.728 2.214a39.131 39.131 0 00-3.135 6.981c0 1.428 2.105 2.18 4.729 2.18h32.83c2.598 0 4.607-1.072 4.685-2.18a33.424 33.424 0 00-3.135-6.981h-.043zm-5.196-20.979h-14.965v-1.661h14.965v1.661zm0 3.53h-14.965v-1.627h14.965v1.627zm0 3.572h-14.965v-1.626h14.965v1.626zm0 3.565h-25.114v-1.661h25.114v1.661zm-25.209-12.328h7.941v8.72h-7.941v-8.72zm25.928-5.752h-26.569a4.73 4.73 0 00-3.338 1.386 4.721 4.721 0 00-1.382 3.337v14.827a4.71 4.71 0 001.386 3.322c.44.433.961.777 1.532 1.012a4.599 4.599 0 001.802.346h26.569a4.678 4.678 0 004.685-4.68v-14.827a4.68 4.68 0 00-1.36-3.34 4.542 4.542 0 00-1.541-1.055 4.621 4.621 0 00-1.784-.328zM24.378 310.599h-7.11c-.554 0-1.03-.199-.987-.51.173-.513.4-1.006.675-1.471 0-.32.433-.476.988-.476h5.759c.193-.019.388.017.563.104.175.082.325.211.433.372.285.46.512.954.675 1.471 0 .285-.442.51-.996.51zm14.722-7.691a5.068 5.068 0 00-2.044-1.73 5.137 5.137 0 00-2.64-.475H7.862c-2.598 0-3.975.752-4.685 2.223A39.525 39.525 0 000 309.846c0 1.471 2.104 2.224 4.728 2.224h32.83c2.599 0 4.608-1.073 4.686-2.224a34.045 34.045 0 00-3.135-6.929l-.009-.009zm-5.354-20.855H18.738v-1.67h15.008v1.67zm0 3.564H18.738v-1.661h15.008v1.661zm0 3.573H18.738v-1.67h15.008v1.67zm0 3.573H8.632v-1.67h25.114v1.67zm-25.244-12.38h7.933v8.729H8.502v-8.729zm25.92-5.709H7.862a4.77 4.77 0 00-1.802.346 4.599 4.599 0 00-1.533 1.012c-.44.435-.79.952-1.03 1.523a4.765 4.765 0 00-.364 1.799v14.81a4.765 4.765 0 001.385 3.331 4.67 4.67 0 003.343 1.384h26.56a4.724 4.724 0 003.326-1.384 4.687 4.687 0 001.36-3.331v-14.801a4.672 4.672 0 00-1.372-3.31 4.691 4.691 0 00-3.313-1.37v-.009zm325.808 35.927h-7.066c-.598 0-1.065-.199-1.031-.51.19-.506.416-.997.676-1.471 0-.32.476-.475 1.03-.475h5.716c.194-.019.389.017.563.103.179.077.33.207.433.372.286.46.513.954.675 1.471 0 .285-.433.51-.996.51zm14.774-7.69a5.192 5.192 0 00-4.728-2.223h-26.56c-2.598 0-3.967.752-4.686 2.223a36.992 36.992 0 00-3.134 6.92c0 1.471 2.104 2.224 4.685 2.224h32.839c2.598 0 4.598-1.073 4.719-2.224a36.424 36.424 0 00-3.135-6.912v-.008zm-5.556-20.858H354.44v-1.669h15.008v1.669zm0 3.564H354.44v-1.661h15.008v1.661zm0 3.573H354.44v-1.67h15.008v1.67zm0 3.573h-25.114v-1.67h25.114v1.67zm-25.209-12.371h7.941v8.729h-7.941v-8.729zm25.928-5.709h-26.604a4.696 4.696 0 00-3.313 1.37 4.677 4.677 0 00-1.372 3.31v14.801a4.671 4.671 0 001.36 3.331 4.722 4.722 0 003.325 1.384h26.561a4.73 4.73 0 004.728-4.715v-14.801a4.603 4.603 0 00-.364-1.8 4.657 4.657 0 00-1.022-1.522 4.723 4.723 0 00-3.342-1.358h.043z" fill="#6E6E70"/><path d="M22.197 145.128h-3.69v125.073h3.69V145.128zm337.724-5.864h-3.698v130.981h3.698V139.264zM192.73 55.196h-3.698v130.981h3.698V55.197zm32.207-23.461l-1.836 3.201 98.725 56.36 1.835-3.201-98.724-56.36zM45.545 324.502l-1.827 3.201 111.507 63.661 1.836-3.201-111.516-63.661zm181.35-92.269l-1.836 3.201 98.144 56.022 1.828-3.2-98.136-56.023zm104.146 93.993l-109.594 63.245 1.845 3.192 109.593-63.245-1.844-3.192zm-172.856-94.295L48.583 295.185l1.853 3.192 109.594-63.254-1.845-3.192zM153.94 31.656L51.968 90.248l1.836 3.192 101.972-58.583-1.836-3.2z" fill="#1F75BA"/><path d="M170.933 345.203c.19 2.854-2.979 6.981-8.184 10.19a38.943 38.943 0 01-39.187 1.056c-10.643-6.264-12.271-15.459.866-23.591a34.39 34.39 0 0115.588-4.914l2.46 6.142a26.006 26.006 0 00-10.124 3.461c-5.88 3.65-6.789 8.919.476 13.201a22.871 22.871 0 0022.785-.511 11.855 11.855 0 005.638-6.704l9.682 1.67zm26.396-30.069c11.258 6.661 8.417 13.953.199 19.031a31.327 31.327 0 01-32.908.675l-21.477-12.613 8.738-5.398 19.528 11.54a16.515 16.515 0 008.87 3.253 16.52 16.52 0 009.204-2.137c5.317-3.252 3.135-6.427-2.746-9.957l-19.857-11.929 8.729-5.355 21.72 12.89zm18.386-10.91l6.928 3.971c1.14-.425 2.232-.97 3.256-1.626 3.412-2.102 3.655-3.971 1.186-5.433a7.536 7.536 0 00-7.941.865l-3.429 2.223zm-14.099-8.33l6.677 3.962 2.936-1.782c2.225-1.393 3.135-3.019.433-4.602a7.663 7.663 0 00-3.854-.675 7.796 7.796 0 00-3.689 1.306 28.11 28.11 0 00-2.503 1.791zm-16.593.752c2.027-1.349 7.145-4.758 11.319-7.301 9.128-5.631 16.913-5.51 22.031-2.5 3.975 2.301 4.885 4.767 3.975 7.578a18.09 18.09 0 017.11-.588 17.889 17.889 0 016.781 2.215c7.941 4.602 5.196 10.588-3.135 15.865-3.689 2.258-8.894 5.312-11.353 6.583l-36.728-21.852zm33.645-20.813l22.75-13.954 7.898 4.671-13.943 8.582 6.504 3.806 12.297-7.509 7.898 4.646-12.306 7.569 6.712 3.971 14.488-8.928 7.941 4.68-23.269 14.317-36.97-21.851zM113.274 122.921V89.728l-29.297 16.437 29.297 16.756z" fill="#6E6E70"/><path d="M81.397 109.833v137.088l31.877-17.881V128.069l-31.877-18.236zM258.034 223.33l28.985 16.532v-98.498l-28.985 16.255v65.711z" fill="#1F75BA"/><path d="M225.76 72.878v28.271l32.276 18.521v33.115l28.985-16.575 12.705 7.258 24.975-14.005-98.941-56.585z" fill="#6E6E70"/><path d="M304.013 145.925l21.044 12.016v-23.816l-21.044 11.8z" fill="#1F75BA"/></svg>