<svg width="410" height="325" fill="none" xmlns="http://www.w3.org/2000/svg"><path fill-rule="evenodd" clip-rule="evenodd" d="M204.761.333c4.368-1.136 9.347.699 11.793 4.542 3.145 4.455 2.184 11.356-2.184 14.676-4.018 3.232-10.482 3.232-14.238-.35-3.058-2.708-4.281-7.163-3.233-11.094.961-3.843 4.106-6.9 7.862-7.774zM158.638 10.64c6.464-1.922 13.977 1.747 16.248 8.124 2.184 5.415.262 12.142-4.542 15.549-5.154 3.93-13.191 3.407-17.646-1.398-5.329-5.329-4.717-15.2 1.31-19.83a11.328 11.328 0 014.63-2.445zm87.966 3.843c3.32-1.398 7.513-.786 10.221 1.66 3.057 2.533 4.193 6.988 2.795 10.745-1.572 4.455-6.552 7.163-11.094 6.202-4.106-.7-7.425-4.455-7.687-8.561-.524-4.193 1.922-8.474 5.765-10.046zM189.562 32.83c3.669-.961 7.862.262 10.482 2.97 2.446 2.533 3.582 6.29 2.97 9.696-.611 3.494-3.057 6.464-6.289 7.862-3.757 1.66-8.474 1.136-11.618-1.485-3.407-2.795-4.63-7.687-3.32-11.793 1.048-3.494 4.193-6.377 7.775-7.25zm31.011 1.135c3.843-.873 8.211.874 10.307 4.193 1.922 2.883 2.01 6.727.525 9.784-2.359 4.892-8.998 6.726-13.628 4.018-4.018-2.184-5.678-7.338-4.28-11.53.961-3.233 3.756-5.766 7.076-6.465zm-94.518 10.92c3.581-1.31 7.687-.612 10.657 1.834 2.621 2.096 4.193 5.329 4.106 8.648 0 3.669-2.009 7.25-5.242 9.172-3.319 2.01-7.687 2.184-11.094.35-3.668-1.922-5.852-6.028-5.59-10.046.087-4.455 3.057-8.56 7.163-9.958zm155.841 2.184c4.542-1.573 9.958 1.485 10.919 6.202 1.223 4.367-1.835 9.26-6.29 10.22-4.105 1.136-8.91-1.31-10.133-5.416-1.572-4.368.961-9.784 5.504-11.006zm-118.89.436c3.756-.873 7.862.35 10.482 3.058 2.184 2.184 3.32 5.416 2.97 8.56-.262 4.368-3.581 8.3-7.774 9.522-3.058.786-6.552.437-9.26-1.31-3.843-2.446-5.59-7.425-4.455-11.706.786-4.018 4.106-7.25 8.037-8.124zm85.258 2.184c4.28-.96 9.085 1.922 10.046 6.202 1.397 4.717-2.184 10.046-7.076 10.57-4.106.699-8.473-2.009-9.434-6.202-1.398-4.455 1.747-9.784 6.464-10.57zm-57.043 14.064c5.154-1.048 10.658 2.708 11.444 7.95 1.048 5.066-2.796 10.482-7.862 11.268-5.154 1.136-10.745-2.708-11.356-7.95-.961-5.066 2.62-10.482 7.774-11.268zm28.216 1.66c4.542-1.835 10.22.873 11.443 5.678 1.573 4.98-2.446 10.832-7.774 10.832-4.018.437-7.949-2.446-8.736-6.377-1.135-4.106 1.136-8.648 5.067-10.133zm-70.495 8.823c2.533-.612 5.328-.35 7.6.96 3.843 2.184 5.852 7.251 4.367 11.444-1.485 4.805-6.988 7.775-11.793 6.377-4.629-.96-7.774-5.853-7.163-10.483.262-3.843 3.232-7.25 6.989-8.298zM261.28 76.42c4.193-1.223 9.172 2.184 9.172 6.639.437 4.105-3.145 7.861-7.25 7.774-3.757.175-7.251-2.97-7.338-6.726-.437-3.494 2.009-6.988 5.416-7.687zM115.747 89.87c4.193-1.485 9.347.262 11.618 4.193 2.708 4.193 1.398 10.483-2.883 13.103-4.367 3.145-11.094 1.748-13.802-2.97-3.232-4.979-.698-12.579 5.067-14.326zm59.751 1.136c4.717-1.922 10.657 1.223 11.443 6.29 1.048 4.367-1.922 9.084-6.29 10.045-4.018 1.048-8.735-1.223-10.045-5.241-1.66-4.28.524-9.61 4.892-11.094zm28.827 0c5.066-2.184 11.53 1.66 11.705 7.163.612 4.63-3.407 9.172-8.037 9.26-3.843.262-7.599-2.272-8.56-6.028-1.398-4.018.786-8.91 4.892-10.395zm31.36.873c3.931-1.048 8.386 1.835 8.91 5.853.786 3.931-2.271 8.211-6.289 8.561-3.844.699-7.862-2.359-8.212-6.29-.524-3.669 1.922-7.425 5.591-8.124zm56.955 0c4.018-.873 8.386 2.272 8.736 6.377.611 4.193-2.97 8.212-7.163 8.124-3.669.175-7.164-2.882-7.338-6.551-.524-3.582 2.184-7.338 5.765-7.95zm-143.786 13.715c4.63-1.66 10.134 1.398 11.094 6.202 1.136 4.455-2.009 9.26-6.376 10.221-4.281 1.135-9.085-1.66-10.134-5.94-1.31-4.193 1.136-9.173 5.416-10.483zm112.426 2.184c3.843-1.136 8.124 2.184 7.687 6.202.087 3.844-4.106 6.726-7.687 5.678-3.407-.786-5.416-4.804-4.193-8.036.611-1.835 2.271-3.32 4.193-3.844zm-70.059 9.871c4.193-1.31 8.998 1.747 9.347 6.115.699 4.28-3.144 8.561-7.425 8.211-3.843.175-7.25-3.319-7.163-7.163-.087-3.232 2.184-6.377 5.241-7.163zm29.264.961c3.232-1.136 7.163.699 8.037 4.106 1.223 3.756-2.009 8.036-6.028 7.774-3.494.175-6.464-3.319-5.94-6.726.175-2.271 1.747-4.455 3.931-5.154zm-55.383 14.151c4.193-1.397 9.173 1.747 9.435 6.203.611 4.193-3.145 8.298-7.426 8.124-3.756.087-7.163-3.233-7.163-6.989-.174-3.232 2.01-6.464 5.154-7.338zm-36.252 1.66c4.979-1.66 10.919 2.446 10.919 7.775.525 5.154-4.455 9.609-9.434 8.91-3.931-.35-7.338-3.756-7.512-7.775-.524-3.843 2.096-7.949 6.027-8.91zm116.706 1.048c2.795-1.659 6.901.175 7.338 3.495.786 3.668-3.494 6.988-6.901 5.328-3.582-1.397-3.931-7.076-.437-8.823zm34.68 1.66c4.018-1.922 9.085 1.747 8.473 6.202-.087 4.543-5.94 7.163-9.521 4.63-3.931-2.446-3.32-9.26 1.048-10.832zm-90.063 11.968c3.669-1.311 8.124 1.572 8.037 5.59.349 3.757-3.494 7.076-7.163 6.29-3.145-.437-5.504-3.669-4.98-6.901.263-2.184 1.922-4.28 4.106-4.979zm30.312 1.485c2.796-1.485 6.727.437 7.076 3.669.786 3.581-3.32 6.813-6.639 5.416-3.844-1.311-4.106-7.513-.437-9.085zm-60.187 17.034c4.542-1.485 9.784 2.358 9.434 7.163.175 4.368-4.368 7.949-8.648 7.076-3.319-.437-6.027-3.669-5.94-6.989-.175-3.232 2.009-6.377 5.154-7.25zm88.49 2.096c3.582-1.572 7.775 2.272 6.464 6.028-.873 3.494-5.678 4.63-8.124 2.184-2.62-2.359-1.659-7.163 1.66-8.212zm-42.891 10.832c4.368-1.31 8.91 3.145 7.512 7.513-.96 4.542-7.512 6.115-10.482 2.621-2.97-3.233-1.398-9.26 2.97-10.134zM78.01 232.259c5.328-6.289 13.627-9.696 21.751-9.434 9.172-.087 18.257 4.805 22.887 12.841a355.757 355.757 0 00-7.775 4.543c-2.183-3.757-5.765-6.727-10.045-7.862-6.203-1.747-13.278-.524-18.258 3.756-8.822 7.6-8.298 23.673 1.398 30.312 4.28 2.97 9.784 3.931 14.85 3.057 4.892-.873 9.522-3.931 11.881-8.386 2.62 1.485 5.154 2.97 7.774 4.455-4.542 8.037-13.627 13.016-22.8 12.842-7.774.262-15.81-2.796-21.052-8.649-9.434-9.958-9.609-27.079-.611-37.475zm102.64 11.531c5.679-7.774 17.908-8.211 25.071-2.184 8.823 6.814 9.959 20.965 2.708 29.439-4.892 6.115-13.714 8.473-21.052 5.678-2.708-.961-4.892-2.883-6.727-5.067v20.529h-8.298v-53.636h5.678c.873 1.66 1.747 3.407 2.62 5.241zm9.522 1.922c-2.708.524-5.241 2.097-6.901 4.28-3.843 4.98-3.145 13.016 1.835 17.035 4.367 3.668 11.268 3.581 15.636-.175 5.241-4.455 5.503-13.453.524-18.17-2.883-2.795-7.25-3.756-11.094-2.97zm118.016-3.145c7.076-6.464 18.956-6.901 26.469-.786 1.922 1.485 3.319 3.494 4.542 5.591a541.326 541.326 0 01-7.25 4.193c-3.145-6.465-12.667-7.775-17.821-3.058-5.59 4.63-5.241 14.326.525 18.607 3.93 3.057 9.871 3.232 13.976.349 1.398-.961 2.446-2.446 3.494-3.843 2.359 1.397 4.805 2.708 7.164 4.105-4.456 8.561-15.55 12.143-24.372 8.911-7.688-2.446-13.104-10.221-13.191-18.258-.175-5.852 2.097-11.88 6.464-15.811zm-178.291-4.105h8.299c.087 8.124-.087 16.335.087 24.459 6.203-8.124 12.23-16.335 18.345-24.459h6.552v38.261h-8.299v-23.411c-5.94 7.774-11.88 15.636-17.821 23.411h-7.163v-38.261zm90.412 0h8.299v24.546c6.202-8.124 12.23-16.335 18.432-24.546h6.464v38.261h-8.124v-23.411c-5.94 7.774-11.88 15.549-17.733 23.411-2.446.087-4.804 0-7.25 0-.087-12.754-.088-25.508-.088-38.261zm39.485 0h8.997c3.844 9.259 7.688 18.431 11.531 27.691 3.145-9.26 6.464-18.432 9.697-27.691h8.997a15497.102 15497.102 0 00-13.103 35.203c-1.747 4.892-3.494 10.046-7.338 13.715-3.407 3.407-8.299 5.067-13.016 4.717v-7.862c2.009 0 4.106-.174 5.853-1.31 2.271-1.485 3.494-4.018 4.455-6.464-5.329-12.667-10.657-25.333-16.073-37.999z" fill="#4A328E"/><path fill-rule="evenodd" clip-rule="evenodd" d="M40.798 293.32c1.048.612 2.096 1.223 3.057 1.835-1.572 5.59-8.997 4.63-11.705 9.172 2.708-1.922 6.552-2.533 9.434-.699 4.106 2.446 4.717 8.736 1.485 12.055-2.795 2.97-7.6 3.32-11.094 1.398-2.708-1.485-4.193-4.63-4.28-7.6 0-2.795.174-5.94 2.096-8.211 2.271-2.708 5.853-3.582 8.823-5.329 1.048-.524 1.573-1.66 2.184-2.621zm-5.94 12.667c-2.708.699-4.193 4.018-2.533 6.377 1.921 3.581 8.21 2.795 8.91-1.311.786-3.494-3.232-6.377-6.377-5.066zM8.826 293.932c3.844-1.136 8.299-.35 11.444 2.184 2.97 2.358 4.717 6.202 4.542 10.045 0 4.718-3.057 9.173-7.338 11.007-4.979 2.184-11.268.786-14.675-3.581-3.32-3.931-3.67-9.959-.961-14.327 1.485-2.533 4.018-4.455 6.988-5.328zm.961 3.843c-4.892 1.398-7.163 7.6-4.804 11.968 1.834 3.931 6.988 5.591 10.832 3.756 4.367-1.747 6.114-7.425 4.018-11.531-1.66-3.581-6.202-5.503-10.046-4.193zm278.836-2.708h9.609v3.407h-9.609v-3.407zm-236.382 7.862c2.97-3.494 8.91-3.494 11.968-.087 3.844 3.756 3.32 10.832-1.136 13.889-3.232 2.446-8.124 1.922-10.832-1.135.088 2.97 0 5.94.088 8.91h-3.844v-23.848h3.844c-.088.699-.088 1.485-.088 2.271zm3.67 1.223c-3.844 1.049-4.805 6.639-1.835 9.173 2.883 2.795 8.386.786 8.735-3.233.874-3.756-3.232-7.337-6.9-5.94zm16.684-1.834c3.145-2.97 8.56-2.795 11.444.524v-2.184h3.843v17.122h-3.844v-2.184c-2.795 3.407-8.385 3.494-11.53.524-3.931-3.494-3.844-10.395.087-13.802zm4.018 1.922c-4.193 1.572-4.28 8.298-.087 9.958 3.582 1.66 7.95-1.572 7.425-5.416-.087-3.494-4.105-5.94-7.338-4.542zm14.501-.175c2.01-4.018 7.95-5.154 11.356-2.271 2.184 1.834 2.01 5.328 0 7.25 2.621 1.485 3.232 5.329 1.049 7.425-3.67 3.145-10.396 2.359-12.492-2.358 1.048-.612 2.01-1.223 3.057-1.835 1.049 2.708 5.591 3.757 6.989.874.436-2.708-3.058-2.446-4.805-2.359v-3.319c1.31-.175 3.058.349 3.931-.961.699-1.223-.262-2.708-1.572-2.795-1.835-.525-3.407.786-4.368 2.183l-3.145-1.834zm22.538-3.407c5.154-1.834 11.443 2.097 11.705 7.687.612 4.63-2.882 9.26-7.512 9.784-4.455.786-9.172-2.184-10.133-6.552-1.398-4.542 1.397-9.696 5.94-10.919zm1.485 3.494c-2.621.524-4.368 3.32-3.931 5.853.175 2.621 2.795 4.717 5.416 4.455 2.883 0 5.241-2.795 4.892-5.591.087-3.144-3.407-5.59-6.377-4.717zm31.535 1.835c1.223-3.931 5.678-6.465 9.696-5.591 1.66.262 2.97 1.31 4.193 2.446 0-.699 0-1.485-.087-2.184h3.843v17.122h-3.843c0-.525.087-1.485.087-2.01-2.271 2.446-6.115 3.233-9.172 1.835-4.455-1.835-6.377-7.338-4.717-11.618zm6.551-1.747c-3.931 1.397-4.367 7.6-.786 9.609 3.232 2.184 8.124-.437 8.037-4.368.437-3.756-3.844-6.814-7.251-5.241zm33.894-1.922c3.494-2.97 9.434-2.795 12.404.786 1.835 2.097 2.272 4.979 2.097 7.687-4.543.088-9.172 0-13.715 0 .612 1.485 1.573 2.97 3.145 3.494 2.359.961 5.067.175 6.814-1.659a94.634 94.634 0 013.057 1.834c-3.057 4.455-9.871 4.979-13.889 1.66-4.019-3.407-4.019-10.483.087-13.802zm.786 5.328c3.32.088 6.639.088 9.959 0-.612-2.096-2.359-4.018-4.63-3.93-2.533-.263-4.63 1.659-5.329 3.93zm65.167-6.988h3.843v17.122h-3.843v-6.639h-7.6v6.639h-3.844v-17.122h3.844v6.814h7.6v-6.814zm83.686 2.533c3.144-3.668 9.609-4.018 12.928-.436 2.009 2.096 2.795 5.154 2.446 8.036h-13.715c.699 1.66 1.835 3.32 3.757 3.669 2.271.786 4.717-.175 6.202-1.834 1.048.611 2.096 1.223 3.145 1.922-3.145 4.28-9.959 4.891-14.065 1.485-3.581-3.145-3.843-9.26-.698-12.842zm1.747 4.455h10.045c-.698-2.183-2.445-4.105-4.891-3.93-2.534-.175-4.455 1.747-5.154 3.93zm17.383-6.988h3.844v6.814h7.6v-6.814h3.843v17.122h-3.843v-6.639h-7.6v6.639h-3.844v-17.122zm39.747 2.184c2.882-3.494 8.648-3.319 11.705-.175 3.756 3.582 3.494 10.395-.524 13.628-3.145 2.795-8.386 2.62-11.181-.612v8.823h-3.844v-23.848h3.844c.087.524.087 1.573 0 2.184zm3.057 1.485c-3.931 1.66-4.018 8.037 0 9.696 3.669 1.922 8.386-1.659 7.513-5.678-.35-3.407-4.456-5.503-7.513-4.018zm-269.576-3.669c3.057.087 6.202-.175 9.259.087 1.922.175 3.844 1.398 4.281 3.407.524 1.747-.088 3.494-1.223 4.892 3.494 2.009 2.533 7.862-1.398 8.561-3.582.437-7.251.087-10.832.175-.087-5.766-.087-11.444-.087-17.122zm3.668 3.232v3.669c1.66 0 3.32.087 4.98-.087 1.572-.175 1.834-2.708.436-3.232-1.747-.524-3.581-.262-5.416-.35zm0 6.814v3.756c1.835 0 3.669.088 5.504-.087 1.572-.175 2.096-2.621.611-3.32-1.922-.699-4.105-.262-6.115-.349zm34.506-10.046h14.762v3.669h-5.416v13.453h-3.843v-13.453H167.2c.088-1.223.088-2.446.088-3.669zm39.484 0h13.19v17.122h-3.843v-13.453h-5.591c-.175 3.582.612 7.425-.873 10.832-.961 2.359-3.757 2.883-6.028 2.795 0-1.135 0-2.271-.087-3.406.873-.35 2.096-.263 2.533-1.223.611-.961.524-2.184.611-3.233.088-3.232.088-6.289.088-9.434zm17.908 0h3.843v5.853c2.883 0 6.464-.524 8.648 2.009 2.621 2.883 1.136 8.037-2.708 8.998-3.232.524-6.464.087-9.696.262-.087-5.766-.087-11.444-.087-17.122zm3.756 9.172v4.455c1.572-.087 3.145.175 4.63-.174 1.747-.437 2.009-3.058.524-3.844-1.573-.699-3.407-.262-5.154-.437zm33.107-9.172h3.844v5.853c2.62.087 5.503-.524 7.774 1.135 2.446 1.748 2.883 5.504 1.049 7.862-1.049 1.311-2.796 2.184-4.455 2.184-2.708.088-5.416 0-8.124 0-.088-5.678-.088-11.356-.088-17.034zm3.844 9.172v4.455c1.66-.087 3.407.263 4.979-.262 1.66-.698 1.485-3.406-.262-3.931-1.485-.436-3.145-.174-4.717-.262zm11.793-9.172h3.843v17.122h-3.843v-17.122zm8.56 0h3.844v10.57c2.883-3.494 5.678-6.988 8.561-10.57h2.883v17.122h-3.669v-10.57c-2.883 3.494-5.678 7.075-8.561 10.57h-2.97c-.088-5.766-.088-11.444-.088-17.122zm29.177 0h3.844v13.54h7.163v-13.54h3.843v13.627h2.708v8.124h-3.669v-4.629h-13.802c-.087-5.766-.087-11.444-.087-17.122zm59.226 0h14.763v3.669h-5.416v13.453h-3.843v-13.453h-5.591c.087-1.223.087-2.446.087-3.669z" fill="#879CC0"/></svg>