<svg width="31" height="31" viewBox="0 0 31 31" fill="none" xmlns="http://www.w3.org/2000/svg">
<g clip-path="url(#clip0_1726_3583)">
<path d="M13.2422 5.8C14.1026 5.5986 14.9835 5.49792 15.8672 5.5C24.6172 5.5 29.6172 15.5 29.6172 15.5C28.8584 16.9195 27.9535 18.2559 26.9172 19.4875M18.5172 18.15C18.1739 18.5184 17.7599 18.8139 17.2999 19.0189C16.8399 19.2239 16.3433 19.3341 15.8398 19.343C15.3363 19.3518 14.8361 19.2592 14.3692 19.0706C13.9023 18.882 13.4781 18.6013 13.122 18.2452C12.7659 17.8891 12.4852 17.4649 12.2966 16.998C12.108 16.531 12.0153 16.0309 12.0242 15.5274C12.0331 15.0239 12.1433 14.5273 12.3483 14.0673C12.5532 13.6073 12.8488 13.1933 13.2172 12.85M23.2922 22.925C21.1554 24.5538 18.5536 25.4561 15.8672 25.5C7.11719 25.5 2.11719 15.5 2.11719 15.5C3.67205 12.6024 5.82861 10.0708 8.44219 8.075L23.2922 22.925Z" stroke="white" stroke-width="2" stroke-linecap="round" stroke-linejoin="round"/>
<path d="M2.11719 1.75L29.6172 29.25" stroke="white" stroke-width="2" stroke-linecap="round" stroke-linejoin="round"/>
</g>
<defs>
<clipPath id="clip0_1726_3583">
<rect width="30" height="30" fill="white" transform="translate(0.867188 0.5)"/>
</clipPath>
</defs>
</svg>
