<svg width="25" height="23" viewBox="0 0 25 23" fill="none" xmlns="http://www.w3.org/2000/svg">
<path d="M9.2736 5.42981H11.6447V16.0006C11.6447 16.1381 11.7602 16.2506 11.9014 16.2506H13.8265C13.9677 16.2506 14.0832 16.1381 14.0832 16.0006V5.42981H16.4608C16.6757 5.42981 16.7945 5.18921 16.6629 5.02672L13.0693 0.595912C13.0453 0.566034 13.0146 0.541871 12.9796 0.525254C12.9446 0.508636 12.9061 0.5 12.8672 0.5C12.8282 0.5 12.7898 0.508636 12.7548 0.525254C12.7197 0.541871 12.6891 0.566034 12.665 0.595912L9.07147 5.0236C8.93991 5.18921 9.05863 5.42981 9.2736 5.42981ZM24.6105 15.0632H22.6854C22.5442 15.0632 22.4287 15.1757 22.4287 15.3132V20.1252H3.30569V15.3132C3.30569 15.1757 3.19018 15.0632 3.04901 15.0632H1.12387C0.982696 15.0632 0.867188 15.1757 0.867188 15.3132V21.5001C0.867188 22.0532 1.32601 22.5 1.89393 22.5H23.8404C24.4084 22.5 24.8672 22.0532 24.8672 21.5001V15.3132C24.8672 15.1757 24.7517 15.0632 24.6105 15.0632Z" fill="white"/>
</svg>
