<svg width="19" height="17" viewBox="0 0 19 17" fill="none" xmlns="http://www.w3.org/2000/svg">
<path d="M17.9067 10.9456H16.4145C16.3316 10.9456 16.2487 11.0285 16.2487 11.1114V14.7591H1.82383V11.1114C1.82383 11.0285 1.74093 10.9456 1.65803 10.9456H0.165803C0.0829016 10.9456 0 11.0285 0 11.1114V15.7539C0 16.1684 0.331606 16.5 0.746114 16.5H17.3264C17.7409 16.5 18.0725 16.1684 18.0725 15.7539V11.1114C18.0725 11.0285 17.9896 10.9456 17.9067 10.9456Z" fill="white"/>
<path d="M11.772 8.62435H9.94819V0.665803C9.94819 0.582902 9.86528 0.5 9.78238 0.5H8.29016C8.20725 0.5 8.12435 0.582902 8.12435 0.665803V8.62435H6.30052C6.13472 8.62435 6.05181 8.79016 6.13472 8.95596L8.87047 12.272C8.87047 12.272 8.87047 12.272 8.95337 12.3549C9.03627 12.4378 9.03627 12.3549 9.03627 12.3549H9.11917C9.11917 12.3549 9.20207 12.3549 9.20207 12.272L11.9378 8.95596C12.0207 8.87306 11.9378 8.62435 11.772 8.62435Z" fill="white"/>
</svg>
