<svg width="22" height="15" viewBox="0 0 22 15" fill="none" xmlns="http://www.w3.org/2000/svg">
<path d="M19.7963 0.5H2.96035C2.40782 0.501804 1.87842 0.728016 1.48772 1.12928C1.09702 1.53054 0.876757 2.07425 0.875 2.64172V12.3583C0.875 12.9263 1.0947 13.471 1.48578 13.8727C1.87686 14.2744 2.40728 14.5 2.96035 14.5H19.7963C20.3494 14.5 20.8798 14.2744 21.2709 13.8727C21.662 13.471 21.8817 12.9263 21.8817 12.3583V2.64172C21.8799 2.07425 21.6596 1.53054 21.2689 1.12928C20.8782 0.728016 20.3488 0.501804 19.7963 0.5ZM15.0993 7.00732L21.0089 2.03959C21.0974 2.22726 21.143 2.4332 21.1421 2.64172V12.3583C21.141 12.5563 21.1001 12.7519 21.0222 12.933L15.0993 7.00732ZM19.7963 1.25952C20.051 1.25816 20.3007 1.33177 20.5159 1.47164L11.3817 9.15591L2.2408 1.47164C2.45599 1.33177 2.70569 1.25816 2.96035 1.25952H19.7963ZM1.74112 12.933C1.65878 12.7532 1.61558 12.557 1.61453 12.3583V2.64172C1.6137 2.4332 1.65927 2.22726 1.74778 2.03959L7.65736 7.00732L1.74112 12.933ZM2.96035 13.7405C2.69567 13.7403 2.43663 13.6619 2.21415 13.5147L8.21034 7.48631L11.3617 10.1344L14.5063 7.48631L20.5025 13.5147C20.2812 13.6645 20.0214 13.7431 19.7563 13.7405H2.96035Z" fill="white"/>
</svg>
