<svg width="41" height="41" viewBox="0 0 41 41" fill="none" xmlns="http://www.w3.org/2000/svg">
<path d="M20.9922 0.5C9.99219 0.5 0.992188 9.5 0.992188 20.5C0.992188 31.5 9.99219 40.5 20.9922 40.5C31.9922 40.5 40.9922 31.5 40.9922 20.5C40.9922 9.5 31.9922 0.5 20.9922 0.5ZM30.7922 12.7L27.3922 29.1C27.1922 30.3 26.3922 30.5 25.5922 29.9L20.3922 25.9C19.1922 27.1 17.9922 28.1 17.7922 28.5C17.3922 28.7 17.1922 29.1 16.7922 29.1C16.1922 29.1 16.1922 28.7 15.9922 28.3L14.1922 22.3L8.79219 20.5C7.59219 20.1 7.59219 19.3 8.99219 18.7L29.3922 10.9C30.1922 10.7 31.1922 11.1 30.7922 12.7ZM25.9922 14.5L14.5922 21.7L16.3922 27.7L16.7922 23.7L26.5922 14.9C27.1922 14.3 26.7922 14.3 25.9922 14.5Z" fill="white"/>
</svg>
