<svg width="28" height="33" viewBox="0 0 28 33" fill="none" xmlns="http://www.w3.org/2000/svg">
<path d="M27.5859 9.59379L18.8359 0.843792C18.7525 0.753412 18.6509 0.681649 18.5378 0.633187C18.4247 0.584725 18.3027 0.560653 18.1797 0.562542H3.17969C2.59953 0.562542 2.04313 0.79301 1.63289 1.20325C1.22266 1.61348 0.992188 2.16988 0.992188 2.75004V30.25C0.992188 30.8302 1.22266 31.3866 1.63289 31.7968C2.04313 32.2071 2.59953 32.4375 3.17969 32.4375H25.6797C26.2598 32.4375 26.8162 32.2071 27.2265 31.7968C27.6367 31.3866 27.8672 30.8302 27.8672 30.25V10.25C27.8691 10.127 27.845 10.005 27.7965 9.89193C27.7481 9.77885 27.6763 9.67726 27.5859 9.59379ZM19.1172 3.76567L24.6641 9.31254H19.1172V3.76567ZM25.6797 30.5625H3.17969C3.09681 30.5625 3.01732 30.5296 2.95872 30.471C2.90011 30.4124 2.86719 30.3329 2.86719 30.25V2.75004C2.86719 2.66716 2.90011 2.58768 2.95872 2.52907C3.01732 2.47047 3.09681 2.43754 3.17969 2.43754H17.2422V10.25C17.2422 10.4987 17.341 10.7371 17.5168 10.913C17.6926 11.0888 17.931 11.1875 18.1797 11.1875H25.9922V30.25C25.9922 30.3329 25.9593 30.4124 25.9007 30.471C25.8421 30.5296 25.7626 30.5625 25.6797 30.5625ZM19.4609 20.2188C19.5498 20.3034 19.6206 20.4052 19.6689 20.5181C19.7173 20.6309 19.7422 20.7523 19.7422 20.875C19.7422 20.9978 19.7173 21.1192 19.6689 21.232C19.6206 21.3448 19.5498 21.4466 19.4609 21.5313L15.0859 25.9063C15.0013 25.9952 14.8995 26.0659 14.7867 26.1143C14.6739 26.1626 14.5524 26.1875 14.4297 26.1875C14.307 26.1875 14.1855 26.1626 14.0727 26.1143C13.9599 26.0659 13.8581 25.9952 13.7734 25.9063L9.39844 21.5313C9.22439 21.3572 9.12661 21.1212 9.12661 20.875C9.12661 20.6289 9.22439 20.3928 9.39844 20.2188C9.57249 20.0447 9.80855 19.947 10.0547 19.947C10.3008 19.947 10.5369 20.0447 10.7109 20.2188L13.4922 22.9844V15.25C13.4922 15.0014 13.591 14.7629 13.7668 14.5871C13.9426 14.4113 14.181 14.3125 14.4297 14.3125C14.6783 14.3125 14.9168 14.4113 15.0926 14.5871C15.2684 14.7629 15.3672 15.0014 15.3672 15.25V22.9844L18.1484 20.2188C18.2331 20.1299 18.3349 20.0592 18.4477 20.0108C18.5605 19.9625 18.682 19.9375 18.8047 19.9375C18.9274 19.9375 19.0489 19.9625 19.1617 20.0108C19.2745 20.0592 19.3763 20.1299 19.4609 20.2188Z" fill="white"/>
</svg>
