<svg width="464" height="510" viewBox="0 0 464 510" fill="none" xmlns="http://www.w3.org/2000/svg">
<g clip-path="url(#clip0_543_2657)">
<path d="M554.969 327.143C579.346 176.943 477.346 35.4215 327.146 11.045C176.946 -13.3314 35.4241 88.6685 11.0476 238.868C-13.3288 389.068 88.6712 530.59 238.871 554.967C389.071 579.343 530.593 477.343 554.969 327.143Z" stroke="white" stroke-opacity="0.3" stroke-width="3.2485" stroke-miterlimit="10" stroke-linecap="round" stroke-linejoin="round"/>
<path d="M283 510.324C408.548 510.324 510.324 408.548 510.324 283C510.324 157.452 408.548 55.6759 283 55.6759C157.452 55.6759 55.6759 157.452 55.6759 283C55.6759 408.548 157.452 510.324 283 510.324Z" stroke="white" stroke-opacity="0.3" stroke-width="3.2485" stroke-miterlimit="10" stroke-linecap="round" stroke-linejoin="round"/>
<path d="M283 127.939V260.406" stroke="white" stroke-opacity="0.3" stroke-width="3.2485" stroke-miterlimit="10" stroke-linecap="round" stroke-linejoin="round"/>
<path d="M283 55.6759V100.863" stroke="white" stroke-opacity="0.3" stroke-width="3.2485" stroke-miterlimit="10" stroke-linecap="round" stroke-linejoin="round"/>
<path d="M55.6759 283H100.863" stroke="white" stroke-opacity="0.3" stroke-width="3.2485" stroke-miterlimit="10" stroke-linecap="round" stroke-linejoin="round"/>
<path d="M283 510.324V465.183" stroke="white" stroke-opacity="0.3" stroke-width="3.2485" stroke-miterlimit="10" stroke-linecap="round" stroke-linejoin="round"/>
<path d="M510.324 283H465.183" stroke="white" stroke-opacity="0.3" stroke-width="3.2485" stroke-miterlimit="10" stroke-linecap="round" stroke-linejoin="round"/>
<path d="M130.249 130.249L146.19 146.19" stroke="white" stroke-opacity="0.3" stroke-width="3.2485" stroke-miterlimit="10" stroke-linecap="round" stroke-linejoin="round"/>
<path d="M130.249 435.751L146.19 419.81" stroke="white" stroke-opacity="0.3" stroke-width="3.2485" stroke-miterlimit="10" stroke-linecap="round" stroke-linejoin="round"/>
<path d="M435.751 435.751L419.811 419.81" stroke="white" stroke-opacity="0.3" stroke-width="3.2485" stroke-miterlimit="10" stroke-linecap="round" stroke-linejoin="round"/>
<path d="M435.751 130.249L419.811 146.19" stroke="white" stroke-opacity="0.3" stroke-width="3.2485" stroke-miterlimit="10" stroke-linecap="round" stroke-linejoin="round"/>
<path d="M383.864 380.86L299.218 298.709" stroke="white" stroke-opacity="0.3" stroke-width="3.2485" stroke-miterlimit="10" stroke-linecap="round" stroke-linejoin="round"/>
<path d="M283 305.594C295.478 305.594 305.594 295.478 305.594 283C305.594 270.522 295.478 260.406 283 260.406C270.522 260.406 260.406 270.522 260.406 283C260.406 295.478 270.522 305.594 283 305.594Z" stroke="white" stroke-opacity="0.3" stroke-width="3.2485" stroke-miterlimit="10" stroke-linecap="round" stroke-linejoin="round"/>
</g>
<defs>
<clipPath id="clip0_543_2657">
<rect width="566" height="566" fill="white"/>
</clipPath>
</defs>
</svg>
