<svg width="586" height="591" viewBox="0 0 586 591" fill="none" xmlns="http://www.w3.org/2000/svg">
<path d="M597.285 512.811C597.285 500.929 596.422 489.263 594.964 477.812L642.039 445.569L621.2 381.405L564.355 382.971C553.018 362.177 539.036 343.058 522.841 325.99L541.951 272.305L487.427 232.661L442.404 267.336C421.404 257.29 398.838 249.944 375.247 245.57L359.213 190.966H291.787L275.699 245.57C252.108 249.944 229.596 257.29 208.542 267.336L163.573 232.607L109.049 272.251L128.159 325.936C112.018 343.004 97.982 362.123 86.6452 382.917L29.7455 381.405L8.96143 445.569L56.036 477.812C54.5784 489.263 53.7146 500.929 53.7146 512.811C53.7146 524.801 54.5784 536.575 56.09 548.133L8.96143 580.431L29.7995 644.595L86.8612 643.029C98.1979 663.769 112.126 682.78 128.267 699.793L109.103 753.749L163.627 793.393L208.92 758.502C229.812 768.44 252.216 775.785 275.699 780.106L291.895 835.034H359.321L375.517 780.106C398.946 775.731 421.35 768.44 442.296 758.502L487.589 793.393L542.113 753.749L522.949 699.793C539.036 682.78 553.018 663.769 564.355 643.029L621.416 644.595L642.254 580.431L595.126 548.133C596.422 536.575 597.285 524.801 597.285 512.811Z" stroke="white" stroke-opacity="0.3" stroke-width="3.3126" stroke-miterlimit="10" stroke-linecap="round" stroke-linejoin="round"/>
<path d="M536.676 562.764C564.219 446.066 491.989 329.125 375.345 301.569C258.701 274.013 141.815 346.278 114.272 462.976C86.7295 579.675 158.96 696.616 275.604 724.172C392.247 751.727 509.133 679.463 536.676 562.764Z" stroke="white" stroke-opacity="0.3" stroke-width="3.3126" stroke-miterlimit="10" stroke-linecap="round" stroke-linejoin="round"/>
<path d="M325.473 684.077C420.016 684.077 496.658 607.398 496.658 512.811C496.658 418.224 420.016 341.545 325.473 341.545C230.93 341.545 154.288 418.224 154.288 512.811C154.288 607.398 230.93 684.077 325.473 684.077Z" stroke="white" stroke-opacity="0.3" stroke-width="3.3126" stroke-miterlimit="10" stroke-linecap="round" stroke-linejoin="round"/>
<path d="M1027.29 62.8109C1027.29 50.9287 1026.42 39.2626 1024.96 27.8125L1072.04 -4.43149L1051.2 -68.5953L994.355 -67.029C983.018 -87.8229 969.036 -106.942 952.841 -124.01L971.951 -177.695L917.427 -217.339L872.404 -182.664C851.404 -192.71 828.838 -200.056 805.247 -204.43L789.213 -259.034H721.787L705.699 -204.43C682.108 -200.056 659.596 -192.71 638.542 -182.664L593.573 -217.393L539.049 -177.749L558.159 -124.064C542.018 -106.996 527.982 -87.8769 516.645 -67.083L459.745 -68.5953L438.961 -4.43149L486.036 27.8125C484.578 39.2626 483.715 50.9287 483.715 62.8109C483.715 74.8011 484.578 86.5753 486.09 98.1334L438.961 130.431L459.799 194.595L516.861 193.029C528.198 213.769 542.126 232.78 558.267 249.793L539.103 303.749L593.627 343.393L638.92 308.502C659.812 318.44 682.216 325.785 705.699 330.106L721.895 385.034H789.321L805.517 330.106C828.946 325.731 851.35 318.44 872.296 308.502L917.589 343.393L972.113 303.749L952.949 249.793C969.036 232.78 983.018 213.769 994.355 193.029L1051.42 194.595L1072.25 130.431L1025.13 98.1334C1026.42 86.5753 1027.29 74.8011 1027.29 62.8109Z" stroke="white" stroke-opacity="0.3" stroke-width="3.3126" stroke-miterlimit="10" stroke-linecap="round" stroke-linejoin="round"/>
<path d="M966.676 112.764C994.219 -3.93393 921.989 -120.875 805.345 -148.431C688.701 -175.987 571.815 -103.722 544.272 12.9761C516.73 129.675 588.96 246.616 705.604 274.172C822.247 301.727 939.133 229.463 966.676 112.764Z" stroke="white" stroke-opacity="0.3" stroke-width="3.3126" stroke-miterlimit="10" stroke-linecap="round" stroke-linejoin="round"/>
<path d="M755.473 234.077C850.016 234.077 926.658 157.398 926.658 62.811C926.658 -31.7764 850.016 -108.455 755.473 -108.455C660.93 -108.455 584.288 -31.7764 584.288 62.811C584.288 157.398 660.93 234.077 755.473 234.077Z" stroke="white" stroke-opacity="0.3" stroke-width="3.3126" stroke-miterlimit="10" stroke-linecap="round" stroke-linejoin="round"/>
</svg>
