<svg width="160" height="155" viewBox="0 0 160 155" fill="none" xmlns="http://www.w3.org/2000/svg">
<path d="M157.937 151.776H154.04L142.579 125.52L142.35 125.29V125.059L141.891 124.829L123.553 116.999L109.799 107.325C109.57 107.095 109.341 107.095 108.883 107.095H108.195L96.2751 111.932L80.4584 114.926C80.2292 114.926 80 115.156 79.7708 115.386L68.7679 125.75L54.5559 108.938C54.3266 108.707 53.8682 108.477 53.4097 108.477C52.9513 108.477 52.7221 108.707 52.2636 108.938L31.404 131.738L17.6504 132.89C17.4212 132.89 17.192 133.12 16.9627 133.12L3.20917 143.024V64.2571H13.2951C14.212 64.2571 14.8997 63.5661 14.8997 62.6449V59.4205H31.6332L43.0946 66.7905C46.9914 69.3239 51.3467 70.4755 55.9312 70.4755H56.1605L84.5845 70.2452L84.8138 71.1664C88.7106 88.4398 104.069 100.877 121.948 100.877C132.493 100.877 141.891 96.5007 148.768 89.5914C155.645 82.682 160 73.0089 160 62.6449C160 47.4443 150.602 33.3952 136.848 27.4071H136.619L135.931 26.7162L114.842 8.98217C110.258 5.52749 104.527 3.45468 98.5673 3.45468C97.4212 3.45468 96.2751 3.45468 95.1289 3.68499L31.6332 11.5156H14.6705V8.52155C14.6705 7.6003 13.9828 6.90936 13.0659 6.90936H2.97994V1.61218C2.97994 0.690936 2.29226 0 1.60458 0C0.687679 0 0 0.690936 0 1.61218V153.388C0 154.309 0.687679 155 1.60458 155H158.166C159.083 155 159.771 154.309 159.771 153.388C159.542 152.467 158.854 151.776 157.937 151.776ZM133.868 29.7103L134.097 29.9406C147.393 35.2377 156.332 48.3655 156.332 62.6449C156.332 81.9911 140.516 97.8826 121.261 97.8826C105.215 97.8826 91.4613 87.0579 87.3352 71.8574L86.8768 70.4755H95.8166C101.777 70.4755 106.819 65.4086 107.049 59.4205V59.1902C107.049 56.4264 105.903 53.6627 104.069 51.8202C102.006 49.7474 99.4842 48.5958 96.5043 48.5958L89.3983 48.3655L90.3152 46.7533C94.212 39.153 100.86 32.9346 108.883 29.9406L109.341 29.4799H133.41L133.868 29.7103ZM86.4183 47.6746L86.1891 48.3655H72.894L99.0258 30.4012L93.0659 37.3106C90.3152 40.5349 88.0229 43.9896 86.4183 47.6746ZM14.6705 14.74H32.0917L95.1289 6.90936C96.0458 6.67905 97.192 6.67905 98.1089 6.67905C103.381 6.67905 108.195 8.29123 112.321 11.2853L130.201 26.2556H105.903C105.444 26.2556 105.215 26.2556 104.756 26.2556C100.401 26.2556 96.9627 28.0981 96.7335 28.0981H96.5043L72.894 44.4502C71.9771 45.1412 71.5186 46.2927 71.5186 47.4443C71.5186 47.9049 71.5186 48.3655 71.7478 48.8262C72.2063 50.4383 73.8109 51.3596 75.4155 51.3596H96.9627C99.0258 51.3596 100.86 52.0505 102.464 53.6627C103.84 55.0446 104.527 56.8871 104.527 58.9599V59.1902C104.298 63.5661 100.86 67.0208 96.5043 67.2511L55.9312 67.4814H55.702C51.5759 67.4814 47.9083 66.3299 44.6991 64.2571L32.7794 56.6568C32.5501 56.4264 32.3209 56.4264 31.8625 56.4264H14.6705V14.74ZM2.97994 9.90342H11.4613V61.0327H2.97994V9.90342ZM2.97994 151.776V146.709L18.3381 135.884L32.3209 134.733H46.7622C47.6791 134.733 48.3668 134.042 48.3668 133.12C48.3668 132.199 47.6791 131.508 46.7622 131.508H35.7593L53.639 112.162L67.6218 128.744H67.851L68.3095 128.975H68.7679C77.4785 130.587 80.9169 131.048 82.2923 131.278H82.5215L82.7507 131.508C83.8968 132.429 86.8768 134.963 90.3152 138.418C93.9828 141.642 98.1089 145.788 102.006 149.473L104.069 151.545H2.97994V151.776ZM108.424 151.776L108.195 151.545C92.8367 137.036 87.106 131.508 84.5845 129.666C83.8969 128.975 83.4384 128.744 83.2092 128.744C82.7507 128.744 81.8338 128.514 80.2292 128.284C78.6246 128.053 76.7908 127.593 74.4986 127.363L72.2063 126.902L81.3754 118.15L81.6046 117.92L97.192 114.926L97.6504 114.695L108.883 110.089L121.948 119.302L122.407 119.532L134.097 124.599H119.198C118.281 124.599 117.593 125.29 117.593 126.211C117.593 127.132 118.281 127.823 119.198 127.823H140.287L150.831 152.006H108.424V151.776Z" fill="#444444"/>
<path d="M114.613 82.2214H117.364V77.1545H123.324V74.3908H117.364V69.5542H126.075C129.284 69.5542 132.264 68.1724 134.327 66.0996C136.39 64.0267 137.765 61.0327 137.765 57.8083C137.765 54.584 136.39 51.5899 134.327 49.5171C132.264 47.4443 129.284 46.0624 126.075 46.0624H114.613V66.5602H110.258V69.3239H114.613V74.1605H110.258V76.9242H114.613V82.2214ZM117.364 48.8262H126.075C130.888 48.8262 134.785 52.7415 134.785 57.578C134.785 62.4146 130.888 66.3299 126.075 66.3299H117.364V48.8262Z" fill="#444444"/>
</svg>
