<svg width="71" height="84" viewBox="0 0 71 84" fill="none" xmlns="http://www.w3.org/2000/svg">
<g clip-path="url(#clip0_5803_2822)">
<path d="M43.1883 43.3944H59.0998C59.7684 46.0504 62.0414 47.9096 64.983 47.9096C68.3258 47.9096 71 45.2536 71 41.9336C71 38.6136 68.3258 35.9576 64.983 35.9576C62.0414 35.9576 59.6347 37.9496 59.0998 40.7384H43.1883V34.7624H47.0659C47.6008 36.6216 49.4727 38.0824 51.4783 38.0824C54.0188 38.0824 56.1582 35.9576 56.1582 33.4344C56.1582 30.9112 54.0188 28.7864 51.4783 28.7864C49.339 28.7864 47.6008 30.2472 47.0659 32.1064H43.1883V29.3176V22.8104H54.42C55.0885 25.4664 57.3616 27.3256 60.3032 27.3256C61.1055 27.3256 61.774 26.5288 61.774 25.8648C61.774 25.2008 61.2392 24.5368 60.4369 24.5368C58.6987 24.5368 57.2279 23.076 57.2279 21.3496C57.2279 19.6232 58.6987 18.1624 60.4369 18.1624C62.1751 18.1624 63.6459 19.6232 63.6459 21.3496C63.6459 22.0136 64.1808 22.6776 64.983 22.6776C65.6516 22.6776 66.3201 22.1464 66.3201 21.3496C66.3201 18.0296 63.6459 15.3736 60.3032 15.3736C57.3616 15.3736 54.9548 17.3656 54.42 20.1544H43.1883V14.444V12.7176H47.0659C47.7345 14.5768 49.4727 15.9048 51.4783 15.9048C54.0188 15.9048 56.1582 13.78 56.1582 11.2568C56.1582 8.7336 54.0188 6.6088 51.4783 6.6088C49.339 6.6088 47.467 8.0696 46.9322 10.0616H43.1883V1.828C43.1883 1.164 42.6535 0.5 41.8512 0.5H35.968C33.5612 0.5 31.5556 2.492 31.5556 4.8824V14.9752C31.0207 15.2408 30.3522 15.5064 29.8173 15.772L22.4633 8.468C20.8588 6.8744 17.9171 6.8744 16.3126 8.468L8.0226 16.7016C6.28437 18.428 6.28437 21.084 8.0226 22.8104L15.3766 30.1144C15.2429 30.2472 15.2429 30.38 15.2429 30.6456C15.1092 31.044 14.8418 31.4424 14.7081 31.8408H4.41243C2.00565 31.8408 0 33.8328 0 36.2232V47.7768C0 50.1672 2.00565 52.1592 4.41243 52.1592H14.7081C14.8418 52.6904 15.1092 53.3544 15.3766 53.8856L8.0226 61.1896C7.08663 61.9864 6.6855 63.0488 6.6855 64.244C6.6855 65.4392 7.22034 66.5016 8.0226 67.2984L16.3126 75.532C17.9171 77.1256 20.8588 77.1256 22.4633 75.532L29.8173 68.228C30.3522 68.4936 31.0207 68.6264 31.5556 68.892V79.1176C31.5556 81.508 33.5612 83.5 35.968 83.5H41.8512C42.6535 83.5 43.1883 82.836 43.1883 82.0392V73.9384H47.0659C47.6008 75.7976 49.4727 77.2584 51.4783 77.2584C54.0188 77.2584 56.1582 75.1336 56.1582 72.6104C56.1582 70.0872 54.0188 67.9624 51.4783 67.9624C49.339 67.9624 47.6008 69.4232 47.0659 71.2824H43.1883V69.2904V63.8456H54.42C55.0885 66.5016 57.3616 68.4936 60.3032 68.4936C63.6459 68.4936 66.3202 65.8376 66.4539 62.6504C66.4539 60.7912 65.5179 59.0648 64.0471 57.8696C63.5122 57.4712 62.5763 57.4712 62.1751 58.1352C61.774 58.6664 61.774 59.596 62.4426 59.9944C63.2448 60.5256 63.6459 61.4552 63.6459 62.5176C63.6459 64.244 62.1751 65.7048 60.4369 65.7048C58.6987 65.7048 57.2279 64.244 57.2279 62.5176C57.2279 61.7208 57.4953 60.924 58.0301 60.3928C58.565 59.7288 58.4313 58.932 57.8964 58.4008C57.2279 57.8696 56.4256 58.0024 55.8908 58.5336C55.0885 59.3304 54.6874 60.26 54.42 61.1896H43.1883V54.5496V51.8936H47.0659C47.7345 53.7528 49.4727 55.0808 51.4783 55.0808C54.0188 55.0808 56.1582 53.0888 56.1582 50.4328C56.1582 47.9096 54.0188 45.7848 51.4783 45.7848C49.339 45.7848 47.467 47.2456 46.9322 49.2376H43.1883V43.3944ZM64.983 38.7464C66.7213 38.7464 68.1921 40.2072 68.1921 41.9336C68.1921 43.66 66.7213 45.1208 64.983 45.1208C63.2448 45.1208 61.774 43.66 61.774 41.9336C61.774 40.2072 63.2448 38.7464 64.983 38.7464ZM51.4783 31.5752C52.548 31.5752 53.3503 32.372 53.3503 33.4344C53.3503 34.4968 52.548 35.2936 51.4783 35.2936C50.4087 35.2936 49.6064 34.4968 49.6064 33.4344C49.6064 32.372 50.4087 31.5752 51.4783 31.5752ZM51.4783 9.3976C52.548 9.3976 53.3503 10.3272 53.3503 11.2568C53.3503 12.3192 52.548 13.116 51.4783 13.116C50.4087 13.116 49.6064 12.3192 49.6064 11.2568C49.6064 10.1944 50.4087 9.3976 51.4783 9.3976ZM51.4783 70.7512C52.548 70.7512 53.3503 71.548 53.3503 72.6104C53.3503 73.6728 52.548 74.4696 51.4783 74.4696C50.4087 74.4696 49.6064 73.6728 49.6064 72.6104C49.6064 71.548 50.4087 70.7512 51.4783 70.7512ZM51.4783 48.5736C52.548 48.5736 53.3503 49.5032 53.3503 50.4328C53.3503 51.4952 52.548 52.292 51.4783 52.292C50.4087 52.292 49.6064 51.4952 49.6064 50.4328C49.6064 49.3704 50.4087 48.5736 51.4783 48.5736ZM40.5141 68.0952C38.2411 67.9624 36.1017 67.564 33.9623 66.9C33.8286 66.7672 33.6949 66.6344 33.5612 66.6344C32.4915 66.236 31.4218 65.8376 30.3522 65.3064C30.2185 65.1736 30.0847 65.1736 29.8173 65.1736C25.0038 62.6504 20.9925 58.7992 18.5857 54.0184C18.5857 53.8856 18.5857 53.62 18.452 53.4872C17.9171 52.4248 17.516 51.3624 17.1149 50.3C17.1149 50.1672 16.9812 50.0344 16.8475 49.9016C16.0452 47.3784 15.6441 44.7224 15.6441 42.0664C15.6441 39.2776 16.0452 36.6216 16.9812 34.0984C17.1149 33.9656 17.1149 33.8328 17.1149 33.7C17.516 32.6376 17.9171 31.5752 18.452 30.5128C18.452 30.38 18.5857 30.2472 18.5857 30.1144C21.1262 25.2008 25.2712 21.2168 30.2185 18.6936H30.3522C31.4218 18.1624 32.4915 17.764 33.5612 17.3656C35.7006 16.7016 38.1073 16.1704 40.5141 16.0376V28.1224C33.4275 28.7864 27.8117 34.7624 27.8117 41.9336C27.8117 49.1048 33.4275 55.0808 40.5141 55.7448V68.0952ZM40.5141 53.0888C34.8983 52.4248 30.6196 47.644 30.6196 41.9336C30.6196 36.2232 34.8983 31.4424 40.5141 30.7784V53.0888ZM34.4972 4.8824C34.4972 3.9528 35.1657 3.2888 36.1017 3.2888H40.5141V13.116C38.5085 13.2488 36.3691 13.5144 34.4972 14.0456V4.8824ZM10.162 20.9512C9.49341 20.2872 9.49341 19.3576 10.162 18.6936L18.452 10.46C19.1205 9.796 20.0565 9.796 20.725 10.46L27.2768 16.9672C22.8644 19.4904 19.2542 23.076 16.7137 27.4584L10.162 20.9512ZM2.94162 47.7768V36.2232C2.94162 35.2936 3.61017 34.6296 4.54614 34.6296H13.7721C13.1036 37.02 12.8362 39.4104 12.8362 41.9336C12.8362 44.4568 13.2373 46.98 13.7721 49.3704H4.54614C3.61017 49.3704 2.94162 48.7064 2.94162 47.7768ZM20.725 73.4072C20.0565 74.0712 19.1205 74.0712 18.452 73.4072L10.162 65.1736C9.76083 64.908 9.62712 64.5096 9.62712 64.1112C9.62712 63.7128 9.89454 63.3144 10.162 63.0488L16.8475 56.4088C19.3879 60.6584 22.9981 64.244 27.4105 66.7672L20.725 73.4072ZM40.5141 80.7112H36.1017C35.1657 80.7112 34.4972 80.0472 34.4972 79.1176V69.8216C36.3691 70.3528 38.5085 70.6184 40.5141 70.7512V80.7112Z" fill="black"/>
</g>
<defs>
<clipPath id="clip0_5803_2822">
<rect width="71" height="83" fill="white" transform="translate(0 0.5)"/>
</clipPath>
</defs>
</svg>
