<svg width="184" height="30" viewBox="0 0 184 30" fill="none" xmlns="http://www.w3.org/2000/svg">
<g clip-path="url(#clip0_5798_3468)">
<path d="M4.63724 7.05956C4.63724 4.97093 5.56469 4.17725 7.04018 4.17725C8.51566 4.17725 9.44311 4.97093 9.44311 7.05956V22.8496C9.44311 24.9382 8.51566 25.7319 7.04018 25.7319C5.56469 25.7319 4.63724 24.9382 4.63724 22.8496V7.05956ZM0 22.5572C0 27.2357 2.48725 29.9091 7.04018 29.9091C11.5931 29.9091 14.0804 27.2357 14.0804 22.5572V7.35196C14.0804 2.67344 11.5931 0 7.04018 0C2.48725 0 0 2.67344 0 7.35196V22.5572Z" fill="black"/>
<path d="M24.4719 29.5749C29.1092 29.5749 31.4699 27.0269 31.4699 22.3484V19.2155C31.4699 14.5369 29.1092 11.9887 24.4719 11.9887H21.7739V4.51148H30.1209V0.334229H17.1367V29.5749H24.4719ZM21.7739 25.3977V16.166H24.4719C25.9474 16.166 26.8327 16.8343 26.8327 18.9229V22.6407C26.8327 24.7293 25.9474 25.3977 24.4719 25.3977H21.7739Z" fill="black"/>
<path d="M41.4192 0.334229H34.5898V29.5749H39.227V18.5889H41.4192C46.0564 18.5889 48.3329 16.0406 48.3329 11.3621V7.56088C48.3329 2.88235 46.0564 0.334229 41.4192 0.334229ZM41.4192 4.51148C42.8947 4.51148 43.6956 5.17984 43.6956 7.26847V11.6545C43.6956 13.7432 42.8947 14.4115 41.4192 14.4115H39.227V4.51148H41.4192Z" fill="black"/>
<path d="M60.7686 0.334229H53.9813L49.2598 29.5749H53.5176L54.3186 24.2698H60.0097L60.8107 29.5749H65.4901L60.7686 0.334229ZM57.1431 5.51402L59.3774 20.3014H54.9088L57.1431 5.51402Z" fill="black"/>
<path d="M76.5867 9.14818C76.5867 11.4874 75.5328 12.2393 73.8043 12.2393H72.4132V16.4166H73.5514C75.6592 16.4166 76.5867 17.4191 76.5867 20.1344V22.4318C76.5867 25.0217 75.6592 25.7319 74.1837 25.7319C72.7083 25.7319 71.7808 24.9382 71.7808 22.8496V19.3407H67.3965V22.5572C67.3965 27.2357 69.7573 29.9091 74.3102 29.9091C78.8631 29.9091 81.2239 27.2357 81.2239 22.5572V20.2597C81.2239 17.2938 80.2965 15.1216 77.9779 14.1191C80.2122 13.2001 81.2239 11.2368 81.2239 8.10387V7.35196C81.2239 2.67344 78.8631 0 74.3102 0C69.7573 0 67.4808 2.58989 67.4808 7.26842V9.44059H71.7387V7.05956C71.7387 4.97093 72.7083 4.17725 74.1837 4.17725C75.6592 4.17725 76.5867 4.88739 76.5867 7.51905V9.14818Z" fill="black"/>
<path d="M88.6217 7.05956C88.6217 4.97093 89.5491 4.17725 91.0246 4.17725C92.5001 4.17725 93.4275 4.97093 93.4275 7.05956V22.8496C93.4275 24.9382 92.5001 25.7319 91.0246 25.7319C89.5491 25.7319 88.6217 24.9382 88.6217 22.8496V7.05956ZM83.9844 22.5572C83.9844 27.2357 86.4717 29.9091 91.0246 29.9091C95.5775 29.9091 98.0648 27.2357 98.0648 22.5572V7.35196C98.0648 2.67344 95.5775 0 91.0246 0C86.4717 0 83.9844 2.67344 83.9844 7.35196V22.5572Z" fill="black"/>
<path d="M108.076 0.334229H101.078V29.5749H108.371C113.008 29.5749 115.411 27.1521 115.411 22.6407V20.2598C115.411 17.1686 114.442 14.9546 111.954 13.9938C114.02 13.033 114.948 11.1116 114.948 8.10392V7.05961C114.948 2.54817 112.882 0.334229 108.076 0.334229ZM107.781 16.4166C109.889 16.4166 110.774 17.252 110.774 19.9674V22.5154C110.774 24.6876 109.931 25.3977 108.371 25.3977H105.715V16.4166H107.781ZM107.95 4.51148C109.594 4.51148 110.31 5.43048 110.31 7.5191V9.14823C110.31 11.4874 109.256 12.2393 107.528 12.2393H105.715V4.51148H107.95Z" fill="black"/>
<path d="M128.49 0.334229H121.703L116.982 29.5749H121.239L122.04 24.2698H127.732L128.533 29.5749H133.212L128.49 0.334229ZM124.865 5.51402L127.099 20.3014H122.631L124.865 5.51402Z" fill="black"/>
<path d="M140.008 17.0432H145.277V29.5749H149.999V0.334229H145.277V12.8659H140.008V0.334229H135.371V29.5749H140.008V17.0432Z" fill="black"/>
<path d="M162.003 16.166L163.9 8.98114V29.5749H168.074V0.334229H162.973L159.179 12.4064L157.493 18.8394V0.334229H153.361V29.5749H158.125L162.003 16.166Z" fill="black"/>
<path d="M175.991 4.51148H184.001V0.334229H171.354V29.5749H184.001V25.3977H175.991V16.8343H182.357V12.6571H175.991V4.51148Z" fill="black"/>
</g>
<defs>
<clipPath id="clip0_5798_3468">
<rect width="184" height="30" fill="white"/>
</clipPath>
</defs>
</svg>
