<svg width="308" height="254" viewBox="0 0 308 254" fill="none" xmlns="http://www.w3.org/2000/svg">
<g clip-path="url(#clip0_5798_3480)">
<mask id="mask0_5798_3480" style="mask-type:luminance" maskUnits="userSpaceOnUse" x="0" y="0" width="308" height="254">
<path d="M308 0H0V254H308V0Z" fill="white"/>
</mask>
<g mask="url(#mask0_5798_3480)">
<path d="M101.258 79.5945H97.0395V69.5281H93.2891V93.1724H97.0395V83.106H101.258V93.1724H105.009V69.5281H101.258V79.5945ZM258.305 69.5281H254.555V93.1724H258.305V69.5281ZM111.337 69.5281L107.587 93.1724H111.103L111.806 88.9586H116.494L117.197 93.1724H120.948L117.197 69.5281H111.337ZM112.041 85.6811L113.916 73.742L115.791 85.6811H112.041ZM143.45 79.1263L142.044 84.2765V69.294H138.762V92.9383H142.512L145.56 82.1696L146.966 76.3171V92.9383H150.248V69.5281H146.263L143.45 79.1263ZM202.519 87.0857L202.987 72.8056H206.269V93.1724H210.019V69.5281H199.471L198.768 87.3198C198.768 89.4268 198.065 89.6609 196.424 89.6609V92.9383H196.893C200.878 93.1724 202.519 91.5337 202.519 87.0857ZM252.445 87.3198V84.2765C252.445 80.5309 250.57 78.424 246.82 78.424H244.945V69.5281H241.429V93.1724H246.82C250.57 93.1724 252.445 91.0655 252.445 87.3198ZM245.179 81.7014H247.054C248.226 81.7014 248.929 82.1696 248.929 84.0424V87.5539C248.929 89.1927 248.226 89.895 247.054 89.895H245.179V81.7014ZM224.083 87.3198V84.2765C224.083 80.5309 222.208 78.424 218.458 78.424H216.582V69.5281H212.832V93.1724H218.223C222.208 93.1724 224.083 91.0655 224.083 87.3198ZM216.817 81.7014H218.692C219.864 81.7014 220.567 82.1696 220.567 84.0424V87.5539C220.567 89.1927 219.864 89.895 218.692 89.895H216.817V81.7014ZM230.412 82.8719H234.631V92.9383H238.382V69.5281H234.631V79.5945H230.412V69.5281H226.662V93.1724H230.412V82.8719ZM134.543 69.5281H130.793V89.895H126.573V69.5281H122.823V93.1724H132.668V96.4498H136.184V89.895H134.543V69.5281ZM190.799 93.1724H194.549L190.799 69.5281H185.407L181.657 93.1724H185.173L185.876 88.9586H190.564L190.799 93.1724ZM186.111 85.6811L187.986 73.742L189.861 85.6811H186.111ZM271.432 72.8056V69.5281H261.353V93.1724H271.432V89.895H265.103V82.8719H270.26V79.5945H265.103V73.0397H271.432V72.8056ZM158.92 69.0599C155.17 69.0599 153.295 71.1668 153.295 74.9125V87.3198C153.295 91.0655 155.404 93.1724 158.92 93.1724C162.671 93.1724 164.546 91.0655 164.546 87.3198V74.9125C164.546 71.401 162.671 69.0599 158.92 69.0599ZM161.03 87.788C161.03 89.4268 160.327 90.1291 159.155 90.1291C157.983 90.1291 157.28 89.4268 157.28 87.788V74.9125C157.28 73.2738 157.983 72.5715 159.155 72.5715C160.327 72.5715 161.03 73.2738 161.03 74.9125V87.788ZM171.109 82.8719H175.328V92.9383H179.079V69.5281H175.328V79.5945H171.109V69.5281H167.359V93.1724H171.109V82.8719ZM223.38 101.132V97.8544H213.301V121.499H223.38V118.221H217.051V111.198H222.208V107.921H217.051V101.366H223.38V101.132ZM234.631 121.499H238.382L233.225 108.389L238.382 97.8544H234.631L229.709 108.155V97.8544H225.958V121.499H229.709V114.242L230.881 112.135L234.631 121.499ZM247.992 121.499V101.132H251.977V97.8544H240.491V101.132H244.476V121.499H247.992ZM265.103 115.646V112.603C265.103 108.857 263.228 106.75 259.477 106.75H257.837V97.8544H254.086V121.499H259.477C263.462 121.499 265.103 119.392 265.103 115.646ZM257.837 110.028H259.712C260.884 110.028 261.587 110.496 261.587 112.369V115.88C261.587 117.519 260.884 118.221 259.712 118.221H257.837V110.028ZM196.893 106.75V103.707C196.893 99.9613 195.018 97.8544 191.267 97.8544H185.876V121.499H189.627V112.603H191.502C195.018 112.603 196.893 110.496 196.893 106.75ZM189.627 101.132H191.502C192.674 101.132 193.377 101.6 193.377 103.473V106.984C193.377 108.623 192.674 109.325 191.502 109.325H189.627V101.132ZM171.109 121.499H174.859V101.132H179.079V121.499H182.829V97.8544H171.109V121.499ZM267.447 121.499H271.197V97.8544H267.447V121.499ZM204.863 97.6203C201.112 97.6203 199.237 99.7272 199.237 103.473V115.88C199.237 119.626 201.347 121.733 204.863 121.733C208.613 121.733 210.488 119.626 210.488 115.88V103.473C210.488 99.7272 208.379 97.6203 204.863 97.6203ZM206.738 116.114C206.738 117.753 206.035 118.455 204.863 118.455C203.691 118.455 202.987 117.753 202.987 116.114V103.239C202.987 101.6 203.691 100.898 204.863 100.898C206.035 100.898 206.738 101.6 206.738 103.239V116.114ZM263.931 136.013L262.525 141.163V126.181H259.243V149.825H262.993L266.041 139.056L267.447 133.204V149.825H270.729V126.181H266.744L263.931 136.013ZM208.847 125.947C205.097 125.947 203.222 128.053 203.222 131.799V144.206C203.222 147.952 205.331 150.059 208.847 150.059C212.598 150.059 214.473 147.952 214.473 144.206V131.799C214.473 128.053 212.598 125.947 208.847 125.947ZM210.723 144.441C210.723 146.079 210.019 146.782 208.847 146.782C207.675 146.782 206.972 146.079 206.972 144.441V131.565C206.972 129.926 207.675 129.224 208.847 129.224C210.019 129.224 210.723 129.926 210.723 131.565V144.441ZM195.487 126.181H189.861V149.825H193.611V140.929H195.487C199.237 140.929 201.112 138.822 201.112 135.077V132.033C200.878 128.288 199.237 126.181 195.487 126.181ZM197.127 135.311C197.127 136.949 196.424 137.652 195.252 137.652H193.377V129.692H195.252C196.424 129.692 197.127 130.16 197.127 132.033V135.311ZM222.677 125.947C218.926 125.947 217.051 128.053 217.051 131.799V144.206C217.051 147.952 218.926 150.059 222.677 150.059C226.427 150.059 228.302 147.952 228.302 144.206V141.163H224.786V144.441C224.786 146.079 224.083 146.782 222.911 146.782C221.739 146.782 221.036 146.079 221.036 144.441V131.565C221.036 129.926 221.739 129.224 222.911 129.224C224.083 129.224 224.786 129.926 224.786 131.565V134.14H228.302V131.799C228.302 128.053 226.427 125.947 222.677 125.947ZM236.272 125.947C232.522 125.947 230.646 128.053 230.646 131.799V144.206C230.646 147.952 232.522 150.059 236.272 150.059C240.022 150.059 241.898 147.952 241.898 144.206V141.163H238.382V144.441C238.382 146.079 237.678 146.782 236.506 146.782C235.334 146.782 234.631 146.079 234.631 144.441V131.565C234.631 129.926 235.334 129.224 236.506 129.224C237.678 129.224 238.382 129.926 238.382 131.565V134.14H241.898V131.799C241.898 128.053 240.022 125.947 236.272 125.947ZM249.164 136.013L247.758 141.163V126.181H244.476V149.825H248.226L251.273 139.056L252.914 133.204V149.825H256.196V126.181H252.211L249.164 136.013Z" fill="black"/>
<path d="M305.42 0H93.0555C92.1179 0 91.1803 0.702304 90.7115 1.63871L0.936774 248.85L0.233578 250.488C-0.469619 252.127 0.702376 254 2.34316 254C2.57756 254 2.81196 254 3.28076 253.766L277.293 154.039C278.23 153.805 278.933 152.868 278.933 151.698V97.8544L306.592 82.1696C307.296 81.7014 307.999 80.9991 307.999 80.0627V2.34101C307.999 1.17051 306.827 0 305.42 0ZM275.183 151.229L4.68715 249.552L90.4771 65.5484H275.183V151.229ZM306.124 80.0627C306.124 80.2968 305.889 80.5309 305.655 80.5309L278.933 95.9816V64.3779C278.933 62.9733 277.761 62.0369 276.589 62.0369H89.7739C88.8363 62.0369 87.8987 62.5051 87.6643 63.4415L9.37513 230.824L92.3523 2.10691C92.3523 1.87281 92.5867 1.63871 93.0555 1.63871H305.655C306.124 1.63871 306.358 1.87281 306.358 2.34101V80.0627H306.124Z" fill="black"/>
<path d="M134.076 36.988C134.076 38.6267 133.842 39.7972 133.373 40.9677C132.904 42.1382 131.967 43.0747 131.029 43.777C130.091 44.4793 128.919 44.7134 127.513 44.7134C126.341 44.7134 125.169 44.4793 123.997 43.777C123.059 43.0747 122.122 42.3723 121.653 41.2018C121.184 40.0313 120.715 38.6267 120.715 37.2221V36.2857C120.715 34.647 120.95 33.4765 121.653 32.306C122.122 31.1355 123.059 30.1991 123.997 29.4968C124.935 28.7945 126.107 28.5604 127.513 28.5604C128.919 28.5604 129.857 28.7945 131.029 29.4968C131.967 30.1991 132.904 30.9014 133.373 32.0719C133.842 33.2424 134.076 34.647 134.31 36.0516V36.988H134.076ZM131.263 36.0516C131.263 34.4129 131.029 33.0083 130.326 32.0719C129.623 31.1355 128.685 30.6673 127.513 30.6673C126.341 30.6673 125.403 31.1355 124.7 32.0719C123.997 33.0083 123.763 34.4129 123.763 36.0516V36.988C123.763 38.6267 123.997 40.0313 124.7 40.9677C125.403 41.9041 126.341 42.3723 127.513 42.3723C128.685 42.3723 129.623 41.9041 130.326 40.9677C131.029 40.0313 131.263 38.6267 131.263 36.988V36.0516Z" fill="black"/>
<path d="M146.732 30.9014H139.465V34.647H142.747C143.919 34.647 144.856 34.8811 145.794 35.3493C146.732 35.8175 147.2 36.2857 147.669 36.988C148.138 37.6903 148.372 38.6267 148.372 39.5631C148.372 40.9677 147.904 42.1382 146.966 43.0746C146.028 44.0111 144.622 44.4793 142.747 44.4793H136.652V28.5604H146.732V30.9014ZM139.465 36.988V42.3723H142.747C143.684 42.3723 144.388 42.1382 144.856 41.67C145.325 41.2018 145.56 40.4995 145.56 39.5631C145.56 38.8608 145.325 38.1585 144.856 37.6903C144.388 37.2221 143.684 36.988 142.747 36.988H139.465Z" fill="black"/>
<path d="M153.53 38.6267V44.4793H150.717V28.5604H156.812C158.687 28.5604 160.093 29.0286 161.031 29.965C161.969 30.9014 162.672 32.0719 162.672 33.7106C162.672 35.3493 162.203 36.5198 161.031 37.2221C160.093 38.1585 158.687 38.6267 156.812 38.6267H153.53ZM153.53 36.2857H156.812C157.749 36.2857 158.453 36.0516 159.156 35.5834C159.625 35.1152 159.859 34.4129 159.859 33.4765C159.859 32.5401 159.625 31.8378 159.156 31.3696C158.687 30.9014 157.984 30.6673 157.046 30.6673H153.765V36.2857H153.53Z" fill="black"/>
<path d="M172.751 40.7336H166.423L165.251 44.4793H162.438L168.533 28.5604H171.11L177.204 44.4793H174.393L172.751 40.7336ZM167.36 38.6267H172.048L169.704 32.0719L167.36 38.6267Z" fill="black"/>
<path d="M186.58 33.0083C186.58 32.306 186.346 31.8378 185.877 31.3696C185.408 30.9014 184.705 30.6673 183.768 30.6673C183.064 30.6673 182.361 30.9014 181.892 31.3696C181.424 31.8378 181.189 32.306 181.189 33.0083H178.142C178.142 32.0719 178.376 31.3696 178.845 30.6673C179.314 29.965 180.017 29.4968 180.72 29.0286C181.658 28.5604 182.596 28.5604 183.533 28.5604C185.408 28.5604 186.815 29.0286 187.752 29.7309C188.69 30.4332 189.159 31.6037 189.159 33.0083C189.159 33.7106 188.924 34.4129 188.456 34.8811C187.987 35.5834 187.518 36.0516 186.58 36.2857C187.518 36.5198 188.221 36.988 188.69 37.6903C189.159 38.3926 189.393 39.0949 189.393 40.0313C189.393 41.4359 188.924 42.6064 187.752 43.3088C186.58 44.2452 185.174 44.4793 183.299 44.4793C182.127 44.4793 181.189 44.2452 180.252 43.777C179.314 43.3088 178.611 42.8405 178.142 42.1382C177.673 41.4359 177.439 40.7336 177.439 39.7972H180.252C180.252 40.4995 180.486 40.9677 181.189 41.4359C181.658 41.9041 182.361 42.1382 183.299 42.1382C184.236 42.1382 184.94 41.9041 185.643 41.4359C186.346 40.9677 186.58 40.4995 186.58 39.5631C186.58 38.6267 186.346 37.9244 185.877 37.6903C185.408 37.2221 184.705 36.988 183.533 36.988H181.658V34.8811H183.533C185.643 35.3493 186.58 34.647 186.58 33.0083Z" fill="black"/>
<path d="M204.865 36.988C204.865 38.6267 204.63 39.7972 204.161 40.9677C203.693 42.1382 202.755 43.0747 201.817 43.777C200.88 44.4793 199.708 44.7134 198.301 44.7134C197.129 44.7134 195.957 44.4793 194.785 43.777C193.848 43.0747 192.91 42.3723 192.441 41.2018C191.973 40.0313 191.504 38.6267 191.504 37.2221V36.2857C191.504 34.647 191.738 33.4765 192.441 32.306C192.91 31.1355 193.848 30.1991 194.785 29.4968C195.723 28.7945 196.895 28.5604 198.301 28.5604C199.708 28.5604 200.645 28.7945 201.817 29.4968C202.755 30.1991 203.693 30.9014 204.161 32.0719C204.63 33.2424 204.865 34.647 205.099 36.0516V36.988H204.865ZM202.052 36.0516C202.052 34.4129 201.817 33.0083 201.114 32.0719C200.411 31.1355 199.473 30.6673 198.301 30.6673C197.129 30.6673 196.192 31.1355 195.489 32.0719C194.785 33.0083 194.551 34.4129 194.551 36.0516V36.988C194.551 38.6267 194.785 40.0313 195.489 40.9677C196.192 41.9041 197.129 42.3723 198.301 42.3723C199.473 42.3723 200.411 41.9041 201.114 40.9677C201.817 40.0313 202.052 38.6267 202.052 36.988V36.0516Z" fill="black"/>
<path d="M207.676 44.4793V28.5604H213.067C214.943 28.5604 216.115 29.0286 217.052 29.7309C217.99 30.4332 218.459 31.6037 218.459 33.0083C218.459 33.7106 218.224 34.4129 217.755 34.8811C217.287 35.3493 216.818 35.8175 216.115 36.2857C217.052 36.5198 217.521 36.988 217.99 37.6903C218.459 38.3926 218.693 39.0949 218.693 40.0313C218.693 41.4359 218.224 42.6064 217.287 43.5429C216.349 44.2452 214.943 44.7134 213.302 44.7134H207.676V44.4793ZM210.255 35.3493H213.067C214.005 35.3493 214.474 35.1152 215.177 34.8811C215.646 34.4129 215.88 33.9447 215.88 33.2424C215.88 32.5401 215.646 31.8378 215.177 31.6037C214.708 31.3696 214.005 31.1355 213.067 31.1355H210.489V35.3493H210.255ZM210.255 37.4562V42.3723H213.302C214.239 42.3723 214.943 42.1382 215.411 41.67C215.88 41.2018 216.115 40.7336 216.115 39.7972C216.115 38.1585 215.177 37.2221 213.536 37.2221H210.255V37.4562Z" fill="black"/>
<path d="M230.413 40.7336H224.319L223.147 44.4793H220.334L226.428 28.5604H229.007L235.101 44.4793H232.288L230.413 40.7336ZM225.022 38.6267H229.71L227.366 32.0719L225.022 38.6267Z" fill="black"/>
<path d="M249.166 44.4793H246.353V37.4562H239.321V44.4793H236.508V28.5604H239.321V35.1152H246.353V28.5604H249.166V44.4793Z" fill="black"/>
<path d="M262.058 28.5604H264.871V44.4793H262.058V33.2424L255.026 44.4793H252.213V28.5604H255.026V39.7972L262.058 28.5604Z" fill="black"/>
<path d="M277.294 37.4562H270.731V42.3723H278.231V44.4793H267.918V28.5604H278.231V30.6673H270.731V35.1152H277.294V37.4562Z" fill="black"/>
</g>
</g>
<defs>
<clipPath id="clip0_5798_3480">
<rect width="308" height="254" fill="white"/>
</clipPath>
</defs>
</svg>
