<svg width="477" height="116" viewBox="0 0 477 116" fill="none" xmlns="http://www.w3.org/2000/svg">
<g clip-path="url(#clip0_5798_3498)">
<path d="M12.446 15.2658H10.0437V9.09084H3.83764V15.2658H1.42578V1.36963H3.83764V7.15338H10.0437V1.36963H12.446V15.2658Z" fill="black"/>
<path d="M21.244 15.2658C21.1423 15.0686 21.0534 14.7473 20.9771 14.3019C20.2399 15.0718 19.3374 15.4567 18.2697 15.4567C17.2338 15.4567 16.3885 15.1609 15.7339 14.5691C15.0793 13.9774 14.752 13.2457 14.752 12.374C14.752 11.2732 15.1588 10.4301 15.9722 9.84474C16.7921 9.25301 17.9615 8.95714 19.4804 8.95714H20.9008V8.2795C20.9008 7.74503 20.7515 7.31873 20.4528 7.00059C20.1541 6.67609 19.6997 6.51384 19.0895 6.51384C18.5621 6.51384 18.1299 6.64746 17.7931 6.91469C17.4562 7.17557 17.2878 7.50961 17.2878 7.91683H14.9713C14.9713 7.35054 15.1588 6.82243 15.5337 6.3325C15.9087 5.83621 16.4171 5.44808 17.059 5.16812C17.7073 4.88816 18.4286 4.74817 19.223 4.74817C20.4305 4.74817 21.3934 5.05359 22.1115 5.66441C22.8297 6.26887 23.1983 7.12148 23.2174 8.22224V12.8798C23.2174 13.8088 23.3476 14.55 23.6082 15.1036V15.2658H21.244ZM18.6987 13.5956C19.1563 13.5956 19.5853 13.4843 19.9857 13.2616C20.3924 13.0389 20.6975 12.7398 20.9008 12.3644V10.4174H19.652C18.794 10.4174 18.149 10.5669 17.7168 10.866C17.2846 11.165 17.0685 11.5882 17.0685 12.1354C17.0685 12.5808 17.2147 12.9371 17.5071 13.2043C17.8058 13.4652 18.203 13.5956 18.6987 13.5956Z" fill="black"/>
<path d="M25.7344 4.93909H28.0509V13.4143H32.0739V4.93909H34.3904V13.4143H35.7917L35.6011 18.3295H33.4943V15.2658H25.7344V4.93909Z" fill="black"/>
<path d="M43.8666 4.93909H46.1736V15.2658H43.8666V8.37498L39.8246 15.2658H37.5176V4.93909H39.8246V11.83L43.8666 4.93909Z" fill="black"/>
<path d="M48.2031 10.007C48.2031 8.99532 48.4033 8.08544 48.8036 7.27737C49.204 6.46294 49.7665 5.83939 50.491 5.40672C51.2155 4.96769 52.0481 4.74817 52.9887 4.74817C54.3805 4.74817 55.5085 5.19675 56.3729 6.0939C57.2436 6.99105 57.7139 8.18088 57.7838 9.6634L57.7933 10.2074C57.7933 11.2255 57.5963 12.1354 57.2023 12.9371C56.8146 13.7388 56.2553 14.3591 55.5244 14.7982C54.7999 15.2372 53.961 15.4567 53.0077 15.4567C51.5523 15.4567 50.3861 14.9732 49.5091 14.006C48.6384 13.0325 48.2031 11.7377 48.2031 10.1216V10.007ZM50.5196 10.2074C50.5196 11.27 50.7389 12.1036 51.1774 12.708C51.6159 13.3061 52.226 13.6052 53.0077 13.6052C53.7894 13.6052 54.3964 13.2998 54.8285 12.6889C55.267 12.0781 55.4863 11.1841 55.4863 10.007C55.4863 8.9635 55.2607 8.13634 54.8095 7.52552C54.3646 6.91469 53.7576 6.60928 52.9887 6.60928C52.2324 6.60928 51.6318 6.91151 51.1869 7.51597C50.742 8.11407 50.5196 9.01122 50.5196 10.2074Z" fill="black"/>
<path d="M68.4902 15.2658H66.1737V11.0951H62.1603V15.2658H59.8438V4.93909H62.1603V9.24349H66.1737V4.93909H68.4902V15.2658Z" fill="black"/>
<path d="M77.1268 15.2658C77.0251 15.0686 76.9362 14.7473 76.8599 14.3019C76.1227 15.0718 75.2202 15.4567 74.1525 15.4567C73.1166 15.4567 72.2713 15.1609 71.6167 14.5691C70.9621 13.9774 70.6348 13.2457 70.6348 12.374C70.6348 11.2732 71.0416 10.4301 71.855 9.84474C72.6749 9.25301 73.8443 8.95714 75.3632 8.95714H76.7836V8.2795C76.7836 7.74503 76.6343 7.31873 76.3356 7.00059C76.0369 6.67609 75.5825 6.51384 74.9723 6.51384C74.4448 6.51384 74.0127 6.64746 73.6759 6.91469C73.339 7.17557 73.1706 7.50961 73.1706 7.91683H70.8541C70.8541 7.35054 71.0416 6.82243 71.4165 6.3325C71.7915 5.83621 72.2999 5.44808 72.9418 5.16812C73.5901 4.88816 74.3114 4.74817 75.1058 4.74817C76.3133 4.74817 77.2762 5.05359 77.9943 5.66441C78.7125 6.26887 79.0811 7.12148 79.1002 8.22224V12.8798C79.1002 13.8088 79.2304 14.55 79.491 15.1036V15.2658H77.1268ZM74.5815 13.5956C75.0391 13.5956 75.4681 13.4843 75.8685 13.2616C76.2752 13.0389 76.5803 12.7398 76.7836 12.3644V10.4174H75.5348C74.6768 10.4174 74.0318 10.5669 73.5996 10.866C73.1674 11.165 72.9513 11.5882 72.9513 12.1354C72.9513 12.5808 73.0975 12.9371 73.3899 13.2043C73.6886 13.4652 74.0858 13.5956 74.5815 13.5956Z" fill="black"/>
<path d="M90.2922 4.93909V15.2658H87.9757V6.80974H85.0586L84.8679 10.4079C84.7472 12.1385 84.4135 13.3825 83.867 14.1396C83.3268 14.8904 82.4974 15.2658 81.3789 15.2658H80.6639L80.6543 13.3379L81.131 13.2902C81.6394 13.2202 82.008 12.9116 82.2368 12.3644C82.472 11.8109 82.6213 10.8055 82.6849 9.34848L82.8755 4.93909H90.2922Z" fill="black"/>
<path d="M95.2481 8.22227H97.517C98.3623 8.22227 99.0995 8.36861 99.7287 8.6613C100.358 8.95399 100.834 9.36438 101.159 9.89249C101.489 10.4206 101.654 11.0346 101.654 11.7345C101.654 12.7971 101.279 13.6497 100.529 14.2923C99.7795 14.935 98.7817 15.2595 97.5361 15.2658H92.9316V4.93909H95.2481V8.22227ZM95.2481 10.0834V13.4143H97.5075C98.0731 13.4143 98.518 13.2743 98.8421 12.9943C99.1726 12.708 99.3378 12.304 99.3378 11.7822C99.3378 11.2605 99.1758 10.8501 98.8516 10.551C98.5339 10.2456 98.1017 10.0897 97.5551 10.0834H95.2481Z" fill="black"/>
<path d="M112.246 15.2658H109.93V11.0951H105.916V15.2658H103.6V4.93909H105.916V9.24349H109.93V4.93909H112.246V15.2658Z" fill="black"/>
<path d="M117.212 8.22227H119.481C120.326 8.22227 121.064 8.36861 121.693 8.6613C122.322 8.95399 122.799 9.36438 123.123 9.89249C123.453 10.4206 123.618 11.0346 123.618 11.7345C123.618 12.7971 123.243 13.6497 122.493 14.2923C121.744 14.935 120.746 15.2595 119.5 15.2658H114.896V4.93909H117.212V8.22227ZM127.651 15.2658H125.334V4.93909H127.651V15.2658ZM117.212 10.0834V13.4143H119.471C120.037 13.4143 120.482 13.2743 120.806 12.9943C121.137 12.708 121.302 12.304 121.302 11.7822C121.302 11.2605 121.14 10.8501 120.816 10.551C120.498 10.2456 120.066 10.0897 119.519 10.0834H117.212Z" fill="black"/>
<path d="M136.87 4.93909H139.177V15.2658H136.87V8.37498L132.828 15.2658H130.521V4.93909H132.828V11.83L136.87 4.93909ZM137.957 0.978271C137.957 1.77998 137.677 2.42898 137.118 2.92528C136.559 3.42157 135.812 3.66972 134.878 3.66972C133.944 3.66972 133.197 3.42157 132.638 2.92528C132.078 2.42898 131.799 1.77998 131.799 0.978271H133.534C133.534 1.39821 133.651 1.7259 133.886 1.96132C134.128 2.19038 134.458 2.30491 134.878 2.30491C135.297 2.30491 135.625 2.19038 135.86 1.96132C136.095 1.7259 136.213 1.39821 136.213 0.978271H137.957Z" fill="black"/>
<path d="M155.25 15.2658H152.933V6.80974H148.911V15.2658H146.594V4.93909H155.25V15.2658Z" fill="black"/>
<path d="M166.748 10.2074C166.748 11.8045 166.386 13.0802 165.661 14.0346C164.937 14.9827 163.964 15.4567 162.744 15.4567C161.613 15.4567 160.707 15.0845 160.027 14.3401V19.2362H157.711V4.93906H159.846L159.941 5.98891C160.621 5.16175 161.546 4.74817 162.715 4.74817C163.974 4.74817 164.959 5.21902 165.671 6.16071C166.389 7.09603 166.748 8.39722 166.748 10.0643V10.2074ZM164.441 10.007C164.441 8.97623 164.234 8.15861 163.821 7.55415C163.414 6.94969 162.83 6.64746 162.067 6.64746C161.12 6.64746 160.44 7.03877 160.027 7.82139V12.4026C160.447 13.2043 161.133 13.6052 162.086 13.6052C162.823 13.6052 163.399 13.3093 163.812 12.7176C164.231 12.1195 164.441 11.2159 164.441 10.007Z" fill="black"/>
<path d="M168.281 10.007C168.281 8.99532 168.481 8.08544 168.881 7.27737C169.282 6.46294 169.844 5.83939 170.569 5.40672C171.293 4.96769 172.126 4.74817 173.066 4.74817C174.458 4.74817 175.586 5.19675 176.45 6.0939C177.321 6.99105 177.791 8.18088 177.861 9.6634L177.871 10.2074C177.871 11.2255 177.674 12.1354 177.28 12.9371C176.892 13.7388 176.333 14.3591 175.602 14.7982C174.878 15.2372 174.039 15.4567 173.085 15.4567C171.63 15.4567 170.464 14.9732 169.587 14.006C168.716 13.0325 168.281 11.7377 168.281 10.1216V10.007ZM170.597 10.2074C170.597 11.27 170.816 12.1036 171.255 12.708C171.694 13.3061 172.304 13.6052 173.085 13.6052C173.867 13.6052 174.474 13.2998 174.906 12.6889C175.345 12.0781 175.564 11.1841 175.564 10.007C175.564 8.9635 175.338 8.13634 174.887 7.52552C174.442 6.91469 173.835 6.60928 173.066 6.60928C172.31 6.60928 171.709 6.91151 171.265 7.51597C170.82 8.11407 170.597 9.01122 170.597 10.2074Z" fill="black"/>
<path d="M184.374 15.4567C182.906 15.4567 181.715 14.9954 180.8 14.0728C179.891 13.1439 179.436 11.9095 179.436 10.3697V10.0834C179.436 9.05258 179.633 8.13316 180.027 7.32509C180.428 6.51066 180.987 5.87756 181.705 5.42581C182.423 4.97405 183.224 4.74817 184.108 4.74817C185.512 4.74817 186.596 5.19675 187.358 6.0939C188.127 6.99105 188.512 8.26042 188.512 9.90201V10.8374H181.772C181.842 11.69 182.125 12.3644 182.62 12.8607C183.122 13.357 183.752 13.6052 184.508 13.6052C185.569 13.6052 186.434 13.1757 187.101 12.3167L188.35 13.5097C187.937 14.1269 187.384 14.6073 186.691 14.9509C186.005 15.2881 185.232 15.4567 184.374 15.4567ZM184.098 6.60928C183.462 6.60928 182.948 6.83198 182.554 7.27737C182.166 7.72276 181.918 8.34313 181.81 9.13848H186.224V8.96668C186.173 8.19043 185.966 7.60505 185.604 7.21056C185.242 6.80971 184.74 6.60928 184.098 6.60928Z" fill="black"/>
<path d="M193.983 11.181H192.81V15.2658H190.494V4.93909H192.81V9.06215H193.83L196.681 4.93909H199.541L195.813 9.88295L199.855 15.2658H196.843L193.983 11.181Z" fill="black"/>
<path d="M209.245 6.78111H205.899V15.2658H203.583V6.78111H200.275V4.93909H209.245V6.78111Z" fill="black"/>
<path d="M12.3902 56.2401C12.3902 50.7829 14.7886 48.7092 18.6041 48.7092C22.4197 48.7092 24.8181 50.7829 24.8181 56.2401V97.4962C24.8181 102.953 22.4197 105.027 18.6041 105.027C14.7886 105.027 12.3902 102.953 12.3902 97.4962V56.2401ZM0.398438 96.7322C0.398438 108.956 6.8304 115.941 18.6041 115.941C30.3779 115.941 36.8099 108.956 36.8099 96.7322V57.0041C36.8099 44.7801 30.3779 37.7949 18.6041 37.7949C6.8304 37.7949 0.398438 44.7801 0.398438 57.0041V96.7322Z" fill="black"/>
<path d="M63.6798 115.068C75.6716 115.068 81.7765 108.411 81.7765 96.1865V88.0007C81.7765 75.7767 75.6716 69.119 63.6798 69.119H56.7027V49.5824H78.288V38.668H44.7109V115.068H63.6798ZM56.7027 104.154V80.0333H63.6798C67.4954 80.0333 69.7847 81.7796 69.7847 87.2367V96.9505C69.7847 102.408 67.4954 104.154 63.6798 104.154H56.7027Z" fill="black"/>
<path d="M107.51 38.668H89.8496V115.068H101.842V86.3636H107.51C119.502 86.3636 125.389 79.7059 125.389 67.4818V57.5498C125.389 45.3258 119.502 38.668 107.51 38.668ZM107.51 49.5824C111.326 49.5824 113.397 51.3286 113.397 56.7858V68.2458C113.397 73.703 111.326 75.4493 107.51 75.4493H101.842V49.5824H107.51Z" fill="black"/>
<path d="M157.543 38.668H139.991L127.781 115.068H138.792L140.863 101.207H155.581L157.652 115.068H169.753L157.543 38.668ZM148.167 52.2018L153.945 90.8385H142.39L148.167 52.2018Z" fill="black"/>
<path d="M198.45 61.6972C198.45 67.8093 195.724 69.7738 191.255 69.7738H187.657V80.6882H190.6C196.051 80.6882 198.45 83.3076 198.45 90.4019V96.4048C198.45 103.172 196.051 105.027 192.236 105.027C188.42 105.027 186.022 102.953 186.022 97.4962V88.3282H174.684V96.7322C174.684 108.956 180.789 115.941 192.563 115.941C204.337 115.941 210.441 108.956 210.441 96.7322V90.7293C210.441 82.9802 208.043 77.3047 202.047 74.6853C207.825 72.2841 210.441 67.1544 210.441 58.9687V57.0041C210.441 44.7801 204.337 37.7949 192.563 37.7949C180.789 37.7949 174.902 44.5618 174.902 56.7858V62.4613H185.913V56.2401C185.913 50.7829 188.42 48.7092 192.236 48.7092C196.051 48.7092 198.45 50.5646 198.45 57.4407V61.6972Z" fill="black"/>
<path d="M229.57 56.2401C229.57 50.7829 231.968 48.7092 235.784 48.7092C239.6 48.7092 241.998 50.7829 241.998 56.2401V97.4962C241.998 102.953 239.6 105.027 235.784 105.027C231.968 105.027 229.57 102.953 229.57 97.4962V56.2401ZM217.578 96.7322C217.578 108.956 224.01 115.941 235.784 115.941C247.558 115.941 253.99 108.956 253.99 96.7322V57.0041C253.99 44.7801 247.558 37.7949 235.784 37.7949C224.01 37.7949 217.578 44.7801 217.578 57.0041V96.7322Z" fill="black"/>
<path d="M279.879 38.668H261.783V115.068H280.643C292.634 115.068 298.848 108.738 298.848 96.9505V90.7293C298.848 82.6527 296.341 76.8681 289.909 74.3578C295.251 71.8476 297.649 66.827 297.649 58.9687V56.2401C297.649 44.4526 292.307 38.668 279.879 38.668ZM279.116 80.6882C284.567 80.6882 286.856 82.871 286.856 89.9653V96.6231C286.856 102.299 284.676 104.154 280.643 104.154H273.774V80.6882H279.116ZM279.552 49.5824C283.804 49.5824 285.657 51.9835 285.657 57.4407V61.6972C285.657 67.8093 282.932 69.7738 278.462 69.7738H273.774V49.5824H279.552Z" fill="black"/>
<path d="M332.672 38.668H315.12L302.91 115.068H313.921L315.992 101.207H330.709L332.781 115.068H344.881L332.672 38.668ZM323.296 52.2018L329.074 90.8385H317.518L323.296 52.2018Z" fill="black"/>
<path d="M362.459 82.3253H376.086V115.068H388.296V38.668H376.086V71.411H362.459V38.668H350.467V115.068H362.459V82.3253Z" fill="black"/>
<path d="M419.338 80.0333L424.244 61.2607V115.068H435.036V38.668H421.845L412.034 70.2104L407.673 87.0185V38.668H396.99V115.068H409.308L419.338 80.0333Z" fill="black"/>
<path d="M455.506 49.5824H476.219V38.668H443.514V115.068H476.219V104.154H455.506V81.7796H471.967V70.8653H455.506V49.5824Z" fill="black"/>
</g>
<defs>
<clipPath id="clip0_5798_3498">
<rect width="477" height="116" fill="white"/>
</clipPath>
</defs>
</svg>
