<svg width="40" height="41" viewBox="0 0 40 41" fill="none" xmlns="http://www.w3.org/2000/svg">
<g clip-path="url(#clip0_5804_2826)">
<path d="M20 0.748047C9 0.748047 0 9.74805 0 20.748C0 31.748 9 40.748 20 40.748C31 40.748 40 31.748 40 20.748C40 9.74805 31 0.748047 20 0.748047ZM29.8 12.948L26.4 29.348C26.2 30.548 25.4 30.748 24.6 30.148L19.4 26.148C18.2 27.348 17 28.348 16.8 28.748C16.4 28.948 16.2 29.348 15.8 29.348C15.2 29.348 15.2 28.948 15 28.548L13.2 22.548L7.8 20.748C6.6 20.348 6.6 19.548 8 18.948L28.4 11.148C29.2 10.948 30.2 11.348 29.8 12.948ZM25 14.748L13.6 21.948L15.4 27.948L15.8 23.948L25.6 15.148C26.2 14.548 25.8 14.548 25 14.748Z" fill="black"/>
</g>
<defs>
<clipPath id="clip0_5804_2826">
<rect width="40" height="41" fill="white"/>
</clipPath>
</defs>
</svg>
