<svg width="31" height="31" viewBox="0 0 31 31" fill="none" xmlns="http://www.w3.org/2000/svg">
<path d="M13.4955 7.96825C14.1525 7.81445 14.8252 7.73757 15.5 7.73916C22.1818 7.73916 26 15.3755 26 15.3755C25.4206 16.4595 24.7296 17.48 23.9382 18.4205M17.5236 17.3992C17.2615 17.6805 16.9453 17.9062 16.5941 18.0627C16.2428 18.2192 15.8636 18.3034 15.4791 18.3101C15.0946 18.3169 14.7127 18.2462 14.3561 18.1022C13.9995 17.9582 13.6756 17.7438 13.4037 17.4719C13.1317 17.1999 12.9174 16.876 12.7733 16.5194C12.6293 16.1629 12.5586 15.7809 12.5654 15.3964C12.5722 15.0119 12.6563 14.6327 12.8128 14.2815C12.9694 13.9302 13.195 13.6141 13.4764 13.3519M21.17 21.0455C19.5383 22.2893 17.5514 22.9784 15.5 23.0119C8.81818 23.0119 5 15.3755 5 15.3755C6.18735 13.1628 7.83417 11.2296 9.83 9.70552L21.17 21.0455Z" stroke="black" stroke-width="2" stroke-linecap="round" stroke-linejoin="round"/>
<path d="M5 5L26 26" stroke="black" stroke-width="2" stroke-linecap="round" stroke-linejoin="round"/>
</svg>
