<svg width="30" height="30" viewBox="0 0 30 30" fill="none" xmlns="http://www.w3.org/2000/svg">
<path d="M7.12856 5C6.84591 5.02092 6.58021 5.14214 6.37979 5.34159C6.17938 5.54104 6.05758 5.80546 6.03656 6.08675C6.03925 6.22686 6.07333 6.3646 6.1363 6.48993C6.19927 6.61527 6.28955 6.72505 6.40056 6.81125L14.0445 14.4185L6.40056 22.0258C6.29301 22.109 6.20298 22.2126 6.13563 22.3304C6.06828 22.4483 6.02491 22.5782 6.00801 22.7128C5.99111 22.8473 6.00101 22.9839 6.03713 23.1146C6.07326 23.2454 6.13491 23.3678 6.21856 23.4748C6.30221 23.5818 6.40623 23.6714 6.52467 23.7384C6.64311 23.8055 6.77366 23.8486 6.90886 23.8655C7.04407 23.8823 7.18127 23.8724 7.31265 23.8365C7.44403 23.8005 7.567 23.7392 7.67456 23.6559L7.85656 23.4748L15.5005 15.8675L23.1445 23.4748C23.2349 23.5901 23.3489 23.6851 23.4789 23.7533C23.609 23.8215 23.7521 23.8614 23.8988 23.8704C24.0455 23.8794 24.1924 23.8573 24.3299 23.8055C24.4674 23.7537 24.5922 23.6734 24.6962 23.57C24.8001 23.4665 24.8808 23.3423 24.9328 23.2055C24.9848 23.0687 25.0071 22.9224 24.998 22.7764C24.989 22.6304 24.9489 22.488 24.8803 22.3586C24.8118 22.2292 24.7164 22.1157 24.6005 22.0258L16.9565 14.4185L24.6005 6.81125C24.7759 6.61026 24.8725 6.35298 24.8725 6.08675C24.8725 5.82052 24.7759 5.56325 24.6005 5.36225C24.3998 5.17157 24.1462 5.04536 23.8725 5C23.5988 5.04536 23.3452 5.17157 23.1445 5.36225L15.5005 12.9695L7.85656 5.36225C7.65589 5.17157 7.40224 5.04536 7.12856 5Z" fill="#444444"/>
</svg>
