<svg width="31" height="31" viewBox="0 0 31 31" fill="none" xmlns="http://www.w3.org/2000/svg">
<path d="M13.4955 6.96837C14.1525 6.81457 14.8252 6.73769 15.5 6.73928C22.1818 6.73928 26 14.3756 26 14.3756C25.4206 15.4596 24.7296 16.4801 23.9382 17.4206M17.5236 16.3993C17.2615 16.6806 16.9453 16.9063 16.5941 17.0628C16.2428 17.2193 15.8636 17.3035 15.4791 17.3102C15.0946 17.317 14.7127 17.2463 14.3561 17.1023C13.9995 16.9583 13.6756 16.7439 13.4037 16.472C13.1317 16.2 12.9174 15.8761 12.7733 15.5195C12.6293 15.163 12.5586 14.781 12.5654 14.3965C12.5722 14.012 12.6563 13.6328 12.8128 13.2816C12.9694 12.9303 13.195 12.6142 13.4764 12.352M21.17 20.0456C19.5383 21.2894 17.5514 21.9785 15.5 22.012C8.81818 22.012 5 14.3756 5 14.3756C6.18735 12.1629 7.83417 10.2297 9.83 8.70564L21.17 20.0456Z" stroke="#444444" stroke-width="2" stroke-linecap="round" stroke-linejoin="round"/>
<path d="M5 4L26 25" stroke="#444444" stroke-width="2" stroke-linecap="round" stroke-linejoin="round"/>
</svg>
