<svg width="31" height="31" viewBox="0 0 31 31" fill="none" xmlns="http://www.w3.org/2000/svg">
<path d="M13.4955 6.96825C14.1525 6.81445 14.8252 6.73757 15.5 6.73916C22.1818 6.73916 26 14.3755 26 14.3755C25.4206 15.4595 24.7296 16.48 23.9382 17.4205M17.5236 16.3992C17.2615 16.6805 16.9453 16.9062 16.5941 17.0627C16.2428 17.2192 15.8636 17.3034 15.4791 17.3101C15.0946 17.3169 14.7127 17.2462 14.3561 17.1022C13.9995 16.9582 13.6756 16.7438 13.4037 16.4719C13.1317 16.1999 12.9174 15.876 12.7733 15.5194C12.6293 15.1629 12.5586 14.7809 12.5654 14.3964C12.5722 14.0119 12.6563 13.6327 12.8128 13.2815C12.9694 12.9302 13.195 12.6141 13.4764 12.3519M21.17 20.0455C19.5383 21.2893 17.5514 21.9784 15.5 22.0119C8.81818 22.0119 5 14.3755 5 14.3755C6.18735 12.1628 7.83417 10.2296 9.83 8.70552L21.17 20.0455Z" stroke="black" stroke-width="2" stroke-linecap="round" stroke-linejoin="round"/>
<path d="M5 4L26 25" stroke="black" stroke-width="2" stroke-linecap="round" stroke-linejoin="round"/>
</svg>
