<svg width="40" height="40" viewBox="0 0 40 40" fill="none" xmlns="http://www.w3.org/2000/svg">
<path d="M30.5456 21.7576C31.2122 20.8485 31.5456 19.4242 31.5456 17.4848V16C31.5456 14.8485 31.4244 13.9697 31.2122 13.2727C31.0001 12.5758 30.6365 11.9697 30.1213 11.4545C29.5759 10.9394 28.9698 10.5758 28.2728 10.3333C27.5456 10.1212 26.6365 10 25.5456 10H7.87891V30H12.8789V23.4848H22.1213L26.5153 30H32.1213L27.3031 23.4545C29.0607 23.2121 29.8789 22.6667 30.5456 21.7576ZM26.5153 17.5758C26.5153 18.1818 26.3638 18.5758 26.1213 18.7879C25.8789 19 25.3941 19.0909 24.6971 19.0909H12.8789V14.4242H24.6971C25.3941 14.4242 25.8789 14.5455 26.1213 14.7576C26.3638 14.9697 26.5153 15.3636 26.5153 15.9394V17.5758Z" fill="black"/>
<path d="M38 3.81818C37.8788 3.66667 37.7576 3.51515 37.6364 3.36364C37.4848 3.18182 37.3333 3 37.1515 2.84848C37.0303 2.72727 36.9394 2.63636 36.8182 2.51515C36.6667 2.39394 36.5152 2.24242 36.3636 2.12121C36.2424 2.0303 36.1212 1.93939 36 1.84848C34.4242 0.69697 32.4242 0 30.303 0H20H9.69697C4.33333 0 0 4.33333 0 9.69697V30.303C0 35.6667 4.33333 40 9.69697 40H30.303C35.6667 40 40 35.6667 40 30.303V20V9.69697C40 7.48485 39.2727 5.45455 38 3.81818ZM39.3939 30.303C39.3939 32.8182 38.3636 35.0909 36.7273 36.7273C35.0909 38.3636 32.8182 39.3939 30.303 39.3939H9.69697C7.18182 39.3939 4.90909 38.3636 3.27273 36.7273C1.63636 35.0909 0.606061 32.8182 0.606061 30.303V9.69697C0.606061 7.18182 1.63636 4.90909 3.27273 3.27273C4.90909 1.63636 7.18182 0.606061 9.69697 0.606061H20.0303C20.1212 3.18182 20.6667 5.63636 21.6364 7.87879H23.4242H25.5455C26.7879 7.87879 27.9091 8 28.8788 8.30303H28.9091H28.9394C29.9394 8.63636 30.8182 9.15152 31.5758 9.87879L31.6061 9.90909L31.6364 9.93939C32.3636 10.697 32.8788 11.5758 33.2121 12.6061C33.5152 13.5455 33.6364 14.6667 33.6364 15.9394V17.4242C33.6364 17.9091 33.6061 18.3939 33.5758 18.8788C35.3939 19.4848 37.3636 19.8485 39.3939 19.9091V30.303Z" fill="black"/>
</svg>
