<svg width="1441" height="809" viewBox="0 0 1441 809" fill="none" xmlns="http://www.w3.org/2000/svg">
<path d="M997.7 566.3L995.9 561.3L993.1 561V557.8L990.1 554.5L987.7 552.1H984.1V555.5L981 558.6L976.1 557.9V554.7L974 552.9V548.9L969.7 548.3L964.7 545.9L960 546.5L955.3 545.8L952.6 549L951.3 553.4L948.2 556.5L949.5 560.8L947.8 565.8L943.6 570V577.8L937.7 581.8V586.4L935.2 582.9V579L932.3 576.1L929.5 577.4L928.8 581L921.4 583.8H917.9L916.5 588L914.3 591.4L909.5 591.7L904.1 586.3L903.5 575.1L904.2 568.4V562.1L905 556.5V551.1L901.1 549.4L898.3 548.4L897.9 545.7L896.6 542.7L894 540.1V537.1L895.7 535.3L896.2 531.2L893.8 528.8H890.6L887.1 527.1V523.9L888.5 522.5L887 521L885.7 516.1L882.9 511.1L879.6 508.7L875.8 509.8L872.2 510.1V505.8L875.2 505V502.1L872.1 499L870.9 501.5L869 503.4L866.4 502.8L863.5 505.8L860.5 506.9L858.7 510.9V515L860.3 519.4L859 523.1V526.3L862.9 530.2L865.3 532.6L864.2 535.8L862.6 538.5L865.4 541.4L862.7 544.1L860.7 545.6V551.5L858.4 553L857.5 557L853.6 558.6L854.6 564L852.9 565.7L852.2 570.6L853.2 575.1L855.4 576.1L859.1 579.8L860.6 578.3L864.2 579.6V583.5L865.4 586.8L862.9 586.5L861.2 589.5L859.8 592.1L860.6 594.2H864.2L865.9 597.8L867.1 601L865.1 603L863 606.3V609.2L861.9 611.7H858.6L855.9 609H852.1L850.6 606.4L847.1 604.8L846.3 602.5L843.4 601.8L839.5 604.3L838.5 608.7L840.5 613.3L837.5 617.8L832.7 622.6L829.4 627.3L828.2 632.1L826.5 636.2L829.6 639.3L826.6 641.5L822.3 638.6L820.1 633.5L816.4 629.8L813 631.6L811.5 636.4L805.9 638.4L801.5 637.6L796.8 638.7L796.7 645.4L794.1 648V654.3L797.2 657.4L799.4 662.5V665.4L796 667.2L794.3 671.3H791.1L790.2 675.5L788.7 679.1L791.1 682.7L791.2 686.3L789.4 687.6V692.8L790.3 695.7L788.8 698.5L789.3 702.1L782.8 702.5V705.3L780 704.8L779 707.6L783.2 710.3L789.6 716.7L792.6 718.5H796.6L799.9 721L804.9 721.7L809.1 725.7L811.9 727H816.8L818.8 725L823 729.2L832.5 719.7L836.1 722.1L835 724.7L839.2 726.7L841.7 729.1L847.2 730.8L849.7 733.3L852.6 734.8L855.8 738L863 736.5L869 742.2H872.5V745.4L875 749.4H881.4L882.6 753.4L887.6 750.6H891.3V744.1L896.5 738.9L902.5 731.7L905.5 724L913.5 716L922.5 705.2L923.8 689.3L927 678.7L922.1 677.2L917.4 655.2L919.1 652L921.4 649.7L917.5 647L913.8 645.8L912.5 639.8L919.5 634.6H923V630.1L926.3 628.6L931.2 630.3L936.2 628.5V624.1L939.7 621.6L941.5 623.6H947.2L950.5 621.2L952.6 623.3L959.6 624.7L962.5 621.8L965.5 623.5L969.9 619H973.3V610.2L977.3 608.2L979.8 603L984 604L986 606L981.1 610.5L985.1 610.8L988.4 609L993.4 610.3L995.4 606.4L998.9 604.2L999.7 599.8L998.4 598.4V595.6L994.8 597.1L988.4 590.6L990.2 586L988.2 584L989.9 580.1L988.3 578.5L992.2 574.6L995.8 574.8L997.9 576.9H1000.7L1003.4 574.8L1004.2 572.4L997.7 566.3Z" fill="#0159FF"/>
</svg>
