<svg width="209" height="20" viewBox="0 0 209 20" fill="none" xmlns="http://www.w3.org/2000/svg">
<g clip-path="url(#clip0_5798_3575)">
<path d="M11.446 15.2659H9.04365V9.09083H2.83764V15.2659H0.425781V1.36963H2.83764V7.15337H9.04365V1.36963H11.446V15.2659Z" fill="black"/>
<path d="M20.244 15.266C20.1423 15.0687 20.0533 14.7474 19.977 14.302C19.2398 15.0719 18.3373 15.4568 17.2696 15.4568C16.2337 15.4568 15.3885 15.161 14.7339 14.5692C14.0793 13.9775 13.752 13.2458 13.752 12.3741C13.752 11.2733 14.1587 10.4303 14.9722 9.84486C15.792 9.25312 16.9614 8.95725 18.4803 8.95725H19.9008V8.27962C19.9008 7.74515 19.7514 7.31884 19.4527 7.00071C19.154 6.67621 18.6996 6.51395 18.0895 6.51395C17.562 6.51395 17.1298 6.64757 16.793 6.91481C16.4562 7.17568 16.2877 7.50973 16.2877 7.91694H13.9712C13.9712 7.35066 14.1587 6.82255 14.5337 6.33262C14.9086 5.83632 15.4171 5.44819 16.0589 5.16823C16.7072 4.88827 17.4285 4.74829 18.2229 4.74829C19.4305 4.74829 20.3933 5.0537 21.1115 5.66453C21.8296 6.26899 22.1982 7.1216 22.2173 8.22236V12.8799C22.2173 13.8089 22.3476 14.5502 22.6082 15.1037V15.266H20.244ZM17.6986 13.5957C18.1562 13.5957 18.5852 13.4844 18.9856 13.2617C19.3923 13.039 19.6974 12.74 19.9008 12.3645V10.4175H18.6519C17.794 10.4175 17.1489 10.5671 16.7167 10.8661C16.2846 11.1652 16.0685 11.5883 16.0685 12.1355C16.0685 12.5809 16.2147 12.9372 16.507 13.2044C16.8057 13.4653 17.2029 13.5957 17.6986 13.5957Z" fill="black"/>
<path d="M24.7344 4.93909H27.0509V13.4143H31.0738V4.93909H33.3904V13.4143H34.7917L34.6011 18.3295H32.4943V15.2658H24.7344V4.93909Z" fill="black"/>
<path d="M42.8666 4.93909H45.1736V15.2658H42.8666V8.37498L38.8246 15.2658H36.5176V4.93909H38.8246V11.83L42.8666 4.93909Z" fill="black"/>
<path d="M47.2031 10.0071C47.2031 8.99543 47.4033 8.08556 47.8037 7.27749C48.2041 6.46305 48.7665 5.8395 49.4911 5.40684C50.2156 4.96781 51.0481 4.74829 51.9887 4.74829C53.3805 4.74829 54.5086 5.19686 55.3729 6.09401C56.2436 6.99116 56.7139 8.181 56.7838 9.66352L56.7934 10.2076C56.7934 11.2256 56.5963 12.1355 56.2023 12.9372C55.8146 13.7389 55.2554 14.3593 54.5245 14.7983C53.8 15.2373 52.9611 15.4568 52.0078 15.4568C50.5524 15.4568 49.3862 14.9733 48.5092 14.0061C47.6385 13.0326 47.2031 11.7378 47.2031 10.1217V10.0071ZM49.5196 10.2076C49.5196 11.2702 49.7389 12.1037 50.1774 12.7081C50.616 13.3062 51.2261 13.6053 52.0078 13.6053C52.7895 13.6053 53.3964 13.2999 53.8286 12.6891C54.2671 12.0782 54.4864 11.1843 54.4864 10.0071C54.4864 8.96362 54.2608 8.13646 53.8095 7.52563C53.3646 6.91481 52.7577 6.6094 51.9887 6.6094C51.2324 6.6094 50.6318 6.91163 50.187 7.51609C49.7421 8.11419 49.5196 9.01134 49.5196 10.2076Z" fill="black"/>
<path d="M67.4901 15.2658H65.1736V11.0951H61.1603V15.2658H58.8438V4.93909H61.1603V9.24349H65.1736V4.93909H67.4901V15.2658Z" fill="black"/>
<path d="M76.1268 15.266C76.0251 15.0687 75.9361 14.7474 75.8598 14.302C75.1226 15.0719 74.2202 15.4568 73.1525 15.4568C72.1165 15.4568 71.2713 15.161 70.6167 14.5692C69.9621 13.9775 69.6348 13.2458 69.6348 12.3741C69.6348 11.2733 70.0415 10.4303 70.855 9.84486C71.6748 9.25312 72.8442 8.95725 74.3632 8.95725H75.7836V8.27962C75.7836 7.74515 75.6342 7.31884 75.3355 7.00071C75.0368 6.67621 74.5824 6.51395 73.9723 6.51395C73.4448 6.51395 73.0126 6.64757 72.6758 6.91481C72.339 7.17568 72.1706 7.50973 72.1706 7.91694H69.854C69.854 7.35066 70.0415 6.82255 70.4165 6.33262C70.7914 5.83632 71.2999 5.44819 71.9418 5.16823C72.59 4.88827 73.3113 4.74829 74.1058 4.74829C75.3133 4.74829 76.2761 5.0537 76.9943 5.66453C77.7124 6.26899 78.081 7.1216 78.1001 8.22236V12.8799C78.1001 13.8089 78.2304 14.5502 78.491 15.1037V15.266H76.1268ZM73.5815 13.5957C74.039 13.5957 74.468 13.4844 74.8684 13.2617C75.2752 13.039 75.5802 12.74 75.7836 12.3645V10.4175H74.5348C73.6768 10.4175 73.0317 10.5671 72.5995 10.8661C72.1674 11.1652 71.9513 11.5883 71.9513 12.1355C71.9513 12.5809 72.0975 12.9372 72.3898 13.2044C72.6885 13.4653 73.0857 13.5957 73.5815 13.5957Z" fill="black"/>
<path d="M89.2922 4.93909V15.2658H86.9757V6.80974H84.0586L83.8679 10.4079C83.7472 12.1385 83.4135 13.3825 82.8669 14.1396C82.3267 14.8904 81.4974 15.2658 80.3788 15.2658H79.6638L79.6543 13.3379L80.131 13.2902C80.6394 13.2202 81.008 12.9116 81.2368 12.3644C81.4719 11.8109 81.6213 10.8055 81.6848 9.34848L81.8755 4.93909H89.2922Z" fill="black"/>
<path d="M94.2501 8.22227H96.519C97.3643 8.22227 98.1015 8.36861 98.7307 8.6613C99.3598 8.95399 99.8365 9.36438 100.161 9.89249C100.491 10.4206 100.656 11.0346 100.656 11.7345C100.656 12.7971 100.281 13.6497 99.5314 14.2923C98.7815 14.935 97.7837 15.2595 96.5381 15.2658H91.9336V4.93909H94.2501V8.22227ZM94.2501 10.0834V13.4143H96.5095C97.0751 13.4143 97.52 13.2743 97.8441 12.9943C98.1746 12.708 98.3398 12.304 98.3398 11.7822C98.3398 11.2605 98.1777 10.8501 97.8536 10.551C97.5359 10.2456 97.1037 10.0897 96.5571 10.0834H94.2501Z" fill="black"/>
<path d="M111.246 15.2658H108.93V11.0951H104.916V15.2658H102.6V4.93909H104.916V9.24349H108.93V4.93909H111.246V15.2658Z" fill="black"/>
<path d="M116.213 8.22227H118.482C119.327 8.22227 120.064 8.36861 120.694 8.6613C121.323 8.95399 121.799 9.36438 122.123 9.89249C122.454 10.4206 122.619 11.0346 122.619 11.7345C122.619 12.7971 122.244 13.6497 121.494 14.2923C120.744 14.935 119.747 15.2595 118.501 15.2658H113.896V4.93909H116.213V8.22227ZM126.652 15.2658H124.335V4.93909H126.652V15.2658ZM116.213 10.0834V13.4143H118.472C119.038 13.4143 119.483 13.2743 119.807 12.9943C120.137 12.708 120.303 12.304 120.303 11.7822C120.303 11.2605 120.141 10.8501 119.817 10.551C119.499 10.2456 119.067 10.0897 118.52 10.0834H116.213Z" fill="black"/>
<path d="M135.87 4.93909H138.177V15.2658H135.87V8.37498L131.828 15.2658H129.521V4.93909H131.828V11.83L135.87 4.93909ZM136.957 0.978271C136.957 1.77998 136.678 2.42898 136.118 2.92528C135.559 3.42157 134.812 3.66972 133.878 3.66972C132.944 3.66972 132.197 3.42157 131.638 2.92528C131.079 2.42898 130.799 1.77998 130.799 0.978271H132.534C132.534 1.39821 132.652 1.7259 132.887 1.96132C133.128 2.19038 133.459 2.30491 133.878 2.30491C134.298 2.30491 134.625 2.19038 134.86 1.96132C135.095 1.7259 135.213 1.39821 135.213 0.978271H136.957Z" fill="black"/>
<path d="M154.25 15.2658H151.933V6.80974H147.91V15.2658H145.594V4.93909H154.25V15.2658Z" fill="black"/>
<path d="M165.746 10.2076C165.746 11.8046 165.384 13.0804 164.66 14.0348C163.935 14.9828 162.963 15.4568 161.742 15.4568C160.611 15.4568 159.706 15.0846 159.026 14.3402V19.2363H156.709V4.93917H158.844L158.94 5.98903C159.62 5.16187 160.544 4.74829 161.714 4.74829C162.972 4.74829 163.957 5.21913 164.669 6.16082C165.387 7.09615 165.746 8.39733 165.746 10.0644V10.2076ZM163.439 10.0071C163.439 8.97634 163.233 8.15873 162.82 7.55427C162.413 6.9498 161.828 6.64757 161.066 6.64757C160.119 6.64757 159.439 7.03888 159.026 7.8215V12.4027C159.445 13.2044 160.131 13.6053 161.085 13.6053C161.822 13.6053 162.397 13.3094 162.81 12.7177C163.23 12.1196 163.439 11.2161 163.439 10.0071Z" fill="black"/>
<path d="M167.281 10.0071C167.281 8.99543 167.481 8.08556 167.882 7.27749C168.282 6.46305 168.845 5.8395 169.569 5.40684C170.294 4.96781 171.126 4.74829 172.067 4.74829C173.459 4.74829 174.587 5.19686 175.451 6.09401C176.322 6.99116 176.792 8.181 176.862 9.66352L176.871 10.2076C176.871 11.2256 176.674 12.1355 176.28 12.9372C175.893 13.7389 175.334 14.3593 174.603 14.7983C173.878 15.2373 173.039 15.4568 172.086 15.4568C170.631 15.4568 169.464 14.9733 168.587 14.0061C167.717 13.0326 167.281 11.7378 167.281 10.1217V10.0071ZM169.598 10.2076C169.598 11.2702 169.817 12.1037 170.256 12.7081C170.694 13.3062 171.304 13.6053 172.086 13.6053C172.868 13.6053 173.475 13.2999 173.907 12.6891C174.345 12.0782 174.564 11.1843 174.564 10.0071C174.564 8.96362 174.339 8.13646 173.888 7.52563C173.443 6.91481 172.836 6.6094 172.067 6.6094C171.311 6.6094 170.71 6.91163 170.265 7.51609C169.82 8.11419 169.598 9.01134 169.598 10.2076Z" fill="black"/>
<path d="M183.374 15.4568C181.906 15.4568 180.714 14.9955 179.799 14.073C178.89 13.144 178.436 11.9096 178.436 10.3698V10.0835C178.436 9.0527 178.633 8.13328 179.027 7.32521C179.427 6.51077 179.986 5.87768 180.704 5.42592C181.423 4.97417 182.223 4.74829 183.107 4.74829C184.511 4.74829 185.595 5.19686 186.358 6.09401C187.127 6.99116 187.511 8.26053 187.511 9.90212V10.8375H180.771C180.841 11.6901 181.124 12.3646 181.62 12.8608C182.122 13.3571 182.751 13.6053 183.507 13.6053C184.568 13.6053 185.433 13.1758 186.1 12.3168L187.349 13.5098C186.936 14.127 186.383 14.6074 185.69 14.951C185.004 15.2882 184.232 15.4568 183.374 15.4568ZM183.097 6.6094C182.462 6.6094 181.947 6.83209 181.553 7.27749C181.165 7.72288 180.917 8.34325 180.809 9.13859H185.223V8.9668C185.172 8.19054 184.966 7.60517 184.603 7.21068C184.241 6.80982 183.739 6.6094 183.097 6.6094Z" fill="black"/>
<path d="M192.983 11.181H191.811V15.2658H189.494V4.93909H191.811V9.06215H192.831L195.681 4.93909H198.541L194.814 9.88295L198.856 15.2658H195.843L192.983 11.181Z" fill="black"/>
<path d="M208.246 6.78111H204.9V15.2658H202.583V6.78111H199.275V4.93909H208.246V6.78111Z" fill="black"/>
</g>
<defs>
<clipPath id="clip0_5798_3575">
<rect width="209" height="20" fill="white"/>
</clipPath>
</defs>
</svg>
