<svg width="255" height="72" viewBox="0 0 255 72" fill="none" xmlns="http://www.w3.org/2000/svg">
<g clip-path="url(#clip0_5798_3528)">
<path d="M101.001 4.72267H100.203V2.68157H98.1426V4.72267H97.3418V0.129395H98.1426V2.04116H100.203V0.129395H101.001V4.72267Z" fill="black"/>
<path d="M103.922 4.72259C103.888 4.6574 103.859 4.55119 103.833 4.40397C103.589 4.65845 103.289 4.78569 102.934 4.78569C102.59 4.78569 102.31 4.68789 102.092 4.4923C101.875 4.29671 101.766 4.05484 101.766 3.76671C101.766 3.40287 101.901 3.1242 102.171 2.93071C102.444 2.73512 102.832 2.63732 103.336 2.63732H103.808V2.41333C103.808 2.23667 103.758 2.09576 103.659 1.9906C103.56 1.88334 103.409 1.82971 103.207 1.82971C103.031 1.82971 102.888 1.87388 102.776 1.96221C102.664 2.04844 102.608 2.15885 102.608 2.29346H101.839C101.839 2.10628 101.901 1.93171 102.026 1.76977C102.15 1.60573 102.319 1.47743 102.532 1.38489C102.748 1.29236 102.987 1.24609 103.251 1.24609C103.652 1.24609 103.972 1.34704 104.21 1.54894C104.449 1.74874 104.571 2.03056 104.577 2.39441V3.93391C104.577 4.24097 104.621 4.48599 104.707 4.66896V4.72259H103.922ZM103.077 4.17052C103.229 4.17052 103.371 4.13371 103.504 4.0601C103.639 3.98649 103.741 3.88764 103.808 3.76356V3.11999H103.393C103.108 3.11999 102.894 3.16942 102.751 3.26827C102.607 3.36711 102.535 3.50697 102.535 3.68784C102.535 3.83506 102.584 3.95284 102.681 4.04117C102.78 4.1274 102.912 4.17052 103.077 4.17052Z" fill="black"/>
<path d="M105.412 1.3092H106.181V4.1106H107.517V1.3092H108.286V4.1106H108.752L108.688 5.73528H107.989V4.72261H105.412V1.3092Z" fill="black"/>
<path d="M111.434 1.3092H112.2V4.72261H111.434V2.4449L110.092 4.72261H109.326V1.3092H110.092V3.58691L111.434 1.3092Z" fill="black"/>
<path d="M112.873 2.98434C112.873 2.64994 112.94 2.34919 113.073 2.08209C113.205 1.81289 113.392 1.60678 113.633 1.46376C113.873 1.31865 114.15 1.24609 114.462 1.24609C114.924 1.24609 115.299 1.39436 115.586 1.6909C115.875 1.98745 116.031 2.38074 116.054 2.87077L116.058 3.05059C116.058 3.38709 115.992 3.68784 115.861 3.95284C115.733 4.21784 115.547 4.42289 115.304 4.56801C115.064 4.71313 114.785 4.78569 114.469 4.78569C113.985 4.78569 113.598 4.62585 113.307 4.30617C113.018 3.98439 112.873 3.5564 112.873 3.0222V2.98434ZM113.642 3.05059C113.642 3.40182 113.715 3.67733 113.861 3.87713C114.006 4.07482 114.209 4.17367 114.469 4.17367C114.728 4.17367 114.93 4.07272 115.073 3.87082C115.219 3.66892 115.292 3.37342 115.292 2.98434C115.292 2.63942 115.217 2.36601 115.067 2.16411C114.919 1.96221 114.718 1.86126 114.462 1.86126C114.211 1.86126 114.012 1.96116 113.864 2.16096C113.716 2.35865 113.642 2.6552 113.642 3.05059Z" fill="black"/>
<path d="M119.609 4.72261H118.84V3.344H117.507V4.72261H116.738V1.3092H117.507V2.73198H118.84V1.3092H119.609V4.72261Z" fill="black"/>
<path d="M122.477 4.72259C122.444 4.6574 122.414 4.55119 122.389 4.40397C122.144 4.65845 121.844 4.78569 121.49 4.78569C121.146 4.78569 120.865 4.68789 120.648 4.4923C120.43 4.29671 120.322 4.05484 120.322 3.76671C120.322 3.40287 120.457 3.1242 120.727 2.93071C120.999 2.73512 121.387 2.63732 121.892 2.63732H122.363V2.41333C122.363 2.23667 122.314 2.09576 122.215 1.9906C122.115 1.88334 121.965 1.82971 121.762 1.82971C121.587 1.82971 121.443 1.87388 121.331 1.96221C121.22 2.04844 121.164 2.15885 121.164 2.29346H120.394C120.394 2.10628 120.457 1.93171 120.581 1.76977C120.706 1.60573 120.875 1.47743 121.088 1.38489C121.303 1.29236 121.542 1.24609 121.806 1.24609C122.207 1.24609 122.527 1.34704 122.765 1.54894C123.004 1.74874 123.126 2.03056 123.133 2.39441V3.93391C123.133 4.24097 123.176 4.48599 123.262 4.66896V4.72259H122.477ZM121.632 4.17052C121.784 4.17052 121.927 4.13371 122.059 4.0601C122.195 3.98649 122.296 3.88764 122.363 3.76356V3.11999H121.949C121.664 3.11999 121.45 3.16942 121.306 3.26827C121.163 3.36711 121.091 3.50697 121.091 3.68784C121.091 3.83506 121.139 3.95284 121.236 4.04117C121.336 4.1274 121.468 4.17052 121.632 4.17052Z" fill="black"/>
<path d="M126.85 1.3092V4.72261H126.081V1.92753H125.112L125.049 3.11686C125.009 3.68892 124.898 4.10008 124.716 4.35036C124.537 4.59853 124.262 4.72261 123.89 4.72261H123.653L123.65 4.08536L123.808 4.06959C123.977 4.04645 124.099 3.94445 124.175 3.76358C124.253 3.5806 124.303 3.24831 124.324 2.76668L124.387 1.3092H126.85Z" fill="black"/>
<path d="M128.496 2.39443H129.249C129.53 2.39443 129.775 2.4428 129.984 2.53954C130.193 2.63629 130.351 2.77194 130.459 2.9465C130.568 3.12106 130.623 3.32402 130.623 3.55537C130.623 3.90659 130.499 4.18841 130.25 4.40083C130.001 4.61325 129.669 4.72051 129.256 4.72261H127.727V1.3092H128.496V2.39443ZM128.496 3.0096V4.1106H129.246C129.434 4.1106 129.582 4.06433 129.689 3.97179C129.799 3.87715 129.854 3.7436 129.854 3.57114C129.854 3.39868 129.8 3.26303 129.693 3.16418C129.587 3.06323 129.444 3.0117 129.262 3.0096H128.496Z" fill="black"/>
<path d="M134.141 4.72261H133.372V3.344H132.039V4.72261H131.27V1.3092H132.039V2.73198H133.372V1.3092H134.141V4.72261Z" fill="black"/>
<path d="M135.789 2.39443H136.543C136.823 2.39443 137.068 2.4428 137.277 2.53954C137.486 2.63629 137.644 2.77194 137.752 2.9465C137.862 3.12106 137.917 3.32402 137.917 3.55537C137.917 3.90659 137.792 4.18841 137.543 4.40083C137.294 4.61325 136.963 4.72051 136.549 4.72261H135.02V1.3092H135.789V2.39443ZM139.256 4.72261H138.486V1.3092H139.256V4.72261ZM135.789 3.0096V4.1106H136.54C136.727 4.1106 136.875 4.06433 136.983 3.97179C137.093 3.87715 137.147 3.7436 137.147 3.57114C137.147 3.39868 137.094 3.26303 136.986 3.16418C136.88 3.06323 136.737 3.0117 136.555 3.0096H135.789Z" fill="black"/>
<path d="M142.316 1.30921H143.082V4.72262H142.316V2.44491L140.974 4.72262H140.207V1.30921H140.974V3.58692L142.316 1.30921ZM142.677 0C142.677 0.264997 142.584 0.479518 142.398 0.643564C142.212 0.80761 141.964 0.889633 141.654 0.889633C141.344 0.889633 141.096 0.80761 140.91 0.643564C140.724 0.479518 140.632 0.264997 140.632 0H141.208C141.208 0.138808 141.247 0.24712 141.325 0.324937C141.405 0.40065 141.515 0.438507 141.654 0.438507C141.793 0.438507 141.902 0.40065 141.98 0.324937C142.058 0.24712 142.097 0.138808 142.097 0H142.677Z" fill="black"/>
<path d="M148.421 4.72261H147.652V1.92753H146.316V4.72261H145.547V1.3092H148.421V4.72261Z" fill="black"/>
<path d="M152.236 3.05059C152.236 3.57848 152.116 4.00016 151.876 4.31563C151.635 4.629 151.312 4.78569 150.907 4.78569C150.531 4.78569 150.231 4.66265 150.005 4.41659V6.03496H149.236V1.30918H149.945L149.976 1.6562C150.202 1.38279 150.509 1.24609 150.897 1.24609C151.315 1.24609 151.642 1.40172 151.879 1.71299C152.117 2.02215 152.236 2.45224 152.236 3.00327V3.05059ZM151.47 2.98434C151.47 2.64363 151.402 2.37337 151.265 2.17358C151.13 1.97378 150.935 1.87388 150.682 1.87388C150.368 1.87388 150.142 2.00322 150.005 2.26191V3.77618C150.144 4.04117 150.372 4.17367 150.689 4.17367C150.933 4.17367 151.124 4.07588 151.261 3.88028C151.401 3.68259 151.47 3.38394 151.47 2.98434Z" fill="black"/>
<path d="M152.746 2.98434C152.746 2.64994 152.813 2.34919 152.946 2.08209C153.078 1.81289 153.265 1.60678 153.506 1.46376C153.746 1.31865 154.023 1.24609 154.335 1.24609C154.797 1.24609 155.172 1.39436 155.459 1.6909C155.748 1.98745 155.904 2.38074 155.927 2.87077L155.931 3.05059C155.931 3.38709 155.865 3.68784 155.734 3.95284C155.606 4.21784 155.42 4.42289 155.177 4.56801C154.937 4.71313 154.658 4.78569 154.342 4.78569C153.858 4.78569 153.471 4.62585 153.18 4.30617C152.891 3.98439 152.746 3.5564 152.746 3.0222V2.98434ZM153.515 3.05059C153.515 3.40182 153.588 3.67733 153.734 3.87713C153.879 4.07482 154.082 4.17367 154.342 4.17367C154.601 4.17367 154.803 4.07272 154.946 3.87082C155.092 3.66892 155.165 3.37342 155.165 2.98434C155.165 2.63942 155.09 2.36601 154.94 2.16411C154.792 1.96221 154.591 1.86126 154.335 1.86126C154.084 1.86126 153.885 1.96116 153.737 2.16096C153.589 2.35865 153.515 2.6552 153.515 3.05059Z" fill="black"/>
<path d="M158.091 4.78569C157.603 4.78569 157.207 4.63321 156.903 4.32825C156.602 4.02119 156.451 3.61318 156.451 3.10422V3.00958C156.451 2.66887 156.516 2.36496 156.647 2.09786C156.78 1.82866 156.966 1.6194 157.204 1.47007C157.443 1.32075 157.709 1.24609 158.002 1.24609C158.468 1.24609 158.828 1.39436 159.081 1.6909C159.337 1.98745 159.464 2.40703 159.464 2.94964V3.2588H157.226C157.25 3.54062 157.343 3.76356 157.508 3.9276C157.675 4.09165 157.884 4.17367 158.135 4.17367C158.487 4.17367 158.774 4.03171 158.996 3.74778L159.411 4.14212C159.273 4.34613 159.09 4.50492 158.86 4.61849C158.632 4.72995 158.375 4.78569 158.091 4.78569ZM157.999 1.86126C157.788 1.86126 157.617 1.93487 157.486 2.08209C157.357 2.22931 157.275 2.43437 157.239 2.69726H158.705V2.64048C158.688 2.38389 158.619 2.1904 158.499 2.06001C158.379 1.92751 158.212 1.86126 157.999 1.86126Z" fill="black"/>
<path d="M161.281 3.37239H160.892V4.72261H160.123V1.3092H160.892V2.67204H161.231L162.177 1.3092H163.127L161.889 2.94335L163.231 4.72261H162.231L161.281 3.37239Z" fill="black"/>
<path d="M166.349 1.91806H165.238V4.72261H164.469V1.91806H163.371V1.3092H166.349V1.91806Z" fill="black"/>
<path d="M100.982 18.2663C100.982 16.4625 101.778 15.777 103.045 15.777C104.312 15.777 105.109 16.4625 105.109 18.2663V31.9031C105.109 33.7069 104.312 34.3924 103.045 34.3924C101.778 34.3924 100.982 33.7069 100.982 31.9031V18.2663ZM97 31.6506C97 35.6911 99.1358 38 103.045 38C106.955 38 109.091 35.6911 109.091 31.6506V18.5188C109.091 14.4783 106.955 12.1694 103.045 12.1694C99.1358 12.1694 97 14.4783 97 18.5188V31.6506Z" fill="black"/>
<path d="M118.013 37.7114C121.995 37.7114 124.023 35.5107 124.023 31.4702V28.7645C124.023 24.7239 121.995 22.5233 118.013 22.5233H115.697V16.0656H122.864V12.458H111.715V37.7114H118.013ZM115.697 34.1038V26.1309H118.013C119.28 26.1309 120.041 26.7081 120.041 28.5119V31.7227C120.041 33.5265 119.28 34.1038 118.013 34.1038H115.697Z" fill="black"/>
<path d="M132.567 12.458H126.703V37.7114H130.685V28.2233H132.567C136.549 28.2233 138.504 26.0227 138.504 21.9821V18.6992C138.504 14.6587 136.549 12.458 132.567 12.458ZM132.567 16.0656C133.834 16.0656 134.522 16.6428 134.522 18.4467V22.2347C134.522 24.0385 133.834 24.6157 132.567 24.6157H130.685V16.0656H132.567Z" fill="black"/>
<path d="M149.181 12.458H143.353L139.299 37.7114H142.955L143.643 33.1297H148.53L149.217 37.7114H153.236L149.181 12.458ZM146.068 16.9315L147.987 29.7025H144.149L146.068 16.9315Z" fill="black"/>
<path d="M162.764 20.0701C162.764 22.0904 161.859 22.7397 160.375 22.7397H159.181V26.3474H160.158C161.968 26.3474 162.764 27.2132 162.764 29.5582V31.5423C162.764 33.7791 161.968 34.3924 160.701 34.3924C159.434 34.3924 158.638 33.7069 158.638 31.9031V28.8727H154.873V31.6506C154.873 35.6911 156.9 38 160.81 38C164.719 38 166.746 35.6911 166.746 31.6506V29.6664C166.746 27.105 165.95 25.229 163.959 24.3632C165.877 23.5695 166.746 21.8739 166.746 19.1682V18.5188C166.746 14.4783 164.719 12.1694 160.81 12.1694C156.9 12.1694 154.945 14.4061 154.945 18.4467V20.3226H158.601V18.2663C158.601 16.4625 159.434 15.777 160.701 15.777C161.968 15.777 162.764 16.3903 162.764 18.6631V20.0701Z" fill="black"/>
<path d="M173.099 18.2663C173.099 16.4625 173.895 15.777 175.162 15.777C176.429 15.777 177.226 16.4625 177.226 18.2663V31.9031C177.226 33.7069 176.429 34.3924 175.162 34.3924C173.895 34.3924 173.099 33.7069 173.099 31.9031V18.2663ZM169.117 31.6506C169.117 35.6911 171.253 38 175.162 38C179.072 38 181.208 35.6911 181.208 31.6506V18.5188C181.208 14.4783 179.072 12.1694 175.162 12.1694C171.253 12.1694 169.117 14.4783 169.117 18.5188V31.6506Z" fill="black"/>
<path d="M189.804 12.458H183.795V37.7114H190.058C194.04 37.7114 196.103 35.619 196.103 31.7227V29.6664C196.103 26.9967 195.271 25.0847 193.135 24.2549C194.909 23.4252 195.705 21.7657 195.705 19.1682V18.2663C195.705 14.37 193.931 12.458 189.804 12.458ZM189.551 26.3474C191.361 26.3474 192.121 27.0689 192.121 29.4138V31.6145C192.121 33.4905 191.397 34.1038 190.058 34.1038H187.777V26.3474H189.551ZM189.696 16.0656C191.108 16.0656 191.723 16.8593 191.723 18.6631V20.0701C191.723 22.0904 190.818 22.7397 189.334 22.7397H187.777V16.0656H189.696Z" fill="black"/>
<path d="M207.333 12.458H201.505L197.451 37.7114H201.107L201.795 33.1297H206.682L207.369 37.7114H211.388L207.333 12.458ZM204.22 16.9315L206.139 29.7025H202.301L204.22 16.9315Z" fill="black"/>
<path d="M217.224 26.8885H221.749V37.7114H225.803V12.458H221.749V23.2809H217.224V12.458H213.242V37.7114H217.224V26.8885Z" fill="black"/>
<path d="M236.111 26.1309L237.74 19.9258V37.7114H241.324V12.458H236.944L233.686 22.884L232.238 28.4398V12.458H228.691V37.7114H232.781L236.111 26.1309Z" fill="black"/>
<path d="M248.123 16.0656H255.001V12.458H244.141V37.7114H255.001V34.1038H248.123V26.7081H253.589V23.1005H248.123V16.0656Z" fill="black"/>
<mask id="mask0_5798_3528" style="mask-type:luminance" maskUnits="userSpaceOnUse" x="0" y="0" width="87" height="72">
<path d="M87 0H0V72H87V0Z" fill="white"/>
</mask>
<g mask="url(#mask0_5798_3528)">
<path d="M28.6027 22.5621H27.411V19.7086H26.3516V26.411H27.411V23.5575H28.6027V26.411H29.6621V19.7086H28.6027V22.5621ZM72.9635 19.7086H71.9041V26.411H72.9635V19.7086ZM31.4498 19.7086L30.3904 26.411H31.3836L31.5822 25.2165H32.9064L33.105 26.411H34.1644L33.105 19.7086H31.4498ZM31.6484 24.2874L32.1781 20.9031L32.7078 24.2874H31.6484ZM40.5205 22.4294L40.1233 23.8893V19.6423H39.1963V26.3446H40.2557L41.1164 23.2921L41.5137 21.6331V26.3446H42.4406V19.7086H41.3151L40.5205 22.4294ZM57.2055 24.6856L57.3379 20.6377H58.2648V26.411H59.3242V19.7086H56.3447L56.1461 24.752C56.1461 25.3492 55.9475 25.4156 55.484 25.4156V26.3446H55.6164C56.742 26.411 57.2055 25.9464 57.2055 24.6856ZM71.3082 24.752V23.8893C71.3082 22.8275 70.7785 22.2303 69.7192 22.2303H69.1895V19.7086H68.1963V26.411H69.7192C70.7785 26.411 71.3082 25.8137 71.3082 24.752ZM69.2557 23.1593H69.7854C70.1164 23.1593 70.3151 23.2921 70.3151 23.8229V24.8183C70.3151 25.2828 70.1164 25.4819 69.7854 25.4819H69.2557V23.1593ZM63.2968 24.752V23.8893C63.2968 22.8275 62.7671 22.2303 61.7078 22.2303H61.1781V19.7086H60.1187V26.411H61.6415C62.7671 26.411 63.2968 25.8137 63.2968 24.752ZM61.2443 23.1593H61.774C62.105 23.1593 62.3036 23.2921 62.3036 23.8229V24.8183C62.3036 25.2828 62.105 25.4819 61.774 25.4819H61.2443V23.1593ZM65.0845 23.4911H66.2763V26.3446H67.3356V19.7086H66.2763V22.5621H65.0845V19.7086H64.0251V26.411H65.0845V23.4911ZM38.0046 19.7086H36.9452V25.4819H35.7534V19.7086H34.6941V26.411H37.4749V27.34H38.468V25.4819H38.0046V19.7086ZM53.895 26.411H54.9543L53.895 19.7086H52.3721L51.3128 26.411H52.3059L52.5046 25.2165H53.8288L53.895 26.411ZM52.5708 24.2874L53.1005 20.9031L53.6301 24.2874H52.5708ZM76.6712 20.6377V19.7086H73.8242V26.411H76.6712V25.4819H74.8836V23.4911H76.3402V22.5621H74.8836V20.704H76.6712V20.6377ZM44.8904 19.5759C43.831 19.5759 43.3014 20.1732 43.3014 21.2349V24.752C43.3014 25.8137 43.8973 26.411 44.8904 26.411C45.9498 26.411 46.4794 25.8137 46.4794 24.752V21.2349C46.4794 20.2395 45.9498 19.5759 44.8904 19.5759ZM45.4863 24.8847C45.4863 25.3492 45.2877 25.5483 44.9566 25.5483C44.6256 25.5483 44.4269 25.3492 44.4269 24.8847V21.2349C44.4269 20.7704 44.6256 20.5713 44.9566 20.5713C45.2877 20.5713 45.4863 20.7704 45.4863 21.2349V24.8847ZM48.3333 23.4911H49.5251V26.3446H50.5845V19.7086H49.5251V22.5621H48.3333V19.7086H47.274V26.411H48.3333V23.4911ZM63.0982 28.6672V27.7381H60.2511V34.4404H63.0982V33.5114H61.3105V31.5206H62.7671V30.5916H61.3105V28.7335H63.0982V28.6672ZM66.2763 34.4404H67.3356L65.879 30.7243L67.3356 27.7381H66.2763L64.8858 30.658V27.7381H63.8265V34.4404H64.8858V32.3833L65.2169 31.7861L66.2763 34.4404ZM70.0502 34.4404V28.6672H71.1758V27.7381H67.9315V28.6672H69.0571V34.4404H70.0502ZM74.8836 32.7815V31.9188C74.8836 30.857 74.3539 30.2598 73.2945 30.2598H72.831V27.7381H71.7717V34.4404H73.2945C74.4201 34.4404 74.8836 33.8432 74.8836 32.7815ZM72.831 31.1888H73.3607C73.6918 31.1888 73.8904 31.3216 73.8904 31.8524V32.8478C73.8904 33.3123 73.6918 33.5114 73.3607 33.5114H72.831V31.1888ZM55.6164 30.2598V29.3971C55.6164 28.3354 55.0868 27.7381 54.0274 27.7381H52.5046V34.4404H53.5639V31.9188H54.0936C55.0868 31.9188 55.6164 31.3215 55.6164 30.2598ZM53.5639 28.6672H54.0936C54.4247 28.6672 54.6233 28.7999 54.6233 29.3308V30.3262C54.6233 30.7907 54.4247 30.9898 54.0936 30.9898H53.5639V28.6672ZM48.3333 34.4404H49.3927V28.6672H50.5845V34.4404H51.6438V27.7381H48.3333V34.4404ZM75.5457 34.4404H76.605V27.7381H75.5457V34.4404ZM57.8676 27.6718C56.8082 27.6718 56.2785 28.269 56.2785 29.3308V32.8478C56.2785 33.9096 56.8744 34.5068 57.8676 34.5068C58.9269 34.5068 59.4566 33.9096 59.4566 32.8478V29.3308C59.4566 28.269 58.8607 27.6718 57.8676 27.6718ZM58.3973 32.9142C58.3973 33.3787 58.1986 33.5778 57.8676 33.5778C57.5365 33.5778 57.3379 33.3787 57.3379 32.9142V29.2644C57.3379 28.7999 57.5365 28.6008 57.8676 28.6008C58.1986 28.6008 58.3973 28.7999 58.3973 29.2644V32.9142ZM74.5525 38.5547L74.1552 40.0146V35.7676H73.2283V42.4699H74.2877L75.1484 39.4174L75.5457 37.7584V42.4699H76.4726V35.7676H75.347L74.5525 38.5547ZM58.9931 35.7013C57.9338 35.7013 57.4041 36.2985 57.4041 37.3603V40.8773C57.4041 41.9391 58 42.5363 58.9931 42.5363C60.0525 42.5363 60.5822 41.9391 60.5822 40.8773V37.3603C60.5822 36.2985 60.0525 35.7013 58.9931 35.7013ZM59.5228 40.9437C59.5228 41.4082 59.3242 41.6073 58.9931 41.6073C58.6621 41.6073 58.4635 41.4082 58.4635 40.9437V37.2939C58.4635 36.8294 58.6621 36.6303 58.9931 36.6303C59.3242 36.6303 59.5228 36.8294 59.5228 37.2939V40.9437ZM55.2192 35.7676H53.6301V42.4699H54.6895V39.9483H55.2192C56.2785 39.9483 56.8082 39.351 56.8082 38.2893V37.4266C56.742 36.3649 56.2785 35.7676 55.2192 35.7676ZM55.6826 38.3557C55.6826 38.8202 55.484 39.0192 55.153 39.0192H54.6233V36.763H55.153C55.484 36.763 55.6826 36.8957 55.6826 37.4266V38.3557ZM62.8995 35.7013C61.8402 35.7013 61.3105 36.2985 61.3105 37.3603V40.8773C61.3105 41.9391 61.8402 42.5363 62.8995 42.5363C63.9589 42.5363 64.4886 41.9391 64.4886 40.8773V40.0146H63.4954V40.9437C63.4954 41.4082 63.2968 41.6073 62.9658 41.6073C62.6347 41.6073 62.4361 41.4082 62.4361 40.9437V37.2939C62.4361 36.8294 62.6347 36.6303 62.9658 36.6303C63.2968 36.6303 63.4954 36.8294 63.4954 37.2939V38.0239H64.4886V37.3603C64.4886 36.2985 63.9589 35.7013 62.8995 35.7013ZM66.7397 35.7013C65.6804 35.7013 65.1507 36.2985 65.1507 37.3603V40.8773C65.1507 41.9391 65.6804 42.5363 66.7397 42.5363C67.7991 42.5363 68.3288 41.9391 68.3288 40.8773V40.0146H67.3356V40.9437C67.3356 41.4082 67.137 41.6073 66.8059 41.6073C66.4749 41.6073 66.2763 41.4082 66.2763 40.9437V37.2939C66.2763 36.8294 66.4749 36.6303 66.8059 36.6303C67.137 36.6303 67.3356 36.8294 67.3356 37.2939V38.0239H68.3288V37.3603C68.3288 36.2985 67.7991 35.7013 66.7397 35.7013ZM70.3813 38.5547L69.984 40.0146V35.7676H69.0571V42.4699H70.1164L70.9772 39.4174L71.4406 37.7584V42.4699H72.3676V35.7676H71.242L70.3813 38.5547Z" fill="black"/>
<path d="M86.2721 0H26.2858C26.021 0 25.7561 0.199078 25.6237 0.464516L0.265249 70.5401L0.0666188 71.0046C-0.132012 71.4691 0.199039 72 0.662509 72C0.728719 72 0.794929 72 0.927349 71.9336L78.3269 43.6645C78.5917 43.5982 78.7904 43.3327 78.7904 43.0009V27.7382L86.6032 23.2922C86.8018 23.1594 87.0004 22.9604 87.0004 22.6949V0.663594C87.0004 0.331797 86.6694 0 86.2721 0ZM77.731 42.8682L1.32461 70.7392L25.5575 18.5806H77.731V42.8682ZM86.4707 22.6949C86.4707 22.7613 86.4045 22.8277 86.3383 22.8277L78.7904 27.2074V18.2488C78.7904 17.8507 78.4593 17.5853 78.1283 17.5853H25.3589C25.094 17.5853 24.8292 17.718 24.763 17.9834L2.64882 65.4304L26.0872 0.597235C26.0872 0.530876 26.1534 0.464516 26.2858 0.464516H86.3383C86.4707 0.464516 86.5369 0.530876 86.5369 0.663594V22.6949H86.4707Z" fill="black"/>
<path d="M37.8716 10.4849C37.8716 10.9494 37.8054 11.2812 37.673 11.613C37.5406 11.9448 37.2758 12.2102 37.0109 12.4093C36.7461 12.6084 36.415 12.6747 36.0178 12.6747C35.6867 12.6747 35.3557 12.6084 35.0246 12.4093C34.7598 12.2102 34.4949 12.0112 34.3625 11.6794C34.2301 11.3476 34.0977 10.9494 34.0977 10.5512V10.2858C34.0977 9.82129 34.1639 9.4895 34.3625 9.1577C34.4949 8.8259 34.7598 8.56046 35.0246 8.36139C35.2895 8.16231 35.6205 8.09595 36.0178 8.09595C36.415 8.09595 36.6799 8.16231 37.0109 8.36139C37.2758 8.56046 37.5406 8.75954 37.673 9.09134C37.8054 9.42314 37.8716 9.82129 37.9379 10.2194V10.4849H37.8716ZM37.0771 10.2194C37.0771 9.75493 37.0109 9.35678 36.8123 9.09134C36.6137 8.8259 36.3488 8.69318 36.0178 8.69318C35.6867 8.69318 35.4219 8.8259 35.2232 9.09134C35.0246 9.35678 34.9584 9.75493 34.9584 10.2194V10.4849C34.9584 10.9494 35.0246 11.3476 35.2232 11.613C35.4219 11.8784 35.6867 12.0112 36.0178 12.0112C36.3488 12.0112 36.6137 11.8784 36.8123 11.613C37.0109 11.3476 37.0771 10.9494 37.0771 10.4849V10.2194Z" fill="black"/>
<path d="M41.4486 8.75954H39.3961V9.82129H40.323C40.6541 9.82129 40.9189 9.88765 41.1838 10.0204C41.4486 10.1531 41.581 10.2858 41.7134 10.4849C41.8459 10.684 41.9121 10.9494 41.9121 11.2148C41.9121 11.613 41.7796 11.9448 41.5148 12.2102C41.25 12.4757 40.8527 12.6084 40.323 12.6084H38.6016V8.09595H41.4486V8.75954ZM39.3961 10.4849V12.0112H40.323C40.5879 12.0112 40.7865 11.9448 40.9189 11.8121C41.0513 11.6794 41.1175 11.4803 41.1175 11.2148C41.1175 11.0158 41.0513 10.8167 40.9189 10.684C40.7865 10.5512 40.5879 10.4849 40.323 10.4849H39.3961Z" fill="black"/>
<path d="M43.3687 10.9494V12.6084H42.5742V8.09595H44.2956C44.8253 8.09595 45.2226 8.22867 45.4874 8.4941C45.7522 8.75954 45.9509 9.09134 45.9509 9.55586C45.9509 10.0204 45.8184 10.3522 45.4874 10.5512C45.2226 10.8167 44.8253 10.9494 44.2956 10.9494H43.3687ZM43.3687 10.2858H44.2956C44.5605 10.2858 44.7591 10.2194 44.9577 10.0867C45.0901 9.95401 45.1563 9.75493 45.1563 9.4895C45.1563 9.22406 45.0901 9.02498 44.9577 8.89226C44.8253 8.75954 44.6267 8.69318 44.3618 8.69318H43.4349V10.2858H43.3687Z" fill="black"/>
<path d="M48.798 11.5466H47.0103L46.6793 12.6084H45.8848L47.6062 8.09595H48.3345L50.056 12.6084H49.2615L48.798 11.5466ZM47.2752 10.9494H48.5994L47.9373 9.09134L47.2752 10.9494Z" fill="black"/>
<path d="M52.7033 9.35678C52.7033 9.1577 52.6371 9.02498 52.5047 8.89226C52.3722 8.75954 52.1736 8.69318 51.9088 8.69318C51.7101 8.69318 51.5115 8.75954 51.3791 8.89226C51.2467 9.02498 51.1805 9.1577 51.1805 9.35678H50.3197C50.3197 9.09134 50.3859 8.89226 50.5184 8.69318C50.6508 8.4941 50.8494 8.36138 51.048 8.22867C51.3129 8.09595 51.5777 8.09595 51.8426 8.09595C52.3722 8.09595 52.7695 8.22867 53.0343 8.42774C53.2992 8.62682 53.4316 8.95862 53.4316 9.35678C53.4316 9.55586 53.3654 9.75493 53.233 9.88765C53.1006 10.0867 52.9681 10.2194 52.7033 10.2858C52.9681 10.3522 53.1668 10.4849 53.2992 10.684C53.4316 10.883 53.4978 11.0821 53.4978 11.3476C53.4978 11.7457 53.3654 12.0775 53.0343 12.2766C52.7033 12.542 52.306 12.6084 51.7764 12.6084C51.4453 12.6084 51.1805 12.542 50.9156 12.4093C50.6508 12.2766 50.4522 12.1439 50.3197 11.9448C50.1873 11.7457 50.1211 11.5466 50.1211 11.2812H50.9156C50.9156 11.4803 50.9818 11.613 51.1805 11.7457C51.3129 11.8784 51.5115 11.9448 51.7764 11.9448C52.0412 11.9448 52.2398 11.8784 52.4385 11.7457C52.6371 11.613 52.7033 11.4803 52.7033 11.2148C52.7033 10.9494 52.6371 10.7503 52.5047 10.684C52.3722 10.5512 52.1736 10.4849 51.8426 10.4849H51.3129V9.88765H51.8426C52.4385 10.0204 52.7033 9.82129 52.7033 9.35678Z" fill="black"/>
<path d="M57.8677 10.4849C57.8677 10.9494 57.8015 11.2812 57.669 11.613C57.5366 11.9448 57.2719 12.2102 57.007 12.4093C56.7422 12.6084 56.4111 12.6747 56.0138 12.6747C55.6827 12.6747 55.3517 12.6084 55.0206 12.4093C54.7558 12.2102 54.491 12.0112 54.3585 11.6794C54.2261 11.3476 54.0938 10.9494 54.0938 10.5512V10.2858C54.0938 9.82129 54.1599 9.4895 54.3585 9.1577C54.491 8.8259 54.7558 8.56046 55.0206 8.36139C55.2855 8.16231 55.6165 8.09595 56.0138 8.09595C56.4111 8.09595 56.676 8.16231 57.007 8.36139C57.2719 8.56046 57.5366 8.75954 57.669 9.09134C57.8015 9.42314 57.8677 9.82129 57.9339 10.2194V10.4849H57.8677ZM57.0732 10.2194C57.0732 9.75493 57.0069 9.35678 56.8083 9.09134C56.6097 8.8259 56.3448 8.69318 56.0138 8.69318C55.6827 8.69318 55.4179 8.8259 55.2193 9.09134C55.0206 9.35678 54.9544 9.75493 54.9544 10.2194V10.4849C54.9544 10.9494 55.0206 11.3476 55.2193 11.613C55.4179 11.8784 55.6827 12.0112 56.0138 12.0112C56.3448 12.0112 56.6097 11.8784 56.8083 11.613C57.0069 11.3476 57.0732 10.9494 57.0732 10.4849V10.2194Z" fill="black"/>
<path d="M58.6621 12.6084V8.09595H60.1849C60.7146 8.09595 61.0457 8.22867 61.3105 8.42774C61.5754 8.62682 61.7078 8.95862 61.7078 9.35678C61.7078 9.55586 61.6416 9.75493 61.5091 9.88765C61.3767 10.0204 61.2443 10.1531 61.0457 10.2858C61.3105 10.3522 61.4429 10.4849 61.5754 10.684C61.7078 10.883 61.774 11.0821 61.774 11.3476C61.774 11.7457 61.6416 12.0775 61.3767 12.343C61.1119 12.542 60.7146 12.6747 60.2512 12.6747H58.6621V12.6084ZM59.3904 10.0204H60.1849C60.4498 10.0204 60.5822 9.95401 60.7808 9.88765C60.9133 9.75493 60.9795 9.62221 60.9795 9.42314C60.9795 9.22406 60.9133 9.02498 60.7808 8.95862C60.6484 8.89226 60.4498 8.8259 60.1849 8.8259H59.4566V10.0204H59.3904ZM59.3904 10.6176V12.0112H60.2512C60.516 12.0112 60.7146 11.9448 60.847 11.8121C60.9795 11.6794 61.0457 11.5466 61.0457 11.2812C61.0457 10.8167 60.7808 10.5512 60.3174 10.5512H59.3904V10.6176Z" fill="black"/>
<path d="M65.0853 11.5466H63.3638L63.0328 12.6084H62.2383L63.9597 8.09595H64.688L66.4095 12.6084H65.615L65.0853 11.5466ZM63.5625 10.9494H64.8867L64.2246 9.09134L63.5625 10.9494Z" fill="black"/>
<path d="M70.382 12.6084H69.5875V10.6176H67.6012V12.6084H66.8066V8.09595H67.6012V9.95401H69.5875V8.09595H70.382V12.6084Z" fill="black"/>
<path d="M74.023 8.09595H74.8175V12.6084H74.023V9.42314L72.0367 12.6084H71.2422V8.09595H72.0367V11.2812L74.023 8.09595Z" fill="black"/>
<path d="M78.3261 10.6176H76.4722V12.0112H78.5909V12.6084H75.6777V8.09595H78.5909V8.69318H76.4722V9.95401H78.3261V10.6176Z" fill="black"/>
</g>
</g>
<defs>
<clipPath id="clip0_5798_3528">
<rect width="255" height="72" fill="white"/>
</clipPath>
</defs>
</svg>
