<svg width="79" height="78" viewBox="0 0 79 78" fill="none" xmlns="http://www.w3.org/2000/svg">
<g clip-path="url(#clip0_5803_2824)">
<path d="M35.9733 9.28757C20.672 9.28757 8.208 21.8516 8.208 37.2758C8.208 52.7 20.672 65.2641 35.9733 65.2641C36.6826 65.2641 37.2906 65.877 37.2906 66.592C37.2906 67.307 36.6826 67.9199 35.9733 67.9199C19.2533 67.9199 5.57333 54.2322 5.57333 37.2758C5.57333 20.4216 19.152 6.63175 35.9733 6.63175C51.5786 6.63175 64.5493 18.3786 66.1706 34.0071C66.272 34.7222 65.7653 35.335 65.056 35.4372C64.3466 35.5393 63.7386 35.0286 63.6373 34.3136C62.1173 20.013 50.2613 9.28757 35.9733 9.28757ZM37.4933 70.9843C36.9866 70.9843 36.48 70.9843 35.9733 70.9843C17.5307 70.9843 2.53333 55.8666 2.53333 37.2758C2.53333 18.6851 17.5307 3.56734 35.9733 3.56734C53.504 3.56734 68.1973 17.3572 69.312 35.0286C69.4133 35.7436 70.0213 36.2544 70.7306 36.2544C71.44 36.1522 71.9466 35.5393 71.9466 34.8243C70.6293 15.9271 54.8213 1.01367 35.9733 1.01367C16.112 1.01367 0 17.255 0 37.2758C0 57.2966 16.112 73.538 35.9733 73.538C36.5813 73.538 37.088 73.538 37.5946 73.538C38.304 73.538 38.8106 72.9251 38.8106 72.2101C38.8106 71.495 38.2026 70.9843 37.4933 70.9843ZM54.8213 25.6311L40.736 35.1307L41.8506 36.2544C42.3573 36.7651 42.3573 37.5823 41.8506 38.093L36.8853 43.0982C36.6827 43.4046 36.3787 43.5068 35.9733 43.5068C35.6693 43.5068 35.264 43.4046 35.0613 43.0982L30.096 38.093C29.5893 37.5823 29.5893 36.7651 30.096 36.2544L34.656 31.6577V20.4216C34.656 19.7066 35.264 19.0937 35.9733 19.0937C36.6826 19.0937 37.2906 19.7066 37.2906 20.4216V31.6577L38.8106 33.1899L53.4026 23.3838C54.0106 22.9753 54.8213 23.1796 55.2266 23.7924C55.632 24.4053 55.4293 25.2225 54.8213 25.6311ZM39.216 37.2758L38.1013 36.1522C37.8986 36.0501 37.696 35.8458 37.4933 35.6415C37.4933 35.5393 37.4933 35.5393 37.392 35.4372L36.0746 34.1093L32.9333 37.2758L36.0746 40.4424L39.216 37.2758ZM78.3306 54.2322V58.931C78.3306 60.8718 76.8106 62.404 74.8853 62.404H72.656V62.5061C72.5546 62.7104 72.4533 62.9147 72.4533 63.119L74.0746 64.7533C75.392 66.0813 75.392 68.3285 74.0746 69.6564L70.832 72.9251C69.5146 74.253 67.2853 74.253 65.968 72.9251L64.3466 71.2907C64.144 71.3929 63.84 71.495 63.6373 71.5972V73.8444C63.6373 75.7852 62.1173 77.3174 60.192 77.3174H55.5306C53.6053 77.3174 52.0853 75.7852 52.0853 73.8444V71.5972C51.984 71.5972 51.984 71.495 51.8826 71.495C51.7813 71.495 51.68 71.3929 51.5786 71.3929C51.4773 71.3929 51.4773 71.2907 51.376 71.2907L49.6533 72.9251C48.336 74.253 46.1066 74.253 44.7893 72.9251L41.5466 69.6564C40.2293 68.3285 40.2293 66.0813 41.5466 64.7533L43.168 63.119C43.0666 62.9147 42.9653 62.6083 42.864 62.404H40.6346C38.7093 62.404 37.1893 60.8718 37.1893 58.931V54.2322C37.1893 52.2914 38.7093 50.7592 40.6346 50.7592H42.864C42.9653 50.5549 43.0666 50.2485 43.168 50.0442L41.5466 48.4098C40.2293 47.0819 40.2293 44.8347 41.5466 43.5068L44.7893 40.2381C46.1066 38.9102 48.336 38.9102 49.6533 40.2381L51.2746 41.8724C51.4773 41.7703 51.7813 41.6681 51.984 41.566V39.3188C51.984 37.378 53.504 35.8458 55.4293 35.8458H60.0906C62.016 35.8458 63.536 37.378 63.536 39.3188V41.566C63.7386 41.6681 64.0426 41.7703 64.2453 41.8724L65.8666 40.2381C67.184 38.9102 69.4133 38.9102 70.7306 40.2381L73.9733 43.5068C75.2906 44.8347 75.2906 47.0819 73.9733 48.4098L72.352 50.0442C72.352 50.1463 72.4533 50.1463 72.4533 50.2485C72.4533 50.3506 72.5546 50.4528 72.5546 50.5549C72.5546 50.6571 72.656 50.6571 72.656 50.7592H74.8853C76.8106 50.7592 78.3306 52.2914 78.3306 54.2322ZM69.5146 62.9147C69.5146 62.8126 69.5146 62.7104 69.616 62.7104C70.0213 61.9954 70.224 61.2803 70.4266 60.6675C70.4266 60.5653 70.528 60.4632 70.528 60.4632C70.9333 59.2374 71.136 58.0117 71.136 56.5816C71.136 55.2537 70.9333 54.0279 70.6293 52.8022C70.528 52.7 70.528 52.5979 70.4266 52.4957C70.224 51.7807 69.92 51.0657 69.616 50.4528C69.616 50.3506 69.5146 50.2485 69.5146 50.2485C67.8933 47.2862 65.1573 44.9368 61.8133 43.8132C60.5973 43.4046 59.28 43.2003 57.8613 43.2003C50.5653 43.2003 44.5866 49.227 44.5866 56.5816C44.5866 63.9362 50.5653 69.9628 57.8613 69.9628C59.28 69.9628 60.5973 69.7585 61.8133 69.35H61.9146C65.1573 68.2263 67.8933 65.9791 69.5146 62.9147ZM67.5893 42.1789L66.576 43.2003C68.4 44.324 69.92 45.8562 71.0346 47.6948L72.048 46.6733C72.352 46.3669 72.352 45.8562 72.048 45.4476L68.8053 42.1789C68.5013 41.8724 67.9946 41.8724 67.5893 42.1789ZM54.6186 39.4209V40.9531C55.632 40.7488 56.7466 40.6467 57.8613 40.6467C58.8746 40.6467 59.888 40.7488 60.9013 40.9531V39.4209C60.9013 38.9102 60.496 38.6037 60.0906 38.6037H55.4293C54.9226 38.6037 54.6186 39.0123 54.6186 39.4209ZM43.472 46.6733L44.5866 47.797C45.8026 46.0605 47.3226 44.5283 49.0453 43.3025L47.9306 42.1789C47.6266 41.8724 47.12 41.8724 46.7146 42.1789L43.472 45.4476C43.168 45.754 43.168 46.2648 43.472 46.6733ZM40.736 59.7481H42.256C42.0533 58.7267 41.952 57.7052 41.952 56.6837C41.952 55.5601 42.0533 54.4365 42.256 53.415H40.736C40.2293 53.415 39.9253 53.8236 39.9253 54.2322V58.931C39.9253 59.4417 40.3306 59.7481 40.736 59.7481ZM48.944 69.9628C47.2213 68.7371 45.7013 67.2049 44.4853 65.4684L43.472 66.4898C43.168 66.7963 43.168 67.307 43.472 67.7156L46.7146 70.9843C47.0186 71.2907 47.5253 71.2907 47.9306 70.9843L48.944 69.9628ZM60.9013 72.4144C59.888 72.6187 58.8746 72.7208 57.8613 72.7208C56.7466 72.7208 55.632 72.6187 54.6186 72.4144V73.7423C54.6186 74.253 55.024 74.5594 55.4293 74.5594H60.0906C60.5973 74.5594 60.9013 74.1509 60.9013 73.7423V72.4144ZM71.0346 65.4684C69.8186 67.2049 68.2986 68.8392 66.576 69.9628L67.5893 70.9843C67.8933 71.2907 68.4 71.2907 68.8053 70.9843L72.048 67.7156C72.352 67.4092 72.352 66.8984 72.048 66.4898L71.0346 65.4684ZM75.5946 54.2322C75.5946 53.7215 75.1893 53.415 74.784 53.415H73.4666C73.6693 54.4365 73.7706 55.5601 73.7706 56.6837C73.7706 57.7052 73.6693 58.7267 73.4666 59.7481H74.784C75.2906 59.7481 75.5946 59.3396 75.5946 58.931V54.2322ZM57.8613 48.2055C57.152 48.2055 56.544 48.8184 56.544 49.5335C56.544 50.2485 57.152 50.8614 57.8613 50.8614C61.0026 50.8614 63.6373 53.5172 63.6373 56.6837C63.6373 59.8503 61.0026 62.5061 57.8613 62.5061C54.72 62.5061 52.0853 59.9524 52.0853 56.6837C52.0853 55.9687 51.4773 55.3558 50.768 55.3558C50.0586 55.3558 49.4506 55.9687 49.4506 56.6837C49.4506 61.3825 53.2 65.1619 57.8613 65.1619C62.4213 65.1619 66.272 61.3825 66.272 56.6837C66.272 51.985 62.5226 48.2055 57.8613 48.2055Z" fill="black"/>
</g>
<defs>
<clipPath id="clip0_5803_2824">
<rect width="79" height="77" fill="white" transform="translate(0 0.5)"/>
</clipPath>
</defs>
</svg>
