<svg width="50" height="51" viewBox="0 0 50 51" fill="none" xmlns="http://www.w3.org/2000/svg">
<g clip-path="url(#clip0_5804_2828)">
<path fill-rule="evenodd" clip-rule="evenodd" d="M3.5 3.7207C0 7.2207 0 12.8707 0 24.2207V26.2207C0 37.5207 0 43.1707 3.5 46.7207C7 50.2207 12.65 50.2207 24 50.2207H26C37.3 50.2207 42.95 50.2207 46.5 46.7207C50 43.2207 50 37.5707 50 26.2207V24.2207C50 12.9207 50 7.2707 46.5 3.7207C43 0.220703 37.35 0.220703 26 0.220703H24C12.7 0.220703 7.05 0.220703 3.5 3.7207ZM8.45 15.4207C8.7 28.4207 15.2 36.2207 26.6 36.2207H27.25V28.8207C31.45 29.2207 34.6 32.3207 35.85 36.2707H41.75C40.15 30.3707 35.85 27.0707 33.2 25.8207C35.85 24.2707 39.6 20.5207 40.5 15.4707H35.15C34 19.5707 30.55 23.3207 27.25 23.7207V15.4207H21.85V29.8207C18.5 28.9707 14.3 24.9707 14.1 15.4207H8.45Z" fill="black"/>
</g>
<defs>
<clipPath id="clip0_5804_2828">
<rect width="50" height="51" fill="white"/>
</clipPath>
</defs>
</svg>
