<svg width="1921" height="1305" viewBox="0 0 1921 1305" fill="none" xmlns="http://www.w3.org/2000/svg">
<g clip-path="url(#clip0_4809_4536)">
<rect x="0.768555" y="-0.198242" width="1920" height="1305" fill="#F2F4FA"/>
<path d="M1574.18 -203.937L1541.86 -259.991M1606.13 -259.96L1573.74 -203.931M1541.35 521.665L1573.74 465.65L1638.45 465.689M1573.33 465.694L1605.66 521.762M1638.48 466.106L1573.77 466.066L1541.43 409.96L1573.81 353.932L1638.52 353.971M1573.38 353.937L1605.7 409.991L1573.28 466.021M1638.5 354.364L1573.79 354.324L1541.47 298.257L1573.86 242.242L1638.57 242.281M1573.42 242.234L1605.75 298.302L1573.39 354.348M1638.62 242.67L1573.91 242.63L1541.6 186.576L1573.99 130.561L1638.7 130.6M1573.55 130.553L1605.91 186.686L1573.51 242.709M1638.74 131.043L1574.03 130.991L1541.65 74.8188L1574.04 18.8038L1638.74 18.8433M1573.58 18.8037L1605.9 74.858L1573.52 130.886M1638.77 19.2469L1574.06 19.2074L1541.72 -36.8993L1574.12 -92.9217L1638.82 -92.8822M1573.67 -92.9218L1605.99 -36.8544L1573.6 19.1606M1638.81 -92.5103L1574.11 -92.5497L1541.79 -148.604L1574.19 -204.64L1638.89 -204.58M1573.73 -204.619L1606.05 -148.565L1573.66 -92.5368M1735.62 521.713L1670.9 521.681L1638.57 465.601L1670.98 409.578L1735.68 409.618M1670.56 409.643L1702.85 465.646L1670.45 521.661M1735.67 409.99L1670.96 409.95L1638.65 353.896L1671.03 297.868L1735.75 297.9M1670.6 297.873L1702.92 353.928L1670.52 409.943M1735.73 298.292L1671.03 298.253L1638.71 242.185L1671.1 186.17L1735.81 186.202M1670.66 186.163L1702.98 242.23L1670.63 298.29M1735.85 186.619L1671.14 186.58L1638.83 130.525L1671.22 74.5102L1735.92 74.5496M1670.77 74.4895L1703.09 130.557L1670.7 186.572M1735.92 74.9141L1671.23 74.7793L1638.92 18.7249L1671.31 -37.29L1736.01 -37.2506M1670.87 -37.2977L1703.18 18.7567L1670.8 74.7846M1735.99 -36.8038L1671.22 -36.873L1638.9 -92.9404L1671.29 -148.955L1735.99 -148.916M1670.93 -149.008L1703.25 -92.9408L1670.86 -36.9258M1736.08 -148.584L1671.37 -148.636L1639.05 -204.691L1671.43 -260.718L1736.15 -260.666M1670.91 -260.66L1703.23 -204.606L1670.84 -148.578M1768.36 -203.768L1736 -259.901M1800.27 -259.856L1768.02 -203.836M1735.55 521.751L1767.96 465.728L1832.66 465.768M1767.51 465.741L1799.83 521.796M1832.67 466.145L1767.95 466.1L1735.65 410.085L1768.05 354.05L1832.76 354.102M1767.61 354.063L1799.93 410.13L1767.54 466.145M1832.74 354.414L1768.09 354.412L1735.73 298.279L1768.12 242.264L1832.84 242.296M1767.68 242.344L1800.04 298.477L1767.65 354.492M1832.87 242.834L1768.06 242.747L1735.75 186.692L1768.13 130.664L1832.86 130.709M1767.78 130.624L1800.09 186.679L1767.71 242.707M1832.93 131.036L1768.22 130.997L1735.86 74.8639L1768.25 18.849L1832.97 18.8809M1767.81 18.8413L1800.17 74.9741L1767.75 130.991M1832.96 19.3201L1768.3 19.3589L1735.94 -36.7738L1768.33 -92.7887L1833.06 -92.7437M1767.9 -92.7833L1800.22 -36.7289L1767.83 19.299M1833.05 -92.3717L1768.33 -92.4243L1736.02 -148.479L1768.41 -204.494L1833.11 -204.454M1767.97 -204.501L1800.29 -148.434L1767.9 -92.4189M1929.84 521.826L1865.16 521.825L1832.8 465.693L1865.19 409.678L1929.89 409.717M1864.75 409.683L1897.07 465.737L1864.68 521.752M1929.9 410.095L1865.19 410.055L1832.89 354.014L1865.28 297.999L1929.98 298.038M1864.84 297.991L1897.16 354.059L1864.77 410.074M1929.96 298.364L1865.26 298.324L1832.96 242.296L1865.35 186.281L1930.05 186.32M1864.92 186.286L1897.28 242.419L1864.89 298.434M1930.11 186.776L1865.39 186.724L1833.03 130.591L1865.43 74.5759L1930.13 74.6154M1864.99 74.5683L1897.3 130.623L1864.92 186.651M1930.15 74.9722L1865.44 74.9329L1833.12 18.8654L1865.51 -37.1496L1930.23 -37.1177M1865.07 -37.1573L1897.39 18.9102L1864.97 74.9402M1930.2 -36.7381L1865.5 -36.7776L1833.18 -92.8321L1865.59 -148.855L1930.28 -148.808M1865.12 -148.847L1897.43 -92.7927L1865.05 -36.7648M1930.28 -148.443L1865.56 -148.475L1833.24 -204.542L1865.64 -260.565L1930.35 -260.525M1865.19 -260.565L1897.51 -204.498L1865.12 -148.483M1962.2 -204.254L1929.87 -260.322M1994.15 -260.277L1961.76 -204.262M1929.38 521.326L1961.77 465.312L2026.47 465.351M1961.34 465.317L1993.65 521.371M2026.48 465.728L1961.77 465.676L1929.45 409.622L1961.84 353.607L2026.55 353.646M1961.41 353.599L1993.72 409.653L1961.32 465.689M2026.54 353.997L1961.84 353.958L1929.52 297.904L1961.91 241.889L2026.62 241.928M1961.48 241.928L1993.81 297.995L1961.42 354.01M2026.65 242.345L1961.94 242.292L1929.6 186.199L1962 130.176L2026.7 130.223M1961.54 130.184L1993.85 186.238L1961.47 242.266M2026.7 130.588L1961.98 130.556L1929.66 74.4882L1962.06 18.4658L2026.77 18.5052M1961.61 18.4656L1993.93 74.5331L1961.56 130.574M2026.83 18.832L1962.12 18.8001L1929.82 -37.2283L1962.2 -93.2899L2026.86 -93.1736M1961.7 -93.2132L1994 -37.1849L1961.62 18.8431M2026.82 -92.8202L1962.1 -92.8522L1929.74 -148.985L1962.18 -204.942L2026.89 -204.903M1961.73 -204.942L1994.04 -148.888L1961.66 -92.8599M2123.62 521.37L2058.92 521.33L2026.6 465.276L2058.99 409.261L2123.7 409.3M2058.55 409.24L2090.91 465.373L2058.52 521.388M2123.74 409.73L2059.04 409.582L2026.73 353.528L2059.11 297.5L2123.82 297.552M2058.68 297.505L2090.99 353.559L2058.61 409.587M2123.77 297.947L2059.03 297.93L2026.7 241.862L2059.09 185.847L2123.8 185.887M2058.76 185.847L2091.09 241.914L2058.7 297.929M2123.92 186.272L2059.2 186.219L2026.86 130.112L2059.25 74.0973L2123.96 74.1368M2058.72 74.1424L2091.03 130.197L2058.65 186.225M2123.87 74.554L2059.16 74.5144L2026.84 18.447L2059.23 -37.5679L2123.93 -37.5285M2058.79 -37.5756L2091.11 18.4919L2058.78 74.5233M2124.01 -37.155L2059.31 -37.1945L2026.99 -93.2489L2059.37 -149.277L2124.09 -149.224M2058.94 -149.272L2091.26 -93.2171L2058.86 -37.2488M2124.09 -148.914L2059.39 -148.954L2027.06 -205.021L2059.47 -261.044L2124.17 -261.004M2059.01 -261.044L2091.34 -204.976L2058.95 -148.961M2156.47 -204.159L2124.16 -260.213M2188.43 -260.182L2156 -204.144M2123.56 521.495L2156.01 465.463L2220.73 465.508M2155.59 465.427L2187.9 521.482M2220.73 465.839L2156.03 465.799L2123.67 409.667L2156.06 353.652L2220.78 353.684M2155.62 353.644L2187.98 409.777L2155.59 465.792M2220.8 354.121L2156.08 354.11L2123.76 298.042L2156.14 242.014L2220.87 242.059M2155.71 242.019L2188.02 298.074L2155.64 354.102M2220.85 242.431L2156.15 242.392L2123.83 186.324L2156.22 130.309L2220.94 130.341M2155.78 130.301L2188.1 186.369L2155.71 242.384M2220.92 130.713L2156.22 130.674L2123.86 74.5409L2156.25 18.5259L2220.97 18.5579M2155.84 18.5704L2188.2 74.7032L2155.81 130.718M2221.03 19.0604L2156.32 19.0078L2123.97 -37.0988L2156.39 -93.0615L2221.1 -93.022M2155.96 -93.0691L2188.27 -37.0147L2155.89 19.0132M2221.1 -92.6576L2156.4 -92.697L2124.04 -148.817L2156.43 -204.832L2221.14 -204.792M2156 -204.839L2188.32 -148.772L2155.91 -92.7831M2317.87 521.501L2253.16 521.448L2220.84 465.394L2253.25 409.405L2317.95 409.444M2252.81 409.397L2285.12 465.452L2252.74 521.48M2317.96 409.809L2253.25 409.769L2220.89 353.637L2253.28 297.622L2318.04 297.685M2252.89 297.638L2285.25 353.771L2252.75 409.691M2317.98 298.012L2253.32 298.051L2220.96 241.919L2253.34 185.891L2318.06 185.943M2252.9 185.903L2285.21 241.958L2252.82 297.993M2318.04 186.315L2253.33 186.283L2221.03 130.268L2253.44 74.2453L2318.14 74.2849M2252.98 74.2452L2285.31 130.313L2252.9 186.335M2318.13 74.5895L2253.41 74.5576L2221.05 18.4248L2253.45 -37.5976L2318.17 -37.5451M2253.07 -37.4803L2285.43 18.6525L2253.04 74.6673M2318.27 -36.9979L2253.55 -37.0429L2221.19 -93.1625L2253.6 -149.185L2318.3 -149.146M2253.14 -149.185L2285.47 -93.1178L2253.08 -37.1028M2318.29 -148.774L2253.59 -148.813L2221.23 -204.946L2253.62 -260.961L2318.33 -260.929M2253.18 -260.968L2285.54 -204.836L2253.14 -148.834" stroke="#28A3FC" stroke-opacity="0.2" stroke-width="1.38667" stroke-miterlimit="10" stroke-linecap="round"/>
<path d="M1573.71 578.404L1541.41 522.363M1605.68 522.408L1573.29 578.423M1540.84 1304.02L1573.23 1248L1637.95 1248.03M1572.79 1247.99L1605.15 1304.13M1637.98 1248.47L1573.26 1248.4L1540.9 1192.27L1573.28 1136.24L1637.94 1136.33M1572.87 1136.29L1605.19 1192.34L1572.8 1248.36M1638.02 1136.7L1573.31 1136.66L1540.99 1080.59L1573.38 1024.58L1638.09 1024.62M1572.94 1024.57L1605.26 1080.64L1572.87 1136.65M1638.08 1024.93L1573.37 1024.9L1541.07 968.867L1573.46 912.852L1638.18 912.905M1573.02 912.865L1605.33 968.919L1572.94 1024.93M1638.16 913.277L1573.46 913.237L1541.1 857.104L1573.49 801.089L1638.2 801.129M1573.05 801.082L1605.41 857.214L1573.02 913.23M1638.23 801.559L1573.53 801.519L1541.21 745.452L1573.6 689.437L1638.3 689.476M1573.17 689.442L1605.48 745.497L1573.09 801.512M1638.31 689.854L1573.59 689.809L1541.27 633.754L1573.66 577.739L1638.38 577.771M1573.3 577.687L1605.62 633.741L1573.22 689.776M1735.17 1304.01L1670.46 1303.97L1638.1 1247.84L1670.51 1191.82L1735.21 1191.86M1670 1191.94L1702.36 1248.07L1669.93 1303.99M1735.17 1192.32L1670.44 1192.28L1638.12 1136.22L1670.52 1080.19L1735.23 1080.24M1670.08 1080.2L1702.39 1136.25L1670 1192.27M1735.24 1080.6L1670.52 1080.57L1638.16 1024.44L1670.56 968.415L1735.27 968.454M1670.11 968.415L1702.43 1024.48L1670.14 1080.56M1735.31 968.884L1670.59 968.852L1638.28 912.811L1670.67 856.796L1735.4 856.841M1670.25 856.814L1702.56 912.869L1670.12 968.893M1735.35 857.235L1670.64 857.196L1638.28 801.063L1670.67 745.048L1735.39 745.08M1670.23 745.041L1702.59 801.173L1670.24 857.166M1735.45 745.495L1670.75 745.455L1638.43 689.388L1670.82 633.373L1735.54 633.405M1670.38 633.378L1702.7 689.433L1670.32 745.461M1735.54 633.803L1670.83 633.75L1638.51 577.696L1670.9 521.681L1735.61 521.721M1670.46 521.673L1702.78 577.728L1670.39 633.756M1767.91 578.566L1735.55 522.433M1799.82 522.478L1767.43 578.493M1735.06 1304.09L1767.44 1248.07L1832.15 1248.11M1767.01 1248.07L1799.35 1304.17M1832.18 1248.52L1767.47 1248.47L1735.15 1192.42L1767.54 1136.4L1832.25 1136.44M1767.1 1136.39L1799.46 1192.53L1767.07 1248.54M1832.29 1136.87L1767.57 1136.84L1735.21 1080.71L1767.6 1024.69L1832.3 1024.73M1767.16 1024.68L1799.52 1080.82L1767.13 1136.83M1832.36 1025.16L1767.6 1025.05L1735.29 969.013L1767.68 912.998L1832.39 913.038M1767.24 912.991L1799.56 969.045L1767.18 1025.07M1832.4 913.395L1767.68 913.363L1735.36 857.295L1767.75 801.28L1832.47 801.312M1767.31 801.273L1799.67 857.405L1767.28 913.42M1832.52 801.755L1767.79 801.71L1735.44 745.59L1767.82 689.562L1832.55 689.607M1767.36 689.515L1799.72 745.648L1767.34 801.676M1832.57 689.998L1767.85 689.966L1735.51 633.872L1767.91 577.883L1832.63 577.915M1767.48 577.876L1799.8 633.943L1767.41 689.958M1929.33 1304.18L1864.62 1304.14L1832.31 1248.08L1864.69 1192.05L1929.42 1192.1M1864.26 1192.06L1896.58 1248.11L1864.18 1304.13M1929.41 1192.47L1864.7 1192.43L1832.34 1136.3L1864.81 1080.33L1929.53 1080.36M1864.37 1080.32L1896.73 1136.45L1864.34 1192.47M1929.55 1080.8L1864.85 1080.76L1832.49 1024.62L1864.79 968.662L1929.49 968.701M1864.35 968.654L1896.71 1024.79L1864.32 1080.8M1929.54 969.144L1864.84 968.996L1832.53 912.942L1864.92 856.927L1929.62 856.966M1864.48 856.919L1896.79 912.974L1864.41 969.002M1929.62 857.331L1864.93 857.284L1832.61 801.216L1865 745.201L1929.7 745.241M1864.56 745.194L1896.88 801.261L1864.49 857.276M1929.71 745.618L1865 745.566L1832.69 689.511L1865.07 633.483L1929.78 633.536M1864.6 633.457L1896.96 689.59L1864.56 745.625M1929.79 633.947L1865.09 633.907L1832.74 577.801L1865.16 521.825L1929.86 521.865M1864.72 521.817L1897.04 577.885L1864.63 633.907M1961.71 578.136L1929.35 522.003M1993.61 522.055L1961.22 578.07M1928.87 1303.68L1961.26 1247.66L2025.98 1247.69M1960.8 1247.62L1993.16 1303.75M2025.99 1248.11L1961.28 1248.07L1928.92 1191.93L1961.31 1135.92L2026.02 1135.96M1960.87 1135.91L1993.23 1192.04L1960.84 1248.06M2026.06 1136.39L1961.35 1136.35L1928.99 1080.22L1961.38 1024.2L2026.09 1024.24M1960.95 1024.21L1993.27 1080.26L1960.87 1136.26M2026.09 1024.6L1961.41 1024.64L1929.05 968.505L1961.44 912.49L2026.16 912.522M1961.11 912.489L1993.42 968.544L1961.04 1024.57M2026.25 912.901L1961.55 912.861L1929.23 856.794L1961.62 800.779L2026.32 800.819M1961.09 800.824L1993.41 856.891L1961.01 912.914M2026.23 801.168L1961.52 801.129L1929.24 745.127L1961.62 689.099L2026.34 689.151M1961.18 689.091L1993.54 745.224L1961.15 801.259M2026.37 689.581L1961.67 689.541L1929.31 633.409L1961.71 577.386L2026.42 577.426M1961.26 577.386L1993.62 633.519L1961.23 689.446M2123.18 1303.68L2058.46 1303.65L2026.14 1247.58L2058.54 1191.56L2123.26 1191.61M2058.02 1191.56L2090.38 1247.7L2057.93 1303.7M2123.15 1192.04L2058.45 1192L2026.09 1135.87L2058.49 1079.84L2123.2 1079.88M2058.04 1079.84L2090.4 1135.98L2058.01 1191.99M2123.22 1080.32L2058.52 1080.28L2026.16 1024.15L2058.55 968.133L2123.27 968.165M2058.12 968.138L2090.43 1024.19L2058.09 1080.21M2123.32 968.554L2058.65 968.579L2026.29 912.447L2058.68 856.432L2123.4 856.464M2123.32 968.554L2155.68 1024.69L2220.4 1024.72M2123.32 968.554L2155.72 912.531L2220.43 912.571M2058.24 856.424L2090.56 912.478L2058.17 968.507M2123.39 856.836L2058.68 856.796L2026.38 800.768L2058.77 744.753L2123.48 744.792M2123.39 856.836L2155.75 912.968L2220.47 913M2123.39 856.836L2155.79 800.813L2220.5 800.853M2058.33 744.745L2090.66 800.813L2058.26 856.828M2123.46 745.118L2058.75 745.078L2026.46 689.063L2058.84 633.035L2123.54 633.095M2058.41 633.04L2090.72 689.095L2058.34 745.123M2123.56 633.452L2058.85 633.412L2026.49 577.28L2058.88 521.265L2123.59 521.304M2058.44 521.257L2090.8 577.39L2058.41 633.405M2155.93 578.214L2123.61 522.16M2187.88 522.192L2155.49 578.22M2123.11 1303.81L2155.5 1247.78L2220.21 1247.83M2155.07 1247.79L2187.38 1303.84M2220.22 1248.19L2155.52 1248.15L2123.2 1192.08L2155.59 1136.07L2220.29 1136.11M2155.14 1136.07L2187.5 1192.2L2155.1 1248.22M2220.34 1136.55L2155.63 1136.5L2123.27 1080.38L2155.68 1024.36L2220.41 1024.38M2155.25 1024.34L2187.55 1080.37L2155.17 1136.4M2155.27 912.531L2187.63 968.664L2155.24 1024.68M2155.35 800.826L2187.66 856.88L2155.28 912.908M2220.53 801.336L2155.76 801.28L2123.46 745.252L2155.89 689.215L2220.61 689.247M2155.46 689.207L2187.78 745.274L2155.39 801.289M2220.51 689.671L2155.8 689.632L2123.44 633.499L2155.87 577.549L2220.59 577.581M2155.44 577.555L2187.76 633.609L2155.37 689.624M2317.31 1303.88L2252.62 1303.75L2220.33 1247.74L2252.72 1191.73L2317.43 1191.77M2252.29 1191.72L2284.65 1247.85L2252.25 1303.87M2317.47 1192.2L2252.74 1192.09L2220.42 1136.02L2252.81 1080L2317.51 1080.04M2252.37 1080L2284.73 1136.13L2252.34 1192.14M2317.56 1080.49L2252.85 1080.43L2220.53 1024.38L2252.92 968.365L2317.63 968.404M2252.43 968.299L2284.74 1024.34L2252.36 1080.37M2317.57 968.698L2252.87 968.658L2220.51 912.525L2252.9 856.51L2317.6 856.55M2252.46 856.503L2284.82 912.636L2252.41 968.658M2317.64 856.98L2252.93 856.94L2220.57 800.807L2252.97 744.792L2317.68 744.845M2252.53 744.798L2284.85 800.852L2252.45 856.888M2317.68 745.209L2253 745.222L2220.7 689.181L2253.1 633.158L2317.81 633.198M2252.66 633.151L2284.98 689.218L2252.55 745.256M2317.78 633.577L2253.08 633.538L2220.75 577.47L2253.16 521.448L2317.86 521.487M2252.71 521.461L2285.03 577.515L2252.64 633.53" stroke="#28A3FC" stroke-opacity="0.2" stroke-width="1.38667" stroke-miterlimit="10" stroke-linecap="round"/>
<path d="M-0.231445 0.801758L1920.77 0.801758V182.378L-0.231445 1075.8L-0.231445 0.801758Z" fill="#DEE5F2" fill-opacity="0.4"/>
<path d="M-0.231445 0.801758L1920.77 0.801758V182.378L-0.231445 1075.8L-0.231445 0.801758Z" fill="url(#paint0_linear_4809_4536)" fill-opacity="0.3"/>
</g>
<defs>
<linearGradient id="paint0_linear_4809_4536" x1="1016.65" y1="-14.7116" x2="1305.83" y2="716.997" gradientUnits="userSpaceOnUse">
<stop stop-color="#007BEC"/>
<stop offset="0.675941" stop-color="#49A8FF" stop-opacity="0"/>
<stop offset="1" stop-color="#F8F8F8" stop-opacity="0"/>
</linearGradient>
<clipPath id="clip0_4809_4536">
<rect width="1921" height="1305" fill="white"/>
</clipPath>
</defs>
</svg>
