<svg width="1134" height="869" viewBox="0 0 1134 869" fill="none" xmlns="http://www.w3.org/2000/svg">
<g clip-path="url(#clip0_6335_5846)">
<path d="M718.002 650.365H674.92V144.503L717.751 130.951L718.002 650.365Z" fill="#0272B0"/>
<path d="M718.002 651.287H674.92C674.418 651.287 674 650.868 674 650.366V144.505C674 144.087 674.251 143.752 674.669 143.585L717.501 130.033C717.752 129.949 718.086 130.033 718.337 130.2C718.588 130.367 718.755 130.618 718.755 130.953L719.006 650.366C719.006 650.617 718.923 650.868 718.755 651.036C718.421 651.203 718.17 651.287 718.002 651.287ZM675.84 649.446H717.082L716.831 132.208L675.84 145.174V649.446Z" fill="#0272B0"/>
<path d="M884.392 650.368H718.169C717.918 650.368 717.751 650.201 717.751 649.867V131.457C717.751 131.206 717.918 130.955 718.169 130.955L884.392 135.64C884.643 135.64 884.81 135.891 884.81 136.142V649.867C884.81 650.118 884.643 650.368 884.392 650.368Z" fill="white"/>
<path d="M884.391 651.289H718.169C717.416 651.289 716.83 650.703 716.83 649.867V131.457C716.83 131.039 716.997 130.704 717.248 130.453C717.499 130.202 717.834 130.035 718.252 130.035L884.474 134.72C885.227 134.72 885.813 135.389 885.813 136.142V649.867C885.729 650.62 885.144 651.289 884.391 651.289ZM718.67 649.449H883.889V136.644L718.67 131.959V649.449Z" fill="black"/>
<path d="M826.418 454.281C825.916 454.281 825.498 453.863 825.498 453.361V162.66C825.498 162.159 825.916 161.74 826.418 161.74C826.92 161.74 827.338 162.159 827.338 162.66V453.278C827.338 453.863 826.92 454.281 826.418 454.281Z" fill="black"/>
<path d="M745.524 222.976C745.022 222.976 744.604 222.558 744.604 222.056V191.02C744.604 190.518 745.022 190.1 745.524 190.1C746.026 190.1 746.444 190.518 746.444 191.02V222.056C746.528 222.558 746.109 222.976 745.524 222.976Z" fill="black"/>
<path d="M745.524 537.435C745.022 537.435 744.604 537.017 744.604 536.515V382.088C744.604 381.586 745.022 381.168 745.524 381.168C746.026 381.168 746.444 381.586 746.444 382.088V536.515C746.528 537.017 746.109 537.435 745.524 537.435Z" fill="black"/>
<path d="M857.036 392.878C856.534 392.878 856.116 392.46 856.116 391.958V360.922C856.116 360.42 856.534 360.002 857.036 360.002C857.538 360.002 857.957 360.42 857.957 360.922V391.958C857.957 392.46 857.538 392.878 857.036 392.878Z" fill="black"/>
<path d="M540.878 650.489H503.579V212.53L540.661 200.797L540.878 650.489Z" fill="#0272B0"/>
<path d="M540.878 651.287H503.579C503.144 651.287 502.782 650.925 502.782 650.49V212.531C502.782 212.169 502.999 211.879 503.362 211.734L540.444 200.001C540.661 199.929 540.951 200.001 541.168 200.146C541.385 200.291 541.53 200.508 541.53 200.798L541.747 650.49C541.747 650.707 541.675 650.925 541.53 651.069C541.24 651.214 541.023 651.287 540.878 651.287ZM504.376 649.693H540.082L539.864 201.884L504.376 213.11V649.693Z" fill="#0272B0"/>
<path d="M684.933 650.491H541.022C540.805 650.491 540.66 650.346 540.66 650.057V201.233C540.66 201.016 540.805 200.799 541.022 200.799L684.933 204.855C685.15 204.855 685.295 205.072 685.295 205.289V650.057C685.295 650.274 685.15 650.491 684.933 650.491Z" fill="white"/>
<path d="M684.932 651.288H541.022C540.37 651.288 539.863 650.781 539.863 650.056V201.233C539.863 200.871 540.008 200.581 540.225 200.364C540.443 200.147 540.732 200.002 541.094 200.002L685.005 204.058C685.657 204.058 686.164 204.637 686.164 205.289V650.056C686.091 650.708 685.584 651.288 684.932 651.288ZM541.457 649.694H684.498V205.724L541.457 201.668V649.694Z" fill="black"/>
<path d="M634.742 480.724C634.307 480.724 633.945 480.362 633.945 479.928V228.248C633.945 227.813 634.307 227.451 634.742 227.451C635.177 227.451 635.539 227.813 635.539 228.248V479.855C635.539 480.362 635.177 480.724 634.742 480.724Z" fill="black"/>
<path d="M564.706 280.467C564.271 280.467 563.909 280.105 563.909 279.671V252.801C563.909 252.366 564.271 252.004 564.706 252.004C565.14 252.004 565.503 252.366 565.503 252.801V279.671C565.575 280.105 565.213 280.467 564.706 280.467Z" fill="black"/>
<path d="M564.706 552.717C564.271 552.717 563.909 552.355 563.909 551.921V418.222C563.909 417.788 564.271 417.426 564.706 417.426C565.14 417.426 565.503 417.788 565.503 418.222V551.921C565.575 552.355 565.213 552.717 564.706 552.717Z" fill="black"/>
<path d="M661.25 427.563C660.815 427.563 660.453 427.201 660.453 426.766V399.896C660.453 399.462 660.815 399.1 661.25 399.1C661.684 399.1 662.046 399.462 662.046 399.896V426.766C662.046 427.201 661.684 427.563 661.25 427.563Z" fill="black"/>
<path d="M375.601 650.49H338.446V408.008L375.601 399.824V650.49Z" fill="#0272B0"/>
<path d="M375.6 651.288H338.518C338.084 651.288 337.722 650.925 337.722 650.491V408.009C337.722 407.647 338.011 407.285 338.374 407.212L375.456 399.101C375.673 399.028 375.963 399.101 376.107 399.246C376.325 399.39 376.397 399.608 376.397 399.897V650.491C376.397 650.925 376.035 651.288 375.6 651.288ZM339.315 649.694H374.804V400.839L339.315 408.588V649.694Z" fill="black"/>
<path d="M515.165 650.492H375.601V400.261C375.601 400.043 375.818 399.826 376.035 399.826L515.165 403.23V650.492Z" fill="white"/>
<path d="M515.165 651.289H375.6C375.166 651.289 374.804 650.927 374.804 650.492V400.261C374.804 399.898 374.949 399.609 375.166 399.391C375.383 399.174 375.745 399.029 376.035 399.029L515.165 402.433C515.6 402.433 515.962 402.795 515.962 403.23V650.492C515.962 650.927 515.6 651.289 515.165 651.289ZM376.397 649.695H514.368V404.027L376.397 400.695V649.695Z" fill="black"/>
<path d="M402.471 592.696C402.036 592.696 401.674 592.334 401.674 591.9V424.451C401.674 424.016 402.036 423.654 402.471 423.654C402.905 423.654 403.267 424.016 403.267 424.451V591.9C403.267 592.334 402.905 592.696 402.471 592.696Z" fill="black"/>
<path d="M493.872 607.038C493.437 607.038 493.075 606.676 493.075 606.241V438.793C493.075 438.358 493.437 437.996 493.872 437.996C494.306 437.996 494.669 438.358 494.669 438.793V606.241C494.669 606.676 494.306 607.038 493.872 607.038Z" fill="black"/>
<path d="M467.364 559.018C466.929 559.018 466.567 558.656 466.567 558.221V533.162C466.567 532.727 466.929 532.365 467.364 532.365C467.799 532.365 468.161 532.727 468.161 533.162V558.221C468.161 558.656 467.799 559.018 467.364 559.018Z" fill="black"/>
<path d="M202.865 650.492H165.421V530.772L202.503 523.457L202.865 650.492Z" fill="#0272B0"/>
<path d="M202.865 651.29H165.421C164.986 651.29 164.624 650.927 164.624 650.493V530.773C164.624 530.411 164.914 530.049 165.276 529.976L202.358 522.661C202.575 522.589 202.865 522.661 203.01 522.806C203.227 522.951 203.299 523.168 203.299 523.458L203.662 650.493C203.662 650.71 203.589 650.927 203.444 651.072C203.299 651.217 203.082 651.29 202.865 651.29ZM166.217 649.696H202.068L201.706 524.472L166.217 531.497V649.696Z" fill="black"/>
<path d="M348.224 650.492H202.865C202.648 650.492 202.503 650.347 202.503 650.13V523.819C202.503 523.602 202.648 523.457 202.865 523.457L348.296 525.123C348.514 525.123 348.658 525.268 348.658 525.485V650.202C348.586 650.347 348.441 650.492 348.224 650.492Z" fill="white"/>
<path d="M348.224 651.289H202.865C202.213 651.289 201.706 650.782 201.706 650.13V523.819C201.706 523.529 201.851 523.24 202.068 523.022C202.285 522.805 202.575 522.66 202.937 522.66L348.368 524.326C349.02 524.326 349.527 524.833 349.527 525.485V650.202C349.382 650.782 348.875 651.289 348.224 651.289ZM203.299 649.695H347.789V525.847L203.299 524.254V649.695Z" fill="black"/>
<path d="M318.022 626.373C317.588 626.373 317.226 626.011 317.226 625.576V541.49C317.226 541.055 317.588 540.693 318.022 540.693C318.457 540.693 318.819 541.055 318.819 541.49V625.576C318.819 626.011 318.457 626.373 318.022 626.373Z" fill="black"/>
<path d="M241.323 604.138C240.889 604.138 240.526 603.776 240.526 603.341V584.945C240.526 584.511 240.889 584.148 241.323 584.148C241.758 584.148 242.12 584.511 242.12 584.945V603.341C242.12 603.776 241.758 604.138 241.323 604.138Z" fill="black"/>
<path d="M38.2411 650.489H0.796875V599.139L37.8789 592.91L38.2411 650.489Z" fill="#0272B0"/>
<path d="M38.2409 651.286H0.796685C0.362129 651.286 0 650.924 0 650.49V599.14C0 598.778 0.289704 598.415 0.651833 598.343L37.7339 592.114C37.9512 592.042 38.2409 592.114 38.3857 592.259C38.603 592.404 38.6754 592.621 38.6754 592.839L39.0376 650.417C39.0376 650.634 38.9651 650.852 38.8203 650.997C38.6754 651.214 38.4581 651.286 38.2409 651.286ZM1.59337 649.693H37.4442L37.0821 593.853L1.59337 599.864V649.693Z" fill="black"/>
<path d="M178.602 650.489H38.241C38.0238 650.489 37.8789 650.416 37.8789 650.272V593.055C37.8789 592.983 38.0238 592.838 38.241 592.838L178.602 593.707C178.82 593.707 178.965 593.779 178.965 593.924V650.199C178.965 650.416 178.747 650.489 178.602 650.489Z" fill="white"/>
<path d="M178.602 651.285H38.2408C37.589 651.285 37.082 650.851 37.082 650.271V593.055C37.082 592.838 37.1545 592.548 37.3717 592.403C37.589 592.186 37.9511 592.041 38.2408 592.041L178.602 592.91C179.254 592.91 179.761 593.345 179.761 593.924V650.199C179.761 650.851 179.254 651.285 178.602 651.285ZM38.6754 649.692H178.095V594.648L38.6754 593.779V649.692Z" fill="black"/>
<path d="M148.329 637.669C147.894 637.669 147.532 637.307 147.532 636.872V602.76C147.532 602.325 147.894 601.963 148.329 601.963C148.763 601.963 149.126 602.325 149.126 602.76V636.872C149.126 637.307 148.763 637.669 148.329 637.669Z" fill="black"/>
<path d="M76.699 625.502C76.2645 625.502 75.9023 625.14 75.9023 624.706V614.638C75.9023 614.204 76.2645 613.842 76.699 613.842C77.1336 613.842 77.4957 614.204 77.4957 614.638V624.706C77.5681 625.14 77.206 625.502 76.699 625.502Z" fill="black"/>
<path d="M88.2725 569H57.1885V561.383L67.6475 550.807C69.8154 548.541 71.4951 546.725 72.6865 545.357C73.8975 543.99 74.7471 542.828 75.2354 541.871C75.7236 540.914 75.9678 539.918 75.9678 538.883C75.9678 537.613 75.5576 536.695 74.7373 536.129C73.917 535.562 72.9502 535.279 71.8369 535.279C70.4893 535.279 69.1221 535.67 67.7354 536.451C66.3682 537.213 64.8154 538.346 63.0771 539.85L56.7197 532.408C58.0088 531.256 59.376 530.162 60.8213 529.127C62.2666 528.072 63.9756 527.213 65.9482 526.549C67.9209 525.885 70.3232 525.553 73.1553 525.553C76.0654 525.553 78.585 526.061 80.7139 527.076C82.8623 528.092 84.5225 529.488 85.6943 531.266C86.8662 533.023 87.4521 535.025 87.4521 537.271C87.4521 539.752 86.9932 541.969 86.0752 543.922C85.1768 545.855 83.8193 547.799 82.0029 549.752C80.1865 551.686 77.9209 553.883 75.2061 556.344L72.0713 559.156V559.449H88.2725V569ZM118.155 569H106.407V547.818C106.407 547.428 106.407 546.715 106.407 545.68C106.407 544.625 106.417 543.463 106.437 542.193C106.476 540.924 106.524 539.781 106.583 538.766C106.075 539.371 105.597 539.889 105.147 540.318C104.718 540.748 104.298 541.148 103.888 541.52L99.0244 545.533L93.0186 538.15L107.726 526.168H118.155V569Z" fill="#272935"/>
<path d="M72.5268 460.716L163.275 370.148L196.401 493.777L72.5268 460.716Z" fill="url(#paint0_linear_6335_5846)" fill-opacity="0.22"/>
</g>
<path d="M574.999 168H563.251V146.818C563.251 146.428 563.251 145.715 563.251 144.68C563.251 143.625 563.261 142.463 563.28 141.193C563.319 139.924 563.368 138.781 563.427 137.766C562.919 138.371 562.44 138.889 561.991 139.318C561.562 139.748 561.142 140.148 560.731 140.52L555.868 144.533L549.862 137.15L564.569 125.168H574.999V168ZM615.663 143.947C615.663 147.014 615.39 149.826 614.843 152.385C614.315 154.943 613.485 157.229 612.353 159.24C611.239 161.232 609.804 162.932 608.046 164.338C606.288 165.725 604.188 166.779 601.747 167.502C599.306 168.225 596.493 168.586 593.31 168.586C592.431 168.586 591.405 168.566 590.233 168.527C589.081 168.488 588.104 168.41 587.304 168.293V159.123C588.144 159.26 588.983 159.377 589.823 159.475C590.663 159.553 591.64 159.592 592.753 159.592C595.976 159.592 598.466 159.133 600.224 158.215C602.001 157.297 603.251 156.027 603.974 154.406C604.696 152.766 605.116 150.881 605.233 148.752H604.882C604.374 149.709 603.759 150.568 603.036 151.33C602.313 152.072 601.405 152.658 600.312 153.088C599.218 153.518 597.86 153.732 596.239 153.732C593.837 153.732 591.747 153.186 589.97 152.092C588.212 150.998 586.845 149.416 585.868 147.346C584.892 145.256 584.403 142.717 584.403 139.729C584.403 136.545 585.009 133.83 586.22 131.584C587.45 129.318 589.198 127.58 591.464 126.369C593.749 125.158 596.464 124.553 599.608 124.553C601.835 124.553 603.915 124.934 605.849 125.695C607.802 126.457 609.511 127.629 610.976 129.211C612.44 130.773 613.583 132.775 614.403 135.217C615.243 137.658 615.663 140.568 615.663 143.947ZM599.901 133.811C598.554 133.811 597.499 134.27 596.737 135.188C595.995 136.105 595.624 137.58 595.624 139.611C595.624 141.213 595.976 142.482 596.679 143.42C597.382 144.357 598.417 144.826 599.784 144.826C600.644 144.826 601.396 144.602 602.04 144.152C602.704 143.684 603.222 143.098 603.593 142.395C603.964 141.672 604.149 140.93 604.149 140.168C604.149 139.406 604.062 138.654 603.886 137.912C603.729 137.15 603.476 136.467 603.124 135.861C602.792 135.236 602.353 134.738 601.806 134.367C601.278 133.996 600.644 133.811 599.901 133.811ZM635.409 124.553C638.241 124.553 640.722 124.934 642.851 125.695C644.999 126.457 646.679 127.619 647.89 129.182C649.101 130.725 649.706 132.668 649.706 135.012C649.706 136.73 649.384 138.244 648.739 139.553C648.114 140.842 647.245 141.975 646.132 142.951C645.038 143.908 643.769 144.738 642.323 145.441C643.671 146.203 645.009 147.092 646.337 148.107C647.665 149.123 648.769 150.324 649.647 151.711C650.526 153.078 650.966 154.709 650.966 156.604C650.966 158.889 650.409 160.939 649.296 162.756C648.183 164.553 646.474 165.979 644.169 167.033C641.864 168.068 638.905 168.586 635.292 168.586C631.679 168.586 628.72 168.088 626.415 167.092C624.11 166.096 622.411 164.709 621.317 162.932C620.243 161.135 619.706 159.064 619.706 156.721C619.706 154.729 620.038 153.049 620.702 151.682C621.386 150.314 622.313 149.152 623.485 148.195C624.657 147.238 625.995 146.379 627.499 145.617C626.308 144.816 625.214 143.908 624.218 142.893C623.222 141.877 622.431 140.715 621.845 139.406C621.259 138.098 620.966 136.613 620.966 134.953C620.966 132.648 621.581 130.725 622.812 129.182C624.042 127.639 625.741 126.486 627.909 125.725C630.097 124.943 632.597 124.553 635.409 124.553ZM630.312 156.252C630.312 157.443 630.741 158.41 631.601 159.152C632.46 159.895 633.651 160.266 635.175 160.266C636.952 160.266 638.251 159.934 639.071 159.27C639.911 158.586 640.331 157.658 640.331 156.486C640.331 155.607 640.067 154.816 639.54 154.113C639.032 153.391 638.437 152.766 637.753 152.238C637.069 151.711 636.474 151.301 635.966 151.008L635.175 150.539C634.296 150.988 633.485 151.496 632.743 152.062C632.021 152.609 631.435 153.234 630.985 153.938C630.536 154.621 630.312 155.393 630.312 156.252ZM635.351 132.902C634.394 132.902 633.563 133.186 632.86 133.752C632.157 134.299 631.806 135.051 631.806 136.008C631.806 136.633 631.952 137.219 632.245 137.766C632.558 138.293 632.968 138.781 633.476 139.23C634.003 139.68 634.589 140.09 635.233 140.461C635.8 140.129 636.356 139.768 636.903 139.377C637.45 138.986 637.909 138.518 638.28 137.971C638.651 137.424 638.837 136.77 638.837 136.008C638.837 135.051 638.485 134.299 637.782 133.752C637.099 133.186 636.288 132.902 635.351 132.902Z" fill="#272935"/>
<path d="M775.871 101H744.787V93.3828L755.246 82.8066C757.414 80.541 759.094 78.7246 760.285 77.3574C761.496 75.9902 762.346 74.8281 762.834 73.8711C763.322 72.9141 763.566 71.918 763.566 70.8828C763.566 69.6133 763.156 68.6953 762.336 68.1289C761.516 67.5625 760.549 67.2793 759.436 67.2793C758.088 67.2793 756.721 67.6699 755.334 68.4512C753.967 69.2129 752.414 70.3457 750.676 71.8496L744.318 64.4082C745.607 63.2559 746.975 62.1621 748.42 61.127C749.865 60.0723 751.574 59.2129 753.547 58.5488C755.52 57.8848 757.922 57.5527 760.754 57.5527C763.664 57.5527 766.184 58.0605 768.312 59.0762C770.461 60.0918 772.121 61.4883 773.293 63.2656C774.465 65.0234 775.051 67.0254 775.051 69.2715C775.051 71.752 774.592 73.9688 773.674 75.9219C772.775 77.8555 771.418 79.7988 769.602 81.752C767.785 83.6855 765.52 85.8828 762.805 88.3438L759.67 91.1562V91.4492H775.871V101ZM780.207 82.8945C780.207 80.4336 780.383 77.9922 780.734 75.5703C781.086 73.1289 781.721 70.834 782.639 68.6855C783.557 66.5176 784.855 64.6035 786.535 62.9434C788.215 61.2637 790.373 59.9453 793.01 58.9883C795.646 58.0312 798.859 57.5527 802.648 57.5527C803.488 57.5527 804.514 57.6016 805.725 57.6992C806.936 57.7969 807.941 57.9141 808.742 58.0508V67.1035C807.941 66.9473 807.043 66.8203 806.047 66.7227C805.051 66.6055 803.83 66.5469 802.385 66.5469C799.494 66.5469 797.209 66.9863 795.529 67.8652C793.869 68.7246 792.668 69.9648 791.926 71.5859C791.184 73.207 790.754 75.1504 790.637 77.416H790.988C791.496 76.4785 792.111 75.6387 792.834 74.8965C793.576 74.1348 794.484 73.5391 795.559 73.1094C796.633 72.6602 797.932 72.4355 799.455 72.4355C801.955 72.4355 804.104 72.9824 805.9 74.0762C807.697 75.1504 809.074 76.7227 810.031 78.793C810.988 80.8633 811.467 83.3828 811.467 86.3516C811.467 89.5547 810.852 92.2988 809.621 94.584C808.41 96.8496 806.672 98.5879 804.406 99.7988C802.16 100.99 799.475 101.586 796.35 101.586C794.045 101.586 791.906 101.215 789.934 100.473C787.98 99.7305 786.271 98.5977 784.807 97.0742C783.361 95.5312 782.229 93.5879 781.408 91.2441C780.607 88.8809 780.207 86.0977 780.207 82.8945ZM796.086 92.416C797.316 92.416 798.312 91.9473 799.074 91.0098C799.855 90.0723 800.246 88.5977 800.246 86.5859C800.246 84.9648 799.924 83.6953 799.279 82.7773C798.654 81.8398 797.629 81.3711 796.203 81.3711C795.246 81.3711 794.436 81.6055 793.771 82.0742C793.107 82.5234 792.6 83.0996 792.248 83.8027C791.896 84.5059 791.721 85.2383 791.721 86C791.721 86.7617 791.799 87.5234 791.955 88.2852C792.131 89.0469 792.395 89.7402 792.746 90.3652C793.117 90.9707 793.576 91.4688 794.123 91.8594C794.67 92.2305 795.324 92.416 796.086 92.416ZM840.91 101H829.162V79.8184C829.162 79.4277 829.162 78.7148 829.162 77.6797C829.162 76.625 829.172 75.4629 829.191 74.1934C829.23 72.9238 829.279 71.7812 829.338 70.7656C828.83 71.3711 828.352 71.8887 827.902 72.3184C827.473 72.748 827.053 73.1484 826.643 73.5195L821.779 77.5332L815.773 70.1504L830.48 58.168H840.91V101Z" fill="#272935"/>
<path d="M227.524 499L242.231 465.748H223.687V456.168H254.595V462.994L239.507 499H227.524ZM284.155 499H272.407V477.818C272.407 477.428 272.407 476.715 272.407 475.68C272.407 474.625 272.417 473.463 272.437 472.193C272.476 470.924 272.524 469.781 272.583 468.766C272.075 469.371 271.597 469.889 271.147 470.318C270.718 470.748 270.298 471.148 269.888 471.52L265.024 475.533L259.019 468.15L273.726 456.168H284.155V499Z" fill="#272935"/>
<path d="M402.999 370H391.251V348.818C391.251 348.428 391.251 347.715 391.251 346.68C391.251 345.625 391.261 344.463 391.28 343.193C391.319 341.924 391.368 340.781 391.427 339.766C390.919 340.371 390.44 340.889 389.991 341.318C389.562 341.748 389.142 342.148 388.731 342.52L383.868 346.533L377.862 339.15L392.569 327.168H402.999V370ZM443.429 370H412.345V362.383L422.804 351.807C424.972 349.541 426.651 347.725 427.843 346.357C429.054 344.99 429.903 343.828 430.392 342.871C430.88 341.914 431.124 340.918 431.124 339.883C431.124 338.613 430.714 337.695 429.894 337.129C429.073 336.562 428.106 336.279 426.993 336.279C425.646 336.279 424.278 336.67 422.892 337.451C421.524 338.213 419.972 339.346 418.233 340.85L411.876 333.408C413.165 332.256 414.532 331.162 415.978 330.127C417.423 329.072 419.132 328.213 421.104 327.549C423.077 326.885 425.479 326.553 428.312 326.553C431.222 326.553 433.741 327.061 435.87 328.076C438.019 329.092 439.679 330.488 440.851 332.266C442.022 334.023 442.608 336.025 442.608 338.271C442.608 340.752 442.149 342.969 441.231 344.922C440.333 346.855 438.976 348.799 437.159 350.752C435.343 352.686 433.077 354.883 430.362 357.344L427.228 360.156V360.449H443.429V370ZM447.765 351.895C447.765 349.434 447.94 346.992 448.292 344.57C448.644 342.129 449.278 339.834 450.196 337.686C451.114 335.518 452.413 333.604 454.093 331.943C455.772 330.264 457.931 328.945 460.567 327.988C463.204 327.031 466.417 326.553 470.206 326.553C471.046 326.553 472.071 326.602 473.282 326.699C474.493 326.797 475.499 326.914 476.3 327.051V336.104C475.499 335.947 474.601 335.82 473.604 335.723C472.608 335.605 471.388 335.547 469.942 335.547C467.052 335.547 464.767 335.986 463.087 336.865C461.427 337.725 460.226 338.965 459.483 340.586C458.741 342.207 458.312 344.15 458.194 346.416H458.546C459.054 345.479 459.669 344.639 460.392 343.896C461.134 343.135 462.042 342.539 463.116 342.109C464.19 341.66 465.489 341.436 467.013 341.436C469.513 341.436 471.661 341.982 473.458 343.076C475.255 344.15 476.632 345.723 477.589 347.793C478.546 349.863 479.024 352.383 479.024 355.352C479.024 358.555 478.409 361.299 477.179 363.584C475.968 365.85 474.229 367.588 471.964 368.799C469.718 369.99 467.032 370.586 463.907 370.586C461.603 370.586 459.464 370.215 457.491 369.473C455.538 368.73 453.829 367.598 452.364 366.074C450.919 364.531 449.786 362.588 448.966 360.244C448.165 357.881 447.765 355.098 447.765 351.895ZM463.644 361.416C464.874 361.416 465.87 360.947 466.632 360.01C467.413 359.072 467.804 357.598 467.804 355.586C467.804 353.965 467.481 352.695 466.837 351.777C466.212 350.84 465.187 350.371 463.761 350.371C462.804 350.371 461.993 350.605 461.329 351.074C460.665 351.523 460.157 352.1 459.806 352.803C459.454 353.506 459.278 354.238 459.278 355C459.278 355.762 459.356 356.523 459.513 357.285C459.688 358.047 459.952 358.74 460.304 359.365C460.675 359.971 461.134 360.469 461.681 360.859C462.228 361.23 462.882 361.416 463.644 361.416Z" fill="#272935"/>
<path d="M81.251 693H66.749V690.407L72.3008 684.782C73.375 683.688 74.2588 682.746 74.9521 681.955C75.6455 681.154 76.1582 680.397 76.4902 679.685C76.832 678.972 77.0029 678.195 77.0029 677.355C77.0029 676.32 76.7051 675.539 76.1094 675.012C75.5137 674.475 74.7275 674.206 73.751 674.206C72.8232 674.206 71.9639 674.392 71.1729 674.763C70.3916 675.124 69.5811 675.642 68.7412 676.315L66.8516 674.045C67.4473 673.537 68.082 673.073 68.7559 672.653C69.4395 672.233 70.2012 671.901 71.041 671.657C71.8809 671.403 72.8379 671.276 73.9121 671.276C75.2695 671.276 76.4414 671.521 77.4277 672.009C78.4141 672.487 79.1709 673.156 79.6982 674.016C80.2354 674.875 80.5039 675.876 80.5039 677.019C80.5039 678.171 80.2744 679.235 79.8154 680.212C79.3564 681.188 78.7021 682.155 77.8525 683.112C77.0029 684.06 75.9922 685.09 74.8203 686.203L71.1143 689.821V689.982H81.251V693ZM98.4189 682.277C98.4189 684.006 98.2822 685.554 98.0088 686.921C97.7451 688.278 97.3252 689.431 96.749 690.378C96.1729 691.325 95.4209 692.048 94.4932 692.546C93.5654 693.044 92.4424 693.293 91.124 693.293C89.4736 693.293 88.1113 692.858 87.0371 691.989C85.9629 691.11 85.167 689.851 84.6494 688.21C84.1318 686.56 83.873 684.582 83.873 682.277C83.873 679.973 84.1074 678 84.5762 676.359C85.0547 674.709 85.8262 673.444 86.8906 672.565C87.9551 671.687 89.3662 671.247 91.124 671.247C92.7842 671.247 94.1514 671.687 95.2256 672.565C96.3096 673.435 97.1104 674.694 97.6279 676.345C98.1553 677.985 98.4189 679.963 98.4189 682.277ZM87.3447 682.277C87.3447 684.084 87.4619 685.593 87.6963 686.804C87.9404 688.015 88.3408 688.923 88.8975 689.528C89.4541 690.124 90.1963 690.422 91.124 690.422C92.0518 690.422 92.7939 690.124 93.3506 689.528C93.9072 688.933 94.3076 688.029 94.5518 686.818C94.8057 685.607 94.9326 684.094 94.9326 682.277C94.9326 680.48 94.8105 678.977 94.5664 677.766C94.3223 676.555 93.9219 675.646 93.3652 675.041C92.8086 674.426 92.0615 674.118 91.124 674.118C90.1865 674.118 89.4395 674.426 88.8828 675.041C88.3359 675.646 87.9404 676.555 87.6963 677.766C87.4619 678.977 87.3447 680.48 87.3447 682.277ZM111.207 693H107.75V679.216C107.75 678.757 107.755 678.298 107.765 677.839C107.774 677.38 107.784 676.931 107.794 676.491C107.813 676.052 107.838 675.632 107.867 675.231C107.662 675.456 107.408 675.7 107.105 675.964C106.812 676.228 106.5 676.501 106.168 676.784L103.707 678.747L101.979 676.564L108.336 671.584H111.207V693ZM132.726 680.71C132.726 681.979 132.633 683.225 132.447 684.445C132.271 685.666 131.959 686.809 131.51 687.873C131.07 688.938 130.46 689.88 129.679 690.7C128.907 691.511 127.931 692.146 126.749 692.604C125.567 693.063 124.142 693.293 122.472 693.293C122.052 693.293 121.563 693.269 121.007 693.22C120.46 693.181 120.011 693.122 119.659 693.044V690.173C120.03 690.28 120.445 690.368 120.904 690.437C121.373 690.495 121.837 690.524 122.296 690.524C124.103 690.524 125.509 690.188 126.515 689.514C127.53 688.84 128.248 687.912 128.668 686.73C129.098 685.549 129.342 684.206 129.4 682.702H129.225C128.941 683.171 128.585 683.601 128.155 683.991C127.726 684.372 127.193 684.68 126.559 684.914C125.924 685.139 125.152 685.251 124.244 685.251C123.014 685.251 121.939 684.992 121.021 684.475C120.113 683.957 119.405 683.205 118.897 682.219C118.399 681.223 118.15 680.026 118.15 678.63C118.15 677.116 118.438 675.812 119.015 674.719C119.591 673.625 120.406 672.785 121.461 672.199C122.516 671.604 123.756 671.306 125.182 671.306C126.256 671.306 127.247 671.501 128.155 671.892C129.073 672.272 129.874 672.858 130.558 673.649C131.241 674.431 131.773 675.412 132.154 676.594C132.535 677.766 132.726 679.138 132.726 680.71ZM125.226 674.147C124.142 674.147 123.258 674.514 122.574 675.246C121.891 675.969 121.549 677.082 121.549 678.586C121.549 679.807 121.842 680.773 122.428 681.486C123.014 682.199 123.912 682.556 125.123 682.556C125.963 682.556 126.686 682.385 127.291 682.043C127.906 681.691 128.38 681.247 128.712 680.71C129.054 680.173 129.225 679.626 129.225 679.069C129.225 678.493 129.142 677.917 128.976 677.341C128.819 676.765 128.575 676.237 128.243 675.759C127.911 675.28 127.491 674.895 126.983 674.602C126.485 674.299 125.899 674.147 125.226 674.147Z" fill="#0D4ECA"/>
<path d="M252.251 693H237.749V690.407L243.301 684.782C244.375 683.688 245.259 682.746 245.952 681.955C246.646 681.154 247.158 680.397 247.49 679.685C247.832 678.972 248.003 678.195 248.003 677.355C248.003 676.32 247.705 675.539 247.109 675.012C246.514 674.475 245.728 674.206 244.751 674.206C243.823 674.206 242.964 674.392 242.173 674.763C241.392 675.124 240.581 675.642 239.741 676.315L237.852 674.045C238.447 673.537 239.082 673.073 239.756 672.653C240.439 672.233 241.201 671.901 242.041 671.657C242.881 671.403 243.838 671.276 244.912 671.276C246.27 671.276 247.441 671.521 248.428 672.009C249.414 672.487 250.171 673.156 250.698 674.016C251.235 674.875 251.504 675.876 251.504 677.019C251.504 678.171 251.274 679.235 250.815 680.212C250.356 681.188 249.702 682.155 248.853 683.112C248.003 684.06 246.992 685.09 245.82 686.203L242.114 689.821V689.982H252.251V693ZM269.419 682.277C269.419 684.006 269.282 685.554 269.009 686.921C268.745 688.278 268.325 689.431 267.749 690.378C267.173 691.325 266.421 692.048 265.493 692.546C264.565 693.044 263.442 693.293 262.124 693.293C260.474 693.293 259.111 692.858 258.037 691.989C256.963 691.11 256.167 689.851 255.649 688.21C255.132 686.56 254.873 684.582 254.873 682.277C254.873 679.973 255.107 678 255.576 676.359C256.055 674.709 256.826 673.444 257.891 672.565C258.955 671.687 260.366 671.247 262.124 671.247C263.784 671.247 265.151 671.687 266.226 672.565C267.31 673.435 268.11 674.694 268.628 676.345C269.155 677.985 269.419 679.963 269.419 682.277ZM258.345 682.277C258.345 684.084 258.462 685.593 258.696 686.804C258.94 688.015 259.341 688.923 259.897 689.528C260.454 690.124 261.196 690.422 262.124 690.422C263.052 690.422 263.794 690.124 264.351 689.528C264.907 688.933 265.308 688.029 265.552 686.818C265.806 685.607 265.933 684.094 265.933 682.277C265.933 680.48 265.811 678.977 265.566 677.766C265.322 676.555 264.922 675.646 264.365 675.041C263.809 674.426 263.062 674.118 262.124 674.118C261.187 674.118 260.439 674.426 259.883 675.041C259.336 675.646 258.94 676.555 258.696 677.766C258.462 678.977 258.345 680.48 258.345 682.277ZM286.587 693H272.085V690.407L277.637 684.782C278.711 683.688 279.595 682.746 280.288 681.955C280.981 681.154 281.494 680.397 281.826 679.685C282.168 678.972 282.339 678.195 282.339 677.355C282.339 676.32 282.041 675.539 281.445 675.012C280.85 674.475 280.063 674.206 279.087 674.206C278.159 674.206 277.3 674.392 276.509 674.763C275.728 675.124 274.917 675.642 274.077 676.315L272.188 674.045C272.783 673.537 273.418 673.073 274.092 672.653C274.775 672.233 275.537 671.901 276.377 671.657C277.217 671.403 278.174 671.276 279.248 671.276C280.605 671.276 281.777 671.521 282.764 672.009C283.75 672.487 284.507 673.156 285.034 674.016C285.571 674.875 285.84 675.876 285.84 677.019C285.84 678.171 285.61 679.235 285.151 680.212C284.692 681.188 284.038 682.155 283.188 683.112C282.339 684.06 281.328 685.09 280.156 686.203L276.45 689.821V689.982H286.587V693ZM303.755 682.277C303.755 684.006 303.618 685.554 303.345 686.921C303.081 688.278 302.661 689.431 302.085 690.378C301.509 691.325 300.757 692.048 299.829 692.546C298.901 693.044 297.778 693.293 296.46 693.293C294.81 693.293 293.447 692.858 292.373 691.989C291.299 691.11 290.503 689.851 289.985 688.21C289.468 686.56 289.209 684.582 289.209 682.277C289.209 679.973 289.443 678 289.912 676.359C290.391 674.709 291.162 673.444 292.227 672.565C293.291 671.687 294.702 671.247 296.46 671.247C298.12 671.247 299.487 671.687 300.562 672.565C301.646 673.435 302.446 674.694 302.964 676.345C303.491 677.985 303.755 679.963 303.755 682.277ZM292.681 682.277C292.681 684.084 292.798 685.593 293.032 686.804C293.276 688.015 293.677 688.923 294.233 689.528C294.79 690.124 295.532 690.422 296.46 690.422C297.388 690.422 298.13 690.124 298.687 689.528C299.243 688.933 299.644 688.029 299.888 686.818C300.142 685.607 300.269 684.094 300.269 682.277C300.269 680.48 300.146 678.977 299.902 677.766C299.658 676.555 299.258 675.646 298.701 675.041C298.145 674.426 297.397 674.118 296.46 674.118C295.522 674.118 294.775 674.426 294.219 675.041C293.672 675.646 293.276 676.555 293.032 677.766C292.798 678.977 292.681 680.48 292.681 682.277Z" fill="#0D4ECA"/>
<path d="M423.251 693H408.749V690.407L414.301 684.782C415.375 683.688 416.259 682.746 416.952 681.955C417.646 681.154 418.158 680.397 418.49 679.685C418.832 678.972 419.003 678.195 419.003 677.355C419.003 676.32 418.705 675.539 418.109 675.012C417.514 674.475 416.728 674.206 415.751 674.206C414.823 674.206 413.964 674.392 413.173 674.763C412.392 675.124 411.581 675.642 410.741 676.315L408.852 674.045C409.447 673.537 410.082 673.073 410.756 672.653C411.439 672.233 412.201 671.901 413.041 671.657C413.881 671.403 414.838 671.276 415.912 671.276C417.27 671.276 418.441 671.521 419.428 672.009C420.414 672.487 421.171 673.156 421.698 674.016C422.235 674.875 422.504 675.876 422.504 677.019C422.504 678.171 422.274 679.235 421.815 680.212C421.356 681.188 420.702 682.155 419.853 683.112C419.003 684.06 417.992 685.09 416.82 686.203L413.114 689.821V689.982H423.251V693ZM440.419 682.277C440.419 684.006 440.282 685.554 440.009 686.921C439.745 688.278 439.325 689.431 438.749 690.378C438.173 691.325 437.421 692.048 436.493 692.546C435.565 693.044 434.442 693.293 433.124 693.293C431.474 693.293 430.111 692.858 429.037 691.989C427.963 691.11 427.167 689.851 426.649 688.21C426.132 686.56 425.873 684.582 425.873 682.277C425.873 679.973 426.107 678 426.576 676.359C427.055 674.709 427.826 673.444 428.891 672.565C429.955 671.687 431.366 671.247 433.124 671.247C434.784 671.247 436.151 671.687 437.226 672.565C438.31 673.435 439.11 674.694 439.628 676.345C440.155 677.985 440.419 679.963 440.419 682.277ZM429.345 682.277C429.345 684.084 429.462 685.593 429.696 686.804C429.94 688.015 430.341 688.923 430.897 689.528C431.454 690.124 432.196 690.422 433.124 690.422C434.052 690.422 434.794 690.124 435.351 689.528C435.907 688.933 436.308 688.029 436.552 686.818C436.806 685.607 436.933 684.094 436.933 682.277C436.933 680.48 436.811 678.977 436.566 677.766C436.322 676.555 435.922 675.646 435.365 675.041C434.809 674.426 434.062 674.118 433.124 674.118C432.187 674.118 431.439 674.426 430.883 675.041C430.336 675.646 429.94 676.555 429.696 677.766C429.462 678.977 429.345 680.48 429.345 682.277ZM457.587 693H443.085V690.407L448.637 684.782C449.711 683.688 450.595 682.746 451.288 681.955C451.981 681.154 452.494 680.397 452.826 679.685C453.168 678.972 453.339 678.195 453.339 677.355C453.339 676.32 453.041 675.539 452.445 675.012C451.85 674.475 451.063 674.206 450.087 674.206C449.159 674.206 448.3 674.392 447.509 674.763C446.728 675.124 445.917 675.642 445.077 676.315L443.188 674.045C443.783 673.537 444.418 673.073 445.092 672.653C445.775 672.233 446.537 671.901 447.377 671.657C448.217 671.403 449.174 671.276 450.248 671.276C451.605 671.276 452.777 671.521 453.764 672.009C454.75 672.487 455.507 673.156 456.034 674.016C456.571 674.875 456.84 675.876 456.84 677.019C456.84 678.171 456.61 679.235 456.151 680.212C455.692 681.188 455.038 682.155 454.188 683.112C453.339 684.06 452.328 685.09 451.156 686.203L447.45 689.821V689.982H457.587V693ZM470.375 693H466.918V679.216C466.918 678.757 466.923 678.298 466.933 677.839C466.942 677.38 466.952 676.931 466.962 676.491C466.981 676.052 467.006 675.632 467.035 675.231C466.83 675.456 466.576 675.7 466.273 675.964C465.98 676.228 465.668 676.501 465.336 676.784L462.875 678.747L461.146 676.564L467.504 671.584H470.375V693Z" fill="#0D4ECA"/>
<path d="M594.251 693H579.749V690.407L585.301 684.782C586.375 683.688 587.259 682.746 587.952 681.955C588.646 681.154 589.158 680.397 589.49 679.685C589.832 678.972 590.003 678.195 590.003 677.355C590.003 676.32 589.705 675.539 589.109 675.012C588.514 674.475 587.728 674.206 586.751 674.206C585.823 674.206 584.964 674.392 584.173 674.763C583.392 675.124 582.581 675.642 581.741 676.315L579.852 674.045C580.447 673.537 581.082 673.073 581.756 672.653C582.439 672.233 583.201 671.901 584.041 671.657C584.881 671.403 585.838 671.276 586.912 671.276C588.27 671.276 589.441 671.521 590.428 672.009C591.414 672.487 592.171 673.156 592.698 674.016C593.235 674.875 593.504 675.876 593.504 677.019C593.504 678.171 593.274 679.235 592.815 680.212C592.356 681.188 591.702 682.155 590.853 683.112C590.003 684.06 588.992 685.09 587.82 686.203L584.114 689.821V689.982H594.251V693ZM611.419 682.277C611.419 684.006 611.282 685.554 611.009 686.921C610.745 688.278 610.325 689.431 609.749 690.378C609.173 691.325 608.421 692.048 607.493 692.546C606.565 693.044 605.442 693.293 604.124 693.293C602.474 693.293 601.111 692.858 600.037 691.989C598.963 691.11 598.167 689.851 597.649 688.21C597.132 686.56 596.873 684.582 596.873 682.277C596.873 679.973 597.107 678 597.576 676.359C598.055 674.709 598.826 673.444 599.891 672.565C600.955 671.687 602.366 671.247 604.124 671.247C605.784 671.247 607.151 671.687 608.226 672.565C609.31 673.435 610.11 674.694 610.628 676.345C611.155 677.985 611.419 679.963 611.419 682.277ZM600.345 682.277C600.345 684.084 600.462 685.593 600.696 686.804C600.94 688.015 601.341 688.923 601.897 689.528C602.454 690.124 603.196 690.422 604.124 690.422C605.052 690.422 605.794 690.124 606.351 689.528C606.907 688.933 607.308 688.029 607.552 686.818C607.806 685.607 607.933 684.094 607.933 682.277C607.933 680.48 607.811 678.977 607.566 677.766C607.322 676.555 606.922 675.646 606.365 675.041C605.809 674.426 605.062 674.118 604.124 674.118C603.187 674.118 602.439 674.426 601.883 675.041C601.336 675.646 600.94 676.555 600.696 677.766C600.462 678.977 600.345 680.48 600.345 682.277ZM628.587 693H614.085V690.407L619.637 684.782C620.711 683.688 621.595 682.746 622.288 681.955C622.981 681.154 623.494 680.397 623.826 679.685C624.168 678.972 624.339 678.195 624.339 677.355C624.339 676.32 624.041 675.539 623.445 675.012C622.85 674.475 622.063 674.206 621.087 674.206C620.159 674.206 619.3 674.392 618.509 674.763C617.728 675.124 616.917 675.642 616.077 676.315L614.188 674.045C614.783 673.537 615.418 673.073 616.092 672.653C616.775 672.233 617.537 671.901 618.377 671.657C619.217 671.403 620.174 671.276 621.248 671.276C622.605 671.276 623.777 671.521 624.764 672.009C625.75 672.487 626.507 673.156 627.034 674.016C627.571 674.875 627.84 675.876 627.84 677.019C627.84 678.171 627.61 679.235 627.151 680.212C626.692 681.188 626.038 682.155 625.188 683.112C624.339 684.06 623.328 685.09 622.156 686.203L618.45 689.821V689.982H628.587V693ZM645.755 693H631.253V690.407L636.805 684.782C637.879 683.688 638.763 682.746 639.456 681.955C640.149 681.154 640.662 680.397 640.994 679.685C641.336 678.972 641.507 678.195 641.507 677.355C641.507 676.32 641.209 675.539 640.613 675.012C640.018 674.475 639.231 674.206 638.255 674.206C637.327 674.206 636.468 674.392 635.677 674.763C634.896 675.124 634.085 675.642 633.245 676.315L631.355 674.045C631.951 673.537 632.586 673.073 633.26 672.653C633.943 672.233 634.705 671.901 635.545 671.657C636.385 671.403 637.342 671.276 638.416 671.276C639.773 671.276 640.945 671.521 641.932 672.009C642.918 672.487 643.675 673.156 644.202 674.016C644.739 674.875 645.008 675.876 645.008 677.019C645.008 678.171 644.778 679.235 644.319 680.212C643.86 681.188 643.206 682.155 642.356 683.112C641.507 684.06 640.496 685.09 639.324 686.203L635.618 689.821V689.982H645.755V693Z" fill="#0D4ECA"/>
<path d="M765.251 693H750.749V690.407L756.301 684.782C757.375 683.688 758.259 682.746 758.952 681.955C759.646 681.154 760.158 680.397 760.49 679.685C760.832 678.972 761.003 678.195 761.003 677.355C761.003 676.32 760.705 675.539 760.109 675.012C759.514 674.475 758.728 674.206 757.751 674.206C756.823 674.206 755.964 674.392 755.173 674.763C754.392 675.124 753.581 675.642 752.741 676.315L750.852 674.045C751.447 673.537 752.082 673.073 752.756 672.653C753.439 672.233 754.201 671.901 755.041 671.657C755.881 671.403 756.838 671.276 757.912 671.276C759.27 671.276 760.441 671.521 761.428 672.009C762.414 672.487 763.171 673.156 763.698 674.016C764.235 674.875 764.504 675.876 764.504 677.019C764.504 678.171 764.274 679.235 763.815 680.212C763.356 681.188 762.702 682.155 761.853 683.112C761.003 684.06 759.992 685.09 758.82 686.203L755.114 689.821V689.982H765.251V693ZM782.419 682.277C782.419 684.006 782.282 685.554 782.009 686.921C781.745 688.278 781.325 689.431 780.749 690.378C780.173 691.325 779.421 692.048 778.493 692.546C777.565 693.044 776.442 693.293 775.124 693.293C773.474 693.293 772.111 692.858 771.037 691.989C769.963 691.11 769.167 689.851 768.649 688.21C768.132 686.56 767.873 684.582 767.873 682.277C767.873 679.973 768.107 678 768.576 676.359C769.055 674.709 769.826 673.444 770.891 672.565C771.955 671.687 773.366 671.247 775.124 671.247C776.784 671.247 778.151 671.687 779.226 672.565C780.31 673.435 781.11 674.694 781.628 676.345C782.155 677.985 782.419 679.963 782.419 682.277ZM771.345 682.277C771.345 684.084 771.462 685.593 771.696 686.804C771.94 688.015 772.341 688.923 772.897 689.528C773.454 690.124 774.196 690.422 775.124 690.422C776.052 690.422 776.794 690.124 777.351 689.528C777.907 688.933 778.308 688.029 778.552 686.818C778.806 685.607 778.933 684.094 778.933 682.277C778.933 680.48 778.811 678.977 778.566 677.766C778.322 676.555 777.922 675.646 777.365 675.041C776.809 674.426 776.062 674.118 775.124 674.118C774.187 674.118 773.439 674.426 772.883 675.041C772.336 675.646 771.94 676.555 771.696 677.766C771.462 678.977 771.345 680.48 771.345 682.277ZM799.587 693H785.085V690.407L790.637 684.782C791.711 683.688 792.595 682.746 793.288 681.955C793.981 681.154 794.494 680.397 794.826 679.685C795.168 678.972 795.339 678.195 795.339 677.355C795.339 676.32 795.041 675.539 794.445 675.012C793.85 674.475 793.063 674.206 792.087 674.206C791.159 674.206 790.3 674.392 789.509 674.763C788.728 675.124 787.917 675.642 787.077 676.315L785.188 674.045C785.783 673.537 786.418 673.073 787.092 672.653C787.775 672.233 788.537 671.901 789.377 671.657C790.217 671.403 791.174 671.276 792.248 671.276C793.605 671.276 794.777 671.521 795.764 672.009C796.75 672.487 797.507 673.156 798.034 674.016C798.571 674.875 798.84 675.876 798.84 677.019C798.84 678.171 798.61 679.235 798.151 680.212C797.692 681.188 797.038 682.155 796.188 683.112C795.339 684.06 794.328 685.09 793.156 686.203L789.45 689.821V689.982H799.587V693ZM815.935 676.477C815.935 677.443 815.739 678.283 815.349 678.996C814.958 679.709 814.421 680.295 813.737 680.754C813.063 681.203 812.282 681.525 811.394 681.721V681.823C813.103 682.038 814.392 682.575 815.261 683.435C816.14 684.294 816.579 685.432 816.579 686.848C816.579 688.088 816.281 689.196 815.686 690.173C815.09 691.14 814.177 691.901 812.946 692.458C811.716 693.015 810.134 693.293 808.2 693.293C807.038 693.293 805.959 693.2 804.963 693.015C803.977 692.829 803.039 692.531 802.15 692.121V689.06C803.059 689.509 804.025 689.855 805.051 690.1C806.076 690.344 807.048 690.466 807.966 690.466C809.753 690.466 811.027 690.134 811.789 689.47C812.551 688.796 812.932 687.868 812.932 686.687C812.932 685.925 812.731 685.3 812.331 684.812C811.94 684.323 811.33 683.957 810.5 683.713C809.68 683.469 808.62 683.347 807.321 683.347H805.432V680.578H807.336C808.576 680.578 809.572 680.432 810.324 680.139C811.076 679.836 811.618 679.421 811.95 678.894C812.292 678.366 812.463 677.751 812.463 677.048C812.463 676.13 812.165 675.417 811.569 674.909C810.974 674.392 810.09 674.133 808.918 674.133C808.195 674.133 807.536 674.216 806.94 674.382C806.354 674.548 805.812 674.758 805.314 675.012C804.816 675.266 804.343 675.539 803.894 675.832L802.238 673.444C803.049 672.839 804.016 672.326 805.139 671.906C806.262 671.486 807.57 671.276 809.064 671.276C811.262 671.276 812.956 671.75 814.147 672.697C815.339 673.635 815.935 674.895 815.935 676.477Z" fill="#0D4ECA"/>
<path d="M840.151 789.534L840.421 516.763L1076.24 652.915L840.151 789.534Z" fill="url(#paint1_linear_6335_5846)" fill-opacity="0.22"/>
<defs>
<linearGradient id="paint0_linear_6335_5846" x1="39.6529" y1="765.115" x2="337.936" y2="586.04" gradientUnits="userSpaceOnUse">
<stop stop-color="#64BDE1"/>
<stop offset="1" stop-color="#1783B2"/>
</linearGradient>
<linearGradient id="paint1_linear_6335_5846" x1="1248.63" y1="1296.92" x2="1427.96" y2="578.791" gradientUnits="userSpaceOnUse">
<stop stop-color="#64BDE1"/>
<stop offset="1" stop-color="#1783B2"/>
</linearGradient>
<clipPath id="clip0_6335_5846">
<rect width="1078" height="651" fill="white"/>
</clipPath>
</defs>
</svg>
