<svg width="687" height="452" viewBox="0 0 687 452" fill="none" xmlns="http://www.w3.org/2000/svg">
<g clip-path="url(#clip0_4553_5536)">
<path d="M541.477 450.489H504.178V12.5299L541.26 0.796875L541.477 450.489Z" fill="#1F75BA"/>
<path d="M541.477 451.287H504.178C503.743 451.287 503.381 450.925 503.381 450.49V12.5307C503.381 12.1686 503.598 11.8789 503.96 11.7341L541.042 0.00106928C541.26 -0.0713566 541.549 0.00106927 541.767 0.145921C541.984 0.290773 542.129 0.50805 542.129 0.797754L542.346 450.49C542.346 450.707 542.274 450.925 542.129 451.069C541.839 451.214 541.622 451.287 541.477 451.287ZM504.974 449.693H540.68L540.463 1.88414L504.974 13.1102V449.693Z" fill="#1F75BA"/>
<path d="M685.531 450.491H541.621C541.404 450.491 541.259 450.346 541.259 450.057V1.23338C541.259 1.01611 541.404 0.798828 541.621 0.798828L685.531 4.85468C685.748 4.85468 685.893 5.07196 685.893 5.28923V450.057C685.893 450.274 685.748 450.491 685.531 450.491Z" fill="white"/>
<path d="M685.531 451.288H541.621C540.969 451.288 540.462 450.781 540.462 450.056V1.23319C540.462 0.871064 540.607 0.58136 540.824 0.364083C541.041 0.146805 541.331 0.00195312 541.693 0.00195312L685.603 4.0578C686.255 4.0578 686.762 4.63721 686.762 5.28904V450.056C686.69 450.708 686.183 451.288 685.531 451.288ZM542.055 449.694H685.096V5.7236L542.055 1.66775V449.694Z" fill="black"/>
<path d="M635.341 280.725C634.906 280.725 634.544 280.362 634.544 279.928V28.2479C634.544 27.8133 634.906 27.4512 635.341 27.4512C635.775 27.4512 636.137 27.8133 636.137 28.2479V279.855C636.137 280.362 635.775 280.725 635.341 280.725Z" fill="black"/>
<path d="M565.305 80.4673C564.87 80.4673 564.508 80.1051 564.508 79.6706V52.8006C564.508 52.366 564.87 52.0039 565.305 52.0039C565.739 52.0039 566.101 52.366 566.101 52.8006V79.6706C566.174 80.1051 565.812 80.4673 565.305 80.4673Z" fill="black"/>
<path d="M565.305 352.717C564.87 352.717 564.508 352.355 564.508 351.921V218.222C564.508 217.788 564.87 217.426 565.305 217.426C565.739 217.426 566.101 217.788 566.101 218.222V351.921C566.174 352.355 565.812 352.717 565.305 352.717Z" fill="black"/>
<path d="M661.848 227.563C661.414 227.563 661.052 227.201 661.052 226.766V199.896C661.052 199.462 661.414 199.1 661.848 199.1C662.283 199.1 662.645 199.462 662.645 199.896V226.766C662.645 227.201 662.283 227.563 661.848 227.563Z" fill="black"/>
<path d="M376.199 450.49H339.045V208.008L376.199 199.824V450.49Z" fill="#1F75BA"/>
<path d="M376.199 451.288H339.117C338.682 451.288 338.32 450.925 338.32 450.491V208.009C338.32 207.647 338.61 207.285 338.972 207.212L376.054 199.101C376.271 199.028 376.561 199.101 376.706 199.246C376.923 199.39 376.996 199.608 376.996 199.897V450.491C376.996 450.925 376.634 451.288 376.199 451.288ZM339.914 449.694H375.402V200.839L339.914 208.588V449.694Z" fill="black"/>
<path d="M515.764 450.492H376.199V200.261C376.199 200.043 376.417 199.826 376.634 199.826L515.764 203.23V450.492Z" fill="white"/>
<path d="M515.764 451.289H376.199C375.764 451.289 375.402 450.927 375.402 450.492V200.261C375.402 199.898 375.547 199.609 375.764 199.391C375.982 199.174 376.344 199.029 376.634 199.029L515.764 202.433C516.198 202.433 516.56 202.795 516.56 203.23V450.492C516.56 450.927 516.198 451.289 515.764 451.289ZM376.996 449.695H514.967V204.027L376.996 200.695V449.695Z" fill="black"/>
<path d="M403.069 392.696C402.635 392.696 402.272 392.334 402.272 391.9V224.451C402.272 224.016 402.635 223.654 403.069 223.654C403.504 223.654 403.866 224.016 403.866 224.451V391.9C403.866 392.334 403.504 392.696 403.069 392.696Z" fill="black"/>
<path d="M494.471 407.038C494.036 407.038 493.674 406.676 493.674 406.241V238.793C493.674 238.358 494.036 237.996 494.471 237.996C494.905 237.996 495.267 238.358 495.267 238.793V406.241C495.267 406.676 494.905 407.038 494.471 407.038Z" fill="black"/>
<path d="M467.963 359.018C467.528 359.018 467.166 358.656 467.166 358.221V333.162C467.166 332.727 467.528 332.365 467.963 332.365C468.397 332.365 468.759 332.727 468.759 333.162V358.221C468.759 358.656 468.397 359.018 467.963 359.018Z" fill="black"/>
<path d="M203.464 450.492H166.02V330.772L203.102 323.457L203.464 450.492Z" fill="#1F75BA"/>
<path d="M203.464 451.29H166.019C165.585 451.29 165.223 450.927 165.223 450.493V330.773C165.223 330.411 165.512 330.049 165.874 329.976L202.957 322.661C203.174 322.589 203.464 322.661 203.608 322.806C203.826 322.951 203.898 323.168 203.898 323.458L204.26 450.493C204.26 450.71 204.188 450.927 204.043 451.072C203.898 451.217 203.681 451.29 203.464 451.29ZM166.816 449.696H202.667L202.305 324.472L166.816 331.497V449.696Z" fill="black"/>
<path d="M348.822 450.492H203.464C203.246 450.492 203.102 450.347 203.102 450.13V323.819C203.102 323.602 203.246 323.457 203.464 323.457L348.895 325.123C349.112 325.123 349.257 325.268 349.257 325.485V450.202C349.185 450.347 349.04 450.492 348.822 450.492Z" fill="white"/>
<path d="M348.822 451.289H203.464C202.812 451.289 202.305 450.782 202.305 450.13V323.819C202.305 323.529 202.45 323.24 202.667 323.022C202.884 322.805 203.174 322.66 203.536 322.66L348.967 324.326C349.619 324.326 350.126 324.833 350.126 325.485V450.202C349.981 450.782 349.474 451.289 348.822 451.289ZM203.898 449.695H348.388V325.847L203.898 324.254V449.695Z" fill="black"/>
<path d="M318.621 426.373C318.186 426.373 317.824 426.011 317.824 425.576V341.49C317.824 341.055 318.186 340.693 318.621 340.693C319.055 340.693 319.418 341.055 319.418 341.49V425.576C319.418 426.011 319.055 426.373 318.621 426.373Z" fill="black"/>
<path d="M241.922 404.138C241.487 404.138 241.125 403.776 241.125 403.341V384.945C241.125 384.511 241.487 384.148 241.922 384.148C242.356 384.148 242.718 384.511 242.718 384.945V403.341C242.718 403.776 242.356 404.138 241.922 404.138Z" fill="black"/>
<path d="M38.8397 450.489H1.39551V399.139L38.4776 392.91L38.8397 450.489Z" fill="#1F75BA"/>
<path d="M38.8395 451.286H1.39532C0.960762 451.286 0.598633 450.924 0.598633 450.49V399.14C0.598633 398.778 0.888336 398.415 1.25047 398.343L38.3325 392.114C38.5498 392.042 38.8395 392.114 38.9844 392.259C39.2016 392.404 39.2741 392.621 39.2741 392.839L39.6362 450.417C39.6362 450.634 39.5638 450.852 39.4189 450.997C39.2741 451.214 39.0568 451.286 38.8395 451.286ZM2.192 449.693H38.0428L37.6807 393.853L2.192 399.864V449.693Z" fill="black"/>
<path d="M179.201 450.489H38.8397C38.6224 450.489 38.4775 450.416 38.4775 450.272V393.055C38.4775 392.983 38.6224 392.838 38.8397 392.838L179.201 393.707C179.418 393.707 179.563 393.779 179.563 393.924V450.199C179.563 450.416 179.346 450.489 179.201 450.489Z" fill="white"/>
<path d="M179.201 451.285H38.8395C38.1876 451.285 37.6807 450.851 37.6807 450.271V393.055C37.6807 392.838 37.7531 392.548 37.9704 392.403C38.1876 392.186 38.5498 392.041 38.8395 392.041L179.201 392.91C179.853 392.91 180.36 393.345 180.36 393.924V450.199C180.36 450.851 179.853 451.285 179.201 451.285ZM39.274 449.692H178.694V394.648L39.274 393.779V449.692Z" fill="black"/>
<path d="M148.928 437.669C148.493 437.669 148.131 437.307 148.131 436.872V402.76C148.131 402.325 148.493 401.963 148.928 401.963C149.362 401.963 149.724 402.325 149.724 402.76V436.872C149.724 437.307 149.362 437.669 148.928 437.669Z" fill="black"/>
<path d="M77.2977 425.502C76.8631 425.502 76.501 425.14 76.501 424.706V414.638C76.501 414.204 76.8631 413.842 77.2977 413.842C77.7322 413.842 78.0943 414.204 78.0943 414.638V424.706C78.1668 425.14 77.8046 425.502 77.2977 425.502Z" fill="black"/>
<path d="M88.8711 369H57.7871V361.383L68.2461 350.807C70.4141 348.541 72.0938 346.725 73.2852 345.357C74.4961 343.99 75.3457 342.828 75.834 341.871C76.3223 340.914 76.5664 339.918 76.5664 338.883C76.5664 337.613 76.1562 336.695 75.3359 336.129C74.5156 335.562 73.5488 335.279 72.4355 335.279C71.0879 335.279 69.7207 335.67 68.334 336.451C66.9668 337.213 65.4141 338.346 63.6758 339.85L57.3184 332.408C58.6074 331.256 59.9746 330.162 61.4199 329.127C62.8652 328.072 64.5742 327.213 66.5469 326.549C68.5195 325.885 70.9219 325.553 73.7539 325.553C76.6641 325.553 79.1836 326.061 81.3125 327.076C83.4609 328.092 85.1211 329.488 86.293 331.266C87.4648 333.023 88.0508 335.025 88.0508 337.271C88.0508 339.752 87.5918 341.969 86.6738 343.922C85.7754 345.855 84.418 347.799 82.6016 349.752C80.7852 351.686 78.5195 353.883 75.8047 356.344L72.6699 359.156V359.449H88.8711V369ZM118.754 369H107.006V347.818C107.006 347.428 107.006 346.715 107.006 345.68C107.006 344.625 107.016 343.463 107.035 342.193C107.074 340.924 107.123 339.781 107.182 338.766C106.674 339.371 106.195 339.889 105.746 340.318C105.316 340.748 104.896 341.148 104.486 341.52L99.623 345.533L93.6172 338.15L108.324 326.168H118.754V369Z" fill="#272935"/>
<path d="M73.1255 260.716L163.873 170.148L197 293.777L73.1255 260.716Z" fill="#28A3FC" fill-opacity="0.4"/>
</g>
<defs>
<clipPath id="clip0_4553_5536">
<rect width="686.09" height="451.286" fill="white" transform="translate(0.598633)"/>
</clipPath>
</defs>
</svg>
