<svg width="12" height="12" viewBox="0 0 12 12" fill="none" xmlns="http://www.w3.org/2000/svg">
<path d="M2.60227 6.33767L8.63977 11.0533C8.65555 11.0657 8.67451 11.0734 8.69447 11.0756C8.71444 11.0777 8.7346 11.0742 8.75264 11.0653C8.77068 11.0565 8.78587 11.0428 8.79647 11.0258C8.80706 11.0087 8.81263 10.989 8.81254 10.9689V9.93366C8.81254 9.86803 8.78174 9.80509 8.73084 9.76491L3.90941 6.00017L8.73084 2.23544C8.78307 2.19526 8.81254 2.13232 8.81254 2.06669V1.0314C8.81254 0.941701 8.70941 0.8921 8.63977 0.947L2.60227 5.66267C2.55096 5.7027 2.50944 5.7539 2.48089 5.81239C2.45234 5.87087 2.4375 5.93509 2.4375 6.00017C2.4375 6.06525 2.45234 6.12948 2.48089 6.18796C2.50944 6.24644 2.55096 6.29765 2.60227 6.33767Z" fill="#444444" fill-opacity="0.8"/>
</svg>
