<svg width="12" height="12" viewBox="0 0 12 12" fill="none" xmlns="http://www.w3.org/2000/svg">
<g clip-path="url(#clip0_4625_4569)">
<path d="M3.16014 2.06646L3.16014 1.03119C3.16014 0.941456 3.26327 0.891902 3.33291 0.946813L9.37041 5.66244C9.42171 5.70233 9.46322 5.75341 9.49177 5.81179C9.52032 5.87016 9.53516 5.93429 9.53516 5.99927C9.53516 6.06425 9.52032 6.12838 9.49177 6.18675C9.46322 6.24512 9.42171 6.29621 9.37041 6.3361L3.33291 11.0517C3.26193 11.1066 3.16014 11.0571 3.16014 10.9673L3.16014 9.93208C3.16014 9.86646 3.19095 9.80351 3.24184 9.76333L8.06327 5.99994L3.24184 2.23521C3.19095 2.19503 3.16014 2.13208 3.16014 2.06646Z" fill="#D9D9D9"/>
</g>
<defs>
<clipPath id="clip0_4625_4569">
<rect width="12" height="12" fill="white" transform="matrix(-1 -8.74228e-08 -8.74228e-08 1 12 4.76837e-07)"/>
</clipPath>
</defs>
</svg>
