<svg width="12" height="12" viewBox="0 0 12 12" fill="none" xmlns="http://www.w3.org/2000/svg">
<path d="M8.83986 2.06646V1.03119C8.83986 0.941456 8.73673 0.891902 8.66709 0.946813L2.62959 5.66244C2.57829 5.70233 2.53678 5.75341 2.50823 5.81179C2.47968 5.87016 2.46484 5.93429 2.46484 5.99927C2.46484 6.06425 2.47968 6.12838 2.50823 6.18675C2.53678 6.24512 2.57829 6.29621 2.62959 6.3361L8.66709 11.0517C8.73807 11.1066 8.83986 11.0571 8.83986 10.9673V9.93208C8.83986 9.86646 8.80905 9.80351 8.75816 9.76333L3.93673 5.99994L8.75816 2.23521C8.80905 2.19503 8.83986 2.13208 8.83986 2.06646Z" fill="#8EAEF1"/>
</svg>
