<svg width="190" height="150" viewBox="0 0 190 150" fill="none" xmlns="http://www.w3.org/2000/svg">
<path d="M37.2628 81.2536C37.2628 81.1673 39.4192 79.1834 42.0069 79.2697C43.4733 79.356 44.7671 80.1323 46.061 81.5124C46.406 81.8574 46.6648 81.9436 47.0098 81.9436C47.3548 81.9436 47.5273 81.8574 47.8723 81.7711C48.3899 81.3399 48.3899 80.6498 47.9586 80.1323C46.2335 78.1484 44.3358 77.1133 42.1794 77.027C38.5566 76.8545 35.7964 79.5285 35.7102 79.6147C35.2789 80.046 35.2789 80.7361 35.7102 81.2536C36.0552 81.6849 36.7453 81.6849 37.2628 81.2536Z" fill="#014BE4"/>
<path d="M60.3795 81.2536C60.3795 81.1673 62.5359 79.1834 65.1236 79.2697C66.59 79.356 67.8838 80.1323 69.1777 81.5124C69.5227 81.8574 69.7815 81.9436 70.1265 81.9436C70.4715 81.9436 70.7303 81.8574 70.9891 81.7711C71.5066 81.3399 71.5066 80.6498 71.0753 80.1323C69.3502 78.1484 67.4526 77.1133 65.2962 77.027C61.6734 76.8545 58.9132 79.5285 58.8269 79.6147C58.3956 80.046 58.3956 80.7361 58.8269 81.2536C59.1719 81.6849 59.862 81.6849 60.3795 81.2536Z" fill="#014BE4"/>
<path d="M41.8344 83.4963C40.8856 83.4963 40.1955 84.1863 40.1955 85.1351V88.6717C40.1955 89.6205 40.8856 90.3105 41.8344 90.3105C42.7832 90.3105 43.4733 89.448 43.4733 88.6717V85.1351C43.4733 84.2726 42.697 83.4963 41.8344 83.4963Z" fill="#014BE4"/>
<path d="M64.8649 83.4963C63.916 83.4963 63.226 84.1863 63.226 85.1351V88.6717C63.226 89.6205 63.916 90.3105 64.8649 90.3105C65.8137 90.3105 66.59 89.448 66.5037 88.6717V85.1351C66.5037 84.2726 65.7274 83.4963 64.8649 83.4963Z" fill="#014BE4"/>
<path d="M59.862 102.99C57.7056 105.233 55.5492 106.44 53.2202 106.268C49.5112 106.095 46.751 102.559 46.751 102.559C46.3197 102.041 45.6297 101.955 45.1121 102.386C44.5946 102.818 44.5083 103.508 44.9396 104.025C45.0259 104.198 48.3036 108.511 53.2202 108.683C53.3065 108.683 53.5653 108.683 53.6515 108.683C56.4117 108.683 59.2582 107.303 61.6734 104.543C62.1047 104.025 62.1047 103.335 61.5871 102.904C60.9833 102.473 60.2933 102.473 59.862 102.99Z" fill="#014BE4"/>
<path d="M50.2013 98.8499C50.8051 98.9362 51.4089 98.5049 51.5814 97.9011C51.5814 97.8148 52.0127 95.7447 53.5653 95.7447C55.0316 95.7447 55.2041 97.7286 55.2041 97.8148C55.2041 98.4186 55.7217 98.8499 56.3255 98.8499C56.4117 98.8499 56.4117 98.8499 56.6705 98.8499C57.2743 98.8499 57.7918 98.2461 57.7056 97.6423C57.5331 96.176 56.5842 93.4158 53.6515 93.4158C50.8913 93.4158 49.5975 96.0897 49.3387 97.5561C49.1662 98.0736 49.5112 98.7637 50.2013 98.8499Z" fill="#014BE4"/>
<path d="M97.6423 42.0069L55.2041 29.4997C53.824 29.0684 52.5302 29.0684 51.1501 29.4997L8.7119 42.0069C7.59057 42.3519 6.81426 43.387 6.81426 44.5083V55.2041C3.01898 55.6354 0 58.9994 0 63.0535C0 67.0213 6.29672 77.3721 6.98677 78.4071C7.15929 78.7522 7.50431 78.9247 7.9356 78.9247C8.28062 78.9247 8.62565 78.7522 8.88442 78.4071C9.57447 77.2858 15.8712 67.0213 15.8712 62.9672C15.8712 58.9994 12.8522 55.6354 9.05693 55.1179V47.2685L23.203 51.4089V65.5549C23.203 65.6412 23.203 65.6412 23.203 65.7274V81.7711C21.7366 83.4963 20.9603 85.7389 20.9603 88.1541C20.9603 91.0868 22.2542 93.7608 24.2381 95.6584C24.7556 96.4347 25.0144 97.211 25.0144 98.0736C25.0144 100.575 22.3404 102.818 19.839 105.147C17.8551 106.872 15.9574 108.683 15.1811 110.495C14.1461 113.168 14.3186 115.497 15.6987 117.568C18.3726 121.449 24.9281 123.433 30.8798 124.382C29.7585 124.899 28.6371 125.417 27.6021 126.021C19.6665 130.679 14.3186 139.304 14.3186 148.879C14.3186 149.482 14.8361 150 15.4399 150C16.0437 150 16.5612 149.482 16.5612 148.879C16.5612 137.407 24.7556 127.832 35.7964 124.986C39.2467 125.331 41.8344 125.417 42.1794 125.417C42.2657 125.417 42.3519 125.417 42.4382 125.417C43.6458 130.161 47.8723 133.698 53.0477 133.698C55.9805 133.698 58.7407 132.576 60.8108 130.506C62.5359 128.781 63.571 126.538 63.916 124.209H64.0886C64.2611 124.296 64.4336 124.382 64.6924 124.382C64.8649 124.382 65.5549 124.382 66.6763 124.296C79.5285 125.589 89.6205 136.113 89.6205 148.792C89.6205 149.396 90.138 149.914 90.7418 149.914C91.3456 149.914 91.8631 149.396 91.8631 148.792C91.8631 137.32 84.2726 127.487 73.7493 123.606C80.1323 122.743 87.9816 120.759 90.8281 116.36C92.2082 114.29 92.3807 111.875 91.3456 109.287C90.6556 107.389 88.7579 105.664 86.6878 103.939C84.1863 101.696 81.5986 99.3675 81.5124 96.866C81.5124 96.4347 81.5986 96.0035 81.7711 95.5722C83.755 93.6745 85.0489 91.0006 85.0489 88.0679C85.0489 85.8252 84.1863 83.5825 82.8925 81.8574V69.609C82.9787 69.5227 82.9787 69.4365 82.9787 69.264V51.2363L97.6423 46.9235C98.7637 46.5785 99.54 45.5434 99.54 44.4221C99.54 43.3008 98.7637 42.3519 97.6423 42.0069ZM13.6285 62.881C13.6285 65.1236 10.5233 71.1616 7.9356 75.4744C5.3479 71.1616 2.24267 65.1236 2.24267 62.881C2.24267 59.7757 4.83036 57.188 7.9356 57.188C11.0408 57.188 13.6285 59.7757 13.6285 62.881ZM75.0431 70.5578H80.6498V79.7872C79.2697 78.8384 77.7171 78.2346 76.0782 78.0621V76.682C76.0782 74.6119 75.6469 72.5417 75.0431 70.5578ZM25.6182 68.2289V52.0127L51.2363 59.6032C51.8401 59.7757 52.6165 59.9482 53.2202 59.9482C53.824 59.9482 54.6003 59.862 55.2041 59.6032L80.7361 52.0127V68.1426H25.6182V68.2289ZM25.7044 70.5578H31.1386C30.4485 72.4554 30.1035 74.5256 30.1035 76.682V78.0621C28.4646 78.2346 26.9983 78.7522 25.7044 79.6147V70.5578ZM31.3111 80.2185C31.9149 80.2185 32.4324 79.701 32.4324 79.0972V76.682C32.4324 74.5256 32.8637 72.4554 33.5538 70.5578H72.5417C73.2317 72.4554 73.663 74.5256 73.663 76.682V79.0972C73.663 79.701 74.1806 80.2185 74.7844 80.2185C79.0972 80.3048 82.6337 83.8413 82.6337 88.1541C82.6337 89.3617 82.3749 90.483 81.8574 91.5181C81.0811 92.3807 80.391 93.157 79.9597 94.0196C78.5796 95.3134 76.7683 96.0897 74.6981 96.0897C74.0943 96.0897 73.5768 96.6072 73.5768 97.211V99.6262C73.5768 108.942 65.8999 116.619 56.6705 116.619H49.2524C39.9367 116.619 32.3462 108.942 32.3462 99.6262V97.211C32.3462 96.6072 31.8286 96.0897 31.2248 96.0897C26.912 96.0897 23.2892 92.4669 23.2892 88.1541C23.2892 83.8413 26.912 80.2185 31.3111 80.2185ZM17.3376 116.36C16.3887 114.894 16.3025 113.255 16.9925 111.357C17.5963 109.891 19.2352 108.424 21.1328 106.786C23.893 104.284 26.9983 101.61 27.0845 98.1599C27.0845 97.9874 27.0845 97.7286 27.0845 97.5561C28.0334 97.9873 28.9822 98.2461 30.0173 98.3324V99.7125C30.0173 103.939 31.4836 107.821 33.7263 111.012C35.8827 113.945 38.6429 116.187 42.0069 117.568V121.967C39.8505 122.053 37.6941 122.312 35.6239 122.829C28.8959 122.139 20.0115 120.328 17.3376 116.36ZM61.6734 122.829C61.6734 127.66 57.7918 131.541 52.9615 131.541C48.1311 131.541 44.2496 127.573 44.2496 122.829C44.2496 122.743 44.2496 120.155 44.3358 118.258C45.9747 118.775 47.6136 118.948 49.425 118.948H56.843C58.4819 118.948 60.0345 118.775 61.5871 118.344V122.829H61.6734ZM85.3939 105.664C87.2916 107.303 89.0167 108.856 89.5342 110.236C90.2243 112.22 90.138 113.772 89.1892 115.239C85.8252 120.155 73.2317 121.708 66.6763 122.139C65.8137 122.053 64.8649 121.967 63.916 121.967V117.654C71.0753 114.894 76.0782 107.907 76.0782 99.7125V98.3324C77.2858 98.1599 78.4071 97.8148 79.4422 97.2973C79.6147 100.661 82.6337 103.335 85.3939 105.664ZM97.0385 44.7671L54.4278 57.3606C53.5653 57.7056 52.7027 57.7056 51.7539 57.3606L9.3157 44.7671C9.22944 44.6809 9.14319 44.5946 9.14319 44.4221C9.14319 44.3358 9.22944 44.2496 9.3157 44.0771L51.8401 31.5699C52.2714 31.4836 52.789 31.3974 53.2202 31.3974C53.6515 31.3974 54.1691 31.4836 54.6003 31.5699L97.1248 44.0771C97.211 44.1633 97.2973 44.2496 97.2973 44.4221C97.211 44.6809 97.1248 44.7671 97.0385 44.7671Z" fill="#014BE4"/>
<path d="M188.902 94.7096H172.858V93.6745C172.858 93.0707 172.34 92.5532 171.737 92.5532H170.529C170.098 89.6205 169.063 86.8603 167.338 84.3588C164.405 80.2185 162.852 76.337 162.335 71.9379C163.974 71.8516 165.181 70.4715 165.181 68.9189C165.181 68.1426 164.922 67.4526 164.405 66.8488C164.922 66.3312 165.181 65.5549 165.181 64.7786C165.181 63.0535 163.801 61.7596 162.162 61.7596H160.955L158.798 58.7407C158.626 58.4819 158.281 58.3094 157.936 58.3094H146.981C146.636 58.3094 146.291 58.4819 146.118 58.7407L143.962 61.7596H142.754C141.029 61.7596 139.735 63.1397 139.735 64.7786C139.735 65.5549 139.994 66.245 140.512 66.8488C139.994 67.3663 139.735 68.1426 139.735 68.9189C139.735 70.5578 141.029 71.8516 142.582 71.9379C142.064 76.2507 140.512 80.046 137.32 84.8764C135.768 87.2053 134.819 89.793 134.474 92.5532H133.266C132.662 92.5532 132.145 93.0707 132.145 93.6745V94.7096H116.101C115.497 94.7096 114.98 95.2271 114.98 95.8309V101.006C114.98 101.524 115.325 101.955 115.842 102.041L121.535 103.335C122.312 106.527 123.606 109.632 125.331 112.478L122.312 117.395C122.225 117.568 122.139 117.74 122.139 117.999C122.139 118.258 122.225 118.516 122.484 118.775L129.557 125.934C129.73 126.107 130.075 126.279 130.334 126.279C130.506 126.279 130.765 126.193 130.937 126.107L135.854 123.088C138.7 124.899 141.892 126.107 145.083 126.883L146.377 132.49C146.463 133.007 146.895 133.353 147.412 133.353H157.504C158.022 133.353 158.453 133.007 158.539 132.49L159.833 126.883C163.111 126.107 166.216 124.813 169.063 123.088L173.979 126.107C174.152 126.193 174.324 126.279 174.583 126.279C174.842 126.279 175.101 126.193 175.359 125.934L182.432 118.775C182.605 118.603 182.777 118.258 182.777 117.999C182.777 117.826 182.691 117.568 182.605 117.395L179.586 112.478C181.397 109.632 182.605 106.527 183.381 103.335L189.074 102.041C189.592 101.955 189.937 101.524 189.937 101.006V95.8309C189.937 95.2271 189.505 94.7096 188.902 94.7096ZM168.545 94.7959H170.702V96.866H168.545V94.7959ZM147.757 60.552H157.504L158.453 61.9322H146.895L147.757 60.552ZM143.099 64.0023H162.248C162.766 64.0023 163.197 64.4336 163.197 64.9511C163.197 65.4687 162.766 65.8999 162.248 65.8999H143.099C142.582 65.8999 142.151 65.4687 142.151 64.9511C142.151 64.4336 142.582 64.0023 143.099 64.0023ZM142.151 69.0052C142.151 68.4876 142.582 68.0564 143.099 68.0564H162.248C162.766 68.0564 163.197 68.4876 163.197 69.0052C163.197 69.5227 162.766 69.954 162.248 69.954C161.817 69.954 161.386 69.954 161.041 69.954C160.868 69.954 160.782 69.954 160.61 69.954C159.229 69.954 154.658 69.954 143.099 69.954C142.582 69.954 142.151 69.5227 142.151 69.0052ZM151.553 90.2243C151.553 90.7418 151.38 91.1731 151.035 91.4319C150.776 91.6906 150.345 91.8631 149.914 91.8631C149.569 91.8631 149.137 91.7769 148.879 91.4319C148.62 91.1731 148.361 90.7418 148.275 90.138V72.0242H151.38L151.553 90.2243ZM150 94.0196C151.035 94.0196 151.984 93.5883 152.588 92.812C153.278 93.5883 154.227 94.0196 155.175 94.0196C155.52 94.0196 155.779 93.9333 156.124 93.847L152.588 102.473L149.051 93.847C149.482 93.9333 149.741 94.0196 150 94.0196ZM155.348 91.8631C154.917 91.8631 154.572 91.6906 154.227 91.4319C153.968 91.1731 153.709 90.7418 153.709 90.2243V72.1104H156.814V90.2243C156.728 90.8281 156.555 91.2594 156.297 91.5181C156.124 91.6906 155.693 91.8631 155.348 91.8631ZM139.39 86.084C142.841 80.9948 144.566 76.8545 145.083 72.1104H146.377V92.4669C146.377 92.6395 146.377 92.7257 146.464 92.8982L151.725 105.75C151.898 106.182 152.329 106.44 152.76 106.44C153.192 106.44 153.623 106.182 153.795 105.75L159.057 92.8982C159.143 92.7257 159.143 92.6395 159.143 92.4669V72.1104H160.437C160.955 77.027 162.68 81.2536 165.871 85.8252C167.338 87.8953 168.2 90.2243 168.631 92.7257H167.769C167.165 92.7257 166.648 93.2432 166.648 93.847V98.0736C166.648 98.6774 167.165 99.1949 167.769 99.1949H168.286C166.734 105.147 161.903 109.718 156.038 110.926V110.236C156.038 109.632 155.52 109.114 154.917 109.114H150.69C150.086 109.114 149.569 109.632 149.569 110.236V110.926C143.617 109.718 138.787 105.147 137.32 99.1949H137.838C138.442 99.1949 138.959 98.6774 138.959 98.0736V93.847C138.959 93.2432 138.442 92.7257 137.838 92.7257H136.889C137.234 90.2243 138.097 88.0679 139.39 86.084ZM153.709 111.012V113.082H151.553V111.012H153.709ZM134.646 94.7959H136.803V96.866H134.646V94.7959ZM187.78 100.058L182.26 101.351C181.915 101.438 181.57 101.783 181.484 102.214C180.707 105.664 179.327 108.942 177.516 111.961C177.43 112.133 177.343 112.306 177.343 112.565C177.343 112.737 177.43 112.996 177.516 113.168L180.449 117.913L174.497 123.864L169.753 120.932C169.58 120.845 169.408 120.759 169.149 120.759C168.976 120.759 168.718 120.845 168.545 120.932C165.526 122.915 162.248 124.209 158.712 124.986C158.281 125.072 158.022 125.417 157.849 125.762L156.555 131.196H148.361L147.067 125.762C146.981 125.331 146.636 125.072 146.205 124.986C142.754 124.209 139.39 122.829 136.371 120.932C136.199 120.845 136.026 120.759 135.768 120.759C135.595 120.759 135.336 120.845 135.164 120.932L130.42 123.864L124.468 117.913L127.401 113.168C127.487 112.996 127.573 112.823 127.573 112.565C127.573 112.392 127.487 112.133 127.401 111.961C125.417 108.942 124.123 105.664 123.433 102.214C123.347 101.783 123.002 101.438 122.657 101.351L117.309 100.058V96.866H132.317V97.9011C132.317 98.5049 132.835 99.0224 133.439 99.0224H134.905C136.544 106.095 142.237 111.702 149.396 112.91V114.29C149.396 114.894 149.914 115.411 150.518 115.411H154.744C155.348 115.411 155.865 114.894 155.865 114.29V112.91C162.938 111.616 168.718 106.095 170.357 99.0224H171.909C172.513 99.0224 173.03 98.5049 173.03 97.9011V96.9523H188.039V100.058H187.78Z" fill="#014BE4"/>
<path d="M121.708 8.28062C122.225 8.28062 122.743 7.84934 122.743 7.24554V1.03508C122.743 0.517539 122.312 0 121.708 0C121.19 0 120.673 0.431282 120.673 1.03508V7.24554C120.673 7.76308 121.104 8.28062 121.708 8.28062Z" fill="#014BE4"/>
<path d="M128.867 8.88442H129.04C129.471 8.88442 129.902 8.62565 129.989 8.10811L131.627 2.07016C131.627 1.9839 131.627 1.89764 131.627 1.81139C131.627 1.3801 131.369 0.948821 130.851 0.862565C130.765 0.862565 130.679 0.862565 130.592 0.862565C130.161 0.862565 129.73 1.12133 129.643 1.63887L128.091 7.59057C128.091 7.67683 128.091 7.76308 128.091 7.84934C128.091 8.36688 128.35 8.7119 128.867 8.88442Z" fill="#014BE4"/>
<path d="M135.595 11.3859C135.768 11.4721 135.94 11.5584 136.113 11.5584C136.458 11.5584 136.803 11.3859 136.975 11.0408L140.081 5.69293C140.167 5.52041 140.253 5.3479 140.253 5.17539C140.253 4.83036 140.081 4.48534 139.735 4.31282C139.563 4.22657 139.39 4.14031 139.218 4.14031C138.873 4.14031 138.528 4.31282 138.355 4.65785L135.25 10.092C135.164 10.2645 135.078 10.437 135.078 10.6095C135.164 10.8683 135.336 11.2133 135.595 11.3859Z" fill="#014BE4"/>
<path d="M142.151 15.8712C142.409 15.8712 142.668 15.7849 142.841 15.6124L147.24 11.2133C147.412 11.0408 147.499 10.7821 147.499 10.5233C147.499 10.2645 147.412 10.0058 147.24 9.83324C147.067 9.66072 146.809 9.57447 146.55 9.57447C146.291 9.57447 146.032 9.66072 145.86 9.83324L141.461 14.2323C141.288 14.4048 141.202 14.6636 141.202 14.9224C141.116 15.0949 141.202 15.3537 141.461 15.6124C141.633 15.7849 141.892 15.8712 142.151 15.8712Z" fill="#014BE4"/>
<path d="M98.1599 11.2996C97.9874 11.1271 97.7286 11.0408 97.4698 11.0408C97.2111 11.0408 96.9523 11.1271 96.7798 11.2996C96.6072 11.4721 96.521 11.7309 96.521 11.9896C96.521 12.2484 96.6072 12.5072 96.7798 12.6797L101.093 17.0788C101.265 17.2513 101.524 17.3376 101.783 17.3376C102.041 17.3376 102.3 17.2513 102.473 17.0788C102.645 16.9063 102.731 16.6475 102.731 16.3887C102.731 16.13 102.645 15.8712 102.473 15.6987L98.1599 11.2996Z" fill="#014BE4"/>
<path d="M107.562 12.5934C107.734 12.5934 107.907 12.5072 108.079 12.4209C108.424 12.2484 108.597 11.9034 108.597 11.5584C108.597 11.3859 108.511 11.2133 108.424 11.0408L105.233 5.69293C105.06 5.3479 104.715 5.17539 104.37 5.17539C104.198 5.17539 104.025 5.26164 103.853 5.3479C103.508 5.52041 103.335 5.86544 103.335 6.21047C103.335 6.38298 103.422 6.55549 103.508 6.728L106.613 12.0759C106.872 12.4209 107.217 12.5934 107.562 12.5934Z" fill="#014BE4"/>
<path d="M114.29 9.48821H114.462C114.894 9.40196 115.239 8.97067 115.239 8.53939C115.239 8.45313 115.239 8.36688 115.239 8.28062L113.6 2.24267C113.514 1.81139 113.082 1.46636 112.651 1.46636C112.565 1.46636 112.478 1.46636 112.392 1.46636C111.961 1.55262 111.616 1.9839 111.616 2.41518C111.616 2.50144 111.616 2.58769 111.616 2.67395L113.341 8.7119C113.427 9.14319 113.859 9.48821 114.29 9.48821Z" fill="#014BE4"/>
<path d="M115.497 36.0552C115.497 35.9689 115.497 35.7964 115.411 35.7102C115.239 35.2789 114.894 35.1064 114.462 35.1064C114.376 35.1064 114.204 35.1064 114.117 35.1926L111.185 36.4002L111.012 36.0552L113.427 34.0713C113.686 33.8988 113.772 33.5538 113.772 33.295C113.772 33.2087 113.772 33.0362 113.686 32.95C113.427 32.3462 113.255 31.6561 113.168 30.9661C113.082 30.5348 112.737 30.1898 112.306 30.1035L109.201 29.586V29.3272L112.306 28.8097C112.737 28.7234 113.082 28.3784 113.168 27.9471C113.255 27.257 113.427 26.567 113.686 25.9632C113.772 25.8769 113.772 25.7044 113.772 25.6182C113.772 25.3594 113.6 25.0144 113.427 24.8419L111.012 22.858L111.185 22.5129L114.117 23.7205C114.204 23.8068 114.376 23.8068 114.462 23.8068C114.807 23.8068 115.066 23.6343 115.239 23.4618C115.67 22.9442 116.101 22.4267 116.705 21.9954C116.964 21.8229 117.05 21.4779 117.05 21.2191C117.05 21.1328 117.05 20.9603 116.964 20.8741L115.929 17.7688L116.274 17.5963L118.258 20.0978C118.43 20.3565 118.775 20.4428 119.034 20.4428C119.12 20.4428 119.293 20.4428 119.379 20.3565C119.983 20.0978 120.673 19.9252 121.363 19.839C121.794 19.7527 122.139 19.4077 122.225 18.9764L122.743 15.8712H123.088L123.606 18.9764C123.692 19.4077 124.037 19.7527 124.468 19.839C125.158 19.9252 125.848 20.0978 126.452 20.3565C126.538 20.4428 126.711 20.4428 126.797 20.4428C127.142 20.4428 127.401 20.2703 127.573 20.0978L129.557 17.5963L129.902 17.7688L128.695 20.7016C128.608 20.7878 128.608 20.9603 128.608 21.0466C128.608 21.3053 128.781 21.6504 128.953 21.8229C129.471 22.2542 129.988 22.7717 130.42 23.2892C130.592 23.548 130.937 23.6343 131.196 23.6343C131.282 23.6343 131.455 23.6343 131.541 23.548L134.474 22.3404L134.646 22.6855L132.231 24.6694C131.972 24.8419 131.886 25.1869 131.886 25.4457C131.886 25.5319 131.886 25.7044 131.972 25.7907C132.231 26.4807 132.404 27.0845 132.49 27.7746C132.576 28.2059 132.921 28.5509 133.353 28.6371L136.458 29.1547V29.4997L133.353 30.0173C132.921 30.1035 132.576 30.4485 132.49 30.8798C132.404 31.5699 132.231 32.1737 131.972 32.8637C131.886 32.95 131.886 33.1225 131.886 33.2087C131.886 33.4675 132.059 33.8125 132.231 33.9851L134.646 35.969L134.474 36.314L131.541 35.1064C131.455 35.0201 131.282 35.0201 131.196 35.0201C130.765 35.0201 130.42 35.2789 130.247 35.6239C130.161 35.7102 130.161 35.8827 130.161 35.969C130.161 36.4002 130.42 36.7453 130.765 36.9178L134.474 38.3841C134.56 38.4704 134.733 38.4704 134.819 38.4704C135.164 38.4704 135.509 38.2979 135.681 37.9529L136.717 36.1415C136.803 35.969 136.889 35.7964 136.889 35.6239C136.889 35.3652 136.717 35.0201 136.544 34.8476L133.956 32.7775C134.043 32.4324 134.129 32.1737 134.215 31.8286L137.493 31.3111C138.01 31.2248 138.355 30.7936 138.355 30.276V28.2059C138.355 27.6883 138.01 27.257 137.493 27.1708L134.215 26.6532C134.129 26.3082 134.043 25.9632 133.956 25.7044L136.544 23.6343C136.803 23.4618 136.889 23.1167 136.889 22.858C136.889 22.6855 136.803 22.5129 136.717 22.3404L135.681 20.529C135.509 20.184 135.164 20.0115 134.819 20.0115C134.733 20.0115 134.56 20.0115 134.474 20.0978L131.369 21.3053C131.11 21.0466 130.937 20.7878 130.679 20.6153L131.886 17.5101C131.972 17.4238 131.972 17.2513 131.972 17.165C131.972 16.82 131.8 16.475 131.455 16.3025L129.643 15.2674C129.471 15.1811 129.298 15.0949 129.126 15.0949C128.867 15.0949 128.522 15.2674 128.35 15.4399L126.279 18.1139C125.934 18.0276 125.676 17.9413 125.331 17.8551L124.813 14.5773C124.727 14.0598 124.296 13.7148 123.778 13.7148H121.622C121.104 13.7148 120.673 14.0598 120.587 14.5773L120.069 17.8551C119.724 17.9413 119.379 18.0276 119.12 18.1139L117.05 15.4399C116.878 15.1811 116.532 15.0949 116.274 15.0949C116.101 15.0949 115.929 15.1811 115.756 15.2674L113.945 16.3025C113.6 16.475 113.427 16.82 113.427 17.165C113.427 17.2513 113.427 17.4238 113.514 17.5101L114.721 20.6153C114.462 20.8741 114.204 21.0466 114.031 21.3053L110.926 20.0978C110.84 20.0115 110.667 20.0115 110.581 20.0115C110.236 20.0115 109.891 20.184 109.718 20.529L108.683 22.3404C108.597 22.5129 108.511 22.6855 108.511 22.858C108.511 23.1167 108.683 23.4618 108.856 23.6343L111.443 25.7044C111.357 26.0495 111.271 26.3082 111.185 26.6532L107.907 27.1708C107.389 27.257 107.044 27.6883 107.044 28.2059V30.276C107.044 30.7936 107.389 31.2248 107.907 31.3111L111.185 31.8286C111.271 32.1737 111.357 32.5187 111.443 32.7775L109.028 35.0201C108.769 35.1926 108.683 35.5377 108.683 35.7964C108.683 35.9689 108.769 36.1415 108.856 36.314L109.891 38.1254C110.063 38.4704 110.408 38.6429 110.753 38.6429H110.926L114.807 37.0903C115.325 36.7453 115.497 36.4002 115.497 36.0552Z" fill="#014BE4"/>
<path d="M114.98 63.916C114.98 64.4336 115.411 64.9511 116.015 64.9511H119.638V69.264C119.638 69.7815 120.069 70.299 120.673 70.299H124.986C125.503 70.299 126.021 69.8678 126.021 69.264V64.9511H129.643C130.161 64.9511 130.679 64.5198 130.679 63.916V58.7407H133.266C133.784 58.7407 134.301 58.3094 134.301 57.7056V55.2904H136.026C136.544 55.2904 137.062 54.8591 137.062 54.2553C137.062 53.7378 136.63 53.2202 136.026 53.2202H134.301V51.7539H136.026C136.544 51.7539 137.062 51.3226 137.062 50.7188C137.062 50.2013 136.63 49.6837 136.026 49.6837H134.301V47.7861H136.026C136.544 47.7861 137.062 47.3548 137.062 46.751C137.062 46.2335 136.63 45.7159 136.026 45.7159H134.301V43.9908C139.218 40.368 142.151 34.5888 142.151 28.3784C142.151 17.6826 133.525 8.97067 122.829 8.97067C112.133 8.97067 103.508 17.5963 103.508 28.3784C103.508 34.5888 106.44 40.368 111.357 43.9908V45.8022H109.632C109.114 45.8022 108.597 46.2335 108.597 46.8373C108.597 47.3548 109.028 47.8723 109.632 47.8723H111.357V49.77H109.632C109.114 49.77 108.597 50.2013 108.597 50.8051C108.597 51.3226 109.028 51.8401 109.632 51.8401H111.357V53.3928H109.632C109.114 53.3928 108.597 53.824 108.597 54.4278C108.597 54.9454 109.028 55.4629 109.632 55.4629H111.357V57.8781C111.357 58.3956 111.788 58.9132 112.392 58.9132H114.98V63.916ZM123.951 68.3151H121.622V64.9511H123.951V68.3151ZM128.608 62.881H117.05V58.6544H128.608V62.881ZM132.145 53.3065H113.341V51.7539H132.145V53.3065ZM132.145 49.77H113.341V47.8723H132.145V49.77ZM105.492 28.5509C105.492 23.8068 107.476 19.4077 110.581 16.2162C113.686 13.111 117.999 11.1271 122.829 11.1271C127.573 11.1271 131.886 13.111 135.078 16.2162C138.183 19.3214 140.167 23.7205 140.167 28.5509C140.167 34.2438 137.407 39.5917 132.749 42.7832C132.49 42.9557 132.317 43.3008 132.317 43.6458V45.9747H113.341V43.6458C113.341 43.3008 113.168 43.042 112.91 42.7832C108.252 39.5917 105.492 34.2438 105.492 28.5509ZM113.255 56.6705V55.2904H132.145V56.6705H113.255Z" fill="#014BE4"/>
</svg>
