<svg width="184" height="135" viewBox="0 0 184 135" fill="none" xmlns="http://www.w3.org/2000/svg">
<path d="M143.6 116.379L135.6 115.279L132 107.979C131.4 106.979 129.9 106.979 129.3 107.979L125.7 115.279L117.7 116.379C116.4 116.479 116 118.079 116.9 118.879L123.1 124.479L121.7 132.479C121.6 133.779 122.8 134.579 123.8 133.979L130.9 130.179L138 133.979C139.1 134.579 140.4 133.679 140.1 132.479L138.7 124.479L144.4 118.879C145.2 118.079 144.8 116.579 143.6 116.379ZM136.4 122.979C136.1 123.279 135.8 123.779 136 124.279L137 129.979L131.8 127.179C131.4 126.879 130.8 126.879 130.4 127.179L125.2 129.979L126.2 124.279C126.3 123.879 126.1 123.279 125.8 122.979L121.6 118.879L127.2 118.079C127.6 118.079 128 117.679 128.3 117.279L131 111.979L133.7 117.279C134 117.679 134.3 117.979 134.8 118.079L140.7 118.879L136.4 122.979Z" fill="#0272B0"/>
<path d="M180.1 116.479L172.1 115.379L168.5 108.079C167.9 107.079 166.4 107.079 165.8 108.079L162.2 115.379L154.2 116.479C152.9 116.579 152.5 118.179 153.4 118.979L159.1 124.579L157.7 132.579C157.6 133.879 158.8 134.679 159.8 134.079L166.9 130.279L174 134.079C175.1 134.679 176.4 133.779 176.1 132.579L174.7 124.579L180.4 118.979C181.8 118.079 181.2 116.679 180.1 116.479ZM172.6 123.079C172.3 123.379 172 123.879 172.2 124.379L173.2 130.079L168 127.279C167.6 126.979 167 126.979 166.6 127.279L161.4 130.079L162.4 124.379C162.5 123.979 162.3 123.379 162 123.079L157.8 118.979L163.5 117.979C163.9 117.979 164.3 117.579 164.6 117.179L167.3 111.879L170 117.179C170.3 117.579 170.6 117.879 171.1 117.979L177 118.779L172.6 123.079Z" fill="#0272B0"/>
<path d="M149.4 65.5793C139.6 65.5793 131.8 73.4793 131.8 83.1793C131.8 92.9793 139.7 100.779 149.4 100.779C154.3 100.779 158.7 98.7793 161.8 95.6793C165 92.4793 166.9 88.0793 166.9 83.2793C167 73.3793 159 65.5793 149.4 65.5793ZM149.4 98.0793C145.3 98.0793 141.6 96.4793 138.9 93.7793C136.2 91.0793 134.5 87.3793 134.5 83.2793C134.5 79.1793 136.2 75.4793 138.9 72.7793C141.6 70.0793 145.3 68.3793 149.4 68.3793C153.5 68.3793 157.2 69.9793 159.9 72.6793C162.6 75.3793 164.3 79.0793 164.3 83.2793C164.3 87.2793 162.6 90.9793 159.9 93.6793C157.2 96.3793 153.5 98.0793 149.4 98.0793Z" fill="#0272B0"/>
<path d="M183.9 20.6793C183.9 20.3793 183.8 20.0793 183.6 19.8793L179.3 15.1793C179.2 15.0793 179.2 14.9793 179.1 14.9793L170.6 5.8793C170.5 5.7793 170.4 5.6793 170.4 5.6793C170.1 5.4793 169.9 5.4793 169.7 5.4793H130.4C130.3 5.4793 130.3 5.4793 130.3 5.4793C130.1 5.4793 129.9 5.5793 129.7 5.5793C129.6 5.6793 129.5 5.7793 129.4 5.7793L127.8 7.4793L120.7 14.9793L116.3 19.6793V19.7793C116.2 19.9793 116.1 20.2793 116.1 20.6793C116.1 20.7793 116.1 20.9793 116.2 21.0793L131.6 68.2793C128.2 72.2793 126.2 77.4793 126.2 83.1793C126.2 95.9793 136.7 106.379 149.5 106.379C162.3 106.379 172.7 95.8793 172.8 83.1793C172.8 77.8793 171 73.0793 168.1 69.1793L183.9 21.1793C183.8 20.9793 183.9 20.8793 183.9 20.6793ZM149.4 103.879C143.7 103.879 138.6 101.579 134.8 97.8793C131.1 94.1793 128.8 88.9793 128.8 83.2793C128.8 77.5793 131.1 72.4793 134.8 68.6793C135.8 67.6793 137 66.6793 138.2 65.8793L138.3 65.7793C138.4 65.6793 138.5 65.6793 138.6 65.5793C141.7 63.6793 145.4 62.5793 149.3 62.5793C154.9 62.5793 159.9 64.7793 163.6 68.3793C163.8 68.5793 164 68.7793 164.2 68.9793C164.4 69.1793 164.5 69.3793 164.7 69.5793C164.9 69.7793 165.1 70.0793 165.3 70.2793C168.2 73.7793 169.9 78.2793 169.9 83.2793C169.9 88.9793 167.6 94.0793 163.9 97.8793C160.2 101.579 155.1 103.879 149.4 103.879ZM150.4 59.9793C150.1 59.9793 149.7 59.9793 149.4 59.9793H149.3L136.7 22.0793H163L150.4 59.9793ZM138.4 62.6793L128 31.5793L123 16.3793L129.6 9.4793L133.5 21.2793C133.5 21.3793 133.6 21.3793 133.6 21.4793L146.5 60.1793C143.7 60.4793 140.9 61.3793 138.4 62.6793ZM161.3 63.1793C160.8 62.8793 160.3 62.6793 159.8 62.3793C159.7 62.3793 159.6 62.2793 159.6 62.2793C159.4 62.1793 159.2 62.0793 159.1 62.0793C157.9 61.5793 156.8 61.0793 155.5 60.7793C155.4 60.7793 155.3 60.6793 155.1 60.6793C155 60.6793 154.9 60.6793 154.8 60.5793C154.3 60.4793 153.7 60.3793 153.2 60.2793L165.8 21.5793C165.9 21.4793 166 21.3793 166.1 21.1793L170 9.3793L176.6 16.2793L161.3 63.1793ZM164 19.2793H135.8L132 7.9793H167.7L164 19.2793ZM120.9 18.5793L126.9 36.4793L136.1 64.2793C135.3 64.8793 134.5 65.4793 133.7 66.1793L118.6 20.9793L120.9 18.5793ZM163.5 64.6793L178.7 18.5793L181 20.9793L165.9 66.7793C165.2 65.9793 164.3 65.2793 163.5 64.6793Z" fill="#0272B0"/>
<path d="M162.7 79.2793C162.7 79.0793 162.7 78.9793 162.6 78.7793C162.5 78.5793 162.4 78.3793 162.2 78.2793C162 78.0793 161.7 77.9793 161.4 77.9793H153.3L150.8 70.2793C150.7 69.9793 150.6 69.7793 150.4 69.5793C150.2 69.3793 149.9 69.2793 149.6 69.2793C149.3 69.2793 149 69.3793 148.8 69.5793C148.6 69.7793 148.5 69.9793 148.4 70.2793L145.9 77.9793H137.8C137.6 77.9793 137.3 77.9793 137.1 78.1793C136.9 78.2793 136.7 78.5793 136.6 78.7793C136.5 78.8793 136.5 79.0793 136.5 79.1793C136.5 79.5793 136.7 79.8793 136.9 80.1793L143.5 84.8793L141 92.5793C140.9 92.6793 140.9 92.8793 140.9 92.9793C140.9 93.3793 141.1 93.6793 141.3 93.9793C141.5 94.1793 141.7 94.1793 141.8 94.2793C141.9 94.2793 142.1 94.2793 142.1 94.2793C142.3 94.2793 142.6 94.2793 143 94.0793H143.1L149.7 89.1793L156.2 93.9793C156.5 94.1793 156.7 94.2793 157 94.2793C157.2 94.2793 157.5 94.1793 157.7 94.0793C157.7 94.0793 157.8 94.0793 157.8 93.9793C158.1 93.7793 158.2 93.3793 158.3 93.0793C158.3 92.8793 158.3 92.7793 158.2 92.5793L155.7 84.8793L162.2 80.1793C162.6 80.0793 162.7 79.6793 162.7 79.2793ZM150.2 86.6793C150 86.5793 149.9 86.4793 149.7 86.4793C149.6 86.4793 149.4 86.4793 149.4 86.4793C149.3 86.4793 149.2 86.4793 149.1 86.4793C149 86.4793 148.8 86.5793 148.7 86.6793L144.6 89.5793L146.2 84.8793C146.3 84.7793 146.3 84.5793 146.3 84.4793C146.3 84.0793 146.1 83.7793 145.9 83.4793L141.8 80.5793H146.8C147.1 80.5793 147.4 80.4793 147.6 80.2793C147.8 80.0793 147.9 79.8793 148 79.5793L149.5 74.8793L151 79.5793C151.1 79.8793 151.2 80.0793 151.4 80.2793C151.6 80.4793 151.9 80.5793 152.2 80.5793H157.2L153.2 83.4793C152.8 83.6793 152.7 84.0793 152.7 84.4793C152.7 84.6793 152.7 84.7793 152.8 84.9793L154.4 89.6793L150.2 86.6793Z" fill="#0272B0"/>
<path d="M53.4 30.6793C57.6 30.6793 61.4 28.9793 64.2 26.3793C67 23.6793 68.7 19.9793 68.7 15.7793V15.4793C68.7 14.2793 68.6 13.1793 68.3 12.0793C68.3 11.9793 68.3 11.8793 68.3 11.7793C68.3 11.6793 68.2 11.5793 68.2 11.4793C66.3 5.0793 60.5 0.279297 53.4 0.279297C45.1 0.279297 38.2 6.9793 38.2 15.4793C38.2 23.7793 45 30.6793 53.4 30.6793ZM53.4 3.0793C54.7 3.0793 55.9 3.2793 57 3.6793C56.9 5.4793 55.8 7.0793 54 8.2793C52 9.6793 49.3 10.4793 46.3 10.4793C45 10.4793 43.7 10.2793 42.4 9.9793C43 8.7793 43.8 7.6793 44.7 6.7793C46.9 4.4793 50 3.0793 53.4 3.0793ZM65.8 15.4793C65.8 18.8793 64.4 21.9793 62.2 24.1793C60 26.3793 56.9 27.7793 53.5 27.7793C50.1 27.7793 47 26.3793 44.8 24.1793C42.6 21.9793 41.2 18.8793 41.2 15.4793C41.2 14.5793 41.3 13.6793 41.5 12.7793C43 13.1793 44.7 13.4793 46.4 13.4793C49.6 13.4793 52.6 12.6793 55 11.1793C57.5 12.7793 60.7 13.7793 64 13.7793C64.6 13.7793 65.2 13.7793 65.7 13.7793C65.7 14.2793 65.8 14.8793 65.8 15.4793ZM64 10.8793C61.6 10.8793 59.3 10.2793 57.3 9.2793C58.5 8.0793 59.4 6.5793 59.8 4.9793C60.6 5.4793 61.4 6.0793 62.1 6.7793C63.3 7.9793 64.2 9.2793 64.8 10.8793C64.6 10.8793 64.3 10.8793 64 10.8793Z" fill="#0272B0"/>
<path d="M91.2 98.9793C86.1 98.9793 81.9 103.179 81.9 108.279C81.9 113.379 86.1 117.579 91.2 117.579C93.8 117.579 96.1 116.579 97.8 114.879C99.5 113.279 100.5 110.979 100.5 108.479V108.179C100.6 103.179 96.4 98.9793 91.2 98.9793ZM97.6 108.279C97.6 109.979 96.9 111.579 95.8 112.779C94.7 113.979 93.1 114.679 91.3 114.679C88.1 114.679 85.5 112.379 85 109.279C85.3 109.279 85.6 109.379 85.9 109.379C88.4 109.379 90.8 108.479 92.5 106.879C94 107.679 95.6 108.079 97.3 108.079C97.4 108.079 97.5 108.079 97.7 108.079C97.6 108.079 97.6 108.179 97.6 108.279ZM90.6 102.079C90.8 102.079 90.9 102.079 91.1 102.079C93.5 102.079 95.4 103.279 96.6 105.079C95.4 104.979 94.2 104.479 93.2 103.679C93 103.479 92.8 103.379 92.6 103.379C92.4 103.379 92.2 103.379 92.1 103.379C91.7 103.379 91.3 103.579 91.1 103.979C89.9 105.579 87.9 106.479 85.9 106.479C85.6 106.479 85.4 106.479 85.1 106.479C86 103.879 88.2 102.079 90.6 102.079Z" fill="#0272B0"/>
<path d="M42.3 108.279C42.3 113.379 46.5 117.579 51.6 117.579C56.7 117.579 60.9 113.379 60.9 108.279C60.9 103.179 56.7 98.9793 51.6 98.9793C46.5 98.9793 42.3 103.179 42.3 108.279ZM57.5 107.979C57.6 107.979 57.7 107.979 57.8 107.979C57.8 108.079 57.8 108.179 57.8 108.279C57.8 109.979 57.1 111.579 56 112.779C54.9 113.979 53.3 114.679 51.5 114.679C48.3 114.679 45.7 112.379 45.2 109.279C45.5 109.279 45.8 109.379 46.1 109.379C48.6 109.379 51 108.479 52.7 106.879C54.2 107.579 55.9 107.979 57.5 107.979ZM53.5 103.679C53.3 103.479 53.1 103.379 52.9 103.379C52.7 103.379 52.5 103.379 52.4 103.379C52 103.379 51.6 103.579 51.4 103.979C50.2 105.579 48.2 106.479 46.2 106.479C45.9 106.479 45.7 106.479 45.4 106.479C46.1 104.079 48.3 102.179 50.8 102.179C51 102.179 51.1 102.179 51.3 102.179C53.7 102.179 55.6 103.379 56.8 105.179C55.7 104.879 54.5 104.479 53.5 103.679Z" fill="#0272B0"/>
<path d="M57.8 118.279H45.6C40.1 118.279 35.7 122.779 35.7 128.179V133.379C35.7 133.779 35.9 134.179 36.2 134.379C36.5 134.679 36.8 134.879 37.2 134.879C37.6 134.879 38 134.679 38.2 134.379C38.5 134.079 38.7 133.779 38.7 133.379V128.179C38.7 124.279 41.7 121.279 45.6 121.279H57.8C61.7 121.279 64.7 124.279 64.7 128.179V133.379C64.7 133.779 64.9 134.179 65.2 134.379C65.5 134.679 65.8 134.879 66.2 134.879C66.7 134.879 67 134.679 67.3 134.379C67.6 134.079 67.7 133.779 67.7 133.379V128.179C67.7 122.579 63.2 118.279 57.8 118.279Z" fill="#0272B0"/>
<path d="M97.6 118.279H85.4C79.9 118.279 75.5 122.779 75.5 128.179V133.379C75.5 133.779 75.7 134.179 76 134.379C76.3 134.679 76.6 134.879 77 134.879C77.4 134.879 77.8 134.679 78 134.379C78.3 134.079 78.5 133.779 78.5 133.379V128.179C78.5 124.279 81.5 121.279 85.4 121.279H97.6C101.5 121.279 104.5 124.279 104.5 128.179V133.379C104.5 133.779 104.7 134.179 105 134.379C105.3 134.679 105.6 134.879 106 134.879C106.5 134.879 106.8 134.679 107.1 134.379C107.4 134.079 107.5 133.779 107.5 133.379V128.179C107.4 122.579 102.9 118.279 97.6 118.279Z" fill="#0272B0"/>
<path d="M14.8 117.579C19.9 117.579 24.1 113.379 24.1 108.279C24.1 103.179 19.9 98.9793 14.8 98.9793C9.7 98.9793 5.5 103.179 5.5 108.279C5.4 113.379 9.7 117.579 14.8 117.579ZM14.1 102.079C14.3 102.079 14.4 102.079 14.6 102.079C17 102.079 18.9 103.279 20.1 105.079C18.9 104.979 17.7 104.479 16.7 103.679C16.5 103.479 16.3 103.379 16.1 103.379C15.9 103.379 15.7 103.379 15.6 103.379C15.2 103.379 14.8 103.579 14.6 103.979C13.4 105.579 11.4 106.479 9.4 106.479C9.1 106.479 8.9 106.479 8.6 106.479C9.4 103.879 11.6 102.079 14.1 102.079ZM9.3 109.479H9.4C11.8 109.479 14.2 108.479 15.9 106.779C17.4 107.579 19.1 107.979 20.7 107.979C20.8 107.979 20.9 107.979 21 107.979C21 108.079 21 108.179 21 108.279C21 109.979 20.3 111.579 19.2 112.779C18.1 113.979 16.5 114.679 14.7 114.679C11.5 114.679 8.9 112.379 8.4 109.279C8.8 109.279 9.1 109.379 9.3 109.479Z" fill="#0272B0"/>
<path d="M21.1 118.279H8.9C3.4 118.279 -1 122.779 -1 128.179V133.379C-1 133.779 -0.8 134.179 -0.5 134.379C-0.2 134.679 0.1 134.879 0.5 134.879C0.9 134.879 1.3 134.679 1.5 134.379C1.8 134.079 2 133.779 2 133.379V128.179C2 124.279 5 121.279 8.9 121.279H21.1C25 121.279 28 124.279 28 128.179V133.379C28 133.779 28.2 134.179 28.5 134.379C28.8 134.679 29.1 134.879 29.5 134.879C29.9 134.879 30.3 134.679 30.5 134.379C30.8 134.079 31 133.779 31 133.379V128.179C31 122.579 26.5 118.279 21.1 118.279Z" fill="#0272B0"/>
<path d="M14.6 97.1793C15 97.1793 15.4 96.9793 15.6 96.6793C15.9 96.3793 16.1 96.0793 16.1 95.6793V80.5793L51.5 80.9793V87.5793C51.5 87.9793 51.7 88.3793 52 88.5793C52.3 88.8793 52.6 89.0793 53 89.0793C53.4 89.0793 53.8 88.8793 54 88.5793C54.3 88.2793 54.5 87.9793 54.5 87.5793V80.9793L90.3 81.3793V96.0793C90.3 96.4793 90.5 96.8793 90.8 97.0793C91.1 97.3793 91.4 97.5793 91.8 97.5793C92.2 97.5793 92.5 97.3793 92.7 97.1793C92.9 96.9793 93.1 96.5793 93.1 96.2793V79.8793C93.1 79.4793 92.9 79.0793 92.6 78.8793C92.3 78.5793 92 78.3793 91.6 78.3793L54.4 77.9793V63.4793H81C81.4 63.4793 81.8 63.3793 82.1 63.0793C82.4 62.7793 82.5 62.3793 82.5 61.9793V41.4793C82.5 40.8793 82.1 40.3793 81.6 40.1793L63.8 33.1793C63.7 33.0793 63.7 32.9793 63.6 32.8793C63.3 32.5793 63 32.3793 62.6 32.3793C62.5 32.3793 62.4 32.3793 62.2 32.4793C62.1 32.4793 61.9 32.3793 61.8 32.3793C61.4 32.3793 61.1 32.5793 60.9 32.7793L52.9 39.9793L45.4 32.9793C45.2 32.7793 44.9 32.5793 44.5 32.5793C44.3 32.4793 44.2 32.4793 44 32.4793C43.6 32.4793 43.2 32.6793 43 32.9793L42.9 33.0793L24.8 40.2793C24.2 40.4793 23.9 40.9793 23.9 41.5793V61.9793C23.9 62.3793 24.1 62.7793 24.4 62.9793C24.7 63.2793 25 63.4793 25.4 63.4793H51.5V77.9793L14.6 77.5793C14.4 77.5793 14.2 77.5793 14 77.6793C13.8 77.7793 13.6 77.7793 13.5 77.9793V78.0793C13.4 78.3793 13.2 78.6793 13.2 79.0793V95.7793C13.2 96.1793 13.4 96.5793 13.7 96.7793C13.9 96.9793 14.2 97.1793 14.6 97.1793ZM54.6 45.2793V48.6793H52V45.2793H54.6ZM54.8 51.6793L56.5 60.4793H49.6L51.7 51.6793H54.8ZM72.8 48.0793C72.5 47.7793 72.2 47.5793 71.8 47.5793C71.4 47.5793 71 47.7793 70.8 48.0793C70.5 48.3793 70.3 48.6793 70.3 49.0793V60.4793H59.6L57.6 49.8793C57.6 49.7793 57.5 49.6793 57.5 49.6793V45.2793H62.4C62.8 45.2793 63.2 45.1793 63.5 44.8793C63.8 44.5793 64 44.2793 64 43.8793V36.4793L79.5 42.5793V60.5793H73.2V49.0793C73.3 48.6793 73.1 48.2793 72.8 48.0793ZM55 42.2793L61.1 36.7793V42.2793H55ZM45.6 42.2793V37.0793L51 42.2793H45.6ZM43 44.7793C43.3 45.0793 43.6 45.2793 44 45.2793H49V50.1793C49 50.2793 49 50.2793 49 50.3793L46.6 60.4793H36.3V49.0793C36.3 48.6793 36.1 48.2793 35.8 48.0793C35.5 47.7793 35.2 47.5793 34.8 47.5793C34.4 47.5793 34 47.7793 33.8 48.0793C33.5 48.3793 33.3 48.6793 33.3 49.0793V60.4793H26.9V42.5793L42.5 36.3793V43.6793C42.6 44.1793 42.8 44.4793 43 44.7793Z" fill="#0272B0"/>
</svg>
