<svg width="200" height="150" viewBox="0 0 200 150" fill="none" xmlns="http://www.w3.org/2000/svg">
<path d="M199.656 61.3597C199.656 61.2737 199.742 61.1876 199.742 61.0155C199.742 60.8434 199.742 60.7573 199.656 60.5852C199.398 27.883 173.322 1.29088 140.878 0.172117C140.103 0.0860585 139.415 0 138.64 0C137.866 0 137.177 0.0860585 136.489 0.172117C119.793 0.774527 104.733 8.17556 94.062 19.6213H93.1153V9.98279C93.1153 8.77797 92.0826 7.74527 90.8778 7.74527H17.642C16.4372 7.74527 15.4045 8.77797 15.4045 9.98279V19.7074H2.23752C1.0327 19.7074 0 20.654 0 21.9449V47.4182C0 52.5818 1.63511 57.401 4.73322 61.4458C7.48709 65.0602 11.2737 67.8141 15.6627 69.3632C16.5232 76.8503 19.4492 83.9071 24.2685 89.759C29.1738 95.6971 35.5422 100 42.8571 102.238C43.5456 105.852 43.4596 109.639 42.5129 113.769C41.5663 117.728 39.9311 122.117 37.5215 126.85C37.2633 127.108 37.1773 127.453 37.1773 127.883H24.7849C24.0964 127.883 23.58 128.399 23.58 129.088V143.201C23.58 143.89 24.0964 144.406 24.7849 144.406H30.2926V148.795C30.2926 149.484 30.8089 150 31.4974 150H77.1084C77.7969 150 78.3132 149.484 78.3132 148.795V144.492H83.7349C84.4234 144.492 84.9398 143.89 84.9398 143.287V129.174C84.9398 128.485 84.4234 127.969 83.7349 127.969H71.1704C71.1704 127.711 71.0843 127.367 70.9122 127.108C68.4165 122.031 66.8675 117.9 65.9208 113.941C64.9742 109.811 64.8881 105.938 65.5766 102.151C70.0516 100.775 74.0964 98.7091 77.7108 95.8692C79.6041 96.4716 81.9277 96.8158 84.6816 96.8158H85.8864C86.833 96.8158 87.8657 96.7298 88.9845 96.6437C100.516 112.565 118.933 122.117 138.554 122.117C172.203 121.945 199.484 94.7504 199.656 61.3597ZM196.73 56.0241C197.16 57.315 197.418 58.6058 197.418 59.9828H194.75L196.73 56.0241ZM89.3287 78.1411C90.1033 77.5387 90.8778 76.8503 91.7384 76.2478C91.9966 75.9897 92.0826 75.6454 92.0826 75.3873C92.0826 75.3012 92.0826 75.1291 92.0826 75.043C91.222 72.2031 90.5336 69.191 90.0172 66.179C89.9311 65.7487 89.673 65.4905 89.3287 65.3184C88.9845 65.2324 88.6403 65.2324 88.296 65.4905C87.9518 65.7487 87.6076 66.0069 87.2633 66.2651C85.5422 67.5559 83.9071 68.9329 82.1859 70.3959C80.895 68.0723 80.1205 65.6626 79.8623 63.253C79.8623 62.9088 79.8623 62.5645 79.8623 62.2203H104.561C104.647 69.2771 105.336 76.0757 106.713 82.6162C103.873 83.3907 101.205 84.0792 98.7091 84.5955C95.0947 82.7883 91.9105 80.7229 89.2427 78.4854C89.2427 78.2272 89.3287 78.1411 89.3287 78.1411ZM173.58 56.5404C173.322 56.7126 172.978 56.7986 172.719 56.9707C172.719 56.1962 172.633 55.5077 172.633 54.7332L173.58 56.5404ZM139.759 71.2565V62.0482H161.532C154.131 65.4045 146.816 68.5026 139.759 71.2565ZM137.608 72.117C127.367 76.0757 117.556 79.432 108.864 81.8416C107.487 75.5594 106.885 68.9329 106.799 62.0482H137.608V72.117ZM173.494 43.8898C172.806 43.8038 172.117 43.8898 171.515 44.148C170.912 40.5336 170.224 37.0912 169.277 33.821C178.83 36.9191 186.747 41.5663 191.824 47.2461L173.494 43.8898ZM169.449 45.8692C169.277 46.3855 169.191 46.9019 169.277 47.4182C169.277 47.9346 169.449 48.4509 169.621 48.8812L169.966 49.5697C170.31 52.3236 170.482 55.1635 170.568 57.8313C169.535 58.3477 168.503 58.864 167.384 59.2943L166.179 59.8967H139.759V29.1738C149.398 29.2599 158.606 30.6368 166.781 32.9604C167.9 37.0052 168.847 41.3081 169.449 45.8692ZM139.759 27.1084V2.32358C140.361 2.32358 140.878 2.32358 141.48 2.40964C151.807 4.04475 160.843 14.8021 166.007 30.7229C158.003 28.4854 149.053 27.1945 139.759 27.1084ZM137.608 2.32358V27.1084C128.141 27.1945 119.277 28.4854 111.36 30.7229C116.523 15.0602 125.473 4.13081 135.886 2.40964C136.403 2.40964 137.005 2.40964 137.608 2.32358ZM137.608 29.1738V59.8967H106.713C106.799 50.1721 108.176 41.0499 110.499 33.0465C118.589 30.6368 127.797 29.2599 137.608 29.1738ZM104.561 59.8967H79.9484C79.9484 59.5525 79.9484 59.2943 79.9484 58.9501C81.2392 48.2788 92.1687 38.9845 108.176 33.7349C105.938 41.6523 104.647 50.5163 104.561 59.8967ZM82.4441 85.284C82.5301 85.1979 82.5301 85.1119 82.6162 85.1119C82.7883 85.5422 82.9604 85.8864 83.1325 86.2306C83.0465 86.2306 82.9604 86.2306 82.8744 86.2306C82.5301 86.2306 82.4441 85.9725 82.358 85.8864C82.2719 85.7143 82.2719 85.5422 82.4441 85.284ZM84.0792 83.2186C84.1652 83.1325 84.1652 83.1325 84.0792 83.2186C84.2513 82.9604 84.4234 82.7883 84.5955 82.6162C85.37 81.7556 86.3167 80.8089 87.5215 79.6902C89.759 81.6695 92.4268 83.4768 95.3528 85.1119C95.1807 85.1119 95.0947 85.1979 94.9225 85.1979C93.9759 85.37 93.0293 85.5422 92.1687 85.6282C90.1033 85.8864 88.21 86.1446 86.5749 86.2306C86.1446 86.2306 85.8003 86.2306 85.37 86.2306C85.0258 85.284 84.5095 84.2513 84.0792 83.2186ZM137.608 92.8571C130.379 92.7711 123.236 92.0826 116.609 90.5336C122.461 88.7263 128.657 86.6609 135.112 84.2513C135.198 84.2513 135.284 84.1652 135.37 84.1652C135.714 83.9931 136.145 83.9071 136.575 83.7349C136.919 83.6489 137.263 83.4768 137.608 83.3907V92.8571ZM112.478 91.8244C120.396 93.8898 128.83 95.0086 137.608 95.0947V119.88C127.022 119.191 117.212 108.692 111.618 92.0826C111.876 91.9966 112.134 91.9105 112.478 91.8244ZM139.759 95.0086C149.225 94.9225 158.176 93.6317 166.093 91.3941C160.671 108.089 150.861 119.191 139.759 119.88V95.0086ZM139.759 92.8571V82.6162C139.845 82.6162 139.931 82.5301 140.017 82.5301C140.878 82.1859 141.738 81.8416 142.599 81.4974C143.029 81.3253 143.546 81.1532 143.976 80.9811C144.664 80.7229 145.353 80.4647 146.041 80.2065C146.73 79.9484 147.504 79.6041 148.193 79.3459C148.537 79.1738 148.881 79.0878 149.225 78.9157C156.024 76.1618 162.909 73.1497 169.88 69.8795L170.31 69.7074C169.707 76.6781 168.503 83.2186 166.781 89.0706C158.778 91.3941 149.484 92.7711 139.759 92.8571ZM172.633 68.5026C174.527 67.642 176.506 66.6954 178.313 65.8348L182.014 73.2358C182.616 74.4406 183.735 75.1291 185.112 75.1291C185.456 75.1291 185.8 75.043 186.059 74.957C187.005 74.6988 187.78 74.0103 188.21 73.1497V73.0637L193.718 62.0482H197.418C196.73 73.1497 185.628 82.7883 169.277 88.21C170.998 82.1859 172.117 75.5594 172.633 68.5026ZM196.127 48.1067C196.041 48.1067 195.869 48.0207 195.783 48.0207L194.75 47.8485C189.415 40.7057 180.034 35.0258 168.503 31.4114C164.458 18.2444 157.831 8.34768 149.914 3.44234C172.805 7.83132 190.964 25.4733 196.127 48.1067ZM127.367 3.44234C119.449 8.43373 112.823 18.5026 108.864 31.4114C95.8692 35.4561 85.8864 42.0826 80.9811 50C85.4561 26.5921 103.959 8.00344 127.367 3.44234ZM75.9036 147.504H32.6162V144.234H75.9036V147.504ZM82.5301 141.824H25.9897V130.034H38.6403C38.8984 130.12 39.1566 130.207 39.5009 130.207H69.0189C69.2771 130.207 69.5353 130.12 69.7935 130.034H82.5301V141.824ZM64.1997 100.086C63.7694 100.172 63.4251 100.602 63.3391 101.033C62.3924 105.336 62.4785 109.725 63.5112 114.458C64.4578 118.503 66.0929 122.806 68.6747 127.797H39.4148C41.9966 122.806 43.6317 118.33 44.5783 114.2C45.6971 109.466 45.7831 105.164 44.8365 100.947C44.7504 100.516 44.4062 100.172 43.9759 100C36.9191 98.0206 30.5508 93.8898 25.8176 88.1239C21.0843 82.4441 18.2444 75.5594 17.5559 68.2444C17.4699 67.7281 17.2117 67.3838 16.6954 67.2117C12.6506 66.0069 8.86403 63.4251 6.19621 59.8967C3.61446 56.3683 2.15146 51.8933 2.15146 47.3322L2.23752 21.9449H16.5232C17.2117 21.9449 17.7281 21.4286 17.7281 20.7401L17.642 9.98279L90.7057 9.89673V20.7401C90.7057 21.4286 91.222 21.9449 91.9105 21.9449H91.9966C83.5628 32.0138 78.3132 44.8365 77.7969 58.864C77.7108 59.5525 77.6248 60.327 77.6248 61.0155C77.6248 61.704 77.7108 62.4785 77.7969 63.167C77.883 66.6093 78.3132 69.9656 78.9157 73.3219C77.969 74.1824 77.1945 75.043 76.42 75.9036C74.5267 77.969 68.7608 84.3373 71.6867 90.7057C72.4613 92.3408 73.6661 93.7177 75.3012 94.6644C71.9449 97.074 68.2444 98.8812 64.1997 100.086ZM84.7676 94.5783C78.8296 94.5783 75.2151 93.0293 73.7521 89.8451C71.3425 84.7676 76.42 79.1738 78.0551 77.3666C78.8296 76.506 79.6902 75.6454 80.5508 74.6988C80.6368 74.6127 80.7229 74.6127 80.8089 74.5267C82.7883 72.5473 85.284 70.4819 88.1239 68.2444C88.5542 70.0516 88.8984 71.8589 89.4148 73.6661C89.5009 74.0964 89.5869 74.4406 89.759 74.8709C88.7263 75.8176 87.6936 76.6781 86.833 77.4527C86.747 77.5387 86.6609 77.6248 86.5749 77.7969C83.3046 80.7229 81.5835 82.8744 80.6368 84.1652C80.0344 84.9398 79.9484 85.8864 80.3787 86.833C80.8089 87.7797 81.5835 88.296 82.6162 88.3821C83.2186 88.4682 83.821 88.4682 84.5955 88.4682H84.6816C87.6076 88.4682 91.136 88.0379 95.2668 87.3494C95.2668 87.3494 95.2668 87.3494 95.3528 87.3494C96.3855 87.1773 97.5043 86.9191 98.6231 86.6609H98.7091C99.9139 86.4027 101.119 86.1446 102.41 85.8003C104.131 85.37 105.938 84.9398 107.917 84.4234C108.95 84.1652 110.069 83.821 111.188 83.4768C119.621 80.9811 129.088 77.7969 138.984 73.9243C147.762 70.4819 156.971 66.6093 166.179 62.3064C169.363 60.9294 172.375 59.3804 175.301 58.0034C175.559 57.9174 175.645 57.7453 175.731 57.4871C175.818 57.401 175.818 57.315 175.818 57.2289C175.904 56.9707 175.904 56.6265 175.731 56.3683L171.429 47.7625C171.256 47.4182 171.256 47.074 171.429 46.6437C171.687 46.2134 172.289 45.9552 172.719 46.0413L193.804 49.8279C193.89 49.8279 193.976 49.8279 194.062 49.8279L194.923 50C195.439 50.0861 195.783 50.3442 195.955 50.7745C196.127 51.1188 196.127 51.6351 195.955 51.9793L186.231 72.2892C186.145 72.4613 185.972 72.6334 185.8 72.8055C185.198 73.0637 184.337 72.8916 183.993 72.2892L179.862 63.9415C179.604 63.3391 178.916 63.1669 178.485 63.4251C175.473 64.8881 172.375 66.3511 169.191 67.8141C146.558 78.3132 124.527 86.4888 107.143 90.9638C104.217 91.7384 101.721 92.3408 99.4836 92.7711C94.062 93.8898 89.759 94.4062 86.1446 94.4923H84.7676V94.5783ZM91.5663 96.2995C93.9759 95.9552 96.7298 95.525 99.5697 94.9225C101.893 94.4062 104.475 93.8038 107.401 93.1153C108.09 92.9432 108.778 92.7711 109.466 92.599C113.683 105.164 120.396 114.458 127.969 119.019C113.597 116.179 100.516 108.176 91.5663 96.2995ZM149.398 118.933C157.573 114.114 164.458 103.959 168.589 90.7057C181.756 86.5749 191.824 79.7762 196.644 71.6867C192.255 95.611 173.322 114.544 149.398 118.933Z" fill="#0272B0"/>
<path d="M63.167 61.0155L72.2892 54.3029C73.1497 53.7005 73.494 52.7539 73.1497 51.8072C72.8916 50.7745 72.031 50.2582 71.0843 50.2582H59.7246L56.2823 39.5869C56.0241 38.6403 55.1635 38.1239 54.2169 38.1239C53.1842 38.1239 52.4096 38.7263 52.1515 39.5869L48.6231 50.3442H37.3494C36.4028 50.3442 35.6282 50.9466 35.284 51.8072C35.0258 52.7539 35.37 53.7005 36.1446 54.3029L45.2668 60.8434L41.7384 71.6007C41.5663 72.2892 41.6523 72.9776 42.0826 73.58C42.7711 74.5267 44.148 74.7849 45.1807 74.0964L54.3029 67.4699L63.253 74.0103C63.6833 74.3546 64.1997 74.5267 64.6299 74.5267C65.3184 74.5267 65.9208 74.0964 66.3511 73.58C66.7814 72.9776 66.9535 72.2892 66.6954 71.6007L63.167 61.0155ZM54.8193 64.9742C54.6472 64.8021 54.389 64.716 54.1308 64.716C53.9587 64.716 53.7005 64.8021 53.4423 64.8881L43.9759 71.8589L47.5904 60.7573C47.7625 60.241 47.5904 59.7246 47.1601 59.4664L37.6076 52.5818H49.3976C49.9139 52.6678 50.3442 52.2375 50.5164 51.7212L54.2169 40.4475L57.8313 51.6351C57.9174 52.1515 58.4337 52.4957 58.9501 52.4957H70.654L61.1876 59.3804C60.7573 59.7246 60.5852 60.241 60.7573 60.6713L64.3718 71.8589L54.8193 64.9742Z" fill="#0272B0"/>
<path d="M16.5232 27.883H8.77797C8.0895 27.883 7.57315 28.3993 7.57315 29.0878V46.8158C7.57315 50 8.51979 52.926 10.327 55.5077C11.704 57.5731 13.7694 59.2943 16.0069 60.4991C16.179 60.5852 16.3511 60.6713 16.5232 60.6713C16.7814 60.6713 16.9535 60.5852 17.1256 60.4991C17.4699 60.241 17.7281 59.8967 17.7281 59.4664V29.0878C17.7281 28.3993 17.2117 27.883 16.5232 27.883ZM15.4045 57.401C14.1997 56.4544 13.167 55.4217 12.3064 54.1308C10.8434 51.9793 9.98279 49.3976 9.98279 46.7298V30.2065H15.4045V57.401Z" fill="#0272B0"/>
</svg>
