<svg width="186" height="157" viewBox="0 0 186 157" fill="none" xmlns="http://www.w3.org/2000/svg">
<path d="M172.315 88.5664H172.585V7.67395C172.585 3.43071 169.074 0 164.932 0H94.71C89.6684 0 85.6171 4.15296 85.6171 9.11846V25.64H87.6878V9.11846C87.6878 5.14606 90.8387 1.9862 94.8 1.9862H101.822V25.7303H1.08034C0.450143 25.7303 0 26.1817 0 26.8137V98.4974C0 99.0391 0.450143 99.5808 1.08034 99.5808H39.4325L35.2011 112.762C35.1111 113.123 35.2011 113.394 35.3812 113.665C35.5613 113.936 35.8313 114.026 36.1915 114.026H67.5214C68.0615 114.026 68.6017 113.574 68.5117 113.033C68.5117 112.762 68.4217 112.672 68.3316 112.491L64.1903 99.5808H85.7071V100.754C85.7071 105.81 89.8484 109.873 94.8 109.873H102.542C102.632 109.963 102.813 109.963 102.903 109.963H109.475C108.934 112.672 108.574 115.38 108.574 118.179C108.574 139.666 125.95 157 147.287 157C168.713 157 185.999 139.576 185.999 118.179C186.089 106.532 180.867 95.789 172.315 88.5664ZM1.98063 27.8068H101.552V97.5043H2.07066V27.8068H1.98063ZM66.0809 111.949H37.6319L41.5932 99.5808H62.1197L66.0809 111.949ZM87.6878 100.754V99.5808H101.822V107.887H94.8C90.8387 107.887 87.6878 104.727 87.6878 100.754ZM104.073 107.887V98.7683H103.983V1.9862H165.022C168.083 1.9862 170.694 4.51409 170.694 7.67395V87.1219C167.543 84.7746 163.852 82.7884 159.981 81.4342V58.5929C162.591 58.2317 164.572 55.9747 164.572 53.2662C164.572 50.3772 162.141 47.9396 159.26 47.9396H135.763C132.882 47.9396 130.451 50.3772 130.451 53.2662C130.451 55.8844 132.432 58.1415 134.953 58.5026V81.4342C122.619 85.6774 113.436 95.6084 110.105 107.796H104.073V107.887ZM159.17 56.5164H135.673C133.782 56.5164 132.342 55.0719 132.342 53.2662C132.342 51.4606 133.872 50.0161 135.673 50.0161H159.17C160.971 50.0161 162.411 51.4606 162.411 53.2662C162.411 55.0719 160.971 56.5164 159.17 56.5164ZM147.377 155.104C127.21 155.104 110.735 138.673 110.735 118.359C110.735 102.289 120.998 88.2956 136.213 83.3301C136.573 83.1495 136.933 82.8787 136.933 82.337V58.6832H157.73V82.337C157.73 82.6981 158.09 83.1495 158.45 83.3301C173.665 88.2956 183.928 102.38 183.928 118.359C184.018 138.583 167.633 155.104 147.377 155.104Z" fill="#0272B0"/>
<path d="M179.067 117.457C178.707 117.276 178.436 117.276 178.076 117.366C170.604 120.165 164.482 121.61 159.44 121.61C152.778 121.61 149.087 119.172 145.486 116.825C142.155 114.658 138.734 112.401 133.332 112.401C128.741 112.401 122.979 114.116 115.777 117.457C115.417 117.637 115.236 117.908 115.236 118.359C115.236 136.055 129.641 150.59 147.377 150.59C165.112 150.59 179.517 136.145 179.517 118.269C179.517 117.908 179.337 117.637 179.067 117.457ZM147.467 148.423C131.081 148.423 117.667 135.242 117.397 118.901C123.969 115.832 129.281 114.387 133.422 114.477C138.284 114.477 141.255 116.463 144.496 118.54C148.187 120.887 152.328 123.596 159.621 123.596C164.572 123.596 170.424 122.332 177.536 119.804C176.726 135.693 163.492 148.423 147.467 148.423Z" fill="#0272B0"/>
<path d="M124.239 112.13C126.58 112.13 128.561 110.144 128.471 107.887C128.471 105.63 126.58 103.643 124.239 103.643C121.899 103.643 120.008 105.539 120.008 107.887C120.008 110.234 121.899 112.13 124.239 112.13ZM124.239 105.72C125.41 105.72 126.4 106.713 126.4 107.887C126.4 109.06 125.41 110.053 124.239 110.053C123.069 110.053 122.079 109.06 122.079 107.887C121.989 106.713 122.979 105.72 124.239 105.72Z" fill="#0272B0"/>
<path d="M130.001 119.353C128.291 119.353 126.85 120.707 126.85 122.512C126.85 124.228 128.201 125.672 130.001 125.672C131.802 125.672 133.152 124.318 133.152 122.512C133.152 120.797 131.802 119.353 130.001 119.353ZM130.001 123.686C129.371 123.686 128.831 123.144 128.831 122.512C128.831 121.88 129.281 121.339 130.001 121.339C130.631 121.339 131.172 121.79 131.172 122.512C131.172 123.144 130.631 123.686 130.001 123.686Z" fill="#0272B0"/>
<path d="M144.406 111.227C146.116 111.227 147.557 109.783 147.557 108.067C147.557 106.352 146.206 104.907 144.406 104.907C142.695 104.907 141.255 106.262 141.255 108.067C141.255 109.783 142.605 111.227 144.406 111.227ZM144.406 106.803C144.946 106.803 145.486 107.255 145.576 107.977C145.576 108.609 145.126 109.151 144.406 109.151C143.775 109.151 143.235 108.699 143.235 107.977C143.235 107.255 143.775 106.803 144.406 106.803Z" fill="#0272B0"/>
<path d="M154.759 127.388C153.048 127.388 151.608 128.742 151.608 130.547C151.608 132.263 152.958 133.707 154.759 133.707C156.56 133.707 158 132.263 157.91 130.547C157.82 128.832 156.47 127.388 154.759 127.388ZM154.759 131.721C154.129 131.721 153.589 131.27 153.589 130.547C153.589 129.915 154.039 129.374 154.759 129.374C155.389 129.374 155.929 129.825 155.929 130.547C155.839 131.179 155.389 131.721 154.759 131.721Z" fill="#0272B0"/>
<path d="M139.274 128.381C137.023 128.381 135.043 130.277 135.043 132.624C135.043 134.971 136.933 136.957 139.274 136.957C141.615 136.957 143.505 135.062 143.505 132.624C143.505 130.277 141.615 128.381 139.274 128.381ZM139.274 134.791C138.104 134.791 137.113 133.798 137.113 132.624C137.113 131.45 138.104 130.457 139.274 130.457C140.444 130.457 141.435 131.45 141.435 132.624C141.435 133.888 140.534 134.791 139.274 134.791Z" fill="#0272B0"/>
<path d="M167.813 134.791C170.154 134.791 172.044 132.895 172.044 130.547C172.044 128.29 170.154 126.304 167.813 126.304C165.562 126.304 163.582 128.2 163.582 130.547C163.582 132.895 165.472 134.791 167.813 134.791ZM167.813 128.471C168.983 128.471 169.974 129.464 169.974 130.638C169.974 131.811 168.983 132.804 167.813 132.804C166.643 132.804 165.652 131.811 165.652 130.638C165.652 129.374 166.553 128.471 167.813 128.471Z" fill="#0272B0"/>
<path d="M158.36 119.353C160.611 119.353 162.591 117.366 162.591 115.109C162.591 112.762 160.701 110.776 158.36 110.776C156.019 110.776 154.039 112.762 154.039 115.109C154.039 117.457 156.019 119.353 158.36 119.353ZM158.36 112.942C159.53 112.942 160.431 113.936 160.521 115.109C160.521 116.283 159.53 117.276 158.36 117.276C157.19 117.276 156.199 116.283 156.199 115.109C156.199 113.845 157.1 112.942 158.36 112.942Z" fill="#0272B0"/>
<path d="M171.684 116.463C173.395 116.463 174.835 115.019 174.835 113.304C174.835 111.588 173.485 110.144 171.684 110.144C169.974 110.144 168.533 111.498 168.533 113.304C168.533 115.019 169.884 116.463 171.684 116.463ZM171.684 112.13C172.225 112.13 172.765 112.581 172.855 113.304C172.855 113.936 172.405 114.477 171.684 114.477C171.054 114.477 170.514 114.026 170.514 113.304C170.514 112.581 171.054 112.13 171.684 112.13Z" fill="#0272B0"/>
<path d="M162.501 99.9419C164.302 99.9419 165.652 98.5877 165.652 96.7821C165.652 95.0667 164.302 93.6222 162.501 93.6222C160.791 93.6222 159.35 94.9764 159.35 96.7821C159.35 98.4974 160.701 99.9419 162.501 99.9419ZM162.501 95.6987C163.132 95.6987 163.672 96.1501 163.672 96.8723C163.672 97.5043 163.222 98.046 162.501 98.046C161.871 98.046 161.331 97.5946 161.331 96.8723C161.331 96.1501 161.781 95.6987 162.501 95.6987Z" fill="#0272B0"/>
<path d="M136.483 98.046C138.284 98.046 139.634 96.6015 139.634 94.8861C139.634 93.1708 138.284 91.7263 136.483 91.7263C134.773 91.7263 133.332 93.0805 133.332 94.8861C133.332 96.5112 134.683 98.046 136.483 98.046ZM136.483 93.7125C137.113 93.7125 137.654 94.1639 137.654 94.8861C137.654 95.5181 137.203 96.0598 136.483 96.0598C135.853 96.0598 135.313 95.5181 135.313 94.8861C135.313 94.1639 135.853 93.7125 136.483 93.7125Z" fill="#0272B0"/>
<path d="M163.042 37.0155V11.3755C163.042 10.8338 162.591 10.2921 161.961 10.2921H112.446C111.905 10.2921 111.365 10.7435 111.365 11.3755V36.835C111.365 37.3767 111.815 37.9183 112.446 37.9183H161.961C162.501 37.9183 163.042 37.5572 163.042 37.0155ZM160.971 35.9321H113.616V12.4589H160.971V35.9321Z" fill="#0272B0"/>
<path d="M120.998 20.8551H153.679C154.219 20.8551 154.669 20.4037 154.759 19.7717C154.759 19.23 154.309 18.6883 153.679 18.6883H120.998C120.458 18.6883 119.918 19.1397 119.918 19.7717C119.918 20.4037 120.368 20.8551 120.998 20.8551Z" fill="#0272B0"/>
<path d="M144.676 26.6331H135.583C135.043 26.6331 134.503 27.0845 134.503 27.7165C134.503 28.3485 134.953 28.7999 135.583 28.7999H144.676C145.216 28.7999 145.666 28.3485 145.756 27.7165C145.756 27.0845 145.306 26.6331 144.676 26.6331Z" fill="#0272B0"/>
<path d="M96.7806 91.636V33.7654C96.7806 33.2237 96.3305 32.682 95.7003 32.682H7.92251C7.38234 32.682 6.84216 33.1334 6.84216 33.7654V91.5457C6.84216 92.0874 7.29231 92.6291 7.92251 92.6291H95.7003C96.2405 92.6291 96.7806 92.1777 96.7806 91.636ZM94.71 90.5526H8.91282V34.7585H94.6199V90.5526H94.71Z" fill="#0272B0"/>
<path d="M51.8564 108.97C53.657 108.97 55.0974 107.616 55.0974 105.72C55.0974 103.914 53.657 102.47 51.8564 102.47C50.0558 102.47 48.6154 103.914 48.6154 105.72C48.6154 107.435 50.0558 108.97 51.8564 108.97ZM51.8564 104.546C52.4866 104.546 53.0268 105.088 53.0268 105.72C53.0268 106.352 52.5766 106.894 51.8564 106.894C51.2262 106.894 50.686 106.442 50.686 105.72C50.686 105.088 51.1362 104.546 51.8564 104.546Z" fill="#0272B0"/>
<path d="M97.5909 148.604L92.9994 120.165C92.9094 119.623 92.5493 119.262 92.0091 119.262H11.3436C10.8934 119.262 10.4433 119.623 10.3533 120.165L5.76182 148.784C5.76182 149.055 5.85185 149.326 6.03191 149.597C6.30199 149.777 6.48205 149.958 6.84216 149.958H96.7806C97.3208 149.958 97.861 149.507 97.6809 148.965C97.6809 148.875 97.6809 148.784 97.5909 148.604ZM8.10256 147.972L12.4239 121.339H91.3789L95.7003 147.972H8.10256Z" fill="#0272B0"/>
<path d="M85.7071 125.221H18.0057C17.4655 125.221 16.9254 125.672 16.9254 126.304C16.9254 126.846 17.3755 127.388 18.0057 127.388H85.6171C86.1573 127.388 86.6974 126.936 86.7875 126.304C86.7875 125.672 86.2473 125.221 85.7071 125.221Z" fill="#0272B0"/>
<path d="M85.7071 133.707H18.0057C17.4655 133.707 16.9254 134.159 16.9254 134.791C16.9254 135.332 17.3755 135.874 18.0057 135.874H85.6171C86.1573 135.874 86.7875 135.423 86.7875 134.791C86.7875 134.159 86.2473 133.707 85.7071 133.707Z" fill="#0272B0"/>
<path d="M83.9966 141.652H66.8011C66.261 141.652 65.7208 142.104 65.7208 142.735C65.7208 143.277 66.1709 143.819 66.8011 143.819H83.9966C84.5368 143.819 85.0769 143.367 85.0769 142.735C85.0769 142.104 84.5368 141.652 83.9966 141.652Z" fill="#0272B0"/>
<path d="M34.9311 141.652H18.0057C17.4655 141.652 16.9254 142.104 16.9254 142.735C16.9254 143.277 17.3755 143.819 18.0057 143.819H34.9311C35.4712 143.819 36.0114 143.367 36.0114 142.735C36.0114 142.104 35.4712 141.652 34.9311 141.652Z" fill="#0272B0"/>
<path d="M60.8593 141.652H38.6222C38.0821 141.652 37.5419 142.104 37.5419 142.735C37.5419 143.277 37.992 143.819 38.6222 143.819H60.8593C61.3994 143.819 61.9396 143.367 61.9396 142.735C61.9396 142.104 61.3994 141.652 60.8593 141.652Z" fill="#0272B0"/>
<path d="M26.9185 75.4756C27.2786 75.4756 27.6387 75.3853 29.3493 74.4825C32.8604 72.4963 38.7122 67.621 45.9145 60.5791C46.0946 60.4888 46.1846 60.3082 46.1846 60.1277C46.5447 59.7665 46.9949 59.3151 47.535 58.7734L48.7954 57.5095C48.9755 57.5095 49.0655 57.4192 49.3356 57.3289C49.7858 56.8775 50.3259 56.3358 50.7761 55.8844C51.1362 55.5233 51.4963 54.8913 51.6764 54.3496C51.7664 54.2593 51.7664 54.0788 51.7664 53.9885C53.567 53.5371 55.5476 52.2731 57.5282 50.3772C58.7886 49.1133 58.7886 47.5785 58.7886 46.0437C58.8786 44.5089 58.8786 43.1547 59.959 41.7102C60.2291 41.3491 60.2291 40.8976 60.049 40.5365C59.8689 40.1754 59.5088 39.9948 59.0587 40.0851C57.8883 40.1754 56.808 40.4462 55.6376 40.8074C53.9271 41.4393 52.3966 42.4324 51.0462 43.7867C48.9755 45.8631 47.7151 47.9396 47.355 49.8355C47.265 49.8355 47.1749 49.8355 47.0849 49.9258C46.4547 50.0161 45.9145 50.2869 45.4644 50.8286C45.1043 51.1898 44.7442 51.5509 44.294 52.0023C44.114 52.0926 44.0239 52.0926 43.9339 52.2731C43.5738 52.6343 42.3134 53.9885 41.4131 54.8913L40.6929 55.6136C40.6028 55.7039 40.5128 55.8844 40.4228 56.065C33.6707 63.1972 28.8091 68.885 26.8285 72.3157C25.8382 73.8505 25.4781 74.663 26.1083 75.3853C26.3783 75.3853 26.7385 75.4756 26.9185 75.4756ZM49.3356 50.6481C49.4256 49.9258 49.6957 47.9396 52.5766 45.1409C53.747 43.9672 55.0074 43.1547 56.4479 42.613C56.808 42.4324 57.0781 42.3422 57.4382 42.2519C56.988 43.5158 56.988 44.7798 56.988 45.8631C56.898 47.2174 56.898 48.0299 56.2678 48.6619C53.4769 51.4606 51.5863 51.912 50.7761 51.912H50.416C50.3259 51.912 50.1459 51.8217 50.0558 51.8217C49.9658 51.7315 49.8758 51.6412 49.7858 51.5509C49.5157 51.28 49.4256 51.0092 49.3356 50.7384C49.3356 50.8286 49.3356 50.8286 49.3356 50.6481ZM47.445 51.912C47.6251 52.4537 47.8051 52.9051 48.1652 53.2662C48.5254 53.6274 48.9755 53.8079 49.4256 53.9885C49.3356 54.0788 49.2456 54.2593 49.1556 54.4399C48.7054 54.8913 48.2553 55.3427 47.8952 55.7039C47.8051 55.7941 47.7151 55.7941 47.6251 55.8844L46.0946 57.4192C45.7345 57.7803 45.4644 58.0512 45.1043 58.4123L42.9436 56.2455C43.6638 55.5233 44.6541 54.5302 45.1043 53.9885C45.2843 53.8982 45.3744 53.8982 45.4644 53.7177C45.9145 53.2662 46.4547 52.7246 46.9048 52.2731C47.0849 52.0926 47.265 52.0023 47.445 51.912ZM41.5932 57.6901L43.6638 59.7665C37.7219 65.4543 32.5903 69.7878 29.3493 71.9546C31.6 68.7947 35.8313 63.7389 41.5932 57.6901Z" fill="#0272B0"/>
<path d="M40.3328 74.0311C40.2427 74.2116 40.1527 74.3019 40.0627 74.3922L36.4615 83.7815C36.2815 84.1426 36.3715 84.5037 36.6416 84.8649C36.8217 85.1357 37.0917 85.226 37.3618 85.226C37.4519 85.226 37.5419 85.226 37.7219 85.226L46.9949 82.4273C47.1749 82.5175 47.355 82.6078 47.6251 82.6078C47.7151 82.6078 47.8051 82.6078 47.8952 82.7884C48.4353 82.6981 48.7954 82.1564 48.6154 81.6147L48.5254 81.4342L70.6724 60.9402C70.7624 60.7596 70.8524 60.6693 70.9425 60.4888C70.9425 60.4888 71.0325 60.4888 71.0325 60.3985L72.653 58.7734C73.2832 58.1415 73.6433 57.3289 73.6433 56.4261C73.6433 55.5233 73.2832 54.7108 72.653 54.0788L69.6821 51.0995C68.4217 49.9258 66.1709 49.9258 65.0006 51.0995L63.3801 52.7246C63.2 52.8148 63.11 52.9954 63.11 53.176L40.3328 74.0311ZM41.5031 76.4687L42.4034 76.5589V77.4618C42.4034 77.7326 42.5835 78.0034 42.7635 78.184C42.9436 78.4549 43.2137 78.5451 43.4838 78.5451H44.384L44.6541 79.7188C44.6541 80.1702 45.0142 80.6216 45.5544 80.6216H45.9145L39.1624 82.6981L41.5031 76.4687ZM47.7151 79.1771C47.535 78.9966 47.355 78.9063 47.0849 78.9063L46.3647 78.816L46.0946 77.4618C46.0046 77.0104 45.6444 76.5589 45.1043 76.5589H44.294V75.8367C44.294 75.295 43.9339 74.8436 43.3937 74.7533L42.5835 74.663L63.9202 55.0719L68.5117 60.0374L47.7151 79.1771ZM66.351 52.544C66.8011 52.0926 67.6114 52.0926 68.1516 52.544L71.1225 55.5233C71.3926 55.7941 71.4826 56.065 71.4826 56.4261C71.4826 56.7872 71.3026 57.0581 71.1225 57.3289L70.2222 58.2317L65.4507 53.4468L66.351 52.544Z" fill="#0272B0"/>
</svg>
