<svg width="236" height="150" viewBox="0 0 236 150" fill="none" xmlns="http://www.w3.org/2000/svg">
<path d="M9.60225 121.131C9.51652 121.045 9.43078 120.959 9.25931 120.788C9.17358 120.702 9.00211 120.531 8.83064 120.445C8.65917 120.36 8.4877 120.188 8.2305 120.103C7.88756 119.931 7.63036 119.846 7.28742 119.76H7.11595C6.68728 119.674 6.17287 119.589 5.57273 119.589C4.02952 119.589 2.65777 120.188 1.62895 121.302C1.11455 121.816 0.685875 122.416 0.428672 123.015C0.171469 123.615 0 124.3 0 125.071C0 126.699 0.685875 128.07 1.71469 129.012C2.22909 129.526 2.82923 129.954 3.51511 130.211C4.20098 130.468 4.88686 130.64 5.65847 130.64C7.11595 130.64 8.4877 130.04 9.51652 129.098L9.60225 129.012C10.1167 128.498 10.5453 127.898 10.8025 127.213C11.0597 126.528 11.2312 125.842 11.2312 125.071C11.2312 123.444 10.5453 122.073 9.60225 121.131ZM8.57344 126.271C8.40197 126.613 8.14476 126.956 7.88756 127.299L7.80183 127.384C7.28742 127.898 6.43008 128.241 5.65847 128.241C5.2298 128.241 4.80112 128.155 4.45819 127.984C4.11525 127.813 3.77231 127.556 3.42937 127.299C2.82923 126.785 2.40056 125.928 2.40056 125.071C2.40056 124.643 2.4863 124.215 2.65777 123.872C2.82923 123.529 3.08644 123.187 3.34364 122.844L3.42937 122.758C3.94378 122.159 4.71539 121.816 5.65847 121.816C5.91567 121.816 6.17287 121.902 6.68728 121.987C6.94448 122.073 7.20169 122.159 7.20169 122.159L7.37316 122.244H7.45889L7.63036 122.416C7.80183 122.587 7.88756 122.673 7.9733 122.758C8.4877 123.272 8.91637 124.129 8.91637 124.986C8.83064 125.5 8.74491 125.928 8.57344 126.271Z" fill="#014BE4"/>
<path d="M98.8517 66.2193L98.9375 66.3906C99.1089 66.7333 99.3661 67.2473 99.7948 67.7613C99.7948 67.7613 99.8805 67.8469 99.9663 67.9326C100.052 68.0183 100.138 68.1039 100.309 68.2753C100.395 68.3609 100.395 68.3609 100.566 68.4466C100.652 68.5323 100.824 68.6179 100.909 68.7036C101.338 69.0463 101.852 69.3033 102.453 69.4746C102.538 69.4746 102.624 69.4746 102.624 69.4746C102.624 69.4746 102.71 69.4746 102.796 69.4746C102.881 69.4746 102.967 69.4746 103.053 69.4746C103.224 69.5602 103.31 69.5602 103.481 69.5602C103.653 69.5602 103.824 69.5602 103.91 69.5602H103.996C105.453 69.5602 106.825 68.9606 107.854 68.0183L107.94 67.9326C109.054 66.9046 109.654 65.4483 109.654 63.992C109.654 62.45 108.968 61.0794 108.025 60.0514C106.996 58.9377 105.625 58.4238 104.167 58.3381C103.396 58.3381 102.624 58.5094 102.024 58.7664C101.338 59.0234 100.738 59.4517 100.223 59.9657C99.9663 60.2227 99.5376 60.5654 99.2804 61.1651C98.8517 62.0217 98.5945 62.964 98.5945 63.9063C98.4231 64.9343 98.6803 65.6196 98.8517 66.2193ZM101.252 62.45C101.338 62.2787 101.509 62.0217 101.852 61.7647C102.195 61.422 102.538 61.1651 102.881 61.0794C103.224 60.9081 103.653 60.8224 104.082 60.8224C104.853 60.8224 105.71 61.165 106.225 61.7647L106.311 61.8504C106.825 62.3644 107.254 63.221 107.254 64.0777C107.254 65.02 106.911 65.791 106.311 66.305L106.139 66.4763C105.625 66.9903 104.767 67.333 103.996 67.333H103.824C103.739 67.2473 103.567 67.2473 103.481 67.2473C103.481 67.2473 103.396 67.2473 103.31 67.2473C103.224 67.2473 103.138 67.2473 103.053 67.2473C102.881 67.1616 102.624 67.076 102.367 66.9046L102.195 66.819L102.024 66.6476C101.938 66.562 101.938 66.562 101.852 66.562C101.852 66.562 101.767 66.3906 101.509 66.2193C101.424 66.1336 101.252 65.8766 101.081 65.6196C100.909 65.1057 100.824 64.6773 100.824 64.3347C100.909 63.478 100.995 62.964 101.252 62.45Z" fill="#014BE4"/>
<path d="M109.654 121.045C108.625 120.103 107.254 119.503 105.71 119.503C104.939 119.503 104.167 119.674 103.567 119.931C102.881 120.188 102.281 120.617 101.767 121.131C101.252 121.645 100.824 122.244 100.566 122.93C100.309 123.615 100.138 124.3 100.138 125.071C100.138 125.328 100.138 125.671 100.223 126.099C100.223 126.185 100.223 126.271 100.223 126.271C100.223 126.356 100.309 126.442 100.309 126.442C100.309 126.528 100.395 126.613 100.395 126.699C100.395 126.785 100.395 126.785 100.481 126.785C100.481 126.956 100.566 127.042 100.652 127.127C100.652 127.127 100.652 127.213 100.738 127.213C100.738 127.213 100.738 127.213 100.738 127.299C100.995 127.727 101.338 128.327 101.852 128.755C102.881 129.869 104.339 130.468 105.796 130.468C107.254 130.468 108.625 129.869 109.654 128.926L109.74 128.841C110.254 128.327 110.683 127.727 110.94 127.042C111.197 126.356 111.369 125.671 111.369 124.9C111.369 123.444 110.683 122.073 109.654 121.045ZM108.711 126.271C108.54 126.613 108.283 126.956 108.025 127.299L107.94 127.384C107.425 127.898 106.568 128.241 105.796 128.241C104.853 128.241 104.082 127.898 103.567 127.299L103.481 127.213C103.224 126.956 103.053 126.613 102.796 126.185V126.014C102.796 125.928 102.796 125.928 102.796 125.928C102.796 125.842 102.71 125.757 102.71 125.757C102.71 125.671 102.71 125.671 102.71 125.585C102.71 125.5 102.71 125.414 102.71 125.157C102.71 124.729 102.796 124.3 102.967 123.958C103.138 123.615 103.396 123.272 103.653 122.93C103.996 122.587 104.339 122.33 104.682 122.244C105.025 122.073 105.453 121.987 105.882 121.987C106.739 121.987 107.511 122.33 108.111 122.844C108.625 123.358 109.054 124.215 109.054 125.071C108.968 125.5 108.883 125.928 108.711 126.271Z" fill="#014BE4"/>
<path d="M50.2403 43.1753C50.2403 43.1753 50.2403 43.261 50.3261 43.3467C50.3261 43.4323 50.4118 43.518 50.4975 43.6893V43.775C50.4975 43.775 50.4975 43.775 50.4975 43.8607C50.5833 44.1176 50.7547 44.289 50.9262 44.4603C51.012 44.546 51.0977 44.7173 51.1834 44.7173C51.2692 44.803 51.3549 44.8886 51.4406 44.9743C51.4406 44.9743 51.5264 45.06 51.6121 45.2313C51.6978 45.317 51.7836 45.4026 51.955 45.4883C52.0408 45.574 52.0408 45.574 52.1265 45.6596C52.2122 45.7453 52.298 45.7453 52.4694 45.831H52.5552L52.6409 45.9166C52.7266 46.0023 52.8124 46.0023 52.9838 46.0879C53.0696 46.0879 53.0696 46.088 53.1553 46.1736C53.1553 46.2593 53.241 46.2593 53.3268 46.2593H53.4125C53.4982 46.2593 53.4982 46.2593 53.584 46.3449C53.584 46.3449 53.6697 46.3449 53.6697 46.4306C53.7555 46.4306 53.9269 46.5163 54.1841 46.5163C54.1841 46.5163 54.2699 46.5163 54.3556 46.5163C54.4413 46.5163 54.6128 46.6019 54.6985 46.6019C55.0415 46.6876 55.3844 46.6876 55.5559 46.6876C55.7273 46.6876 55.8988 46.6876 55.9845 46.6876C56.2418 46.6876 56.3275 46.6876 56.4132 46.6019C56.499 46.6019 56.5847 46.5163 56.5847 46.5163C56.5847 46.5163 56.5847 46.5163 56.6704 46.5163C57.0991 46.4306 57.442 46.3449 57.6992 46.2593H57.785C57.785 46.2593 57.8707 46.2593 57.8707 46.1736C57.9564 46.1736 58.0422 46.0879 58.1279 46.0879C58.3851 46.0023 58.4708 45.831 58.5566 45.7453L58.6423 45.6596C58.728 45.574 58.8138 45.574 58.8995 45.4883L58.9853 45.4026C59.071 45.317 59.1567 45.317 59.3282 45.1456C59.4139 45.06 59.4997 44.9743 59.4997 44.803C59.4997 44.7173 59.5854 44.7173 59.5854 44.7173C59.6711 44.6316 59.7569 44.4603 59.8426 44.289C60.0141 44.032 60.2713 43.6893 60.4427 43.1753C60.6142 42.8327 60.6999 42.49 60.7857 42.1473C60.8714 41.719 60.8714 41.3764 60.8714 41.0337C60.8714 39.4917 60.2713 38.1211 59.4139 37.0074L59.3282 36.9218C58.8138 36.4078 58.2136 35.9794 57.5278 35.7224C56.8419 35.4655 56.156 35.2941 55.3844 35.2941C53.8412 35.2941 52.4694 35.9794 51.4406 36.9218C50.3261 37.9497 49.7259 39.4061 49.7259 40.8624C49.8974 41.8047 49.9831 42.49 50.2403 43.1753ZM53.241 38.7207C53.7555 38.2067 54.6128 37.7784 55.4701 37.7784C55.8988 37.7784 56.3275 37.8641 56.6704 38.0354C57.0134 38.2067 57.3563 38.3781 57.6135 38.7207C58.2136 39.4917 58.5566 40.3484 58.5566 41.205C58.5566 41.462 58.5566 41.6334 58.4708 41.8904C58.4708 42.0617 58.3851 42.233 58.2994 42.3187C58.2136 42.4043 58.2136 42.49 58.2136 42.5757C58.2136 42.6613 58.0422 42.8327 57.8707 43.0897L57.785 43.1753C57.785 43.1753 57.6992 43.3467 57.5278 43.4323C57.442 43.518 57.442 43.518 57.442 43.6037C57.442 43.6037 57.3563 43.6893 57.2706 43.6893C57.1848 43.775 57.0134 43.8607 57.0134 43.8607C56.9276 43.8607 56.9276 43.9463 56.8419 43.9463C56.5847 44.032 56.3275 44.1176 56.0703 44.2033C55.9845 44.2033 55.9845 44.2033 55.8988 44.2033C55.8131 44.2033 55.8131 44.2033 55.8131 44.2033C55.7273 44.2033 55.6416 44.2033 55.4701 44.2033C55.2987 44.2033 55.2987 44.2033 55.2129 44.2033C55.1272 44.2033 54.9557 44.1176 54.87 44.1176C54.87 44.1176 54.7843 44.1176 54.6985 44.1176C54.6128 44.1176 54.5271 44.1176 54.4413 44.032C54.4413 44.032 54.3556 44.032 54.2699 43.9463C54.1841 43.9463 54.0984 43.8607 54.0127 43.8607H53.9269C53.9269 43.8607 53.9269 43.8607 53.8412 43.8607C53.8412 43.8607 53.8412 43.8607 53.7555 43.8607C53.6697 43.775 53.584 43.6893 53.4125 43.6037H53.3268C53.3268 43.6037 53.3268 43.6037 53.241 43.6037C53.241 43.6037 53.1553 43.518 52.9838 43.3467L52.8981 43.1753V43.0897C52.8124 43.004 52.8124 42.9183 52.7266 42.8327C52.7266 42.747 52.7266 42.747 52.6409 42.6613C52.6409 42.6613 52.6409 42.5757 52.5552 42.5757C52.5552 42.49 52.4694 42.4043 52.4694 42.233C52.3837 41.976 52.298 41.5477 52.298 41.0337C52.298 40.0914 52.6409 39.3204 53.241 38.7207Z" fill="#014BE4"/>
<path d="M61.0429 142.119C60.9571 142.033 60.9571 141.947 60.8714 141.862L60.7857 141.776C60.6999 141.69 60.6999 141.605 60.5285 141.433C60.4427 141.348 60.4427 141.348 60.4427 141.348C60.357 141.262 60.1855 141.091 60.0998 141.005L60.0141 140.919C59.9283 140.834 59.8426 140.662 59.6711 140.577H59.5854C59.4997 140.491 59.3282 140.405 59.3282 140.405L59.1567 140.234C59.071 140.148 58.9852 140.063 58.8138 139.977C58.728 139.977 58.728 139.977 58.6423 139.891C58.6423 139.891 58.5566 139.891 58.5566 139.806C58.4708 139.72 58.3851 139.72 58.2994 139.634C58.1279 139.549 57.9564 139.549 57.6992 139.463C57.6992 139.463 57.6135 139.463 57.5278 139.377C57.442 139.377 57.3563 139.378 57.2706 139.292C56.8419 139.206 56.499 139.206 56.2417 139.206C55.9845 139.206 55.7273 139.292 55.6416 139.292H55.5559C55.4701 139.292 55.2987 139.292 55.1272 139.292C55.0415 139.292 54.87 139.377 54.6985 139.377C54.4413 139.377 54.2699 139.463 54.1841 139.463C54.0127 139.549 53.8412 139.634 53.7555 139.634C53.584 139.72 53.4125 139.806 53.1553 139.891C52.9838 139.977 52.8124 140.063 52.7266 140.234C52.6409 140.32 52.5552 140.405 52.4694 140.405C52.298 140.491 52.2122 140.577 52.1265 140.662C52.0408 140.748 51.8693 140.919 51.7836 141.091C51.6121 141.348 51.4406 141.605 51.2692 141.862C51.1834 142.033 51.012 142.29 50.9262 142.547C50.9262 142.633 50.8405 142.633 50.8405 142.718C50.7547 142.804 50.7547 142.89 50.7547 142.975C50.669 143.318 50.4975 143.832 50.4975 144.432C50.4975 145.203 50.669 145.974 51.012 146.659C51.2692 147.344 51.6978 147.858 52.1265 148.372L52.2122 148.458C53.0696 149.315 54.2699 149.914 55.4701 150H56.9276C58.1279 149.829 59.2425 149.315 60.0998 148.458L60.1855 148.372C60.6999 147.858 61.1286 147.259 61.3858 146.573C61.643 145.888 61.8145 145.203 61.8145 144.432C61.8145 143.746 61.7287 143.061 61.4715 142.461C61.4715 142.461 61.2143 142.204 61.0429 142.119ZM59.2425 145.888C59.071 146.231 58.8138 146.573 58.5566 146.916L58.4708 147.002C58.0422 147.43 57.442 147.687 56.6704 147.858H55.7273C55.1272 147.773 54.4413 147.43 54.0127 147.002C53.6697 146.659 53.4982 146.316 53.3268 145.888C53.1553 145.545 53.0696 145.117 53.0696 144.689C53.0696 144.432 53.1553 144.175 53.1553 143.918C53.1553 143.918 53.1553 143.832 53.241 143.832C53.241 143.746 53.3268 143.661 53.3268 143.575C53.3268 143.575 53.4125 143.404 53.4982 143.318C53.584 143.147 53.6697 142.975 53.8412 142.804L53.9269 142.633C54.0127 142.547 54.0984 142.547 54.1841 142.461C54.2699 142.376 54.3556 142.29 54.3556 142.29C54.5271 142.204 54.6985 142.119 54.9557 142.033C55.0415 142.033 55.0415 141.947 55.0415 141.947C55.2129 141.947 55.2987 141.947 55.4701 141.862H55.6416C55.8988 141.862 56.156 141.776 56.2417 141.776H56.3275C56.5847 141.776 56.6704 141.776 56.7562 141.776C56.8419 141.776 56.9276 141.776 56.9276 141.776C56.9276 141.776 57.0134 141.776 57.0991 141.862C57.1848 141.862 57.2706 141.862 57.3563 141.947C57.442 142.033 57.5278 142.033 57.6135 142.033C57.6135 142.033 57.6992 142.033 57.785 142.119H57.8707C57.9564 142.119 57.9564 142.204 58.1279 142.29C58.2136 142.376 58.2994 142.376 58.2994 142.461C58.3851 142.547 58.3851 142.547 58.4708 142.633C58.5566 142.718 58.728 142.89 58.8138 142.975C58.8138 142.975 58.8138 142.975 58.8995 143.061L58.9853 143.147C58.9853 143.147 58.9852 143.232 59.071 143.232C59.071 143.318 59.1567 143.404 59.1567 143.404C59.1567 143.404 59.1567 143.489 59.2425 143.575C59.3282 143.661 59.4139 143.832 59.5854 144.089L59.6711 144.175C59.6711 144.26 59.6711 144.432 59.6711 144.603C59.4997 145.117 59.4139 145.46 59.2425 145.888Z" fill="#014BE4"/>
<path d="M51.1834 137.322C51.1834 137.322 51.3549 137.322 51.6978 137.15C51.7836 137.15 51.7836 137.065 51.8693 137.065C51.955 137.065 51.955 137.065 51.955 137.065C52.298 137.065 52.5552 136.893 52.8124 136.722C53.0696 136.465 53.1553 136.208 53.1553 135.865V88.2353C53.1553 87.7213 52.8981 87.293 52.4694 87.1216L15.0035 70.4169C14.4891 70.1599 13.889 70.3312 13.546 70.7596C13.0316 71.4449 12.5172 71.9589 11.9171 72.3015L11.8313 72.3872C11.3169 72.8155 10.6311 73.0725 9.77372 73.2439C9.17358 73.3295 8.83064 73.8435 8.83064 74.4432V116.762C8.83064 117.105 9.00211 117.362 9.17358 117.619C9.43078 117.876 9.68798 117.961 10.0309 117.961C10.1167 117.961 10.1167 117.961 10.2024 117.961C10.2881 118.047 10.4596 118.047 10.5453 118.132C10.6311 118.218 10.7168 118.218 10.8025 118.218H10.8883C11.6599 118.561 12.26 118.903 12.7744 119.503C13.8032 120.445 14.4891 121.987 14.4891 123.529C14.4891 123.872 14.4891 124.3 14.4034 124.643V125.071C14.4034 125.585 14.6606 126.014 15.0892 126.185L46.8967 140.32C47.4968 140.577 48.1827 140.32 48.4399 139.72C48.5257 139.463 48.7829 139.206 49.0401 138.949C49.1258 138.864 49.1258 138.864 49.2115 138.778L49.2973 138.692C49.7259 138.264 50.2403 137.836 51.012 137.493C51.0977 137.407 51.1834 137.407 51.1834 137.322ZM47.4968 136.979C47.4111 137.065 47.4111 137.065 47.3254 137.15C47.1539 137.322 47.0682 137.493 46.8967 137.579L16.8039 124.215C16.8039 123.958 16.8039 123.701 16.8039 123.444C16.8039 121.216 15.9466 119.16 14.4034 117.704C13.6318 116.933 12.7744 116.419 11.8313 115.991C11.6599 115.905 11.5741 115.905 11.4884 115.82C11.4027 115.82 11.3169 115.734 11.2312 115.734V75.3855C11.9171 75.2142 12.603 74.8715 13.2031 74.4432C13.2031 74.4432 13.2031 74.4432 13.2888 74.4432C13.889 74.1005 14.4034 73.5865 14.9178 73.0725L50.8405 89.0063V134.923C50.8405 134.923 50.7547 134.923 50.5833 135.009C50.4118 135.094 50.2403 135.18 50.0689 135.266C49.0401 135.694 48.1827 136.294 47.4968 136.979Z" fill="#014BE4"/>
<path d="M4.62966 69.3033C5.31553 69.5602 6.00141 69.7316 6.77302 69.7316C8.2305 69.7316 9.60225 69.1319 10.6311 68.1896L10.7168 68.1039C11.2312 67.59 11.6599 66.9903 11.9171 66.305C12.1743 65.6196 12.3457 64.9343 12.3457 64.1633C12.3457 63.478 12.26 62.7927 12.0028 62.193C11.7456 61.5077 11.3169 60.8224 10.7168 60.3084C9.68798 59.1947 8.2305 58.5951 6.68728 58.5951C5.14406 58.5951 3.77231 59.2804 2.7435 60.2227C1.62895 61.2507 1.02881 62.707 1.02881 64.1633C1.02881 65.791 1.71469 67.1616 2.7435 68.1039C3.34364 68.6179 3.94378 69.0463 4.62966 69.3033ZM4.54392 61.8504C5.05833 61.3364 5.91567 60.9081 6.77302 60.9081C7.71609 60.9081 8.4877 61.2507 9.00211 61.8504L9.17358 62.0217C9.43078 62.193 9.68798 62.6214 9.77372 62.964V63.0497C9.85945 63.3067 9.94519 63.735 9.94519 64.1633C9.94519 64.5917 9.85945 65.02 9.68798 65.3627C9.51652 65.7053 9.25931 66.048 9.00211 66.3906L8.91637 66.4763C8.40197 66.9903 7.54462 67.333 6.77302 67.333C6.34434 67.333 5.91567 67.2473 5.57273 67.076C5.2298 66.9046 4.88686 66.6476 4.54392 66.3906C4.02952 65.8766 3.60084 65.02 3.60084 64.1633C3.60084 63.221 3.94378 62.45 4.54392 61.8504Z" fill="#014BE4"/>
<path d="M211.078 13.1925H206.105C205.42 13.1925 204.905 13.7921 204.905 14.3918C204.905 14.9914 205.505 15.5911 206.105 15.5911H211.078C211.764 15.5911 212.278 14.9914 212.278 14.3918C212.278 13.7921 211.764 13.1925 211.078 13.1925Z" fill="#014BE4"/>
<path d="M219.48 13.1925H214.507C213.822 13.1925 213.307 13.7921 213.307 14.3918C213.307 15.0771 213.907 15.5911 214.507 15.5911H219.394C220.166 15.5911 220.68 14.9914 220.68 14.3918C220.68 13.7065 220.166 13.1925 219.48 13.1925Z" fill="#014BE4"/>
<path d="M228.911 14.3918C228.911 13.7065 228.311 13.1925 227.71 13.1925H222.738C222.052 13.1925 221.538 13.7921 221.538 14.3918C221.538 15.0771 222.138 15.5911 222.738 15.5911H227.71C228.396 15.5911 228.997 15.0771 228.911 14.3918Z" fill="#014BE4"/>
<path d="M181.242 39.8344H120.028C119.342 39.8344 118.828 40.434 118.828 41.0337C118.828 41.6334 119.428 42.233 120.028 42.233H181.242C181.928 42.233 182.443 41.6334 182.443 41.0337C182.443 40.434 181.928 39.8344 181.242 39.8344Z" fill="#014BE4"/>
<path d="M188.787 42.3187H198.732C199.418 42.3187 199.933 41.719 199.933 41.1194C199.933 40.5197 199.332 39.92 198.732 39.92H188.787C188.101 39.92 187.587 40.5197 187.587 41.1194C187.587 41.719 188.101 42.3187 188.787 42.3187Z" fill="#014BE4"/>
<path d="M120.028 52.1702H168.297C168.982 52.1702 169.497 51.5705 169.497 50.9709C169.497 50.2855 168.897 49.7716 168.297 49.7716H120.028C119.342 49.7716 118.828 50.3712 118.828 50.9709C118.742 51.6562 119.342 52.1702 120.028 52.1702Z" fill="#014BE4"/>
<path d="M188.787 52.1702H198.732C199.418 52.1702 199.933 51.5705 199.933 50.9709C199.933 50.2855 199.332 49.7716 198.732 49.7716H188.787C188.101 49.7716 187.587 50.3712 187.587 50.9709C187.587 51.6562 188.101 52.1702 188.787 52.1702Z" fill="#014BE4"/>
<path d="M181.414 49.7716H174.469C173.784 49.7716 173.269 50.3712 173.269 50.9709C173.269 51.6562 173.869 52.1702 174.469 52.1702H181.414C182.186 52.1702 182.614 51.5705 182.614 50.9709C182.7 50.2855 182.1 49.7716 181.414 49.7716Z" fill="#014BE4"/>
<path d="M149.349 59.8801C149.349 60.5654 149.949 61.0794 150.55 61.0794H198.732C199.418 61.0794 199.933 60.4797 199.933 59.8801C199.933 59.1947 199.332 58.6808 198.732 58.6808H150.55C149.949 58.6808 149.349 59.2804 149.349 59.8801Z" fill="#014BE4"/>
<path d="M120.028 61.1651H129.973C130.659 61.1651 131.174 60.5654 131.174 59.9657C131.174 59.2804 130.573 58.7664 129.973 58.7664H120.028C119.342 58.7664 118.828 59.3661 118.828 59.9657C118.742 60.5654 119.342 61.1651 120.028 61.1651Z" fill="#014BE4"/>
<path d="M144.291 61.1651C144.977 61.1651 145.491 60.5654 145.491 59.9657C145.491 59.2804 144.891 58.7664 144.291 58.7664H137.346C136.661 58.7664 136.146 59.3661 136.146 59.9657C136.146 60.6511 136.746 61.1651 137.346 61.1651H144.291Z" fill="#014BE4"/>
<path d="M198.732 68.3609H138.375C137.689 68.3609 137.175 68.9606 137.175 69.5602C137.175 70.1599 137.775 70.7596 138.375 70.7596H198.732C199.418 70.7596 199.933 70.1599 199.933 69.5602C199.933 68.9606 199.418 68.3609 198.732 68.3609Z" fill="#014BE4"/>
<path d="M120.028 70.8452H129.973C130.659 70.8452 131.174 70.2456 131.174 69.6459C131.174 69.0463 130.573 68.4466 129.973 68.4466H120.028C119.342 68.4466 118.828 69.0463 118.828 69.6459C118.828 70.2456 119.342 70.8452 120.028 70.8452Z" fill="#014BE4"/>
<path d="M118.828 78.9834C118.828 79.6688 119.428 80.1827 120.028 80.1827H168.211C168.897 80.1827 169.411 79.5831 169.411 78.9834C169.411 78.3838 168.811 77.7841 168.211 77.7841H120.028C119.428 77.7841 118.828 78.2981 118.828 78.9834Z" fill="#014BE4"/>
<path d="M198.732 77.7841H188.787C188.101 77.7841 187.587 78.3838 187.587 78.9834C187.587 79.5831 188.187 80.1827 188.787 80.1827H198.732C199.418 80.1827 199.933 79.5831 199.933 78.9834C199.933 78.3838 199.418 77.7841 198.732 77.7841Z" fill="#014BE4"/>
<path d="M181.414 77.7841H174.469C173.784 77.7841 173.269 78.3838 173.269 78.9834C173.269 79.5831 173.869 80.1827 174.469 80.1827H181.414C182.186 80.1827 182.7 79.5831 182.614 78.9834C182.7 78.2981 182.1 77.7841 181.414 77.7841Z" fill="#014BE4"/>
<path d="M234.312 0H84.4484C83.7625 0 83.1623 0.599657 83.1623 1.19931V56.0251L61.8145 47.4586C61.3001 47.2873 60.6999 47.4586 60.357 47.8869C60.1855 48.1439 60.0141 48.3152 59.9283 48.4009L59.8426 48.4866C59.7569 48.5722 59.6711 48.5722 59.5854 48.6579C59.4997 48.7436 59.4997 48.7436 59.4997 48.7436L59.4139 48.8292C58.9853 49.1719 58.728 49.4289 58.4708 49.6002L58.3851 49.6859C58.3851 49.6859 58.2994 49.7716 58.1279 49.7716H58.0422C57.3563 50.1142 56.5847 50.3712 55.8131 50.4569C55.5559 50.4569 55.3844 50.4569 55.2129 50.4569C55.0415 50.4569 54.87 50.4569 54.5271 50.4569C54.5271 50.4569 54.5271 50.4569 54.4413 50.4569C54.5271 50.5425 54.3556 50.5425 54.0127 50.5425C54.0127 50.5425 53.9269 50.5425 53.8412 50.5425C53.7555 50.5425 53.7555 50.5425 53.6697 50.5425C53.6697 50.5425 53.6697 50.5425 53.584 50.5425C53.584 50.5425 53.4982 50.5425 53.4982 50.4569C53.3268 50.3712 53.241 50.3712 53.1553 50.3712C52.9838 50.2855 52.8124 50.1999 52.6409 50.1142C52.6409 50.1142 52.5552 50.1142 52.4694 50.0286C52.3837 49.9429 52.298 49.9429 52.2122 49.8572C51.955 49.6002 51.6121 49.4289 51.4406 49.2576C51.4406 49.0006 51.4406 49.0006 51.4406 48.9149C51.4406 48.8292 51.3549 48.8292 51.3549 48.7436C51.2692 48.6579 51.1834 48.5722 51.1834 48.4866V48.4009C51.0977 48.1439 50.9262 48.0583 50.9262 47.9726H50.669C50.4118 47.4586 49.7259 47.2016 49.1258 47.3729L16.0323 59.8801C15.4322 60.1371 15.175 60.7367 15.2607 61.3364C15.3465 61.5077 15.3465 61.936 15.3465 62.2787C15.3465 62.964 15.2607 63.6493 15.0892 64.0777C14.832 64.6773 15.0892 65.3626 15.6894 65.7053L53.7555 82.41C54.0984 82.5814 54.4413 82.5814 54.6985 82.41L92.5074 65.791C93.0218 65.534 93.279 65.02 93.1933 64.506C93.1075 63.9063 93.0218 63.5637 93.0218 63.1353C93.0218 62.45 93.1075 61.936 93.279 61.422C93.4505 60.8224 93.1075 60.2227 92.5931 59.9657L83.4195 56.2821H85.7344V20.0457H131.602L142.491 27.0702C142.662 27.1559 142.833 27.2416 143.176 27.2416H233.112V111.879H199.161L190.759 105.197C191.445 103.569 191.874 101.77 192.131 100.143L203.448 98.4295C204.048 98.3438 204.476 97.8298 204.476 97.2302V95.3455H217.251C217.937 95.3455 218.451 94.7459 218.451 94.1462C218.451 93.4609 217.851 92.9469 217.251 92.9469H203.705C203.533 92.8612 203.448 92.8612 203.276 92.8612C203.105 92.8612 202.933 92.8612 202.848 92.9469H102.367V73.5009C102.367 73.1582 102.195 72.9012 102.024 72.6442C101.852 72.3872 101.509 72.3015 101.167 72.3015C101.081 72.3015 101.081 72.2159 100.995 72.2159C100.395 72.0445 99.8805 71.8732 99.4519 71.5306C99.3661 71.4449 99.1947 71.2736 99.0232 71.1879C98.8517 71.1022 98.766 70.9309 98.5945 70.7596C98.5945 70.7596 98.5945 70.7596 98.5088 70.7596C98.5088 70.7596 98.5088 70.7596 98.5088 70.6739C98.2516 70.4169 97.9944 70.1599 97.7372 69.9029C97.3942 69.4746 96.7941 69.3033 96.2797 69.5602L58.728 86.0937C58.2994 86.265 58.0422 86.6933 58.0422 87.2073V135.009C58.0422 135.608 58.4708 136.122 59.071 136.208C59.6711 136.294 60.0141 136.379 60.2713 136.551L60.4427 136.722C60.5285 136.808 60.6142 136.893 60.7857 136.979L60.9571 137.065C61.0429 137.065 61.1286 137.15 61.1286 137.15C61.3001 137.322 61.4715 137.407 61.5573 137.493C61.643 137.579 61.7287 137.579 61.7287 137.579C61.9002 137.75 62.0717 137.836 62.0717 137.836H62.1574L62.2432 137.921C62.2432 137.921 62.2432 137.921 62.2432 138.007C62.3289 138.093 62.4146 138.178 62.5004 138.264V138.35C62.5861 138.607 62.7576 138.692 62.7576 138.778L62.8433 138.864C63.1005 139.463 63.8721 139.634 64.3865 139.377L96.1082 125.071C96.7084 124.814 96.9656 124.129 96.7941 123.615C96.7084 123.358 96.6226 123.187 96.7084 123.187C96.7084 123.015 96.7084 122.844 96.7084 122.501C96.7084 120.959 97.3942 119.503 98.4231 118.475C98.4231 118.475 98.5088 118.389 98.5945 118.389C98.6803 118.304 98.8517 118.218 99.0232 118.047C99.1089 117.961 99.1947 117.876 99.1947 117.876L99.2804 117.79C99.7091 117.533 100.223 117.276 100.652 117.19L100.824 117.105C100.909 117.105 100.909 117.105 100.909 117.019C101.167 117.019 101.338 116.933 101.424 116.933L101.509 116.848C101.767 116.762 101.938 116.676 102.11 116.505C102.367 116.248 102.453 115.991 102.453 115.648V114.449H118.742L121.743 119.503C122 120.103 122.686 120.274 123.286 120.103L133.917 115.905C135.117 117.276 136.403 118.561 137.689 119.674L133.574 130.297C133.403 130.897 133.574 131.496 134.174 131.839L139.661 135.009C140.261 135.266 140.862 135.18 141.29 134.752L148.406 125.842C150.035 126.528 151.836 126.956 153.465 127.213L155.179 138.521C155.265 139.12 155.779 139.549 156.379 139.549H162.724C163.41 139.549 163.924 139.206 163.667 138.435L165.382 127.127C167.096 126.785 168.811 126.271 170.44 125.757L177.556 134.666C177.899 135.094 178.585 135.266 179.185 134.923L184.672 131.753C185.272 131.496 185.443 130.811 185.272 130.211L181.157 119.589C182.443 118.475 183.729 117.276 184.929 115.82L195.56 120.017C196.16 120.188 196.76 120.017 197.103 119.417L200.104 114.363H234.655C235.341 114.363 235.855 113.764 235.855 113.164V1.19931C235.684 0.599657 235.084 0 234.312 0ZM54.1841 79.9258L17.6613 63.8207C17.747 63.3067 17.8327 62.707 17.8327 62.2787C17.8327 62.193 17.8327 62.0217 17.8327 61.8504L49.2115 50.0286C49.2973 50.1142 49.2973 50.1142 49.383 50.1999C49.4687 50.2855 49.4687 50.2855 49.5545 50.3712C49.6402 50.4569 49.6402 50.5425 49.7259 50.5425C49.7259 50.6282 49.8117 50.6282 49.8117 50.7139C50.1546 51.0565 50.5833 51.3992 51.012 51.6562L51.1834 51.7419C51.1834 51.7419 51.2692 51.7419 51.3549 51.8275C51.4406 51.9132 51.6121 51.9989 51.7836 52.0845C51.955 52.1702 52.1265 52.2559 52.3837 52.3415C52.6409 52.4272 52.8124 52.5128 52.8981 52.5128C52.9838 52.5128 52.9838 52.5985 53.0696 52.5985C53.0696 52.5985 53.1553 52.5985 53.241 52.6842C53.3268 52.6842 53.4125 52.7698 53.584 52.7698C53.584 52.7698 53.6697 52.7698 53.7555 52.8555C53.8412 52.8555 54.0127 52.9412 54.1841 52.9412H54.2699C54.3556 52.9412 54.6128 53.0268 54.9557 53.0268C55.2129 53.0268 55.3844 53.0268 55.6416 53.0268C55.8131 53.0268 55.9845 53.0268 56.3275 53.0268H56.4132C57.5278 52.9412 58.5566 52.5985 59.5854 52.0845C59.6711 51.9989 59.7569 51.9989 59.9283 51.9132C60.0141 51.8275 60.0998 51.8275 60.2713 51.6562C60.6999 51.3135 61.0429 51.0565 61.3001 50.7995L61.4715 50.7139L61.5573 50.6282C61.8145 50.4569 61.986 50.2855 62.1574 50.1142L90.707 61.679C90.6212 62.1074 90.6212 62.5357 90.6212 62.964C90.6212 63.3067 90.6212 63.5637 90.707 63.8207L54.1841 79.9258ZM174.298 95.3455C173.698 103.055 167.268 109.138 159.38 109.138C151.493 109.138 145.063 103.055 144.462 95.3455H174.298ZM97.9944 115.648C97.9087 115.648 97.9087 115.648 97.9944 115.648C97.7372 115.734 97.6515 115.82 97.5657 115.991C97.3942 116.077 97.3085 116.162 97.2228 116.248C97.2228 116.248 97.137 116.334 97.0513 116.334C96.9656 116.419 96.7941 116.505 96.6226 116.676C95.1652 118.132 94.2221 120.188 94.2221 122.416C94.2221 122.673 94.2221 122.844 94.2221 123.101C94.2221 123.187 94.2221 123.187 94.2221 123.272L64.3008 136.722L64.215 136.636C64.1293 136.551 64.1293 136.465 64.0436 136.465C63.9578 136.294 63.7864 136.208 63.7006 136.122L63.6149 136.037C63.5292 135.951 63.4434 135.865 63.3577 135.865H63.272C63.1005 135.694 63.0148 135.608 62.929 135.608C62.8433 135.523 62.7576 135.523 62.7576 135.523C62.5861 135.351 62.4146 135.18 62.1574 135.094C61.986 135.009 61.9002 134.923 61.7287 134.923L61.643 134.837C61.5573 134.837 61.4715 134.752 61.3858 134.666C61.3858 134.666 61.3858 134.666 61.3001 134.666C60.9571 134.495 60.6999 134.409 60.357 134.323V88.321L96.3654 72.4729C96.4512 72.5585 96.5369 72.6442 96.5369 72.6442C96.6226 72.7299 96.7084 72.9012 96.8798 72.9869C97.0513 73.1582 97.3085 73.3295 97.5657 73.5865L97.7372 73.6722L97.9944 73.9292C98.5945 74.2718 99.1947 74.6145 99.8805 74.7858V114.963C99.7948 114.963 99.7948 114.963 99.7091 115.049C99.5376 115.134 99.5376 115.134 99.4519 115.134C99.0232 115.049 98.4231 115.306 97.9944 115.648ZM102.367 95.3455H114.027V97.3158C114.027 97.9155 114.37 98.4295 115.056 98.5151L126.372 100.228C126.63 102.027 127.144 103.741 127.658 105.368L119.428 111.879H102.367V95.3455ZM195.389 117.362L184.929 113.25C184.5 113.078 183.9 113.25 183.557 113.592C182.014 115.391 180.557 117.019 178.842 118.304C178.499 118.561 178.242 119.246 178.499 119.674L182.614 130.126L179.013 132.182L171.983 123.358C171.726 123.015 171.04 122.758 170.611 123.015C168.554 123.786 166.41 124.3 164.181 124.729C163.581 124.814 163.238 125.157 163.153 125.757L161.438 136.893H157.323L155.608 125.757C155.522 125.157 155.179 124.814 154.579 124.729C152.436 124.472 150.207 123.872 148.149 123.015C147.72 122.844 147.12 122.93 146.777 123.358L139.833 132.182L136.146 130.126L140.261 119.674C140.433 119.246 140.347 118.646 139.918 118.304C138.204 117.019 136.661 115.391 135.203 113.592C134.946 113.164 134.26 112.993 133.831 113.25L123.372 117.362L121.314 113.678L130.059 106.739C130.402 106.482 130.659 105.797 130.402 105.368C129.63 103.312 129.03 101.171 128.687 98.9435C128.602 98.3438 128.259 98.0011 127.658 97.9155L116.513 96.2022V95.3455H142.062C142.662 104.426 150.207 111.622 159.38 111.622C168.554 111.622 176.184 104.34 176.699 95.3455H201.99V96.1165L190.845 97.8298C190.245 97.9155 189.902 98.2581 189.816 98.8578C189.559 100.999 188.959 103.227 188.101 105.283C187.93 105.711 188.015 106.311 188.444 106.653L197.275 113.678L195.389 117.362ZM143.519 24.8429L132.631 17.8184C132.46 17.7327 132.288 17.6471 131.945 17.6471H85.7344V2.56996H233.112V24.8429H143.519Z" fill="#014BE4"/>
</svg>
