<svg width="200" height="115" viewBox="0 0 200 115" fill="none" xmlns="http://www.w3.org/2000/svg">
<path d="M115.466 32.9506C115.466 32.4739 115.938 31.9972 116.41 31.9972H139.759L162.165 9.35474C162.4 9.1164 162.636 9.1164 162.872 9.1164H189.995C190.466 9.1164 190.938 9.59308 190.938 10.0698C190.938 10.5465 190.466 11.0231 189.995 11.0231H163.226L140.82 33.6656C140.584 33.904 140.348 33.904 140.113 33.904H116.41C115.82 33.904 115.466 33.5465 115.466 32.9506Z" fill="#014BE4"/>
<path d="M115.349 46.4173C115.349 45.9406 115.821 45.4639 116.293 45.4639H143.061L165.703 22.5831C165.939 22.3448 166.175 22.3448 166.411 22.3448H171.599C172.071 22.3448 172.543 22.8214 172.543 23.2981C172.543 23.7748 172.071 24.2515 171.599 24.2515H166.882L144.241 47.1323C144.005 47.3707 143.769 47.3707 143.533 47.3707H116.411C115.703 47.3707 115.349 46.894 115.349 46.4173Z" fill="#014BE4"/>
<path d="M159.925 28.78C159.925 28.5417 160.043 28.3034 160.161 28.065C160.515 27.7075 161.105 27.7075 161.458 28.065L170.657 37.3603H182.095C182.567 37.3603 183.039 37.837 183.039 38.3137C183.039 38.7904 182.567 39.2671 182.095 39.2671H170.185C169.949 39.2671 169.713 39.1479 169.477 39.0287L160.043 29.4951C159.925 29.2567 159.925 29.0184 159.925 28.78Z" fill="#014BE4"/>
<path d="M115.466 57.7375C115.466 57.2609 115.938 56.7842 116.41 56.7842H188.226C188.698 56.7842 189.169 57.2609 189.169 57.7375C189.169 58.2142 188.698 58.6909 188.226 58.6909H116.41C115.82 58.6909 115.466 58.3334 115.466 57.7375Z" fill="#014BE4"/>
<path d="M150.136 57.9764C150.136 57.738 150.254 57.4997 150.372 57.2613L160.042 47.4893C160.278 47.251 160.514 47.251 160.75 47.251H179.853C180.325 47.251 180.797 47.7277 180.797 48.2043C180.797 48.681 180.325 49.1577 179.853 49.1577H161.221L151.905 58.5722C151.551 58.9297 150.962 58.9297 150.608 58.5722C150.136 58.453 150.136 58.2147 150.136 57.9764Z" fill="#014BE4"/>
<path d="M188.933 10.0697C188.933 7.20959 191.292 4.82617 194.122 4.82617C196.952 4.82617 199.311 7.20959 199.311 10.0697C199.311 12.9298 196.952 15.3132 194.122 15.3132C191.292 15.3132 188.933 13.049 188.933 10.0697ZM197.542 10.0697C197.542 8.28213 196.009 6.73291 194.24 6.73291C192.353 6.73291 190.938 8.2822 190.938 10.0698C190.938 11.9765 192.471 13.4065 194.24 13.4065C196.009 13.4065 197.542 11.9764 197.542 10.0697Z" fill="#014BE4"/>
<path d="M170.537 23.2982C170.537 20.4381 172.895 18.0547 175.725 18.0547C178.556 18.0547 180.914 20.4381 180.914 23.2982C180.914 26.1583 178.556 28.5417 175.725 28.5417C172.777 28.5417 170.537 26.1583 170.537 23.2982ZM179.027 23.2982C179.027 21.5106 177.494 19.9614 175.725 19.9614C173.839 19.9614 172.424 21.5106 172.424 23.2982C172.424 25.2049 173.957 26.635 175.725 26.635C177.494 26.635 179.027 25.0858 179.027 23.2982Z" fill="#014BE4"/>
<path d="M181.15 38.3129C181.15 35.4528 183.508 33.0693 186.339 33.0693C189.169 33.0693 191.527 35.4528 191.527 38.3129C191.527 41.173 189.169 43.5564 186.339 43.5564C183.508 43.5564 181.15 41.173 181.15 38.3129ZM189.758 38.3129C189.758 36.5253 188.225 34.9761 186.457 34.9761C184.688 34.9761 183.155 36.5253 183.155 38.3129C183.155 40.2196 184.688 41.6496 186.457 41.6496C188.225 41.6496 189.758 40.2196 189.758 38.3129Z" fill="#014BE4"/>
<path d="M187.166 57.7377C187.166 54.8776 189.524 52.4941 192.354 52.4941C195.184 52.4941 197.543 54.8776 197.543 57.7377C197.543 60.5978 195.184 62.9812 192.354 62.9812C189.524 62.9812 187.166 60.7169 187.166 57.7377ZM195.656 57.7377C195.656 55.9501 194.123 54.4009 192.354 54.4009C190.585 54.4009 189.052 55.9501 189.052 57.7377C189.052 59.6444 190.585 61.0745 192.354 61.0745C194.241 61.0745 195.656 59.6444 195.656 57.7377Z" fill="#014BE4"/>
<path d="M131.504 10.0697C131.504 7.20959 133.862 4.82617 136.692 4.82617C139.522 4.82617 141.881 7.20959 141.881 10.0697C141.881 12.9298 139.522 15.3132 136.692 15.3132C133.862 15.3132 131.504 13.049 131.504 10.0697ZM139.994 10.0697C139.994 8.28213 138.461 6.73291 136.692 6.73291C134.805 6.73291 133.39 8.28213 133.39 10.0697C133.39 11.9764 134.923 13.4065 136.692 13.4065C138.579 13.4065 139.994 11.9764 139.994 10.0697Z" fill="#014BE4"/>
<path d="M138.816 13.049C138.816 12.8106 138.934 12.5723 139.17 12.3339C139.524 11.9764 140.113 11.9764 140.467 12.4531C144.005 16.5049 149.547 22.5826 149.901 23.0593C150.255 23.4168 150.373 24.0127 150.019 24.3702C149.665 24.7277 149.075 24.8469 148.722 24.4894C148.25 24.1319 141.174 16.1474 139.052 13.764C138.934 13.5257 138.816 13.2873 138.816 13.049Z" fill="#014BE4"/>
<path d="M115.466 82.8828C115.466 82.4062 115.938 81.9295 116.41 81.9295H140.231C140.466 81.9295 140.702 82.0486 140.938 82.1678L163.344 104.81H190.113C190.584 104.81 191.056 105.287 191.056 105.764C191.056 106.24 190.584 106.717 190.113 106.717H162.99C162.754 106.717 162.518 106.598 162.282 106.479L139.877 83.8362H116.41C115.82 83.8362 115.466 83.3595 115.466 82.8828Z" fill="#014BE4"/>
<path d="M115.349 69.4172C115.349 68.9406 115.821 68.4639 116.293 68.4639H143.415C143.651 68.4639 143.887 68.583 144.123 68.7022L166.646 91.583H171.363C171.835 91.583 172.307 92.0597 172.307 92.5364C172.307 93.0131 171.835 93.4898 171.363 93.4898H166.175C165.939 93.4898 165.703 93.3706 165.467 93.2514L142.826 70.4898H116.293C115.703 70.3706 115.349 70.0131 115.349 69.4172Z" fill="#014BE4"/>
<path d="M159.925 87.0544C159.925 86.8161 160.043 86.5777 160.161 86.3394L169.595 76.8057C169.831 76.5674 170.067 76.5674 170.303 76.5674H182.213C182.685 76.5674 183.157 77.0441 183.157 77.5207C183.157 77.9974 182.685 78.4741 182.213 78.4741H170.774L161.576 87.7695C161.223 88.127 160.633 88.127 160.279 87.7695C159.925 87.5311 159.925 87.2928 159.925 87.0544Z" fill="#014BE4"/>
<path d="M150.136 57.8572C150.136 57.6188 150.254 57.3805 150.372 57.1422C150.726 56.7846 151.316 56.7846 151.669 57.1422L160.985 66.5567H179.617C180.089 66.5567 180.561 67.0333 180.561 67.51C180.561 67.9867 180.089 68.4634 179.617 68.4634H160.514C160.278 68.4634 160.042 68.3442 159.806 68.2251L150.136 58.453C150.136 58.3339 150.136 58.0955 150.136 57.8572Z" fill="#014BE4"/>
<path d="M188.933 105.764C188.933 102.904 191.292 100.521 194.122 100.521C196.952 100.521 199.311 102.904 199.311 105.764C199.311 108.624 196.952 111.008 194.122 111.008C191.292 111.008 188.933 108.624 188.933 105.764ZM197.542 105.764C197.542 103.976 196.009 102.427 194.24 102.427C192.353 102.427 190.938 103.976 190.938 105.764C190.938 107.671 192.471 109.101 194.24 109.101C196.009 109.101 197.542 107.552 197.542 105.764Z" fill="#014BE4"/>
<path d="M170.537 92.5365C170.537 89.6764 172.895 87.293 175.725 87.293C178.556 87.293 180.914 89.6764 180.914 92.5365C180.914 95.3966 178.556 97.78 175.725 97.78C172.777 97.78 170.537 95.3966 170.537 92.5365ZM179.027 92.5365C179.027 90.7489 177.494 89.1997 175.725 89.1997C173.839 89.1997 172.424 90.7489 172.424 92.5365C172.424 94.4432 173.957 95.8733 175.725 95.8733C177.494 95.8733 179.027 94.4432 179.027 92.5365Z" fill="#014BE4"/>
<path d="M181.152 77.5209C181.152 74.6608 183.51 72.2773 186.341 72.2773C189.171 72.2773 191.529 74.6608 191.529 77.5209C191.529 80.381 189.171 82.7644 186.341 82.7644C183.51 82.7644 181.152 80.381 181.152 77.5209ZM189.76 77.5209C189.76 75.7333 188.227 74.1841 186.459 74.1841C184.69 74.1841 183.157 75.7332 183.157 77.5207C183.157 79.4275 184.69 80.8577 186.459 80.8577C188.227 80.8577 189.76 79.3084 189.76 77.5209Z" fill="#014BE4"/>
<path d="M131.504 105.764C131.504 102.904 133.862 100.521 136.692 100.521C139.522 100.521 141.881 102.904 141.881 105.764C141.881 108.624 139.522 111.008 136.692 111.008C133.862 111.008 131.504 108.624 131.504 105.764ZM139.994 105.764C139.994 103.976 138.461 102.427 136.692 102.427C134.805 102.427 133.39 103.976 133.39 105.764C133.39 107.671 134.923 109.101 136.692 109.101C138.579 109.101 139.994 107.552 139.994 105.764Z" fill="#014BE4"/>
<path d="M138.697 102.546C138.697 102.308 138.815 102.069 138.933 101.831C141.173 99.4474 148.367 91.7013 148.838 91.3438C149.192 90.9863 149.9 91.1055 150.136 91.463C150.489 91.8205 150.371 92.4163 150.018 92.7738C149.546 93.2505 144.003 99.2091 140.348 103.142C139.994 103.499 139.404 103.499 139.051 103.142C138.815 103.142 138.697 102.903 138.697 102.546Z" fill="#014BE4"/>
<path d="M88.2262 109.1V5.54025C88.2262 3.15683 90.113 1.25009 92.4715 1.25009H112.99C115.349 1.25009 117.236 3.15683 117.236 5.54025V109.1C117.236 111.483 115.349 113.39 112.99 113.39H92.4715C90.113 113.39 88.2262 111.483 88.2262 109.1ZM92.4715 3.15683C91.1743 3.15683 90.113 4.22937 90.113 5.54025V109.1C90.113 110.411 91.1743 111.483 92.4715 111.483H112.99C114.287 111.483 115.349 110.411 115.349 109.1V5.54025C115.349 4.22937 114.287 3.15683 112.99 3.15683H92.4715Z" fill="#014BE4"/>
<path d="M89.1696 27.9449H116.292C116.882 27.9449 117.236 27.4682 117.236 26.9915C117.236 26.3957 116.764 26.0382 116.292 26.0382H89.1696C88.5799 26.0382 88.2262 26.5149 88.2262 26.9915C88.2262 27.4682 88.5799 27.9449 89.1696 27.9449Z" fill="#014BE4"/>
<path d="M89.1696 13.2867H116.292C116.882 13.2867 117.236 12.81 117.236 12.3333C117.236 11.7375 116.764 11.38 116.292 11.38H89.1696C88.5799 11.38 88.2262 11.8567 88.2262 12.3333C88.2262 12.9292 88.5799 13.2867 89.1696 13.2867Z" fill="#014BE4"/>
<path d="M89.1696 100.878H116.292C116.882 100.878 117.236 100.401 117.236 99.9242C117.236 99.3283 116.764 98.9708 116.292 98.9708H89.1696C88.5799 98.9708 88.2262 99.4475 88.2262 99.9242C88.2262 100.401 88.5799 100.878 89.1696 100.878Z" fill="#014BE4"/>
<path d="M89.1696 86.2193H116.292C116.882 86.2193 117.236 85.7426 117.236 85.266C117.236 84.6701 116.764 84.3126 116.292 84.3126H89.1696C88.5799 84.3126 88.2262 84.7893 88.2262 85.266C88.2262 85.8618 88.5799 86.2193 89.1696 86.2193Z" fill="#014BE4"/>
<path d="M102.022 70.4888L89.6399 57.9759C89.2862 57.6184 89.2862 57.0225 89.6399 56.5458L102.022 44.0329C102.376 43.6754 102.965 43.6754 103.437 44.0329L115.819 56.5458C116.173 56.9033 116.173 57.4992 115.819 57.9759L103.437 70.4888C103.201 70.7272 102.965 70.7272 102.73 70.7272C102.494 70.8463 102.258 70.7272 102.022 70.4888ZM102.73 46.178L91.6447 57.38L102.73 68.5821L113.814 57.38L102.73 46.178Z" fill="#014BE4"/>
<path d="M53.5543 109.338V5.3019C53.5543 3.03766 55.3232 1.25009 57.5637 1.25009H78.5543C80.7949 1.25009 82.5637 3.03766 82.5637 5.3019V109.219C82.5637 111.483 80.7949 113.271 78.5543 113.271H57.5637C55.3232 113.39 53.5543 111.602 53.5543 109.338ZM57.5637 3.15683C56.3845 3.15683 55.4411 4.11019 55.4411 5.3019V109.219C55.4411 110.411 56.3845 111.364 57.5637 111.364H78.5543C79.7335 111.364 80.6769 110.411 80.6769 109.219V5.3019C80.6769 4.11019 79.7335 3.15683 78.5543 3.15683H57.5637Z" fill="#014BE4"/>
<path d="M67.3519 70.4888L54.9698 57.9759C54.734 57.7375 54.734 57.4992 54.734 57.2609C54.734 57.0225 54.8519 56.7842 54.9698 56.5458L67.3519 44.0329C67.7057 43.6754 68.2953 43.6754 68.767 44.0329L81.1491 56.5458C81.5029 56.9033 81.5029 57.4992 81.1491 57.9759L68.767 70.4888C68.5312 70.7272 68.2953 70.7272 68.0595 70.7272C67.8236 70.7272 67.5878 70.7272 67.3519 70.4888ZM68.0595 46.178L56.9746 57.38L68.0595 68.5821L79.1444 57.38L68.0595 46.178Z" fill="#014BE4"/>
<path d="M54.4977 27.9449H81.6203C82.21 27.9449 82.5637 27.4682 82.5637 26.9915C82.5637 26.3957 82.092 26.0382 81.6203 26.0382H54.4977C53.9081 26.0382 53.5543 26.5149 53.5543 26.9915C53.5543 27.4682 53.9081 27.9449 54.4977 27.9449Z" fill="#014BE4"/>
<path d="M54.4977 13.2867H81.6203C82.21 13.2867 82.5637 12.81 82.5637 12.3333C82.5637 11.7375 82.092 11.38 81.6203 11.38H54.4977C53.9081 11.38 53.5543 11.8567 53.5543 12.3333C53.5543 12.9292 53.9081 13.2867 54.4977 13.2867Z" fill="#014BE4"/>
<path d="M54.4977 100.878H81.6203C82.21 100.878 82.5637 100.401 82.5637 99.9242C82.5637 99.3283 82.092 98.9708 81.6203 98.9708H54.4977C53.9081 98.9708 53.5543 99.4475 53.5543 99.9242C53.5543 100.401 53.9081 100.878 54.4977 100.878Z" fill="#014BE4"/>
<path d="M54.4977 86.2193H81.6203C82.21 86.2193 82.5637 85.7426 82.5637 85.266C82.5637 84.6701 82.092 84.3126 81.6203 84.3126H54.4977C53.9081 84.3126 53.5543 84.7893 53.5543 85.266C53.5543 85.8618 53.9081 86.2193 54.4977 86.2193Z" fill="#014BE4"/>
<path d="M23.6028 114.224L3.31981 108.743C2.25849 108.504 1.43302 107.789 0.843396 106.836C0.253774 105.882 0.135849 104.81 0.489623 103.737L27.1406 3.27627C27.6123 1.48871 29.2632 0.177825 31.0321 0.177825C31.3858 0.177825 31.7396 0.177825 32.0934 0.296996L52.3764 5.77886C53.4377 6.0172 54.2632 6.73223 54.8528 7.6856C55.4424 8.63896 55.5604 9.7115 55.3245 10.784L28.5557 111.364C28.084 113.152 26.433 114.344 24.6642 114.344C24.3104 114.344 23.9566 114.344 23.6028 114.224ZM29.0274 3.75295L2.37642 104.214C2.25849 104.81 2.25849 105.406 2.61226 105.882C2.84811 106.359 3.31981 106.717 3.90943 106.836L24.1925 112.318C25.3717 112.556 26.5509 111.96 26.7868 110.768L53.3198 10.4265C53.4377 9.83067 53.4377 9.23482 53.084 8.75814C52.8481 8.28145 52.3764 7.92394 51.7868 7.80477L31.6217 2.3229C31.3858 2.20373 31.2679 2.20373 31.0321 2.20373C30.0887 2.20373 29.2632 2.91876 29.0274 3.75295Z" fill="#014BE4"/>
<path d="M24.4297 70.37C24.1938 70.2508 23.958 70.1317 23.84 69.8933L15.1136 54.5203C14.9957 54.2819 14.9957 54.0436 14.9957 53.8053C15.1136 53.5669 15.2316 53.3286 15.4674 53.2094L30.5617 44.3907C31.0334 44.1524 31.6231 44.2716 31.8589 44.7483L40.5853 60.1213C40.7033 60.3597 40.7032 60.598 40.7032 60.8363C40.5853 61.0747 40.4674 61.313 40.2316 61.4322L25.0193 70.2508C24.9014 70.37 24.6655 70.37 24.5476 70.37H24.4297ZM30.6797 46.5358L17.1183 54.4011L24.9014 68.1058L38.4627 60.2405L30.6797 46.5358Z" fill="#014BE4"/>
<path d="M48.7208 32.4726C49.1925 32.4726 49.5463 32.2343 49.6642 31.7576C49.7822 31.2809 49.5463 30.6851 48.9567 30.5659L22.6595 23.4156C22.1878 23.2965 21.5982 23.5348 21.4803 24.1307C21.3623 24.6073 21.5982 25.2032 22.1878 25.3224L48.485 32.4726C48.6029 32.4726 48.7208 32.4726 48.7208 32.4726Z" fill="#014BE4"/>
<path d="M52.4955 18.4111C52.9672 18.4111 53.321 18.1728 53.4389 17.6961C53.5568 17.2194 53.3209 16.6235 52.7313 16.5044L26.5521 9.3541C26.0804 9.23493 25.4908 9.47327 25.3728 10.0691C25.2549 10.5458 25.4908 11.1417 26.0804 11.2608L52.3776 18.4111C52.3776 18.4111 52.3776 18.4111 52.4955 18.4111Z" fill="#014BE4"/>
<path d="M30.088 103.022C30.5597 103.022 30.9135 102.784 31.0314 102.307C31.1493 101.831 30.9135 101.235 30.3239 101.116L4.0267 93.9654C3.555 93.8463 2.96537 94.0846 2.84745 94.6805C2.72953 95.1571 2.96537 95.753 3.555 95.8722L29.8522 103.022C29.8522 102.903 29.9701 103.022 30.088 103.022Z" fill="#014BE4"/>
<path d="M33.8634 88.8418C34.3351 88.8418 34.6889 88.6034 34.8068 88.1267C34.9247 87.6501 34.6889 87.0542 34.0993 86.935L7.80209 79.7848C7.33039 79.6656 6.74077 79.9039 6.62284 80.4998C6.50492 80.9765 6.74077 81.5723 7.33039 81.6915L33.6276 88.8418C33.6276 88.8418 33.7455 88.8418 33.8634 88.8418Z" fill="#014BE4"/>
<path d="M194.1 100.3C191.5 100.3 189.3 102.1 188.7 104.6H163.5L150.4 91.4L150.3 91.3C150.3 91.3 150.3 91.2 150.2 91.2L141.1 82H141C140.8 81.9 140.5 81.7 140.1 81.7H117.5V71.1H142.6L165.2 93.8H165.3C165.5 93.9 165.8 94.1 166.2 94.1H170.4C170.6 95.1 171.1 96 171.8 96.7C172.8 97.7 174.2 98.4 175.8 98.4C178.8 98.4 181.4 95.9 181.4 92.8C181.4 89.7 178.9 87.2 175.8 87.2C173.2 87.2 171 89 170.4 91.5H166.9L162.9 87.4L170.9 79H180.9C181.5 81.4 183.7 83.3 186.3 83.3C189.3 83.3 191.9 80.8 191.9 77.7C191.9 74.6 189.4 72.1 186.3 72.1C183.7 72.1 181.5 74 180.9 76.4H170.3C170.2 76.4 170 76.4 169.9 76.4C169.7 76.4 169.5 76.5 169.4 76.7L160.9 85.3L144.4 68.6H144.3C144.1 68.5 143.8 68.3 143.4 68.3H117.6V59.3H150.2L159.6 68.8H159.7C159.9 68.9 160.2 69.1 160.6 69.1H179.7C180.1 69.1 180.4 68.9 180.6 68.7C180.8 68.5 181 68.1 181 67.8C181 67.4 180.8 67.1 180.6 66.9C180.4 66.7 180 66.5 179.7 66.5H161.2L154.2 59.4H186.9C187.1 60.4 187.7 61.4 188.4 62.1C189.4 63.1 190.8 63.7 192.3 63.7C195.3 63.7 197.9 61.2 197.9 58.1C197.9 55 195.4 52.5 192.3 52.5C189.7 52.5 187.5 54.4 186.9 56.8H154.5L161.3 49.9H179.8C180.2 49.9 180.5 49.7 180.7 49.5C180.9 49.3 181.1 48.9 181.1 48.6C181.1 48.2 180.9 47.9 180.7 47.7C180.5 47.5 180.1 47.3 179.8 47.3H160.7C160.6 47.3 160.4 47.3 160.3 47.3C160.1 47.3 159.9 47.4 159.8 47.6L150.7 56.8H117.6V48.1H143.5C143.6 48.1 143.8 48.1 143.9 48.1C144.1 48.1 144.3 48 144.4 47.8L160.9 31.1L169.3 39.6H169.4C169.6 39.7 169.9 39.9 170.3 39.9H180.9C181.5 42.3 183.7 44.2 186.3 44.2C189.3 44.2 191.9 41.7 191.9 38.6C191.9 35.5 189.4 33 186.3 33C183.7 33 181.5 34.9 180.9 37.3H170.8L162.8 29.2L167 24.9H170.3C170.5 25.9 171 26.8 171.7 27.5C172.7 28.5 174.1 29.2 175.7 29.2C178.7 29.2 181.3 26.7 181.3 23.6C181.3 20.5 178.8 18 175.7 18C173.1 18 170.9 19.8 170.3 22.3H166.4C166.3 22.3 166.1 22.3 166 22.3C165.8 22.3 165.6 22.4 165.5 22.6L160.3 27.9C160.2 28 160.1 28 160 28.1V28.2C160 28.3 159.9 28.3 159.9 28.4L143.1 45.4H117.8V34.5H140.3C140.4 34.5 140.6 34.5 140.7 34.5C140.9 34.5 141.1 34.4 141.2 34.2L150.4 24.9L163.5 11.7H188.8C189 12.7 189.6 13.7 190.3 14.4C191.3 15.4 192.7 16 194.2 16C197.2 16 199.8 13.5 199.8 10.4C199.8 7.3 197.3 4.8 194.2 4.8C191.6 4.8 189.4 6.6 188.8 9.1H162.9C162.8 9.1 162.6 9.1 162.5 9.1C162.3 9.1 162.1 9.2 162 9.4L149.3 22C147.7 20.2 144.1 16.3 141.4 13.2C141.9 12.3 142.2 11.4 142.2 10.3C142.2 7.2 139.7 4.7 136.6 4.7C133.6 4.7 131 7.3 131 10.3C131 11.9 131.6 13.3 132.6 14.3C133.6 15.3 135 15.9 136.5 15.9C137.5 15.9 138.5 15.6 139.3 15.1C140.5 16.4 142.3 18.5 144 20.4C145 21.6 146 22.7 146.8 23.5C146.9 23.7 147.1 23.8 147.2 23.9L139.4 31.8H117.4V5.7C117.4 4.4 116.9 3.2 116.1 2.4C115.3 1.6 114.1 1 112.8 1H92.5C91.2 1 90.1 1.5 89.2 2.4C88.4 3.2 87.9 4.4 87.9 5.7V109.3C87.9 110.6 88.4 111.8 89.2 112.6C90 113.4 91.2 114 92.5 114H113C114.3 114 115.4 113.5 116.3 112.6C117.1 111.8 117.6 110.6 117.6 109.3V84.4H139.7L147.5 92.3C146.6 93.2 145.3 94.7 143.8 96.2C142.1 98 140.4 99.8 139.3 101C138.5 100.6 137.6 100.3 136.6 100.3C133.6 100.3 131 102.8 131 105.9C131 109 133.5 111.5 136.6 111.5C139.6 111.5 142.2 108.9 142.2 105.9C142.2 104.8 141.8 103.7 141.3 102.8C143 101 145 98.9 146.6 97.1C147.7 95.9 148.7 94.9 149.3 94.2L162 107H162.1C162.3 107.1 162.6 107.3 163 107.3H188.7C189.3 109.7 191.5 111.6 194.1 111.6C197.1 111.6 199.7 109 199.7 106C199.7 102.9 197.2 100.3 194.1 100.3ZM194.2 108.9C192.8 108.9 191.5 107.8 191.3 106.3C191.3 106.2 191.4 106 191.4 105.9C191.4 105.8 191.4 105.6 191.3 105.5C191.4 104.9 191.7 104.3 192.1 103.8C192.6 103.3 193.3 102.9 194.2 102.9C195 102.9 195.7 103.2 196.2 103.8C196.7 104.3 197.1 105.1 197.1 105.9C197.1 106.7 196.8 107.4 196.2 108C195.7 108.6 195 108.9 194.2 108.9ZM113 111.3H92.5C91.4 111.3 90.5 110.4 90.5 109.3V101.5H115V109.3C115 110.4 114.1 111.3 113 111.3ZM92.5 3.7H113C114.1 3.7 115 4.6 115 5.7V11.2H90.5V5.7C90.5 4.6 91.4 3.7 92.5 3.7ZM115 55.4L103.7 44C103.4 43.8 103.1 43.7 102.7 43.7C102.4 43.7 102 43.8 101.8 44.1L90.5 55.4V28.5H115V55.4ZM102.7 46.9L113.3 57.6L102.7 68.3L92.2 57.6L102.7 46.9ZM90.5 25.9V13.9H115V25.9H90.5ZM90.5 98.8V86.8H115V98.8H90.5ZM90.5 59.6L101.8 71C102 71.2 102.2 71.4 102.6 71.4C102.7 71.4 102.7 71.4 102.8 71.4C102.9 71.4 103.1 71.4 103.2 71.4C103.4 71.4 103.6 71.3 103.7 71.1L115 59.7V84.3H90.5V59.6ZM175.7 89.8C176.5 89.8 177.2 90.1 177.7 90.7C178.2 91.2 178.6 92 178.6 92.8C178.6 94.5 177.2 95.8 175.7 95.8C174.1 95.8 172.8 94.5 172.8 92.8C172.8 92 173.1 91.3 173.6 90.7C174.1 90.1 174.9 89.8 175.7 89.8ZM186.4 80.7C184.8 80.7 183.5 79.4 183.5 77.7C183.5 76.9 183.8 76.2 184.4 75.6C184.9 75.1 185.7 74.7 186.4 74.7C187.2 74.7 187.9 75 188.4 75.6C188.9 76.1 189.3 76.9 189.3 77.7C189.3 78.5 189 79.2 188.4 79.8C187.9 80.3 187.2 80.7 186.4 80.7ZM189.5 57.5C189.6 56.9 189.9 56.3 190.3 55.8C190.8 55.3 191.6 54.9 192.3 54.9C193.1 54.9 193.8 55.2 194.3 55.8C194.8 56.3 195.2 57.1 195.2 57.9C195.2 59.6 194 60.9 192.3 60.9C190.9 60.9 189.6 59.8 189.4 58.3C189.4 58.2 189.5 58 189.5 57.9C189.5 57.8 189.5 57.7 189.5 57.5ZM186.4 41.5C184.8 41.5 183.5 40.2 183.5 38.5C183.5 37.7 183.8 37 184.4 36.4C184.9 35.9 185.7 35.5 186.4 35.5C187.2 35.5 187.9 35.8 188.4 36.4C188.9 36.9 189.3 37.7 189.3 38.5C189.4 40.2 188 41.5 186.4 41.5ZM172.8 23.1C172.9 22.5 173.2 21.9 173.6 21.4C174.1 20.9 174.8 20.5 175.7 20.5C176.5 20.5 177.2 20.8 177.7 21.4C178.2 21.9 178.6 22.7 178.6 23.5C178.6 24.3 178.3 25 177.7 25.6C177.2 26.1 176.4 26.5 175.7 26.5C174.3 26.5 173 25.4 172.8 23.9C172.8 23.8 172.9 23.6 172.9 23.5C172.9 23.4 172.9 23.2 172.8 23.1ZM194.2 13.2C192.6 13.2 191.3 11.9 191.3 10.2C191.3 9.4 191.6 8.7 192.1 8.1C192.6 7.6 193.3 7.2 194.2 7.2C195 7.2 195.7 7.5 196.2 8.1C196.7 8.6 197.1 9.4 197.1 10.2C197.1 12 195.8 13.2 194.2 13.2ZM136.7 7.3C137.5 7.3 138.2 7.6 138.7 8.2C139.2 8.7 139.6 9.5 139.6 10.3C139.6 12 138.4 13.3 136.7 13.3C135.1 13.3 133.8 12 133.8 10.3C133.8 9.5 134.1 8.8 134.6 8.2C135.1 7.6 135.8 7.3 136.7 7.3ZM136.7 108.9C135.1 108.9 133.8 107.6 133.8 105.9C133.8 105.1 134.1 104.4 134.6 103.8C135.1 103.3 135.8 102.9 136.7 102.9C137.5 102.9 138.2 103.2 138.7 103.8C139.2 104.3 139.6 105.1 139.6 105.9C139.6 106.7 139.3 107.4 138.8 108C138.2 108.6 137.5 108.9 136.7 108.9Z" fill="#014BE4"/>
<path d="M78.5 1.1H57.5C56.3 1.1 55.2 1.6 54.4 2.4C53.6 3.2 53.1 4.3 53.1 5.5V5.9C52.9 5.8 52.6 5.7 52.4 5.7L32.2 0.1C31.8 0 31.4 0 31 0C29 0 27.3 1.4 26.7 3.4L21.3 23.7C21.2 23.9 21.1 24 21 24.2C21 24.3 21 24.4 21 24.5C21 24.6 21 24.6 21 24.7L6.3 80.4C6.3 80.5 6.2 80.5 6.2 80.6C6.2 80.7 6.2 80.7 6.2 80.8L2.6 94.5C2.6 94.6 2.5 94.7 2.5 94.8C2.5 94.9 2.5 95 2.5 95.1L0.2 103.8C0.1 104.2 0 104.7 0 105.1C0 105.8 0.2 106.5 0.6 107.2C1.2 108.2 2.1 109 3.3 109.3L23.6 114.8C24 114.9 24.4 114.9 24.8 114.9C26.7 114.9 28.5 113.6 29.1 111.6L31.4 103C31.5 102.9 31.5 102.7 31.6 102.6C31.6 102.5 31.6 102.4 31.6 102.3L35.2 88.9C35.3 88.8 35.3 88.6 35.4 88.5C35.4 88.4 35.4 88.3 35.4 88.2L53.4 20.7V109.7C53.4 110.9 53.9 112 54.6 112.8C55.3 113.6 56.4 114.1 57.6 114.1H78.8C80 114.1 81.1 113.6 81.9 112.8C82.7 112 83.2 110.9 83.2 109.7V5.5C83.2 4.3 82.7 3.2 81.9 2.4C80.9 1.6 79.8 1.1 78.5 1.1ZM78.5 111.2H57.5C56.5 111.2 55.8 110.4 55.8 109.4V101.4H80.3V109.4C80.3 110.4 79.5 111.2 78.5 111.2ZM26.4 110.9C26.3 111.3 26.1 111.6 25.8 111.9C25.5 112.1 25.1 112.2 24.7 112.2C24.6 112.2 24.4 112.2 24.3 112.2L4 106.7C3.5 106.6 3.1 106.3 3 105.9C2.8 105.7 2.8 105.4 2.8 105.1C2.8 104.9 2.8 104.7 2.9 104.5L4.9 96.8L28.6 103.2L26.4 110.9ZM5.5 94.2L8.6 82.6L32.2 89L29.1 100.6L5.5 94.2ZM9.2 80L15.5 56.3L23.5 70.3C23.7 70.7 24 70.8 24.2 70.9H24.5C24.6 70.9 24.7 70.9 24.8 70.9C24.9 70.9 25 70.8 25.2 70.7L39.2 62.6L32.9 86.4L9.2 80ZM25 67.8L17.6 54.7L30.5 47.2L37.9 60.3L25 67.8ZM32.2 44.8C32 44.4 31.5 44.1 31.1 44.1C30.9 44.1 30.6 44.2 30.4 44.3L16.6 52.4L23.5 26.3L47.1 32.7L40.2 58.9L32.2 44.8ZM29.4 4.1C29.6 3.4 30.3 2.8 31 2.8C31.1 2.8 31.2 2.8 31.2 2.8C31.2 2.8 31.3 2.8 31.4 2.9L51.6 8.4C52.1 8.5 52.5 8.8 52.6 9.2C52.8 9.4 52.8 9.7 52.8 10C52.8 10.2 52.8 10.4 52.7 10.6L51.5 16L27.9 9.5L29.4 4.1ZM24.2 23.6L27.2 12.1L50.8 18.5L47.8 30L24.2 23.6ZM80.3 11.2H55.8V5.5C55.8 4.5 56.6 3.7 57.5 3.7H78.5C79.5 3.7 80.2 4.5 80.2 5.5V11.2H80.3ZM68 46.9L78.6 57.6L68 68.2L57.5 57.6L68 46.9ZM55.8 98.8V86.8H80.3V98.8H55.8ZM55.8 59.6L67.1 71C67.3 71.2 67.5 71.3 67.6 71.3C67.8 71.3 67.9 71.3 68 71.3C68.1 71.3 68.3 71.3 68.4 71.3C68.6 71.3 68.8 71.2 68.9 71L80.2 59.6V84.2H55.8V59.6ZM69 43.9C68.7 43.7 68.3 43.5 68 43.5C67.7 43.5 67.3 43.6 67.1 43.9L55.8 55.4V28.5H80.3V55.3L69 43.9ZM55.8 25.9V13.9H80.3V25.9H55.8Z" fill="#014BE4"/>
</svg>
