<svg width="176" height="160" viewBox="0 0 176 160" fill="none" xmlns="http://www.w3.org/2000/svg">
<path d="M70.0593 25.0495C73.3611 25.0207 76.5192 23.6949 78.8522 21.3582C81.1851 19.0215 82.5058 15.8613 82.5293 12.5595C82.5212 11.6268 82.4106 10.6979 82.1993 9.78945C82.2146 9.66325 82.2146 9.53566 82.1993 9.40945C82.152 9.28274 82.0845 9.16453 81.9993 9.05945C81.1427 6.18758 79.2796 3.72069 76.7516 2.11101C74.2237 0.501326 71.2003 -0.143288 68.2356 0.295335C65.271 0.733958 62.5637 2.22643 60.6102 4.49915C58.6567 6.77187 57.5877 9.67255 57.5993 12.6695C57.6257 15.9585 58.9494 19.1042 61.2827 21.4225C63.616 23.7408 66.7701 25.0443 70.0593 25.0495ZM70.0593 22.4195C67.5325 22.4172 65.1033 21.443 63.2752 19.6986C61.4471 17.9542 60.36 15.5734 60.2393 13.0495C61.0597 13.2093 61.8936 13.2897 62.7293 13.2895C64.44 13.2772 66.1302 12.9161 67.6966 12.2284C69.263 11.5406 70.6726 10.5406 71.8393 9.28945C73.8833 10.5672 76.239 11.2591 78.6493 11.2895C79.0337 11.287 79.4176 11.2636 79.7993 11.2195C80.0112 12.6149 79.917 14.0396 79.5232 15.395C79.1294 16.7503 78.4455 18.0038 77.5188 19.0684C76.5922 20.133 75.445 20.9832 74.1569 21.5602C72.8688 22.1371 71.4706 22.4269 70.0593 22.4095V22.4195ZM70.0593 2.69945C71.9769 2.73124 73.8449 3.31376 75.4406 4.37758C77.0363 5.44139 78.2925 6.94163 79.0593 8.69946C78.8893 8.69946 78.7193 8.69946 78.5393 8.69946C76.2822 8.72038 74.0914 7.93692 72.3593 6.48945C72.1493 6.17945 71.7393 6.17945 71.4193 6.17945C71.0871 6.24912 70.7898 6.43314 70.5793 6.69945C69.6795 7.93849 68.4991 8.94688 67.1347 9.64212C65.7703 10.3374 64.2607 10.6997 62.7293 10.6995C61.9672 10.6916 61.2087 10.5943 60.4693 10.4095C60.9518 8.22483 62.1651 6.27016 63.9088 4.86834C65.6524 3.46652 67.8221 2.70143 70.0593 2.69945Z" fill="#0272B0"/>
<path d="M53.5193 63.3495C54.4032 63.3421 55.2692 63.1005 56.0293 62.6495V69.1195C56.0237 69.286 56.0525 69.4519 56.1139 69.6068C56.1754 69.7617 56.2682 69.9022 56.3865 70.0195C56.5047 70.1369 56.646 70.2285 56.8014 70.2887C56.9567 70.349 57.1229 70.3764 57.2893 70.3695H83.3593C83.5178 70.3657 83.6739 70.3301 83.8183 70.2646C83.9628 70.1992 84.0925 70.1054 84.1998 69.9887C84.3072 69.872 84.3899 69.7349 84.4431 69.5856C84.4962 69.4362 84.5188 69.2777 84.5093 69.1195V62.6495C85.2724 63.1022 86.1421 63.3438 87.0293 63.3495C87.6685 63.3531 88.3017 63.226 88.89 62.9761C89.4783 62.7261 90.0093 62.3585 90.4504 61.8959C90.8915 61.4333 91.2334 60.8854 91.455 60.2858C91.6767 59.6863 91.7734 59.0477 91.7393 58.4095V40.8895C91.7393 37.4159 90.3609 34.0844 87.9066 31.6263C85.4523 29.1683 82.1229 27.7848 78.6493 27.7795H61.5793C59.859 27.7808 58.1558 28.1209 56.5669 28.7805C54.9781 29.44 53.5347 30.406 52.3192 31.6234C51.1036 32.8408 50.1398 34.2857 49.4827 35.8755C48.8256 37.4654 48.488 39.1691 48.4893 40.8895V58.4095C48.5052 59.7303 49.043 60.9913 49.9855 61.9169C50.928 62.8424 52.1984 63.3575 53.5193 63.3495ZM51.2093 40.7895C51.2027 39.3968 51.4717 38.0166 52.0007 36.7283C52.5297 35.44 53.3082 34.2691 54.2916 33.283C55.275 32.2968 56.4437 31.5149 57.7305 30.9823C59.0173 30.4496 60.3967 30.1768 61.7893 30.1795H78.7893C80.1812 30.1768 81.5598 30.4493 82.8459 30.9813C84.132 31.5133 85.3003 32.2943 86.2835 33.2794C87.2667 34.2645 88.0455 35.4343 88.5751 36.7214C89.1047 38.0085 89.3746 39.3876 89.3693 40.7795V58.1795C89.3772 58.4959 89.3227 58.8109 89.2088 59.1063C89.095 59.4017 88.9241 59.6718 88.7059 59.9012C88.4877 60.1305 88.2264 60.3146 87.937 60.443C87.6477 60.5714 87.3358 60.6416 87.0193 60.6495C86.7029 60.6573 86.3879 60.6028 86.0925 60.489C85.7971 60.3751 85.527 60.2042 85.2976 59.986C85.0683 59.7678 84.8841 59.5065 84.7557 59.2172C84.6273 58.9278 84.5572 58.6159 84.5493 58.2995V49.1795C84.5493 48.8413 84.415 48.517 84.1759 48.2779C83.9368 48.0388 83.6125 47.9045 83.2743 47.9045C82.9362 47.9045 82.6119 48.0388 82.3728 48.2779C82.1337 48.517 81.9993 48.8413 81.9993 49.1795V67.8395H58.5393V49.1795C58.5393 48.8426 58.4055 48.5196 58.1674 48.2814C57.9292 48.0433 57.6062 47.9095 57.2693 47.9095C56.9325 47.9095 56.6095 48.0433 56.3713 48.2814C56.1331 48.5196 55.9993 48.8426 55.9993 49.1795V58.2995C55.9916 58.9362 55.7351 59.5447 55.2849 59.995C54.8346 60.4453 54.2261 60.7017 53.5893 60.7095C53.2714 60.7149 52.9555 60.6562 52.6607 60.537C52.3659 60.4178 52.098 60.2405 51.8732 60.0156C51.6483 59.7908 51.471 59.5229 51.3518 59.2281C51.2326 58.9332 51.1739 58.6174 51.1793 58.2995L51.2093 40.7895Z" fill="#0272B0"/>
<path d="M66.0793 35.9595H68.9993V51.2795C68.9924 51.4459 69.0198 51.6121 69.0801 51.7674C69.1403 51.9228 69.2319 52.064 69.3493 52.1823C69.4666 52.3006 69.6072 52.3934 69.762 52.4549C69.9169 52.5163 70.0828 52.5451 70.2493 52.5395C70.5927 52.5381 70.923 52.4078 71.1749 52.1744C71.4267 51.9411 71.5818 51.6217 71.6093 51.2795V35.9595H74.5493C74.8835 35.9595 75.204 35.8267 75.4403 35.5904C75.6766 35.3541 75.8093 35.0336 75.8093 34.6995C75.8093 34.3653 75.6766 34.0448 75.4403 33.8085C75.204 33.5722 74.8835 33.4395 74.5493 33.4395H66.0793C65.7452 33.4395 65.4247 33.5722 65.1884 33.8085C64.9521 34.0448 64.8193 34.3653 64.8193 34.6995C64.8193 35.0336 64.9521 35.3541 65.1884 35.5904C65.4247 35.8267 65.7452 35.9595 66.0793 35.9595Z" fill="#0272B0"/>
<path d="M142.629 111.089C145.007 111.1 147.338 110.426 149.344 109.148C151.349 107.87 152.945 106.042 153.939 103.882C154.934 101.721 155.286 99.3206 154.953 96.9659C154.62 94.6111 153.617 92.4019 152.063 90.6019C150.508 88.802 148.469 87.4873 146.188 86.815C143.907 86.1427 141.48 86.1411 139.198 86.8103C136.916 87.4796 134.875 88.7915 133.318 90.5894C131.762 92.3872 130.755 94.5951 130.419 96.9494C130.419 96.9494 130.419 96.9494 130.419 97.0294C130.385 97.1977 130.385 97.3712 130.419 97.5395C130.379 97.9248 130.359 98.312 130.359 98.6994C130.359 101.965 131.648 105.098 133.946 107.418C136.243 109.739 139.364 111.058 142.629 111.089ZM142.629 108.459C140.107 108.457 137.682 107.486 135.856 105.745C134.03 104.005 132.943 101.629 132.819 99.1095C133.605 99.253 134.401 99.3266 135.199 99.3295C136.894 99.3555 138.573 99.0017 140.113 98.2939C141.653 97.5862 143.015 96.5425 144.099 95.2394C146.565 96.8064 149.481 97.5099 152.389 97.2394C152.455 97.7032 152.485 98.1712 152.479 98.6395C152.474 101.247 151.434 103.747 149.587 105.588C147.74 107.429 145.237 108.462 142.629 108.459ZM142.629 88.7394C144.549 88.7461 146.425 89.3088 148.031 90.3594C149.637 91.4101 150.904 92.9036 151.679 94.6595C149.209 94.8154 146.768 94.0493 144.829 92.5095C144.629 92.1995 144.209 92.1994 143.889 92.1994C143.557 92.2691 143.26 92.4531 143.049 92.7195C142.15 93.9585 140.969 94.9669 139.605 95.6621C138.24 96.3574 136.731 96.7197 135.199 96.7195C134.468 96.7128 133.74 96.6222 133.029 96.4494C133.512 94.2632 134.727 92.3072 136.473 90.9052C138.218 89.5032 140.39 88.7391 142.629 88.7394Z" fill="#0272B0"/>
<path d="M151.329 113.809H134.259C130.784 113.815 127.453 115.2 124.999 117.66C122.544 120.12 121.167 123.454 121.169 126.929V144.449C121.17 145.329 121.405 146.192 121.852 146.95C122.299 147.708 122.94 148.332 123.709 148.759C124.478 149.185 125.348 149.398 126.227 149.375C127.106 149.353 127.963 149.095 128.709 148.629V155.179C128.702 155.345 128.73 155.511 128.79 155.666C128.85 155.821 128.942 155.962 129.06 156.079C129.177 156.197 129.318 156.288 129.473 156.349C129.628 156.409 129.793 156.437 129.959 156.429H155.959C156.125 156.437 156.291 156.409 156.446 156.349C156.601 156.288 156.741 156.197 156.859 156.079C156.976 155.962 157.068 155.821 157.129 155.666C157.189 155.511 157.216 155.345 157.209 155.179V148.679C157.968 149.133 158.835 149.375 159.719 149.379C160.358 149.384 160.992 149.259 161.581 149.01C162.169 148.761 162.701 148.395 163.143 147.933C163.585 147.471 163.928 146.924 164.151 146.325C164.374 145.726 164.472 145.088 164.439 144.449V126.929C164.441 125.207 164.103 123.501 163.444 121.909C162.786 120.318 161.821 118.871 160.603 117.653C159.386 116.434 157.94 115.468 156.349 114.808C154.757 114.149 153.052 113.809 151.329 113.809ZM161.999 144.239C161.998 144.888 161.746 145.512 161.298 145.981C160.849 146.45 160.238 146.729 159.589 146.759C159.272 146.765 158.957 146.706 158.663 146.588C158.369 146.469 158.102 146.293 157.877 146.069C157.652 145.845 157.475 145.579 157.355 145.285C157.235 144.991 157.175 144.677 157.179 144.359V135.179C157.195 135.005 157.174 134.83 157.118 134.664C157.062 134.498 156.972 134.346 156.854 134.217C156.736 134.088 156.592 133.985 156.432 133.914C156.272 133.844 156.099 133.807 155.924 133.807C155.749 133.807 155.576 133.844 155.416 133.914C155.256 133.985 155.113 134.088 154.995 134.217C154.877 134.346 154.787 134.498 154.731 134.664C154.675 134.83 154.654 135.005 154.669 135.179V153.849H131.219V135.179C131.235 135.005 131.214 134.83 131.158 134.664C131.102 134.498 131.012 134.346 130.894 134.217C130.776 134.088 130.632 133.985 130.472 133.914C130.312 133.844 130.139 133.807 129.964 133.807C129.789 133.807 129.616 133.844 129.456 133.914C129.296 133.985 129.153 134.088 129.035 134.217C128.917 134.346 128.827 134.498 128.771 134.664C128.715 134.83 128.694 135.005 128.709 135.179V139.269C128.636 139.433 128.599 139.61 128.599 139.789V144.309C128.599 144.949 128.345 145.562 127.893 146.014C127.441 146.466 126.829 146.719 126.189 146.719C125.55 146.719 124.937 146.466 124.485 146.014C124.033 145.562 123.779 144.949 123.779 144.309V126.829C123.774 125.438 124.044 124.059 124.574 122.771C125.103 121.484 125.882 120.315 126.865 119.329C127.848 118.344 129.017 117.563 130.303 117.031C131.589 116.499 132.968 116.227 134.359 116.229H151.429C152.82 116.228 154.198 116.502 155.483 117.034C156.768 117.567 157.935 118.348 158.917 119.333C159.899 120.318 160.677 121.487 161.206 122.774C161.735 124.06 162.005 125.438 161.999 126.829V144.239Z" fill="#0272B0"/>
<path d="M147.139 119.369H138.759C138.425 119.369 138.105 119.502 137.868 119.738C137.632 119.975 137.499 120.295 137.499 120.629C137.499 120.964 137.632 121.284 137.868 121.52C138.105 121.757 138.425 121.889 138.759 121.889H141.689V137.319C141.682 137.491 141.711 137.663 141.774 137.823C141.838 137.982 141.935 138.127 142.059 138.246C142.183 138.365 142.331 138.456 142.493 138.514C142.655 138.572 142.828 138.594 142.999 138.579C143.17 138.567 143.337 138.521 143.49 138.443C143.643 138.366 143.779 138.259 143.891 138.129C144.002 137.999 144.087 137.848 144.14 137.685C144.193 137.522 144.213 137.35 144.199 137.179V121.889H147.139C147.474 121.889 147.794 121.757 148.03 121.52C148.267 121.284 148.399 120.964 148.399 120.629C148.399 120.295 148.267 119.975 148.03 119.738C147.794 119.502 147.474 119.369 147.139 119.369Z" fill="#0272B0"/>
<path d="M100.829 130.779L93.3893 127.659C93.3893 126.599 93.3893 125.469 93.2993 124.319L100.639 120.999C100.866 120.901 101.058 120.737 101.192 120.528C101.325 120.32 101.394 120.077 101.389 119.829C101.399 119.713 101.399 119.596 101.389 119.479L100.129 115.059C100.061 114.764 99.8913 114.502 99.6493 114.319C99.4061 114.15 99.1155 114.063 98.8193 114.069L90.7493 115.069C90.1913 114.068 89.5701 113.102 88.8893 112.179L93.6193 105.629C93.7694 105.412 93.8497 105.154 93.8493 104.889C93.849 104.714 93.8135 104.54 93.7447 104.379C93.676 104.217 93.5756 104.071 93.4493 103.949L90.0993 100.699C89.8542 100.449 89.5199 100.305 89.1693 100.299C88.9026 100.304 88.6425 100.383 88.4193 100.529L81.9993 105.429C81.0987 104.757 80.122 104.193 79.0893 103.749L79.8893 95.6895C79.8959 95.3933 79.8084 95.1027 79.6393 94.8595C79.4565 94.6111 79.1902 94.4371 78.8893 94.3695L74.3793 93.1795C74.2533 93.1611 74.1253 93.1611 73.9993 93.1795C73.7492 93.1735 73.503 93.2427 73.2926 93.3782C73.0822 93.5137 72.9174 93.7092 72.8193 93.9395L69.6993 101.399C68.6393 101.399 67.5193 101.399 66.3793 101.479L63.2993 93.7995C63.2048 93.5667 63.0408 93.3688 62.8296 93.2328C62.6184 93.0967 62.3703 93.0292 62.1193 93.0395C62.0064 93.0253 61.8922 93.0253 61.7793 93.0395L57.3793 94.2995C57.0835 94.3725 56.8221 94.5456 56.6393 94.7895C56.4703 95.0327 56.3828 95.3233 56.3893 95.6195L57.3893 103.709C56.3831 104.238 55.4112 104.829 54.4793 105.479L47.9493 100.739C47.7281 100.589 47.4668 100.509 47.1993 100.509C47.026 100.508 46.8542 100.542 46.6943 100.609C46.5345 100.676 46.3899 100.775 46.2693 100.899L42.9993 104.339C42.8747 104.46 42.7759 104.605 42.7089 104.764C42.6419 104.924 42.608 105.096 42.6093 105.269C42.609 105.534 42.6892 105.792 42.8393 106.009L47.7493 112.439C47.0987 113.356 46.5394 114.334 46.0793 115.359L37.9993 114.569C37.702 114.565 37.4111 114.656 37.1693 114.829C36.9192 115.012 36.742 115.278 36.6693 115.579L35.5193 120.089C35.5046 120.206 35.5046 120.323 35.5193 120.439C35.5126 120.688 35.5817 120.934 35.7174 121.143C35.8531 121.352 36.0491 121.514 36.2793 121.609L43.7293 124.739C43.7293 125.869 43.7293 126.989 43.8193 128.069L36.4793 131.399C36.256 131.502 36.0673 131.667 35.9359 131.875C35.8046 132.082 35.7363 132.324 35.7393 132.569C35.7246 132.686 35.7246 132.803 35.7393 132.919L36.9993 137.349C37.0724 137.645 37.2455 137.907 37.4893 138.089C37.732 138.26 38.023 138.347 38.3193 138.339L46.3193 137.339C46.8481 138.343 47.4358 139.315 48.0793 140.249L43.3593 146.799C43.2133 147.023 43.1335 147.283 43.1293 147.549C43.1349 147.9 43.2786 148.234 43.5293 148.479L46.7693 151.729C47.0182 151.981 47.3557 152.124 47.7093 152.129C47.9729 152.125 48.2297 152.045 48.4493 151.899L54.8793 146.969C55.7946 147.614 56.7651 148.176 57.7793 148.649L56.9793 156.709C56.9661 157.006 57.0542 157.299 57.2293 157.539C57.4102 157.79 57.6774 157.964 57.9793 158.029L62.4993 159.179C62.6337 159.211 62.7712 159.228 62.9093 159.229C63.1495 159.232 63.3854 159.166 63.5893 159.039C63.7961 158.905 63.9457 158.698 64.0093 158.459L67.1293 150.999C68.2493 150.999 69.3293 150.999 70.4593 150.909L73.7793 158.259C73.8777 158.547 74.0814 158.786 74.3493 158.929C74.5733 159.034 74.808 159.115 75.0493 159.169H75.1793L79.7093 157.869C80.0047 157.801 80.2667 157.631 80.4493 157.389C80.6185 157.143 80.706 156.849 80.6993 156.549L79.6993 148.489C80.7169 148.016 81.6906 147.454 82.6093 146.809L89.1393 151.539C89.394 151.713 89.7014 151.792 90.0082 151.763C90.3151 151.734 90.602 151.598 90.8193 151.379L94.0693 148.019C94.2889 147.805 94.4255 147.519 94.4548 147.214C94.4841 146.908 94.4042 146.602 94.2293 146.349L89.3193 139.909C89.993 139.013 90.557 138.04 90.9993 137.009L98.9993 137.819C99.2967 137.824 99.5876 137.733 99.8293 137.559C100.08 137.379 100.254 137.111 100.319 136.809L101.469 132.299C101.509 132.163 101.529 132.022 101.529 131.879C101.532 131.639 101.466 131.403 101.339 131.199C101.222 131.006 101.042 130.858 100.829 130.779ZM88.7693 134.919C88.1542 136.361 87.3971 137.738 86.5093 139.029C86.353 139.248 86.2689 139.51 86.2689 139.779C86.2689 140.048 86.353 140.311 86.5093 140.529L91.2893 146.809L89.6893 148.489L83.3293 143.919C83.1105 143.763 82.8483 143.679 82.5793 143.679C82.3104 143.679 82.0482 143.763 81.8293 143.919C80.5784 144.908 79.2075 145.735 77.7493 146.379C77.6123 146.432 77.4884 146.513 77.3864 146.619C77.2845 146.724 77.2069 146.851 77.1593 146.989C77.0709 147.205 77.0267 147.436 77.0293 147.669V147.749L78.2193 155.599L75.9193 156.209L72.6393 149.039C72.5823 148.908 72.5 148.789 72.397 148.69C72.2941 148.59 72.1725 148.512 72.0393 148.459C71.8202 148.371 71.5857 148.327 71.3493 148.329H71.2793C70.3675 148.447 69.4488 148.504 68.5293 148.499C67.8693 148.499 67.2093 148.499 66.5293 148.429C66.2538 148.418 65.9816 148.493 65.7505 148.644C65.5193 148.794 65.3407 149.013 65.2393 149.269L62.1593 156.549L59.8593 156.009L60.6493 148.129C60.6605 147.856 60.5879 147.587 60.4413 147.356C60.2948 147.125 60.0812 146.945 59.8293 146.839C58.3836 146.25 57.011 145.495 55.7393 144.589C55.5205 144.433 55.2583 144.349 54.9893 144.349C54.7204 144.349 54.4582 144.433 54.2393 144.589L47.9693 149.379L46.2893 147.769L50.8593 141.399C51.0157 141.181 51.0998 140.918 51.0998 140.649C51.0998 140.38 51.0157 140.118 50.8593 139.899C49.8737 138.645 49.0505 137.271 48.4093 135.809C48.3524 135.674 48.2692 135.551 48.1645 135.448C48.0598 135.345 47.9357 135.264 47.7993 135.209C47.5778 135.129 47.3448 135.086 47.1093 135.079L39.3493 136.079L38.7293 133.759L45.8893 130.479C46.0254 130.428 46.1486 130.348 46.2505 130.245C46.3524 130.141 46.4305 130.016 46.4793 129.879C46.5593 129.658 46.6032 129.425 46.6093 129.189V129.129C46.4923 128.228 46.4356 127.319 46.4393 126.409C46.4393 125.749 46.4393 125.089 46.5093 124.409C46.5232 124.133 46.4508 123.86 46.302 123.627C46.1533 123.394 45.9356 123.213 45.6793 123.109L38.4193 120.019L38.9593 117.709L46.8193 118.509C47.1003 118.522 47.378 118.445 47.6132 118.291C47.8483 118.137 48.0289 117.912 48.1293 117.649C48.697 116.199 49.4499 114.827 50.3693 113.569C50.5257 113.351 50.6098 113.088 50.6098 112.819C50.6098 112.55 50.5257 112.288 50.3693 112.069L45.5893 105.789L47.1893 104.099L53.5493 108.679C53.7717 108.829 54.0317 108.912 54.2993 108.919C54.5641 108.913 54.8213 108.83 55.0393 108.679C56.2879 107.687 57.6592 106.861 59.1193 106.219C59.2547 106.163 59.3775 106.079 59.4805 105.975C59.5835 105.87 59.6647 105.746 59.7193 105.609C59.7984 105.388 59.8422 105.155 59.8493 104.919L58.8493 97.0294L61.1593 96.4095L64.4393 103.589C64.4927 103.723 64.5724 103.844 64.6739 103.945C64.7753 104.046 64.8962 104.126 65.0293 104.179C65.2485 104.268 65.483 104.312 65.7193 104.309H65.7893C66.7046 104.192 67.6266 104.135 68.5493 104.139C69.2093 104.139 69.8693 104.139 70.5493 104.209C70.8134 104.206 71.072 104.134 71.2993 103.999C71.5451 103.861 71.7358 103.642 71.8393 103.379L74.9193 96.1195L77.2293 96.7394L76.4293 104.629C76.4163 104.909 76.4913 105.186 76.6438 105.421C76.7963 105.656 77.0185 105.837 77.2793 105.939C78.7302 106.507 80.1016 107.26 81.3593 108.179C81.5782 108.336 81.8404 108.42 82.1093 108.42C82.3783 108.42 82.6405 108.336 82.8593 108.179L89.1293 103.399L90.7193 104.989L86.0893 111.179C85.933 111.398 85.8489 111.66 85.8489 111.929C85.8489 112.198 85.933 112.461 86.0893 112.679C87.0393 113.971 87.8631 115.351 88.5493 116.799C88.6668 117.057 88.8777 117.261 89.1393 117.369C89.3587 117.457 89.5931 117.501 89.8293 117.499L97.5893 116.499L98.2093 118.819L91.1093 122.179C90.9771 122.235 90.8575 122.317 90.7578 122.42C90.6581 122.523 90.5804 122.645 90.5293 122.779C90.4409 122.999 90.3967 123.233 90.3993 123.469V123.529C90.517 124.448 90.5738 125.373 90.5693 126.299C90.5693 126.959 90.5693 127.619 90.4993 128.299C90.4854 128.576 90.5579 128.849 90.7066 129.082C90.8554 129.315 91.0731 129.496 91.3293 129.599L98.5693 132.599L97.9993 134.889L90.1293 134.089C89.8434 134.062 89.5564 134.129 89.3113 134.278C89.0662 134.428 88.876 134.653 88.7693 134.919Z" fill="#0272B0"/>
<path d="M80.9993 122.699C80.1316 119.683 78.2073 117.079 75.5781 115.365C72.9489 113.65 69.7905 112.939 66.6802 113.361C63.5698 113.784 60.7154 115.311 58.6386 117.665C56.5617 120.018 55.4013 123.041 55.3693 126.179C55.3706 127.386 55.5354 128.587 55.8593 129.749C56.6333 132.518 58.2932 134.957 60.5851 136.693C62.8769 138.428 65.6745 139.365 68.5493 139.359C69.7035 139.36 70.853 139.212 71.9693 138.919C74.7107 138.116 77.1192 136.449 78.8364 134.166C80.5536 131.883 81.4876 129.106 81.4993 126.249C81.4915 125.049 81.3233 123.855 80.9993 122.699ZM58.2693 129.109C58.025 128.196 57.9006 127.255 57.8993 126.309C57.89 124.002 58.6339 121.754 60.0183 119.908C61.4026 118.061 63.3516 116.717 65.5693 116.079C66.5051 115.807 67.4748 115.669 68.4493 115.669C70.7177 115.681 72.9207 116.431 74.725 117.805C76.5292 119.18 77.8366 121.105 78.4493 123.289C78.722 124.242 78.86 125.228 78.8593 126.219C78.8639 128.499 78.1241 130.719 76.7524 132.54C75.3807 134.361 73.452 135.684 71.2593 136.309C70.3061 136.581 69.3205 136.722 68.3293 136.729C66.0558 136.72 63.8468 135.972 62.0358 134.597C60.2247 133.223 58.9098 131.297 58.2893 129.109H58.2693Z" fill="#0272B0"/>
<path d="M61.1893 109.719C61.3055 110.244 61.6074 110.71 62.0393 111.029C62.4866 111.354 63.0267 111.526 63.5793 111.519C63.8261 111.52 64.0718 111.486 64.3093 111.419C64.8302 111.258 65.2857 110.934 65.6094 110.495C65.9332 110.056 66.1084 109.525 66.1093 108.979C66.1105 108.742 66.0768 108.507 66.0093 108.279C65.846 107.759 65.5217 107.305 65.0831 106.981C64.6445 106.658 64.1144 106.482 63.5693 106.479C63.3324 106.478 63.0965 106.512 62.8693 106.579C62.3485 106.741 61.893 107.065 61.5692 107.504C61.2455 107.943 61.0703 108.474 61.0693 109.019C61.0724 109.24 61.1061 109.458 61.1693 109.669L61.1893 109.719Z" fill="#0272B0"/>
<path d="M53.8993 115.529C54.3197 115.973 54.8986 116.232 55.5093 116.249C55.7685 116.246 56.0239 116.188 56.2593 116.079H56.3393C56.7421 115.971 57.1104 115.761 57.4093 115.469C57.7999 114.961 58.0171 114.341 58.0293 113.699C58.0245 113.382 57.9556 113.068 57.8267 112.778C57.6979 112.488 57.5117 112.226 57.2793 112.009C57.0621 111.773 56.7976 111.585 56.503 111.458C56.2084 111.33 55.8903 111.266 55.5693 111.269C55.2322 111.267 54.8979 111.331 54.5855 111.458C54.2732 111.585 53.989 111.772 53.7493 112.009C53.3588 112.518 53.1415 113.138 53.1293 113.779C53.1248 114.123 53.193 114.464 53.3293 114.779C53.4759 115.06 53.6686 115.313 53.8993 115.529Z" fill="#0272B0"/>
<path d="M48.9993 123.089C49.1621 123.366 49.3788 123.606 49.6365 123.797C49.8942 123.988 50.1876 124.124 50.4993 124.199C50.7005 124.259 50.9094 124.29 51.1193 124.289C51.3498 124.291 51.5792 124.258 51.7993 124.189C52.2063 124.047 52.5726 123.807 52.8669 123.492C53.1612 123.177 53.3748 122.795 53.4893 122.379C53.543 122.17 53.5699 121.955 53.5693 121.739C53.5839 121.312 53.4612 120.892 53.2193 120.539C53.053 120.251 52.8283 120.001 52.5597 119.805C52.291 119.608 51.9844 119.47 51.6593 119.399C51.4897 119.385 51.319 119.385 51.1493 119.399C50.5851 119.398 50.035 119.577 49.5793 119.909C49.1155 120.241 48.7912 120.733 48.6693 121.289C48.6245 121.493 48.6011 121.701 48.5993 121.909C48.6102 122.334 48.7497 122.746 48.9993 123.089Z" fill="#0272B0"/>
<path d="M53.6793 130.359C53.5164 129.838 53.1925 129.382 52.754 129.057C52.3156 128.732 51.7852 128.554 51.2393 128.549C51.002 128.553 50.7662 128.59 50.5393 128.659C50.0204 128.823 49.5671 129.148 49.2452 129.587C48.9233 130.025 48.7496 130.555 48.7493 131.099C48.7489 131.336 48.7826 131.572 48.8493 131.799C49.0126 132.319 49.337 132.774 49.7756 133.098C50.2142 133.421 50.7443 133.597 51.2893 133.599C51.523 133.601 51.7556 133.567 51.9793 133.499C52.501 133.336 52.9567 133.01 53.2805 132.569C53.6042 132.129 53.7789 131.596 53.7793 131.049C53.7805 130.816 53.7468 130.583 53.6793 130.359Z" fill="#0272B0"/>
<path d="M57.7693 137.179C57.5525 136.95 57.2902 136.769 56.9992 136.646C56.7082 136.524 56.3949 136.464 56.0793 136.469C55.7422 136.467 55.4078 136.531 55.0955 136.658C54.7832 136.785 54.499 136.972 54.2593 137.209C53.8688 137.718 53.6515 138.338 53.6393 138.979C53.6327 139.323 53.7009 139.665 53.8393 139.979C53.9814 140.283 54.178 140.557 54.4193 140.789C54.8816 141.165 55.454 141.379 56.0493 141.399C56.2465 141.395 56.442 141.361 56.6293 141.299H56.6893C57.0988 141.192 57.474 140.982 57.7793 140.689C58.0201 140.465 58.212 140.193 58.3433 139.891C58.4745 139.589 58.5423 139.264 58.5423 138.934C58.5423 138.605 58.4745 138.28 58.3433 137.978C58.212 137.676 58.0201 137.404 57.7793 137.179H57.7693Z" fill="#0272B0"/>
<path d="M64.6593 141.039C64.4911 141.008 64.3205 140.991 64.1493 140.989C63.5868 140.999 63.0401 141.177 62.5793 141.499C62.1155 141.831 61.7912 142.323 61.6693 142.879C61.6163 143.082 61.5894 143.29 61.5893 143.499C61.5782 143.926 61.7006 144.346 61.9393 144.699C62.1011 144.977 62.3174 145.22 62.5751 145.412C62.8329 145.605 63.1268 145.743 63.4393 145.819H63.4993C63.7005 145.879 63.9094 145.91 64.1193 145.909C64.3503 145.908 64.5797 145.871 64.7993 145.799C65.2046 145.659 65.5693 145.421 65.862 145.107C66.1548 144.794 66.3666 144.413 66.4793 143.999C66.4941 143.83 66.4941 143.659 66.4793 143.489C66.473 142.941 66.2935 142.409 65.9666 141.969C65.6398 141.529 65.1822 141.204 64.6593 141.039Z" fill="#0272B0"/>
<path d="M73.2293 140.829C72.9924 140.829 72.7567 140.863 72.5293 140.929C72.0112 141.094 71.5588 141.42 71.2371 141.858C70.9155 142.297 70.7412 142.826 70.7393 143.369C70.7375 143.606 70.7712 143.842 70.8393 144.069C71.0013 144.59 71.3253 145.046 71.7642 145.37C72.2031 145.693 72.7339 145.868 73.2793 145.869C73.5163 145.87 73.752 145.836 73.9793 145.769C74.4983 145.606 74.9516 145.281 75.2735 144.842C75.5953 144.404 75.769 143.874 75.7693 143.329C75.7705 143.092 75.7368 142.857 75.6693 142.629C75.5074 142.109 75.1834 141.653 74.7445 141.329C74.3056 141.006 73.7748 140.83 73.2293 140.829Z" fill="#0272B0"/>
<path d="M82.8993 136.889C82.6806 136.652 82.4144 136.464 82.1181 136.337C81.8217 136.209 81.5019 136.145 81.1793 136.149C80.5003 136.154 79.8488 136.419 79.3593 136.889C78.9695 137.399 78.7492 138.018 78.7293 138.659C78.7351 138.984 78.8073 139.304 78.9414 139.6C79.0756 139.896 79.2689 140.161 79.5093 140.379C79.8082 140.681 80.1741 140.908 80.5772 141.042C80.9803 141.176 81.4093 141.213 81.8293 141.149C82.2699 141.04 82.6736 140.816 82.9993 140.499C83.3899 139.991 83.6071 139.371 83.6193 138.729C83.626 138.386 83.5578 138.044 83.4193 137.729C83.3034 137.418 83.1266 137.132 82.8993 136.889Z" fill="#0272B0"/>
<path d="M87.7693 129.299C87.6046 129.012 87.3816 128.762 87.1147 128.566C86.8478 128.37 86.5428 128.231 86.2193 128.159C86.063 128.144 85.9056 128.144 85.7493 128.159C85.1906 128.164 84.6465 128.338 84.1893 128.659C83.6915 128.97 83.3331 129.461 83.1893 130.029C83.135 130.225 83.1048 130.427 83.0993 130.629C83.122 131.178 83.3182 131.705 83.6597 132.134C84.0012 132.564 84.4703 132.874 84.9993 133.019C85.3824 133.111 85.7758 133.151 86.1693 133.139H86.3293C86.7354 133 87.101 132.763 87.394 132.449C87.6869 132.135 87.8982 131.754 88.0093 131.339C88.0583 131.109 88.0818 130.875 88.0793 130.639C88.0931 130.204 87.9745 129.776 87.7393 129.409L87.7693 129.299Z" fill="#0272B0"/>
<path d="M83.0893 122.039C83.2526 122.559 83.577 123.014 84.0156 123.338C84.4542 123.661 84.9843 123.837 85.5293 123.839C85.7663 123.841 86.0022 123.807 86.2293 123.739C86.7493 123.576 87.204 123.252 87.5275 122.813C87.8511 122.375 88.0268 121.844 88.0293 121.299C88.0312 121.062 87.9975 120.826 87.9293 120.599C87.7651 120.079 87.4408 119.624 87.0026 119.299C86.5644 118.974 86.0349 118.796 85.4893 118.789C85.2519 118.792 85.0161 118.829 84.7893 118.899C84.2693 119.063 83.8147 119.387 83.4912 119.826C83.1676 120.264 82.9919 120.794 82.9893 121.339C82.9932 121.576 83.0268 121.811 83.0893 122.039Z" fill="#0272B0"/>
<path d="M78.9993 115.179C79.422 115.618 80.0003 115.873 80.6093 115.889C80.8673 115.885 81.122 115.831 81.3593 115.729H81.4393C81.8441 115.613 82.2146 115.4 82.5193 115.109C82.9091 114.6 83.1295 113.981 83.1493 113.339C83.1438 113.021 83.0736 112.707 82.9429 112.416C82.8123 112.126 82.6239 111.865 82.3893 111.649C82.1721 111.413 81.9076 111.225 81.613 111.098C81.3184 110.97 81.0003 110.906 80.6793 110.909C79.9999 110.912 79.3476 111.177 78.8593 111.649C78.4708 112.155 78.2537 112.772 78.2393 113.409C78.2348 113.753 78.303 114.094 78.4393 114.409C78.5758 114.699 78.7658 114.96 78.9993 115.179Z" fill="#0272B0"/>
<path d="M70.5793 110.179C70.7382 110.458 70.9523 110.701 71.2085 110.894C71.4648 111.086 71.7577 111.224 72.0693 111.299H72.1393C72.3405 111.359 72.5494 111.39 72.7593 111.389C72.9903 111.388 73.2197 111.351 73.4393 111.279C73.8454 111.14 74.211 110.903 74.504 110.589C74.7969 110.275 75.0082 109.894 75.1193 109.479C75.1683 109.249 75.1918 109.015 75.1893 108.779C75.2031 108.344 75.0845 107.916 74.8493 107.549C74.6846 107.262 74.4616 107.012 74.1947 106.816C73.9278 106.62 73.6228 106.481 73.2993 106.409C73.1431 106.394 72.9856 106.394 72.8293 106.409C72.2803 106.413 71.7456 106.585 71.2969 106.901C70.8482 107.217 70.5071 107.664 70.3193 108.179C70.2669 108.409 70.2401 108.644 70.2393 108.879C70.2292 109.315 70.3512 109.744 70.5893 110.109L70.5793 110.179Z" fill="#0272B0"/>
<path d="M37.1093 111.339L39.2093 109.129C39.4514 108.883 39.5908 108.554 39.5993 108.209C39.5952 107.943 39.5154 107.683 39.3693 107.459L36.3093 103.459C36.5393 103.039 36.7993 102.569 37.0493 102.049L41.9693 102.539C42.2655 102.546 42.5561 102.458 42.7993 102.289C43.0471 102.102 43.2206 101.833 43.2893 101.529L44.0193 98.5994C44.0506 98.4853 44.0674 98.3678 44.0693 98.2495C44.0759 97.9979 44.0058 97.7502 43.8682 97.5395C43.7307 97.3287 43.5323 97.1648 43.2993 97.0695L38.7093 95.2094C38.7093 94.9395 38.7693 94.6594 38.7693 94.3794C38.7693 94.0994 38.7693 93.8195 38.7093 93.5395L43.2093 91.4795C43.4436 91.3897 43.6448 91.2305 43.786 91.0232C43.9272 90.8158 44.0017 90.5703 43.9993 90.3195C44.0135 90.2066 44.0135 90.0923 43.9993 89.9795L43.1593 87.0395C43.0937 86.743 42.9233 86.4802 42.6793 86.2995C42.437 86.1275 42.1465 86.0365 41.8493 86.0395L36.9293 86.6395C36.6475 86.1354 36.337 85.6479 35.9993 85.1795L38.9993 81.1795C39.1512 80.9628 39.2316 80.7041 39.2293 80.4395C39.2296 80.2663 39.1952 80.0948 39.1282 79.9351C39.0612 79.7754 38.963 79.6307 38.8393 79.5095L36.6393 77.4095C36.3932 77.1615 36.0587 77.0212 35.7093 77.0194C35.4621 77.0024 35.2153 77.058 34.9993 77.1795L31.0693 80.1795C30.5993 79.8794 30.1193 79.5994 29.6493 79.3494L30.1393 74.4095C30.1473 74.1131 30.0597 73.8221 29.8893 73.5795C29.7027 73.3286 29.4336 73.1516 29.1293 73.0795L26.1993 72.3494C26.0631 72.3342 25.9256 72.3342 25.7893 72.3494C25.5459 72.3453 25.3064 72.4113 25.0993 72.5395C24.8986 72.6805 24.7507 72.8847 24.6793 73.1195L22.8293 77.7094C22.5393 77.7094 22.2393 77.6595 21.9693 77.6595C21.6993 77.6595 21.4293 77.6594 21.1593 77.7094L19.0993 73.1795C18.9989 72.9546 18.8343 72.7643 18.6261 72.6327C18.418 72.501 18.1756 72.4338 17.9293 72.4395C17.8162 72.4298 17.7025 72.4298 17.5893 72.4395L14.6493 73.2794C14.3538 73.3532 14.0926 73.5262 13.9093 73.7694C13.7433 74.0142 13.6561 74.3038 13.6593 74.5994L14.2493 79.5294C13.7545 79.7795 13.2738 80.0566 12.8093 80.3595L8.80934 77.5095C8.55648 77.3339 8.24917 77.2545 7.94291 77.2857C7.63665 77.3168 7.35163 77.4565 7.13934 77.6795L4.99934 79.9995C4.75731 80.2455 4.61789 80.5744 4.60934 80.9194C4.61352 81.1862 4.69327 81.4462 4.83934 81.6694L7.89934 85.6694C7.66934 86.0894 7.40934 86.5595 7.15934 87.0795L2.23934 86.5895C1.96003 86.5919 1.68805 86.6791 1.45934 86.8395C1.33871 86.9292 1.23815 87.0432 1.16411 87.1741C1.09006 87.3049 1.04416 87.4498 1.02934 87.5994H0.999341L0.249341 90.5095C0.234067 90.6457 0.234067 90.7832 0.249341 90.9194C0.243665 91.16 0.309815 91.3967 0.439341 91.5994C0.577184 91.8141 0.791822 91.9679 1.03934 92.0294H0.999341L5.25934 93.5795C5.25934 93.8494 5.19934 94.1195 5.19934 94.3895C5.19934 94.6594 5.19934 94.9594 5.25934 95.2394L0.739341 97.3094C0.514449 97.4099 0.324236 97.5745 0.192582 97.7827C0.0609278 97.9908 -0.00629895 98.2332 -0.00065856 98.4795C-0.0154055 98.5957 -0.0154055 98.7132 -0.00065856 98.8295L0.839341 101.779C0.904958 102.076 1.07541 102.339 1.31934 102.519C1.56259 102.688 1.85319 102.776 2.14934 102.769L7.15934 102.179C7.40275 102.68 7.68354 103.161 7.99934 103.619L5.14934 107.619C4.97566 107.874 4.89658 108.182 4.9258 108.488C4.95503 108.795 5.09071 109.082 5.30934 109.299L7.50934 111.399C7.75791 111.644 8.09082 111.783 8.43934 111.789C8.70318 111.787 8.96045 111.707 9.17934 111.559L13.1093 108.559C13.5793 108.859 14.0593 109.139 14.5293 109.379L14.0393 114.319C14.0314 114.616 14.119 114.907 14.2893 115.149C14.474 115.4 14.7445 115.575 15.0493 115.639L17.9793 116.379C18.0922 116.394 18.2065 116.394 18.3193 116.379C18.5681 116.385 18.8129 116.317 19.0229 116.183C19.2329 116.05 19.3987 115.857 19.4993 115.629L21.4993 111.019C21.7882 111.054 22.0785 111.074 22.3693 111.079C22.6369 111.074 22.904 111.054 23.1693 111.019L25.2293 115.539C25.493 116.021 25.9344 116.38 26.4593 116.539H26.6093L29.6893 115.649C29.9858 115.584 30.2486 115.413 30.4293 115.169C30.5998 114.923 30.6874 114.629 30.6793 114.329L30.0893 109.389C30.5493 109.139 30.9893 108.859 31.4293 108.569L35.4293 111.419C35.6818 111.594 35.9879 111.674 36.2936 111.645C36.5993 111.616 36.8847 111.479 37.0993 111.259L37.1093 111.339ZM30.4993 105.749C29.7259 106.349 28.8872 106.858 27.9993 107.269C27.8671 107.325 27.7475 107.407 27.6478 107.51C27.5481 107.613 27.4704 107.735 27.4193 107.869C27.3322 108.089 27.2848 108.323 27.2793 108.559V108.629L27.9493 113.229L27.2193 113.419L25.2993 109.089C25.1845 108.822 24.969 108.61 24.6993 108.499C24.4768 108.411 24.2389 108.367 23.9993 108.369C23.4893 108.419 22.9993 108.439 22.4693 108.439C21.9393 108.439 21.4693 108.439 20.9493 108.369H20.8993C20.6238 108.358 20.3516 108.433 20.1205 108.584C19.8893 108.734 19.7107 108.953 19.6093 109.209L17.7893 113.629L17.0593 113.429L17.5393 108.689C17.5524 108.407 17.4751 108.128 17.3187 107.892C17.1622 107.657 16.9348 107.477 16.6693 107.379C15.7082 107.059 14.8062 106.582 13.9993 105.969C13.7805 105.813 13.5183 105.729 13.2493 105.729C12.9804 105.729 12.7182 105.813 12.4993 105.969L8.74934 108.859L8.20934 108.319L10.9993 104.449C11.1557 104.231 11.2398 103.968 11.2398 103.699C11.2398 103.43 11.1557 103.168 10.9993 102.949C10.3834 102.193 9.88144 101.351 9.50934 100.449C9.4539 100.316 9.37223 100.195 9.26917 100.094C9.1661 99.9923 9.04374 99.9126 8.90934 99.8595C8.68752 99.7804 8.45471 99.7366 8.21934 99.7295L3.48934 100.309L3.28934 99.5695L7.61934 97.6495C7.75352 97.5971 7.87482 97.5164 7.97492 97.4128C8.07502 97.3093 8.15158 97.1853 8.19934 97.0495C8.2878 96.8303 8.33198 96.5958 8.32934 96.3595C8.27934 95.7895 8.24934 95.2595 8.24934 94.7495C8.21771 94.2266 8.21771 93.7023 8.24934 93.1795C8.26261 92.9048 8.18976 92.6328 8.04095 92.4015C7.89215 92.1702 7.67483 91.9912 7.41934 91.8895L2.99934 90.0194L3.18934 89.2794L7.92934 89.7595H7.99934C8.2634 89.7562 8.52201 89.6838 8.74934 89.5495C8.99241 89.4121 9.18251 89.1974 9.28934 88.9395C9.6585 88.0123 10.1315 87.13 10.6993 86.3094C10.8557 86.0906 10.9398 85.8284 10.9398 85.5594C10.9398 85.2905 10.8557 85.0283 10.6993 84.8094L7.77934 80.9995L8.33934 80.3794L12.1793 83.1795C12.3982 83.3358 12.6604 83.4199 12.9293 83.4199C13.1983 83.4199 13.4605 83.3358 13.6793 83.1795C14.4383 82.5649 15.2799 82.0599 16.1793 81.6795C16.4478 81.5605 16.6594 81.3417 16.7693 81.0695C16.8511 80.8487 16.8918 80.6148 16.8893 80.3794L16.3193 75.6395L17.0493 75.4494L18.9993 79.7094C19.0549 79.8417 19.1367 79.9613 19.2399 80.061C19.343 80.1607 19.4653 80.2384 19.5993 80.2895C19.8185 80.3779 20.053 80.4221 20.2893 80.4194H20.3393C20.8493 80.4194 21.3393 80.3395 21.8593 80.3395C22.3793 80.3395 22.8593 80.3394 23.3793 80.4194H23.4293C23.7011 80.4217 23.9691 80.3564 24.2093 80.2295C24.4251 80.1169 24.6025 79.9429 24.7193 79.7295L26.5393 75.3295L27.1893 75.5594L26.6993 80.3395C26.6857 80.6233 26.7626 80.9041 26.9189 81.1414C27.0753 81.3787 27.3031 81.5601 27.5693 81.6595C28.4977 81.9829 29.3686 82.4521 30.1493 83.0495C30.3682 83.2058 30.6304 83.2899 30.8993 83.2899C31.1683 83.2899 31.4305 83.2058 31.6493 83.0495L35.4593 80.1795L35.9993 80.7195L33.2093 84.5795C33.053 84.7983 32.9689 85.0605 32.9689 85.3295C32.9689 85.5984 33.053 85.8606 33.2093 86.0795C33.8228 86.8411 34.3245 87.6862 34.6993 88.5895C34.7505 88.7255 34.8306 88.8487 34.9343 88.9506C35.0379 89.0525 35.1625 89.1306 35.2993 89.1795C35.5185 89.2679 35.753 89.3121 35.9893 89.3094L40.7193 88.7295L40.9193 89.4695L36.5893 91.3995C36.458 91.4565 36.3392 91.5388 36.2396 91.6417C36.1401 91.7447 36.0619 91.8662 36.0093 91.9995C35.9216 92.2188 35.8775 92.4532 35.8793 92.6895C35.8793 93.1995 35.9593 93.6895 35.9593 94.2195C35.9593 94.7495 35.9593 95.2195 35.8793 95.7394C35.8654 96.0155 35.9379 96.2891 36.0867 96.522C36.2354 96.755 36.4531 96.9359 36.7093 97.0395L41.1193 98.8695L40.9293 99.6095L36.1893 99.1195C35.9168 99.139 35.6567 99.2415 35.444 99.4131C35.2313 99.5847 35.0761 99.8172 34.9993 100.079C34.6302 101.007 34.1572 101.889 33.5893 102.709C33.433 102.928 33.3489 103.19 33.3489 103.459C33.3489 103.728 33.433 103.991 33.5893 104.209L36.4693 107.969L35.9293 108.509L31.9993 105.739C31.7805 105.583 31.5183 105.499 31.2493 105.499C30.9804 105.499 30.7182 105.583 30.4993 105.739V105.749Z" fill="#0272B0"/>
<path d="M22.0893 85.5095C21.2683 85.511 20.4511 85.622 19.6593 85.8395C17.7721 86.3757 16.1119 87.5139 14.9313 89.0808C13.7506 90.6478 13.1144 92.5575 13.1193 94.5194C13.1159 95.3408 13.227 96.1587 13.4493 96.9494C13.9992 98.8277 15.1394 100.479 16.7009 101.659C18.2624 102.838 20.1623 103.484 22.1193 103.499C22.9379 103.499 23.7523 103.384 24.5393 103.159C26.4265 102.623 28.0868 101.485 29.2674 99.9181C30.448 98.3511 31.0843 96.4414 31.0793 94.4795C31.0828 93.6613 30.9717 92.8468 30.7493 92.0594C30.2158 90.1737 29.0814 88.5136 27.5184 87.3314C25.9553 86.1492 24.0491 85.5095 22.0893 85.5095ZM15.7393 94.5095C15.7326 93.1235 16.1781 91.7731 17.0083 90.6633C17.8384 89.5534 19.0079 88.7446 20.3393 88.3595C20.9247 88.2165 21.5272 88.1559 22.1293 88.1795C23.5102 88.1827 24.8521 88.6367 25.9514 89.4724C27.0506 90.3081 27.8469 91.4798 28.2193 92.8094C28.3849 93.3849 28.4691 93.9807 28.4693 94.5795C28.4694 95.962 28.0182 97.3068 27.1844 98.4095C26.3505 99.5123 25.1796 100.313 23.8493 100.689C23.2705 100.855 22.6714 100.939 22.0693 100.939C20.6854 100.929 19.3431 100.466 18.2471 99.6206C17.1511 98.7755 16.3617 97.5951 15.9993 96.2595C15.8351 95.6971 15.7477 95.1152 15.7393 94.5294V94.5095Z" fill="#0272B0"/>
<path d="M72.2893 74.6795H69.2893V87.5895H72.2893V74.6795Z" fill="#0272B0"/>
<path d="M116.559 132.349H106.819V135.349H116.559V132.349Z" fill="#0272B0"/>
<path d="M173.919 27.6595H102.709C102.404 27.6647 102.113 27.7889 101.898 28.0056C101.684 28.2223 101.562 28.5143 101.559 28.8195V76.6595C101.562 76.9646 101.684 77.2566 101.898 77.4734C102.113 77.6901 102.404 77.8142 102.709 77.8195H112.549V95.8195C112.554 96.0275 112.615 96.2305 112.726 96.4066C112.837 96.5827 112.994 96.7254 113.179 96.8195C113.334 96.9175 113.518 96.9566 113.699 96.9295C113.925 96.9229 114.145 96.8499 114.329 96.7195L141.669 77.7195H173.919C174.224 77.7142 174.515 77.59 174.73 77.3733C174.945 77.1566 175.067 76.8646 175.069 76.5594V28.8195C175.067 28.5143 174.945 28.2223 174.73 28.0056C174.515 27.7889 174.224 27.6647 173.919 27.6595ZM172.659 75.5095H141.249C141.026 75.529 140.81 75.601 140.619 75.7195L114.859 93.5495V76.6595C114.854 76.3544 114.73 76.0634 114.513 75.8485C114.297 75.6337 114.004 75.512 113.699 75.5095H103.859V29.9695H172.659V75.5095Z" fill="#0272B0"/>
<path d="M113.389 40.6695H152.389C152.677 40.6427 152.945 40.5094 153.139 40.2957C153.334 40.0821 153.442 39.8035 153.442 39.5145C153.442 39.2254 153.334 38.9468 153.139 38.7332C152.945 38.5195 152.677 38.3863 152.389 38.3595H113.389C113.102 38.3863 112.834 38.5195 112.639 38.7332C112.445 38.9468 112.337 39.2254 112.337 39.5145C112.337 39.8035 112.445 40.0821 112.639 40.2957C112.834 40.5094 113.102 40.6427 113.389 40.6695Z" fill="#0272B0"/>
<path d="M157.369 40.6695H163.369C163.53 40.6844 163.692 40.6657 163.845 40.6145C163.998 40.5632 164.139 40.4806 164.258 40.3719C164.378 40.2632 164.473 40.1308 164.538 39.9831C164.603 39.8355 164.637 39.6759 164.637 39.5145C164.637 39.3531 164.603 39.1934 164.538 39.0458C164.473 38.8981 164.378 38.7657 164.258 38.657C164.139 38.5483 163.998 38.4657 163.845 38.4145C163.692 38.3632 163.53 38.3445 163.369 38.3595H157.369C157.082 38.3863 156.814 38.5195 156.619 38.7332C156.425 38.9468 156.317 39.2254 156.317 39.5145C156.317 39.8035 156.425 40.0821 156.619 40.2957C156.814 40.5094 157.082 40.6427 157.369 40.6695Z" fill="#0272B0"/>
<path d="M163.349 44.9695H123.349C123.062 44.9963 122.794 45.1295 122.599 45.3432C122.405 45.5568 122.297 45.8354 122.297 46.1245C122.297 46.4135 122.405 46.6921 122.599 46.9057C122.794 47.1194 123.062 47.2526 123.349 47.2795H163.349C163.637 47.2526 163.905 47.1194 164.099 46.9057C164.294 46.6921 164.402 46.4135 164.402 46.1245C164.402 45.8354 164.294 45.5568 164.099 45.3432C163.905 45.1295 163.637 44.9963 163.349 44.9695Z" fill="#0272B0"/>
<path d="M113.289 47.2795H119.289C119.45 47.2944 119.612 47.2757 119.765 47.2245C119.918 47.1732 120.059 47.0906 120.178 46.9819C120.298 46.8732 120.393 46.7408 120.458 46.5931C120.523 46.4455 120.557 46.2859 120.557 46.1245C120.557 45.9631 120.523 45.8034 120.458 45.6558C120.393 45.5081 120.298 45.3757 120.178 45.267C120.059 45.1583 119.918 45.0757 119.765 45.0245C119.612 44.9732 119.45 44.9545 119.289 44.9695H113.289C113.129 44.9545 112.967 44.9732 112.814 45.0245C112.66 45.0757 112.52 45.1583 112.4 45.267C112.281 45.3757 112.186 45.5081 112.121 45.6558C112.055 45.8034 112.022 45.9631 112.022 46.1245C112.022 46.2859 112.055 46.4455 112.121 46.5931C112.186 46.7408 112.281 46.8732 112.4 46.9819C112.52 47.0906 112.66 47.1732 112.814 47.2245C112.967 47.2757 113.129 47.2944 113.289 47.2795Z" fill="#0272B0"/>
<path d="M113.289 53.7895H148.889C149.177 53.7626 149.445 53.6294 149.639 53.4157C149.834 53.2021 149.942 52.9235 149.942 52.6345C149.942 52.3454 149.834 52.0668 149.639 51.8532C149.445 51.6395 149.177 51.5063 148.889 51.4795H113.289C113.129 51.4645 112.967 51.4832 112.814 51.5345C112.66 51.5857 112.52 51.6683 112.4 51.777C112.281 51.8857 112.186 52.0181 112.121 52.1658C112.055 52.3134 112.022 52.4731 112.022 52.6345C112.022 52.7959 112.055 52.9555 112.121 53.1031C112.186 53.2508 112.281 53.3832 112.4 53.4919C112.52 53.6006 112.66 53.6832 112.814 53.7345C112.967 53.7857 113.129 53.8044 113.289 53.7895Z" fill="#0272B0"/>
<path d="M163.339 51.4795H157.339C157.052 51.5063 156.784 51.6395 156.589 51.8532C156.395 52.0668 156.287 52.3454 156.287 52.6345C156.287 52.9235 156.395 53.2021 156.589 53.4157C156.784 53.6294 157.052 53.7626 157.339 53.7895H163.339C163.5 53.8044 163.662 53.7857 163.815 53.7345C163.968 53.6832 164.109 53.6006 164.228 53.4919C164.348 53.3832 164.443 53.2508 164.508 53.1031C164.573 52.9555 164.607 52.7959 164.607 52.6345C164.607 52.4731 164.573 52.3134 164.508 52.1658C164.443 52.0181 164.348 51.8857 164.228 51.777C164.109 51.6683 163.968 51.5857 163.815 51.5345C163.662 51.4832 163.5 51.4645 163.339 51.4795Z" fill="#0272B0"/>
<path d="M163.339 60.3995C163.627 60.3727 163.895 60.2394 164.089 60.0257C164.284 59.8121 164.392 59.5335 164.392 59.2445C164.392 58.9554 164.284 58.6768 164.089 58.4632C163.895 58.2495 163.627 58.1163 163.339 58.0895H122.709C122.422 58.1163 122.154 58.2495 121.959 58.4632C121.765 58.6768 121.657 58.9554 121.657 59.2445C121.657 59.5335 121.765 59.8121 121.959 60.0257C122.154 60.2394 122.422 60.3727 122.709 60.3995H163.339Z" fill="#0272B0"/>
<path d="M113.289 60.3995H119.289C119.45 60.4144 119.612 60.3957 119.765 60.3445C119.918 60.2932 120.059 60.2106 120.178 60.1019C120.298 59.9932 120.393 59.8608 120.458 59.7131C120.523 59.5655 120.557 59.4059 120.557 59.2445C120.557 59.083 120.523 58.9234 120.458 58.7758C120.393 58.6281 120.298 58.4957 120.178 58.387C120.059 58.2783 119.918 58.1957 119.765 58.1445C119.612 58.0932 119.45 58.0745 119.289 58.0895H113.289C113.129 58.0745 112.967 58.0932 112.814 58.1445C112.66 58.1957 112.52 58.2783 112.4 58.387C112.281 58.4957 112.186 58.6281 112.121 58.7758C112.055 58.9234 112.022 59.083 112.022 59.2445C112.022 59.4059 112.055 59.5655 112.121 59.7131C112.186 59.8608 112.281 59.9932 112.4 60.1019C112.52 60.2106 112.66 60.2932 112.814 60.3445C112.967 60.3957 113.129 60.4144 113.289 60.3995Z" fill="#0272B0"/>
<path d="M151.829 64.5994H113.389C113.084 64.5994 112.792 64.7206 112.576 64.9363C112.361 65.1519 112.239 65.4445 112.239 65.7495C112.239 66.0545 112.361 66.347 112.576 66.5626C112.792 66.7783 113.084 66.8995 113.389 66.8995H151.829C152.134 66.8995 152.427 66.7783 152.643 66.5626C152.858 66.347 152.979 66.0545 152.979 65.7495C152.979 65.4445 152.858 65.1519 152.643 64.9363C152.427 64.7206 152.134 64.5994 151.829 64.5994Z" fill="#0272B0"/>
<path d="M163.339 64.5994H157.339C157.034 64.5994 156.742 64.7206 156.526 64.9363C156.311 65.1519 156.189 65.4445 156.189 65.7495C156.189 66.0545 156.311 66.347 156.526 66.5626C156.742 66.7783 157.034 66.8995 157.339 66.8995H163.339C163.644 66.8995 163.937 66.7783 164.153 66.5626C164.368 66.347 164.489 66.0545 164.489 65.7495C164.489 65.4445 164.368 65.1519 164.153 64.9363C163.937 64.7206 163.644 64.5994 163.339 64.5994Z" fill="#0272B0"/>
</svg>
