<svg width="176" height="126" viewBox="0 0 176 126" fill="none" xmlns="http://www.w3.org/2000/svg">
<path d="M136.8 5.2266e-06H1.62C1.19264 0.0126877 0.78643 0.188793 0.485042 0.492041C0.183655 0.795289 0.0100524 1.20258 0 1.63001V101.63C0.0100524 102.057 0.183655 102.465 0.485042 102.768C0.78643 103.071 1.19264 103.247 1.62 103.26H57.47L47.73 113.7H41.45C41.0226 113.713 40.6164 113.889 40.315 114.192C40.0137 114.495 39.8401 114.903 39.83 115.33V123.48C39.8401 123.907 40.0137 124.315 40.315 124.618C40.6164 124.921 41.0226 125.097 41.45 125.11H96.86C97.2891 125.1 97.6978 124.925 98.0013 124.621C98.3048 124.318 98.4798 123.909 98.49 123.48V115.33C98.4798 114.901 98.3048 114.492 98.0013 114.189C97.6978 113.885 97.2891 113.71 96.86 113.7H90.59L80.85 103.26H136.69C137.119 103.25 137.528 103.075 137.831 102.771C138.135 102.468 138.31 102.059 138.32 101.63V1.63001C138.335 1.42134 138.307 1.2118 138.237 1.01449C138.168 0.817188 138.058 0.636371 137.916 0.483362C137.773 0.330353 137.6 0.208447 137.408 0.125275C137.216 0.0421032 137.009 -0.000543389 136.8 5.2266e-06ZM95.35 116.85V121.74H43.08V116.85H95.35ZM86.35 113.7H52.06L61.8 103.26H76.73L86.35 113.7ZM135.29 100H3.25V3.15001H135.25L135.29 100Z" fill="#014BE4"/>
<path d="M10.07 85.87H128.36C128.791 85.8624 129.202 85.6885 129.508 85.3847C129.813 85.081 129.99 84.6708 130 84.24V10.11C129.99 9.68257 129.816 9.27528 129.515 8.97204C129.214 8.66879 128.807 8.49268 128.38 8.48H10.07C9.64089 8.49016 9.23217 8.66515 8.92866 8.96866C8.62515 9.27217 8.45016 9.68089 8.44 10.11V84.35C8.45564 84.7673 8.63589 85.1615 8.94133 85.4464C9.24678 85.7312 9.65257 85.8835 10.07 85.87ZM11.58 11.63H126.73V82.72H11.58V11.63Z" fill="#014BE4"/>
<path d="M69.16 87.5C68.0417 87.496 66.9474 87.824 66.0156 88.4425C65.0838 89.0609 64.3565 89.9419 63.9258 90.9739C63.4951 92.006 63.3804 93.1426 63.5961 94.24C63.8119 95.3373 64.3484 96.3459 65.1378 97.138C65.9271 97.9302 66.9338 98.4703 68.0304 98.6899C69.1269 98.9096 70.2639 98.7988 71.2975 98.3718C72.3311 97.9448 73.2147 97.2206 73.8364 96.291C74.4581 95.3615 74.79 94.2683 74.79 93.15C74.7966 92.4079 74.6557 91.6718 74.3754 90.9846C74.095 90.2975 73.6809 89.6729 73.157 89.1471C72.6332 88.6214 72.0101 88.2051 71.3239 87.9223C70.6377 87.6395 69.9022 87.496 69.16 87.5ZM69.16 95.5C68.5173 95.4981 67.9001 95.2487 67.4364 94.8036C66.9727 94.3586 66.6983 93.7521 66.67 93.11C66.6501 92.6138 66.779 92.1229 67.0402 91.7005C67.3014 91.278 67.6829 90.9434 68.1358 90.7395C68.5887 90.5356 69.0922 90.4718 69.5816 90.5563C70.071 90.6408 70.5239 90.8697 70.8822 91.2136C71.2406 91.5575 71.4878 92.0007 71.5923 92.4863C71.6967 92.9718 71.6536 93.4775 71.4685 93.9383C71.2833 94.3992 70.9646 94.7941 70.5532 95.0724C70.1418 95.3507 69.6567 95.4996 69.16 95.5Z" fill="#014BE4"/>
<path d="M157.8 14.57L156.71 20.76C156.678 20.9663 156.702 21.1776 156.782 21.3708C156.861 21.564 156.992 21.7316 157.16 21.8555C157.328 21.9793 157.527 22.0545 157.735 22.073C157.944 22.0914 158.153 22.0523 158.34 21.96L163.86 19L169.38 22C169.566 22.1066 169.778 22.1567 169.992 22.1443C170.205 22.1319 170.411 22.0574 170.583 21.9301C170.755 21.8027 170.886 21.628 170.96 21.4272C171.034 21.2265 171.048 21.0085 171 20.8L169.92 14.61L174.35 10.26C174.516 10.1113 174.635 9.91765 174.693 9.70258C174.75 9.48752 174.745 9.26029 174.676 9.04849C174.607 8.83669 174.478 8.64944 174.305 8.50947C174.132 8.36949 173.922 8.28283 173.7 8.26L167.75 7.39L164.94 1.74C164.83 1.56653 164.678 1.42368 164.498 1.3247C164.318 1.22573 164.115 1.17383 163.91 1.17383C163.705 1.17383 163.502 1.22573 163.322 1.3247C163.142 1.42368 162.99 1.56653 162.88 1.74L160.18 7.39L154 8.26C153.778 8.28283 153.568 8.36949 153.395 8.50947C153.222 8.64944 153.093 8.83669 153.024 9.04849C152.955 9.26029 152.95 9.48752 153.007 9.70258C153.065 9.91765 153.184 10.1113 153.35 10.26L157.8 14.57ZM161.04 9.57C161.37 9.57 161.69 9.24 161.91 8.91L164 4.78L166 8.91C166.091 9.07454 166.215 9.21824 166.365 9.33189C166.515 9.44555 166.687 9.52665 166.87 9.57L171.41 10.22L168.17 13.37C168.035 13.4952 167.934 13.6526 167.876 13.8275C167.819 14.0024 167.806 14.189 167.84 14.37L168.6 18.82L164.6 16.65C164.439 16.5466 164.251 16.4917 164.06 16.4917C163.869 16.4917 163.681 16.5466 163.52 16.65L159.52 18.82L160.27 14.37C160.306 14.1899 160.296 14.0035 160.24 13.8285C160.184 13.6535 160.084 13.4957 159.95 13.37L156.7 10.22L161.04 9.57Z" fill="#014BE4"/>
<path d="M157.8 43.91L156.71 50.11C156.676 50.3164 156.7 50.5283 156.779 50.722C156.858 50.9156 156.99 51.0835 157.159 51.2069C157.328 51.3303 157.528 51.4043 157.736 51.4207C157.945 51.4372 158.154 51.3954 158.34 51.3L163.86 48.37L169.38 51.3C169.564 51.4104 169.777 51.4639 169.991 51.4538C170.206 51.4437 170.413 51.3706 170.586 51.2435C170.759 51.1164 170.89 50.941 170.964 50.7393C171.038 50.5377 171.05 50.3187 171 50.11L169.92 43.91L174.35 39.57C174.515 39.4219 174.635 39.2291 174.693 39.0148C174.751 38.8006 174.746 38.574 174.678 38.3625C174.611 38.151 174.483 37.9636 174.311 37.823C174.14 37.6824 173.931 37.5945 173.71 37.57L167.54 36.7L164.72 31.05C164.611 30.8764 164.46 30.7334 164.281 30.6342C164.101 30.535 163.9 30.483 163.695 30.483C163.49 30.483 163.289 30.535 163.109 30.6342C162.93 30.7334 162.779 30.8764 162.67 31.05L159.85 36.7L153.68 37.57C153.458 37.5928 153.248 37.6795 153.075 37.8195C152.902 37.9594 152.773 38.1467 152.704 38.3585C152.635 38.5703 152.63 38.7975 152.687 39.0126C152.745 39.2276 152.864 39.4213 153.03 39.57L157.8 43.91ZM161 38.8C161.33 38.8 161.65 38.48 161.87 38.15L164 34L166 38.15C166.09 38.3147 166.214 38.458 166.364 38.5702C166.514 38.6824 166.687 38.7608 166.87 38.8L171.41 39.46L168.17 42.61C168.035 42.7352 167.934 42.8926 167.876 43.0675C167.819 43.2424 167.806 43.429 167.84 43.61L168.6 48.06L164.6 45.89C164.439 45.7866 164.251 45.7317 164.06 45.7317C163.869 45.7317 163.681 45.7866 163.52 45.89L159.52 48.06L160.27 43.61C160.306 43.4299 160.296 43.2435 160.24 43.0685C160.184 42.8935 160.084 42.7357 159.95 42.61L156.7 39.46L161 38.8Z" fill="#014BE4"/>
<path d="M173.92 66.85L167.75 66L164.94 60.35C164.83 60.1765 164.678 60.0337 164.498 59.9347C164.318 59.8357 164.115 59.7838 163.91 59.7838C163.705 59.7838 163.502 59.8357 163.322 59.9347C163.142 60.0337 162.99 60.1765 162.88 60.35L160.07 66L153.9 66.87C153.676 66.8885 153.463 66.9728 153.286 67.1122C153.11 67.2517 152.979 67.4401 152.91 67.6538C152.84 67.8675 152.835 68.0969 152.896 68.3133C152.957 68.5297 153.08 68.7234 153.25 68.87L157.69 73.22L156.61 79.42C156.573 79.626 156.595 79.8382 156.673 80.0325C156.75 80.2268 156.881 80.3954 157.05 80.5193C157.218 80.6432 157.418 80.7174 157.627 80.7334C157.835 80.7494 158.044 80.7067 158.23 80.61L163.75 77.68L169.27 80.61C169.454 80.7204 169.667 80.7739 169.881 80.7638C170.096 80.7537 170.303 80.6806 170.476 80.5535C170.649 80.4264 170.78 80.251 170.854 80.0493C170.928 79.8477 170.94 79.6287 170.89 79.42L169.81 73.22L174.25 68.87C174.518 68.8262 174.757 68.6779 174.916 68.4575C175.074 68.2372 175.139 67.9629 175.095 67.695C175.051 67.4271 174.903 67.1876 174.683 67.0292C174.462 66.8707 174.188 66.8062 173.92 66.85ZM168.08 72C167.947 72.1263 167.846 72.2838 167.789 72.4584C167.731 72.6329 167.718 72.819 167.75 73L168.51 77.45L164.51 75.28C164.349 75.1766 164.161 75.1217 163.97 75.1217C163.779 75.1217 163.591 75.1766 163.43 75.28L159.43 77.45L160.19 73C160.225 72.819 160.213 72.6321 160.155 72.4571C160.097 72.282 159.996 72.1247 159.86 72L156.62 68.84L161.16 68.19C161.49 68.19 161.81 67.87 162.03 67.54L164.09 63.41L166.09 67.54C166.181 67.7035 166.306 67.8458 166.456 67.9578C166.606 68.0699 166.777 68.149 166.96 68.19L171.5 68.84L168.08 72Z" fill="#014BE4"/>
<path d="M62.57 39.16C62.4692 39.003 62.3226 38.8809 62.15 38.81L58.57 36.74C58.3943 36.6255 58.1897 36.5631 57.98 36.56C57.7305 36.5605 57.488 36.6429 57.2898 36.7945C57.0916 36.9461 56.9487 37.1585 56.8828 37.3992C56.817 37.6398 56.8319 37.8955 56.9253 38.1268C57.0187 38.3582 57.1855 38.5525 57.4 38.68L61 40.76C61.1757 40.8745 61.3803 40.9369 61.59 40.94C61.8943 40.9175 62.1791 40.7818 62.3883 40.5597C62.5975 40.3376 62.7158 40.0451 62.72 39.74C62.7246 39.5365 62.6727 39.3357 62.57 39.16Z" fill="#014BE4"/>
<path d="M96.23 28.36L82.81 21.36C82.6454 21.2772 82.4642 21.2328 82.28 21.23C82.1169 21.2346 81.958 21.2829 81.82 21.37L68.94 28L56.07 21.4C55.9019 21.317 55.7174 21.2726 55.53 21.27C55.3703 21.2763 55.2151 21.3246 55.08 21.41L41.66 28.41C41.4766 28.5032 41.3237 28.6468 41.2192 28.824C41.1147 29.0011 41.0629 29.2044 41.07 29.41V43.91C41.0626 44.1169 41.1153 44.3214 41.2218 44.4989C41.3283 44.6764 41.484 44.8192 41.67 44.91L54.5 51.51V65.33C54.4941 65.5353 54.5464 65.7382 54.6508 65.9151C54.7552 66.092 54.9074 66.2359 55.09 66.33L68.41 73.33C68.5756 73.4207 68.7612 73.4688 68.95 73.47C69.1114 73.4648 69.2678 73.4127 69.4 73.32L82.82 66.32C83.0042 66.2278 83.1578 66.0844 83.2624 65.907C83.3671 65.7296 83.4183 65.5258 83.41 65.32V51.5L96.24 44.9C96.426 44.8092 96.5817 44.6664 96.6882 44.4889C96.7947 44.3114 96.8474 44.1069 96.84 43.9V29.35C96.8433 29.144 96.7877 28.9413 96.6796 28.7659C96.5715 28.5905 96.4155 28.4496 96.23 28.36ZM79.23 62.28C79.061 62.1671 78.8632 62.1046 78.66 62.1C78.4096 62.0983 78.1657 62.1791 77.9658 62.3299C77.7659 62.4807 77.6212 62.6931 77.5541 62.9343C77.487 63.1755 77.5011 63.4321 77.5944 63.6645C77.6876 63.8969 77.8548 64.0921 78.07 64.22L79.9 65.29L70 70.48V58.35L81.1 52.56V63.29L79.23 62.28ZM56.21 30C56.108 29.8897 55.9842 29.8017 55.8465 29.7416C55.7089 29.6814 55.5602 29.6503 55.41 29.6503C55.2598 29.6503 55.1111 29.6814 54.9735 29.7416C54.8358 29.8017 54.712 29.8897 54.61 30C54.3936 30.2109 54.268 30.4979 54.26 30.8V34.48L44.49 29.39L54.37 24.34V26.67C54.3661 26.8146 54.3935 26.9583 54.4505 27.0912C54.5075 27.2242 54.5926 27.3432 54.7 27.44C54.9308 27.6278 55.2228 27.7239 55.52 27.71C55.8211 27.6977 56.1065 27.5726 56.3195 27.3595C56.5326 27.1465 56.6577 26.8611 56.67 26.56V24.2L66.45 29.34L56.56 34.45V30.76C56.5459 30.471 56.4205 30.1986 56.21 30ZM52.94 36.49C52.7257 36.493 52.517 36.559 52.34 36.68L48.87 38.75C48.7045 38.8478 48.567 38.9866 48.4706 39.153C48.3743 39.3194 48.3224 39.5078 48.32 39.7C48.3183 39.9212 48.3847 40.1377 48.51 40.32C48.5909 40.4853 48.7159 40.625 48.8712 40.7238C49.0265 40.8226 49.206 40.8767 49.39 40.88C49.5824 40.875 49.7682 40.8084 49.92 40.69L53.5 38.62C53.6694 38.5141 53.8089 38.3667 53.9052 38.1916C54.0015 38.0166 54.0513 37.8198 54.05 37.62C54.0449 37.4014 53.9753 37.1892 53.85 37.01L54.1 36.89L54.26 36.97V49L44.34 43.83L46.24 42.76C46.4263 42.6993 46.5923 42.5886 46.72 42.44C46.8557 42.2579 46.9293 42.0371 46.93 41.81C46.9286 41.5892 46.8625 41.3737 46.74 41.19C46.6429 41.0253 46.5058 40.8877 46.3416 40.7899C46.1773 40.692 45.9911 40.637 45.8 40.63C45.5933 40.6327 45.3919 40.6952 45.22 40.81L43.14 41.93V31.15L53.85 36.72L53.74 36.83C53.6415 36.7132 53.5191 36.6189 53.3812 36.5533C53.2432 36.4878 53.0927 36.4526 52.94 36.45V36.49ZM83.05 30C82.9472 29.8906 82.8234 29.8032 82.6859 29.743C82.5484 29.6829 82.4001 29.6512 82.25 29.65C82.1 29.6518 81.9519 29.6837 81.8145 29.7438C81.6771 29.8039 81.5531 29.8911 81.45 30C81.2378 30.2138 81.113 30.4991 81.1 30.8V34.48L71.33 29.39L81.21 24.33V26.67C81.2082 26.9496 81.3158 27.2188 81.51 27.42C81.607 27.5164 81.7227 27.5918 81.85 27.6417C81.9772 27.6916 82.1134 27.7148 82.25 27.71C82.4001 27.7088 82.5484 27.6771 82.6859 27.617C82.8234 27.5568 82.9472 27.4694 83.05 27.36C83.1589 27.2569 83.2461 27.1329 83.3062 26.9955C83.3663 26.8581 83.3982 26.71 83.4 26.56V24.19L93.29 29.35L83.4 34.45V30.76C83.3859 30.471 83.2605 30.1986 83.05 30ZM65.82 40.86C65.651 40.7471 65.4532 40.6846 65.25 40.68C64.9474 40.6951 64.6616 40.8241 64.4502 41.0411C64.2387 41.2581 64.1172 41.5471 64.11 41.85C64.1087 42.0498 64.1585 42.2466 64.2548 42.4216C64.3511 42.5967 64.4906 42.7441 64.66 42.85L66.49 43.93L56.55 49.11V36.93L67.67 31.15V41.88L65.82 40.86ZM66.36 58C66.1488 58.0031 65.9433 58.0693 65.77 58.19L62.18 60.27C62.0494 60.3446 61.9357 60.4454 61.846 60.5661C61.7563 60.6868 61.6926 60.8247 61.6588 60.9713C61.625 61.1178 61.6218 61.2697 61.6496 61.4175C61.6773 61.5653 61.7353 61.7057 61.82 61.83C61.9487 61.9645 62.1042 62.0705 62.2765 62.1412C62.4487 62.2118 62.6339 62.2455 62.82 62.24C62.9597 62.2411 63.0986 62.2174 63.23 62.17H63.28L66.86 60.1C67.0308 59.9956 67.1713 59.8484 67.2678 59.673C67.3643 59.4977 67.4133 59.3001 67.41 59.1C67.4049 58.8814 67.3353 58.6692 67.21 58.49L67.15 58.42L67.37 58.3L67.59 58.41V70.41L57.67 65.24L59.57 64.17C59.7636 64.0798 59.9296 63.9396 60.0509 63.7638C60.1722 63.588 60.2444 63.383 60.26 63.17C60.2557 62.9696 60.1854 62.7763 60.06 62.62C59.9615 62.4565 59.8241 62.3199 59.6602 62.2222C59.4962 62.1245 59.3107 62.0688 59.12 62.06C58.9133 62.0627 58.7119 62.1252 58.54 62.24L56.56 63.4V52.67L67.28 58.24L67.16 58.36C67.0597 58.2469 66.9365 58.1563 66.7986 58.0942C66.6607 58.0322 66.5112 58.0001 66.36 58ZM80.64 36.78C80.4431 36.5758 80.1736 36.4572 79.89 36.45C79.6804 36.4541 79.4762 36.5164 79.3 36.63L75.6 38.7C75.4691 38.7756 75.3553 38.8774 75.2655 38.9989C75.1757 39.1205 75.1119 39.2593 75.0781 39.4066C75.0443 39.5539 75.0413 39.7066 75.0691 39.8552C75.097 40.0037 75.1552 40.1449 75.24 40.27C75.3444 40.4408 75.4916 40.5813 75.667 40.6778C75.8423 40.7743 76.0399 40.8233 76.24 40.82C76.4467 40.8173 76.6481 40.7548 76.82 40.64L80.39 38.57C80.5878 38.4843 80.7527 38.337 80.86 38.15C80.9623 37.9596 81.014 37.7461 81.01 37.53C81.0105 37.3911 80.9902 37.2529 80.95 37.12V37L80.89 36.92L81.06 36.84L81.22 36.92V49L71.41 43.84L73.33 42.76C73.5008 42.6556 73.6413 42.5084 73.7378 42.333C73.8343 42.1577 73.8833 41.9601 73.88 41.76C73.8784 41.5423 73.8123 41.3301 73.69 41.15C73.5928 40.9853 73.4558 40.8477 73.2916 40.7499C73.1273 40.652 72.9411 40.597 72.75 40.59C72.5433 40.5927 72.3419 40.6552 72.17 40.77L70 41.88V31.15L80.71 36.72L80.64 36.78ZM70.06 52C69.9862 51.774 69.8709 51.5637 69.72 51.38C69.6259 51.264 69.507 51.1705 69.372 51.1065C69.237 51.0425 69.0894 51.0095 68.94 51.01C68.6389 51.0223 68.3535 51.1474 68.1405 51.3605C67.9274 51.5735 67.8023 51.8589 67.79 52.16V55.85L57.91 50.75L67.79 45.75V48C67.79 48.305 67.9112 48.5975 68.1268 48.8132C68.3425 49.0288 68.635 49.15 68.94 49.15C69.245 49.15 69.5375 49.0288 69.7532 48.8132C69.9688 48.5975 70.09 48.305 70.09 48V45.71L79.97 50.71L70.09 55.81V52.09L70.06 52ZM92.66 40.85C92.491 40.7371 92.2932 40.6746 92.09 40.67C91.7929 40.6973 91.5166 40.8344 91.3151 41.0544C91.1136 41.2744 91.0012 41.5616 91 41.86C90.9987 42.0598 91.0485 42.2566 91.1448 42.4316C91.2411 42.6067 91.3806 42.7541 91.55 42.86L93.38 43.94L83.4 49.07V36.93L94.52 31.15V41.88L92.66 40.85Z" fill="#014BE4"/>
<path d="M89.41 39.16C89.3092 39.003 89.1626 38.8809 88.99 38.81L85.42 36.74C85.2481 36.6252 85.0467 36.5627 84.84 36.56C84.5374 36.5751 84.2516 36.7041 84.0402 36.9211C83.8287 37.1381 83.7072 37.4271 83.7 37.73C83.6987 37.9298 83.7485 38.1266 83.8448 38.3016C83.9411 38.4767 84.0806 38.6241 84.25 38.73L87.84 40.81C87.9631 40.8933 88.1024 40.9498 88.2488 40.9758C88.3952 41.0018 88.5454 40.9968 88.6897 40.9609C88.834 40.9251 88.9691 40.8593 89.0863 40.7678C89.2035 40.6764 89.3002 40.5613 89.37 40.43C89.4988 40.2413 89.5684 40.0185 89.57 39.79C89.5801 39.5688 89.5244 39.3496 89.41 39.16Z" fill="#014BE4"/>
<path d="M75.6 60.24L72 58.15C71.8284 58.0258 71.6218 57.9592 71.41 57.96C71.2189 57.967 71.0327 58.022 70.8684 58.1199C70.7042 58.2177 70.5672 58.3553 70.47 58.52C70.3477 58.7001 70.2816 58.9123 70.28 59.13C70.2747 59.3305 70.3228 59.5288 70.4195 59.7045C70.5161 59.8803 70.6578 60.0271 70.83 60.13L74.42 62.2C74.5957 62.3145 74.8003 62.3769 75.01 62.38C75.2113 62.3785 75.4088 62.3241 75.5825 62.2223C75.7562 62.1205 75.9002 61.9749 76 61.8C76.1253 61.6177 76.1917 61.4012 76.19 61.18C76.1828 60.9853 76.1245 60.796 76.0209 60.631C75.9174 60.466 75.7722 60.3311 75.6 60.24Z" fill="#014BE4"/>
</svg>
