<svg width="200" height="165" viewBox="0 0 200 165" fill="none" xmlns="http://www.w3.org/2000/svg">
<path d="M78 98.4L72 97.6L69.3 92.2C68.9 91.5 67.7 91.5 67.3 92.2L64.6 97.6L58.7 98.4C57.8 98.5 57.5 99.6 58.1 100.3L62.4 104.5L61.4 110.4C61.3 111.3 62.2 112 63 111.5L68.3 108.7L73.6 111.5C74.4 111.9 75.4 111.3 75.2 110.4L74.2 104.5L78.5 100.3C79.2 99.7 78.8 98.6 78 98.4ZM72.2 103.3C72 103.5 71.8 103.9 71.9 104.2L72.6 108.5L68.8 106.4C68.5 106.2 68.1 106.2 67.8 106.4L64 108.5L64.7 104.2C64.8 103.9 64.6 103.5 64.4 103.3L61.3 100.3L65.7 99.7C66 99.7 66.3 99.4 66.5 99.1L68.5 95.1L70.5 99.1C70.7 99.4 70.9 99.6 71.3 99.7L75.7 100.3L72.2 103.3Z" fill="#014BE4"/>
<path d="M78 123.4L72.1 122.6L69.4 117.2C69 116.5 67.8 116.5 67.4 117.2L64.7 122.6L58.8 123.4C57.9 123.5 57.6 124.6 58.2 125.3L62.5 129.5L61.5 135.4C61.4 136.3 62.3 137 63.1 136.5L68.4 133.7L73.7 136.5C74.5 136.9 75.5 136.3 75.3 135.4L74.3 129.5L78.6 125.3C79.2 124.6 78.8 123.6 78 123.4ZM72.2 128.3C72 128.5 71.8 128.9 71.9 129.2L72.6 133.5L68.8 131.4C68.5 131.2 68.1 131.2 67.8 131.4L64 133.5L64.7 129.2C64.8 128.9 64.6 128.5 64.4 128.3L61.3 125.3L65.7 124.7C66 124.7 66.3 124.4 66.5 124.1L68.5 120.1L70.5 124.1C70.7 124.4 70.9 124.6 71.3 124.7L75.7 125.3L72.2 128.3Z" fill="#014BE4"/>
<path d="M121.3 92.2H167.5C167.9 92.2 168.3 92 168.5 91.7C168.7 91.4 168.9 91 168.9 90.6C168.9 90.2 168.8 89.8 168.5 89.5C168.3 89.2 167.9 89 167.5 89H121.3C120.9 89 120.5 89.2 120.3 89.5C120.1 89.8 119.9 90.2 119.9 90.6C119.9 91 120 91.4 120.3 91.7C120.4 92 120.9 92.2 121.3 92.2Z" fill="#014BE4"/>
<path d="M121.3 100.7H167.5C167.9 100.7 168.3 100.5 168.5 100.2C168.7 99.9 168.9 99.5 168.9 99.1C168.9 98.7 168.8 98.3 168.5 98C168.3 97.7 167.9 97.5 167.5 97.5H121.3C120.9 97.5 120.5 97.7 120.3 98C120.1 98.3 119.9 98.7 119.9 99.1C119.9 99.5 120 99.9 120.3 100.2C120.4 100.5 120.9 100.7 121.3 100.7Z" fill="#014BE4"/>
<path d="M136 61.4C140.5 61.4 144.5 59.5 147.4 56.4C150.3 53.3 152.2 49 152.2 44.3C152.2 39.6 150.4 35.4 147.4 32.2C144.5 29.2 140.4 27.2 136 27.2C131.5 27.2 127.5 29.1 124.6 32.2C121.7 35.3 119.8 39.6 119.8 44.3C119.8 53.8 127.2 61.4 136 61.4ZM137.6 30.6C143.5 31.3 148.3 36.3 149 42.7H137.6V30.6ZM137 46H149C148.2 52.8 142.7 58.2 136 58.2C134.1 58.2 132.3 57.8 130.7 57L137 46ZM134.5 30.6V43.8L128 55.1C125 52.6 122.9 48.6 122.9 44.3C122.9 37.2 128 31.4 134.5 30.6Z" fill="#014BE4"/>
<path d="M195.9 55.8H182.4C189.8 49.7 188.1 51 192.7 47.3C193.5 46.6 193.9 45.5 193.9 44.5C193.9 43.8 193.7 43 193.4 42.4L190.6 37.9C190 37 189 36.3 188 36.4C187.4 36.4 186.8 36.6 186.1 37.1C181.5 40.9 182.7 39.9 179.1 42.9V36.8C179.1 36.4 178.9 36 178.7 35.7C178.4 35.4 157.5 13.7 157.2 13.3C156.9 13 156.6 12.9 156.2 12.9H111C110.6 12.9 110.2 13.1 110 13.4C109.8 13.7 109.6 14.1 109.6 14.5V55.9H92.9C89.7 55.9 87.2 58.5 87.2 61.6V137.5C87.2 140.7 89.8 143.2 92.9 143.2H131L129.3 153.5H122C121.1 153.5 120.2 154.2 120.2 155.3V162.4C120.2 163.3 120.9 164.2 122 164.2H166.5C167.4 164.2 168.3 163.5 168.3 162.4V155.3C168.3 154.4 167.6 153.5 166.5 153.5H159.2L157.5 143.2H195.6C198.8 143.2 201.4 140.6 201.4 137.5V61.6C201.7 58.4 199.1 55.8 195.9 55.8ZM187.9 39.7H188L188.1 39.8L190.9 44.3L191 44.5C190.9 44.5 190.9 44.6 190.8 44.7L188 47.1L185 42.2L187.9 39.7ZM185.6 49L177.5 55.9C176.8 56 176.1 56.5 175.9 57.1L150.1 78.6L149.9 77.1L184.9 47.8L185.6 49ZM182.7 44.2L183.3 45.2L148.3 74.5L147.2 73.8L182.7 44.2ZM147.4 80.3L142.1 81.8L145 76.3L147 77.5L147.4 80.3ZM157.8 18.4L174 35.2H162.8C161.4 35.2 160.2 34.7 159.3 33.7C158.4 32.7 157.8 31.5 157.8 30.1V18.4ZM112.3 16.1H154.8V30.1C154.8 32.4 155.7 34.5 157.1 36C158.6 37.6 160.5 38.5 162.7 38.5H176.1V45.6L143.5 72.7L143.2 73L137.8 83.3C137.7 83.5 137.6 83.8 137.6 84.1C137.6 84.4 137.7 84.7 137.9 85C138.2 85.4 138.6 85.7 139.1 85.7C139.2 85.7 139.3 85.7 139.4 85.7L149.5 83L149.9 82.8L175.8 61.2V106L112.8 106.1V57.5C112.8 57 112.6 56.6 112.3 56.3V16.1ZM164.9 157V160.6H123.9V157H164.9ZM132.9 153.5L134.6 143.2H154.3L156 153.5H132.9ZM198.3 137.5C198.2 138.7 197.2 139.8 195.9 139.8H92.9C91.7 139.8 90.6 138.8 90.6 137.5V126H198.2V137.5H198.3ZM198.4 122.5H90.5V61.5C90.5 60.3 91.5 59.2 92.9 59.2H109.5V107.9C109.5 108.3 109.7 108.8 110 109.1C110.3 109.4 110.7 109.6 111.2 109.6L177.6 109.5C178.5 109.5 179.4 108.8 179.4 107.7V59.3H196C197.2 59.3 198.3 60.3 198.3 61.6V122.5H198.4Z" fill="#014BE4"/>
<path d="M144.3 138.6C147.4 138.6 150 136 150 132.9C150.1 129.8 147.5 127.2 144.3 127.2C141.1 127.2 138.6 129.8 138.6 132.9C138.6 136.1 141.2 138.6 144.3 138.6ZM144.3 130.7C145.5 130.7 146.6 131.7 146.6 133C146.7 134.2 145.7 135.3 144.3 135.3C143.1 135.3 142 134.3 142 133C142.1 131.7 143.1 130.7 144.3 130.7Z" fill="#014BE4"/>
<path d="M17.9 25.6C17.7 25.6 17.4 25.7 17.2 25.8L11.1 29.2C10.6 29.5 10.4 29.9 10.4 30.4C10.4 30.6 10.5 30.9 10.6 31.1C10.9 31.6 11.3 31.8 11.8 31.8C12 31.8 12.3 31.7 12.5 31.6L18.6 28.2C19.1 27.9 19.3 27.5 19.3 27C19.3 26.8 19.2 26.5 19.1 26.3C18.9 25.9 18.4 25.6 17.9 25.6Z" fill="#014BE4"/>
<path d="M25.6 28.4L31.7 31.8C31.9 31.9 32.2 32 32.4 32C32.9 32 33.4 31.7 33.6 31.3C33.7 31.1 33.8 30.8 33.8 30.6C33.8 30.1 33.5 29.6 33.1 29.4L33 29.7L33.2 29.4L27 25.9C26.8 25.8 26.5 25.7 26.3 25.7C25.8 25.7 25.3 26 25.1 26.4C25 26.6 24.9 26.9 24.9 27.1C24.9 27.6 25.2 28.1 25.6 28.4Z" fill="#014BE4"/>
<path d="M67.9 74.8C68.4 74.6 68.7 74.1 68.7 73.5V50L90.5 38.8C90.9 38.6 91.3 38.1 91.3 37.5V13.1C91.3 12.6 91 12.1 90.5 11.8L67.9 0.2C67.7 0 67.5 0 67.3 0C67.1 0 66.8 0.1 66.6 0.2L44.6 11.5L22.6 0.2C22.5 0 22.3 0 22 0C21.8 0 21.5 0.1 21.3 0.2L-1.2 11.8C-1.7 12 -2 12.5 -2 13.1V37.5C-2 38 -1.7 38.5 -1.2 38.8L20.6 50V73.5C20.6 74 20.9 74.5 21.4 74.8L44 86.4C44.2 86.5 44.4 86.6 44.7 86.6C44.9 86.6 45.1 86.5 45.4 86.4L67.9 74.8ZM22 14C21.2 14 20.6 14.6 20.6 15.4V22.3L2.5 13.1L20.6 3.8V8.5C20.6 9.3 21.2 9.9 22 9.9C22.8 9.9 23.4 9.3 23.4 8.5V3.8L41.5 13.1L23.4 22.4V15.5C23.5 14.7 22.8 14 22 14ZM6.4 35.2C6.9 34.9 7.1 34.5 7.1 34C7.1 33.8 7 33.5 6.9 33.3C6.6 32.8 6.2 32.6 5.7 32.6C5.5 32.6 5.2 32.7 5 32.8L0.9 35V15.4L20.7 25.6V46.8L2.4 37.4L6.4 35.2ZM51.6 35.2C52.1 34.9 52.3 34.5 52.3 34C52.3 33.8 52.2 33.5 52.1 33.3C51.8 32.8 51.4 32.6 50.9 32.6C50.7 32.6 50.4 32.7 50.2 32.8L46.1 35V15.4L65.9 25.6V46.8L47.7 37.4L51.6 35.2ZM59.9 69.4C59.8 69.6 59.7 69.9 59.7 70.1C59.7 70.6 60 71.1 60.4 71.3L64.2 73.4L46 82.8V61.6L65.8 51.4V71L61.8 68.8C61.6 68.7 61.3 68.6 61.1 68.6C60.7 68.7 60.2 68.9 59.9 69.4ZM29 71.2C29.5 70.9 29.7 70.5 29.7 70C29.7 69.8 29.6 69.5 29.5 69.3C29.2 68.8 28.8 68.6 28.3 68.6C28.1 68.6 27.8 68.7 27.6 68.8L23.5 71.1V51.5L43.3 61.7V82.9L25 73.5L29 71.2ZM43.2 35L39.2 32.8C39 32.7 38.7 32.6 38.5 32.6C38 32.6 37.5 32.9 37.3 33.3C37.2 33.5 37.1 33.8 37.1 34C37.1 34.5 37.4 35 37.8 35.2L41.6 37.3L23.4 46.7V25.6L43.2 15.4V35ZM25.2 49.1L43.3 39.8V44.5C43.3 45.3 43.9 45.9 44.7 45.9C45.5 45.9 46.1 45.3 46.1 44.5V39.8L64.2 49.1L46.1 58.4V51.5C46.1 50.7 45.5 50.1 44.7 50.1C43.9 50.1 43.3 50.7 43.3 51.5V58.4L25.2 49.1ZM67.3 14C66.5 14 65.9 14.6 65.9 15.4V22.3L47.8 13L65.9 3.7V8.4C65.9 9.2 66.5 9.8 67.3 9.8C68.1 9.8 68.7 9.2 68.7 8.4V3.8L86.8 13.1L68.7 22.4V15.5C68.7 14.7 68.1 14 67.3 14ZM82.5 33.3C82.4 33.5 82.3 33.8 82.3 34C82.3 34.5 82.6 35 83 35.2L86.8 37.3L68.6 46.7V25.6L88.4 15.4V35L84.4 32.8C84.2 32.7 83.9 32.6 83.7 32.6C83.3 32.6 82.8 32.9 82.5 33.3Z" fill="#014BE4"/>
<path d="M64.4 26.4C64.1 25.9 63.7 25.7 63.2 25.7C63 25.7 62.7 25.8 62.5 25.9L56.4 29.3C55.9 29.6 55.7 30 55.7 30.5C55.7 30.7 55.8 31 55.9 31.2C56.2 31.7 56.6 31.9 57.1 31.9C57.3 31.9 57.6 31.8 57.8 31.7L63.9 28.3C64.4 28 64.6 27.6 64.6 27.1C64.6 26.8 64.5 26.6 64.4 26.4Z" fill="#014BE4"/>
<path d="M78.4 29.3L72.3 25.9C72.1 25.8 71.8 25.7 71.6 25.7C71.1 25.7 70.6 26 70.4 26.4C70.3 26.6 70.2 26.9 70.2 27.1C70.2 27.6 70.5 28.1 70.9 28.3L77 31.7C77.2 31.8 77.5 31.9 77.7 31.9C78.2 31.9 78.7 31.6 78.9 31.2C79 31 79.1 30.7 79.1 30.5C79.1 30.1 78.8 29.6 78.4 29.3Z" fill="#014BE4"/>
<path d="M40.5 61.7C40.3 61.7 40 61.8 39.8 61.9L33.7 65.3C33.2 65.6 33 66 33 66.5C33 66.7 33.1 67 33.2 67.2C33.5 67.7 33.9 67.9 34.4 67.9C34.6 67.9 34.9 67.8 35.1 67.7L41.2 64.3C41.7 64 41.9 63.6 41.9 63.1C41.9 62.9 41.8 62.6 41.7 62.4C41.5 61.9 41 61.7 40.5 61.7Z" fill="#014BE4"/>
<path d="M55.8 65.4L49.7 62C49.5 61.9 49.2 61.8 49 61.8C48.5 61.8 48 62.1 47.8 62.5C47.7 62.7 47.6 63 47.6 63.2C47.6 63.7 47.9 64.2 48.3 64.4L54.4 67.8C54.6 67.9 54.9 68 55.1 68C55.6 68 56.1 67.7 56.3 67.3C56.4 67.1 56.5 66.8 56.5 66.6C56.5 66.1 56.2 65.7 55.8 65.4Z" fill="#014BE4"/>
</svg>
