<svg width="198" height="151" viewBox="0 0 198 151" fill="none" xmlns="http://www.w3.org/2000/svg">
<path d="M20.1079 73.3L14.1079 72.4L11.5079 67.1C11.1079 66.4 9.90785 66.4 9.60785 67.1L7.00785 72.4L1.00785 73.3C0.107852 73.4 -0.192148 74.5 0.407852 75.1L4.70785 79.3L3.60785 85.2C3.40785 86.1 4.40785 86.8 5.20785 86.3L10.5079 83.5L15.8079 86.3C16.6079 86.7 17.6079 86 17.4079 85.2L16.3079 79.3L20.6079 75.1C21.4079 74.6 21.0079 73.4 20.1079 73.3ZM14.5079 78.2C14.2079 78.5 14.1079 78.8 14.1079 79.2L14.8079 83.5L11.0079 81.5C10.6079 81.3 10.3079 81.3 9.90785 81.5L6.10785 83.5L6.80785 79.2C6.90785 78.8 6.70785 78.5 6.40785 78.2L3.20785 75.1L7.50785 74.5C7.90785 74.4 8.20785 74.2 8.30785 73.9L10.2079 70L12.1079 73.9C12.3079 74.3 12.5079 74.4 12.9079 74.5L17.2079 75.1L14.5079 78.2Z" fill="#0272B0"/>
<path d="M20.1079 97.9L14.1079 97L11.5079 91.7C11.1079 91 9.90785 91 9.60785 91.7L7.00785 97L1.00785 97.9C0.00785232 98 -0.292148 99.2 0.307852 99.8L4.60785 104L3.50785 109.9C3.30785 110.8 4.30785 111.5 5.10785 111L10.4079 108.2L15.7079 111C16.5079 111.4 17.5079 110.7 17.3079 109.9L16.2079 104L20.5079 99.8C21.4079 99.2 21.0079 98 20.1079 97.9ZM14.5079 102.7C14.2079 103 14.1079 103.3 14.1079 103.7L14.8079 108L10.9079 106C10.5079 105.8 10.2079 105.8 9.80785 106L6.10785 108L6.80785 103.7C6.90785 103.3 6.70785 103 6.40785 102.7L3.20785 99.6L7.50785 99C8.00785 99 8.40785 98.8 8.50785 98.5L10.4079 94.6L12.3079 98.5C12.5079 98.9 12.7079 99 13.1079 99.1L17.4079 99.7L14.5079 102.7Z" fill="#0272B0"/>
<path d="M20.1079 48.3L14.1079 47.4L11.5079 42.1C11.1079 41.4 9.90785 41.4 9.60785 42.1L7.00785 47.4L1.00785 48.3C0.107852 48.4 -0.192148 49.5 0.407852 50.1L4.70785 54.3L3.60785 60.2C3.40785 61.1 4.40785 61.8 5.20785 61.3L10.5079 58.5L15.8079 61.3C16.6079 61.7 17.6079 61 17.4079 60.2L16.3079 54.3L20.6079 50.1C21.4079 49.5 21.0079 48.4 20.1079 48.3ZM14.5079 53.1C14.2079 53.4 14.1079 53.7 14.1079 54.1L14.8079 58.4L10.9079 56.4C10.5079 56.2 10.2079 56.2 9.80785 56.4L6.10785 58.4L6.80785 54.1C6.90785 53.7 6.70785 53.4 6.40785 53.1L3.20785 50L7.50785 49.4C7.90785 49.3 8.20785 49.1 8.30785 48.8L10.2079 44.9L12.1079 48.8C12.3079 49.2 12.5079 49.3 12.9079 49.4L17.2079 50L14.5079 53.1Z" fill="#0272B0"/>
<path d="M109.208 103.2H96.3079V95.5C96.3079 94.7 95.7079 94.1 94.9079 94.1H93.7079V51.4H94.9079C95.7079 51.4 96.3079 50.8 96.3079 50V42.3H114.008V50C114.008 50.8 114.608 51.4 115.408 51.4H116.708V95.5C116.708 96.3 117.308 96.9 118.108 96.9H131.608C132.408 96.9 133.008 96.3 133.008 95.5V51.4H134.108C134.908 51.4 135.508 50.8 135.508 50V42.3H142.408C143.208 42.3 143.808 41.7 143.808 40.9C143.808 40.4 143.508 39.9 143.008 39.7L86.4079 0.3C86.1079 0.1 85.8079 0 85.6079 0C85.3079 0 85.1079 0.1 84.8079 0.3L28.2079 39.8C27.8079 40.1 27.6079 40.5 27.6079 40.9C27.6079 41.1 27.6079 41.2 27.7079 41.3C27.9079 41.9 28.4079 42.3 29.0079 42.3H35.8079V50C35.8079 50.8 36.4079 51.4 37.2079 51.4H38.4079V94.1H37.2079C36.4079 94.1 35.8079 94.7 35.8079 95.5V103.2H29.2079C28.8079 103.2 28.6079 103.4 28.4079 103.6C28.2079 103.9 28.1079 104.2 28.1079 104.6V114.1C28.1079 114.5 28.2079 114.8 28.4079 115.1C28.6079 115.4 28.8079 115.5 29.2079 115.5H109.308C109.708 115.5 109.908 115.3 110.108 115.1C110.308 114.8 110.408 114.5 110.408 114.1V104.6C110.408 104.2 110.308 103.9 110.108 103.6C109.808 103.4 109.608 103.2 109.208 103.2ZM130.108 94.1H119.508V51.5H130.108V94.1ZM132.608 48.7H116.708V42.4H132.608V48.7ZM33.3079 39.6L85.6079 3.1L137.808 39.6H33.3079ZM93.5079 96.9V103.2H77.6079V96.9H93.5079ZM80.2079 94.1V51.5H90.8079V94H80.2079V94.1ZM77.6079 48.7V42.4H93.5079V48.7H77.6079ZM55.7079 94.1H54.5079V51.4H55.8079C56.6079 51.4 57.2079 50.8 57.2079 50V42.3H74.9079V50C74.9079 50.8 75.5079 51.4 76.3079 51.4H77.5079V94.1H76.3079C75.5079 94.1 74.9079 94.7 74.9079 95.5V103.2H57.1079V95.5C57.1079 94.7 56.5079 94.1 55.7079 94.1ZM54.3079 96.9V103.2H38.5079V96.9H54.3079ZM41.1079 94.1V51.5H51.7079V94H41.1079V94.1ZM38.5079 48.7V42.4H54.4079V48.7H38.5079ZM108.008 112.6H30.2079V105.9H108.008V112.6Z" fill="#0272B0"/>
<path d="M92.2078 18.4C90.5079 16.8 88.2078 15.9 85.5079 15.9C83.0079 15.9 80.6079 16.9 78.8079 18.4C77.1079 20 76.0079 22.1 76.0079 24.5C76.0079 26.9 77.1079 29.1 78.8079 30.6C80.5079 32.2 82.8079 33.1 85.5079 33.1C88.0079 33.1 90.4078 32.1 92.2078 30.6C93.9078 29 95.0079 26.9 95.0079 24.5C95.0079 22.1 93.9078 20 92.2078 18.4ZM90.3079 28.6C89.1079 29.6 87.4079 30.4 85.6078 30.4C83.8078 30.4 82.1078 29.7 80.9079 28.6C79.7079 27.5 79.0079 26.1 79.0079 24.5C79.0079 22.9 79.7079 21.4 80.9079 20.4C82.1078 19.3 83.8078 18.6 85.6078 18.6C87.4079 18.6 89.1079 19.3 90.3079 20.4C91.5079 21.5 92.2078 22.9 92.2078 24.5C92.2078 26.1 91.5079 27.6 90.3079 28.6Z" fill="#0272B0"/>
<path d="M163.108 104.8C163.108 104.1 162.608 103.6 161.908 103.6H117.608C116.908 103.6 116.408 104.1 116.408 104.8V135.3L112.408 148.4L112.308 148.8C112.308 149.2 112.508 149.4 112.708 149.7C113.008 150 113.208 150.1 113.608 150.1H166.008C166.408 150.1 166.708 149.9 166.908 149.7C167.208 149.4 167.308 149.2 167.308 148.8V148.4L163.308 135.3V104.8H163.108ZM118.908 106.1H160.708V134.2H118.908V106.1ZM164.208 147.5H115.208L118.508 136.7H161.008L164.208 147.5Z" fill="#0272B0"/>
<path d="M145.608 140.6C145.408 140.2 144.908 139.8 144.508 139.8H135.008C134.508 139.8 134.008 140.1 133.908 140.6L132.408 144.1C132.308 144.3 132.308 144.4 132.308 144.6C132.308 145 132.508 145.2 132.708 145.5C132.908 145.7 133.208 145.9 133.608 145.9H146.008C146.408 145.9 146.708 145.7 146.908 145.5C147.208 145.2 147.308 145 147.308 144.6C147.308 144.4 147.308 144.2 147.208 144.1L145.608 140.6ZM135.408 143.3L135.808 142.3H143.608L144.008 143.3H135.408Z" fill="#0272B0"/>
<path d="M149.608 111H129.708C129.008 111 128.508 111.5 128.508 112.2V123.2C128.508 123.9 129.008 124.4 129.708 124.4H136.408C136.708 124.4 136.808 124.3 137.108 124.2L136.808 128.5V128.6C136.808 129 137.008 129.3 137.208 129.5C137.508 129.8 137.708 129.9 138.108 129.9C138.408 129.9 138.508 129.8 138.808 129.7L139.908 129L142.108 132.1C142.408 132.5 142.708 132.6 143.208 132.6C143.508 132.6 143.608 132.5 143.908 132.4L146.708 130.6C147.008 130.4 147.208 130.1 147.208 129.8V129.5C147.208 129.2 147.108 129 146.908 128.8L144.808 125.8L145.908 125.1C146.208 124.9 146.308 124.7 146.408 124.5H149.708C150.408 124.5 150.908 124 150.908 123.3V112.3C150.808 111.6 150.308 111 149.608 111ZM143.308 129.7L141.108 126.6C140.808 126.3 140.508 126.1 140.008 126.1C139.708 126.1 139.608 126.2 139.308 126.3L139.508 123.5L142.208 124.5C141.808 124.8 141.608 125.2 141.608 125.5C141.608 125.8 141.708 126 141.908 126.2L144.008 129.2L143.308 129.7ZM148.308 122H146.008C145.508 122 145.108 122.3 144.908 122.7L138.908 120.5C138.708 120.4 138.608 120.4 138.508 120.4C138.108 120.4 137.908 120.5 137.608 120.8C137.308 121 137.208 121.3 137.208 121.7L137.108 122.4C137.008 122.1 136.708 122 136.408 122H131.008V113.5H148.308V122Z" fill="#0272B0"/>
<path d="M196.608 60.6L190.008 59.6C189.808 58.7 189.608 57.9 189.308 57.1L191.708 55.2H195.708C196.308 55.2 196.908 54.7 196.908 54V35C196.908 34.4 196.408 33.8 195.708 33.8H167.208C166.608 33.8 166.008 34.3 166.008 35V43.4C165.108 43.6 163.808 44 163.008 44.2L158.908 39C158.608 38.7 158.308 38.6 157.908 38.6C157.708 38.6 157.508 38.7 157.308 38.8L154.008 40.7C153.608 40.9 153.408 41.3 153.408 41.8C153.408 42 153.408 42.1 153.508 42.2L156.008 48.3C155.308 48.9 154.708 49.5 154.208 50.1L148.008 47.6C147.808 47.5 147.708 47.5 147.608 47.5C147.208 47.5 146.808 47.7 146.508 48.1L144.608 51.4C144.508 51.6 144.408 51.8 144.408 52C144.408 52.4 144.608 52.7 144.808 53L150.008 57.1C149.708 58 149.508 58.8 149.308 59.6L142.708 60.6C142.108 60.7 141.608 61.2 141.608 61.7V65.6C141.608 66.2 142.008 66.7 142.708 66.7L149.308 67.7C149.508 68.6 149.708 69.4 150.008 70.2L144.808 74.3C144.508 74.6 144.408 74.9 144.408 75.3C144.408 75.5 144.508 75.7 144.608 75.9L146.508 79.2C146.708 79.6 147.108 79.8 147.608 79.8C147.808 79.8 147.908 79.8 148.008 79.7L154.208 77.2C154.808 77.9 155.408 78.5 156.008 79L153.508 85.1C153.408 85.3 153.408 85.4 153.408 85.5C153.408 85.9 153.608 86.3 154.008 86.6L157.308 88.5C157.508 88.6 157.708 88.7 157.908 88.7C158.308 88.7 158.608 88.5 158.908 88.3L163.008 83.1C163.908 83.4 164.708 83.6 165.508 83.8L166.508 90.4C166.608 91 167.108 91.4 167.608 91.4H171.508C172.108 91.4 172.608 91 172.608 90.4L173.608 83.8C174.508 83.6 175.408 83.4 176.108 83.1L180.208 88.3C180.508 88.6 180.808 88.7 181.208 88.7C181.408 88.7 181.608 88.6 181.808 88.5L185.108 86.6C185.508 86.4 185.708 86 185.708 85.5C185.708 85.3 185.708 85.2 185.608 85.1L183.108 79C183.808 78.4 184.408 77.8 184.908 77.2L191.108 79.7C191.308 79.8 191.408 79.8 191.508 79.8C191.908 79.8 192.308 79.6 192.608 79.2L194.508 75.9C194.608 75.7 194.708 75.5 194.708 75.3C194.708 75 194.508 74.6 194.308 74.3L189.108 70.2C189.408 69.4 189.608 68.5 189.808 67.7L196.408 66.7C197.008 66.6 197.408 66.1 197.508 65.6V61.7C197.608 61.1 197.108 60.6 196.608 60.6ZM168.608 36.1H194.708V52.7H182.808V52.8C182.508 52.8 182.408 52.9 182.108 53L173.008 59.3V54C173.008 53.4 172.508 52.8 171.808 52.8H168.608V36.1ZM168.508 54.9H170.508V61.4C170.508 61.8 170.808 62.3 171.108 62.5H171.208L171.508 62.6H171.708C172.008 62.6 172.108 62.5 172.408 62.4L177.108 59.1C177.908 60.4 178.408 61.9 178.408 63.5C178.408 65.9 177.408 68 175.808 69.6C174.208 71.2 172.108 72.2 169.608 72.2C167.208 72.2 165.008 71.2 163.408 69.6C161.808 68 160.808 65.9 160.808 63.5C160.808 59.1 164.108 55.4 168.508 54.9ZM195.108 64.3L188.808 65.3C188.308 65.4 187.908 65.7 187.808 66.3C187.608 67.6 187.308 68.8 186.808 70.1C186.708 70.3 186.708 70.4 186.708 70.5C186.708 71 186.908 71.4 187.108 71.5L192.108 75.5L191.208 77.1L185.208 74.7C185.008 74.6 184.908 74.6 184.808 74.6C184.408 74.6 184.108 74.8 183.908 75C183.108 76 182.108 76.9 181.208 77.7C180.908 78 180.808 78.3 180.808 78.7C180.808 78.9 180.808 79 180.908 79.1L183.308 85.1L181.708 86L177.708 81C177.408 80.7 177.108 80.6 176.708 80.6C176.508 80.6 176.408 80.6 176.308 80.7C175.108 81.1 173.808 81.5 172.508 81.7C172.008 81.8 171.608 82.1 171.508 82.7L170.508 89H168.708L167.708 82.7C167.608 82.2 167.308 81.8 166.708 81.7C165.408 81.5 164.208 81.2 162.908 80.7C162.708 80.6 162.608 80.6 162.508 80.6C162.108 80.6 161.808 80.8 161.508 81L157.508 86L155.908 85.1L158.308 79.1C158.408 78.9 158.408 78.8 158.408 78.7C158.408 78.3 158.208 78 158.008 77.7C157.008 76.9 156.108 75.9 155.308 75C155.008 74.7 154.808 74.6 154.408 74.6C154.208 74.6 154.108 74.6 154.008 74.7L148.008 77.1L147.108 75.5L152.108 71.5C152.408 71.2 152.508 70.9 152.508 70.5C152.508 70.3 152.508 70.2 152.408 70.1C152.008 68.9 151.608 67.6 151.408 66.3C151.308 65.8 151.008 65.4 150.408 65.3L144.108 64.3V62.5L150.408 61.5C150.908 61.4 151.308 61.1 151.408 60.5C151.608 59.3 151.908 58 152.408 56.7C152.508 56.5 152.508 56.4 152.508 56.3C152.508 55.9 152.308 55.6 152.108 55.3L147.108 51.3L148.008 49.7L154.008 52.1C154.208 52.2 154.308 52.2 154.408 52.2C154.808 52.2 155.108 52 155.308 51.8C156.108 50.8 157.108 49.9 158.008 49.1C158.308 48.8 158.408 48.5 158.408 48.2C158.408 48 158.408 47.9 158.308 47.8L155.908 41.8L157.508 40.9L161.508 45.9C161.808 46.2 162.108 46.3 162.508 46.3C162.708 46.3 162.808 46.3 162.908 46.2C164.008 45.8 164.908 45.5 166.008 45.3V52.8C161.608 54.3 158.508 58.4 158.508 63.1C158.508 69.1 163.408 74 169.508 74C175.608 74 180.508 69.1 180.508 63.1C180.508 61.1 180.008 59.2 178.908 57.4L182.908 54.6H187.608L186.908 55.1C186.608 55.4 186.508 55.7 186.508 56.1C186.508 56.3 186.508 56.4 186.608 56.5C187.008 57.7 187.408 59 187.608 60.3C187.708 60.8 188.008 61.2 188.608 61.3L194.908 62.3V64.3H195.108Z" fill="#0272B0"/>
<path d="M172.408 44.2H185.108C185.408 44.2 185.708 44 185.908 43.8C186.108 43.6 186.208 43.4 186.208 43.1C186.208 42.8 186.108 42.6 185.908 42.4C185.708 42.2 185.508 42 185.108 42H172.408C172.108 42 171.808 42.2 171.608 42.4C171.408 42.6 171.308 42.8 171.308 43.1C171.308 43.4 171.408 43.6 171.608 43.8C171.808 44.1 172.108 44.2 172.408 44.2Z" fill="#0272B0"/>
<path d="M188.408 44.2H190.608C191.208 44.2 191.708 43.7 191.708 43.1C191.808 42.5 191.308 42 190.608 42H188.408C187.808 42 187.308 42.5 187.308 43.1C187.408 43.8 187.908 44.2 188.408 44.2Z" fill="#0272B0"/>
<path d="M190.708 45.3H177.508C177.208 45.3 176.908 45.5 176.708 45.7C176.508 45.9 176.408 46.1 176.408 46.4C176.408 46.7 176.508 46.9 176.708 47.1C176.908 47.3 177.108 47.5 177.508 47.5H190.708C191.008 47.5 191.308 47.3 191.508 47.1C191.708 46.9 191.808 46.7 191.808 46.4C191.808 46.1 191.708 45.9 191.508 45.7C191.308 45.4 191.008 45.3 190.708 45.3Z" fill="#0272B0"/>
<path d="M174.608 47.4C175.208 47.4 175.708 46.9 175.708 46.3C175.708 45.7 175.308 45.2 174.608 45.2H172.408C171.808 45.2 171.308 45.7 171.308 46.3C171.308 46.9 171.808 47.4 172.408 47.4H174.608Z" fill="#0272B0"/>
</svg>
