<svg width="199" height="139" viewBox="0 0 199 139" fill="none" xmlns="http://www.w3.org/2000/svg">
<path d="M148.008 56.7C148.508 56.5 148.808 56 148.808 55.4C148.808 55.2 148.808 55 148.708 54.8C148.508 54.3 148.008 54 147.408 54C147.208 54 147.008 54 146.808 54.1C144.508 55.2 142.408 56.5 140.408 58C140.008 58.3 139.908 58.7 139.908 59.1C139.908 59.4 140.008 59.7 140.208 60C140.508 60.4 140.908 60.5 141.308 60.5C141.608 60.5 141.908 60.4 142.208 60.2C144.008 58.9 145.908 57.7 148.008 56.7Z" fill="#0272B0"/>
<path d="M194.408 73.1C194.908 72.9 195.208 72.4 195.208 71.8C195.208 71.6 195.208 71.4 195.108 71.2C194.008 68.9 192.708 66.8 191.208 64.8C190.908 64.4 190.508 64.2 190.108 64.2C189.808 64.2 189.508 64.3 189.208 64.5C188.808 64.8 188.608 65.2 188.608 65.6C188.608 65.9 188.708 66.2 188.908 66.5C190.308 68.3 191.508 70.3 192.508 72.4C192.708 72.9 193.208 73.2 193.808 73.2C194.008 73.2 194.308 73.2 194.408 73.1Z" fill="#0272B0"/>
<path d="M184.208 61.5C184.508 61.7 184.808 61.8 185.108 61.8C185.508 61.8 185.908 61.6 186.208 61.3C186.408 61 186.508 60.7 186.508 60.4C186.508 60 186.308 59.6 186.008 59.3C184.108 57.7 182.008 56.2 179.808 55C179.608 54.9 179.408 54.8 179.108 54.8C178.608 54.8 178.108 55.1 177.908 55.5C177.808 55.7 177.708 55.9 177.708 56.2C177.708 56.7 178.008 57.2 178.408 57.4C180.608 58.7 182.508 60 184.208 61.5Z" fill="#0272B0"/>
<path d="M198.608 85.8C198.508 83.3 198.208 80.8 197.608 78.4C197.408 77.7 196.908 77.3 196.208 77.3C196.108 77.3 196.008 77.3 195.908 77.3C195.308 77.5 194.808 78 194.808 78.7C194.808 78.8 194.808 78.9 194.808 79C195.308 81.2 195.608 83.5 195.708 85.9C195.708 86.7 196.308 87.3 197.108 87.3C198.008 87.2 198.608 86.6 198.608 85.8Z" fill="#0272B0"/>
<path d="M196.908 91.6H196.608C195.908 91.6 195.308 92.1 195.208 92.8C194.908 94.5 194.408 96.2 193.908 97.8C193.808 98 193.808 98.1 193.808 98.3C193.808 98.9 194.208 99.4 194.708 99.6C194.908 99.7 195.008 99.7 195.208 99.7C195.808 99.7 196.308 99.3 196.508 98.8C197.108 97 197.608 95.2 197.908 93.4V93.1C198.008 92.3 197.508 91.7 196.908 91.6Z" fill="#0272B0"/>
<path d="M162.508 75.4C165.808 75.4 168.508 72.7 168.508 69.4C168.508 66.1 165.808 63.4 162.508 63.4C159.208 63.4 156.508 66.1 156.508 69.4C156.508 72.8 159.208 75.4 162.508 75.4ZM162.508 66.3C163.408 66.3 164.208 66.7 164.708 67.2C165.308 67.8 165.608 68.6 165.608 69.4C165.608 70.3 165.208 71.1 164.708 71.6C164.108 72.2 163.308 72.5 162.508 72.5C161.608 72.5 160.808 72.1 160.308 71.6C159.708 71 159.408 70.2 159.408 69.4C159.408 68.5 159.808 67.7 160.308 67.2C160.808 66.7 161.608 66.3 162.508 66.3Z" fill="#0272B0"/>
<path d="M174.008 77.7C175.708 75.4 176.708 72.5 176.708 69.4C176.708 63.1 172.608 57.8 166.908 55.9V53.6C168.708 53.8 170.508 54.2 172.208 54.7C172.308 54.7 172.508 54.8 172.608 54.8C173.208 54.8 173.808 54.4 173.908 53.8C173.908 53.7 174.008 53.5 174.008 53.4C174.008 52.8 173.608 52.2 173.008 52.1C171.008 51.5 169.008 51.1 166.908 50.8V50.3C166.908 47.9 164.908 45.9 162.508 45.9C160.108 45.9 158.108 47.9 158.108 50.3V50.9C156.708 51.1 155.308 51.3 153.908 51.6C153.308 51.8 152.808 52.3 152.808 53C152.808 53.1 152.808 53.2 152.808 53.3C153.008 53.9 153.508 54.4 154.208 54.4C154.308 54.4 154.408 54.4 154.508 54.4C155.708 54.1 156.908 53.9 158.108 53.8V56C152.408 57.9 148.308 63.2 148.308 69.5C148.308 72.6 149.308 75.4 151.008 77.8L132.008 110.4C131.908 110.6 131.808 110.9 131.808 111.1V111.3L133.408 124.7C133.408 125.1 133.608 125.4 133.908 125.6C134.208 125.8 134.508 125.9 134.808 125.9C135.208 125.9 135.708 125.7 136.008 125.2L149.708 102.5H157.708V104.6C157.708 107.2 159.908 109.4 162.508 109.4C165.108 109.4 167.308 107.2 167.308 104.6V102.5H175.308L189.008 125.2C189.308 125.7 189.708 125.9 190.208 125.9C190.508 125.9 190.908 125.8 191.208 125.5C191.508 125.3 191.708 124.9 191.708 124.5L192.108 109.9C192.108 109.7 192.008 109.4 191.908 109.2L174.008 77.7ZM164.508 104.6C164.508 105.7 163.608 106.6 162.508 106.6C161.408 106.6 160.508 105.7 160.508 104.6V97.6C160.508 96.5 161.408 95.6 162.508 95.6C163.608 95.6 164.508 96.5 164.508 97.6V104.6ZM162.508 58.1C168.808 58.1 173.908 63.2 173.908 69.5C173.908 72.7 172.608 75.5 170.508 77.6C168.408 79.7 165.608 80.9 162.508 80.9C159.408 80.9 156.508 79.6 154.508 77.6C152.408 75.5 151.108 72.7 151.108 69.5C151.108 66.4 152.408 63.5 154.408 61.5C156.508 59.4 159.308 58.1 162.508 58.1ZM143.608 102.5H146.408L135.708 120.3L134.708 111.4L152.908 80C154.408 81.3 156.208 82.4 158.108 83L148.008 99.6H143.508C142.708 99.6 142.108 100.2 142.108 101C142.208 101.8 142.808 102.5 143.608 102.5ZM161.108 83.6C161.608 83.6 162.008 83.7 162.508 83.7C163.008 83.7 163.408 83.7 163.908 83.6L173.608 99.6H167.308V97.5C167.308 94.9 165.108 92.7 162.508 92.7C159.908 92.7 157.708 94.8 157.708 97.5V99.6H151.408L161.108 83.6ZM181.408 102.5C182.208 102.5 182.808 101.9 182.808 101.1C182.808 100.3 182.208 99.7 181.408 99.7H176.908L166.808 83C168.808 82.4 170.608 81.3 172.008 80L189.208 110.2L189.008 119.6L178.608 102.4H181.408V102.5ZM162.508 48.7C163.408 48.7 164.108 49.4 164.108 50.3V55.2C163.308 55.2 162.408 55.2 160.908 55.2V50.3C160.908 49.5 161.608 48.8 162.508 48.7Z" fill="#0272B0"/>
<path d="M143.208 27.2L142.108 33.2C141.908 34.1 142.908 34.8 143.708 34.4L149.108 31.5L154.508 34.4C155.308 34.9 156.308 34.1 156.108 33.2L155.008 27.2L159.408 22.9C160.308 22.2 159.908 21.1 158.908 21L152.808 20.1L150.108 14.6C149.708 13.9 148.508 13.9 148.108 14.6L145.408 20.1L139.308 21C138.408 21.1 138.008 22.3 138.708 22.9L143.208 27.2ZM146.308 22.2C146.708 22.1 147.008 21.9 147.108 21.6L149.108 17.5L151.108 21.6C151.308 22 151.608 22.1 151.908 22.2L156.308 22.8L153.208 26C152.908 26.3 152.808 26.6 152.808 27L153.508 31.4L149.508 29.3C149.108 29.1 148.808 29.1 148.408 29.3L144.608 31.4L145.308 27C145.408 26.6 145.208 26.3 144.908 26L141.708 22.8L146.308 22.2Z" fill="#0272B0"/>
<path d="M172.308 27.3L171.208 33.3C171.008 34.2 172.008 34.9 172.808 34.5L178.208 31.6L183.608 34.5C184.408 35 185.408 34.2 185.208 33.3L184.108 27.3L188.508 23C189.408 22.3 189.008 21.2 188.008 21.1L181.908 20.2L179.208 14.7C178.808 14 177.608 14 177.208 14.7L174.508 20.2L168.408 21.1C167.508 21.2 167.108 22.4 167.808 23L172.308 27.3ZM175.408 22.3C175.808 22.2 176.108 22 176.208 21.7L178.208 17.6L180.208 21.7C180.408 22.1 180.708 22.2 181.008 22.3L185.408 22.9L182.308 26.1C182.008 26.4 181.908 26.7 181.908 27.1L182.608 31.5L178.608 29.4C178.208 29.2 177.908 29.2 177.508 29.4L173.708 31.5L174.408 27.1C174.508 26.7 174.308 26.4 174.008 26.1L170.808 22.9L175.408 22.3Z" fill="#0272B0"/>
<path d="M136.408 83.2C137.308 83.2 138.008 82.4 138.008 81.5C137.508 74.8 135.208 66.5 133.908 62.1C133.108 59.3 130.708 57.4 127.908 57.2C122.708 56.8 118.808 54.3 116.408 52.4C120.608 47.4 123.308 39.3 123.308 34.2C123.308 26 116.808 19.4 108.808 19.4C100.808 19.4 94.3085 26.1 94.3085 34.2C94.3085 39.2 96.9085 47.3 101.108 52.3C98.7085 54.3 94.7085 56.8 89.4085 57.3C88.6085 57.4 87.8085 57.6 87.1085 58C84.3085 56.5 82.0085 54.8 80.3085 53.4C87.4085 45.7 92.0085 31.9 92.0085 23.4C91.9085 10.4 81.7085 0 69.2085 0C56.7085 0 46.6085 10.4 46.6085 23.2C46.6085 31.5 51.1085 45.1 58.1085 52.9C56.4085 54.4 54.0085 56.2 51.1085 57.8C50.3085 57.4 49.5085 57.2 48.7085 57.1C43.5085 56.7 39.6085 54.2 37.2085 52.3C41.4085 47.3 44.1085 39.2 44.1085 34.1C44.1085 25.9 37.6085 19.3 29.6085 19.3C21.6085 19.3 15.1085 26 15.1085 34.1C15.1085 39.1 17.7085 47.2 21.9085 52.2C19.7085 54 15.6085 56.7 10.2085 57.2C7.40848 57.4 5.00848 59.4 4.20848 62.1C2.50848 67.5 0.508476 75.3 0.00847585 81.5C-0.0915241 82.4 0.708476 83.2 1.60848 83.2H25.0085C23.6085 89 22.4085 95.2 22.0085 100.7C21.9085 101.6 22.7085 102.4 23.6085 102.4H32.7085V105.9C32.7085 106.7 33.3085 107.3 34.0085 107.5L40.7085 108.5C41.4085 111.1 42.4085 113.6 43.7085 115.9L39.7085 121.5C39.2085 122.1 39.3085 123 39.8085 123.5L46.8085 130.7C47.4085 131.3 48.3085 131.3 48.9085 130.9L54.3085 126.8C56.6085 128.1 59.0085 129.2 61.5085 129.9L62.5085 136.8C62.6085 137.6 63.3085 138.2 64.1085 138.2H74.0085C74.8085 138.2 75.5085 137.6 75.6085 136.8L76.6085 129.9C79.1085 129.2 81.5085 128.2 83.8085 126.8L89.2085 130.9C89.8085 131.4 90.7085 131.3 91.3085 130.7L98.3085 123.5C98.8085 122.9 98.9085 122.1 98.4085 121.5L94.4085 115.9C95.7085 113.6 96.7085 111.1 97.4085 108.5L104.108 107.5C104.908 107.4 105.408 106.7 105.408 105.9V102.4H114.608C115.508 102.4 116.208 101.6 116.208 100.7C115.808 95.2 114.608 89 113.208 83.2H136.408ZM97.4085 34C97.4085 27.6 102.508 22.3 108.708 22.3C114.908 22.3 120.008 27.5 120.008 34C120.008 40.5 115.108 52.1 109.508 53.2C103.408 54.5 97.4085 41.3 97.4085 34ZM103.308 54.4C104.908 55.7 107.008 56.6 109.208 56.5C111.008 56.4 112.708 55.6 114.008 54.5C116.708 56.7 121.308 59.7 127.508 60.2C129.008 60.3 130.308 61.4 130.708 62.9C131.908 66.8 133.808 73.9 134.508 79.9H112.108C111.008 75.7 110.008 71.9 109.108 69.1C107.908 65 104.408 62.1 100.208 61.7C97.1085 61.4 94.3085 60.7 91.8085 59.8C97.0085 59 100.908 56.4 103.308 54.4ZM49.7085 23.2C49.7085 12.1 58.5085 3.2 69.2085 3.2C80.0085 3.2 88.7085 12.2 88.7085 23.2C88.7085 38.2 75.9085 62.9 63.3085 53.5C55.7085 47.8 49.7085 32.9 49.7085 23.2ZM18.2085 34C18.2085 27.6 23.3085 22.3 29.5085 22.3C35.8085 22.3 40.8085 27.5 40.8085 34C40.8085 40.7 35.8085 52.1 30.3085 53.2C24.1085 54.5 18.2085 41.1 18.2085 34ZM3.30848 80C4.00848 74.4 5.70848 67.8 7.20848 63C7.70848 61.5 8.90848 60.4 10.4085 60.3C16.7085 59.8 21.4085 56.7 24.1085 54.4C25.7085 55.7 27.8085 56.6 30.0085 56.5C31.8085 56.4 33.5085 55.6 34.9085 54.5C37.3085 56.5 41.1085 59 46.2085 59.9C43.6085 60.8 40.8085 61.6 37.7085 61.8C33.5085 62.1 30.0085 65 28.8085 69.2C28.0085 72 26.9085 75.8 25.8085 80H3.30848ZM102.108 104.5L95.7085 105.5C95.1085 105.6 94.5085 106.1 94.4085 106.7C93.7085 109.7 92.6085 112.5 91.0085 115.1C90.7085 115.6 90.7085 116.3 91.1085 116.9L95.0085 122.3L89.9085 127.5L84.7085 123.6C84.2085 123.2 83.4085 123.2 82.9085 123.5C80.4085 125.1 77.6085 126.3 74.7085 127C74.1085 127.1 73.6085 127.7 73.5085 128.3L72.6085 134.9H65.4085L64.5085 128.3C64.4085 127.7 63.9085 127.1 63.3085 127C60.4085 126.3 57.7085 125.2 55.1085 123.5C54.5085 123.1 53.8085 123.2 53.3085 123.6L48.1085 127.5L43.0085 122.3L46.9085 116.9C47.3085 116.4 47.3085 115.7 47.0085 115.1C45.4085 112.5 44.3085 109.7 43.6085 106.7C43.5085 106.1 42.9085 105.6 42.3085 105.5L35.9085 104.5V97.1L42.3085 96.1C42.9085 96 43.5085 95.5 43.6085 94.9C44.3085 91.9 45.4085 89.1 47.0085 86.5C47.3085 86 47.3085 85.3 46.9085 84.7L43.0085 79.4L48.1085 74.2L53.3085 78.1C53.8085 78.5 54.6085 78.5 55.1085 78.2C57.6085 76.6 60.4085 75.4 63.3085 74.7C63.9085 74.6 64.4085 74 64.5085 73.4L65.4085 66.8H72.6085L73.5085 73.4C73.6085 74 74.1085 74.6 74.7085 74.7C77.6085 75.4 80.3085 76.5 82.9085 78.2C83.5085 78.6 84.2085 78.5 84.7085 78.1L89.9085 74.2L95.0085 79.4L91.1085 84.8C90.7085 85.3 90.7085 86 91.0085 86.6C92.6085 89.2 93.8085 92 94.4085 95C94.5085 95.6 95.1085 96.1 95.7085 96.2L102.108 97.2V104.5ZM105.208 99.2V95.7C105.208 94.9 104.608 94.3 103.908 94.1L97.2085 93.1C96.5085 90.5 95.5085 88 94.2085 85.7L98.2085 80.1C98.7085 79.5 98.6085 78.6 98.1085 78.1L91.1085 70.9C90.5085 70.3 89.6085 70.3 89.0085 70.7L83.6085 74.8C81.3085 73.5 78.9085 72.4 76.4085 71.7L75.4085 64.8C75.3085 64 74.6085 63.4 73.8085 63.4H64.0085C63.2085 63.4 62.5085 64 62.4085 64.8L61.4085 71.7C58.9085 72.4 56.5085 73.4 54.2085 74.8L48.8085 70.7C48.2085 70.2 47.3085 70.3 46.7085 70.9L39.7085 78.1C39.2085 78.7 39.1085 79.5 39.6085 80.1L43.6085 85.7C42.3085 88 41.3085 90.5 40.6085 93.1L33.9085 94.1C33.1085 94.2 32.6085 94.9 32.6085 95.7V99.2H25.2085C26.2085 89.2 29.6085 76.8 31.6085 70.1C32.5085 67.2 34.9085 65.2 37.7085 65C46.1085 64.3 54.0085 60.5 60.1085 55.1C62.8085 57.4 65.8085 58.9 69.0085 58.9C72.1085 58.9 75.1085 57.6 77.7085 55.3C81.9085 58.9 89.5085 64.1 99.8085 65C102.708 65.2 105.108 67.3 106.008 70.1C108.008 76.8 111.408 89.1 112.408 99.2H105.208Z" fill="#0272B0"/>
<path d="M69.0085 81.8C58.8085 81.8 50.4085 90.3 50.4085 100.8C50.4085 111.3 58.7085 119.8 69.0085 119.8C79.2085 119.8 87.6085 111.3 87.6085 100.8C87.5085 90.3 79.2085 81.8 69.0085 81.8ZM69.0085 116.6C60.5085 116.6 53.6085 109.5 53.6085 100.8C53.6085 92.1 60.5085 85 69.0085 85C77.5085 85 84.4085 92.1 84.4085 100.8C84.4085 109.5 77.5085 116.6 69.0085 116.6Z" fill="#0272B0"/>
</svg>
