<svg width="194" height="116" viewBox="0 0 194 116" fill="none" xmlns="http://www.w3.org/2000/svg">
<path d="M107.3 67.4C107.6 67.7 107.9 67.8 108.3 67.8H168.5C169.3 67.8 169.9 67.1 169.9 66.4V44.3C169.9 43.7 169.6 43.2 169 43L149.4 35.3C149.1 35 148.7 34.8 148.3 34.8C148.2 34.8 148.1 34.8 147.9 34.9C147.8 34.9 147.8 34.9 147.7 34.9C147.4 34.9 147 35 146.8 35.3L138.1 43.1L130 35.4C129.7 35.1 129.3 35 129 35C128.9 35 128.8 35 128.7 35C128.7 35 128.6 34.9 128.4 34.9C127.9 34.9 127.6 35.1 127.3 35.4L107.7 43.1C107.1 43.3 106.8 43.8 106.8 44.4V66.5C106.8 66.8 107 67.2 107.3 67.4ZM128.5 48.3H134V53.6L131.3 64.9H120V52.5C120 51.7 119.3 51.1 118.6 51.1C118.2 51.1 117.9 51.3 117.6 51.5C117.3 51.8 117.2 52.1 117.2 52.5V65H110V45.3L127.2 38.6V46.9C127.1 47.7 127.8 48.3 128.5 48.3ZM137 52.3V48.3H140.1V52.3H137ZM147 45.4H139.8L147 39V45.4ZM140.3 55.2L142.1 64.9H134.2L136.6 55.2H140.3ZM130 45.4V39.1L136.6 45.4H130ZM158.5 51.1C158.1 51.1 157.8 51.3 157.5 51.5C157.2 51.8 157.1 52.1 157.1 52.5V64.9H145.2L143 53.5V48.3H148.5C149.3 48.3 149.9 47.6 149.9 46.9V38.6L167.2 45.3V64.9H160V52.5C159.9 51.7 159.2 51.1 158.5 51.1Z" fill="#0272B0"/>
<path d="M138.7 32.5C147.7 32.5 155.1 25.2 155.1 16.2C155.1 14.8 154.9 13.6 154.6 12.3V12.2C152.8 5.2 146.4 0 138.7 0C131.5 0 125.5 4.6 123.3 10.9V11.1C122.7 12.7 122.4 14.5 122.4 16.3V16.5C122.4 25.3 129.8 32.5 138.7 32.5ZM142.6 9.6C144 8.2 145 6.5 145.4 4.6C148 6.2 150 8.5 151.1 11.4C150.7 11.4 150.3 11.4 149.9 11.4C147.4 11.4 144.8 10.8 142.6 9.6ZM130.8 14C134.4 14 137.6 13.1 140.2 11.5C142.9 13.3 146.3 14.3 150.1 14.3C150.8 14.3 151.4 14.2 152.1 14.2C152.2 14.9 152.3 15.6 152.3 16.3C152.3 20 150.8 23.3 148.3 25.8C145.9 28.2 142.5 29.7 138.8 29.7C135.1 29.7 131.7 28.2 129.3 25.8C126.9 23.4 125.3 20 125.3 16.3C125.3 16.1 125.3 15.9 125.3 15.7C125.3 14.8 125.4 14.1 125.6 13.3C127.3 13.7 129 14 130.8 14ZM138.7 2.8C140 2.8 141.4 3.1 142.7 3.4C142.5 5.3 141.4 7.1 139.6 8.4H139.4C137.2 9.9 134.2 11 130.7 11C129.2 11 127.8 10.8 126.3 10.4C128.7 6 133.3 2.8 138.7 2.8Z" fill="#0272B0"/>
<path d="M120.8 87.8H151.6C152.4 87.8 153 87.1 153 86.4C153 86 152.9 85.6 152.6 85.4C152.3 85.1 152 85 151.6 85H120.8C120 85 119.4 85.7 119.4 86.4V86.6C119.4 87 119.6 87.3 119.8 87.5C120.1 87.6 120.4 87.8 120.8 87.8Z" fill="#0272B0"/>
<path d="M119.8 94.6C119.5 94.9 119.4 95.2 119.4 95.6C119.4 96.4 120.1 97 120.8 97H160.4C161.2 97 161.8 96.3 161.8 95.6C161.8 95.2 161.7 94.8 161.4 94.6C161.1 94.3 160.8 94.2 160.4 94.2H120.8C120.4 94.2 120 94.3 119.8 94.6Z" fill="#0272B0"/>
<path d="M143.7 103.3H120.8C120 103.3 119.4 104 119.4 104.7C119.4 105.5 120.1 106.1 120.8 106.1H143.7C144.1 106.1 144.5 106 144.7 105.7C145 105.4 145.1 105.1 145.1 104.7C145.1 104.3 144.9 104 144.7 103.7C144.4 103.5 144 103.3 143.7 103.3Z" fill="#0272B0"/>
<path d="M193.3 50.8C193.3 49.5 192.6 48.2 191.3 47.7L186 45.4C185.6 45.2 185.2 45.1 184.7 45.1C183.4 45.1 182.2 45.8 181.6 47.1L180.2 50.2L168.4 77H107.3C106.5 77 105.9 77.7 105.9 78.4V112.7C105.9 113.1 106 113.5 106.3 113.7C106.6 114 106.9 114.1 107.3 114.1H182.8C183.6 114.1 184.2 113.4 184.2 112.7V78.5C184.2 78.1 184.1 77.7 183.8 77.5C183.5 77.2 183.2 77.1 182.8 77.1H181.9L189.1 60.9C189.3 60.7 189.4 60.5 189.5 60.4C189.6 60.2 189.6 60 189.6 59.8L191.6 55.3L193 52.2C193.2 51.7 193.3 51.2 193.3 50.8ZM187.3 57.7L181.1 55L181.9 53.3L182.3 52.6L188.5 55.3L187.3 57.7ZM173 90.3L166.8 87.6L170.6 79.2L180 57.8L186.2 60.5L173 90.3ZM163.5 87.6C163.4 87.8 163.4 88 163.4 88.2V88.3L163.8 99.5C163.8 100.1 164.2 100.5 164.6 100.8C164.8 100.9 165 100.9 165.2 100.9C165.5 100.9 165.8 100.8 166 100.7C166.1 100.7 166.1 100.6 166.1 100.5L174.5 93.2C174.6 93.1 174.7 93 174.8 92.8L180.4 80H181.2V111.3H108.5V79.9H167L163.5 87.6ZM166.7 96.3L166.4 90.5L171.1 92.5L166.7 96.3ZM189.6 52.7L183.4 50L184.2 48.2L184.3 48C184.4 48 184.5 47.9 184.6 47.9C184.7 47.9 184.7 47.9 184.7 47.9L190.1 50.2L190.3 50.3C190.3 50.4 190.4 50.5 190.4 50.6V50.7L189.6 52.7Z" fill="#0272B0"/>
<path d="M93.6 23.2H80V21.8C80 18.7 77.5 16.1 74.2 16.1C71.1 16.1 68.4 18.6 68.4 21.8V23.2H55.9V21.8C55.9 18.7 53.4 16.1 50.1 16.1C47 16.1 44.3 18.6 44.3 21.8V23.2H31.7V21.8C31.7 18.7 29.2 16.1 25.9 16.1C22.8 16.1 20.1 18.6 20.1 21.8V23.2H6.7C3 23.2 0 26.2 0 29.9V109.2C0 112.9 3 115.9 6.7 115.9H93.6C97.3 115.9 100.3 112.9 100.3 109.2V29.9C100.2 26.2 97.2 23.2 93.6 23.2ZM28.9 27.9C28.9 28.7 28.6 29.4 28 30C27.5 30.5 26.7 30.9 25.9 30.9C25.1 30.9 24.4 30.6 23.8 30C23.3 29.5 22.9 28.7 22.9 27.9V21.8C22.9 21 23.2 20.3 23.8 19.7C24.3 19.2 25.1 18.8 25.9 18.8C26.7 18.8 27.4 19.1 28 19.7C28.5 20.2 28.9 21 28.9 21.8V27.9ZM53.1 27.9C53.1 28.7 52.8 29.4 52.2 30C51.7 30.5 50.9 30.9 50.1 30.9C49.3 30.9 48.6 30.6 48 30C47.5 29.5 47.1 28.7 47.1 27.9V21.8C47.1 21 47.4 20.3 48 19.7C48.5 19.2 49.3 18.8 50.1 18.8C50.9 18.8 51.6 19.1 52.2 19.7C52.7 20.2 53.1 21 53.1 21.8V27.9ZM77.2 27.9C77.2 28.7 76.9 29.4 76.3 30C75.8 30.5 75 30.9 74.2 30.9C73.4 30.9 72.7 30.6 72.1 30C71.6 29.5 71.2 28.7 71.2 27.9V21.8C71.2 21 71.5 20.3 72.1 19.7C72.6 19.2 73.4 18.8 74.2 18.8C75 18.8 75.7 19.1 76.3 19.7C76.8 20.2 77.2 21 77.2 21.8V27.9ZM6.7 26H20.3V27.8C20.3 30.9 22.8 33.5 26.1 33.5C29.2 33.5 31.9 31 31.9 27.8V26H44.6V27.8C44.6 30.9 47.1 33.5 50.4 33.5C53.5 33.5 56.2 31 56.2 27.8V26H68.9V27.8C68.9 30.9 71.4 33.5 74.7 33.5C77.8 33.5 80.5 31 80.5 27.8V26H94.1C96.3 26 98 27.7 98 29.9V42H2.8V29.9C2.8 27.7 4.5 26 6.7 26ZM93.6 113.1H6.7C4.5 113.1 2.8 111.4 2.8 109.2V44.8H97.4V109.5H97.5C97.4 111.5 95.7 113 93.6 113.1Z" fill="#0272B0"/>
<path d="M32.6 80.2H18.6C18.2 80.2 17.8 80.3 17.6 80.6C17.3 80.9 17.2 81.2 17.2 81.6V105.8C17.3 106.2 17.4 106.5 17.7 106.8C17.9 107.1 18.3 107.3 18.6 107.3H32.6C33 107.3 33.4 107.2 33.6 106.9C33.9 106.6 34 106.3 34 105.9V81.6C34 81.2 33.9 80.8 33.6 80.6C33.4 80.4 33 80.2 32.6 80.2ZM20 83.1H31.2V104.5H20V83.1Z" fill="#0272B0"/>
<path d="M56.7 64.6H42.7C42.3 64.6 41.9 64.7 41.7 65C41.4 65.3 41.3 65.6 41.3 66V105.9C41.3 106.3 41.4 106.7 41.7 106.9C42 107.2 42.3 107.3 42.7 107.3H56.7C57.1 107.3 57.5 107.2 57.7 106.9C58 106.6 58.1 106.3 58.1 105.9V66C58.1 65.6 58 65.2 57.7 65C57.4 64.7 57.1 64.6 56.7 64.6ZM55.3 104.5H44.1V67.4H55.3V104.5Z" fill="#0272B0"/>
<path d="M80.8 74.8H66.8C66.1 74.8 65.4 75.4 65.4 76.2V105.9C65.4 106.3 65.5 106.7 65.8 106.9C66.1 107.2 66.4 107.3 66.8 107.3H80.8C81.2 107.3 81.6 107.2 81.8 106.9C82.1 106.6 82.2 106.3 82.2 105.9V76.2C82.2 75.8 82.1 75.4 81.8 75.2C81.5 74.9 81.2 74.8 80.8 74.8ZM68.1 77.5H79.3V104.5H68.1V77.5Z" fill="#0272B0"/>
<path d="M25.7 73.8C28.1 73.8 30 71.9 30 69.5C30 69.1 29.9 68.6 29.8 68.1L47.4 54.5C48.1 54.9 48.9 55.2 49.8 55.2C50.7 55.2 51.5 54.9 52.2 54.5L70 67.8C69.8 68.3 69.6 68.9 69.6 69.5C69.6 71.9 71.5 73.8 73.9 73.8C76.3 73.8 78.2 71.9 78.2 69.5C78.2 67.1 76.3 65.2 73.9 65.2C73.2 65.2 72.5 65.4 71.9 65.7L53.9 52.2C54.1 51.8 54.2 51.3 54.2 50.9C54.2 48.5 52.3 46.6 49.9 46.6C47.5 46.6 45.6 48.5 45.6 50.9C45.6 51.3 45.7 51.8 45.8 52.3L28.1 65.9C27.4 65.5 26.6 65.2 25.7 65.2C23.3 65.2 21.4 67.1 21.4 69.5C21.4 71.9 23.3 73.8 25.7 73.8ZM73.7 67.9C74.5 67.9 75.2 68.6 75.2 69.4C75.2 70.2 74.5 70.9 73.7 70.9C72.9 70.9 72.2 70.2 72.2 69.4C72.2 68.6 72.9 67.9 73.7 67.9ZM48.2 50.9V50.8C48.2 50 48.8 49.4 49.7 49.4C50.5 49.4 51.3 50.1 51.3 51C51.3 51.5 51.1 51.9 50.8 52.1C50.5 52.3 50.2 52.5 49.8 52.5C49.4 52.5 49 52.4 48.7 52.1C48.4 51.8 48.2 51.4 48.2 50.9ZM25.7 67.9C26.5 67.9 27.2 68.6 27.2 69.4C27.2 70.2 26.5 70.9 25.7 70.9C24.9 70.9 24.2 70.2 24.2 69.4C24.2 68.6 24.8 67.9 25.7 67.9Z" fill="#0272B0"/>
</svg>
