<svg width="190" height="175" viewBox="0 0 190 175" fill="none" xmlns="http://www.w3.org/2000/svg">
<path d="M27.38 112.5C29.21 112.522 31.0053 111.999 32.5375 110.998C34.0698 109.997 35.2699 108.564 35.9854 106.879C36.7009 105.195 36.8995 103.335 36.5559 101.538C36.2122 99.7401 35.342 98.0852 34.0556 96.7833C32.7693 95.4814 31.1249 94.5914 29.3315 94.2262C27.5381 93.8611 25.6767 94.0373 23.9837 94.7326C22.2907 95.4278 20.8427 96.6107 19.8235 98.1308C18.8043 99.651 18.2601 101.44 18.26 103.27C18.2508 104.475 18.4796 105.671 18.9333 106.788C19.387 107.904 20.0567 108.921 20.9039 109.778C21.7512 110.636 22.7594 111.318 23.8707 111.785C24.982 112.252 26.1745 112.495 27.38 112.5ZM27.38 96.5C28.7314 96.4782 30.0587 96.8589 31.1929 97.5938C32.3272 98.3287 33.2172 99.3845 33.7495 100.627C34.2818 101.869 34.4325 103.242 34.1823 104.57C33.9321 105.898 33.2923 107.122 32.3444 108.085C31.3966 109.049 30.1835 109.708 28.8595 109.98C27.5356 110.252 26.1608 110.123 24.91 109.611C23.6592 109.099 22.589 108.227 21.8358 107.105C21.0825 105.982 20.6802 104.662 20.68 103.31C20.6545 102.416 20.8092 101.526 21.135 100.694C21.4607 99.8608 21.9509 99.1022 22.5761 98.4629C23.2014 97.8237 23.949 97.3169 24.7743 96.9728C25.5996 96.6286 26.4858 96.4542 27.38 96.46V96.5Z" fill="#014BE4"/>
<path d="M82.27 147.81C82.274 146.049 81.7553 144.326 80.7798 142.86C79.8043 141.394 78.4157 140.25 76.7898 139.573C75.1639 138.897 73.3737 138.717 71.646 139.059C69.9182 139.4 68.3305 140.246 67.0839 141.49C65.8372 142.734 64.9875 144.319 64.6425 146.046C64.2975 147.773 64.4725 149.564 65.1456 151.191C65.8186 152.819 66.9593 154.21 68.4234 155.189C69.8874 156.167 71.6089 156.69 73.37 156.69C75.727 156.69 77.9877 155.755 79.6562 154.09C81.3247 152.426 82.2647 150.167 82.27 147.81ZM67.01 147.81C67.006 146.528 67.3827 145.273 68.0923 144.204C68.802 143.136 69.8126 142.303 70.9963 141.809C72.18 141.315 73.4836 141.184 74.7419 141.432C76.0002 141.68 77.1567 142.295 78.0649 143.201C78.9732 144.106 79.5923 145.261 79.844 146.518C80.0956 147.776 79.9685 149.08 79.4786 150.265C78.9888 151.45 78.1582 152.464 77.0922 153.176C76.0261 153.889 74.7725 154.27 73.49 154.27C72.6391 154.274 71.7959 154.11 71.0087 153.787C70.2214 153.464 69.5057 152.989 68.9027 152.389C68.2996 151.788 67.8211 151.075 67.4946 150.289C67.1681 149.503 67 148.661 67 147.81H67.01Z" fill="#014BE4"/>
<path d="M92.55 159.69C94.342 159.462 95.9883 158.585 97.177 157.225C98.3658 155.865 99.0144 154.116 99 152.31C99.0111 150.867 98.606 149.451 97.8332 148.232C97.0604 147.013 95.9527 146.042 94.6427 145.436C93.3326 144.83 91.8757 144.615 90.4464 144.815C89.017 145.016 87.6757 145.624 86.5831 146.567C85.4905 147.51 84.6927 148.748 84.2854 150.133C83.8781 151.518 83.8785 152.991 84.2865 154.375C84.6945 155.76 85.4928 156.997 86.5859 157.94C87.679 158.882 89.0205 159.49 90.45 159.69C88.3908 159.867 86.388 160.455 84.56 161.42C81.4736 158.67 77.4839 157.15 73.35 157.15C69.2161 157.15 65.2264 158.67 62.14 161.42C60.2923 160.505 58.299 159.92 56.25 159.69C58.0456 159.467 59.6967 158.592 60.8896 157.231C62.0824 155.871 62.7338 154.119 62.72 152.31C62.7311 150.867 62.326 149.451 61.5532 148.232C60.7804 147.013 59.6727 146.042 58.3627 145.436C57.0526 144.83 55.5957 144.615 54.1664 144.815C52.737 145.016 51.3957 145.624 50.3031 146.567C49.2105 147.51 48.4127 148.748 48.0054 150.133C47.5981 151.518 47.5985 152.991 48.0065 154.375C48.4145 155.76 49.2128 156.997 50.3059 157.94C51.399 158.882 52.7405 159.49 54.17 159.69C50.7792 159.947 47.5877 161.391 45.1568 163.769C42.7259 166.147 41.2115 169.306 40.88 172.69C40.8528 172.857 40.8634 173.028 40.9111 173.19C40.9588 173.353 41.0424 173.502 41.1557 173.628C41.2689 173.754 41.409 173.853 41.5655 173.917C41.7221 173.981 41.891 174.01 42.06 174H104.34C104.503 174.006 104.666 173.976 104.816 173.913C104.966 173.849 105.101 173.753 105.21 173.632C105.32 173.512 105.402 173.368 105.45 173.212C105.498 173.056 105.512 172.892 105.49 172.73C105.323 169.343 103.909 166.137 101.52 163.729C99.1308 161.322 95.936 159.883 92.55 159.69ZM86.43 152.19C86.428 151.182 86.7251 150.197 87.2837 149.358C87.8422 148.52 88.637 147.866 89.5675 147.479C90.498 147.093 91.5223 146.991 92.5106 147.187C93.4988 147.383 94.4067 147.868 95.1192 148.581C95.8316 149.293 96.3166 150.201 96.5127 151.189C96.7088 152.178 96.6071 153.202 96.2206 154.132C95.8341 155.063 95.1802 155.858 94.3416 156.416C93.503 156.975 92.5176 157.272 91.51 157.27C90.8399 157.281 90.1745 157.157 89.5533 156.905C88.932 156.654 88.3677 156.28 87.8938 155.806C87.4199 155.332 87.0461 154.768 86.7947 154.147C86.5432 153.526 86.4192 152.86 86.43 152.19ZM50.26 152.19C50.258 151.183 50.5549 150.198 51.113 149.359C51.671 148.521 52.4653 147.867 53.3952 147.48C54.3251 147.094 55.3488 146.991 56.3369 147.187C57.3249 147.382 58.2328 147.866 58.9456 148.577C59.6585 149.289 60.1442 150.196 60.3415 151.183C60.5387 152.171 60.4385 153.195 60.0535 154.126C59.6685 155.056 59.0162 155.852 58.1789 156.411C57.3416 156.971 56.3571 157.27 55.35 157.27C54.6809 157.275 54.0175 157.148 53.3982 156.894C52.7789 156.641 52.2161 156.267 51.7425 155.795C51.269 155.322 50.894 154.76 50.6395 154.141C50.385 153.522 50.256 152.859 50.26 152.19ZM43.68 171.58C44.2341 168.888 45.6954 166.468 47.8195 164.725C49.9436 162.981 52.6019 162.019 55.35 162C57.1038 162.035 58.8322 162.426 60.43 163.15C58.3897 165.544 57.0687 168.467 56.62 171.58H43.68ZM59.04 171.58C59.6506 168.189 61.4308 165.119 64.071 162.904C66.7111 160.69 70.0441 159.471 73.49 159.46C76.9254 159.458 80.25 160.675 82.8722 162.894C85.4944 165.114 87.2441 168.192 87.81 171.58H59.04ZM90.36 171.58C89.9073 168.466 88.583 165.543 86.54 163.15C88.1415 162.427 89.873 162.035 91.63 162C94.3731 162.037 97.0221 163.006 99.1425 164.746C101.263 166.487 102.729 168.897 103.3 171.58H90.36Z" fill="#014BE4"/>
<path d="M104.91 68.08H1.27C1.11044 68.0692 0.950342 68.0906 0.799259 68.143C0.648175 68.1955 0.50921 68.2778 0.390666 68.3852C0.272121 68.4925 0.176429 68.6226 0.109307 68.7678C0.0421844 68.9129 0.00500847 69.0701 0 69.23V134.23C0.00261503 134.566 0.137258 134.888 0.374865 135.125C0.612471 135.363 0.933984 135.497 1.27 135.5H2.66L1.16 140.92C1.01622 141.451 0.980109 142.005 1.0538 142.55C1.12748 143.094 1.30948 143.619 1.58905 144.092C1.86863 144.566 2.24013 144.979 2.68168 145.306C3.12322 145.634 3.62586 145.87 4.16 146C4.69067 146.144 5.24476 146.18 5.7896 146.106C6.33445 146.033 6.85903 145.851 7.33245 145.571C7.80587 145.291 8.21854 144.92 8.54614 144.478C8.87375 144.037 9.10967 143.534 9.24 143L13.75 125.35L14.91 124.77V168.96C14.9687 170.298 15.5417 171.562 16.5096 172.489C17.4774 173.415 18.7653 173.932 20.105 173.932C21.4447 173.932 22.7326 173.415 23.7004 172.489C24.6683 171.562 25.2413 170.298 25.3 168.96V148.73C25.3868 148.272 25.6305 147.859 25.9893 147.562C26.348 147.265 26.7992 147.103 27.265 147.103C27.7308 147.103 28.182 147.265 28.5407 147.562C28.8995 147.859 29.1432 148.272 29.23 148.73V168.92C29.23 170.299 29.7779 171.622 30.753 172.597C31.7282 173.572 33.0509 174.12 34.43 174.12C35.8091 174.12 37.1318 173.572 38.107 172.597C39.0821 171.622 39.63 170.299 39.63 168.92V135.46H104.91C105.247 135.457 105.57 135.323 105.809 135.086C106.048 134.848 106.185 134.527 106.19 134.19V69.19C106.18 69.0327 106.139 68.879 106.069 68.7377C105.999 68.5965 105.901 68.4706 105.782 68.3673C105.663 68.2641 105.525 68.1855 105.375 68.1362C105.225 68.0868 105.067 68.0677 104.91 68.08ZM39.29 123.81C39.118 123.631 38.8949 123.509 38.6512 123.461C38.4075 123.413 38.1549 123.441 37.9278 123.541C37.7006 123.642 37.5099 123.81 37.3815 124.023C37.253 124.235 37.1932 124.482 37.21 124.73V168.92C37.1675 169.627 36.8567 170.291 36.3409 170.777C35.8252 171.263 35.1435 171.533 34.435 171.533C33.7266 171.533 33.0448 171.263 32.5291 170.777C32.0133 170.291 31.7025 169.627 31.66 168.92V148.73C31.66 147.566 31.1975 146.449 30.3742 145.626C29.5509 144.803 28.4343 144.34 27.27 144.34C26.1057 144.34 24.9891 144.803 24.1658 145.626C23.3425 146.449 22.88 147.566 22.88 148.73V168.92C22.8375 169.627 22.5267 170.291 22.0109 170.777C21.4952 171.263 20.8135 171.533 20.105 171.533C19.3965 171.533 18.7148 171.263 18.1991 170.777C17.6833 170.291 17.3725 169.627 17.33 168.92V122.65C17.3312 122.447 17.2787 122.247 17.1778 122.071C17.0769 121.895 16.9312 121.749 16.7555 121.647C16.5798 121.546 16.3804 121.493 16.1774 121.493C15.9745 121.493 15.7752 121.548 15.6 121.65L12.25 123.5C12.082 123.559 11.9363 123.669 11.8326 123.814C11.7289 123.959 11.6721 124.132 11.67 124.31L7.05 142.5C6.94078 142.937 6.66554 143.314 6.28275 143.551C5.89995 143.788 5.43978 143.867 5 143.77C4.56216 143.652 4.18632 143.37 3.95001 142.983C3.7137 142.596 3.63495 142.133 3.73 141.69L8.73 121.15L17.97 116.15C18.78 115.81 18.32 115.69 20.05 115.69C20.4436 117.327 21.3746 118.785 22.6942 119.831C24.0139 120.877 25.6461 121.451 27.33 121.46C29.0185 121.469 30.6596 120.902 31.9829 119.853C33.3062 118.804 34.2328 117.336 34.61 115.69H35.7C36.096 115.746 36.4546 115.954 36.7 116.27L43.87 123.42C44.058 123.627 44.3177 123.754 44.5963 123.777C44.8749 123.799 45.1515 123.714 45.37 123.54L53.46 117.88C53.57 118 55.46 120.77 55.46 120.77L44.14 128.61L39.29 123.81ZM103.76 133H39.63V127.57L43.21 131.15C43.3997 131.357 43.6611 131.485 43.9413 131.508C44.2216 131.53 44.4999 131.445 44.72 131.27L57.89 122.15C58.1617 121.963 58.3494 121.678 58.413 121.354C58.4765 121.031 58.4109 120.696 58.23 120.42L57.31 119.15L71.64 109.15C71.8887 108.955 72.0545 108.674 72.1041 108.362C72.1537 108.05 72.0834 107.731 71.9073 107.469C71.7313 107.207 71.4625 107.021 71.1551 106.949C70.8476 106.877 70.5243 106.923 70.25 107.08L55.92 117.08L54.92 115.47C54.7333 115.199 54.4485 115.011 54.1257 114.945C53.803 114.88 53.4675 114.943 53.19 115.12L44.87 120.89L38.52 114.66C38.2086 114.271 37.8225 113.949 37.3846 113.712C36.9466 113.475 36.4656 113.328 35.97 113.28C35.1645 113.22 34.3555 113.22 33.55 113.28C33.2441 113.28 32.9505 113.401 32.7333 113.616C32.516 113.832 32.3926 114.124 32.39 114.43C32.2647 115.692 31.6749 116.862 30.7352 117.713C29.7954 118.564 28.5729 119.035 27.305 119.035C26.0371 119.035 24.8146 118.564 23.8748 117.713C22.9351 116.862 22.3453 115.692 22.22 114.43C22.1926 114.125 22.0524 113.841 21.8267 113.634C21.6011 113.427 21.3063 113.311 21 113.31H18.6C17.8903 113.388 17.2071 113.624 16.6 114L7.01 119.19C6.84202 119.249 6.69631 119.359 6.59258 119.504C6.48885 119.649 6.4321 119.822 6.43 120L3.24 132.92H2.43V70.5H103.76V133Z" fill="#014BE4"/>
<path d="M68.52 112.85C68.1849 112.85 67.8634 112.982 67.6255 113.218C67.3876 113.454 67.2526 113.775 67.25 114.11V115.38H65.25C64.9132 115.38 64.5901 115.514 64.352 115.752C64.1138 115.99 63.98 116.313 63.98 116.65C63.98 116.987 64.1138 117.31 64.352 117.548C64.5901 117.786 64.9132 117.92 65.25 117.92H68.49C68.826 117.917 69.1475 117.783 69.3851 117.545C69.6227 117.308 69.7574 116.986 69.76 116.65V114.11C69.7669 113.944 69.7397 113.779 69.6801 113.624C69.6205 113.47 69.5297 113.329 69.4135 113.211C69.2972 113.093 69.1579 113 69.0042 112.938C68.8505 112.876 68.6857 112.846 68.52 112.85Z" fill="#014BE4"/>
<path d="M60.31 111.23C60.6393 111.228 60.955 111.099 61.1915 110.869C61.428 110.64 61.5671 110.329 61.58 110V99.23H67.36V105.23C67.36 105.567 67.4938 105.89 67.732 106.128C67.9701 106.366 68.2932 106.5 68.63 106.5C68.9668 106.5 69.2898 106.366 69.528 106.128C69.7662 105.89 69.9 105.567 69.9 105.23V98C69.8974 97.664 69.7627 97.3425 69.5251 97.1049C69.2875 96.8672 68.966 96.7326 68.63 96.73H60.43C60.094 96.7326 59.7725 96.8672 59.5349 97.1049C59.2973 97.3425 59.1626 97.664 59.16 98V109.89C59.16 110.77 59.62 111.23 60.31 111.23Z" fill="#014BE4"/>
<path d="M75 117.69H83.2C83.536 117.687 83.8575 117.553 84.0951 117.315C84.3327 117.078 84.4674 116.756 84.47 116.42V87.12C84.4674 86.784 84.3327 86.4625 84.0951 86.2248C83.8575 85.9872 83.536 85.8526 83.2 85.85H75C74.6632 85.85 74.3401 85.9838 74.102 86.222C73.8638 86.4601 73.73 86.7832 73.73 87.12V116.54C73.7935 116.841 73.9505 117.114 74.1786 117.321C74.4067 117.527 74.6941 117.657 75 117.69ZM76.27 88.38H82V115.27H76.26L76.27 88.38Z" fill="#014BE4"/>
<path d="M89.78 117.69H98C98.336 117.687 98.6575 117.553 98.8951 117.315C99.1327 117.078 99.2674 116.756 99.27 116.42V76.15C99.2674 75.814 99.1327 75.4925 98.8951 75.2549C98.6575 75.0172 98.336 74.8826 98 74.88H89.8C89.464 74.8826 89.1425 75.0172 88.9049 75.2549C88.6673 75.4925 88.5326 75.814 88.53 76.15V116.54C88.5574 116.853 88.7008 117.145 88.9321 117.357C89.1634 117.57 89.4658 117.689 89.78 117.69ZM90.93 77.31H96.71V115.31H90.93V77.31Z" fill="#014BE4"/>
<path d="M187.53 18.81H168.93C168.533 18.8151 168.153 18.9745 167.871 19.2544C167.59 19.5343 167.428 19.9129 167.42 20.31V114.46C167.428 114.857 167.59 115.236 167.871 115.516C168.153 115.795 168.533 115.955 168.93 115.96H187.53C187.926 115.955 188.305 115.795 188.585 115.515C188.865 115.235 189.025 114.856 189.03 114.46V20.31C189.006 19.9199 188.841 19.552 188.564 19.2757C188.288 18.9993 187.92 18.8337 187.53 18.81ZM186 113H170.4V21.81H186V113Z" fill="#014BE4"/>
<path d="M142.7 32V114.5C142.705 114.896 142.865 115.275 143.145 115.555C143.425 115.835 143.804 115.995 144.2 116H162.8C163.196 115.995 163.575 115.835 163.855 115.555C164.135 115.275 164.295 114.896 164.3 114.5V32C164.295 31.6038 164.135 31.2252 163.855 30.9451C163.575 30.6649 163.196 30.5052 162.8 30.5H144.2C144.001 30.493 143.803 30.527 143.618 30.5999C143.433 30.6728 143.264 30.7831 143.124 30.9238C142.983 31.0645 142.873 31.2327 142.8 31.4178C142.727 31.6029 142.693 31.8011 142.7 32ZM145.59 33.5H161.18V113H145.59V33.5Z" fill="#014BE4"/>
<path d="M119.36 41.77V41.88C118.964 41.8876 118.585 42.0477 118.304 42.3271C118.023 42.6065 117.86 42.9837 117.85 43.38V114.58C117.86 114.976 118.023 115.353 118.304 115.633C118.585 115.912 118.964 116.072 119.36 116.08H138C138.395 116.072 138.772 115.912 139.052 115.632C139.332 115.352 139.492 114.975 139.5 114.58V43.27C139.495 42.8738 139.335 42.4952 139.055 42.2151C138.775 41.9349 138.396 41.7752 138 41.77H119.36ZM136.46 113H120.86V44.77H136.46V113Z" fill="#014BE4"/>
<path d="M188.11 123.46H118.78C118.633 123.462 118.489 123.506 118.367 123.588C118.244 123.669 118.148 123.785 118.09 123.92C117.934 124.23 117.851 124.573 117.85 124.92C117.877 125.264 117.958 125.601 118.09 125.92C118.148 126.055 118.244 126.171 118.367 126.252C118.489 126.334 118.633 126.378 118.78 126.38H188.11C188.256 126.375 188.398 126.329 188.52 126.248C188.642 126.167 188.739 126.053 188.8 125.92C188.953 125.609 189.031 125.267 189.03 124.92C189.006 124.577 188.928 124.239 188.8 123.92C188.57 123.69 188.45 123.46 188.11 123.46Z" fill="#014BE4"/>
<path d="M66 56.54C66.1628 56.5566 66.3261 56.514 66.46 56.42C67.15 56.19 124.23 35.42 152.65 5.53998V15.12C152.693 15.488 152.869 15.8275 153.145 16.0739C153.422 16.3203 153.78 16.4565 154.15 16.4565C154.52 16.4565 154.878 16.3203 155.155 16.0739C155.431 15.8275 155.607 15.488 155.65 15.12V2.18998C155.88 1.94004 156.002 1.60945 155.99 1.26998C155.962 0.847632 155.801 0.444984 155.53 0.119983C155.19 0.119983 154.84 -1.67095e-05 154.53 -1.67095e-05C154.19 -0.00633145 153.86 0.119063 153.61 0.349983H141.43C141.033 0.3551 140.653 0.514469 140.371 0.794395C140.09 1.07432 139.928 1.45286 139.92 1.84998C139.93 2.24631 140.093 2.62342 140.374 2.90282C140.655 3.18222 141.034 3.34239 141.43 3.34998H150.79C123.06 32.77 66.09 53.54 65.51 53.77C65.2387 53.8851 65.007 54.0771 64.8436 54.3224C64.6801 54.5676 64.5919 54.8553 64.59 55.15C64.5727 55.3159 64.6153 55.4826 64.71 55.62C64.7856 55.8988 64.9554 56.1428 65.1906 56.3105C65.4258 56.4782 65.7118 56.5593 66 56.54Z" fill="#014BE4"/>
<path d="M136.34 140.88H131L129.38 135.81C129.324 135.577 129.19 135.369 129.002 135.221C128.813 135.072 128.58 134.992 128.34 134.992C128.1 134.992 127.867 135.072 127.678 135.221C127.49 135.369 127.356 135.577 127.3 135.81L125.68 140.88H120.4C120.17 140.894 119.95 140.98 119.771 141.125C119.591 141.27 119.462 141.468 119.4 141.69C119.333 141.923 119.341 142.172 119.424 142.4C119.507 142.628 119.659 142.824 119.86 142.96L124.14 146.08L122.52 151.15C122.443 151.383 122.446 151.634 122.53 151.865C122.613 152.095 122.772 152.291 122.98 152.42C123.194 152.534 123.433 152.593 123.675 152.593C123.917 152.593 124.156 152.534 124.37 152.42L128.64 149.31L132.92 152.42C133.119 152.569 133.361 152.65 133.61 152.65C133.859 152.65 134.101 152.569 134.3 152.42C134.481 152.267 134.619 152.069 134.701 151.847C134.784 151.624 134.807 151.384 134.77 151.15L133.15 146.08L137.42 142.96C137.608 142.813 137.752 142.616 137.835 142.392C137.918 142.167 137.937 141.924 137.89 141.69C137.71 141.446 137.477 141.247 137.208 141.107C136.94 140.966 136.643 140.889 136.34 140.88ZM130.8 144.69C130.62 144.844 130.482 145.042 130.4 145.264C130.318 145.486 130.294 145.726 130.33 145.96L131.14 148.38L129.06 146.88C128.861 146.731 128.619 146.65 128.37 146.65C128.121 146.65 127.879 146.731 127.68 146.88L125.6 148.38L126.41 145.96C126.485 145.726 126.479 145.474 126.394 145.244C126.308 145.014 126.149 144.819 125.94 144.69L123.86 143.19H126.52C126.751 143.177 126.971 143.092 127.151 142.946C127.33 142.801 127.459 142.603 127.52 142.38L128.33 139.96L129.14 142.5C129.202 142.722 129.331 142.92 129.511 143.065C129.69 143.21 129.91 143.296 130.14 143.31H132.8L130.8 144.69Z" fill="#014BE4"/>
<path d="M159.33 140.88H154L152.38 135.81C152.324 135.577 152.19 135.369 152.002 135.221C151.813 135.072 151.58 134.992 151.34 134.992C151.1 134.992 150.867 135.072 150.678 135.221C150.49 135.369 150.356 135.577 150.3 135.81L148.68 140.88H143.25C143.02 140.896 142.801 140.982 142.622 141.127C142.443 141.272 142.313 141.469 142.25 141.69C142.186 141.923 142.196 142.171 142.278 142.398C142.361 142.626 142.511 142.822 142.71 142.96L146.99 146.08L145.37 151.15C145.296 151.383 145.301 151.633 145.385 151.863C145.468 152.093 145.624 152.288 145.83 152.42C146.044 152.534 146.283 152.593 146.525 152.593C146.767 152.593 147.006 152.534 147.22 152.42L151.5 149.31L155.77 152.42C155.971 152.569 156.215 152.649 156.465 152.649C156.715 152.649 156.959 152.569 157.16 152.42C157.34 152.266 157.477 152.068 157.557 151.846C157.638 151.623 157.66 151.383 157.62 151.15L156 146.08L160.28 142.96C160.467 142.811 160.608 142.614 160.69 142.39C160.771 142.166 160.788 141.924 160.74 141.69C160.587 141.452 160.379 141.254 160.134 141.113C159.888 140.973 159.613 140.892 159.33 140.88ZM153.67 144.69C153.491 144.845 153.355 145.042 153.274 145.265C153.193 145.487 153.171 145.727 153.21 145.96L154.02 148.38L151.94 146.88C151.739 146.731 151.495 146.651 151.245 146.651C150.995 146.651 150.751 146.731 150.55 146.88L148.47 148.38L149.28 145.96C149.357 145.727 149.354 145.476 149.27 145.245C149.187 145.015 149.028 144.819 148.82 144.69L146.74 143.08H149.4C149.63 143.064 149.849 142.978 150.028 142.833C150.207 142.688 150.337 142.491 150.4 142.27L151.21 139.85L152.01 142.38C152.072 142.602 152.201 142.8 152.381 142.945C152.56 143.09 152.78 143.176 153.01 143.19H155.67L153.67 144.69Z" fill="#014BE4"/>
<path d="M182.79 140.88H177.48L175.86 135.81C175.804 135.577 175.67 135.369 175.482 135.221C175.293 135.072 175.06 134.992 174.82 134.992C174.58 134.992 174.347 135.072 174.158 135.221C173.97 135.369 173.836 135.577 173.78 135.81L172.16 140.88H166.85C166.619 140.893 166.399 140.978 166.219 141.123C166.04 141.269 165.911 141.467 165.85 141.69C165.783 141.923 165.791 142.172 165.874 142.4C165.957 142.628 166.109 142.824 166.31 142.96L170.58 146.08L168.96 151.15C168.885 151.384 168.891 151.636 168.976 151.866C169.062 152.096 169.221 152.291 169.43 152.42C169.642 152.534 169.879 152.593 170.12 152.593C170.361 152.593 170.598 152.534 170.81 152.42L175.09 149.31L179.36 152.42C179.573 152.548 179.812 152.627 180.06 152.65C180.305 152.628 180.541 152.55 180.75 152.42C180.931 152.267 181.07 152.07 181.15 151.847C181.231 151.624 181.252 151.383 181.21 151.15L179.6 146.08L183.87 142.96C184.058 142.813 184.201 142.616 184.283 142.391C184.364 142.167 184.381 141.924 184.33 141.69C184.18 141.23 183.25 140.88 182.79 140.88ZM176.67 146L177.48 148.42L175.4 146.92C175.185 146.796 174.947 146.718 174.7 146.69C174.456 146.716 174.221 146.795 174.01 146.92L171.93 148.42L172.74 146C172.814 145.767 172.809 145.517 172.725 145.287C172.642 145.057 172.486 144.862 172.28 144.73L170.2 143.23H172.85C173.081 143.219 173.303 143.134 173.482 142.988C173.662 142.843 173.791 142.644 173.85 142.42L174.66 140L175.47 142.54C175.533 142.761 175.663 142.958 175.842 143.103C176.021 143.248 176.24 143.334 176.47 143.35H179.13L177.05 144.73C176.884 144.892 176.761 145.093 176.695 145.316C176.628 145.538 176.62 145.773 176.67 146Z" fill="#014BE4"/>
</svg>
