<svg width="251" height="150" viewBox="0 0 251 150" fill="none" xmlns="http://www.w3.org/2000/svg">
<path d="M30.8621 40.9483H26.2069V46.1207H30.8621V40.9483Z" fill="#014BE4"/>
<path d="M30.8621 51.4656H26.2069V56.638H30.8621V51.4656Z" fill="#014BE4"/>
<path d="M30.8621 62.069H26.2069V67.2414H30.8621V62.069Z" fill="#014BE4"/>
<path d="M30.8621 72.5001H26.2069V77.6725H30.8621V72.5001Z" fill="#014BE4"/>
<path d="M30.8621 83.1035H26.2069V88.2759H30.8621V83.1035Z" fill="#014BE4"/>
<path d="M30.8621 93.6208H26.2069V98.7932H30.8621V93.6208Z" fill="#014BE4"/>
<path d="M72.8448 40.9483H68.1897V46.1207H72.8448V40.9483Z" fill="#014BE4"/>
<path d="M72.8448 51.4656H68.1897V56.638H72.8448V51.4656Z" fill="#014BE4"/>
<path d="M72.8448 62.069H68.1897V67.2414H72.8448V62.069Z" fill="#014BE4"/>
<path d="M72.8448 72.5001H68.1897V77.6725H72.8448V72.5001Z" fill="#014BE4"/>
<path d="M72.8448 83.1035H68.1897V88.2759H72.8448V83.1035Z" fill="#014BE4"/>
<path d="M113.621 40.9483H108.966V46.1207H113.621V40.9483Z" fill="#014BE4"/>
<path d="M113.621 51.4656H108.966V56.638H113.621V51.4656Z" fill="#014BE4"/>
<path d="M113.621 62.069H108.966V67.2414H113.621V62.069Z" fill="#014BE4"/>
<path d="M113.621 72.5001H108.966V77.6725H113.621V72.5001Z" fill="#014BE4"/>
<path d="M113.621 83.1035H108.966V88.2759H113.621V83.1035Z" fill="#014BE4"/>
<path d="M154.741 40.9483H150.086V46.1207H154.741V40.9483Z" fill="#014BE4"/>
<path d="M154.741 51.4656H150.086V56.638H154.741V51.4656Z" fill="#014BE4"/>
<path d="M154.741 62.069H150.086V67.2414H154.741V62.069Z" fill="#014BE4"/>
<path d="M154.741 72.5001H150.086V77.6725H154.741V72.5001Z" fill="#014BE4"/>
<path d="M154.741 83.1035H150.086V88.2759H154.741V83.1035Z" fill="#014BE4"/>
<path d="M249.052 119.569C249.052 119.569 248.965 119.569 248.965 119.655C248.362 120 247.672 120.345 247.069 120.345C246.638 120.345 246.293 120.259 245.948 120.172C245.603 120.086 245.345 119.914 245.086 119.828C245.086 119.828 245 119.828 245 119.741L244.052 124.397C245.172 125 246.121 125.345 247.155 125.345C248.19 125.345 249.052 125.086 250.086 124.483L249.052 119.569Z" fill="#014BE4"/>
<path d="M245.776 113.448C245 113.879 244.397 114.828 244.397 115.948C244.397 117.5 245.517 118.793 246.897 118.793C248.362 118.793 249.483 117.5 249.397 115.948C249.397 114.914 248.879 113.966 248.017 113.448V105.862C248.017 105.086 247.5 104.569 246.81 104.569H240.172L176.379 86.207C176.207 86.1208 175.948 86.1208 175.776 86.207L168.879 88.0173V38.4483H178.966C179.655 38.4483 180.172 37.8449 180.172 37.1552V29.4828C180.172 28.707 179.655 28.1897 178.966 28.1897H178.448L90.6034 0.0862616C90.3448 5.47208e-05 90.1724 5.47208e-05 89.9138 0.0862616L1.46552 28.1897H1.2069C0.517241 28.1897 0 28.7932 0 29.4828V37.069C0 37.8449 0.517241 38.3621 1.2069 38.3621H11.3793V133.362H24.8276V136.293C24.8276 136.983 25.3448 137.5 25.9483 137.5H140.259V145.259L140.69 145.604C143.19 148.017 158.362 149.828 176.121 149.828C193.793 149.828 208.966 148.017 211.379 145.604L211.81 145.259V115.862L242.414 107.586C242.672 107.5 242.931 107.241 243.103 106.983H245.776V113.448ZM246.81 115.948C246.81 115.862 246.897 115.776 246.983 115.776C247.069 115.776 247.155 115.862 247.155 115.948C247.155 116.121 246.81 116.121 246.81 115.948ZM166.466 88.707L138.966 96.1208V48.3621H141.897C142.5 48.3621 142.931 47.7587 143.017 47.1552V38.4483H166.466V88.707ZM107.586 107.155L125.431 111.983V113.707H105V102.414C105 98.4483 107.931 95.1725 111.466 95.1725C114.828 95.1725 117.586 98.1035 117.931 101.81L107.672 104.569C107.155 104.741 106.724 105.259 106.724 105.862C106.638 106.466 107.069 106.983 107.586 107.155ZM35.3448 124.31V116.035H140.172V124.31H35.3448ZM39.9138 39.569H57.069V45.9483H54.6552C54.569 45.8621 54.3966 45.8621 54.2241 45.8621H42.8448C42.6724 45.8621 42.5862 45.8621 42.4138 45.9483H39.9138V39.569ZM43.8793 48.3621H53.1034V113.535H43.8793V48.3621ZM55.2586 48.3621H58.1034C58.7069 48.3621 59.2241 47.7587 59.2241 47.1552V38.4483H79.569V47.1552C79.569 47.8449 80.0862 48.3621 80.6897 48.3621H83.5345V113.621H79.2241V102.328C79.2241 96.7242 75.2586 92.3276 70.3448 92.3276C65.431 92.3276 61.4655 96.8966 61.4655 102.328V113.621H55.2586V48.3621ZM95 113.535H85.7759V48.3621H95V113.535ZM96.3793 46.0345C96.2931 45.9483 96.1207 45.9483 95.9483 45.9483H84.6552C84.4828 45.9483 84.3965 45.9483 84.2241 46.0345H81.7241V39.6552H98.8793V46.0345H96.3793ZM76.7241 113.621H63.7931V102.328C63.7931 98.3621 66.7241 95.0863 70.2586 95.0863C73.7931 95.0863 76.7241 98.2759 76.7241 102.328V113.621ZM127.5 113.535V112.5L131.466 113.535H127.5ZM120.172 101.121C119.655 96.1208 115.948 92.3276 111.379 92.3276C106.466 92.3276 102.5 96.8966 102.5 102.328V113.621H97.1552V48.3621H100.086C100.69 48.3621 101.207 47.7587 101.207 47.1552V38.4483H121.552V47.1552C121.552 47.8449 122.069 48.3621 122.672 48.3621H125.517V99.7414L120.172 101.121ZM138.276 46.0345C138.19 45.9483 138.017 45.9483 137.845 45.9483H126.552C126.379 45.9483 126.293 45.9483 126.121 46.0345H123.621V39.6552H140.776V46.0345H138.276ZM127.586 48.3621H136.81V96.638L127.586 99.138V48.3621ZM90.2586 2.67247L169.828 28.1897H10.3448L90.2586 2.67247ZM2.32759 35.8621V31.0345H177.672V35.8621H2.32759ZM24.7414 125.604V130.776H13.7069V38.4483H37.7586V47.1552C37.7586 47.8449 38.2759 48.3621 38.8793 48.3621H41.8103V113.621H34.2241C33.6207 113.621 33.1035 114.224 33.1035 114.828V124.397H25.8621C25.2586 124.397 24.7414 125 24.7414 125.604ZM26.8966 135.086V126.81H33.7931C33.8793 126.897 34.0517 126.897 34.2241 126.897H140.172V135.086H26.8966ZM209.397 144.052C206.897 145.259 195.517 147.328 176.034 147.328C156.466 147.328 145.172 145.259 142.672 144.052V117.241L175.517 126.035C175.948 126.121 176.379 126.121 176.724 126.035L209.569 117.241V144.052H209.397ZM176.034 122.672L113.017 105.776L176.034 88.7932L230.776 104.483H177.069C176.379 104.483 175.862 105.086 175.862 105.776C175.862 106.552 176.379 107.069 177.069 107.069H233.879L176.034 122.672Z" fill="#014BE4"/>
</svg>
