<svg width="145" height="141" viewBox="0 0 145 141" fill="none" xmlns="http://www.w3.org/2000/svg">
<path d="M48.7901 35.5907C49.7522 35.6026 50.6961 35.328 51.5018 34.802C52.3074 34.2759 52.9384 33.5221 53.3144 32.6364C53.6904 31.7507 53.7945 30.7731 53.6134 29.8281C53.4322 28.8831 52.9741 28.0134 52.2973 27.3295C51.6204 26.6456 50.7555 26.1784 49.8124 25.9875C48.8693 25.7966 47.8908 25.8905 47.0012 26.2573C46.1117 26.6241 45.3513 27.2472 44.8169 28.0473C44.2825 28.8475 43.9982 29.7885 44.0001 30.7507C44 32.0257 44.5031 33.2493 45.3999 34.1555C46.2968 35.0618 47.5151 35.5775 48.7901 35.5907ZM47.2901 29.2307C47.4849 29.0299 47.718 28.8703 47.9757 28.7613C48.2334 28.6522 48.5103 28.5961 48.7901 28.5961C49.0698 28.5961 49.3468 28.6522 49.6044 28.7613C49.8621 28.8703 50.0952 29.0299 50.2901 29.2307C50.6924 29.6344 50.9188 30.1808 50.9201 30.7507C50.9184 31.3176 50.6918 31.8607 50.2901 32.2607C50.0952 32.4615 49.8621 32.6211 49.6044 32.7301C49.3468 32.8392 49.0698 32.8953 48.7901 32.8953C48.5103 32.8953 48.2334 32.8392 47.9757 32.7301C47.718 32.6211 47.4849 32.4615 47.2901 32.2607C46.8883 31.8607 46.6618 31.3176 46.6601 30.7507C46.6613 30.1808 46.8878 29.6344 47.2901 29.2307Z" fill="#014BE4"/>
<path d="M119.3 20.8107C120.568 20.7851 121.776 20.2702 122.673 19.3736C123.57 18.477 124.085 17.2684 124.11 16.0007C124.102 15.0511 123.813 14.1251 123.28 13.3394C122.747 12.5537 121.993 11.9434 121.113 11.5855C120.234 11.2275 119.268 11.138 118.337 11.3281C117.407 11.5181 116.554 11.9794 115.885 12.6536C115.216 13.3279 114.762 14.185 114.58 15.1169C114.397 16.0489 114.495 17.0139 114.86 17.8905C115.225 18.7671 115.842 19.516 116.632 20.0428C117.422 20.5696 118.35 20.8507 119.3 20.8507V20.8107ZM117.8 14.5607C117.996 14.3621 118.23 14.2042 118.487 14.0961C118.745 13.988 119.021 13.9318 119.3 13.9307C119.572 13.9317 119.841 13.988 120.09 14.0963C120.339 14.2047 120.564 14.3627 120.75 14.5607C121.14 14.9802 121.376 15.5196 121.42 16.0907C121.425 16.5124 121.304 16.9261 121.072 17.2782C120.84 17.6304 120.508 17.9049 120.118 18.0664C119.728 18.2278 119.299 18.2688 118.886 18.184C118.473 18.0992 118.095 17.8926 117.8 17.5907C117.398 17.1907 117.172 16.6476 117.17 16.0807C117.171 15.5108 117.398 14.9644 117.8 14.5607Z" fill="#014BE4"/>
<path d="M43.8101 120.211C43.825 120.028 43.825 119.844 43.8101 119.661V119.531C43.6694 118.539 43.179 117.63 42.4272 116.968C41.6753 116.306 40.7117 115.935 39.7101 115.921C39.5469 115.911 39.3832 115.911 39.2201 115.921H39.1301L39.0001 116.001C38.0112 116.1 37.0932 116.559 36.4201 117.291C35.73 118.063 35.3521 119.065 35.3601 120.101C35.3502 120.261 35.3502 120.421 35.3601 120.581V120.641C35.5088 121.651 35.9994 122.579 36.7501 123.271C37.3133 123.78 38.0048 124.126 38.7501 124.271C39.006 124.328 39.2678 124.355 39.5301 124.351H40.1601C41.1615 124.21 42.0793 123.715 42.7471 122.955C43.4149 122.196 43.7884 121.222 43.8001 120.211H43.8101ZM41.3001 120.291C41.2923 120.416 41.2687 120.541 41.2301 120.661C41.1584 120.903 41.0318 121.125 40.8601 121.311C40.6843 121.499 40.4738 121.652 40.2401 121.761C40.0879 121.833 39.9263 121.883 39.7601 121.911H39.2601C38.9593 121.848 38.6821 121.703 38.4601 121.491C38.1417 121.19 37.9309 120.793 37.8601 120.361V120.141C37.8752 119.735 38.0348 119.349 38.3101 119.051C38.603 118.726 38.9981 118.51 39.4301 118.441H39.7101C39.833 118.445 39.9546 118.468 40.0701 118.511C40.3073 118.587 40.5255 118.713 40.7101 118.881C40.8983 119.054 41.0482 119.266 41.1501 119.501C41.2301 119.661 41.2841 119.833 41.3101 120.011V120.221L41.3001 120.291Z" fill="#014BE4"/>
<path d="M144.77 91.4407C144.726 90.3292 144.38 89.2507 143.77 88.3207C142.902 87.1006 141.648 86.2092 140.21 85.7907C138.832 85.3779 137.399 85.1789 135.96 85.2007H135.84C135.018 85.2031 134.196 85.2532 133.38 85.3507H133.13C128.253 86.2305 123.496 87.6839 118.96 89.6807C116.56 90.6807 114.25 91.7607 112.14 92.9407C110.65 93.7407 109.28 94.5507 108.01 95.3607L107.4 95.7507C107.4 95.5307 107.4 95.3107 107.31 95.0807C107.089 93.7165 106.521 92.432 105.66 91.3507C104.729 90.1646 103.599 89.1494 102.32 88.3507C100.922 87.4748 99.4532 86.7156 97.9301 86.0807C95.8121 85.1844 93.6333 84.4392 91.4101 83.8507C89.8501 83.3707 88.4101 83.1407 87.0401 82.8507H86.9501L86.0001 82.7007V70.6507C89.5758 71.4189 93.2227 71.8077 96.8801 71.8107C105.48 71.8107 112.3 69.3807 117.05 64.4807C121.87 59.6307 124.34 52.6307 124.34 44.0207C124.315 40.348 123.927 36.6868 123.18 33.0907C123.109 32.8172 122.96 32.5704 122.75 32.3807C122.577 32.2183 122.368 32.0984 122.14 32.0307C118.56 31.2702 114.91 30.8848 111.25 30.8807C102.77 30.8807 95.9401 33.3107 91.0901 38.2107C88.9229 40.3923 87.2218 42.9915 86.0901 45.8507V28.4207C88.7653 28.1371 91.3061 27.1036 93.4197 25.4392C95.5332 23.7748 97.1337 21.5472 98.0366 19.0129C98.9395 16.4787 99.1082 13.741 98.5232 11.1151C97.9382 8.48922 96.6233 6.08199 94.7301 4.1707C93.4204 2.85125 91.8625 1.80403 90.1462 1.08939C88.4299 0.374755 86.5892 0.00683594 84.7301 0.00683594C82.8709 0.00683594 81.0302 0.374755 79.3139 1.08939C77.5977 1.80403 76.0398 2.85125 74.7301 4.1707C72.0827 6.85579 70.5985 10.475 70.5985 14.2457C70.5985 18.0164 72.0827 21.6356 74.7301 24.3207C77.06 26.6761 80.1498 28.1289 83.4501 28.4207V52.1007C82.7265 50.6848 81.7926 49.3868 80.6801 48.2507C77.3001 44.8407 72.5201 43.0907 66.5401 43.0907C63.9882 43.0856 61.4434 43.3572 58.9501 43.9007C58.6733 43.964 58.4243 44.1147 58.2401 44.3307C58.0812 44.5067 57.9618 44.7147 57.8901 44.9407C57.398 47.4177 57.1402 49.9354 57.1201 52.4607C57.1201 58.5207 58.8301 63.4607 62.2001 66.8207C65.5701 70.1807 70.3301 72.0007 76.3101 72.0007C78.7053 71.9999 81.0943 71.7553 83.4401 71.2707V82.2707C82.3601 82.0907 81.2701 81.9307 80.1901 81.8107C78.6901 81.5807 77.3201 81.4607 75.9801 81.3507C73.6701 81.1207 71.3601 81.0007 69.2801 81.0007C66.9136 80.9393 64.5465 81.1 62.2101 81.4807H62.1501C61.2501 81.7007 60.3101 81.9407 59.2501 82.3007C55.165 83.6558 51.2011 85.3517 47.4001 87.3707C43.4601 89.3707 39.7501 91.5007 36.9701 93.1007L19.9701 98.4507C19.6747 98.5173 19.4136 98.6889 19.2352 98.9335C19.0568 99.1781 18.9733 99.4791 19.0001 99.7807L22.7301 138.911V139.091C22.7395 139.189 22.7596 139.287 22.7901 139.381L22.9101 139.631V139.691L23.0501 139.851L23.2501 140.001L23.4801 140.101C23.7672 140.192 24.0781 140.17 24.3501 140.041L54.0801 126.701L54.4101 126.481L54.5201 126.351L54.6601 126.171L54.7201 125.991L54.7901 125.801V125.391L54.1201 119.991C58.4359 118.208 63.0421 117.232 67.7101 117.111C72.4601 117.111 76.1601 118.351 80.2201 119.671C84.8142 121.369 89.6626 122.279 94.5601 122.361H94.6701C95.6701 122.361 96.6201 122.361 97.6701 122.251C99.4881 122.036 101.276 121.617 103 121.001C110.11 118.681 120.38 113.441 129 107.821C132.905 105.343 136.585 102.529 140 99.4107C141.283 98.2299 142.436 96.9158 143.44 95.4907C144.265 94.3902 144.751 93.0732 144.84 91.7007C144.78 91.6307 144.77 91.5307 144.77 91.4407ZM92.8401 40.0607C97.1901 35.6807 103.33 33.5307 111.22 33.5307C114.434 33.5634 117.638 33.8982 120.79 34.5307C121.396 37.6987 121.714 40.9152 121.74 44.1407C121.74 52.0507 119.54 58.3007 115.28 62.5907C111.02 66.8807 104.79 69.1307 96.8901 69.1307C94.2449 69.097 91.6065 68.8529 89.0001 68.4007L92.5801 64.6407L106.87 62.4007C107.179 62.3491 107.461 62.1939 107.67 61.9607C107.88 61.7239 107.994 61.4172 107.99 61.1007C108 61.0076 108 60.9138 107.99 60.8207C107.931 60.5104 107.768 60.2294 107.528 60.024C107.288 59.8186 106.986 59.7011 106.67 59.6907H106.43L95.6401 61.3907L111 45.2207C111.236 44.9613 111.365 44.6216 111.36 44.2707C111.365 44.0068 111.292 43.7472 111.15 43.5245C111.008 43.3019 110.804 43.1262 110.563 43.0193C110.321 42.9125 110.054 42.8794 109.793 42.9241C109.533 42.9688 109.292 43.0894 109.1 43.2707L91.0001 62.3707L90.9001 62.4607V62.5307L87.1801 66.4407C86.7205 63.7647 86.4797 61.0558 86.4601 58.3407C86.4201 50.5407 88.6201 44.3207 92.8401 40.0607ZM82.7301 67.0607L79.5501 63.7307L80.0901 55.0307C80.1083 54.6679 79.9906 54.3114 79.7601 54.0307C79.6396 53.8846 79.486 53.7694 79.3121 53.6947C79.1382 53.6199 78.9489 53.5877 78.7601 53.6007C78.3973 53.5825 78.0407 53.7001 77.7601 53.9307C77.6265 54.0485 77.5192 54.193 77.4451 54.355C77.371 54.5169 77.3318 54.6926 77.3301 54.8707L77.0001 61.1107L68.0001 51.6907C67.7431 51.4524 67.4055 51.3201 67.0551 51.3201C66.7046 51.3201 66.3671 51.4524 66.1101 51.6907C65.9827 51.8228 65.8841 51.9799 65.8205 52.152C65.7568 52.3241 65.7294 52.5075 65.7401 52.6907C65.7344 53.0387 65.8634 53.3755 66.1001 53.6307L69.3801 57.0007L64.7901 58.7507C64.5467 58.8624 64.3376 59.0373 64.1846 59.2571C64.0316 59.4769 63.9403 59.7337 63.9201 60.0007C63.92 60.1487 63.9507 60.2951 64.0101 60.4307C64.1094 60.6738 64.2895 60.8751 64.5201 61.0007C64.7383 61.1391 64.9917 61.212 65.2501 61.2107H65.6601L71.3901 59.0307L77.0001 64.9307L77.1901 65.1607H77.2601L80.9101 69.0007C79.388 69.238 77.8505 69.3616 76.3101 69.3707C71.0301 69.3707 66.9401 67.9007 64.0701 65.0107C61.2001 62.1207 59.7701 58.0107 59.7701 52.6607C59.7847 50.5803 59.9855 48.5053 60.3701 46.4607C62.3773 46.103 64.4112 45.9157 66.4501 45.9007C71.7301 45.9007 75.8701 47.3407 78.7701 50.1807C81.6701 53.0207 83.0601 57.1807 83.0701 62.5207C83.0591 64.0499 82.9455 65.5767 82.7301 67.0907V67.0607ZM76.5501 22.4607C74.3714 20.2687 73.152 17.3013 73.1601 14.2107C73.104 12.6601 73.362 11.1142 73.9186 9.66592C74.4752 8.21761 75.3188 6.89677 76.3989 5.78281C77.4789 4.66884 78.773 3.78474 80.2035 3.18364C81.6339 2.58254 83.171 2.27685 84.7226 2.28495C86.2742 2.29304 87.8081 2.61475 89.2321 3.23075C90.6562 3.84674 91.941 4.7443 93.0094 5.86947C94.0777 6.99465 94.9076 8.32421 95.449 9.77826C95.9904 11.2323 96.2323 12.7808 96.1601 14.3307C96.1643 17.3784 94.9638 20.3043 92.8201 22.4707C91.7626 23.5514 90.4991 24.4092 89.1044 24.9931C87.7097 25.5771 86.2121 25.8755 84.7001 25.8707C83.1856 25.8738 81.6856 25.5766 80.2868 24.9965C78.8879 24.4163 77.6178 23.5647 76.5501 22.4907V22.4607ZM25.0801 137.111L21.6901 100.551L36.8801 95.7907L51.4501 119.581L52.1901 124.811L25.0801 137.111ZM141.87 92.9107C141.238 94.161 140.415 95.3049 139.43 96.3007C136.685 99.0769 133.67 101.573 130.43 103.751C124.572 107.809 118.411 111.409 112 114.521C109.227 115.889 106.383 117.107 103.48 118.171C101.507 118.946 99.444 119.47 97.3401 119.731C96.3401 119.801 95.4801 119.841 94.6101 119.841C89.9779 119.75 85.394 118.882 81.0501 117.271C77.0501 115.971 72.9501 114.581 67.7401 114.581H67.6801C62.7253 114.703 57.8334 115.719 53.2401 117.581L39.2401 94.6707C41.8501 93.1707 45.0901 91.3407 48.4701 89.6107C52.1705 87.657 56.0272 86.0147 60.0001 84.7007C61.0001 84.3807 61.8201 84.1607 62.7101 83.9307C64.8792 83.5886 67.0749 83.4447 69.2701 83.5007C71.4311 83.5055 73.5905 83.6189 75.7401 83.8407C77.1001 83.9607 78.4301 84.0707 79.8601 84.2907H79.9201C81.9901 84.5007 84.2301 84.9507 86.4101 85.2907C87.9201 85.6407 89.2301 85.8707 90.6001 86.2907H90.6601C92.771 86.8457 94.8396 87.5509 96.8501 88.4007C98.2376 88.9845 99.5753 89.6801 100.85 90.4807C101.881 91.1162 102.797 91.9208 103.56 92.8607C104.17 93.6093 104.571 94.5066 104.72 95.4607C104.783 95.7904 104.816 96.1251 104.82 96.4607C104.82 96.8707 104.76 97.2785 104.64 97.6707C104.499 97.8433 104.405 98.0503 104.37 98.2707C104.193 98.5843 103.963 98.8651 103.69 99.1007C102.92 99.6809 102.027 100.078 101.08 100.261C99.7897 100.542 98.4705 100.67 97.1501 100.641C93.4176 100.543 89.7049 100.064 86.0701 99.2107C82.5301 98.4407 79.5501 97.5807 78.1901 97.2107C78.03 97.1614 77.8617 97.1447 77.695 97.1617C77.5284 97.1786 77.3669 97.2289 77.2201 97.3096C77.0733 97.3902 76.9442 97.4995 76.8404 97.631C76.7367 97.7625 76.6604 97.9135 76.6162 98.0751C76.5719 98.2366 76.5606 98.4054 76.5829 98.5714C76.6051 98.7374 76.6606 98.8972 76.7458 99.0414C76.831 99.1856 76.9444 99.3112 77.0791 99.4107C77.2139 99.5102 77.3672 99.5816 77.5301 99.6207C78.8601 99.9807 81.9201 100.861 85.5301 101.621C89.3391 102.512 93.2294 103.012 97.1401 103.111C99.1163 103.165 101.087 102.884 102.97 102.281C103.809 101.988 104.59 101.551 105.28 100.991C105.873 100.493 106.36 99.8811 106.71 99.1907C107.537 98.5309 108.409 97.9295 109.32 97.3907C110.54 96.6107 111.873 95.8274 113.32 95.0407C115.51 94.0007 117.76 93.0007 120 92.0007C124.32 90.1121 128.843 88.7263 133.48 87.8707H133.64C134.37 87.782 135.105 87.7353 135.84 87.7307C137.345 87.6751 138.841 87.9731 140.21 88.6007C140.742 88.8675 141.199 89.2628 141.54 89.7507C141.908 90.3146 142.115 90.9679 142.14 91.6407V91.7507C142.128 92.1515 142.037 92.546 141.87 92.9107Z" fill="#014BE4"/>
<path d="M19.6701 39.5707C21.3487 39.5657 23.0055 39.1905 24.5224 38.4716C26.0394 37.7528 27.379 36.7081 28.4458 35.4121C29.5126 34.1161 30.2803 32.6007 30.6942 30.9739C31.108 29.347 31.1579 27.649 30.8401 26.0007C30.942 25.7717 30.9733 25.5176 30.9301 25.2707C30.9164 25.1136 30.8658 24.9619 30.7824 24.8281C30.699 24.6943 30.5851 24.5821 30.4501 24.5007C29.7723 22.5233 28.5629 20.7708 26.9547 19.4355C25.3465 18.1001 23.4016 17.2335 21.3333 16.9307C19.265 16.6279 17.1533 16.9007 15.2298 17.719C13.3063 18.5374 11.6454 19.8697 10.4292 21.5698C9.21305 23.27 8.48866 25.2722 8.33551 27.3569C8.18236 29.4417 8.60637 31.5283 9.56101 33.3879C10.5156 35.2475 11.964 36.8082 13.7473 37.8989C15.5305 38.9896 17.5797 39.568 19.6701 39.5707ZM19.6701 18.9407C21.451 18.9532 23.1892 19.4875 24.6697 20.4775C26.1502 21.4675 27.3081 22.8697 28.0001 24.5107C25.8008 24.5827 23.6471 23.8742 21.9201 22.5107C21.6562 22.3232 21.3304 22.2444 21.0101 22.2907C20.853 22.3068 20.7009 22.355 20.5632 22.4324C20.4256 22.5098 20.3054 22.6148 20.2101 22.7407C19.3711 23.8639 18.2838 24.7778 17.033 25.411C15.7822 26.0442 14.4019 26.3795 13.0001 26.3907C12.2668 26.401 11.535 26.3238 10.8201 26.1607C11.256 24.1311 12.3699 22.3104 13.9785 20.9981C15.587 19.6859 17.5943 18.9603 19.6701 18.9407ZM12.8501 28.6807C14.4442 28.6595 16.0184 28.3235 17.4823 27.6919C18.9462 27.0604 20.2708 26.1458 21.3801 25.0007C23.5557 26.3612 26.1128 26.9821 28.6701 26.7707C28.7336 27.2079 28.767 27.6489 28.7701 28.0907C28.8152 30.5015 27.9007 32.8315 26.2279 34.5681C24.555 36.3047 22.2609 37.3056 19.8501 37.3507C17.4392 37.3958 15.1093 36.4813 13.3727 34.8085C11.6361 33.1357 10.6352 30.8415 10.5901 28.4307C11.334 28.5842 12.0906 28.6679 12.8501 28.6807Z" fill="#014BE4"/>
<path d="M33.0001 80.3707V74.3707C33.6809 74.8077 34.4685 75.0499 35.2772 75.0711C36.086 75.0922 36.8851 74.8915 37.5879 74.4907C38.2906 74.0898 38.8702 73.5042 39.2637 72.7973C39.6572 72.0904 39.8496 71.2892 39.8201 70.4807V54.2407C39.8334 51.0402 38.5782 47.9647 36.3291 45.6876C34.0801 43.4105 31.0205 42.1171 27.8201 42.0907H12.0501C8.84176 42.1066 5.77087 43.395 3.51163 45.6729C1.25238 47.9509 -0.01057 51.0324 6.66459e-05 54.2407V70.5107C-0.00260396 71.7219 0.474641 72.8849 1.32736 73.7451C2.18009 74.6054 3.33885 75.0928 4.55007 75.1007C5.35011 75.0925 6.13356 74.8716 6.82007 74.4607V80.3707C6.82001 80.5243 6.85072 80.6763 6.91038 80.8178C6.97004 80.9594 7.05745 81.0875 7.16743 81.1947C7.27742 81.3019 7.40776 81.3859 7.55076 81.4419C7.69377 81.4979 7.84654 81.5247 8.00007 81.5207H32.0001C32.1425 81.5146 32.2823 81.4795 32.4107 81.4176C32.5392 81.3557 32.6537 81.2683 32.7473 81.1607C32.8408 81.0531 32.9115 80.9275 32.955 80.7917C32.9984 80.6559 33.0138 80.5126 33.0001 80.3707ZM30.7101 61.9207V79.2307H9.10007V61.9207C9.10007 61.6184 8.97996 61.3284 8.76617 61.1146C8.55238 60.9008 8.26241 60.7807 7.96007 60.7807C7.65772 60.7807 7.36776 60.9008 7.15396 61.1146C6.94017 61.3284 6.82007 61.6184 6.82007 61.9207V70.5107C6.82273 71.1163 6.58538 71.6984 6.15996 72.1294C5.73453 72.5604 5.15568 72.8054 4.55007 72.8107C4.2651 72.8094 3.98318 72.752 3.7204 72.6417C3.45763 72.5314 3.21914 72.3705 3.01857 72.1681C2.81799 71.9656 2.65925 71.7257 2.55142 71.4619C2.44358 71.1981 2.38875 70.9157 2.39007 70.6307V54.3507C2.3848 53.0769 2.63049 51.8145 3.11311 50.6356C3.59572 49.4567 4.30581 48.3845 5.20282 47.48C6.09984 46.5756 7.16622 45.8567 8.34107 45.3644C9.51592 44.872 10.7762 44.6159 12.0501 44.6107H28.0001C29.2739 44.6159 30.5342 44.872 31.7091 45.3644C32.8839 45.8567 33.9503 46.5756 34.8473 47.48C35.7443 48.3845 36.4544 49.4567 36.937 50.6356C37.4196 51.8145 37.6653 53.0769 37.6601 54.3507V70.5107C37.6252 71.1042 37.3757 71.6648 36.958 72.088C36.5404 72.5112 35.9831 72.768 35.3901 72.8107C34.7835 72.8054 34.2037 72.5608 33.7766 72.13C33.3496 71.6993 33.11 71.1173 33.1101 70.5107V66.3907C33.108 66.2279 33.0705 66.0675 33.0001 65.9207V61.9207C33.0149 61.7627 32.9966 61.6033 32.9463 61.4528C32.896 61.3023 32.8149 61.1639 32.708 61.0466C32.6012 60.9292 32.471 60.8355 32.3259 60.7713C32.1807 60.7072 32.0238 60.674 31.8651 60.674C31.7064 60.674 31.5494 60.7072 31.4043 60.7713C31.2591 60.8355 31.1289 60.9292 31.0221 61.0466C30.9153 61.1639 30.8341 61.3023 30.7838 61.4528C30.7335 61.6033 30.7152 61.7627 30.7301 61.9207H30.7101Z" fill="#014BE4"/>
</svg>
