<svg width="579" height="591" viewBox="0 0 579 591" fill="none" xmlns="http://www.w3.org/2000/svg">
<path d="M590.285 512.811C590.285 500.929 589.422 489.263 587.964 477.812L635.039 445.568L614.201 381.405L557.355 382.971C546.018 362.177 532.036 343.058 515.841 325.99L534.951 272.305L480.427 232.661L435.404 267.336C414.404 257.29 391.838 249.944 368.247 245.57L352.213 190.966H284.787L268.699 245.57C245.108 249.944 222.596 257.29 201.542 267.336L156.573 232.607L102.049 272.251L121.159 325.936C105.018 343.004 90.982 362.123 79.6452 382.917L22.7455 381.405L1.96143 445.568L49.036 477.812C47.5784 489.263 46.7146 500.929 46.7146 512.811C46.7146 524.801 47.5784 536.575 49.09 548.133L1.96143 580.431L22.7995 644.595L79.8612 643.029C91.1979 663.769 105.126 682.78 121.267 699.793L102.103 753.749L156.627 793.393L201.92 758.502C222.812 768.44 245.216 775.785 268.699 780.106L284.895 835.034H352.321L368.517 780.106C391.946 775.731 414.35 768.44 435.296 758.502L480.589 793.393L535.113 753.749L515.949 699.793C532.036 682.78 546.018 663.769 557.355 643.029L614.416 644.595L635.254 580.431L588.126 548.133C589.422 536.575 590.285 524.801 590.285 512.811Z" stroke="white" stroke-opacity="0.3" stroke-width="3.3126" stroke-miterlimit="10" stroke-linecap="round" stroke-linejoin="round"/>
<path d="M529.676 562.765C557.219 446.066 484.989 329.125 368.345 301.569C251.701 274.013 134.815 346.278 107.272 462.976C79.7295 579.675 151.96 696.616 268.604 724.172C385.247 751.727 502.133 679.463 529.676 562.765Z" stroke="white" stroke-opacity="0.3" stroke-width="3.3126" stroke-miterlimit="10" stroke-linecap="round" stroke-linejoin="round"/>
<path d="M318.473 684.076C413.016 684.076 489.658 607.398 489.658 512.811C489.658 418.224 413.016 341.545 318.473 341.545C223.93 341.545 147.288 418.224 147.288 512.811C147.288 607.398 223.93 684.076 318.473 684.076Z" stroke="white" stroke-opacity="0.3" stroke-width="3.3126" stroke-miterlimit="10" stroke-linecap="round" stroke-linejoin="round"/>
<path d="M1020.29 62.8109C1020.29 50.9287 1019.42 39.2626 1017.96 27.8125L1065.04 -4.43149L1044.2 -68.5953L987.355 -67.029C976.018 -87.8229 962.036 -106.942 945.841 -124.01L964.951 -177.695L910.427 -217.339L865.404 -182.664C844.404 -192.71 821.838 -200.056 798.247 -204.43L782.213 -259.034H714.787L698.699 -204.43C675.108 -200.056 652.596 -192.71 631.542 -182.664L586.573 -217.393L532.049 -177.749L551.159 -124.064C535.018 -106.996 520.982 -87.8769 509.645 -67.083L452.745 -68.5953L431.961 -4.43149L479.036 27.8125C477.578 39.2626 476.715 50.9287 476.715 62.8109C476.715 74.8011 477.578 86.5753 479.09 98.1334L431.961 130.431L452.799 194.595L509.861 193.029C521.198 213.769 535.126 232.78 551.267 249.793L532.103 303.749L586.627 343.393L631.92 308.502C652.812 318.44 675.216 325.785 698.699 330.106L714.895 385.034H782.321L798.517 330.106C821.946 325.731 844.35 318.44 865.296 308.502L910.589 343.393L965.113 303.749L945.949 249.793C962.036 232.78 976.018 213.769 987.355 193.029L1044.42 194.595L1065.25 130.431L1018.13 98.1334C1019.42 86.5753 1020.29 74.8011 1020.29 62.8109Z" stroke="white" stroke-opacity="0.3" stroke-width="3.3126" stroke-miterlimit="10" stroke-linecap="round" stroke-linejoin="round"/>
<path d="M959.676 112.765C987.219 -3.9339 914.989 -120.875 798.345 -148.431C681.701 -175.987 564.815 -103.722 537.272 12.9762C509.73 129.675 581.96 246.616 698.604 274.172C815.247 301.727 932.133 229.463 959.676 112.765Z" stroke="white" stroke-opacity="0.3" stroke-width="3.3126" stroke-miterlimit="10" stroke-linecap="round" stroke-linejoin="round"/>
<path d="M748.473 234.076C843.016 234.076 919.658 157.398 919.658 62.8109C919.658 -31.7764 843.016 -108.455 748.473 -108.455C653.93 -108.455 577.288 -31.7764 577.288 62.8109C577.288 157.398 653.93 234.076 748.473 234.076Z" stroke="white" stroke-opacity="0.3" stroke-width="3.3126" stroke-miterlimit="10" stroke-linecap="round" stroke-linejoin="round"/>
</svg>
