<svg xmlns="http://www.w3.org/2000/svg" version="1.1" xmlns:xlink="http://www.w3.org/1999/xlink" xmlns:svgjs="http://svgjs.com/svgjs" width="512" height="512" x="0" y="0" viewBox="0 0 1700 1700" style="enable-background:new 0 0 512 512" xml:space="preserve" class=""><g><path d="M348.7 610.8H227.4c-9.9 0-18 8.1-18 18v121.4c0 9.9 8.1 18 18 18h121.4c9.9 0 18-8.1 18-18V628.8c-.1-10-8.1-18-18.1-18zm-18 121.3h-85.4v-85.4h85.4zM588.2 610.8H466.9c-9.9 0-18 8.1-18 18v121.4c0 9.9 8.1 18 18 18h121.4c9.9 0 18-8.1 18-18V628.8c-.1-10-8.1-18-18.1-18zm-18 121.3h-85.4v-85.4h85.4zM827.7 610.8H706.4c-9.9 0-18 8.1-18 18v121.4c0 9.9 8.1 18 18 18h121.4c9.9 0 18-8.1 18-18V628.8c-.1-10-8.1-18-18.1-18zm-18 121.3h-85.4v-85.4h85.4zM945.9 768.1h121.4c9.9 0 18-8.1 18-18V628.8c0-9.9-8.1-18-18-18H945.9c-9.9 0-18 8.1-18 18v121.4c0 9.9 8 17.9 18 17.9zm18-121.3h85.4v85.4h-85.4zM1185.4 768.1h121.4c9.9 0 18-8.1 18-18V628.8c0-9.9-8.1-18-18-18h-121.4c-9.9 0-18 8.1-18 18v121.4c0 9.9 8 17.9 18 17.9zm18-121.3h85.4v85.4h-85.4zM348.7 843.2H227.4c-9.9 0-18 8.1-18 18v121.4c0 9.9 8.1 18 18 18h121.4c9.9 0 18-8.1 18-18V861.2c-.1-10-8.1-18-18.1-18zm-18 121.3h-85.4v-85.4h85.4zM588.2 843.2H466.9c-9.9 0-18 8.1-18 18v121.4c0 9.9 8.1 18 18 18h121.4c9.9 0 18-8.1 18-18V861.2c-.1-10-8.1-18-18.1-18zm-18 121.3h-85.4v-85.4h85.4zM827.7 843.2H706.4c-9.9 0-18 8.1-18 18v121.4c0 9.9 8.1 18 18 18h121.4c9.9 0 18-8.1 18-18V861.2c-.1-10-8.1-18-18.1-18zm-18 121.3h-85.4v-85.4h85.4zM348.7 1075.6H227.4c-9.9 0-18 8.1-18 18V1215c0 9.9 8.1 18 18 18h121.4c9.9 0 18-8.1 18-18v-121.4c-.1-10-8.1-18-18.1-18zm-18 121.3h-85.4v-85.4h85.4zM588.2 1075.6H466.9c-9.9 0-18 8.1-18 18V1215c0 9.9 8.1 18 18 18h121.4c9.9 0 18-8.1 18-18v-121.4c-.1-10-8.1-18-18.1-18zm-18 121.3h-85.4v-85.4h85.4zM827.7 1075.6H706.4c-9.9 0-18 8.1-18 18V1215c0 9.9 8.1 18 18 18h121.4c9.9 0 18-8.1 18-18v-121.4c-.1-10-8.1-18-18.1-18zm-18 121.3h-85.4v-85.4h85.4z" fill="#000000" data-original="#000000" class=""></path><path d="M1584.9 1044.3c-17.3-41-42.1-77.8-73.8-109.4-19.7-19.7-41.5-36.8-65.1-51.1V287.2c0-9.9-8.1-18-18-18h-194.8v-73.7c0-9.9-8.1-18-18-18h-94.8c-9.9 0-18 8.1-18 18v73.7H832.5v-73.7c0-9.9-8.1-18-18-18h-94.8c-9.9 0-18 8.1-18 18v73.7H431.6v-73.7c0-9.9-8.1-18-18-18h-94.8c-9.9 0-18 8.1-18 18v73.7H106c-9.9 0-18 8.1-18 18v1097.5c0 9.9 8.1 18 18 18h900.9c5.6 6.5 11.4 12.8 17.5 18.9 31.6 31.6 68.4 56.4 109.4 73.8 42.4 18 87.5 27.1 134 27.1s91.5-9.1 134-27.1c41-17.3 77.8-42.1 109.4-73.8s56.4-68.4 73.8-109.4c18-42.4 27.1-87.5 27.1-134s-9.2-91.5-27.2-133.9zm-387.6-830.7V361h-58.8V213.8h58.8zm-400.8 0V361h-58.8V213.6zm-459.7 0h58.8v147.3h-58.8zm-36 91.6v73.7c0 9.9 8.1 18 18 18h94.8c9.9 0 18-8.1 18-18v-73.7h270.1v73.7c0 9.9 8.1 18 18 18h94.8c9.9 0 18-8.1 18-18v-73.7h270.1v73.7c0 9.9 8.1 18 18 18h94.8c9.9 0 18-8.1 18-18v-73.7h176.8v151.7H124V305.2zM124 1366.7V492.9h1286.1v371.9c-2.8-1.3-5.5-2.5-8.3-3.7-42.4-18-87.5-27.1-134-27.1s-91.5 9.1-134 27.1c-41 17.3-77.8 42.1-109.4 73.8s-56.4 68.4-73.8 109.4c-18 42.4-27.1 87.5-27.1 134s9.1 91.5 27.1 134c8.1 19.1 17.8 37.3 29.1 54.5H124zm1143.8 119.7c-169.9 0-308.2-138.2-308.2-308.2S1097.8 870 1267.8 870s308.2 138.2 308.2 308.2-138.2 308.2-308.2 308.2z" fill="#000000" data-original="#000000" class=""></path><path d="M1267.8 908.9c-71.9 0-139.6 28-190.4 78.9-50.9 50.9-78.9 118.5-78.9 190.4s28 139.6 78.9 190.4c50.9 50.9 118.5 78.9 190.4 78.9s139.6-28 190.4-78.9c50.9-50.9 78.9-118.5 78.9-190.4s-28-139.6-78.9-190.4c-50.8-50.9-118.4-78.9-190.4-78.9zm0 502.7c-128.7 0-233.3-104.7-233.3-233.3S1139.2 945 1267.8 945c128.7 0 233.3 104.7 233.3 233.3s-104.6 233.3-233.3 233.3z" fill="#000000" data-original="#000000" class=""></path><path d="M1388.8 1160.2h-102.9v-134c0-9.9-8.1-18-18-18s-18 8.1-18 18v152c0 9.9 8.1 18 18 18h120.9c9.9 0 18-8.1 18-18s-8.1-18-18-18z" fill="#000000" data-original="#000000" class=""></path></g></svg>