<svg width="459" height="406" viewBox="0 0 459 406" fill="none" xmlns="http://www.w3.org/2000/svg">
<g clip-path="url(#clip0_5174_5684)">
<mask id="path-1-inside-1_5174_5684" fill="white">
<path d="M78.0203 130.959H41.4876C38.5059 130.959 36.0664 133.398 36.0664 136.38V172.943C36.0664 175.924 38.5059 178.364 41.4876 178.364H78.0504C81.032 178.364 83.4716 175.924 83.4716 172.943V136.38C83.4415 133.368 81.0321 130.959 78.0203 130.959ZM72.5991 166.491C72.5991 167.044 72.1514 167.491 71.5991 167.491H47.8786C47.3264 167.491 46.8786 167.044 46.8786 166.491V142.771C46.8786 142.219 47.3264 141.771 47.8786 141.771H71.5991C72.1514 141.771 72.5991 142.219 72.5991 142.771V166.491ZM150.152 130.959H113.619C110.638 130.959 108.198 133.398 108.198 136.38V172.943C108.198 175.924 110.638 178.364 113.619 178.364H150.182C153.164 178.364 155.603 175.924 155.603 172.943V136.38C155.573 133.368 153.164 130.959 150.152 130.959ZM144.731 166.491C144.731 167.044 144.283 167.491 143.731 167.491H120.01C119.458 167.491 119.01 167.044 119.01 166.491V142.771C119.01 142.219 119.458 141.771 120.01 141.771H143.731C144.283 141.771 144.731 142.219 144.731 142.771V166.491ZM222.284 130.959H185.751C182.769 130.959 180.33 133.398 180.33 136.38V172.943C180.33 175.924 182.769 178.364 185.751 178.364H222.314C225.296 178.364 227.735 175.924 227.735 172.943V136.38C227.705 133.368 225.296 130.959 222.284 130.959ZM216.863 166.491C216.863 167.044 216.415 167.491 215.863 167.491H192.142C191.59 167.491 191.142 167.044 191.142 166.491V142.771C191.142 142.219 191.59 141.771 192.142 141.771H215.863C216.415 141.771 216.863 142.219 216.863 142.771V166.491ZM257.883 178.334H294.446C297.427 178.334 299.867 175.894 299.867 172.912V136.38C299.867 133.398 297.427 130.959 294.446 130.959H257.883C254.901 130.959 252.462 133.398 252.462 136.38V172.943C252.462 175.924 254.871 178.334 257.883 178.334ZM263.304 142.801C263.304 142.249 263.752 141.801 264.304 141.801H288.025C288.577 141.801 289.025 142.249 289.025 142.801V166.521C289.025 167.074 288.577 167.521 288.025 167.521H264.304C263.752 167.521 263.304 167.074 263.304 166.521V142.801ZM330.015 178.334H366.577C369.559 178.334 371.999 175.894 371.999 172.912V136.38C371.999 133.398 369.559 130.959 366.577 130.959H330.015C327.033 130.959 324.593 133.398 324.593 136.38V172.943C324.593 175.924 327.003 178.334 330.015 178.334ZM335.436 142.801C335.436 142.249 335.884 141.801 336.436 141.801H360.156C360.709 141.801 361.156 142.249 361.156 142.801V166.521C361.156 167.074 360.709 167.521 360.156 167.521H336.436C335.884 167.521 335.436 167.074 335.436 166.521V142.801ZM78.0203 200.952H41.4876C38.5059 200.952 36.0664 203.392 36.0664 206.373V242.936C36.0664 245.918 38.5059 248.357 41.4876 248.357H78.0504C81.032 248.357 83.4716 245.918 83.4716 242.936V206.373C83.4415 203.361 81.0321 200.952 78.0203 200.952ZM72.5991 236.485C72.5991 237.037 72.1514 237.485 71.5991 237.485H47.8786C47.3264 237.485 46.8786 237.037 46.8786 236.485V212.764C46.8786 212.212 47.3264 211.764 47.8786 211.764H71.5991C72.1514 211.764 72.5991 212.212 72.5991 212.764V236.485ZM150.152 200.952H113.619C110.638 200.952 108.198 203.392 108.198 206.373V242.936C108.198 245.918 110.638 248.357 113.619 248.357H150.182C153.164 248.357 155.603 245.918 155.603 242.936V206.373C155.573 203.361 153.164 200.952 150.152 200.952ZM144.731 236.485C144.731 237.037 144.283 237.485 143.731 237.485H120.01C119.458 237.485 119.01 237.037 119.01 236.485V212.764C119.01 212.212 119.458 211.764 120.01 211.764H143.731C144.283 211.764 144.731 212.212 144.731 212.764V236.485ZM222.284 200.952H185.751C182.769 200.952 180.33 203.392 180.33 206.373V242.936C180.33 245.918 182.769 248.357 185.751 248.357H222.314C225.296 248.357 227.735 245.918 227.735 242.936V206.373C227.705 203.361 225.296 200.952 222.284 200.952ZM216.863 236.485C216.863 237.037 216.415 237.485 215.863 237.485H192.142C191.59 237.485 191.142 237.037 191.142 236.485V212.764C191.142 212.212 191.59 211.764 192.142 211.764H215.863C216.415 211.764 216.863 212.212 216.863 212.764V236.485ZM78.0203 270.945H41.4876C38.5059 270.945 36.0664 273.385 36.0664 276.367V312.929C36.0664 315.911 38.5059 318.351 41.4876 318.351H78.0504C81.032 318.351 83.4716 315.911 83.4716 312.929V276.367C83.4415 273.355 81.0321 270.945 78.0203 270.945ZM72.5991 306.478C72.5991 307.03 72.1514 307.478 71.5991 307.478H47.8786C47.3264 307.478 46.8786 307.03 46.8786 306.478V282.758C46.8786 282.205 47.3264 281.758 47.8786 281.758H71.5991C72.1514 281.758 72.5991 282.205 72.5991 282.758V306.478ZM150.152 270.945H113.619C110.638 270.945 108.198 273.385 108.198 276.367V312.929C108.198 315.911 110.638 318.351 113.619 318.351H150.182C153.164 318.351 155.603 315.911 155.603 312.929V276.367C155.573 273.355 153.164 270.945 150.152 270.945ZM144.731 306.478C144.731 307.03 144.283 307.478 143.731 307.478H120.01C119.458 307.478 119.01 307.03 119.01 306.478V282.758C119.01 282.205 119.458 281.758 120.01 281.758H143.731C144.283 281.758 144.731 282.205 144.731 282.758V306.478ZM222.284 270.945H185.751C182.769 270.945 180.33 273.385 180.33 276.367V312.929C180.33 315.911 182.769 318.351 185.751 318.351H222.314C225.296 318.351 227.735 315.911 227.735 312.929V276.367C227.705 273.355 225.296 270.945 222.284 270.945ZM216.863 306.478C216.863 307.03 216.415 307.478 215.863 307.478H192.142C191.59 307.478 191.142 307.03 191.142 306.478V282.758C191.142 282.205 191.59 281.758 192.142 281.758H215.863C216.415 281.758 216.863 282.205 216.863 282.758V306.478Z"/>
</mask>
<path d="M78.0203 130.959H41.4876C38.5059 130.959 36.0664 133.398 36.0664 136.38V172.943C36.0664 175.924 38.5059 178.364 41.4876 178.364H78.0504C81.032 178.364 83.4716 175.924 83.4716 172.943V136.38C83.4415 133.368 81.0321 130.959 78.0203 130.959ZM72.5991 166.491C72.5991 167.044 72.1514 167.491 71.5991 167.491H47.8786C47.3264 167.491 46.8786 167.044 46.8786 166.491V142.771C46.8786 142.219 47.3264 141.771 47.8786 141.771H71.5991C72.1514 141.771 72.5991 142.219 72.5991 142.771V166.491ZM150.152 130.959H113.619C110.638 130.959 108.198 133.398 108.198 136.38V172.943C108.198 175.924 110.638 178.364 113.619 178.364H150.182C153.164 178.364 155.603 175.924 155.603 172.943V136.38C155.573 133.368 153.164 130.959 150.152 130.959ZM144.731 166.491C144.731 167.044 144.283 167.491 143.731 167.491H120.01C119.458 167.491 119.01 167.044 119.01 166.491V142.771C119.01 142.219 119.458 141.771 120.01 141.771H143.731C144.283 141.771 144.731 142.219 144.731 142.771V166.491ZM222.284 130.959H185.751C182.769 130.959 180.33 133.398 180.33 136.38V172.943C180.33 175.924 182.769 178.364 185.751 178.364H222.314C225.296 178.364 227.735 175.924 227.735 172.943V136.38C227.705 133.368 225.296 130.959 222.284 130.959ZM216.863 166.491C216.863 167.044 216.415 167.491 215.863 167.491H192.142C191.59 167.491 191.142 167.044 191.142 166.491V142.771C191.142 142.219 191.59 141.771 192.142 141.771H215.863C216.415 141.771 216.863 142.219 216.863 142.771V166.491ZM257.883 178.334H294.446C297.427 178.334 299.867 175.894 299.867 172.912V136.38C299.867 133.398 297.427 130.959 294.446 130.959H257.883C254.901 130.959 252.462 133.398 252.462 136.38V172.943C252.462 175.924 254.871 178.334 257.883 178.334ZM263.304 142.801C263.304 142.249 263.752 141.801 264.304 141.801H288.025C288.577 141.801 289.025 142.249 289.025 142.801V166.521C289.025 167.074 288.577 167.521 288.025 167.521H264.304C263.752 167.521 263.304 167.074 263.304 166.521V142.801ZM330.015 178.334H366.577C369.559 178.334 371.999 175.894 371.999 172.912V136.38C371.999 133.398 369.559 130.959 366.577 130.959H330.015C327.033 130.959 324.593 133.398 324.593 136.38V172.943C324.593 175.924 327.003 178.334 330.015 178.334ZM335.436 142.801C335.436 142.249 335.884 141.801 336.436 141.801H360.156C360.709 141.801 361.156 142.249 361.156 142.801V166.521C361.156 167.074 360.709 167.521 360.156 167.521H336.436C335.884 167.521 335.436 167.074 335.436 166.521V142.801ZM78.0203 200.952H41.4876C38.5059 200.952 36.0664 203.392 36.0664 206.373V242.936C36.0664 245.918 38.5059 248.357 41.4876 248.357H78.0504C81.032 248.357 83.4716 245.918 83.4716 242.936V206.373C83.4415 203.361 81.0321 200.952 78.0203 200.952ZM72.5991 236.485C72.5991 237.037 72.1514 237.485 71.5991 237.485H47.8786C47.3264 237.485 46.8786 237.037 46.8786 236.485V212.764C46.8786 212.212 47.3264 211.764 47.8786 211.764H71.5991C72.1514 211.764 72.5991 212.212 72.5991 212.764V236.485ZM150.152 200.952H113.619C110.638 200.952 108.198 203.392 108.198 206.373V242.936C108.198 245.918 110.638 248.357 113.619 248.357H150.182C153.164 248.357 155.603 245.918 155.603 242.936V206.373C155.573 203.361 153.164 200.952 150.152 200.952ZM144.731 236.485C144.731 237.037 144.283 237.485 143.731 237.485H120.01C119.458 237.485 119.01 237.037 119.01 236.485V212.764C119.01 212.212 119.458 211.764 120.01 211.764H143.731C144.283 211.764 144.731 212.212 144.731 212.764V236.485ZM222.284 200.952H185.751C182.769 200.952 180.33 203.392 180.33 206.373V242.936C180.33 245.918 182.769 248.357 185.751 248.357H222.314C225.296 248.357 227.735 245.918 227.735 242.936V206.373C227.705 203.361 225.296 200.952 222.284 200.952ZM216.863 236.485C216.863 237.037 216.415 237.485 215.863 237.485H192.142C191.59 237.485 191.142 237.037 191.142 236.485V212.764C191.142 212.212 191.59 211.764 192.142 211.764H215.863C216.415 211.764 216.863 212.212 216.863 212.764V236.485ZM78.0203 270.945H41.4876C38.5059 270.945 36.0664 273.385 36.0664 276.367V312.929C36.0664 315.911 38.5059 318.351 41.4876 318.351H78.0504C81.032 318.351 83.4716 315.911 83.4716 312.929V276.367C83.4415 273.355 81.0321 270.945 78.0203 270.945ZM72.5991 306.478C72.5991 307.03 72.1514 307.478 71.5991 307.478H47.8786C47.3264 307.478 46.8786 307.03 46.8786 306.478V282.758C46.8786 282.205 47.3264 281.758 47.8786 281.758H71.5991C72.1514 281.758 72.5991 282.205 72.5991 282.758V306.478ZM150.152 270.945H113.619C110.638 270.945 108.198 273.385 108.198 276.367V312.929C108.198 315.911 110.638 318.351 113.619 318.351H150.182C153.164 318.351 155.603 315.911 155.603 312.929V276.367C155.573 273.355 153.164 270.945 150.152 270.945ZM144.731 306.478C144.731 307.03 144.283 307.478 143.731 307.478H120.01C119.458 307.478 119.01 307.03 119.01 306.478V282.758C119.01 282.205 119.458 281.758 120.01 281.758H143.731C144.283 281.758 144.731 282.205 144.731 282.758V306.478ZM222.284 270.945H185.751C182.769 270.945 180.33 273.385 180.33 276.367V312.929C180.33 315.911 182.769 318.351 185.751 318.351H222.314C225.296 318.351 227.735 315.911 227.735 312.929V276.367C227.705 273.355 225.296 270.945 222.284 270.945ZM216.863 306.478C216.863 307.03 216.415 307.478 215.863 307.478H192.142C191.59 307.478 191.142 307.03 191.142 306.478V282.758C191.142 282.205 191.59 281.758 192.142 281.758H215.863C216.415 281.758 216.863 282.205 216.863 282.758V306.478Z" fill="white" stroke="#64BDE1" stroke-width="4" mask="url(#path-1-inside-1_5174_5684)"/>
<path d="M449.414 261.907L449.414 261.909C454.783 274.556 457.527 287.976 457.527 301.846C457.527 315.718 454.813 329.168 449.445 341.813L450.365 342.204L449.445 341.813C444.255 354.042 436.858 364.989 427.43 374.446C418.004 383.902 407.029 391.298 394.801 396.458L394.8 396.458C382.124 401.827 368.704 404.541 354.832 404.541C340.96 404.541 327.51 401.827 314.865 396.459C302.635 391.268 291.659 383.872 282.233 374.445C280.522 372.735 278.89 370.971 277.31 369.151C276.931 368.714 276.379 368.46 275.797 368.46H4.92508C2.49572 368.46 0.503906 366.468 0.503906 364.039V33.4979C0.503906 31.0685 2.49572 29.0767 4.92508 29.0767H62.5943C63.6988 29.0767 64.5943 28.1813 64.5943 27.0767V5.88001C64.5943 3.45065 66.5861 1.45883 69.0154 1.45883H97.567C99.9963 1.45883 101.988 3.45065 101.988 5.88001V27.0767C101.988 28.1813 102.884 29.0767 103.988 29.0767H183.336C184.44 29.0767 185.336 28.1813 185.336 27.0767V5.88001C185.336 3.45065 187.328 1.45883 189.757 1.45883H218.309C220.738 1.45883 222.73 3.45065 222.73 5.88001V27.0767C222.73 28.1813 223.625 29.0767 224.73 29.0767H304.017C305.122 29.0767 306.017 28.1813 306.017 27.0767V5.88001C306.017 3.45065 308.009 1.45883 310.438 1.45883H338.99C341.419 1.45883 343.411 3.45065 343.411 5.88001V27.0767C343.411 28.1813 344.307 29.0767 345.411 29.0767H403.08C405.51 29.0767 407.502 31.0685 407.502 33.4979V212.616C407.502 213.317 407.868 213.962 408.46 214.325C415.316 218.531 421.657 223.533 427.401 229.277L427.402 229.278C436.858 238.704 444.254 249.679 449.414 261.907ZM314.863 207.264L314.864 207.264C327.54 201.895 340.96 199.181 354.832 199.181C368.704 199.181 382.153 201.895 394.798 207.263C395.155 207.416 395.507 207.569 395.857 207.725C397.174 208.308 398.689 207.359 398.689 205.891V96.4499C398.689 95.3453 397.794 94.4499 396.689 94.4499H11.3463C10.2417 94.4499 9.34626 95.3453 9.34626 96.4499V358.618C9.34626 359.187 9.80777 359.648 10.3764 359.648H266.209C267.809 359.648 268.741 357.881 267.905 356.556C264.957 351.885 262.395 346.974 260.22 341.844C254.851 329.168 252.137 315.748 252.137 301.876C252.137 288.004 254.851 274.554 260.219 261.909C265.409 249.68 272.806 238.734 282.234 229.276C291.66 219.82 302.634 212.424 314.863 207.264ZM334.599 54.7247V11.3313H333.599H333.539H332.599C332.599 10.8123 333.02 10.3915 333.539 10.3915H316.89C315.785 10.3915 314.89 11.287 314.89 12.3915V54.7247C314.89 55.8293 315.785 56.7247 316.89 56.7247H332.599C333.704 56.7247 334.599 55.8293 334.599 54.7247ZM213.887 54.7247V12.3313C213.887 11.2267 212.992 10.3313 211.887 10.3313H196.178C195.074 10.3313 194.178 11.2267 194.178 12.3313V54.7247C194.178 55.8293 195.074 56.7247 196.178 56.7247H211.887C212.992 56.7247 213.887 55.8293 213.887 54.7247ZM91.1458 10.3313H75.4366C74.332 10.3313 73.4366 11.2267 73.4366 12.3313V54.6946C73.4366 55.7992 74.332 56.6946 75.4366 56.6946H91.1458C92.2504 56.6946 93.1458 55.7992 93.1458 54.6946V12.3313C93.1458 11.2267 92.2504 10.3313 91.1458 10.3313ZM64.5943 61.1158V39.9191C64.5943 38.8145 63.6988 37.9191 62.5943 37.9191H11.3463C10.2417 37.9191 9.34626 38.8145 9.34626 39.9191V83.6075C9.34626 84.7121 10.2417 85.6075 11.3463 85.6075H396.719C397.824 85.6075 398.719 84.7121 398.719 83.6075V39.9191C398.719 38.8145 397.824 37.9191 396.719 37.9191H345.471C344.367 37.9191 343.471 38.8145 343.471 39.9191V61.1158C343.471 63.5451 341.48 65.5369 339.05 65.5369H310.499C308.069 65.5369 306.078 63.5451 306.078 61.1158V39.9191C306.078 38.8145 305.182 37.9191 304.078 37.9191H224.73C223.625 37.9191 222.73 38.8145 222.73 39.9191V61.1158C222.73 63.5451 220.738 65.5369 218.309 65.5369H189.757C187.328 65.5369 185.336 63.5451 185.336 61.1158V39.9191C185.336 38.8145 184.44 37.9191 183.336 37.9191H103.988C102.884 37.9191 101.988 38.8145 101.988 39.9191V61.1158C101.988 63.5451 99.9963 65.5369 97.567 65.5369H69.0154C66.5861 65.5369 64.5943 63.5451 64.5943 61.1158ZM261.009 301.846C261.009 353.599 303.11 395.669 354.832 395.669C406.584 395.669 448.654 353.598 448.654 301.846C448.654 250.094 406.584 208.024 354.832 208.024C303.08 208.024 261.009 250.094 261.009 301.846Z" fill="white" stroke="#64BDE1" stroke-width="2"/>
<path d="M298.195 245.209L298.195 245.209C313.307 230.067 333.442 221.739 354.831 221.739C376.251 221.739 396.356 230.067 411.468 245.209L411.469 245.21C426.61 260.322 434.938 280.456 434.938 301.846C434.938 323.235 426.611 343.341 411.468 358.483L411.468 358.484C396.356 373.625 376.221 381.953 354.831 381.953C333.442 381.953 313.337 373.625 298.195 358.483L298.194 358.482C283.052 343.371 274.725 323.236 274.725 301.846C274.725 280.457 283.052 260.352 298.195 245.209ZM283.567 301.876C283.567 341.16 315.517 373.141 354.831 373.141C394.145 373.141 426.096 341.16 426.096 301.876C426.096 262.593 394.145 230.612 354.831 230.612C315.548 230.612 283.567 262.593 283.567 301.876Z" fill="white" stroke="#64BDE1" stroke-width="2"/>
<path d="M358.045 304.425H388.037C390.466 304.425 392.458 306.417 392.458 308.846C392.458 311.275 390.466 313.267 388.037 313.267H351.624C349.195 313.267 347.203 311.275 347.203 308.846V263.067C347.203 260.638 349.195 258.646 351.624 258.646C354.054 258.646 356.045 260.638 356.045 263.067V302.425C356.045 303.529 356.941 304.425 358.045 304.425Z" fill="white" stroke="#64BDE1" stroke-width="2"/>
</g>
<defs>
<clipPath id="clip0_5174_5684">
<rect width="459" height="406" fill="white"/>
</clipPath>
</defs>
</svg>
