<svg width="701" height="505" viewBox="0 0 701 505" fill="none" xmlns="http://www.w3.org/2000/svg">
<path d="M141.3 71.1C146.5 71.1 150.7 66.9 150.7 61.7C150.7 56.5 146.5 52.3 141.3 52.3C136.1 52.3 131.9 56.5 131.9 61.7C131.9 66.9 136.1 71.1 141.3 71.1ZM136 61.7C136 60.2 136.6 58.9 137.6 57.9C138.6 56.9 139.9 56.3 141.4 56.3C142.9 56.3 144.2 56.9 145.2 57.9C146.2 58.9 146.8 60.2 146.8 61.7C146.8 63.2 146.2 64.5 145.2 65.5C144.2 66.5 142.9 67.1 141.4 67.1C139.9 67.1 138.6 66.5 137.6 65.5C136.6 64.5 136 63.1 136 61.7Z" fill="white" fill-opacity="0.4"/>
<path d="M162.8 71.1C168 71.1 172.2 66.9 172.2 61.7C172.2 56.5 168 52.3 162.8 52.3C157.6 52.3 153.4 56.5 153.4 61.7C153.4 66.9 157.6 71.1 162.8 71.1ZM157.5 61.7C157.5 60.2 158.1 58.9 159.1 57.9C160.1 56.9 161.4 56.3 162.9 56.3C164.4 56.3 165.7 56.9 166.7 57.9C167.7 58.9 168.3 60.2 168.3 61.7C168.3 63.2 167.7 64.5 166.7 65.5C165.7 66.5 164.4 67.1 162.9 67.1C161.4 67.1 160.1 66.5 159.1 65.5C158.1 64.5 157.5 63.1 157.5 61.7Z" fill="white" fill-opacity="0.4"/>
<path d="M489.6 160.5C500.6 160.5 509.5 151.6 509.5 140.6C509.5 129.6 500.6 120.7 489.6 120.7C478.6 120.7 469.7 129.6 469.7 140.6C469.7 151.6 478.6 160.5 489.6 160.5ZM500.8 129.4C503.7 132.3 505.4 136.2 505.4 140.6C505.4 145 503.6 148.9 500.8 151.8C497.9 154.7 494 156.4 489.6 156.4C485.2 156.4 481.3 154.6 478.4 151.8C475.5 148.9 473.8 145 473.8 140.6C473.8 136.2 475.6 132.3 478.4 129.4C481.3 126.5 485.2 124.8 489.6 124.8C494 124.8 497.9 126.5 500.8 129.4Z" fill="white" fill-opacity="0.4"/>
<path d="M707.7 129.2H554.4C552.8 129.2 551.4 130.5 551.4 132.1C551.4 133.7 552.7 135 554.4 135H707.7C709.3 135 710.7 133.7 710.7 132.1C710.7 130.5 709.4 129.2 707.7 129.2Z" fill="white" fill-opacity="0.4"/>
<path d="M530.1 152.3H602.1C603.7 152.3 605.1 151 605.1 149.3C605.1 147.7 603.8 146.4 602.1 146.4H530.1C528.5 146.4 527.1 147.7 527.1 149.3C527.1 150.9 528.4 152.3 530.1 152.3Z" fill="white" fill-opacity="0.4"/>
<path d="M489.6 220.4C500.6 220.4 509.5 211.5 509.5 200.5C509.5 189.5 500.6 180.6 489.6 180.6C478.6 180.6 469.7 189.5 469.7 200.5C469.7 211.5 478.6 220.4 489.6 220.4ZM500.8 189.3C503.7 192.2 505.4 196.1 505.4 200.5C505.4 204.9 503.6 208.8 500.8 211.7C497.9 214.6 494 216.3 489.6 216.3C485.2 216.3 481.3 214.5 478.4 211.7C475.5 208.8 473.8 204.9 473.8 200.5C473.8 196.1 475.6 192.2 478.4 189.3C481.3 186.4 485.2 184.7 489.6 184.7C494 184.7 497.9 186.5 500.8 189.3Z" fill="white" fill-opacity="0.4"/>
<path d="M530 195.1H675.2C676.8 195.1 678.2 193.8 678.2 192.2C678.2 190.6 676.9 189.3 675.2 189.3H530C528.4 189.3 527 190.6 527 192.2C527 193.8 528.4 195.1 530 195.1Z" fill="white" fill-opacity="0.4"/>
<path d="M530.1 206.3C528.5 206.3 527.1 207.6 527.1 209.2C527.1 210.8 528.4 212.1 530.1 212.1H618.3C619.9 212.1 621.3 210.8 621.3 209.2C621.3 207.6 620 206.3 618.3 206.3H530.1Z" fill="white" fill-opacity="0.4"/>
<path d="M489.6 240.5C478.6 240.5 469.7 249.4 469.7 260.4C469.7 271.4 478.6 280.3 489.6 280.3C500.6 280.3 509.5 271.4 509.5 260.4C509.5 249.4 500.6 240.5 489.6 240.5ZM489.6 276.2C485.2 276.2 481.3 274.4 478.4 271.6C475.5 268.7 473.8 264.8 473.8 260.4C473.8 256 475.6 252.1 478.4 249.2C481.3 246.3 485.2 244.6 489.6 244.6C494 244.6 497.9 246.4 500.8 249.2C503.7 252.1 505.4 256 505.4 260.4C505.4 264.8 503.6 268.7 500.8 271.6C497.9 274.5 494 276.2 489.6 276.2Z" fill="white" fill-opacity="0.4"/>
<path d="M707.7 249.1H587C585.4 249.1 584 250.4 584 252.1C584 253.7 585.3 255 587 255H707.8C709.4 255 710.8 253.7 710.8 252.1C710.7 250.4 709.4 249.1 707.7 249.1Z" fill="white" fill-opacity="0.4"/>
<path d="M707.7 266.3H530C528.4 266.3 527 267.6 527 269.2C527 270.8 528.3 272.2 530 272.2H707.7C709.3 272.2 710.7 270.9 710.7 269.2C710.7 267.6 709.4 266.3 707.7 266.3Z" fill="white" fill-opacity="0.4"/>
<path d="M707.7 309.1H530C528.4 309.1 527 310.4 527 312C527 313.6 528.3 314.9 530 314.9H707.7C709.3 314.9 710.7 313.6 710.7 312C710.7 310.4 709.4 309.1 707.7 309.1Z" fill="white" fill-opacity="0.4"/>
<path d="M530.1 332.1H618.3C619.9 332.1 621.3 330.8 621.3 329.2C621.3 327.6 620 326.3 618.3 326.3H530.1C528.5 326.3 527.1 327.6 527.1 329.2C527.1 330.8 528.4 332.1 530.1 332.1Z" fill="white" fill-opacity="0.4"/>
<path d="M642.7 369H530.1C528.5 369 527.1 370.3 527.1 372C527.1 373.6 528.4 374.9 530.1 374.9H642.7C644.3 374.9 645.7 373.6 645.7 372C645.6 370.3 644.3 369 642.7 369Z" fill="white" fill-opacity="0.4"/>
<path d="M636.9 386.1H245.1C236.4 386.1 229.3 393.2 229.3 401.8V428.8C229.3 434.6 232.5 439.7 237.2 442.4C232.5 445.1 229.3 450.2 229.3 456V476.5H134.9C124.3 476.5 115.6 467.8 115.6 457.2V369.2H184.1C185 369.2 185.7 368.6 186 368H186.4L186.1 367.8C186.3 367 186.1 366.2 185.5 365.7L160.3 342.3V266C160.3 259.3 154.9 253.9 148.2 253.9H12.1C5.4 253.9 0 259.3 0 266V357.3C0 364 5.4 369.4 12.1 369.4H111.4V457.4C111.4 470.3 122 480.9 134.9 480.9H229.3V488.4C229.3 497.1 236.4 504.1 245.1 504.1H636.9C638.1 504.1 639 503.1 639 502V388.4C639 387 638.1 386.1 636.9 386.1ZM233.6 401.8C233.6 395.4 238.8 390.3 245.2 390.3H634.9V440.3H245.1C245 440.3 244.9 440.3 244.8 440.3C238.6 440.2 233.5 435 233.5 428.8V401.8H233.6ZM233.6 488.3V456.1C233.6 449.7 238.8 444.6 245.2 444.6H634.9V501H245.1V499.8C238.7 499.8 233.6 494.6 233.6 488.3ZM4.2 265.9C4.2 261.8 7.4 258.4 11.5 258.1H148.2C152.5 258.1 156.1 261.6 156.1 266V343.2C156.1 343.8 156.4 344.4 156.7 344.7L178.6 365.1H115.5V364.6H111.3V365.1H12.1C7.8 365.1 4.2 361.6 4.2 357.2V265.9Z" fill="white" fill-opacity="0.4"/>
<path d="M408.7 145.5C408.4 141.6 406.6 138 403.9 134.9C399.8 130.3 393.3 126.7 385.6 124.2C377.8 121.7 368.5 120.4 358.4 120.4C355.5 120.4 352.6 120.5 349.7 120.7C334.7 121.9 321.2 125.8 311.4 131.5L312 132.6L312.1 132.7L311.4 131.5C306.5 134.3 302.4 137.6 299.6 141.2C296.7 144.8 295.1 148.9 295.1 153.1C295.1 153.5 295.1 154 295.2 154.3C295.2 154.3 295.2 154.3 295.2 154.4V154.6C295.6 158.4 297.3 161.9 300 164.9C304.1 169.5 310.6 173.1 318.3 175.6C326.1 178.1 335.4 179.4 345.5 179.4C348.4 179.4 351.3 179.3 354.2 179.1C369.2 177.9 382.7 173.9 392.5 168.3C397.4 165.5 401.5 162.2 404.3 158.6C407.2 155 408.8 150.9 408.8 146.7C408.7 146.3 408.7 145.9 408.7 145.5ZM299.4 153.9C299.4 153.6 299.4 153.4 299.4 153C299.4 150 300.6 146.9 303 143.8C306.6 139.2 312.9 134.9 321 131.5C329.1 128.1 339.1 125.8 349.9 124.9C352.7 124.7 355.5 124.6 358.3 124.6C371.2 124.6 382.7 127 390.9 130.9C395 132.9 398.3 135.2 400.6 137.7C402.9 140.2 404.1 142.9 404.3 145.7C404.3 146 404.3 146.2 404.3 146.6C404.3 149.6 403.1 152.7 400.7 155.8C397.1 160.4 390.8 164.7 382.7 168.1C374.6 171.5 364.6 173.8 353.8 174.7C351 174.9 348.2 175 345.4 175C332.5 175 321 172.6 312.8 168.7C308.7 166.7 305.4 164.4 303.1 161.9C300.8 159.4 299.6 156.8 299.4 153.9Z" fill="white" fill-opacity="0.4"/>
<path d="M326.5 164.5H326.6C330.1 164.5 333.2 163.1 335.6 160.8C337.9 158.5 339.4 155.4 339.5 151.9C339.5 148.4 338.1 145.3 335.8 142.9C333.5 140.6 330.4 139.1 326.9 139.1C323.4 139.1 320.3 140.5 317.9 142.8C315.6 145.1 314.1 148.2 314.1 151.7H315.4H314C314 155.2 315.4 158.3 317.7 160.7C319.9 163 323 164.4 326.5 164.5ZM318.3 151.7V151.6C318.3 149.3 319.3 147.2 320.8 145.8C322.3 144.3 324.4 143.4 326.7 143.4C329 143.5 331.1 144.4 332.5 145.9C334 147.4 334.9 149.5 334.9 151.8C334.9 154.1 333.9 156.2 332.4 157.6C330.9 159.1 328.8 160 326.5 160C324.2 160 322.1 159 320.6 157.5C319.2 156 318.3 154 318.3 151.7Z" fill="white" fill-opacity="0.4"/>
<path d="M380.4 161H380.5C384 161 387.1 159.6 389.5 157.3C391.8 155 393.3 151.9 393.3 148.4C393.3 144.9 391.9 141.8 389.6 139.4C387.3 137.1 384.2 135.6 380.7 135.6C377.2 135.6 374.1 137 371.7 139.3C369.4 141.6 367.9 144.7 367.8 148.2C367.8 151.7 369.2 154.8 371.5 157.1C373.8 159.5 376.9 161 380.4 161ZM374.6 154.1C373.1 152.6 372.2 150.5 372.2 148.2C372.2 145.9 373.2 143.8 374.7 142.4C376.2 140.9 378.3 140 380.6 140C382.9 140.1 385 141 386.4 142.5C387.9 144 388.8 146.1 388.8 148.4C388.8 150.7 387.8 152.8 386.3 154.2C384.8 155.7 382.7 156.6 380.4 156.6C378.2 156.6 376.1 155.6 374.6 154.1Z" fill="white" fill-opacity="0.4"/>
<path d="M245.9 312.9C243.2 317.9 244.1 323.8 247.9 328C250.5 330.7 253.9 332.2 257.4 332.2C259.2 332.2 261.1 331.8 262.8 331L266.2 329.5L268.6 349.1C270.7 366 285 378.7 302.1 378.7H385.9C403.2 378.7 417.6 365.7 419.4 348.6L419.5 347.3H484.6L487.8 340.1C488.4 340.2 489 340.2 489.6 340.2C500.6 340.2 509.5 331.3 509.5 320.3C509.5 314.6 507.1 309.5 503.3 305.8L532.3 241.6C532.7 240.7 532.9 239.7 532.9 238.7C532.9 236.8 532.1 235.1 530.9 233.8C529.6 232.5 527.9 231.7 525.9 231.7H429.5C428.1 226.6 425.6 221.9 422 217.9C415.6 210.8 406.5 206.7 396.9 206.7H289.3C279.6 206.7 270.4 210.8 264.1 218C257.7 225.2 254.7 234.8 255.9 244.4L260.8 284.6L245.9 312.9ZM528.6 240L500 303.4C497 301.6 493.5 300.5 489.7 300.5C478.7 300.5 469.8 309.4 469.8 320.4C469.8 324.3 470.9 327.8 472.8 330.9H421.4V330.6H417V330.9H346.5C345.3 330.9 344.4 331.9 344.4 333C344.4 334.1 345.2 335.1 346.5 335.1H416.6L415.7 343.3H321.3C321.1 343.3 321 343.3 320.9 343.2C320.8 343.1 320.6 343 320.4 342.7C320 342.2 319.7 341.4 319.4 340.4C319 339 318.7 337.3 318.6 335.8C318.6 335.4 318.5 335 318.5 334.6H343.4L343.8 333.7L388 237.7C388.5 236.7 389.5 236 390.7 236H526C526.9 236 527.6 236.3 528.1 236.9C528.6 237.4 528.9 238.2 528.9 238.9C528.9 239.2 528.8 239.6 528.6 240ZM260.1 244.1C259.1 235.7 261.7 227.3 267.3 221C272.9 214.7 281 211.1 289.4 211.1H397C405.4 211.1 413.3 214.7 418.9 220.9C421.8 224.1 423.9 227.8 425.1 231.9H390.6C387.8 231.9 385.4 233.5 384.2 236L340.7 330.5H314.4V332.5C314.4 333.3 314.4 336.6 315.1 339.8C315.4 341.3 315.9 343.1 316.8 344.4C317.2 345.1 317.8 345.8 318.6 346.2C319.4 346.7 320.3 347 321.3 347H415.3L415.2 347.9C413.6 362.9 401 374.3 385.9 374.3H302.1C287.2 374.3 274.6 363.2 272.8 348.4L270.2 327.4L313.7 307.9C313.9 308.8 314.2 309.7 314.7 310.6C316.3 313.8 319 316.2 322.4 317.2L337.9 321.8H338.1C338.2 321.8 338.5 321.9 338.8 321.9C340.1 321.9 341.3 321.1 341.7 319.8C342.2 318.2 341.2 316.6 339.7 316.1L324.2 311.5C322.5 311 321.1 309.8 320.2 308C319.3 306.2 319.2 304.1 319.8 302C320.4 299.9 321.7 298.2 323.4 297.2C325.1 296.2 326.9 295.9 328.6 296.4L344.1 301C345.7 301.5 347.4 300.5 347.8 299C348.3 297.4 347.3 295.7 345.8 295.2L330.3 290.6C326.9 289.6 323.3 290.1 320.3 292C317.3 293.8 315 296.8 314 300.3C313.7 301.4 313.5 302.4 313.4 303.5L269.7 323.1L265.1 285.3L268 279.8C268.6 281.6 269.2 283.2 269.8 284.7C271 287.4 272.3 289.6 273.7 291.3C274.4 292.1 275.2 292.8 276.1 293.4C277 293.9 278 294.3 279.1 294.3C279.2 294.3 279.4 294.3 279.6 294.3C279.6 294.3 279.6 294.3 279.7 294.3H279.8C280.6 294.2 281.4 293.9 282.1 293.5C283.3 292.7 284.3 291.5 285 290.1C286.1 288 287 285.2 287.5 282C288.1 278.8 288.4 275.1 288.4 271C288.4 268.1 288.2 265 287.9 261.7C287.1 253.6 285.3 246.3 282.9 240.9C281.7 238.2 280.4 236 279 234.3C278.3 233.5 277.5 232.8 276.6 232.2C275.7 231.7 274.7 231.3 273.6 231.3C273.5 231.3 273.3 231.3 273.1 231.3H273C272.2 231.4 271.4 231.7 270.7 232.1C269.5 232.9 268.5 234.1 267.8 235.5C266.7 237.6 265.8 240.4 265.3 243.6C264.7 246.8 264.4 250.5 264.4 254.6C264.4 257.5 264.6 260.6 264.9 263.9C265.3 267.4 265.8 270.7 266.5 273.8L264.3 278L260.1 244.1ZM489.6 336.2C485.3 336.2 481.4 334.5 478.5 331.7C478.4 331.6 478.3 331.5 478.2 331.4C475.4 328.5 473.8 324.7 473.8 320.4C473.8 316 475.6 312.1 478.4 309.2C481.3 306.3 485.2 304.6 489.6 304.6C494 304.6 497.9 306.4 500.8 309.2C503.7 312.1 505.4 316 505.4 320.4C505.4 324.8 503.6 328.7 500.8 331.6C497.9 334.4 494 336.2 489.6 336.2ZM481.9 343.2H419.9L420.8 335H476.2C478.3 336.9 480.9 338.4 483.7 339.3L481.9 343.2ZM277.2 238.6C278.7 240.8 280.1 244.1 281.2 248.2C282.4 252.2 283.3 256.8 283.8 261.8V262.1C284.1 265.2 284.3 268.1 284.3 270.9C284.3 276.8 283.6 281.8 282.5 285.3C282 287 281.3 288.3 280.7 289.2C280.4 289.6 280.1 289.8 279.9 290C279.7 290.1 279.5 290.2 279.3 290.2C279.1 290.2 278.8 290.1 278.4 289.9C277.7 289.5 276.8 288.6 275.8 287.1C274.3 284.9 272.9 281.6 271.8 277.5C271.5 276.6 271.3 275.6 271.1 274.7L277.9 261.8C278.5 260.8 278 259.5 277 259C276 258.4 274.7 258.8 274.1 259.8L269.7 268.1C269.5 266.6 269.3 265.1 269.1 263.6C268.8 260.5 268.6 257.6 268.6 254.8C268.6 248.9 269.3 243.9 270.4 240.4C270.9 238.7 271.6 237.4 272.2 236.5C272.5 236.1 272.8 235.9 273 235.7C273.2 235.6 273.4 235.5 273.6 235.5C273.6 235.5 273.6 235.5 273.7 235.5H273.8C274 235.5 274.3 235.6 274.7 235.8C275.3 236.2 276.2 237.1 277.2 238.6ZM261.6 328.2L261.1 327.1C256.8 329 253.1 327.3 251 325.1C248.9 322.8 247.4 319 249.6 314.9L261.6 292.1L265.6 325.1L261 327.1L261.6 328.2Z" fill="white" fill-opacity="0.4"/>
<path d="M12.1 221H184.1C185 221 185.7 220.4 186 219.8H186.4L186.1 219.6C186.4 218.8 186.1 218 185.5 217.4L160.3 194V117.7C160.3 111 154.9 105.6 148.2 105.6H12.1C5.4 105.5 0 111 0 117.6V208.9C0 215.6 5.4 221 12.1 221ZM4.2 117.6C4.2 113.3 7.7 109.7 12.1 109.7H148.3C152.6 109.7 156.2 113.2 156.2 117.6V194.8C156.2 195.4 156.5 196 156.8 196.3L178.7 216.7H12.1C7.8 216.7 4.2 213.2 4.2 208.8V117.6Z" fill="white" fill-opacity="0.4"/>
<path d="M33.2 180.3C34 180.6 34.7 181 35.5 181.3C35.3 182.1 35.2 182.9 35.1 183.7C33.5 194 35.3 202.3 41.2 206.1C43.3 207.4 45.7 208 48.2 208C54.2 208 61.3 204.7 68.3 199.1C68.5 199 68.7 198.8 68.9 198.6C70.5 199.9 72.2 201.1 73.8 202.1C79.4 205.7 84.8 207.6 89.4 207.6C92.1 207.6 94.6 206.9 96.8 205.5C99.8 203.5 101.6 200.4 102.5 196.6C103.4 192.8 103.4 188.2 102.6 183.3C102.5 182.6 102.3 181.8 102.2 181.1C102.9 180.8 103.6 180.5 104.3 180.2C108.9 178.1 112.7 175.6 115.4 172.8C118.1 169.9 119.7 166.7 119.7 163.1C119.7 159.5 118.1 156.3 115.4 153.4C112.7 150.6 108.9 148.1 104.3 146C103.5 145.7 102.7 145.3 101.9 145C102.1 144.2 102.2 143.4 102.3 142.6C103.9 132.3 102.1 124 96.2 120.2C90.2 116.4 81.8 118.5 73.5 123.9C71.8 125 70.2 126.2 68.5 127.5C66.9 126.2 65.2 125 63.6 124C54.8 118.3 46.5 116.7 40.6 120.5C34.8 124.3 33.1 132.6 34.8 142.9C34.9 143.6 35 144.2 35.2 144.9C34.5 145.2 33.8 145.5 33.2 145.8C28.6 147.9 24.8 150.4 22.1 153.2C19.4 156.1 17.8 159.3 17.8 162.9C17.8 166.5 19.4 169.7 22.1 172.6C24.8 175.8 28.6 178.3 33.2 180.3ZM98.1 142.2C98 142.7 97.9 143.2 97.8 143.8C92.8 142.2 87.1 141 81 140.3C78 136.7 74.8 133.5 71.6 130.6C78.1 125.5 84.2 122.7 88.9 122.7C90.8 122.7 92.5 123.1 93.8 124C97.7 126.5 99.6 132.6 98.1 142.2ZM39.2 184.4C39.3 183.9 39.4 183.3 39.5 182.8C44.5 184.4 50.2 185.6 56.3 186.3C59.3 189.9 62.5 193.2 65.7 196C64.5 197 63.2 197.9 62 198.7C58.1 201.3 54.5 202.9 51.3 203.6C48.1 204.2 45.5 203.9 43.5 202.6L43 203.4L42.9 203.6L43.5 202.6C39.6 200.1 37.7 194 39.2 184.4ZM42.9 124.4C44.3 123.5 45.9 123 47.9 123C51.5 123 56 124.6 61.2 127.9C62.5 128.7 63.8 129.7 65.2 130.7C62.1 133.5 59.1 136.7 56.1 140.3C49.9 141 44.2 142.3 39.2 143.9C39.1 143.5 39 143.1 39 142.6C37.3 133 39.1 126.9 42.9 124.4ZM84.9 152.5L85.9 151.8L85.8 151.9L84.9 152.5C87.3 156.1 89.3 159.7 91.1 163.2C89.4 166.8 87.4 170.3 85.1 173.8L85.9 174.3L86.1 174.4L85.1 173.8C83.2 176.8 81.1 179.6 79 182.3C75.7 182.6 72.2 182.8 68.6 182.8C65.1 182.8 61.6 182.6 58.3 182.3C56.2 179.7 54.2 176.9 52.2 174C49.9 170.5 47.8 166.9 46 163.4C47.7 159.8 49.8 156.3 52 152.7L51 152L51.2 152.1L52 152.6C53.9 149.6 56 146.8 58.1 144.1C61.4 143.8 64.9 143.6 68.5 143.6C72 143.6 75.4 143.8 78.7 144.1C81 146.8 83 149.6 84.9 152.5ZM48.9 176.4C50.1 178.2 51.3 179.9 52.6 181.6C48.2 180.9 44.1 179.9 40.4 178.7C41.3 175.3 42.5 171.8 44 168.2C45.5 171 47.1 173.7 48.9 176.4ZM62.3 186.8C64.4 186.9 66.5 187 68.7 187C71 187 73.2 186.9 75.4 186.8C73.3 189.2 71.1 191.4 69 193.3C66.7 191.3 64.4 189.2 62.3 186.8ZM88.7 176.1L87.7 175.5L88.4 176L88.7 176.1C90.4 173.4 92 170.7 93.4 168C95 171.7 96.3 175.3 97.2 178.7C93.5 179.9 89.3 180.9 84.9 181.6C86.2 179.8 87.5 178 88.7 176.1ZM88.5 150.2C87.3 148.4 86.1 146.7 84.8 145C89.2 145.7 93.3 146.7 96.9 147.8C96 151.2 94.8 154.7 93.3 158.3C91.9 155.6 90.3 152.9 88.5 150.2ZM75 139.7C72.9 139.6 70.8 139.5 68.7 139.5C66.5 139.5 64.3 139.6 62.1 139.7C64.2 137.3 66.3 135.2 68.5 133.3C70.7 135.2 72.9 137.4 75 139.7ZM48.7 150.5C47 153.2 45.4 155.9 43.9 158.6C42.3 155 41 151.4 40.1 147.9C43.8 146.7 47.9 145.7 52.4 145C51.1 146.8 49.9 148.6 48.7 150.5ZM95.8 163.1C98 158.4 99.7 153.8 100.9 149.3C101.3 149.5 101.7 149.6 102.2 149.8C106.5 151.7 109.8 153.8 112.1 156.2C114.4 158.5 115.5 160.9 115.5 163.3C115.5 165.7 114.4 168.1 112.1 170.4C109.8 172.7 106.5 174.9 102.2 176.8C101.9 176.9 101.5 177.1 101.2 177.2C100 172.7 98.2 167.9 95.8 163.1ZM41.5 163.4C39.3 168.1 37.6 172.8 36.4 177.2C36 177 35.6 176.9 35.2 176.7C30.9 174.8 27.6 172.7 25.3 170.3C23 168 21.9 165.6 21.9 163.2C21.9 160.8 23 158.4 25.3 156.1C27.6 153.8 30.9 151.6 35.2 149.7C35.5 149.6 35.8 149.4 36.2 149.3C37.4 153.9 39.2 158.7 41.5 163.4ZM72.1 195.9C75.2 193.1 78.3 189.9 81.2 186.3C87.4 185.6 93.1 184.3 98.1 182.7C98.2 183.1 98.2 183.4 98.3 183.7C99.1 188.3 99.1 192.3 98.4 195.4C97.7 198.6 96.3 200.8 94.3 202.1C90.5 204.6 84.2 203.9 76 198.6C74.8 197.9 73.4 196.9 72.1 195.9Z" fill="white" fill-opacity="0.4"/>
<path d="M68.7 170C72.4003 170 75.4 167 75.4 163.3C75.4 159.6 72.4003 156.6 68.7 156.6C64.9997 156.6 62 159.6 62 163.3C62 167 64.9997 170 68.7 170Z" fill="white" fill-opacity="0.4"/>
<path d="M38.4 328C42.8 339.9 51.5 349.3 63 354.6C69.3 357.5 76 359 82.8 359C88.3 359 93.9 358 99.2 356C123.7 347 136.3 319.7 127.2 295.2C118.2 270.7 90.9 258.2 66.4 267.2C42 276.3 29.4 303.5 38.4 328ZM55.3 278.5C62.9 281 68.4 286.7 69.9 293.4C71.6 300.8 67.5 309.1 60.7 312.2C60 312.5 59.2 312.8 58.4 313.1C56.9 313.6 55.2 314.2 53.7 315.2L54.2 316L54.4 316.2L53.7 315.2C52.4 316.1 51.2 317.3 50.5 318.7C49.8 320.1 49.4 321.9 50.1 323.6C50.8 325.5 52.4 326.6 53.5 327.4C54 327.8 54.5 328.1 54.8 328.4C56.3 329.9 56.7 332.4 55.7 334.4C55.3 335.2 54.1 336.1 52.5 336.8C51.1 337.3 49.7 337.6 48.5 337.4C46 334.1 44 330.4 42.5 326.4C35.9 309 41.6 289.9 55.3 278.5ZM108.6 346.2C100.1 345 90.5 340.9 84.1 335.7C80.3 332.6 78.8 329.9 78.8 327.5C78.8 325.2 80.5 322.6 83.3 321.2C85.6 320.1 88.5 319.6 92.3 320C94.2 320.2 96.2 320.6 98.1 321C99.5 321.3 100.9 321.6 102.4 321.8C103.3 321.9 104.5 322.1 105.7 322C106.9 321.9 108.2 321.5 109.3 320.5C110.7 319.2 111.2 317.5 111.2 315.9C111.2 314.3 110.7 312.8 110.1 311.5C109.8 310.8 109.4 310.1 109.1 309.6C108.3 308.1 107.7 307 107.5 305.9C107.4 304.5 107.7 303.3 108.5 302.4C109.3 301.4 110.7 300.6 112.5 300.2C116.7 299.2 120.9 299.4 124.4 300.6C129.1 317.9 122.5 335.9 108.6 346.2ZM109.2 277.5C109.2 278.7 108.8 280 108.2 281.1C107.4 282.5 106.3 283.5 105.2 283.9C102.7 284.8 99.6 283.8 98.1 281.6C97.6 280.8 97.2 279.9 96.8 278.8C96.1 277.1 95.2 274.9 93.3 273.4C91.4 272 89.1 271.7 87.2 271.5L86.6 271.4C85.1 271.3 83.8 271.2 82.8 270.7C82.4 270.5 81.8 270 81.5 269.5C81.3 269.2 81.2 268.9 81.2 268.6C81.8 268.6 82.3 268.6 82.9 268.6C92.4 268.5 101.7 271.8 109.2 277.5ZM67.9 271.2C70.9 270.1 73.9 269.4 76.9 268.9C77 269.9 77.3 270.7 77.7 271.5C78.5 272.9 79.7 273.9 80.9 274.5C82.7 275.3 84.7 275.5 86.2 275.6L86.7 275.7C88.4 275.8 89.7 276.1 90.6 276.8C91.5 277.5 92.1 278.7 92.8 280.5C93.2 281.6 93.7 282.9 94.5 284C96.4 286.9 99.8 288.5 103.2 288.5C104.3 288.5 105.4 288.3 106.5 288H106.7C108.8 287.2 110.6 285.4 111.8 283.4C112.3 282.6 112.7 281.7 112.9 280.8C117.2 285 120.7 290.1 123 296C119.5 295.3 115.6 295.4 111.8 296.2C106.5 297.4 103 301.3 103.5 306.4C103.7 308.5 104.8 310.3 105.6 311.7C105.9 312.3 106.3 312.8 106.5 313.4C106.9 314.2 107.1 315.1 107.1 315.9C107.1 316.7 106.9 317.1 106.6 317.4C106.3 317.6 105.9 317.8 105.2 317.9C104.5 318 103.8 317.9 103.1 317.8L102.9 318.8V319L103.1 317.8C101.7 317.6 100.4 317.3 99 317C97 316.6 94.9 316.2 92.8 315.9C88.4 315.4 84.6 315.9 81.5 317.5C77.5 319.5 74.8 323.3 74.7 327.5C74.6 331.6 77.2 335.5 81.6 339.1C87.4 343.8 95.6 347.7 103.6 349.6C101.8 350.6 99.9 351.4 97.9 352.2L98.2 353L98.3 353.2L97.9 352.2C87.1 356.2 75.4 355.7 64.9 350.9C59.9 348.6 55.5 345.4 51.8 341.6C53 341.4 54.1 341 55.1 340.5C56.9 339.6 58.6 338.3 59.5 336.7C61.3 333.1 60.6 328.6 57.8 325.8C57.2 325.2 56.5 324.7 56 324.4C54.9 323.6 54.3 323.1 54.1 322.5C53.9 322.1 54 321.5 54.4 320.9C54.8 320.2 55.4 319.6 56.1 319.1L55.7 318.5L55.6 318.3L56.1 319.1C57.2 318.4 58.4 318 59.9 317.4C60.7 317.1 61.6 316.8 62.5 316.4C71.1 312.5 76.2 302.2 74.1 292.9C72.4 285.5 66.9 279.3 59.4 276C61.9 273.8 64.8 272.4 67.9 271.2Z" fill="white" fill-opacity="0.4"/>
<path d="M731.5 39.4H395L391.7 31.4L436.7 7.6C437.3 7.3 437.9 6.8 438.2 6.2C438.5 5.7 438.7 5.1 438.7 4.5C438.7 3.6 438.4 2.7 437.8 2C437.4 1.6 437 1.3 436.7 1.2C436.2 0.9 435.6 0.9 435.1 0.9L303.1 0C302.5 0 302 0.2 301.5 0.4L224.4 39.4H134.9C121.9 39.4 111.4 49.9 111.4 62.9V80.2C111.4 81.4 112.3 82.3 113.5 82.3H237L241 96L241.4 97.2L242.7 97.1L243.2 97H243.3C243.4 97 243.5 97 243.6 97C243.7 97 243.7 97 243.8 97C242.4 101.2 241.4 105.5 240.8 109.9L239.7 110.2V110.3C238.2 110.9 236.8 111.7 235.5 112.8C233.1 114.9 231.3 117.9 230.1 121.4C228.9 124.9 228.3 128.9 228.3 133.2C228.3 136.8 228.7 140.5 229.6 144.4C231.3 151.8 234.5 158.3 238.5 163C240.5 165.3 242.7 167.3 245 168.6C247.3 169.9 249.8 170.7 252.4 170.7C253.3 170.7 254.2 170.6 255.2 170.4C257.1 169.9 258.9 169 260.4 167.7C278.5 187.2 307 199.7 338.9 199.7C382.1 199.7 419 176.8 432.3 144.7C432.8 144.8 433.3 144.8 433.8 144.8C434.1 144.8 434.4 144.8 434.8 144.8L434.7 143.7V143.8L434.8 144.8C437.1 144.6 439.1 143.6 440.8 142C443.3 139.7 445.3 136.3 446.6 132.2C447.9 128.1 448.6 123.3 448.6 118.1C448.6 116.2 448.5 114.2 448.3 112.2C447.5 104.2 445.2 97.1 442 91.9C440.4 89.3 438.5 87.1 436.4 85.5C434.3 83.9 432 83 429.5 83C429.2 83 428.9 83 428.5 83C428.2 83 427.9 83.1 427.6 83.1C427.4 82.8 427.3 82.5 427.1 82.2H753C754.2 82.2 755.1 81.3 755.1 80.1V62.9C755 49.9 744.4 39.4 731.5 39.4ZM434.5 87.8L433.9 88.7C436.2 90.5 438.5 93.6 440.4 97.7C442.2 101.8 443.6 106.9 444.1 112.4V112.6C444.3 114.5 444.4 116.3 444.4 118.1C444.4 124.6 443.2 130.2 441.3 134.2C440.3 136.2 439.2 137.8 438 138.8C436.8 139.9 435.6 140.4 434.3 140.6C434.1 140.6 434 140.6 433.8 140.6C432.4 140.6 430.9 140.1 429.4 138.9C427.1 137.1 424.8 134 422.9 129.9C421.1 125.7 419.7 120.6 419.1 115.1C418.9 113.2 418.8 111.4 418.8 109.6C418.8 103.1 420 97.5 421.9 93.4C422.9 91.4 424 89.8 425.2 88.8C426.4 87.7 427.6 87.2 428.9 87C429.1 87 429.2 87 429.4 87C430.8 87 432.3 87.5 433.8 88.7L434.5 87.8ZM422.4 85.8C419.9 88.1 417.9 91.5 416.6 95.6C415.3 99.7 414.6 104.5 414.6 109.7C414.6 111.6 414.7 113.6 414.9 115.6C415.7 123.6 418 130.7 421.2 135.9C422.8 138.5 424.7 140.7 426.8 142.3C427.3 142.7 427.8 143 428.3 143.3C415.7 173.5 380.5 195.5 338.9 195.5C308 195.5 280.5 183.3 263.3 164.6C264.5 162.9 265.4 161 266.2 158.8C267.4 155.3 268 151.3 268 147C268 143.9 267.7 140.6 267 137.3H267.1L266.8 135.8C265.1 128.4 261.9 121.9 257.9 117.2C255.9 114.9 253.7 112.9 251.4 111.6C249.4 110.5 247.4 109.8 245.2 109.6C245.9 105 247 100.6 248.6 96.3C249 96.2 249.5 96.2 249.9 96.1C254.2 95.5 260.3 94.5 267.6 93.1C282.3 90.4 302.1 86.2 322.5 80.2C342.8 74.3 361.9 67.8 375.9 62.9C382.9 60.4 388.7 58.3 392.7 56.8C393 56.7 393.3 56.6 393.5 56.5C406.6 63.9 416.6 73.1 423.7 84.8C423.2 85.1 422.8 85.4 422.4 85.8ZM134.9 43.6H216.1L176.2 63.8C175.6 64.1 175 64.6 174.7 65.2C174.3 65.8 174.2 66.5 174.2 67C174.2 67.9 174.5 68.8 175.1 69.5C175.7 70.2 176.6 70.7 177.7 70.7L234.5 73.7L235.7 77.9H115.6V62.9C115.6 52.3 124.3 43.6 134.9 43.6ZM303.2 4.1L433.6 4.7L390.2 27.6L387 19.7L386.4 18.3L385 18.8L384.5 19H384.4C384.3 19 384.2 19.1 384.1 19.1C379.9 20.7 346.2 33.5 308.4 44.6C288.3 50.5 269.4 54.4 255.6 56.8C248.7 58 243.1 58.9 239.2 59.4C237.3 59.7 235.8 59.9 234.7 60C234.4 60 234.2 60.1 234 60.1C233.8 60.1 233.7 60.1 233.5 60.2C233.3 60.2 233.2 60.2 233.1 60.2H233L232.4 60.3L230.7 60.5L231.2 62.2L233.4 69.6L179.3 66.8L303.2 4.1ZM387.4 31.8L388 33.3H388.1L395.4 51.3C387.4 54.3 356.1 66 321.2 76.2C319 76.8 316.9 77.4 314.8 78H314.6L314.4 78.1C312.9 78.5 311.5 78.9 310 79.3C293.9 83.6 278.6 86.7 266.7 88.9C259.4 90.3 253.3 91.2 249.1 91.9C247 92.2 245.3 92.5 244.2 92.6L236 64.1C237 64 238.2 63.8 239.8 63.6C243.8 63.1 249.4 62.2 256.4 61C270.3 58.6 289.3 54.6 309.6 48.7C329.9 42.8 349 36.3 363 31.4C370 28.9 375.8 26.8 379.8 25.3C381.7 24.6 383.1 24.1 384.2 23.7L386.6 29.7H386.5L387 31L387.4 31.8ZM235.2 119.9C236.1 118.2 237.1 116.8 238.3 115.8C239.4 114.8 240.7 114.1 242.1 113.8C242.7 113.7 243.3 113.6 243.9 113.6C245.6 113.6 247.4 114.1 249.2 115.2C252 116.8 254.7 119.6 257.1 123.3C259.5 127 261.4 131.6 262.6 136.8C263.4 140.4 263.8 143.8 263.8 147.1C263.8 152.3 262.8 157 261 160.4C260.1 162.1 259.1 163.5 257.9 164.5C256.8 165.5 255.5 166.2 254.1 166.5C253.5 166.6 252.9 166.7 252.3 166.7C250.6 166.7 248.8 166.2 247 165.1C244.2 163.5 241.5 160.7 239.1 157C236.7 153.3 234.8 148.7 233.6 143.5C232.8 139.9 232.4 136.5 232.4 133.2C232.4 127.9 233.4 123.3 235.2 119.9ZM398.5 54.6C398.6 54.6 398.7 54.5 398.8 54.5H398.9L399.4 54.3L400.9 53.8L400.3 52.4L396.8 43.7H731.6C742.2 43.7 750.9 52.4 750.9 63V79H424.9C418.2 69.2 409.5 61.2 398.5 54.6Z" fill="white" fill-opacity="0.4"/>
</svg>
