<svg width="577" height="476" viewBox="0 0 577 476" fill="none" xmlns="http://www.w3.org/2000/svg">
<g opacity="0.39">
<path d="M352.106 238.437C384.428 238.437 412.353 219.238 425.123 191.655H447.341V258.48L447.482 258.667C447.482 258.667 447.622 258.808 447.762 258.995C447.856 259.089 447.949 259.183 448.09 259.229C448.23 259.323 448.37 259.417 448.698 259.417C449.025 259.417 449.306 259.276 449.54 259.089C449.774 258.902 449.914 258.574 449.914 258.246V190.391C449.914 190.063 449.774 189.782 449.587 189.595C449.399 189.408 449.212 189.267 449.025 189.173L448.885 189.127H426.058C430.128 179.62 432.373 169.037 432.373 157.985C432.373 151.804 431.671 145.763 430.362 139.956C434.993 138.832 438.735 137.943 440.98 137.428L442.196 137.147L441.915 135.929C441.073 132.417 439.53 128.296 437.612 124.128C432.934 113.779 426.292 102.962 424.141 99.5899H460.251L460.345 99.5431C460.392 99.5431 460.532 99.4963 460.719 99.3558C460.813 99.3089 460.953 99.2153 461.047 99.0748C461.093 99.028 461.187 98.9343 461.234 98.7938C461.281 98.7002 461.327 98.5597 461.327 98.4192C461.327 98.1382 461.234 97.9977 461.14 97.8572C461.047 97.6699 460.906 97.4826 460.766 97.389C460.672 97.2953 460.579 97.2016 460.579 97.2016L460.392 97.0143H422.129C418.34 92.5656 414.177 88.4915 409.64 84.8388C393.97 72.195 374.044 64.6088 352.387 64.5151H351.124V77.2994C333.863 77.5335 317.913 83.2466 304.956 92.7997C303.646 91.0202 302.57 89.5685 301.775 88.5383C301.588 88.3042 301.307 88.1168 300.98 88.07C300.933 88.07 300.886 88.07 300.793 88.07C300.559 88.07 300.278 88.1637 300.091 88.3042C288.912 96.6865 279.978 107.785 273.99 120.335H232.641L232.454 120.522C232.454 120.522 232.313 120.663 232.126 120.85C232.033 120.944 231.939 121.038 231.892 121.178C231.799 121.318 231.705 121.459 231.705 121.74C231.705 122.021 231.799 122.302 231.986 122.536C232.173 122.77 232.454 122.911 232.781 122.911C232.828 122.911 232.828 122.911 232.875 122.911H257.245V133.541L228.524 150.025L213.696 141.455C213.509 141.361 213.322 141.314 213.088 141.314C212.667 141.314 212.293 141.549 212.059 141.923C211.966 142.11 211.919 142.298 211.919 142.532C211.919 142.953 212.153 143.328 212.527 143.562L227.495 152.132V185.146L198.822 201.63L183.245 192.639C182.824 191.749 182.357 190.906 181.795 190.063C179.27 186.083 175.668 182.617 171.411 180.276C165.985 177.279 159.764 175.921 153.496 175.921C147.93 175.921 142.363 176.998 137.265 178.965C126.413 183.133 117.572 190.906 110.696 199.663C108.451 202.52 106.346 205.61 104.803 208.935C103.259 212.26 102.23 215.772 102.23 219.472C102.23 220.08 102.277 220.689 102.323 221.298C102.51 223.546 103.119 225.7 103.633 227.76C104.148 229.821 104.569 231.788 104.569 233.661C104.569 234.597 104.475 235.534 104.194 236.471C103.867 237.548 103.352 238.578 102.698 239.514C101.669 240.919 100.312 242.23 98.7684 243.495C97.2248 244.712 95.4941 245.883 93.8102 247.054C91.6117 248.599 89.3665 250.379 87.6358 252.533C86.7471 253.61 85.9987 254.781 85.4841 255.998C84.9696 257.263 84.6422 258.574 84.6422 260.025C84.6422 260.213 84.6422 260.4 84.6422 260.587C84.6889 261.711 84.9696 262.788 85.3906 263.819C85.9987 265.317 86.8406 266.675 87.8229 267.986C88.7584 269.251 89.8343 270.468 90.7698 271.639C91.7521 272.857 92.6408 274.168 93.3424 275.479C93.9973 276.79 94.4183 278.148 94.4183 279.366C94.4183 280.021 94.3247 280.63 94.0909 281.286C93.7167 282.222 93.1553 283.018 92.3134 283.768C91.0972 284.892 89.4133 285.828 87.6358 286.812C86.2793 287.561 84.8293 288.357 83.5195 289.293V289.2L82.3501 290.23C80.8533 291.588 79.7307 293.18 79.0291 294.96C78.3274 296.739 78 298.612 78 300.532C78 303.857 79.0291 307.229 80.9001 310.039C82.8647 312.989 85.5309 315.377 88.5245 317.344C88.2907 317.859 87.7294 319.03 87.0277 320.856C84.1744 328.068 78.5145 345.348 78.2339 369.745C78.2339 370.401 78.2339 371.057 78.2339 371.712C78.2339 388.43 80.6662 404.352 84.268 417.323C86.0922 423.833 88.1971 429.593 90.4424 434.369C92.6876 439.146 95.1199 442.986 97.599 445.561C98.6749 446.685 99.8443 447.762 101.014 448.652L92.0327 474.314C91.9859 474.455 91.986 474.595 91.986 474.736C91.986 475.251 92.3134 475.672 92.7811 475.859C92.9215 475.906 93.0618 475.906 93.1553 475.906C93.6699 475.906 94.0909 475.579 94.278 475.11L103.025 450.104C107.375 452.913 112.287 454.365 117.666 454.365C118.508 454.365 119.397 454.318 120.285 454.271C127.208 453.709 134.833 450.947 142.972 446.076C146.386 444.063 150.877 440.832 155.741 437.179C170.289 426.127 188.017 410.861 188.297 410.674C188.578 410.44 188.718 410.112 188.718 409.784C188.718 409.644 188.718 409.503 188.671 409.409L188.157 407.864C188.391 407.63 188.625 407.396 188.859 407.162L232.875 403.415C238.815 434.135 246.907 474.595 247.001 475.017C247.094 475.579 247.609 476 248.17 476C248.264 476 248.311 476 248.404 476C248.965 475.906 249.386 475.391 249.34 474.829C249.34 474.736 249.34 474.689 249.34 474.595C249.246 474.174 240.967 432.824 235.026 401.964C234.979 401.683 234.839 401.449 234.652 401.261C234.465 401.074 234.184 400.98 233.904 400.98C233.904 400.98 233.857 400.98 233.763 400.98L191.572 404.586C195.968 400.278 198.822 397.281 199.617 396.438C203.64 395.314 211.966 392.598 219.45 389.554C223.239 388.009 226.747 386.416 229.413 384.871C230.723 384.075 231.799 383.326 232.594 382.576C232.968 382.202 233.296 381.827 233.576 381.406C233.81 381.031 233.95 380.563 233.95 380.141C233.95 380.001 233.95 379.907 233.904 379.814C233.763 378.971 233.436 378.268 232.968 377.659C232.313 376.77 231.378 376.208 230.395 375.833C230.255 375.786 230.115 375.739 229.974 375.693C232.407 374.756 234.371 373.819 235.868 372.836C236.85 372.18 237.646 371.525 238.254 370.869C238.862 370.167 239.236 369.464 239.423 368.715C239.47 368.481 239.517 368.247 239.517 368.013C239.517 367.404 239.33 366.795 239.049 366.233C238.721 365.671 238.301 365.156 237.692 364.688C236.944 364.079 236.008 363.751 234.933 363.517C233.857 363.283 232.641 363.236 231.378 363.236C231.331 363.236 231.284 363.236 231.237 363.236C232.5 362.674 233.763 362.112 234.839 361.457C235.962 360.801 236.944 360.145 237.692 359.396C238.067 359.022 238.347 358.647 238.581 358.225C238.815 357.804 238.955 357.383 238.955 356.914V356.867C238.955 356.306 238.768 355.837 238.488 355.369C238.02 354.62 237.225 354.058 236.336 353.589C234.979 352.934 233.296 352.466 231.565 352.138C230.816 351.997 230.021 351.904 229.32 351.763C229.694 351.576 230.021 351.388 230.349 351.154C230.863 350.78 231.378 350.405 231.799 349.937C232.22 349.469 232.547 348.953 232.734 348.391C232.828 348.064 232.875 347.736 232.875 347.408C232.875 346.565 232.5 345.722 231.892 344.973C231.424 344.411 230.77 343.943 229.974 343.568C228.805 343.006 227.261 342.585 225.531 342.304C223.8 342.023 221.789 341.882 219.637 341.882C211.545 341.882 201.207 343.755 193.443 347.689C191.431 348.719 188.578 350.311 184.929 352.559C181.421 354.667 177.165 357.383 172.16 360.614L172.113 360.473C171.972 360.145 171.739 359.865 171.411 359.724C171.271 359.677 171.131 359.63 170.99 359.63C170.756 359.63 170.569 359.677 170.382 359.818C159.764 366.28 147.135 375.739 136.47 384.075C135.768 380.329 134.692 374.428 133.663 368.387C132.541 361.738 131.511 354.947 131.09 350.873C131.044 350.546 130.903 350.311 130.669 350.124C130.436 349.937 130.202 349.843 129.874 349.843C129.874 349.843 129.828 349.843 129.734 349.843C129.734 349.843 129.734 349.843 129.687 349.843H129.64C129.36 349.89 129.126 350.03 128.939 350.218C128.752 350.405 128.611 350.686 128.611 351.014C128.611 351.014 128.611 351.061 128.611 351.108C129.032 355.369 130.108 362.393 131.278 369.277C132.4 375.88 133.523 382.249 134.224 385.761C129.547 389.46 125.29 392.926 121.876 395.689L121.501 396.016L121.689 396.485C121.689 396.485 121.689 396.531 121.689 396.578V396.625C121.689 396.859 121.595 397.14 121.501 397.421L120.847 399.622L122.624 398.17C126.226 395.22 130.857 391.427 136.049 387.353C136.236 387.259 136.376 387.166 136.516 386.978C146.994 378.737 159.577 369.23 170.242 362.627L185.397 407.208C185.304 407.396 185.21 407.63 185.21 407.817C185.21 408.098 185.304 408.426 185.537 408.66C185.678 408.801 185.818 408.894 185.958 408.941L186.099 409.409C183.947 411.236 176.369 417.698 167.716 424.722C163.085 428.469 158.174 432.356 153.636 435.774C149.099 439.193 144.889 442.19 141.755 444.063C132.728 449.448 124.682 452.07 117.666 452.07C112.521 452.07 107.936 450.666 103.82 447.856L103.914 447.622L103.352 447.341C103.119 447.2 102.885 447.06 102.651 446.872L101.856 446.17L101.809 446.357C100.967 445.655 100.125 444.859 99.283 444.016C96.8506 441.347 94.5586 437.694 92.3602 433.011C89.0859 426.034 86.0922 416.855 83.9405 406.319C81.7888 395.782 80.4791 383.888 80.4791 371.525C80.4791 370.869 80.4791 370.214 80.4791 369.605C80.6662 353.589 83.1921 340.758 85.6712 331.861C87.7294 324.462 89.7875 319.779 90.4424 318.421L90.9101 318.702L90.9569 317.531C90.9569 317.484 90.9569 317.438 91.0037 317.344C91.0504 317.297 91.0972 317.203 91.1908 317.203L92.3602 316.642L91.2375 315.986C90.723 315.705 90.2085 315.377 89.7407 315.096C86.9809 313.317 84.5486 311.163 82.8647 308.54C81.2743 306.152 80.3856 303.248 80.3856 300.439C80.3856 298.847 80.6662 297.254 81.2275 295.85C81.7888 294.398 82.6776 293.133 83.8937 292.056C84.7357 291.307 85.8116 290.605 86.9342 289.949C88.6181 288.966 90.5359 288.029 92.2198 286.858C93.0618 286.25 93.857 285.594 94.5586 284.845C95.2603 284.049 95.8683 283.159 96.2425 282.129C96.57 281.192 96.7571 280.256 96.7571 279.319C96.7571 277.539 96.1958 275.854 95.4474 274.308C94.6522 272.763 93.6231 271.311 92.594 270C91.2843 268.408 89.9278 266.862 88.8988 265.27C88.3842 264.474 87.9632 263.678 87.6358 262.882C87.3084 262.086 87.1213 261.29 87.0745 260.447C87.0745 260.306 87.0745 260.166 87.0745 260.025C87.0745 258.995 87.3084 257.965 87.7294 256.982C88.3374 255.53 89.4133 254.078 90.7698 252.767C92.0795 251.456 93.6699 250.191 95.2135 249.114C97.4119 247.569 99.7975 245.977 101.902 244.104C102.931 243.167 103.914 242.137 104.709 240.966C105.504 239.842 106.159 238.578 106.58 237.173C106.907 236.002 107.048 234.832 107.048 233.661C107.048 231.413 106.533 229.259 106.019 227.152C105.504 225.044 104.943 223.031 104.803 221.064C104.756 220.549 104.709 220.034 104.709 219.472C104.709 216.287 105.598 213.103 107.048 210.012C108.498 206.922 110.462 203.971 112.614 201.208C119.256 192.686 127.769 185.24 138.107 181.306C142.925 179.433 148.21 178.45 153.449 178.45C159.343 178.45 165.143 179.714 170.148 182.524C174.031 184.678 177.352 187.815 179.644 191.468C180.065 192.124 180.439 192.826 180.813 193.482C180.86 193.763 180.953 193.997 181.141 194.184C182.497 197.088 183.292 200.225 183.292 203.316C183.292 205.002 183.058 206.687 182.591 208.326C182.263 209.404 181.842 210.621 181.468 211.839C181.094 213.056 180.813 214.367 180.813 215.725C180.813 216.896 181.047 218.067 181.702 219.238C182.263 220.221 182.965 220.97 183.76 221.579C184.929 222.516 186.239 223.218 187.362 223.967C187.923 224.342 188.438 224.67 188.859 225.091C189.28 225.466 189.654 225.887 189.934 226.309C190.449 227.105 190.636 227.948 190.636 228.884C190.636 230.336 190.075 232.115 189.467 233.942C188.859 235.815 188.204 237.782 188.157 239.889C188.157 240.03 188.11 240.123 188.11 240.217C188.11 242.09 188.625 243.823 189.42 245.415C190.636 247.756 192.601 249.77 194.706 251.549C196.81 253.329 199.196 254.921 201.301 256.466C203.827 258.293 206.259 260.26 208.317 262.507C210.329 264.708 211.966 267.05 213.042 269.672C212.995 269.672 212.995 269.672 212.995 269.672C212.901 269.625 212.761 269.625 212.667 269.625C212.153 269.625 211.685 269.953 211.545 270.468C211.498 270.562 211.498 270.702 211.498 270.796C211.498 271.311 211.825 271.779 212.34 271.92C212.434 271.92 218.14 273.699 224.969 277.633C231.799 281.614 239.704 287.795 244.194 296.692L253.596 315.19C253.643 315.283 253.69 315.33 253.737 315.377C253.596 315.611 253.503 315.845 253.362 316.033C250.462 321.465 247.983 326.148 246.159 328.864C246.065 329.004 245.972 329.192 245.972 329.379L238.488 392.598C238.488 392.645 238.488 392.692 238.488 392.738C238.488 393.066 238.628 393.347 238.815 393.581C242.51 397.374 247.141 400.559 252.614 402.994C255.561 404.305 258.742 404.961 261.875 404.961C265.197 404.961 268.564 404.211 271.652 402.76C277.639 399.903 282.036 394.565 283.72 388.149C289.239 367.17 298.407 336.403 305.19 318.281C305.237 318.14 305.283 318 305.283 317.859C305.283 317.438 305.096 317.063 304.722 316.829C305.377 315.003 306.687 311.584 308.183 308.54C308.932 306.995 309.774 305.496 310.569 304.419C310.943 303.904 311.364 303.436 311.692 303.155C312.019 302.874 312.347 302.733 312.534 302.687C313.703 302.546 314.919 302.359 316.135 302.218C320.906 301.609 326.005 300.954 330.776 299.736C335.547 298.519 340.038 296.786 343.546 293.976C343.827 293.742 344.06 293.555 344.341 293.321V367.591H317.866C317.819 367.591 317.679 367.591 317.445 367.638C317.352 367.685 317.211 367.732 317.071 367.779C316.931 367.872 316.79 367.966 316.65 368.153L316.51 368.341V474.501L316.65 474.689C316.79 474.829 316.931 475.017 317.118 475.157C317.305 475.298 317.585 475.438 317.913 475.438C318.053 475.438 318.193 475.391 318.287 475.344C318.474 475.251 318.614 475.157 318.661 475.063C318.802 474.923 318.848 474.782 318.895 474.689C318.942 474.595 318.989 474.501 318.989 474.501L319.035 474.408V369.745H344.341V429.358C344.341 444.016 356.129 455.91 370.723 456.098H371.05C378.441 456.004 385.13 453.007 390.041 448.418C394.999 443.735 398.086 437.366 398.086 430.576V288.685C398.086 288.497 398.086 288.31 398.086 288.123C400.238 287.795 402.156 286.765 403.559 285.266C405.15 283.58 406.085 281.379 406.085 278.897V278.757C406.085 273.606 401.922 269.391 396.73 269.391H351.638C351.638 269.298 351.638 269.204 351.638 269.11C351.638 268.642 351.591 268.174 351.404 267.705C351.217 267.097 350.937 266.535 350.516 266.066C350.141 265.598 349.627 265.27 349.112 265.036C348.551 264.802 347.896 264.662 347.241 264.662C346.493 264.662 345.698 264.802 344.856 265.036V264.989C344.856 264.568 344.809 264.146 344.622 263.678C344.388 263.116 343.967 262.601 343.452 262.226C342.938 261.852 342.283 261.618 341.535 261.43C341.114 261.337 340.739 261.29 340.318 261.29C339.196 261.29 338.073 261.618 336.857 262.039C335.688 262.507 334.425 263.116 333.068 263.819C330.121 265.27 326.894 266.909 322.824 267.752C318.755 268.595 315.948 269.157 314.077 269.532C315.106 268.361 316.65 266.956 318.802 265.598C320.626 264.474 321.702 263.257 322.357 262.086C323.011 260.915 323.152 259.885 323.199 259.136V259.042C323.199 257.216 322.357 255.53 320.86 254.546C320.111 254.031 319.223 253.844 318.334 253.844C317.024 253.844 315.714 254.266 314.358 254.874C313.048 255.483 311.738 256.326 310.616 257.216C309.867 257.825 308.698 258.34 307.295 258.855C305.891 259.37 304.254 259.885 302.43 260.4C298.173 261.664 293.309 263.116 289.239 265.739V255.062L317.445 238.812L337.793 250.519C337.98 250.613 338.167 250.66 338.401 250.66C338.822 250.66 339.196 250.426 339.43 250.051C339.523 249.864 339.57 249.629 339.57 249.442C339.57 249.021 339.336 248.646 338.962 248.412L318.989 236.892V231.179C329.045 235.862 340.272 238.437 352.106 238.437ZM388.591 446.779C384.194 451.181 378.113 453.897 371.424 453.944C370.442 453.475 364.361 450.619 358.514 446.264C355.521 444.016 352.527 441.393 350.375 438.537C348.177 435.68 346.773 432.59 346.773 429.452V291.12H346.633C347.428 290.277 348.13 289.481 348.691 288.638L348.645 288.732H395.748V429.452C395.794 436.242 393.035 442.33 388.591 446.779ZM439.062 135.273C430.689 137.24 409.827 142.298 390.602 146.981C373.903 151.055 358.421 154.848 353.696 156.065V67.1844C374.231 67.5122 393.175 74.8643 408.19 86.993C412.026 90.0837 415.627 93.5022 418.902 97.0143H394.157L393.97 97.2016C393.83 97.3421 393.69 97.4826 393.502 97.6699C393.362 97.8572 393.222 98.1382 393.222 98.466C393.222 98.747 393.315 99.028 393.502 99.2153C393.69 99.4494 393.97 99.5899 394.298 99.5899C394.344 99.5899 394.391 99.5899 394.438 99.5899H421.007C429.473 109.892 435.741 121.974 439.062 135.273ZM320.673 259.37C320.673 260.119 320.392 260.915 319.831 261.664C319.316 262.414 318.474 263.163 317.398 263.819C312.159 267.05 310.195 270.796 310.101 271.03C310.008 271.218 309.961 271.405 309.961 271.592C309.961 271.826 310.055 272.107 310.195 272.295C310.429 272.622 310.803 272.763 311.13 272.763C311.224 272.763 311.271 272.763 311.317 272.763C311.364 272.763 314.498 272.154 323.058 270.375C327.408 269.485 331.01 267.659 333.863 266.207C335.173 265.551 336.296 264.989 337.325 264.568C338.354 264.146 339.243 263.912 339.991 263.912C340.225 263.912 340.459 263.912 340.646 264.006C341.114 264.1 341.441 264.24 341.675 264.381C341.909 264.521 342.002 264.661 342.096 264.802C342.143 264.896 342.143 265.036 342.143 265.177C342.143 265.458 342.049 265.832 341.909 266.113C341.862 266.254 341.815 266.347 341.768 266.441L341.722 266.535V266.628C341.722 266.675 341.675 266.722 341.675 266.769C341.535 266.816 341.394 266.862 341.254 266.956C333.863 271.733 325.35 275.058 316.65 276.462C316.042 276.556 315.668 277.071 315.668 277.633C315.668 277.68 315.668 277.727 315.668 277.82C315.761 278.382 316.276 278.804 316.837 278.804H317.071C326.099 277.352 334.892 273.934 342.564 268.97C342.798 268.829 342.938 268.642 343.031 268.408C343.125 268.408 343.219 268.361 343.312 268.314C344.856 267.565 346.119 267.237 346.961 267.237C347.335 267.237 347.662 267.284 347.896 267.424C348.13 267.518 348.27 267.659 348.457 267.846C348.598 268.033 348.738 268.314 348.878 268.642C348.925 268.876 348.972 269.063 348.972 269.298C348.972 269.906 348.738 270.609 348.411 271.218C348.224 271.592 347.99 271.92 347.803 272.154C347.054 272.014 346.306 271.92 345.557 271.92C343.873 271.92 342.096 272.295 340.225 272.997C338.588 273.606 337.091 274.402 335.641 275.151C334.986 275.479 334.331 275.854 333.676 276.135C328.671 278.57 323.292 280.068 317.726 280.536C317.118 280.583 316.65 281.098 316.65 281.707C316.65 281.707 316.65 281.754 316.65 281.801V281.848C316.743 282.456 317.211 282.878 317.819 282.878H317.96C323.807 282.363 329.466 280.817 334.752 278.242C335.454 277.914 336.109 277.539 336.763 277.212C338.214 276.462 339.664 275.713 341.114 275.151C342.751 274.542 344.248 274.261 345.604 274.261C346.259 274.261 346.867 274.355 347.475 274.449C347.522 274.449 347.522 274.449 347.569 274.449C347.943 274.823 348.177 275.151 348.317 275.479C348.457 275.854 348.551 276.181 348.551 276.462C348.551 276.931 348.411 277.399 348.224 277.727C348.224 277.774 348.177 277.82 348.177 277.82C348.13 277.82 348.036 277.774 347.943 277.774C347.662 277.727 347.428 277.727 347.148 277.727C345.464 277.727 343.686 278.195 341.862 279.132C340.739 279.694 339.664 280.396 338.634 281.052C338.073 281.426 337.465 281.801 336.904 282.129C332.273 284.892 326.847 286.343 321.468 286.343C320.579 286.343 319.69 286.296 318.802 286.203C318.802 286.203 318.755 286.203 318.708 286.203C318.427 286.203 318.1 286.296 317.913 286.531C317.679 286.718 317.539 286.999 317.539 287.327C317.539 287.327 317.539 287.373 317.539 287.42C317.539 288.029 318.006 288.544 318.614 288.591C319.597 288.685 320.532 288.732 321.515 288.732C327.362 288.732 333.162 287.139 338.167 284.189C338.775 283.815 339.383 283.44 339.944 283.065C340.927 282.456 341.956 281.801 342.938 281.286C344.481 280.49 345.932 280.115 347.194 280.115C347.382 280.115 347.569 280.115 347.756 280.162H347.849C347.896 280.209 347.896 280.256 347.943 280.302L347.99 280.443L348.036 280.396C348.457 281.052 348.645 281.707 348.645 282.503C348.645 282.644 348.645 282.831 348.598 282.972C348.457 284.189 347.849 285.594 346.773 287.093C345.651 288.638 344.06 290.277 341.956 291.963C338.822 294.491 334.612 296.13 329.981 297.301C325.397 298.425 320.392 299.081 315.714 299.689C314.451 299.83 313.235 300.017 312.066 300.158C311.224 300.251 310.475 300.72 309.727 301.422C308.604 302.499 307.529 304.138 306.312 306.526C305.19 308.774 303.927 311.678 302.57 315.283L269.734 294.304C273.757 287.889 277.218 282.691 280.212 278.663C282.878 275.011 285.17 272.248 287.088 270.375C287.134 270.421 287.134 270.468 287.181 270.468C287.368 270.609 287.649 270.749 287.976 270.749C288.304 270.749 288.584 270.609 288.818 270.421C289.005 270.234 289.146 269.906 289.146 269.625V268.736C293.075 265.785 298.314 264.193 302.991 262.788C304.816 262.226 306.546 261.711 308.09 261.149C309.587 260.587 310.943 259.979 311.972 259.183C313.188 258.246 314.358 257.497 315.434 257.028C316.51 256.56 317.445 256.326 318.193 256.326C318.708 256.326 319.129 256.466 319.41 256.654C320.205 257.216 320.673 258.105 320.719 259.183L320.673 259.37ZM216.129 270.609C215.942 269.953 215.755 269.344 215.521 268.736C214.351 265.692 212.48 263.023 210.235 260.634C208.037 258.246 205.464 256.139 202.844 254.266C199.991 252.205 196.857 250.098 194.518 247.756C193.349 246.586 192.367 245.368 191.712 244.104C191.057 242.839 190.683 241.528 190.683 240.076V240.03C190.73 238.437 191.291 236.611 191.899 234.738C192.507 232.865 193.162 230.898 193.209 228.837C193.209 227.526 192.928 226.168 192.133 224.904C191.525 223.967 190.776 223.265 189.981 222.656C188.765 221.719 187.502 221.064 186.379 220.315C185.818 219.94 185.35 219.565 184.929 219.191C184.508 218.816 184.181 218.395 183.947 217.973C183.573 217.271 183.386 216.521 183.386 215.725C183.386 214.742 183.62 213.665 183.947 212.541C184.275 211.417 184.695 210.2 185.07 208.982C185.631 207.109 185.865 205.142 185.865 203.222C185.865 200.834 185.444 198.446 184.742 196.151L197.746 203.69V237.454C197.746 237.875 197.98 238.297 198.354 238.484L228.15 255.717C228.337 255.811 228.524 255.858 228.758 255.858C228.945 255.858 229.179 255.811 229.366 255.717L258.554 238.859L287.134 255.389V267.846C284.889 269.766 282.27 272.716 279.136 276.931C275.955 281.145 272.306 286.624 268.05 293.414L267.956 293.368C267.769 293.227 267.535 293.18 267.301 293.18C267.208 293.18 267.161 293.18 267.021 293.227C266.74 293.321 266.46 293.508 266.319 293.742C262.296 300.158 258.554 307.042 255.374 312.989L246.58 295.709C242.744 288.17 236.71 282.55 230.816 278.476C224.969 274.402 219.403 271.92 216.129 270.609ZM287.883 253.188L259.396 236.705V203.737L279.276 192.217C286.994 208.701 300.138 222.141 316.369 230.195V236.658L287.883 253.188ZM275.16 122.911H279.791C276.937 128.764 274.832 135.039 273.476 141.549L269.593 139.301C270.856 133.681 272.727 128.155 275.16 122.911ZM306.266 94.907C318.895 85.6349 334.378 80.0623 351.124 79.875V154.239C343.359 143.984 317.96 110.501 306.266 94.907ZM275.16 145.388L277.686 146.84C276.75 146.7 275.861 146.606 275.019 146.466C275.066 146.138 275.113 145.763 275.16 145.388ZM274.505 148.854C277.078 149.182 279.931 149.556 282.925 149.978L286.62 152.085V185.099L280.258 188.752C276.189 179.293 273.944 168.897 273.944 157.985C273.99 154.895 274.178 151.851 274.505 148.854ZM283.907 147.683L275.628 142.907C276.984 135.882 279.323 129.186 282.457 122.911H298.548C298.594 122.911 298.594 122.911 298.641 122.911C298.969 122.911 299.249 122.77 299.436 122.536C299.624 122.302 299.717 122.068 299.717 121.74C299.717 121.412 299.577 121.131 299.436 120.944C299.296 120.757 299.109 120.616 298.969 120.476L298.782 120.335H283.673C288.818 111.11 295.835 102.868 304.208 96.3119C316.229 112.374 342.657 147.168 349.627 156.393C339.851 155.129 306.78 150.727 283.907 147.683ZM272.961 144.124C272.821 144.827 272.727 145.482 272.634 146.185C271.09 145.997 269.687 145.81 268.377 145.623C268.564 144.358 268.798 143.094 269.032 141.876L272.961 144.124ZM281.287 191L287.836 187.207L316.369 203.69V227.526C301.027 219.612 288.631 206.734 281.287 191ZM280.96 120.757H276.282C281.942 109.283 290.128 99.1684 300.278 91.3012C300.98 92.2378 301.822 93.3617 302.757 94.6261C293.777 101.604 286.292 110.548 280.96 120.757ZM267.348 138.083L259.396 133.494V122.911H272.494C270.295 127.781 268.611 132.838 267.348 138.083ZM265.711 146.466C265.711 146.512 265.711 146.559 265.711 146.653C265.711 146.934 265.805 147.168 265.945 147.355C266.132 147.589 266.413 147.777 266.74 147.824C268.331 148.058 270.155 148.292 272.213 148.573C271.839 151.664 271.652 154.848 271.652 158.032C271.652 169.412 273.99 180.182 278.247 190.016L258.133 201.63L229.6 185.146V152.132L258.133 135.648L266.74 140.612C266.366 142.532 265.992 144.499 265.711 146.466ZM256.824 236.705L228.337 253.188L199.851 236.705V203.737L228.337 187.253L256.824 203.737V236.705ZM248.264 329.941C250.182 327.038 252.614 322.401 255.42 317.11C258.742 310.835 262.905 303.108 267.348 295.85L302.524 318.327C295.741 336.637 286.76 366.795 281.334 387.493C279.837 393.253 275.908 397.983 270.529 400.559C267.769 401.87 264.776 402.526 261.782 402.526C258.975 402.526 256.122 401.917 253.503 400.746C248.498 398.498 244.241 395.642 240.826 392.27L248.264 329.941ZM423.673 189.127H392.707L392.52 189.267C392.52 189.267 392.333 189.361 392.193 189.548C392.099 189.642 392.006 189.735 391.912 189.876C391.819 190.016 391.725 190.204 391.725 190.485C391.725 190.812 391.865 191.093 392.052 191.328C392.24 191.562 392.52 191.655 392.801 191.702H422.223C409.687 217.973 382.884 236.19 351.966 236.19C340.131 236.19 328.905 233.52 318.895 228.744V202.941C318.848 202.754 318.802 202.613 318.708 202.426C318.614 202.286 318.474 202.098 318.287 202.005L289.146 185.146V151.289C289.146 151.055 289.052 150.821 288.959 150.633C313.048 153.818 344.622 158.032 351.124 158.875V159.156L351.872 158.969C352.153 159.016 352.293 159.016 352.293 159.016H352.48C352.854 159.016 353.182 158.828 353.416 158.594C353.462 158.594 353.509 158.594 353.556 158.547C357.625 157.564 376.102 153.022 395.28 148.386C407.067 145.529 419.136 142.579 428.257 140.378C429.52 145.997 430.221 151.851 430.221 157.845C430.221 168.99 427.883 179.574 423.673 189.127ZM403.793 279.225C403.793 281.145 402.998 282.878 401.735 284.142C400.472 285.407 398.741 286.203 396.824 286.203H349.72C350.141 285.313 350.375 284.376 350.469 283.487C350.516 283.253 350.516 283.018 350.516 282.784C350.516 281.614 350.188 280.49 349.58 279.506C349.72 279.272 349.907 278.944 350.048 278.617C350.282 278.055 350.469 277.352 350.469 276.603C350.469 275.666 350.188 274.589 349.393 273.559C349.674 273.138 350.048 272.622 350.328 271.967H396.87C398.788 271.967 400.519 272.763 401.782 274.027C403.045 275.292 403.84 277.024 403.84 278.944V279.225H403.793ZM230.162 347.361C230.068 347.689 229.741 348.11 229.273 348.485C228.524 349.094 227.402 349.703 226.326 350.124C225.25 350.592 224.174 350.92 223.566 351.108C223.426 351.154 223.332 351.201 223.192 351.295C223.052 351.248 222.865 351.201 222.724 351.201H222.677C222.677 351.201 222.631 351.201 222.584 351.201C216.082 351.716 209.627 353.636 203.874 356.774C203.499 357.008 203.265 357.383 203.265 357.804C203.265 357.991 203.312 358.179 203.406 358.366C203.64 358.741 204.014 358.975 204.435 358.975C204.622 358.975 204.809 358.928 204.996 358.834C210.422 355.837 216.597 354.011 222.771 353.543C223.005 353.543 223.192 353.449 223.332 353.355C223.473 353.402 223.613 353.449 223.8 353.449C226.279 353.496 229.507 353.824 232.079 354.432C233.389 354.713 234.465 355.088 235.213 355.509C235.588 355.697 235.868 355.931 236.008 356.118C236.149 356.306 236.196 356.446 236.196 356.54C236.196 356.586 236.196 356.633 236.149 356.727C236.055 356.914 235.868 357.195 235.494 357.476C234.886 358.038 233.904 358.647 232.687 359.256C229.086 361.129 223.519 363.096 219.45 364.22C219.356 364.266 219.263 364.313 219.169 364.36L218.842 363.985L218.795 364.501C218.748 364.501 218.655 364.501 218.608 364.547C215.053 365.578 211.545 366.889 208.224 368.434C207.803 368.621 207.522 369.09 207.522 369.511C207.522 369.652 207.569 369.839 207.616 370.026C207.803 370.448 208.27 370.729 208.691 370.729C208.879 370.729 209.019 370.682 209.206 370.635C212.48 369.137 215.848 367.872 219.31 366.889C219.403 366.842 219.497 366.795 219.59 366.748L219.918 367.123L219.964 366.608C220.011 366.608 220.058 366.608 220.058 366.608H220.105C222.397 366.093 227.308 365.25 231.144 365.25C232.22 365.25 233.249 365.343 234.091 365.484C234.933 365.624 235.541 365.905 235.868 366.186C236.242 366.467 236.476 366.795 236.617 367.029C236.757 367.263 236.804 367.498 236.804 367.732C236.804 367.825 236.804 367.872 236.757 367.966C236.71 368.2 236.57 368.528 236.242 368.949C235.681 369.605 234.605 370.541 232.547 371.572C230.489 372.649 227.542 373.82 223.239 375.131C223.098 375.178 223.005 375.224 222.865 375.318H222.818C222.771 375.318 222.677 375.318 222.584 375.365C218.187 376.255 213.837 377.613 209.721 379.439C209.253 379.626 209.019 380.095 209.019 380.516C209.019 380.657 209.066 380.844 209.112 380.984C209.3 381.453 209.767 381.687 210.188 381.687C210.329 381.687 210.516 381.64 210.656 381.593C214.632 379.86 218.795 378.502 223.005 377.659C223.192 377.613 223.332 377.566 223.473 377.425H223.519C223.613 377.425 223.66 377.425 223.706 377.425C223.753 377.425 224.642 377.285 225.811 377.285C226.887 377.285 228.244 377.425 229.273 377.8C229.787 377.987 230.208 378.268 230.536 378.596C230.863 378.924 231.05 379.298 231.191 379.814C231.144 379.86 231.05 380.095 230.77 380.376C230.302 380.844 229.366 381.593 227.682 382.53C225.998 383.513 223.519 384.731 219.918 386.276C213.416 389.039 204.949 392.036 198.354 393.862C198.167 393.909 197.933 394.05 197.793 394.19C197.699 394.284 193.864 398.358 187.502 404.539L186.847 404.586L172.581 362.581C177.726 359.256 182.123 356.493 185.678 354.292C189.373 352.044 192.18 350.405 194.144 349.422C201.769 345.582 211.685 343.849 219.216 343.849C221.929 343.849 224.315 344.083 226.139 344.458C227.074 344.645 227.823 344.926 228.431 345.16C229.039 345.441 229.46 345.722 229.694 346.003C229.834 346.19 229.974 346.378 230.021 346.518C230.068 346.659 230.115 346.799 230.115 346.893C230.208 347.174 230.208 347.221 230.162 347.361Z" fill="white"/>
<path d="M196.857 267.752C196.951 267.565 196.998 267.378 196.998 267.19C196.998 266.769 196.764 266.347 196.389 266.16C196.202 266.066 196.015 266.02 195.781 266.02C195.36 266.02 194.939 266.254 194.752 266.628L180.532 292.056C180.439 292.244 180.392 292.431 180.392 292.618C180.392 292.852 180.439 293.04 180.579 293.274C180.673 293.461 180.86 293.602 181.047 293.695C181.234 293.789 181.421 293.836 181.608 293.836H181.655L189.701 293.274L179.457 316.454L175.387 311.303C175.294 311.209 175.2 311.116 175.106 311.069L175.948 309.102L174.966 309.992L178.334 271.499V271.405C178.334 270.983 178.1 270.562 177.726 270.375L173.423 267.893C173.235 267.799 173.048 267.752 172.814 267.752C172.393 267.752 172.019 267.986 171.785 268.361C171.692 268.548 171.645 268.736 171.645 268.97C171.645 269.391 171.879 269.766 172.253 270L175.902 272.06L172.768 308.353L147.93 276.181C148.07 275.994 148.164 275.76 148.164 275.479C148.164 275.432 148.164 275.338 148.164 275.292L142.363 240.685C143.813 242.184 146.62 244.947 150.128 247.569C152.373 249.255 154.899 250.894 157.566 252.111C160.232 253.329 163.038 254.125 165.798 254.125C166.734 254.125 167.669 254.031 168.605 253.797L171.177 266.301C171.224 266.581 171.411 266.816 171.598 267.003C171.785 267.19 172.066 267.284 172.347 267.284H172.627C172.908 267.237 173.142 267.05 173.329 266.862C173.516 266.675 173.61 266.394 173.61 266.113C173.61 266.02 173.61 265.973 173.61 265.879L170.99 253.095C171.832 252.72 172.674 252.205 173.469 251.596C175.387 250.098 176.65 247.99 177.445 245.509C178.24 243.027 178.568 240.217 178.568 237.22C178.568 230.195 176.837 222.235 175.06 215.819C173.282 209.45 171.458 204.674 171.271 204.112C171.084 203.644 170.663 203.363 170.195 203.363C169.493 203.316 168.792 203.316 168.137 203.316C163.787 203.316 160.045 203.831 156.864 204.908C153.683 205.985 151.111 207.624 149.239 209.778C147.649 211.558 146.714 213.571 146.105 215.538C145.544 217.505 145.357 219.472 145.357 221.158C145.357 223.452 145.685 225.325 145.872 226.356C145.918 226.496 145.918 226.637 145.918 226.777C145.918 226.871 145.918 226.964 145.918 227.011C145.918 227.058 145.918 227.105 145.918 227.152C145.918 227.152 145.872 227.198 145.778 227.198C145.685 227.245 145.497 227.245 145.31 227.245C144.889 227.245 144.328 227.152 143.86 227.011C143.159 225.185 141.989 223.78 140.633 222.89C139.183 221.907 137.499 221.392 135.955 221.392C135.581 221.392 135.207 221.439 134.879 221.485C133.616 221.673 132.26 222.235 131.231 223.312C130.202 224.389 129.5 225.934 129.5 227.995C129.5 229.774 129.781 231.413 130.342 232.865C130.903 234.316 131.745 235.581 132.821 236.611C134.084 237.782 135.487 238.531 136.844 239.046C137.967 239.468 139.042 239.655 139.978 239.795L145.872 275.011C145.825 275.011 145.825 275.058 145.778 275.058L145.731 275.104H145.544L145.638 275.198C145.451 275.432 145.31 275.713 145.31 275.994C145.31 276.228 145.404 276.509 145.544 276.743L172.908 312.24C173.002 312.333 173.095 312.427 173.235 312.521L172.44 314.534L173.937 313.083L178.942 319.404L187.034 336.31L150.222 305.122L156.162 302.406C156.583 302.218 156.864 301.797 156.864 301.328C156.864 300.86 156.63 300.439 156.209 300.251L125.711 284.657C125.524 284.564 125.337 284.517 125.15 284.517C124.729 284.517 124.308 284.751 124.074 285.173C123.981 285.36 123.934 285.547 123.934 285.688C123.934 286.109 124.168 286.531 124.589 286.765L152.888 301.235L147.509 303.717C147.135 303.904 146.901 304.232 146.807 304.653C146.807 304.7 146.807 304.747 146.807 304.794C146.807 305.122 146.947 305.496 147.228 305.684L189.747 341.695C189.981 341.882 190.262 341.976 190.496 341.976C190.73 341.976 191.01 341.882 191.244 341.742C191.525 341.508 191.712 341.133 191.712 340.805C191.712 340.618 191.665 340.477 191.618 340.29L181.328 318.749L192.928 292.431C193.022 292.291 193.022 292.103 193.022 291.963C193.022 291.729 192.928 291.494 192.788 291.26C192.554 290.932 192.18 290.745 191.805 290.745C191.805 290.745 191.759 290.745 191.712 290.745L183.9 291.26L196.857 267.752ZM142.363 229.165C142.457 229.212 142.831 229.353 143.346 229.446C143.86 229.587 144.468 229.68 145.123 229.68C145.497 229.68 145.872 229.634 146.246 229.54C146.62 229.446 146.994 229.259 147.275 229.025C147.509 228.837 147.696 228.603 147.883 228.276C148.07 227.948 148.164 227.526 148.164 227.058C148.164 226.871 148.164 226.683 148.117 226.449C148.117 226.309 148.07 226.168 148.023 225.981C147.836 224.997 147.556 223.265 147.556 221.204C147.556 219.659 147.696 217.973 148.21 216.241C148.725 214.555 149.52 212.869 150.83 211.37C152.467 209.497 154.665 208.092 157.519 207.156C160.372 206.219 163.834 205.704 167.903 205.704C168.324 205.704 168.745 205.704 169.119 205.704C169.727 207.39 171.318 211.885 172.814 217.458C174.452 223.593 175.995 230.992 175.948 237.313C175.948 240.076 175.668 242.605 175.013 244.712C174.358 246.82 173.329 248.552 171.832 249.676C170.008 251.128 167.95 251.69 165.798 251.69C163.272 251.69 160.606 250.847 157.987 249.583C154.057 247.663 150.362 244.806 147.602 242.371C146.246 241.153 145.076 240.076 144.281 239.28C143.486 238.484 143.018 237.969 143.018 237.969C142.784 237.735 142.457 237.548 142.13 237.548H142.036C141.989 237.548 141.942 237.548 141.802 237.548C141.288 237.548 140.025 237.501 138.575 237.126C137.125 236.752 135.487 236.096 134.178 234.878C133.336 234.082 132.728 233.099 132.26 231.975C131.839 230.851 131.605 229.493 131.605 227.995C131.605 226.777 131.932 225.84 132.494 225.185C133.055 224.482 133.85 224.061 134.926 223.874C135.16 223.827 135.394 223.827 135.674 223.827C136.797 223.827 138.013 224.201 139.089 224.951C140.165 225.7 141.054 226.824 141.521 228.369C141.709 228.744 141.989 229.025 142.363 229.165Z" fill="white"/>
<path d="M136.423 230.476C136.329 230.476 136.236 230.476 136.142 230.476C135.487 230.523 135.02 231.038 134.973 231.647V231.788C135.02 232.396 135.534 232.865 136.142 232.865C136.236 232.865 136.283 232.865 136.376 232.865C137.358 232.865 138.387 233.146 139.183 233.614C139.978 234.082 140.633 234.785 140.96 235.534C141.147 236.002 141.615 236.236 142.036 236.236C142.176 236.236 142.363 236.19 142.504 236.143C142.972 235.955 143.205 235.487 143.205 235.066C143.205 234.925 143.159 234.738 143.112 234.597C142.551 233.333 141.568 232.35 140.399 231.6C139.276 230.898 137.873 230.476 136.423 230.476Z" fill="white"/>
<path d="M692.68 312.802C691.791 311.959 690.622 311.444 689.266 311.444H676.964V287.795C676.964 287.139 676.449 286.577 675.747 286.577H557.218C559.463 284.845 560.913 282.082 560.913 279.038V278.757C560.913 273.606 556.75 269.391 551.558 269.391H500.525C495.38 269.391 491.17 273.559 491.17 278.757V278.897C491.17 281.333 492.106 283.58 493.696 285.219C495.099 286.718 497.017 287.795 499.216 288.123V367.217H475.407V288.685C475.407 288.497 475.407 288.31 475.407 288.123C477.559 287.795 479.476 286.765 480.88 285.266C482.47 283.58 483.405 281.379 483.405 278.897V278.757C483.405 273.606 479.242 269.391 474.05 269.391H423.065C417.919 269.391 413.71 273.559 413.71 278.757V278.897C413.71 281.333 414.645 283.58 416.235 285.219C417.639 286.718 419.557 287.795 421.755 288.123V429.265C421.755 444.11 433.776 456.145 448.604 456.145C455.995 456.145 462.731 453.148 467.548 448.465C472.413 443.782 475.407 437.413 475.407 430.67V369.792H499.216V429.265C499.216 444.11 511.237 456.145 526.065 456.145C533.456 456.145 540.191 453.148 545.009 448.465C549.874 443.782 552.867 437.413 552.867 430.67V369.792H580.839V474.548L580.98 474.736C581.12 474.876 581.214 475.063 581.447 475.204C581.634 475.344 581.915 475.485 582.243 475.485C582.383 475.485 582.523 475.438 582.617 475.391C582.804 475.298 582.897 475.204 582.991 475.11C583.131 474.97 583.178 474.829 583.225 474.736C583.272 474.642 583.318 474.548 583.318 474.548L583.365 474.408V368.387C583.365 367.732 582.851 367.17 582.149 367.17H552.821V313.972H655.774C655.4 314.628 655.166 315.424 655.166 316.22C655.166 317.484 655.727 318.655 656.569 319.498C657.411 320.341 658.627 320.856 659.937 320.856H689.172C690.482 320.856 691.698 320.341 692.587 319.498C693.475 318.655 693.99 317.484 693.99 316.173C694.083 314.815 693.522 313.644 692.68 312.802ZM416.282 279.225V278.897C416.282 276.977 417.077 275.245 418.34 273.98C419.603 272.716 421.334 271.92 423.252 271.92H474.004C475.921 271.92 477.652 272.716 478.915 273.98C480.178 275.245 480.973 276.977 480.973 278.897V279.225C480.973 281.145 480.178 282.878 478.915 284.142C477.652 285.407 475.921 286.203 474.004 286.203H423.205C421.287 286.203 419.557 285.407 418.294 284.142C417.031 282.878 416.282 281.145 416.282 279.225ZM473.255 288.732V429.452C473.255 436.195 470.542 442.33 466.098 446.779C461.655 451.228 455.574 453.944 448.791 453.944H448.698C441.962 453.944 435.835 451.228 431.391 446.779C426.947 442.33 424.234 436.242 424.234 429.452V288.732H473.255ZM691.183 318C690.716 318.421 690.107 318.702 689.453 318.702H659.656C658.955 318.702 658.347 318.421 657.926 318C657.458 317.578 657.224 316.969 657.224 316.361C657.224 315.705 657.505 315.143 657.926 314.722C658.393 314.3 659.002 314.019 659.656 314.019H689.499C690.201 314.019 690.809 314.3 691.23 314.722C691.651 315.143 691.932 315.752 691.932 316.361C691.932 316.969 691.651 317.531 691.183 318ZM674.438 288.732V311.397H552.914V288.732H674.438ZM501.367 429.452V288.732H528.965V311.397H516.663C515.353 311.397 514.137 311.912 513.248 312.755C512.36 313.598 511.845 314.768 511.845 316.08C511.845 317.391 512.406 318.561 513.248 319.404C514.137 320.247 515.306 320.762 516.663 320.762H546.038C547.348 320.762 548.517 320.247 549.359 319.404C549.733 319.03 550.061 318.561 550.295 318.093V367.498H549.921V369.652H550.295V429.405C550.295 431.044 549.921 432.637 549.266 434.182C548.143 436.898 546.085 439.52 543.653 441.909C540.004 445.468 535.514 448.465 531.912 450.572C530.134 451.602 528.544 452.445 527.421 453.007C526.86 453.288 526.439 453.522 526.112 453.663C525.971 453.709 525.878 453.803 525.784 453.803H525.738C519.002 453.803 512.874 451.087 508.43 446.638C504.127 442.33 501.367 436.242 501.367 429.452ZM516.616 318.702C515.915 318.702 515.307 318.421 514.886 318C514.465 317.578 514.184 316.969 514.184 316.361C514.184 315.705 514.465 315.143 514.886 314.722C515.353 314.3 515.961 314.019 516.616 314.019H546.459C547.161 314.019 547.769 314.3 548.19 314.722C548.611 315.143 548.892 315.752 548.892 316.361C548.892 317.016 548.611 317.578 548.19 318C547.722 318.421 547.114 318.702 546.459 318.702H516.616ZM531.538 311.397V288.732H550.388V311.397H531.538ZM550.201 313.972H550.342V314.253C550.295 314.16 550.248 314.066 550.201 313.972ZM493.743 279.225V278.897C493.743 276.977 494.538 275.245 495.801 273.98C497.064 272.716 498.795 271.92 500.712 271.92H551.464C553.382 271.92 555.113 272.716 556.376 273.98C557.639 275.245 558.434 276.977 558.434 278.897V279.225C558.434 281.145 557.639 282.878 556.376 284.142C555.113 285.407 553.382 286.203 551.464 286.203H500.712C498.795 286.203 497.064 285.407 495.801 284.142C494.538 282.878 493.743 281.145 493.743 279.225Z" fill="white"/>
<path d="M553.803 235.3L554.177 234.738L554.505 234.27L621.3 137.1C637.578 141.08 651.798 150.165 661.948 162.575C672.192 175.078 678.32 190.906 678.32 208.092C678.32 228.276 669.9 246.539 656.242 259.791C642.63 273.044 623.779 281.239 603.058 281.239C585.844 281.239 569.613 275.713 556.422 265.411H606.613C606.706 265.411 606.8 265.458 606.893 265.458C607.034 265.458 607.221 265.411 607.361 265.364C607.548 265.27 607.689 265.13 607.782 264.942C607.876 264.755 607.922 264.615 607.922 264.427V252.861C607.922 252.533 607.782 252.299 607.595 252.111C607.455 251.924 607.268 251.784 607.127 251.643L606.94 251.503H488.223L488.036 251.643C487.896 251.737 487.756 251.877 487.615 252.018C487.568 252.111 487.475 252.205 487.428 252.299C487.381 252.439 487.335 252.58 487.335 252.72C487.335 252.814 487.335 252.907 487.381 252.954V264.287C487.381 264.381 487.335 264.427 487.335 264.521C487.335 264.755 487.428 265.036 487.615 265.177C487.802 265.364 488.036 265.458 488.317 265.458C488.41 265.458 488.504 265.458 488.598 265.411H552.634C566.666 277.258 584.301 283.627 603.105 283.627C624.528 283.627 643.94 275.151 657.973 261.477C672.052 247.803 680.752 228.884 680.752 208.045C680.752 190.344 674.484 174.048 663.96 161.17C653.669 148.526 639.262 139.16 622.797 134.946L651.05 93.8768L610.729 67.6526L513.482 209.076L553.803 235.3ZM611.337 71.1648L647.448 94.6261L620.131 134.384C614.658 133.166 608.952 132.557 603.058 132.557C602.403 132.557 601.842 133.073 601.842 133.775C601.842 134.431 602.356 134.993 603.058 134.993C608.39 134.993 613.629 135.554 618.634 136.585L553.101 231.835L516.99 208.373L611.337 71.1648ZM552.634 262.882L552.587 263.163C552.587 263.163 552.54 263.163 552.493 263.21C552.446 263.21 552.4 263.257 552.353 263.257V262.882H489.533V253.985H605.303V262.882H552.634Z" fill="white"/>
<path d="M613.208 66.201L651.424 91.0671C651.611 91.2075 651.845 91.2544 652.079 91.2544C652.453 91.2544 652.874 91.0671 653.061 90.6924C653.201 90.5051 653.248 90.271 653.248 90.0368C653.248 89.6622 653.061 89.2407 652.687 89.0534L614.471 64.1873C614.284 64.0468 614.05 64 613.816 64C613.442 64 613.021 64.1873 612.834 64.5619C612.694 64.7493 612.647 64.9834 612.647 65.2175C612.694 65.5922 612.881 65.9668 613.208 66.201Z" fill="white"/>
<path d="M534.625 241.2C535.701 241.903 536.917 242.231 538.133 242.231C540.144 242.231 542.156 241.294 543.372 239.514C544.074 238.484 544.448 237.313 544.448 236.096C544.448 235.721 544.401 235.3 544.354 234.925C544.027 233.286 543.045 231.881 541.641 230.945L522.229 218.301C521.153 217.599 519.937 217.271 518.721 217.271C516.71 217.271 514.698 218.207 513.482 219.987C512.781 221.017 512.406 222.188 512.406 223.405C512.406 223.78 512.453 224.201 512.547 224.576C512.874 226.215 513.856 227.62 515.26 228.556L534.625 241.2ZM515.447 221.345C516.195 220.268 517.458 219.659 518.721 219.659C519.47 219.659 520.218 219.846 520.92 220.315L540.332 232.912C541.22 233.474 541.782 234.363 542.015 235.347C542.062 235.581 542.109 235.815 542.109 236.049C542.109 236.798 541.875 237.501 541.454 238.156C540.706 239.233 539.443 239.842 538.18 239.842C537.431 239.842 536.683 239.655 535.981 239.187L516.569 226.59C515.681 226.028 515.119 225.138 514.886 224.155C514.839 223.92 514.792 223.686 514.792 223.452C514.792 222.703 515.026 222 515.447 221.345Z" fill="white"/>
<path d="M655.119 447.294C652.968 447.294 651.003 448.184 649.553 449.589C648.15 450.993 647.261 452.96 647.261 455.161C647.261 457.315 648.15 459.282 649.553 460.734C650.956 462.139 652.921 463.028 655.119 463.028C657.271 463.028 659.235 462.139 660.686 460.734C662.089 459.329 662.978 457.362 662.978 455.161C662.978 453.007 662.089 451.04 660.686 449.589C659.235 448.184 657.271 447.294 655.119 447.294ZM658.861 458.954C657.879 459.938 656.569 460.5 655.119 460.5C653.622 460.5 652.313 459.891 651.377 458.954C650.395 457.971 649.834 456.66 649.834 455.161C649.834 453.663 650.442 452.351 651.377 451.368C652.359 450.385 653.669 449.823 655.119 449.823C656.569 449.823 657.926 450.431 658.861 451.368C659.844 452.351 660.405 453.663 660.405 455.161C660.405 456.66 659.844 457.971 658.861 458.954Z" fill="white"/>
<path d="M655.119 428C652.968 428 651.003 428.89 649.553 430.295C648.15 431.7 647.261 433.667 647.261 435.868C647.261 438.022 648.15 439.989 649.553 441.44C650.956 442.845 652.921 443.735 655.119 443.735C657.271 443.735 659.235 442.845 660.686 441.44C662.089 440.035 662.978 438.069 662.978 435.868C662.978 433.714 662.089 431.747 660.686 430.295C659.235 428.89 657.271 428 655.119 428ZM658.861 439.661C657.879 440.644 656.569 441.206 655.119 441.206C653.622 441.206 652.313 440.597 651.377 439.661C650.395 438.677 649.834 437.366 649.834 435.868C649.834 434.369 650.442 433.058 651.377 432.075C652.359 431.091 653.669 430.529 655.119 430.529C656.569 430.529 657.926 431.138 658.861 432.075C659.844 433.058 660.405 434.369 660.405 435.868C660.405 437.366 659.844 438.677 658.861 439.661Z" fill="white"/>
<path d="M655.119 408.754C652.968 408.754 651.003 409.644 649.553 411.048C648.15 412.453 647.261 414.42 647.261 416.621C647.261 418.775 648.15 420.742 649.553 422.194C650.956 423.599 652.921 424.488 655.119 424.488C657.271 424.488 659.235 423.599 660.686 422.194C662.089 420.789 662.978 418.822 662.978 416.621C662.978 414.467 662.089 412.5 660.686 411.048C659.235 409.644 657.271 408.754 655.119 408.754ZM658.861 420.414C657.879 421.398 656.569 421.96 655.119 421.96C653.669 421.96 652.313 421.351 651.377 420.414C650.395 419.431 649.834 418.12 649.834 416.621C649.834 415.123 650.442 413.811 651.377 412.828C652.359 411.845 653.669 411.283 655.119 411.283C656.569 411.283 657.926 411.891 658.861 412.828C659.844 413.811 660.405 415.123 660.405 416.621C660.405 418.073 659.844 419.431 658.861 420.414Z" fill="white"/>
<path d="M653.81 403.228L653.856 403.368C653.95 403.603 654.09 403.837 654.277 403.977C654.464 404.165 654.792 404.305 655.119 404.305C655.447 404.305 655.727 404.165 655.961 403.977C656.148 403.79 656.289 403.509 656.382 403.228V339.26C656.335 338.979 656.195 338.745 655.961 338.511C655.774 338.323 655.447 338.183 655.119 338.183H559.603C559.276 338.183 558.995 338.323 558.761 338.557C558.527 338.792 558.434 339.073 558.434 339.4C558.434 339.728 558.574 340.009 558.761 340.196C558.948 340.384 559.135 340.524 559.322 340.618L559.463 340.712H653.903L653.81 403.228Z" fill="white"/>
<path d="M507.963 104.179C509.413 105.631 511.424 106.521 513.669 106.521C515.915 106.521 517.926 105.631 519.376 104.179C520.826 102.727 521.762 100.714 521.762 98.466C521.762 96.2651 520.873 94.2046 519.376 92.7529C517.926 91.3012 515.915 90.4115 513.669 90.4115C511.424 90.4115 509.413 91.3012 507.963 92.7529C506.513 94.2046 505.577 96.2182 505.577 98.466C505.624 100.714 506.513 102.727 507.963 104.179ZM509.74 94.5792C510.769 93.5958 512.126 92.9402 513.669 92.9402C515.213 92.9402 516.569 93.549 517.599 94.5792C518.581 95.5626 519.236 96.9675 519.236 98.5128C519.236 100.058 518.628 101.416 517.599 102.446C516.569 103.43 515.213 104.085 513.669 104.085C512.126 104.085 510.769 103.477 509.74 102.446C508.758 101.463 508.103 100.058 508.103 98.5128C508.15 96.9207 508.758 95.5626 509.74 94.5792Z" fill="white"/>
<path d="M488.13 104.179C489.58 105.631 491.591 106.521 493.836 106.521C496.082 106.521 498.093 105.631 499.543 104.179C500.993 102.727 501.929 100.714 501.929 98.466C501.929 96.2651 501.04 94.2046 499.543 92.7529C498.093 91.3012 496.082 90.4115 493.836 90.4115C491.591 90.4115 489.58 91.3012 488.13 92.7529C486.68 94.2046 485.744 96.2182 485.744 98.466C485.744 100.714 486.68 102.727 488.13 104.179ZM489.907 94.5792C490.936 93.5958 492.293 92.9402 493.836 92.9402C495.38 92.9402 496.737 93.549 497.766 94.5792C498.748 95.5626 499.403 96.9675 499.403 98.5128C499.403 100.058 498.795 101.416 497.766 102.446C496.737 103.43 495.38 104.085 493.836 104.085C492.293 104.085 490.936 103.477 489.907 102.446C488.925 101.463 488.27 100.058 488.27 98.5128C488.27 96.9207 488.925 95.5626 489.907 94.5792Z" fill="white"/>
<path d="M468.25 104.179C469.7 105.631 471.712 106.521 473.957 106.521C476.202 106.521 478.213 105.631 479.663 104.179C481.113 102.727 482.049 100.714 482.049 98.466C482.049 96.2182 481.16 94.2046 479.663 92.7529C478.213 91.3012 476.202 90.4115 473.957 90.4115C471.712 90.4115 469.7 91.3012 468.25 92.7529C466.8 94.2046 465.865 96.2182 465.865 98.466C465.911 100.714 466.8 102.727 468.25 104.179ZM470.074 94.5792C471.103 93.5958 472.46 92.9402 474.004 92.9402C475.547 92.9402 476.904 93.549 477.933 94.5792C478.915 95.5626 479.57 96.9675 479.57 98.5128C479.57 100.058 478.962 101.416 477.933 102.446C476.904 103.43 475.547 104.085 474.004 104.085C472.46 104.085 471.103 103.477 470.074 102.446C469.092 101.463 468.437 100.058 468.437 98.5128C468.437 96.9207 469.045 95.5626 470.074 94.5792Z" fill="white"/>
<path d="M179.223 129.841C181.468 129.841 183.479 128.952 184.929 127.5C186.379 126.048 187.315 124.035 187.315 121.787C187.315 119.539 186.426 117.525 184.929 116.074C183.479 114.622 181.468 113.732 179.223 113.732C176.977 113.732 174.966 114.622 173.516 116.074C172.066 117.525 171.131 119.539 171.177 121.787C171.177 123.988 172.066 126.048 173.563 127.5C175.013 128.905 177.024 129.841 179.223 129.841ZM175.34 117.853C176.369 116.87 177.726 116.214 179.27 116.214C180.813 116.214 182.17 116.823 183.199 117.853C184.181 118.837 184.836 120.241 184.836 121.787C184.836 123.332 184.228 124.69 183.199 125.72C182.17 126.704 180.813 127.359 179.27 127.359C177.726 127.359 176.369 126.751 175.34 125.72C174.358 124.737 173.703 123.332 173.703 121.787C173.703 120.241 174.311 118.883 175.34 117.853Z" fill="white"/>
<path d="M199.102 129.841C201.348 129.841 203.359 128.952 204.809 127.5C206.259 126.048 207.195 124.035 207.195 121.787C207.195 119.539 206.306 117.525 204.809 116.074C203.359 114.622 201.348 113.732 199.102 113.732C196.857 113.732 194.846 114.622 193.396 116.074C191.946 117.525 191.01 119.539 191.057 121.787C191.057 123.988 191.946 126.048 193.443 127.5C194.846 128.905 196.857 129.841 199.102 129.841ZM195.173 117.853C196.202 116.87 197.559 116.214 199.102 116.214C200.646 116.214 202.003 116.823 203.032 117.853C204.014 118.837 204.669 120.241 204.669 121.787C204.669 123.332 204.061 124.69 203.032 125.72C202.003 126.704 200.646 127.359 199.102 127.359C197.559 127.359 196.202 126.751 195.173 125.72C194.191 124.737 193.536 123.332 193.536 121.787C193.536 120.241 194.191 118.883 195.173 117.853Z" fill="white"/>
<path d="M218.935 129.841C221.181 129.841 223.192 128.952 224.642 127.5C226.092 126.048 227.028 124.035 227.028 121.787C227.028 119.539 226.139 117.525 224.689 116.074C223.239 114.622 221.227 113.732 218.982 113.732C216.737 113.732 214.726 114.622 213.275 116.074C211.825 117.525 210.89 119.539 210.89 121.787C210.89 123.988 211.779 126.048 213.275 127.5C214.679 128.905 216.737 129.841 218.935 129.841ZM215.006 117.853C216.035 116.87 217.392 116.214 218.935 116.214C220.479 116.214 221.835 116.823 222.865 117.853C223.847 118.837 224.502 120.241 224.502 121.787C224.502 123.332 223.894 124.69 222.865 125.72C221.835 126.704 220.479 127.359 218.935 127.359C217.392 127.359 216.035 126.751 215.006 125.72C214.024 124.737 213.369 123.332 213.369 121.787C213.416 120.241 214.024 118.883 215.006 117.853Z" fill="white"/>
</g>
<g opacity="0.3">
<path d="M21.3887 107.916C21.3887 102.511 17.053 98.1387 11.6944 98.1387C11.256 98.1387 10.8175 98.1878 10.4278 98.2369C10.1842 98.2861 9.89195 98.2861 9.64838 98.3843C5.26403 99.3178 2.00014 103.248 2.00014 107.965C2.00014 113.369 6.33576 117.742 11.6944 117.742C14.5199 117.742 17.0043 116.563 18.7581 114.647C18.8068 114.597 18.8068 114.597 18.8555 114.548C19.0016 114.401 19.1478 114.204 19.3426 114.008C19.7324 113.467 20.0734 112.927 20.3657 112.337C20.5118 112.092 20.6092 111.846 20.7067 111.65C20.8041 111.306 20.9502 111.011 21.0477 110.667C21.1938 110.127 21.34 109.586 21.3887 108.997C21.34 108.554 21.3887 108.26 21.3887 107.916Z" stroke="white" stroke-width="3" stroke-miterlimit="10" stroke-linecap="round" stroke-linejoin="round"/>
<path d="M66.841 1.84375C61.4824 1.84375 57.098 6.21638 57.098 11.6699C57.098 12.6034 57.2442 13.5369 57.4877 14.4212C57.5852 14.716 57.6339 14.9616 57.78 15.2073C57.8288 15.4038 57.9262 15.5512 58.0236 15.7477C58.0723 15.8951 58.121 16.0425 58.2185 16.1408C58.2672 16.239 58.3159 16.3864 58.4133 16.4847C58.5108 16.7303 58.6569 16.9269 58.8031 17.1234C58.9005 17.3199 59.0466 17.5164 59.1928 17.6638C59.2415 17.713 59.2902 17.8112 59.3389 17.8604C59.3876 17.9095 59.4363 17.9586 59.4851 18.0569C59.6312 18.2534 59.7774 18.4008 59.9722 18.5973C60.1671 18.843 60.4106 19.0395 60.6542 19.236C60.8491 19.4325 61.0439 19.5799 61.2875 19.7273C61.3362 19.7765 61.3849 19.8256 61.4824 19.8256C61.726 20.0221 61.9695 20.1204 62.2131 20.2678C62.5054 20.4152 62.7977 20.5625 63.0413 20.6608C63.3335 20.7591 63.6258 20.9065 63.9181 21.0047C64.2104 21.103 64.5514 21.2012 64.8437 21.2504C65.0873 21.2995 65.3796 21.3486 65.6719 21.3978C66.0616 21.4469 66.4026 21.4469 66.7923 21.4469C67.182 21.4469 67.6205 21.3978 68.0102 21.3486C68.205 21.3486 68.4486 21.2995 68.6435 21.2504C68.6922 21.2504 68.7409 21.2504 68.7896 21.2012C69.0819 21.1521 69.3742 21.103 69.6178 20.9556H69.6665C69.9588 20.8573 70.2511 20.7591 70.5433 20.6117H70.5921C71.0792 20.4152 71.5176 20.1695 71.9561 19.8747C72.0535 19.8256 72.1997 19.7273 72.2971 19.6291C72.5407 19.4817 72.7355 19.3343 72.9304 19.1378C73.174 18.9412 73.4175 18.7447 73.6124 18.4991C73.856 18.3025 74.0021 18.0569 74.2457 17.8604C74.2457 17.8604 74.2457 17.8604 74.2457 17.8112C74.4405 17.5656 74.5867 17.369 74.7328 17.1234C74.7328 17.0743 74.7815 17.0743 74.7815 17.0251C74.9277 16.8286 75.0738 16.583 75.1713 16.3864C75.3174 16.1899 75.4148 15.9443 75.5123 15.7477C75.6097 15.6003 75.6584 15.4038 75.7558 15.2073C75.8533 14.9616 75.9507 14.716 75.9994 14.4703C76.2917 13.586 76.4379 12.6034 76.4379 11.5716C76.584 6.21638 72.1997 1.84375 66.841 1.84375Z" stroke="white" stroke-width="3" stroke-miterlimit="10" stroke-linecap="round" stroke-linejoin="round"/>
<path d="M66.7911 66.0078C61.4324 66.0078 57.0481 70.3804 57.0481 75.7848C57.0481 81.1892 61.3837 85.5618 66.7911 85.5618C72.1497 85.5618 76.4854 81.1892 76.4854 75.7848C76.4854 70.3804 72.1497 66.0078 66.7911 66.0078Z" stroke="white" stroke-width="3" stroke-miterlimit="10" stroke-linecap="round" stroke-linejoin="round"/>
<path d="M112.145 106.001C112.145 106.345 112.145 106.639 112.193 106.983C112.291 108.212 112.681 109.391 113.216 110.472C113.363 110.766 113.509 111.061 113.704 111.356C114.191 112.093 114.727 112.732 115.36 113.272C115.506 113.469 115.701 113.567 115.896 113.714C117.503 114.992 119.598 115.778 121.839 115.778C127.198 115.778 131.533 111.405 131.533 106.001C131.533 101.284 128.269 97.3536 123.885 96.4202C123.641 96.371 123.398 96.3219 123.154 96.3219C122.716 96.2728 122.277 96.2236 121.79 96.2236C116.48 96.2236 112.145 100.596 112.145 106.001Z" stroke="white" stroke-width="3" stroke-miterlimit="10" stroke-linecap="round" stroke-linejoin="round"/>
<path d="M11.6457 43.7519C6.87164 52.1041 10.0381 63.9446 18.8555 75.8343C23.3373 69.8403 29.2805 63.7481 36.3929 58.1472C37.6595 49.1563 39.8516 40.9023 42.8232 34.024C28.1601 32.2062 16.4685 35.3506 11.6457 43.7519Z" stroke="white" stroke-width="3" stroke-miterlimit="10" stroke-linecap="round" stroke-linejoin="round"/>
<path d="M97.0908 93.4725C95.8242 102.513 93.6321 110.717 90.6604 117.596C101.085 118.873 110 117.645 116.041 113.813C115.992 113.763 115.943 113.714 115.895 113.714C115.7 113.567 115.554 113.42 115.359 113.272C114.726 112.732 114.141 112.044 113.703 111.356C113.508 111.061 113.362 110.767 113.215 110.472C112.68 109.391 112.29 108.261 112.192 106.983C112.144 106.64 112.144 106.345 112.144 106.001C112.144 100.596 116.479 96.1747 121.887 96.1747C122.374 96.1747 122.812 96.2238 123.251 96.273C123.494 96.273 123.738 96.3221 123.981 96.3712C123.251 90.0334 119.987 82.9094 114.677 75.7363C110.195 81.8285 104.252 87.8716 97.0908 93.4725Z" stroke="white" stroke-width="3" stroke-miterlimit="10" stroke-linecap="round" stroke-linejoin="round"/>
<path d="M90.7103 33.9756C93.6332 40.903 95.8741 49.1078 97.1407 58.0987C104.253 63.6996 110.196 69.7427 114.678 75.7858C123.544 63.8962 126.662 52.1048 121.888 43.7526C117.114 35.3512 105.374 32.2069 90.7103 33.9756Z" stroke="white" stroke-width="3" stroke-miterlimit="10" stroke-linecap="round" stroke-linejoin="round"/>
<path d="M42.8231 117.645C48.6202 131.304 57.194 140 66.7421 140C76.2902 140 84.9128 131.353 90.6611 117.645C83.2565 116.761 75.1211 114.599 66.7421 111.16C58.4119 114.55 50.2278 116.761 42.8231 117.645Z" stroke="white" stroke-width="3" stroke-miterlimit="10" stroke-linecap="round" stroke-linejoin="round"/>
<path d="M57.5351 14.4209C51.738 18.0074 46.6717 24.8857 42.8232 33.9749C50.2279 34.8593 58.412 37.021 66.7909 40.4602C75.1699 37.0701 83.3053 34.9084 90.71 33.9749C86.9102 24.984 81.8926 18.1057 76.1442 14.5192C76.0955 14.7648 75.9981 15.0105 75.9006 15.2561C75.8519 15.4526 75.7545 15.6 75.6571 15.7966C75.5596 16.0422 75.4622 16.2387 75.3161 16.4353C75.2186 16.6809 75.0725 16.8774 74.9263 17.074C74.9263 17.1231 74.8776 17.1231 74.8776 17.1722C74.7315 17.4179 74.5366 17.6144 74.3905 17.86C74.3905 17.86 74.3905 17.86 74.3905 17.9092C74.1956 18.1548 74.0008 18.3514 73.7572 18.5479C73.5136 18.7935 73.3187 18.9901 73.0752 19.1866C72.8803 19.3831 72.6367 19.5305 72.4419 19.6779C72.3444 19.7761 72.247 19.8253 72.1009 19.9235C71.6624 20.2183 71.224 20.464 70.7368 20.6605H70.6881C70.3958 20.7588 70.1036 20.9061 69.8113 21.0044H69.7626C69.4703 21.1027 69.2267 21.2009 68.9344 21.2501C68.8857 21.2501 68.837 21.2992 68.7883 21.2992C68.5934 21.3483 68.3498 21.3975 68.155 21.3975C67.7652 21.4466 67.3268 21.4957 66.9371 21.4957C66.5474 21.4957 66.1576 21.4957 65.8166 21.4466C65.5244 21.3975 65.2808 21.3975 64.9885 21.2992C64.6475 21.2501 64.3552 21.1518 64.0629 21.0535C63.7706 20.9553 63.4783 20.857 63.186 20.7096C62.8938 20.6114 62.6015 20.464 62.3579 20.3166C62.1143 20.2183 61.8707 20.0218 61.6272 19.8744C61.5784 19.8253 61.5297 19.8253 61.4323 19.7761C61.2374 19.6288 60.9939 19.4814 60.799 19.2848C60.5554 19.0883 60.3119 18.8918 60.117 18.6461C59.9221 18.4987 59.776 18.3022 59.6299 18.1057C59.5811 18.0566 59.5324 18.0074 59.4837 17.9092C59.435 17.86 59.3863 17.7618 59.3376 17.7127C59.1914 17.5161 59.0453 17.3687 58.9478 17.1722C58.8017 16.9757 58.6556 16.7792 58.5581 16.5335C58.5094 16.4353 58.4607 16.2879 58.3633 16.1896C58.3145 16.0913 58.2658 15.9439 58.1684 15.7966C58.071 15.6 58.0223 15.4526 57.9248 15.2561C57.6813 14.9613 57.6325 14.7157 57.5351 14.4209Z" stroke="white" stroke-width="3" stroke-miterlimit="10" stroke-linecap="round" stroke-linejoin="round"/>
<path d="M97.0918 93.4727C92.6587 96.9609 87.7873 100.302 82.526 103.348C77.2648 106.394 71.9549 108.998 66.7911 111.111C75.1701 114.501 83.3055 116.711 90.7101 117.596C93.633 110.718 95.8739 102.513 97.0918 93.4727Z" stroke="white" stroke-width="3" stroke-miterlimit="10" stroke-linecap="round" stroke-linejoin="round"/>
<path d="M42.8241 33.9746C39.9013 40.8529 37.6604 49.1069 36.3938 58.0978C40.8268 54.6095 45.6983 51.2686 50.9595 48.2225C56.2207 45.1764 61.5307 42.5725 66.7432 40.4599C58.4129 37.0207 50.2288 34.859 42.8241 33.9746Z" stroke="white" stroke-width="3" stroke-miterlimit="10" stroke-linecap="round" stroke-linejoin="round"/>
<path d="M36.4408 93.4727C37.7073 102.513 39.8995 110.718 42.8711 117.596C50.2758 116.711 58.4599 114.55 66.8389 111.111C61.6264 108.998 56.3164 106.394 51.0065 103.348C45.6966 100.302 40.8251 97.0101 36.4408 93.4727Z" stroke="white" stroke-width="3" stroke-miterlimit="10" stroke-linecap="round" stroke-linejoin="round"/>
<path d="M36.3926 58.0977C29.2802 63.6986 23.337 69.7416 18.8552 75.7847C23.337 81.8278 29.2802 87.8709 36.3926 93.4717C35.5644 87.8709 35.1747 81.926 35.1747 75.7847C35.1747 69.6925 35.6131 63.7477 36.3926 58.0977Z" stroke="white" stroke-width="3" stroke-miterlimit="10" stroke-linecap="round" stroke-linejoin="round"/>
<path d="M11.6475 98.0908C17.0062 98.0908 21.3418 102.463 21.3418 107.868C21.3418 108.212 21.3418 108.556 21.2931 108.85C21.2444 109.44 21.1469 109.98 20.9521 110.521C20.8547 110.865 20.7572 111.209 20.6111 111.503C20.5137 111.749 20.4162 111.995 20.2701 112.191C19.9778 112.781 19.6368 113.321 19.2471 113.862C19.1009 114.058 18.9548 114.206 18.7599 114.402C18.7599 114.451 18.7112 114.451 18.6625 114.5C24.6544 117.743 33.0334 118.726 42.7764 117.547C39.8535 110.619 37.6126 102.414 36.346 93.4234C29.2336 87.8225 23.2904 81.7794 18.8086 75.7363C12.9628 83.5972 9.60151 91.4582 9.35794 98.2873C9.40665 98.2873 9.45536 98.2873 9.50408 98.2873C9.74765 98.2382 10.0399 98.1891 10.2835 98.1399C10.8194 98.1399 11.2091 98.0908 11.6475 98.0908Z" stroke="white" stroke-width="3" stroke-miterlimit="10" stroke-linecap="round" stroke-linejoin="round"/>
<path d="M35.176 75.833C35.176 81.9743 35.6145 87.9192 36.3939 93.5201C40.827 97.0083 45.6984 100.349 50.9597 103.395C56.2209 106.441 61.5308 109.045 66.792 111.158C72.0045 109.045 77.3144 106.441 82.5269 103.395C87.7881 100.349 92.6596 97.0083 97.0927 93.5201C97.9208 87.9192 98.3105 81.9743 98.3105 75.833H76.4376C76.4376 81.2374 72.1019 85.61 66.7433 85.61C61.3846 85.61 57.0003 81.2374 57.0003 75.833H35.176Z" stroke="white" stroke-width="3" stroke-miterlimit="10" stroke-linecap="round" stroke-linejoin="round"/>
<path d="M97.1413 58.0977C97.9208 63.6986 98.3592 69.6434 98.3592 75.7847C98.3592 81.926 97.9208 87.8709 97.1413 93.4717C104.254 87.8709 110.197 81.8278 114.679 75.7847C110.148 69.7908 104.254 63.7477 97.1413 58.0977Z" stroke="white" stroke-width="3" stroke-miterlimit="10" stroke-linecap="round" stroke-linejoin="round"/>
<path d="M66.7424 40.4599C71.9549 42.5725 77.2648 45.1764 82.526 48.2225C87.7873 51.2686 92.6587 54.6095 97.0918 58.0978C95.8252 49.1069 93.5843 40.902 90.6614 33.9746C83.3055 34.9081 75.1214 37.0698 66.7424 40.4599Z" stroke="white" stroke-width="3" stroke-miterlimit="10" stroke-linecap="round" stroke-linejoin="round"/>
<path d="M36.393 58.0979C35.6136 63.6988 35.1752 69.6436 35.1752 75.7849H57.0482C57.0482 70.3806 61.3838 66.0079 66.7911 66.0079C72.1498 66.0079 76.4854 70.3806 76.4854 75.7849H98.3584C98.3584 69.6436 97.92 63.6988 97.1405 58.0979C92.7075 54.6096 87.836 51.2687 82.5748 48.2226C77.3136 45.1765 72.0036 42.5726 66.7911 40.46C61.5786 42.5726 56.2687 45.1765 51.0075 48.2226C45.6976 51.2687 40.8261 54.6096 36.393 58.0979Z" stroke="white" stroke-width="3" stroke-miterlimit="10" stroke-linecap="round" stroke-linejoin="round"/>
<path d="M58.0225 15.7484C57.925 15.5519 57.8763 15.4045 57.7789 15.208" stroke="white" stroke-width="3" stroke-miterlimit="2.6131" stroke-linecap="round" stroke-linejoin="round"/>
<path d="M58.4121 16.4855C58.3634 16.3873 58.3147 16.2399 58.2172 16.1416" stroke="white" stroke-width="3" stroke-miterlimit="2.6131" stroke-linecap="round" stroke-linejoin="round"/>
<path d="M59.1914 17.6654C59.0453 17.4689 58.8991 17.3215 58.8017 17.125" stroke="white" stroke-width="3" stroke-miterlimit="2.6131" stroke-linecap="round" stroke-linejoin="round"/>
<path d="M61.2861 19.6785C61.0913 19.5311 60.8477 19.3837 60.6528 19.1872C60.4093 18.9907 60.1657 18.7941 59.9708 18.5485C59.776 18.4011 59.6298 18.2046 59.4837 18.008C59.435 17.9589 59.3863 17.9098 59.3375 17.8115" stroke="white" stroke-width="3" stroke-miterlimit="2.6131" stroke-linecap="round" stroke-linejoin="round"/>
<path d="M62.2119 20.2683C61.9683 20.1701 61.7248 19.9736 61.4812 19.8262" stroke="white" stroke-width="3" stroke-miterlimit="2.6131" stroke-linecap="round" stroke-linejoin="round"/>
<path d="M65.7197 21.3991C65.4274 21.3499 65.1839 21.3499 64.8916 21.2517C64.5506 21.2025 64.2583 21.1043 63.966 21.006C63.6737 20.9078 63.3814 20.8095 63.0891 20.6621" stroke="white" stroke-width="3" stroke-miterlimit="2.6131" stroke-linecap="round" stroke-linejoin="round"/>
<path d="M68.7393 21.251C68.5444 21.3006 68.3008 21.3502 68.106 21.3502" stroke="white" stroke-width="3" stroke-miterlimit="2.6131" stroke-linecap="round" stroke-linejoin="round"/>
<path d="M69.7129 21.0059C69.4206 21.1051 69.177 21.2044 68.8847 21.254" stroke="white" stroke-width="3" stroke-miterlimit="2.6131" stroke-linecap="round" stroke-linejoin="round"/>
<path d="M70.6387 20.6621C70.3464 20.7604 70.0541 20.9078 69.7618 21.006" stroke="white" stroke-width="3" stroke-miterlimit="2.6131" stroke-linecap="round" stroke-linejoin="round"/>
<path d="M72.0518 19.9238C71.6133 20.2186 71.1749 20.4643 70.6877 20.6608" stroke="white" stroke-width="3" stroke-miterlimit="2.6131" stroke-linecap="round" stroke-linejoin="round"/>
<path d="M74.3418 17.9102C74.1469 18.1558 73.9521 18.3523 73.7085 18.5489C73.4649 18.7945 73.2701 18.991 73.0265 19.1876C72.8316 19.3841 72.5881 19.5315 72.3932 19.6789" stroke="white" stroke-width="3" stroke-miterlimit="2.6131" stroke-linecap="round" stroke-linejoin="round"/>
<path d="M74.877 17.2236C74.7308 17.4693 74.5359 17.6658 74.3898 17.9115" stroke="white" stroke-width="3" stroke-miterlimit="2.6131" stroke-linecap="round" stroke-linejoin="round"/>
<path d="M75.3164 16.4365C75.219 16.6822 75.0728 16.8787 74.9267 17.0752" stroke="white" stroke-width="3" stroke-miterlimit="2.6131" stroke-linecap="round" stroke-linejoin="round"/>
<path d="M75.9014 15.2568C75.8527 15.4534 75.7552 15.6008 75.6578 15.7973" stroke="white" stroke-width="3" stroke-miterlimit="2.6131" stroke-linecap="round" stroke-linejoin="round"/>
<path d="M57.5362 14.4219C51.7391 18.0084 46.6727 24.8867 42.8243 33.9759C39.9014 40.8542 37.6605 49.1082 36.3939 58.0991C35.6145 63.7 35.176 69.6448 35.176 75.7861C35.176 81.9275 35.6145 87.8723 36.3939 93.4732C37.6605 102.513 39.8527 110.718 42.8243 117.596C48.6213 131.255 57.1952 139.951 66.7433 139.951C76.2914 139.951 84.9139 131.304 90.6623 117.596C93.5852 110.669 95.8261 102.464 97.0927 93.4732C97.9208 87.8723 98.3105 81.9275 98.3105 75.7861C98.3105 69.6448 97.8721 63.7 97.0927 58.0991C95.8261 49.1082 93.5852 40.9033 90.6623 33.9759C86.8625 24.985 81.8449 18.1067 76.0965 14.5201" stroke="white" stroke-width="3" stroke-miterlimit="2.6131" stroke-linecap="round" stroke-linejoin="round"/>
<path d="M123.251 96.3236C123.494 96.3728 123.738 96.3728 123.981 96.4219C123.251 90.084 119.987 82.9601 114.677 75.787C110.195 69.7931 104.252 63.7009 97.1395 58.1C92.7065 54.6117 87.835 51.2708 82.5738 48.2247C77.3126 45.1786 72.0026 42.5747 66.7901 40.4621C58.4112 37.0229 50.2758 34.8612 42.8224 33.9768C28.2079 32.2081 16.4676 35.3525 11.6448 43.7047C6.87079 52.0569 10.0373 63.8974 18.8547 75.787C23.3364 81.8301 29.2797 87.8732 36.392 93.4741C40.8251 96.9623 45.6966 100.303 50.9578 103.349C56.219 106.395 61.5289 108.999 66.7901 111.112C75.1691 114.502 83.3045 116.713 90.7092 117.597C101.134 118.875 110.049 117.646 116.09 113.814C116.041 113.765 115.992 113.716 115.943 113.716C115.749 113.569 115.602 113.421 115.408 113.274" stroke="white" stroke-width="3" stroke-miterlimit="2.6131" stroke-linecap="round" stroke-linejoin="round"/>
<path d="M112.193 106.984C112.145 106.64 112.145 106.345 112.145 106.001" stroke="white" stroke-width="3" stroke-miterlimit="2.6131" stroke-linecap="round" stroke-linejoin="round"/>
<path d="M113.703 111.356C113.508 111.061 113.362 110.766 113.216 110.472" stroke="white" stroke-width="3" stroke-miterlimit="2.6131" stroke-linecap="round" stroke-linejoin="round"/>
<path d="M19.2949 113.961C19.1488 114.157 19.0026 114.305 18.8078 114.501" stroke="white" stroke-width="3" stroke-miterlimit="2.6131" stroke-linecap="round" stroke-linejoin="round"/>
<path d="M20.6582 111.603C20.5608 111.848 20.4633 112.094 20.3172 112.29" stroke="white" stroke-width="3" stroke-miterlimit="2.6131" stroke-linecap="round" stroke-linejoin="round"/>
<path d="M21.3398 108.9C21.2911 109.49 21.1937 110.03 20.9988 110.571" stroke="white" stroke-width="3" stroke-miterlimit="2.6131" stroke-linecap="round" stroke-linejoin="round"/>
<path d="M18.7584 114.599C24.7503 117.842 33.1293 118.825 42.8723 117.645C50.2769 116.761 58.4611 114.599 66.84 111.16C72.0525 109.048 77.3624 106.444 82.5749 103.397C87.8362 100.351 92.7076 97.0105 97.1407 93.5222C104.253 87.9213 110.196 81.8782 114.678 75.8352C123.544 63.8964 126.662 52.105 121.888 43.7528C117.114 35.4006 105.374 32.2071 90.7103 34.0249C83.3057 34.9093 75.1703 37.071 66.7913 40.5102C61.5788 42.6228 56.2689 45.2267 51.0077 48.2728C45.7465 51.3189 40.875 54.6598 36.4419 58.1481C29.3295 63.749 23.3863 69.7921 18.9045 75.8352C13.0588 83.6961 9.69743 91.557 9.45385 98.3862C9.50257 98.3862 9.55129 98.3862 9.6 98.3862C9.84358 98.337 10.1359 98.2879 10.3794 98.2388" stroke="white" stroke-width="3" stroke-miterlimit="2.6131" stroke-linecap="round" stroke-linejoin="round"/>
<path d="M76.4854 75.8346C76.4854 70.4303 72.1497 66.0576 66.7911 66.0576C61.4324 66.0576 57.0481 70.4303 57.0481 75.8346C57.0481 81.239 61.3837 85.6116 66.7911 85.6116C72.1497 85.6116 76.4854 81.239 76.4854 75.8346Z" stroke="white" stroke-width="3" stroke-miterlimit="2.6131" stroke-linecap="round" stroke-linejoin="round"/>
<path d="M76.1446 14.5198C76.4369 13.6354 76.583 12.6528 76.583 11.6211C76.583 6.21668 72.2474 1.79492 66.8887 1.79492C61.5301 1.79492 57.1458 6.16755 57.1458 11.6211C57.1458 12.5545 57.2919 13.488 57.5355 14.3724C57.6329 14.6672 57.6816 14.9128 57.8278 15.1585C57.8765 15.355 57.9739 15.5024 58.0713 15.6989C58.1201 15.8463 58.1688 15.9937 58.2662 16.092C58.3149 16.1902 58.3636 16.3376 58.4611 16.4359C58.5585 16.6815 58.7046 16.878 58.8508 17.0746C58.9482 17.2711 59.0944 17.4676 59.2405 17.615C59.2892 17.6641 59.3379 17.7624 59.3866 17.8115C59.4354 17.8607 59.4841 17.9098 59.5328 18.008C59.6789 18.2046 59.8251 18.352 60.0199 18.5485C60.2148 18.7941 60.4584 18.9907 60.7019 19.1872C60.8968 19.3837 61.0917 19.5311 61.3352 19.6785C61.384 19.7276 61.4327 19.7768 61.5301 19.7768C61.7737 19.9733 62.0172 20.0715 62.2608 20.2189C62.5531 20.3663 62.8454 20.5137 63.089 20.612C63.3813 20.7102 63.6736 20.8576 63.9658 20.9559C64.2581 21.0542 64.5991 21.1524 64.8914 21.2015C65.135 21.2507 65.4273 21.2998 65.7196 21.3489C66.1093 21.3981 66.4503 21.3981 66.84 21.3981C67.2297 21.3981 67.6682 21.3489 68.0579 21.2998C68.2528 21.2998 68.4963 21.2507 68.6912 21.2015C68.7399 21.2015 68.7886 21.2015 68.8373 21.1524C69.1296 21.1033 69.4219 21.0542 69.6655 20.9068H69.7142C70.0065 20.8085 70.2988 20.7102 70.5911 20.5628H70.6398C71.1269 20.3663 71.5654 20.1207 72.0038 19.8259C72.1012 19.7768 72.2474 19.6785 72.3448 19.5802C72.5884 19.4328 72.7832 19.2854 72.9781 19.0889C73.2217 18.8924 73.4653 18.6959 73.6601 18.4502C73.9037 18.2537 74.0498 18.008 74.2934 17.8115C74.2934 17.8115 74.2934 17.8115 74.2934 17.7624C74.4883 17.5167 74.6344 17.3202 74.7806 17.0746C74.7806 17.0254 74.8293 17.0254 74.8293 16.9763C74.9754 16.7798 75.1216 16.5341 75.219 16.3376C75.3651 16.1411 75.4626 15.8954 75.56 15.6989C75.6574 15.5515 75.7061 15.355 75.8036 15.1585C75.9984 15.0111 76.0959 14.7654 76.1446 14.5198Z" stroke="white" stroke-width="3" stroke-miterlimit="2.6131" stroke-linecap="round" stroke-linejoin="round"/>
<path d="M21.34 108.901C21.3887 108.557 21.3887 108.263 21.3887 107.919C21.3887 102.514 17.053 98.1416 11.6944 98.1416C11.256 98.1416 10.8175 98.1907 10.4278 98.2399C10.1842 98.289 9.89195 98.3381 9.64838 98.3873C5.26403 99.3207 2.00014 103.251 2.00014 107.968C2.00014 113.372 6.33576 117.745 11.6944 117.745C14.5199 117.745 17.0043 116.566 18.7581 114.65C18.8068 114.6 18.8068 114.6 18.8555 114.551C19.0016 114.404 19.1965 114.207 19.3426 114.011C19.7324 113.47 20.0734 112.93 20.3657 112.34C20.5118 112.095 20.6092 111.849 20.7067 111.653C20.8041 111.309 20.9502 111.014 21.0477 110.67C21.1451 110.031 21.2912 109.491 21.34 108.901Z" stroke="white" stroke-width="3" stroke-miterlimit="2.6131" stroke-linecap="round" stroke-linejoin="round"/>
<path d="M123.252 96.3229C122.813 96.2737 122.375 96.2246 121.888 96.2246C116.529 96.2246 112.145 100.597 112.145 106.051C112.145 106.395 112.145 106.689 112.193 107.033C112.291 108.262 112.681 109.441 113.216 110.522C113.363 110.816 113.509 111.111 113.704 111.406C114.191 112.143 114.727 112.782 115.36 113.322C115.506 113.469 115.701 113.617 115.896 113.764C117.503 115.042 119.598 115.828 121.839 115.828C127.198 115.828 131.533 111.455 131.533 106.051C131.533 101.334 128.269 97.4037 123.885 96.4703C123.69 96.372 123.447 96.3229 123.252 96.3229Z" stroke="white" stroke-width="3" stroke-miterlimit="2.6131" stroke-linecap="round" stroke-linejoin="round"/>
</g>
</svg>
