<svg width="451" height="527" viewBox="0 0 451 527" fill="none" xmlns="http://www.w3.org/2000/svg">
<path d="M269.8 130.4C269.8 129.6 270.4 129 271.2 129H285C285.8 129 286.4 129.6 286.4 130.4C286.4 131.2 285.8 131.8 285 131.8H271.2C270.4 131.8 269.8 131.2 269.8 130.4ZM243.5 129C242.7 129 242.1 129.6 242.1 130.4C242.1 131.2 242.7 131.8 243.5 131.8H257.3C258.1 131.8 258.7 131.2 258.7 130.4C258.7 129.6 258.1 129 257.3 129H243.5ZM228.9 129.3C228.1 129.3 227.5 129.9 227.5 130.7V143.9C227.5 144.7 228.3 145.3 228.9 145.3C229.7 145.3 230.3 144.7 230.3 143.9V131.9C230.9 131.6 231.1 131.3 231.1 130.8C231.1 130 230.5 129.4 229.7 129.4H228.9V129.3ZM271.8 46.6C272.6 46.6 273.2 46 273.2 45.2V31.2C273.2 30.4 272.6 29.8 271.8 29.8C271 29.8 270.4 30.4 270.4 31.2V45.2C270.4 46 270.9 46.6 271.8 46.6ZM271.8 102.7C272.6 102.7 273.2 102.1 273.2 101.3V87.3C273.2 86.5 272.6 85.9 271.8 85.9C271 85.9 270.4 86.5 270.4 87.3V101.3C270.4 102.1 270.9 102.7 271.8 102.7ZM271.8 18.6C272.6 18.6 273.2 18 273.2 17.2V3.20004C273.2 2.40004 272.6 1.80004 271.8 1.80004C271 1.80004 270.4 2.40004 270.4 3.20004V17.2C270.4 18 270.9 18.6 271.8 18.6ZM272 113.9C271.2 113.9 270.6 114.5 270.6 115.3V116.1C270.6 116.9 271.2 117.5 272 117.5H285C285.8 117.5 286.4 116.7 286.4 116.1C286.4 115.3 285.8 114.7 285 114.7H273.1C272.9 114.2 272.6 113.9 272 113.9ZM271.8 74.6C272.6 74.6 273.2 74 273.2 73.2V59.2C273.2 58.4 272.6 57.8 271.8 57.8C271 57.8 270.4 58.4 270.4 59.2V73.2C270.4 74.1 270.9 74.6 271.8 74.6ZM159.6 113.6C158.8 113.6 158.2 114.2 158.2 115C158.2 115.8 158.8 116.4 159.6 116.4H173.4C174.2 116.4 174.8 115.8 174.8 115C174.8 114.2 174.2 113.6 173.4 113.6H159.6ZM144.9 100.1C144.3 100.1 143.5 100.7 143.5 101.5V114.7C143.5 115.5 144.1 116.1 144.9 116.1H145.7C146.5 116.1 147.1 115.5 147.1 114.7C147.1 114.1 146.8 113.9 146.3 113.6V101.6C146.3 100.7 145.7 100.1 144.9 100.1ZM242.6 116.4H256.4C257.2 116.4 257.8 115.8 257.8 115C257.8 114.2 257.2 113.6 256.4 113.6H242.6C241.8 113.6 241.2 114.2 241.2 115C241.2 115.8 241.8 116.4 242.6 116.4ZM214.9 116.4H228.7C229.5 116.4 230.1 115.8 230.1 115C230.1 114.2 229.5 113.6 228.7 113.6H214.9C214.1 113.6 213.5 114.2 213.5 115C213.5 115.8 214.1 116.4 214.9 116.4ZM185.9 115C185.9 115.8 186.5 116.4 187.3 116.4H201.1C201.9 116.4 202.5 115.8 202.5 115C202.5 114.2 201.9 113.6 201.1 113.6H187.3C186.4 113.6 185.9 114.1 185.9 115ZM241.8 577.7H230C229.7 577.1 229.4 576.8 228.9 576.8C228.1 576.8 227.5 577.4 227.5 578.3V579.2C227.5 580.1 228.1 580.7 228.9 580.7H241.9C242.7 580.7 243.3 579.8 243.3 579.2C243.2 578.3 242.7 577.7 241.8 577.7ZM228.6 473C229.4 473 230 472.4 230 471.5V456.2C230 455.3 229.4 454.7 228.6 454.7C227.8 454.7 227.2 455.3 227.2 456.2V471.5C227.2 472.4 227.7 473 228.6 473ZM227.2 563.1C227.2 564 227.8 564.6 228.6 564.6C229.4 564.6 230 564 230 563.1V547.8C230 546.9 229.4 546.3 228.6 546.3C227.8 546.3 227.2 546.9 227.2 547.8V563.1ZM227.2 532.5C227.2 533.4 227.8 534 228.6 534C229.4 534 230 533.4 230 532.5V517.2C230 516.3 229.4 515.7 228.6 515.7C227.8 515.7 227.2 516.3 227.2 517.2V532.5ZM227.2 502C227.2 502.9 227.8 503.5 228.6 503.5C229.4 503.5 230 502.9 230 502V486.7C230 485.8 229.4 485.2 228.6 485.2C227.8 485.2 227.2 485.8 227.2 486.7V502ZM276.5 394.2C265.2 420.6 248.1 437.9 228.7 437.9C209.3 437.9 192.3 420.5 180.9 394.3C176.1 394.8 171.5 395.1 167 395.1C154.6 395.1 143.7 393 135 388.6L135.1 388.5C131.4 392.1 126.5 394.3 120.8 394.3C109.5 394.3 100.3 385.1 100.3 373.7V373.6V373.5V373.4V373.3V373.2V373.1V373C101.2 366.3 105.2 360.6 110.9 357.5C112 356.9 113.1 356.5 114.3 356.1C115 342.8 121.5 327.7 132.4 312.8C121.1 297.3 114.5 281.6 114.4 267.8C114.3 261.1 115.8 254.9 118.9 249.3C127 235.2 144.6 228.6 166.5 228.6C170.9 228.6 175.6 228.9 180.3 229.4C184 220.8 188.3 213.2 193.1 206.9L193.2 206.8C197.8 200.7 202.9 195.7 208.3 192.1C207.9 190.6 207.7 189 207.7 187.3C207.7 181.7 209.9 176.6 213.5 172.9C217.3 168.9 222.5 166.5 228.4 166.5C239.7 166.5 248.9 175.9 248.9 187.2C248.9 188.9 248.7 190.6 248.3 192.2C259.3 199.5 268.8 212.6 276 229.3C280.8 228.8 285.4 228.5 289.9 228.5C311.8 228.5 329.2 235.1 337.3 249.1L337.4 249.3C339.2 252.4 340.4 255.7 341.1 259.1C341.9 262.8 342.1 266.8 341.8 270.8C340.8 283.8 334.4 298.3 323.9 312.7C333.7 326.2 339.9 339.7 341.6 351.9C350.2 354.3 356.5 362.3 356.5 371.8V371.9C356.5 383.3 347.4 392.5 336 392.5C331.8 392.5 327.8 391.2 324.5 388.9C315.6 394.2 304 396.8 290.6 396.9C290.3 396.9 290.1 396.9 289.8 396.9C285.9 395 281.3 394.7 276.5 394.2ZM273.3 393.9C259.4 392 244.3 387.9 228.8 381.6C213.2 387.9 198 392 184.1 393.9C195.4 419.4 211.4 434.8 228.7 434.8C245.9 434.8 262.1 419.5 273.3 393.9ZM175.9 381.1C172.4 370.4 169.6 358.6 167.8 346C167.6 345.9 167.5 345.7 167.3 345.6C166.6 345 165.8 344.4 165.1 343.8C164.7 343.4 164.2 343.1 163.8 342.7C163.4 342.3 162.9 342 162.5 341.6C162 341.2 161.6 340.8 161.1 340.4C160.7 340 160.3 339.7 159.9 339.3C159.4 338.9 159 338.5 158.6 338.1C158.2 337.7 157.8 337.4 157.4 337C157 336.6 156.5 336.2 156.1 335.8C155.7 335.4 155.3 335.1 154.9 334.7C154.5 334.3 154.1 333.9 153.7 333.5C153.3 333.1 152.9 332.7 152.5 332.4C152.1 332 151.7 331.6 151.3 331.3C150.9 330.9 150.5 330.5 150.1 330.1C149.7 329.7 149.4 329.4 149 329C148.7 328.7 148.4 328.4 148.2 328.2C148 327.9 147.7 327.7 147.5 327.4C146.8 326.7 146.2 326 145.5 325.3C145.2 325 144.8 324.6 144.5 324.3C141.1 320.6 138 316.9 135.1 313.2C125.1 327.1 119.2 340.8 118.2 352.8C118.7 352.8 119.1 352.8 119.5 352.8H119.6C120 352.8 120.4 352.8 120.9 352.8C126.6 352.8 131.8 355.2 135.5 359C139.2 362.7 141.5 367.9 141.5 373.6C141.5 374.1 141.5 374.6 141.5 375.1C141.5 375.2 141.5 375.4 141.5 375.5C141.5 375.6 141.5 375.7 141.5 375.8C141.4 377.1 141.1 378.3 140.8 379.3C140.7 379.7 140.5 380.1 140.4 380.4C140.3 380.7 140.2 381 140.1 381.2L140 381.5C140 381.6 139.9 381.6 139.9 381.7C139.8 382 139.6 382.5 139.3 382.8C138.7 383.9 138.1 385 137.4 386C145.4 389.8 155.4 391.7 167 391.7C171.1 391.7 175.3 391.5 179.7 391C178.4 387.9 177.3 384.7 176.1 381.3C176 381.4 175.9 381.3 175.9 381.1ZM184.6 226.2L184.5 226.3V226.4V226.5C184.3 226.9 184.2 227.2 184 227.6C197.4 229.4 211.7 233.2 226.5 239C227.2 239.3 228 239.6 228.7 239.9C244.3 233.7 259.5 229.6 273.3 227.6C266.4 211.9 257.6 199.9 247.8 193.1C247.7 193.4 247.6 193.6 247.5 193.8V193.9C247.3 194.4 247.1 194.8 246.8 195.3C246.7 195.5 246.6 195.6 246.6 195.8L246.5 196C246.4 196.2 246.2 196.4 246.1 196.6C246.1 196.7 246 196.8 245.9 196.9C245.7 197.2 245.5 197.5 245.3 197.7C245.1 197.9 245 198.1 244.9 198.2L244.8 198.3C244.4 198.8 243.9 199.3 243.4 199.7C243 200.1 242.6 200.5 242.1 201C241.7 201.4 241.2 201.7 241 201.9L240.9 202C240.6 202.2 240.4 202.4 240.2 202.5L240.1 202.6C239.2 203.2 238.2 203.8 237.2 204.2C237.1 204.2 237 204.3 236.8 204.3C236.6 204.4 236.4 204.4 236.2 204.5C235.9 204.6 235.6 204.8 235.3 204.9C235.2 204.9 235.1 205 235 205H234.9C234.5 205.1 234 205.3 233.5 205.4H233.4C233.3 205.4 233.2 205.5 233.1 205.5C232.7 205.6 232.2 205.7 231.7 205.7C231 205.8 230 205.9 229.2 205.9H229C228.3 205.9 227.4 205.9 226.6 205.8C226.4 205.8 226.3 205.8 226.2 205.7C226.1 205.7 226 205.7 225.8 205.7C225.5 205.7 225.2 205.6 224.8 205.5C224.1 205.4 223.4 205.2 222.9 205H222.8L222.6 204.9H222.5H222.4C222 204.8 221.5 204.6 221.1 204.4L220.9 204.3H220.8C220.6 204.2 220.4 204.1 220.2 204C219.8 203.8 219.5 203.7 219.1 203.5C218.8 203.4 218.5 203.2 218.2 203C218 202.9 217.8 202.8 217.6 202.6C217.3 202.5 217.1 202.3 216.9 202.2C216.4 201.9 216 201.6 215.6 201.2C215.2 200.9 214.6 200.4 214.1 199.8C213.7 199.4 213.4 199.1 213.1 198.6L213 198.4C212.9 198.3 212.8 198.2 212.8 198.1L212.7 198C212.5 197.8 212.2 197.4 212 197.1L211.9 196.9L211.8 196.7C211.6 196.4 211.3 196 211 195.4C210.9 195.2 210.8 195.1 210.7 194.9L210.6 194.7C210.3 194.3 210.2 193.9 210.1 193.7C210 193.5 209.8 193.2 209.7 192.9C209.4 193.1 209 193.4 208.7 193.6C208.4 193.8 208.2 194 207.9 194.2C207.6 194.4 207.3 194.7 207 194.9C206.7 195.1 206.4 195.3 206.2 195.6C205.9 195.8 205.6 196.1 205.3 196.4C205 196.6 204.7 196.9 204.4 197.2C204.1 197.5 203.8 197.7 203.5 198C203.2 198.3 202.9 198.5 202.6 198.8C202.4 199 202.1 199.3 201.9 199.6C201.6 199.9 201.3 200.3 200.9 200.6C200.7 200.8 200.5 201 200.4 201.2C200 201.6 199.6 202 199.3 202.4C199.1 202.6 199 202.8 198.8 202.9C198.4 203.4 198 203.8 197.6 204.3C197.5 204.4 197.4 204.6 197.3 204.7C196.9 205.2 196.4 205.8 196 206.4L195.9 206.6C195.4 207.2 194.9 207.9 194.5 208.6L194.4 208.7C190.9 213.7 187.6 219.6 184.6 226.2ZM290.6 229.5C286.5 229.5 282.2 229.7 277.8 230.2C283.1 243.3 287.2 258.6 289.6 275.3C290.2 275.8 290.8 276.3 291.4 276.8C303.8 286.8 314.3 297.5 322.5 308.3C338.8 285.7 344 264 335.3 248.8L335.2 248.6C327.9 235.9 311.8 229.5 290.6 229.5ZM286 349C278.1 355 269.6 360.8 260.4 366.1C251.3 371.4 242 376.1 232.9 379.9C238 381.9 243 383.6 247.9 385.1H248.1H248.2H248.3H248.4C257.5 387.8 266.2 389.7 274.5 390.8C279.6 378.7 283.5 364.5 286 349ZM292 310.7C292 321.4 291.3 331.8 290.1 341.8C302.3 331.9 312.6 321.3 320.5 310.7C312.4 300.2 302.2 289.6 290.1 279.6C290.2 280.4 290.3 281.2 290.4 281.9V282V282.1V282.2C291.5 291.4 292 300.9 292 310.7ZM286.7 344.5C288.2 334.3 288.9 323.5 289 312.3H249.2C248.4 322.9 239.7 331.4 228.9 331.4H228.6C217.8 331.4 208.8 323 208.1 312.3H168.3C168.4 323.4 169.2 334.2 170.6 344.5C172.2 345.7 173.7 347 175.3 348.2C179.6 351.4 184.1 354.6 188.8 357.6C191.9 359.6 195.2 361.6 198.5 363.5C208.6 369.3 218.8 374.3 228.7 378.4C238.6 374.3 248.7 369.4 258.7 363.5C268.8 357.5 278.2 351.2 286.7 344.5ZM211.2 310.7C211.2 320.4 219 328.3 228.8 328.3C233.7 328.3 238.2 326.3 241.3 323C244.3 319.8 246.1 315.5 246.1 310.8C246.1 310.6 246.1 310.5 246.2 310.3C245.9 300.8 238.2 293.2 228.7 293.2C219.1 293.2 211.2 301 211.1 310.6L211.2 310.7ZM286 272.5C283.5 257 279.6 242.8 274.6 230.6C261.6 232.3 247.5 235.9 232.9 241.6C242 245.5 251.3 250.1 260.5 255.4C269.6 260.7 278.1 266.5 286 272.5ZM170.6 277C170.5 277.5 170.5 277.9 170.4 278.4C169.5 285.4 168.9 292.5 168.6 299.9C168.5 303 168.4 306.1 168.4 309.2H208.3C208.3 308.8 208.4 308.4 208.4 308C209.7 297.9 218.3 290.1 228.8 290.1C238.7 290.1 247 297.2 248.9 306.7C249 307.3 249.1 307.9 249.2 308.5C249.2 308.6 249.2 308.8 249.2 308.9C249.2 309 249.2 309.2 249.2 309.3H289C288.9 298.1 288.1 287.2 286.7 277C278.2 270.3 268.9 264 258.8 258.2C248.8 252.4 238.7 247.4 228.8 243.4C218.8 247.5 208.7 252.5 198.6 258.3C188.5 264 179.1 270.4 170.6 277ZM167.2 279.7C155 289.6 144.8 300.2 136.8 310.7C140.7 315.9 145.2 321.1 150.2 326.2C155.3 331.4 161 336.6 167.1 341.6C165.8 331.7 165.2 321.2 165.2 310.5C165.2 308.3 165.2 306.2 165.3 304C165.3 303.4 165.3 302.9 165.3 302.3C165.3 302.2 165.3 302.1 165.3 302C165.3 301.8 165.3 301.5 165.3 301.3C165.4 299.9 165.4 298.5 165.5 297.1C165.5 296.6 165.5 296.2 165.6 295.7C165.7 294.1 165.8 292.4 165.9 290.8C165.9 290.6 165.9 290.3 166 290.1C166.1 288.7 166.2 287.2 166.4 285.8C166.4 285.3 166.5 284.8 166.5 284.4C166.7 282.9 166.8 281.4 167 279.9L167.2 279.7ZM171.4 349C173.9 364.6 177.8 378.8 182.9 390.9C195.9 389.2 210.1 385.6 224.7 379.9C215.5 376 206.2 371.4 197 366C187.8 360.7 179.3 355 171.4 349ZM187 231.1C187.4 231.2 187.7 231.2 188.1 231.3C187.7 231.2 187.4 231.1 187 231.1ZM193.5 232.2C192.9 232.1 192.4 232 191.8 231.9C192.4 232 193 232.1 193.5 232.2ZM180.3 236.9C177.8 243.9 175.6 251.5 173.8 259.6C172.9 263.8 172.1 268.2 171.4 272.6C172.1 272.1 172.7 271.6 173.4 271.1C180.8 265.6 188.7 260.4 197.1 255.5C206.3 250.2 215.6 245.5 224.8 241.6C222.2 240.6 219.6 239.6 217.1 238.8C216.9 238.7 216.8 238.7 216.6 238.6C213.1 237.4 209.6 236.3 206.1 235.3C205.7 235.2 205.2 235 204.8 234.9C203.8 234.6 202.9 234.4 201.9 234.1C201.4 234 200.8 233.8 200.3 233.7C198.8 233.3 197.4 233 195.9 232.7C195.2 232.5 194.4 232.4 193.7 232.2C192 231.9 190.3 231.5 188.6 231.3C188.5 231.3 188.4 231.3 188.3 231.2C186.5 230.9 184.7 230.6 182.9 230.4C181.9 232.5 181.1 234.7 180.3 236.9ZM291.2 392C303.6 391.9 314.3 389.6 322.5 385C321.3 383.9 320.3 382.7 319.4 381.3C319 380.6 318.6 380 318.4 379.4C317.3 377.2 316.5 374.7 316.3 372.1C316.2 371.3 316.2 370.7 316.2 370V369.9C316.2 358.5 325.3 349.2 336.8 349.2C337.6 349.2 338.4 349.3 339.1 349.3C337.4 338.2 331.7 325.9 322.7 313.3C314.1 324.6 302.9 335.9 289.6 346.4C287.3 363.1 283.2 378.4 277.9 391.4C282.3 391.9 286.6 392.1 290.7 392.1C290.7 392 291 392 291.2 392ZM354 369.9C354 361.4 348.1 354.3 340.2 352.7C340.1 352.7 340 352.6 339.8 352.6L339.7 352.5C339.5 352.5 339.3 352.5 339.1 352.4H339H338.8C337.9 352.3 337.2 352.2 336.3 352.2C326.8 352.3 319 360.1 318.9 369.8C318.9 370.5 318.9 371 319 371.5V371.6C319.2 373.7 319.8 375.8 320.8 377.7V377.8C321.1 378.4 321.3 378.9 321.7 379.4C322.3 380.3 323 381.1 323.7 381.9C323.8 382 323.9 382.1 324 382.2C324.1 382.3 324.3 382.5 324.4 382.6C324.5 382.6 324.6 382.7 324.7 382.8C324.9 383 325.1 383.1 325.3 383.3C325.4 383.4 325.5 383.5 325.6 383.5C325.7 383.6 325.8 383.6 325.9 383.7C326 383.8 326.2 383.9 326.2 384L326.4 384.2C329.2 386.2 332.7 387.4 336.4 387.4C346.2 387.5 354 379.6 354 369.9ZM211.4 185.1C211.4 186.8 211.7 188.4 212.1 190.1C212.2 190.4 212.2 190.5 212.3 190.7C212.3 190.8 212.4 190.9 212.4 191C212.4 191.1 212.5 191.2 212.6 191.3C212.7 191.4 212.7 191.5 212.8 191.6C212.9 191.8 213 192 213.1 192.2C213.2 192.3 213.2 192.5 213.3 192.6C213.4 192.8 213.5 193 213.6 193.1L213.7 193.3C213.8 193.5 213.9 193.7 214 193.8C214 193.9 214.1 194 214.1 194V194.1L214.2 194.2C214.3 194.5 214.5 194.7 214.8 195.1L214.9 195.3C214.9 195.4 215 195.4 215.1 195.6L215.2 195.7C215.3 195.8 215.4 195.9 215.5 196.1L215.6 196.3L215.7 196.4C215.8 196.5 215.8 196.6 215.9 196.7L216 196.9C216.1 197 216.2 197.1 216.2 197.2C216.3 197.3 216.4 197.5 216.6 197.6L216.7 197.7L216.9 197.9L217.1 198.1C217.3 198.3 217.5 198.5 217.9 198.7L218 198.8C218.3 199.1 218.6 199.3 219 199.5L219.1 199.6C219.3 199.7 219.4 199.7 219.6 199.9C219.7 200 219.9 200.1 220.1 200.2L220.3 200.3C220.5 200.4 220.7 200.5 220.8 200.6C221.4 200.9 221.8 201.1 222.2 201.3C222.5 201.4 222.8 201.5 223.1 201.7C223.4 201.8 223.6 201.9 223.9 202C224.4 202.2 225 202.3 225.5 202.4C225.9 202.5 226.5 202.6 227 202.7C227.6 202.8 228.2 202.8 229 202.8C229.7 202.8 230.4 202.7 231.2 202.6H231.4C231.6 202.6 231.9 202.5 232.3 202.5C232.4 202.4 232.5 202.4 232.7 202.4C233.3 202.3 233.6 202.2 233.8 202.1C234 202 234.2 201.9 234.4 201.9C234.9 201.7 235.3 201.6 235.7 201.4C235.8 201.3 236 201.3 236.1 201.3C236.9 201 237.6 200.6 238.3 200.1L238.5 200L238.6 199.9L238.7 199.8C238.8 199.7 238.9 199.6 239 199.6C239.4 199.4 239.7 199.1 240 198.9L240.1 198.8C240.5 198.5 240.7 198.3 241 198.1L241.2 197.9L241.3 197.8L241.5 197.6L241.7 197.4L241.9 197.2C242 197.1 242.1 197 242.3 196.8L242.4 196.7L242.5 196.5C242.8 196.1 243 195.8 243.3 195.5L243.4 195.3V195.2L243.5 195C243.7 194.7 244 194.3 244.1 194L244.2 193.8C244.3 193.6 244.4 193.5 244.5 193.2C244.6 193.1 244.6 192.9 244.7 192.8L244.8 192.6L244.9 192.4V192.3C245 192.2 245 192 245.1 191.8C245.3 191.3 245.4 191 245.5 190.7V190.5C246 188.9 246.3 187.2 246.3 185.3C246.6 175.7 238.7 167.8 229 167.8C224.1 167.8 219.6 169.8 216.4 173.2C213.2 176 211.4 180.3 211.4 185.1ZM117.9 265.4C118 278.1 123.9 292.9 134.9 308.1C143.5 296.8 154.6 285.6 167.8 275.2C168.1 273.3 168.4 271.5 168.7 269.6C168.8 269.1 168.9 268.7 168.9 268.2C169.2 266.6 169.5 265.1 169.8 263.5C169.9 263.2 169.9 262.9 170 262.6C170.3 261.1 170.6 259.5 171 258C171 257.8 171.1 257.6 171.1 257.4C171.3 256.7 171.4 256 171.6 255.2C171.9 253.9 172.2 252.6 172.6 251.3C172.7 251 172.8 250.7 172.9 250.4C173.3 248.8 173.8 247.2 174.2 245.6C174.2 245.5 174.3 245.3 174.3 245.2C174.8 243.5 175.3 241.9 175.8 240.3C175.9 239.9 176.1 239.4 176.2 239C176.6 238 176.9 236.9 177.3 235.9C177.4 235.7 177.5 235.4 177.6 235.2C177.7 235 177.8 234.7 177.9 234.5C178.5 233 179 231.5 179.6 230C175.1 229.5 170.8 229.3 166.7 229.3C145.5 229.3 129.4 235.8 122 248.6C119.2 253.7 117.9 259.3 117.9 265.4ZM133 386.4C133 386.1 133.2 385.7 133.4 385.5L133.5 385.4L133.6 385.3C134 384.9 134.2 384.7 134.4 384.4C135.1 383.4 135.7 382.4 136.3 381.4L136.4 381.2C136.5 381 136.7 380.7 136.9 380.2L137 380.1C137.2 379.7 137.4 379.1 137.6 378.4V378.3C137.9 377.4 138.1 376.5 138.2 375.4V375.3C138.3 374.9 138.3 374.3 138.3 373.6C138.3 368.8 136.4 364.4 133.3 361.2C130.1 358 125.8 356 120.9 356C120.3 356 119.8 356 119.2 356.1C119 356.1 118.8 356.1 118.6 356.2C118.4 356.2 118.1 356.3 117.9 356.3C117.6 356.3 117.4 356.4 117.2 356.4C117.1 356.4 116.9 356.5 116.8 356.5C113.9 357.2 111.3 358.7 109.2 360.6C106.8 362.8 105 365.7 104.2 369C104 369.6 103.9 370.2 103.8 370.8C103.7 371.3 103.7 371.7 103.6 372.2V372.4V372.6V372.8C103.6 372.9 103.6 373 103.6 373.1V373.2V373.3C103.6 383.1 111.4 390.9 121.1 390.9C125.7 391.3 129.9 389.5 133 386.4ZM299.8 168.2C299.8 149 312 132 330.3 125.7V80.5C327.3 80.1 325 77.5 324.9 74.4C324.9 71 327.7 68.2 331.1 68.2H358.5C361.9 68.2 364.7 71 364.7 74.4C364.7 77.5 362.4 80.1 359.4 80.5V125.8C377.7 132 389.9 148.9 389.9 168.3C389.9 193.1 369.6 213.2 344.8 213.2C320.1 213.1 299.8 193 299.8 168.2ZM302.2 168.2C302.2 179.9 307 190.6 314.7 198.3C322.4 206 333.1 210.8 344.9 210.8C356.7 210.8 367.4 206 375.1 198.3C382.8 190.6 387.6 180 387.6 168.2C387.6 149.6 375.7 133.3 357.9 127.7C357.7 127.6 357.5 127.5 357.3 127.3C357.2 127.1 357.1 126.9 357.1 126.6V80.6H332.7V126.7C332.7 127 332.6 127.2 332.5 127.3C332.4 127.5 332.2 127.6 331.9 127.8C314.1 133.4 302.2 149.6 302.2 168.2ZM327.4 74.4C327.4 76.5 329.1 78.2 331.2 78.2H358.6C359.6 78.2 360.6 77.8 361.3 77.1C362 76.4 362.4 75.5 362.4 74.4C362.4 72.3 360.7 70.6 358.6 70.6H331.2C329.1 70.6 327.4 72.3 327.4 74.4ZM307.4 168.1C307.4 167.6 307.6 167.3 307.9 167.1C308.1 167 308.3 167 308.5 167C308.6 167 308.8 167 308.9 167.1C317.7 170.3 324.8 171.9 330.6 171.9C338.4 171.9 342.7 169.1 346.9 166.4C350.7 163.9 354.8 161.3 361 161.3C366.5 161.3 373.1 163.2 381.4 167.2C381.6 167.3 381.7 167.5 381.9 167.6C382 167.8 382.1 168 382.1 168.3C382.1 188.8 365.4 205.6 344.7 205.6C324.4 205.5 307.5 188.8 307.4 168.1ZM330.9 174.4C325.1 174.4 318.3 172.9 310 170C310.9 188.4 326.2 203.2 345 203.2C364.1 203.2 379.7 187.9 380.1 169C372.8 165.6 366.9 163.8 362.1 163.8C361.9 163.8 361.6 163.8 361.4 163.8C355.9 163.8 352.3 166.1 348.6 168.5C344.2 171.3 339.2 174.4 330.9 174.4ZM367 156.2C367 153.5 369.2 151.3 371.9 151.3C374.6 151.3 376.8 153.5 376.8 156.2C376.8 158.9 374.6 161.1 371.9 161.1C369.2 161.1 367 158.9 367 156.2ZM369.4 156.2C369.4 157.6 370.5 158.7 371.9 158.7C373.3 158.7 374.4 157.6 374.4 156.2C374.4 154.8 373.3 153.7 371.9 153.7C370.5 153.7 369.4 154.8 369.4 156.2ZM361.5 173.1C361.5 171.1 363.2 169.4 365.2 169.4C367.2 169.4 368.9 171.1 368.9 173.1C368.9 175.1 367.2 176.8 365.2 176.8C363.1 176.8 361.5 175.2 361.5 173.1ZM365.2 171.8C364.8 171.8 364.5 172 364.3 172.2C364.1 172.4 363.9 172.8 363.9 173.1C363.9 173.8 364.4 174.4 365.2 174.4C366 174.4 366.5 173.9 366.5 173.1C366.4 172.4 365.9 171.9 365.2 171.8ZM344.8 156.4C344.8 154.4 346.5 152.7 348.5 152.7C350.5 152.7 352.2 154.4 352.2 156.4C352.2 158.4 350.5 160.1 348.5 160.1C346.5 160 344.8 158.4 344.8 156.4ZM348.5 155C348.1 155 347.8 155.2 347.6 155.4C347.4 155.6 347.2 156 347.2 156.3C347.2 157 347.7 157.6 348.5 157.6C349.3 157.6 349.8 157.1 349.8 156.3C349.8 155.5 349.3 155 348.5 155ZM332.7 182.3C332.7 180.3 334.4 178.6 336.4 178.6C338.4 178.6 340.1 180.3 340.1 182.3C340.1 184.3 338.4 186 336.4 186C334.4 186 332.7 184.4 332.7 182.3ZM335.1 182.3C335.1 183 335.6 183.6 336.4 183.6C337.2 183.6 337.7 183.1 337.7 182.3C337.7 181.5 337.2 181 336.4 181C335.6 181.1 335.1 181.6 335.1 182.3ZM350.9 188.3C350 187.4 349.5 186.2 349.5 184.9C349.5 182.2 351.7 180 354.4 180C357.1 180 359.3 182.2 359.3 184.9C359.3 187.6 357.1 189.8 354.4 189.8C353 189.7 351.8 189.2 350.9 188.3ZM352.7 183C352.2 183.4 351.9 184 351.9 184.6V184.7C351.9 186.2 353 187.3 354.4 187.3C355.1 187.3 355.7 187 356.2 186.5C356.7 186 356.9 185.4 356.9 184.7C356.9 183.3 355.8 182.2 354.4 182.2C353.8 182.2 353.1 182.5 352.7 183ZM326.1 182.5C326.1 185.2 323.9 187.4 321.2 187.4C318.5 187.4 316.3 185.2 316.3 182.5C316.3 179.8 318.5 177.6 321.2 177.6C323.9 177.6 326.1 179.8 326.1 182.5ZM323.7 182.5C323.7 181.1 322.6 180 321.2 180C319.8 180 318.7 181.1 318.7 182.5C318.7 183.9 319.8 185 321.2 185C322.6 185 323.7 183.9 323.7 182.5ZM332.2 159.7C334.9 159.7 337.1 161.9 337.1 164.6C337.1 167.3 334.9 169.5 332.2 169.5C329.5 169.5 327.3 167.3 327.3 164.6C327.3 161.9 329.5 159.7 332.2 159.7ZM330.5 162.8C330 163.3 329.8 163.9 329.8 164.6C329.8 166 330.9 167.1 332.3 167.1C333.8 167.1 334.9 166 334.9 164.6C334.9 163.9 334.6 163.2 334.1 162.8C333.6 162.3 333 162.1 332.3 162.1C331.5 162 330.9 162.3 330.5 162.8ZM313 162.5C313 160.5 314.7 158.8 316.7 158.8C318.7 158.8 320.4 160.5 320.4 162.5C320.4 164.5 318.7 166.2 316.7 166.2C314.7 166.1 313.1 164.5 313 162.5ZM316.7 161.2C316.4 161.2 316.1 161.3 315.8 161.6C315.6 161.8 315.4 162.1 315.4 162.5C315.4 163.2 315.9 163.8 316.7 163.8C317.5 163.8 318 163.3 318 162.5C318 161.7 317.4 161.2 316.7 161.2ZM323.7 143.4C323.7 141.4 325.4 139.7 327.4 139.7C329.4 139.7 331.1 141.4 331.1 143.4C331.1 145.4 329.4 147.1 327.4 147.1C325.4 147.1 323.7 145.4 323.7 143.4ZM327.4 142.1C326.6 142.1 326.1 142.6 326.1 143.4C326.1 144.1 326.6 144.7 327.4 144.7C328.2 144.7 328.7 144.2 328.7 143.4C328.7 142.6 328.2 142.1 327.4 142.1ZM354 141.1C354 139.1 355.7 137.4 357.7 137.4C359.7 137.4 361.4 139.1 361.4 141.1C361.4 143.1 359.7 144.8 357.7 144.8C355.6 144.8 354 143.1 354 141.1ZM357.7 139.8C357.3 139.8 357 140 356.8 140.2C356.6 140.4 356.4 140.8 356.4 141.1C356.4 141.8 356.9 142.4 357.7 142.4C358.5 142.4 359 141.9 359 141.1C359 140.3 358.4 139.8 357.7 139.8ZM162.7 409.4C163 409.7 163.1 410 163.1 410.4C163.1 410.9 163.1 415.5 161.1 421.3C159.1 427.1 155.1 434.1 147.2 439.1C155.1 444.1 159.1 451 161.1 456.9C163.1 462.7 163.1 467.4 163.1 468C163.1 468.6 163.1 473.3 161.1 479.1C159.1 484.9 155.1 491.8 147.2 496.8C155.1 501.9 159.1 508.8 161.1 514.7C163.1 520.5 163.1 525.2 163.1 525.7C163.1 526.1 163 526.4 162.7 526.7C162.6 526.8 162.4 526.9 162.2 527H161.1C160.9 526.9 160.8 526.8 160.6 526.7C160.5 526.6 160.4 526.4 160.3 526.2H160.2V525.7V525.5C160.2 525.3 160.2 525.1 160.2 524.8C160.2 524.2 160.1 523.4 159.9 522.4H144.4H129C128.9 523.4 128.8 524.2 128.7 524.8C128.7 525.1 128.7 525.3 128.7 525.5V525.7V526.3H128.6C128.5 526.5 128.4 526.7 128.3 526.8C128.2 526.9 128 527 127.8 527.1H126.8C126.6 527 126.5 526.9 126.3 526.8C126.2 526.7 126 526.5 126 526.3V523.7C126.2 521.7 126.6 518.4 127.9 514.7C129.9 508.9 133.9 502 141.8 497C134 492 130 485.1 128 479.3C126 473.5 126 468.8 126 468.1C126 467.4 126 462.7 128 456.9C130 451.1 134 444.3 141.9 439.3C134 434.3 130.1 427.4 128.1 421.7C126.1 415.9 126 411.3 126 410.5C126 410.1 126.1 409.7 126.4 409.5C126.6 409.3 127 409.1 127.4 409.1C127.8 409.1 128.1 409.2 128.4 409.5C128.5 409.6 128.6 409.8 128.7 410H128.8V410.3V410.5V410.7C128.8 410.9 128.8 411.1 128.8 411.4C128.8 412 128.9 412.8 129.1 413.8H144.5H160C160.1 412.8 160.2 412 160.3 411.4C160.3 411.1 160.3 410.9 160.3 410.7V410.5V410.3V410.1V409.9C160.4 409.7 160.5 409.5 160.6 409.3C160.8 409.1 161.2 409 161.5 409C162 409 162.4 409.1 162.7 409.4ZM155.5 509.1H144.6H133.7C131.5 512.9 130.2 516.6 129.6 519.6H144.6H159.6C159 516.6 157.7 512.9 155.5 509.1ZM144.6 498.5C140.7 500.7 137.8 503.5 135.6 506.4H144.6H153.6C151.3 503.5 148.5 500.8 144.6 498.5ZM153.6 487.4H144.6H135.6C137.8 490.3 140.7 493 144.6 495.3C148.5 493.1 151.3 490.3 153.6 487.4ZM159 476.2H144.5H130.1C130.8 478.8 132 481.7 133.7 484.6H144.6H155.4C157.2 481.7 158.3 478.8 159 476.2ZM159.7 462.7H144.6H129.5C129.2 464.2 129 465.6 128.9 466.5C128.9 467 128.8 467.3 128.8 467.6C128.8 467.7 128.8 467.8 128.8 467.9V468V468.1C128.8 468.5 128.9 470.6 129.4 473.5H144.6H159.7C160 471.9 160.2 470.5 160.2 469.6C160.2 469.1 160.3 468.8 160.3 468.5C160.3 468.4 160.3 468.3 160.3 468.2V468.1C160.3 468 160.3 465.8 159.7 462.7ZM155.5 451.4H144.6H133.7C132 454.4 130.8 457.3 130.1 459.8H144.6H159.1C158.4 457.2 157.2 454.3 155.5 451.4ZM144.6 440.8C140.7 443.1 137.8 445.8 135.6 448.7H144.6H153.6C151.3 445.8 148.5 443.1 144.6 440.8ZM153.6 429.7H144.6H135.6C137.8 432.6 140.7 435.4 144.6 437.6C148.5 435.4 151.3 432.6 153.6 429.7ZM159.6 416.5H144.6H129.6C130.2 419.5 131.5 423.2 133.7 427H144.6H155.4C157.7 423.2 158.9 419.5 159.6 416.5ZM46.9 453.3C46.9 456.2 44.9 458.4 42.3 458.4C40.2 458.4 38.4 456.8 37.9 454.7L37.8 454.3H37.4H23.1H22.7L22.6 454.7C22.3 457.1 21.5 459.3 20.2 461.2L20 461.5L20.3 461.8L30.4 472.9L30.7 473.2L31 473C32.8 472 35 472.1 36.5 473.7C38.3 475.6 38.3 478.9 36.5 480.9C35.6 481.9 34.5 482.4 33.3 482.4C32.1 482.4 31.1 482 30.1 480.9C28.6 479.3 28.3 476.7 29.4 474.8L29.6 474.5L29.4 474.2L19.3 463.1L19 462.7L18.6 463C17 464.4 15.1 465.3 12.8 465.7L12.4 465.8V466.2V481.9V482.3L12.7 482.4C14.6 483 16.1 484.9 16.1 487.3C16.1 490.2 14.1 492.4 11.5 492.4C9 492.4 6.9 490.2 6.9 487.3C6.9 484.9 8.4 483 10.3 482.4L10.7 482.3V481.9V466.2V465.8H10.3C4.5 465.1 0 459.8 0 453.3C0 446.3 5.2 440.7 11.4 440.7C17.2 440.7 22.1 445.5 22.6 451.9V452.4H23.1H37.4H37.8L37.9 452C38.4 449.9 40.2 448.3 42.3 448.3C44.8 448.2 46.9 450.4 46.9 453.3ZM30.4 477.4C30.4 478.2 30.7 479 31.2 479.6C32.3 480.8 34.3 480.8 35.4 479.6C35.9 479 36.2 478.2 36.2 477.4C36.2 476.6 35.9 475.8 35.4 475.2C34.3 474 32.3 474 31.2 475.2C30.7 475.8 30.4 476.6 30.4 477.4ZM11.4 484.2C9.7 484.2 8.5 485.6 8.5 487.3C8.5 489 9.7 490.4 11.4 490.4C13.1 490.4 14.3 489 14.3 487.3C14.3 485.6 13 484.2 11.4 484.2ZM21.3 453.3C21.3 447.5 17 442.7 11.6 442.7C6.1 442.7 1.7 447.5 1.7 453.3C1.7 459.1 6 463.9 11.4 463.9C16.9 463.9 21.3 459.1 21.3 453.3ZM45.3 453.3C45.3 451.6 44.1 450.2 42.4 450.2C40.8 450.2 39.5 451.6 39.5 453.3C39.3 455.1 40.8 456.4 42.4 456.4C44.1 456.4 45.3 455 45.3 453.3ZM100.3 559.6C100.3 576 88.1 589.4 73.3 589.4C58.4 589.4 46.3 576 46.3 559.6C46.3 546.5 54 535.1 65.2 531.1V516.7H59.9C59.2 516.7 58.6 516 58.6 515.2V507.8C58.6 507 59.2 506.3 59.9 506.3H69.7V490.3C66.7 490.1 59.7 489.2 55 483.9C49.1 477.4 49.2 466.7 49.2 466.2C49.2 466 49.2 466 49.2 465.9C49.2 465.7 49.2 465.7 49.2 465.6C49.3 465.3 49.6 464.9 49.9 464.8C50 464.8 50 464.8 50.2 464.8C50.3 464.8 50.3 464.8 50.5 464.8C50.9 464.8 60.6 464.6 66.5 471.2C72.4 477.7 72.3 488.4 72.3 488.9V506.2H74.8V494.1C74.8 493.8 74.7 486.9 78.7 482.5C82.7 478.2 89 478.2 89.3 478.2C89.4 478.2 89.4 478.2 89.6 478.2H89.7C90 478.4 90.3 478.7 90.4 479V479.2C90.4 479.4 90.4 479.4 90.4 479.5C90.4 479.8 90.5 486.7 86.5 491.1C83.7 494.2 79.5 495 77.3 495.2V506.2H86.7C87.4 506.2 88 506.9 88 507.7V515.4C88 516.2 87.4 516.9 86.7 516.9H81.4V531.3C92.5 535.1 100.3 546.5 100.3 559.6ZM87 483.9L79.6 492.1C81.2 491.8 83 491 84.5 489.3C86 487.6 86.6 485.7 87 483.9ZM77.8 490.1L85.2 481.9C83.6 482.4 81.6 483.2 80.3 484.7C78.9 486.3 78.3 488.3 77.8 490.1ZM67.4 487.3L52.1 470.5C52.4 473.8 53.6 478.7 56.7 482.1C59.8 485.5 64.3 486.8 67.4 487.3ZM69.2 485.2C68.8 481.9 67.6 477 64.4 473.6C61.3 470.2 56.8 468.9 53.7 468.4L69.2 485.2ZM77.1 514H79.9H85.2V509.4H77V514H77.1ZM72 514H74.5V509.4H72V514ZM72 548.8C72.9 549.1 73.6 549.3 74.5 549.6V516.7H72V548.8ZM66.4 514H69.5V509.4H61V514H66.4ZM53.1 544.1C56.4 543.8 61.9 544.1 69.4 547.7V516.8H67.6V532.2C67.6 532.9 67.2 533.5 66.6 533.7C61 535.2 56.4 539.2 53.1 544.1ZM96.2 550.8C94.4 551.5 88.6 553.4 81.6 553.4C80.1 553.4 78.6 553.2 77 553.1V561.9C77 562.7 76.4 563.4 75.7 563.4C75 563.4 74.4 562.7 74.4 561.9V552.6C73.5 552.4 72.8 552.3 71.9 551.9V566.6C71.9 567.4 71.3 568.1 70.6 568.1C69.9 568.1 69.3 567.4 69.3 566.6V550.7C69 550.5 68.7 550.5 68.6 550.4C58.8 545.5 52.8 547 51.2 547.5C49.9 551.3 48.8 555.4 48.8 559.6C48.8 574.5 59.8 586.4 73.2 586.4C86.7 586.4 97.7 574.3 97.7 559.6C97.6 556.5 97.1 553.6 96.2 550.8ZM95.2 548.2C92.2 541.2 86.7 535.8 79.7 533.6C79.1 533.4 78.7 532.8 78.7 532.1V516.7H77.2V550.1C85.2 551.3 93 549 95.2 548.2ZM447.2 406.8C448.7 408.5 449.9 410.5 450.5 412.7V422.6C449.8 424.8 448.7 426.9 447.2 428.5C444.7 431.3 441.1 433.1 437.2 433.1C433.3 433.1 429.7 431.3 427.2 428.5C427 428.3 426.9 428.1 426.7 427.9L401.1 448.4V490L427.1 510.9L425.2 513.2L399.3 492.4L366.2 513.5L332.9 492.3L307.4 512.8C308.6 515.1 309.3 517.8 309.3 520.6C309.3 524.8 307.8 528.7 305.2 531.5C303.6 533.3 301.5 534.7 299.3 535.4H291.1C288.8 534.6 286.8 533.3 285.2 531.5C283.7 529.8 282.5 527.8 281.9 525.6V515.7C282.6 513.5 283.7 511.4 285.2 509.8C287.7 507 291.3 505.2 295.2 505.2C299.1 505.2 302.7 507 305.2 509.8C305.4 510 305.5 510.2 305.7 510.4L331.3 489.9V447.4L364.9 426V389.7H367.9V426.3L399.2 446.2L425 425.5C423.8 423.2 423.1 420.5 423.1 417.7C423.1 413.5 424.6 409.6 427.2 406.8C429.7 404 433.3 402.2 437.2 402.2C441 402.2 444.6 404 447.2 406.8ZM306.2 520.7C306.2 517.2 304.9 514.1 302.9 511.8C300.9 509.6 298.1 508.2 295.1 508.2C292.1 508.2 289.3 509.5 287.3 511.8C285.3 514 284 517.2 284 520.7C284 524.2 285.3 527.3 287.3 529.6C289.3 531.8 292.1 533.2 295.1 533.2C298.1 533.2 300.9 531.9 302.9 529.6C304.9 527.3 306.2 524.2 306.2 520.7ZM366.1 510.1L398 489.8V449L366.1 428.7L334.2 449V489.8L366.1 510.1ZM448.2 417.7C448.2 414.2 446.9 411.1 444.9 408.8C442.9 406.6 440.1 405.2 437.1 405.2C434.1 405.2 431.3 406.5 429.3 408.8C427.3 411 426 414.2 426 417.7C426 421.2 427.3 424.3 429.3 426.6C431.3 428.8 434.1 430.2 437.1 430.2C440.1 430.2 442.9 428.9 444.9 426.6C447 424.3 448.2 421.2 448.2 417.7ZM405.1 489.6L432.5 511.5L434.4 509.2L407 487.3L405.1 489.6ZM392.4 451.3L393.1 451.7V486.5L365.6 504L338.1 486.5V451.7L365.6 434.2L392.4 451.3ZM390.1 453.4L365.6 437.8L341.1 453.4V484.9L365.6 500.5L390.1 484.9V453.4ZM98.3 49.2C97.9 43.4 98.8 37.8 100.5 32.6C100.5 32.5 100.5 32.5 100.5 32.4C100.5 32.3 100.6 32.2 100.6 32C101.2 30.3 101.8 28.7 102.6 27.2C102.6 27.2 102.6 27.2 102.6 27.1C102.6 27 102.7 26.9 102.7 26.7C110 12.2 124.8 1.80004 142.2 1.00004C167.6 -0.199964 189.3 19.6 190.3 45C191 61.7 182.9 76.6 170 85.3C169.9 85.5 169.6 85.7 169.4 85.7C167.7 86.8 166.1 87.7 164.3 88.7L164.2 88.8C158.8 91.4 152.7 92.9 146.3 93.3C145.6 93.3 144.9 93.3 144.3 93.3C120 93.3 99.4 73.9 98.3 49.2ZM167 75.7C167 75.2 167.1 74.9 167.5 74.5L177.4 67.5C177.8 67.3 178 66.9 178 66.4C178.1 66 178 65.6 177.8 65.2C177.6 64.8 177.2 64.6 176.7 64.6C176.3 64.5 175.9 64.6 175.5 64.8L165.6 71.8C165.2 72 164.8 72.2 164.4 71.9L152.2 66.2C151.4 65.8 150.4 66.2 150.1 66.9C150 67.3 149.9 67.7 150.1 68.1C150.2 68.5 150.6 68.8 150.9 68.9L163.2 74.8C163.6 75 163.9 75.4 163.9 75.9L164.7 85.6C165.8 85 166.7 84.5 167.7 83.8L167 75.7ZM103.4 32L104.5 32.2C105 32.3 105.2 32.7 105.3 33L108.7 46C108.8 46.4 109.1 46.7 109.4 46.9C109.8 47.1 110.2 47.1 110.6 47C111 46.9 111.3 46.6 111.5 46.3C111.7 46 111.7 45.5 111.6 45.1L108.2 32.1C108.1 31.6 108.2 31.3 108.6 30.9L117.2 22.3C117.6 21.9 117.7 21.6 117.7 21.2C117.7 20.7 117.6 20.4 117.2 20.1C116.6 19.5 115.5 19.5 115 20.1L106.4 28.7C106.2 28.8 105.7 28.9 105.3 28.9L104.7 28.8C104.3 30 103.9 31 103.4 32ZM100.7 48.9C101.8 73 122.1 91.8 146.3 90.8C152.1 90.6 157.5 89.1 162.5 86.9L161.6 77L150 71.6C149.1 71.1 148.2 70.3 147.9 69.4C147.5 68.3 147.5 67.3 148 66.3C148.9 64.3 151.3 63.3 153.3 64.3L164.9 69.6L174.2 63C175 62.4 176.2 62.2 177.3 62.3C178.4 62.5 179.3 63.1 179.9 64C180.5 64.8 180.7 66 180.6 67.1C180.4 68.2 179.8 69.1 178.9 69.7L169.6 76.3L170.2 82.4C181.5 74 188.6 60.3 187.9 45.2C187 21.7 167.6 3.40004 144.3 3.40004C143.7 3.40004 143 3.40004 142.4 3.40004C127 4.10004 113.9 12.6 106.7 25L113.3 18.4C114.8 16.9 117.4 16.9 119 18.4C119.7 19.1 120.2 20.2 120.2 21.2C120.2 22.3 119.7 23.3 119 24L110.8 32.2L114.1 44.5C114.3 45.6 114.2 46.6 113.7 47.6C113.1 48.5 112.3 49.3 111.2 49.5C110.8 49.6 110.5 49.6 110.1 49.6C109.4 49.6 108.7 49.4 108.1 49C107.2 48.4 106.4 47.6 106.2 46.5L102.9 34.2L102.4 34.1C101.2 38.8 100.5 43.9 100.7 48.9ZM146.9 36.6L157.9 30.2V18.8C157.9 16.6 159.7 14.8 161.9 14.8C164.1 14.8 165.9 16.6 165.9 18.8V30.3L176.9 36.7C177.8 37.3 178.6 38.1 178.8 39.2C179 40.3 178.9 41.3 178.4 42.3C177.3 44.2 174.9 44.9 172.8 43.8L161.7 37.4L150.7 43.8C150.1 44.2 149.4 44.4 148.7 44.4C148.3 44.4 148 44.4 147.6 44.3C146.7 43.8 145.7 43.1 145.2 42.3C144.3 40.3 144.9 37.8 146.9 36.6ZM147.5 40.9C147.7 41.3 148.1 41.5 148.4 41.6C148.8 41.7 149.2 41.6 149.6 41.5L161.3 34.8C161.7 34.6 162.1 34.6 162.5 34.8L174.2 41.5C174.9 42 175.9 41.6 176.3 40.9C176.5 40.5 176.5 40.1 176.4 39.7C176.3 39.3 176 39 175.7 38.8L164.1 32C163.7 31.8 163.5 31.4 163.5 30.9V18.8C163.5 18 162.8 17.3 162 17.3C161.2 17.3 160.5 18 160.5 18.8V31C160.5 31.5 160.3 31.8 159.9 32.1L148.2 38.8C147.3 39.2 147.1 40.2 147.5 40.9ZM144.3 35.6C144.5 35.6 144.7 35.6 144.9 35.5L155.5 29.5C156.1 29.1 156.3 28.4 156 27.8C155.7 27.2 154.9 27 154.3 27.3L143.7 33.3C143.1 33.7 142.9 34.4 143.2 35C143.5 35.3 143.9 35.6 144.3 35.6ZM165.4 64.9L154.4 59.7C153.7 59.5 153 59.7 152.9 60.3C152.7 60.9 152.9 61.7 153.5 62L164.5 67.2C164.6 67.3 164.9 67.3 165 67.3C165.4 67.3 165.8 67.1 166.1 66.6C166.2 66 166 65.1 165.4 64.9ZM117.6 46C117.7 46 117.8 46 118 46C118.6 45.8 118.9 45.2 118.8 44.3L115.6 32.5C115.4 31.9 114.8 31.4 114.1 31.7C113.5 31.9 113 32.5 113.3 33.2L116.5 45C116.6 45.6 117 46 117.6 46ZM168.2 29.4L178.8 35.4C178.9 35.5 179.2 35.5 179.4 35.5C179.9 35.5 180.2 35.3 180.5 34.9C180.9 34.3 180.6 33.6 180 33.2L169.4 27.2C168.8 26.8 168.1 27.1 167.7 27.7C167.4 28.4 167.6 29.1 168.2 29.4ZM111.8 53.7C112.9 51.8 115.3 51.1 117.4 52.2L128.5 58.6L139.5 52.2C140.4 51.6 141.5 51.5 142.6 51.8C143.7 52 144.5 52.7 145.1 53.7C145.7 54.6 145.8 55.7 145.5 56.8C145.3 57.9 144.6 58.7 143.6 59.3L132.6 65.7V77.2C132.6 79.4 130.8 81.2 128.6 81.2C126.4 81.2 124.6 79.4 124.6 77.2V65.6L113.5 59.2C111.5 58.2 110.8 55.7 111.8 53.7ZM114 56.1C114.1 56.5 114.4 56.8 114.7 57L126.4 63.7C126.8 63.9 127 64.3 127 64.8V77C127 77.8 127.7 78.5 128.5 78.5C129.3 78.5 130 77.8 130 77V64.9C130 64.4 130.2 64.1 130.6 63.8L142.3 57.1C142.7 56.9 142.9 56.5 143 56.2C143.1 55.8 143 55.4 142.9 55C142.7 54.6 142.3 54.4 142 54.3C141.9 54.3 141.8 54.3 141.6 54.3C141.4 54.3 141 54.4 140.8 54.5L129.1 61.2C128.7 61.4 128.3 61.4 127.9 61.2L116.2 54.5C115.5 54 114.4 54.4 114.1 55.1C113.8 55.3 113.8 55.7 114 56.1ZM145.5 60.4L134.9 66.4C134.3 66.8 134.1 67.5 134.4 68.1C134.6 68.5 135 68.7 135.5 68.7C135.7 68.7 135.9 68.7 136.1 68.6L146.7 62.6C147.3 62.2 147.5 61.5 147.2 60.9C146.8 60.3 146.1 60 145.5 60.4ZM110.4 62.5L121 68.5C121.1 68.6 121.4 68.6 121.6 68.6C122.1 68.6 122.4 68.4 122.7 68C123.1 67.4 122.8 66.7 122.2 66.3L111.6 60.3C111 59.9 110.2 60.2 109.9 60.8C109.6 61.5 109.8 62.2 110.4 62.5Z" fill="white" fill-opacity="0.3"/>
</svg>
