<svg width="469" height="554" viewBox="0 0 469 554" fill="none" xmlns="http://www.w3.org/2000/svg">
<path d="M445.9 223.9C445.9 234.3 437.4 242.9 427 243C427.2 243.4 427.3 243.8 427.1 244.3C423.9 267.5 414.7 289.5 400.7 308.2C400.6 308.2 400.4 308.2 400.2 308.3C402.1 310.3 403.2 313 403.2 315.8C403.2 321.8 398.1 326.9 392.1 326.9C389.6 326.9 387.2 326 385.3 324.5C364.1 345.6 336.1 358.9 306.2 362.7C306.1 372.5 297.9 380.7 288.1 380.7C278 380.7 270.1 372.5 270 362.8C240.3 359.2 212.1 345.6 190.2 324.8C188.4 326.1 186.1 326.9 183.7 326.9C177.7 326.9 172.6 321.8 172.6 315.8C172.6 312.9 173.8 310.3 175.6 308.3C175.4 308.2 175.3 308 175.1 307.9C161.1 289.1 151.9 267.2 148.7 244C148.7 243.6 148.8 243.3 148.9 243H148.7C138.2 243 129.6 234.4 129.6 223.9C129.6 213.4 138.2 204.8 148.7 204.8H148.9C148.8 204.5 148.7 204.2 148.7 203.8C151.3 186 157.3 169.1 166.2 153.7C166.2 153.5 166.3 153.4 166.5 153.2C169.7 147.8 173.2 142.6 177 137.6L177.2 137.4C175.7 135.5 174.8 133.1 174.8 130.6C174.8 124.6 179.9 119.5 185.9 119.5C188.1 119.5 190.2 120.2 191.9 121.3C192 121.1 192.1 120.9 192.3 120.8C213.5 101.5 239.8 89.1 268.1 85.2C268.1 75.3 276.4 67.1 286.2 67.1C296.1 67.1 304.3 75.4 304.3 85.2C304.3 86.7 304.1 88.1 303.8 89.5C304.1 89.2 304.6 88.9 305.1 88.9C305.3 88.9 305.6 88.9 305.9 89C318.3 95 329.3 107.2 338 123.7C347.1 120.1 355.9 115.5 364.1 110C346.9 98.6 327.3 91.1 306.5 88.3C305.5 88.3 304.9 87.3 305.2 86.4C305.2 85.6 305.8 85 306.6 85C306.8 85 306.9 85 307.1 85.1C335.7 88.9 361.8 101.3 383.2 120.7C383.4 120.9 383.5 121 383.6 121.2C385.3 120.1 387.4 119.4 389.6 119.4C395.6 119.4 400.7 124.5 400.7 130.5C400.7 133.1 399.8 135.5 398.3 137.4C398.5 137.5 398.6 137.6 398.8 137.8C402.6 142.6 406 147.6 409.1 152.9L409.3 153.1C409.5 153.3 409.6 153.6 409.6 153.8C418.5 169.2 424.5 186.2 427.1 203.9C427.1 204.1 427 204.3 426.9 204.5C437.4 204.9 445.9 213.5 445.9 223.9ZM407.4 156.6C394.5 165 376.5 171.8 355.5 176.5C357.6 187.8 359 199.8 359.6 212.2C359.5 212.6 359.4 212.9 359.2 213.2C364.2 213.8 368.3 217.7 369 222.7H406.4C407 222.7 407.4 222.9 407.7 223.3C408 214 415.1 206.4 424.1 205.1C424 204.9 423.9 204.8 423.9 204.6C421.4 187.6 415.8 171.4 407.4 156.6ZM305 356.4C315.3 351 324.7 340.8 332.5 327.1C318.8 322.6 304.3 320.3 289.6 320.3C289.2 320.3 288.9 320.2 288.6 320V343.5C288.6 343.9 288.5 344.2 288.3 344.5C295.9 344.7 302.5 349.6 305 356.4ZM285.9 344.6C285.7 344.3 285.5 344 285.5 343.5V320.3C270.8 320.3 256.3 322.8 242.6 327.3C250.6 341.3 260.2 351.7 270.9 357C273 350.5 278.9 345.5 285.9 344.6ZM269.8 93.1C258.9 99.1 249.1 110.2 241.1 125C255.2 130.1 270.2 133 285.5 133.2V104.6C285.5 104.1 285.7 103.6 286.1 103.3C278.8 103.4 272.7 99.1 269.8 93.1ZM356.3 213.3C356.2 213.1 356.1 212.8 356.1 212.5C355.6 200.2 354.2 188.4 352.2 177.2C335.7 180.6 317.5 182.7 298.5 183.3C298.4 183.3 298.2 183.3 298.1 183.3C297.5 188.3 293.5 192.3 288.6 193.1V222.8H347C347.8 217.9 351.6 214.1 356.3 213.3ZM295.4 264.3C295.4 259.8 291.9 256.3 287.4 256.3C282.9 256.3 279.4 259.8 279.4 264.3C279.4 268.8 282.9 272.3 287.4 272.3C291.9 272.3 295.4 268.8 295.4 264.3ZM279.1 181.6C279.1 186.1 282.6 189.6 287.1 189.6C291.6 189.6 295.1 186.1 295.1 181.6C295.1 177.5 291.6 173.6 287.1 173.6C282.6 173.6 279.1 177.2 279.1 181.6ZM351.6 174.1C348.1 156.7 343 141 336.4 127.9C321.2 133.5 305.1 136.4 288.7 136.5V171C293.4 171.7 297.3 175.5 298.1 180.2C298.2 180.2 298.4 180.1 298.6 180.1C317.4 179.5 335.4 177.4 351.6 174.1ZM239.6 128C233 141.1 227.7 156.7 224.2 174.1C240.1 177.4 257.7 179.4 276.1 180C277 175.4 280.8 171.6 285.5 170.9V136.4C269.7 136.2 254.2 133.3 239.6 128ZM223.6 177.2C221.5 188.5 220.1 200.4 219.6 212.8C219.5 213 219.4 213.1 219.3 213.3C224 214.1 227.7 218 228.4 222.7H285.5V193C280.6 192.3 276.6 188.2 276 183.2C257.5 182.6 239.7 180.6 223.6 177.2ZM209.4 223.9C209.4 228.4 212.9 231.9 217.4 231.9C221.9 231.9 225.4 228.4 225.4 223.9C225.4 219.8 221.9 215.9 217.4 215.9C212.9 215.9 209.4 219.5 209.4 223.9ZM219.3 235.2V235.4C219.7 247 220.9 258.2 222.8 268.9C239.2 265.4 257.4 263.3 276.4 262.7C277.1 258 280.9 254.2 285.5 253.3V225.8H228.4C227.7 230.6 224.1 234.4 219.3 235.2ZM223.4 272C227.2 292 233.3 310 241 324.5C255.2 319.7 270.2 317.2 285.5 317.1V275.3C280.8 274.5 277.1 270.6 276.4 265.9C257.6 266.5 239.6 268.6 223.4 272ZM334 324.4C341.8 309.9 347.9 292 351.7 272C335.4 268.6 317.4 266.5 298.5 266H298.4C297.7 270.9 293.8 274.9 288.6 275.5V317.5C288.9 317.3 289.2 317.2 289.6 317.2C304.9 317.2 319.8 319.6 334 324.4ZM352.3 268.9C354.2 258.1 355.4 246.8 355.8 235.2C351.3 234.2 347.7 230.5 347 225.9H288.6V253.3C293.6 253.9 297.6 257.9 298.3 262.8H298.4C317.6 263.3 335.8 265.4 352.3 268.9ZM366 223.9C366 219.8 362.5 215.9 358 215.9C353.5 215.9 350 219.4 350 223.9C350 228.4 353.5 231.9 358 231.9C362.5 231.9 366 228.4 366 223.9ZM381.6 130.7C381.6 135.2 385.1 138.7 389.6 138.7C394.1 138.7 397.6 135.2 397.6 130.7C397.6 126.2 394.1 122.7 389.6 122.7C385.1 122.7 381.6 126.3 381.6 130.7ZM339.5 126.7C346.1 140 351.4 155.8 354.9 173.4C375.5 168.8 393.1 162.2 405.8 153.9C402.9 149.1 399.7 144.4 396.3 140L396.2 139.8C394.4 141.1 392.1 141.9 389.7 141.9C383.7 141.9 378.6 136.8 378.6 130.8C378.6 128.1 379.6 125.6 381.3 123.6L381.1 123.5C376.6 119.4 371.9 115.6 367 112.1C358.3 118 349.1 122.9 339.5 126.7ZM303.4 90.8C301.2 97.5 295.3 102.6 288 103.3C288.4 103.6 288.7 104 288.7 104.7V133.3C304.6 133.2 320.2 130.4 334.9 125C326.5 109.3 316.1 97.7 304.3 92C303.9 91.7 303.5 91.3 303.4 90.8ZM271.2 84.9C271.2 86.7 271.5 88.3 272.1 89.9L272.2 90C272.3 90.2 272.3 90.3 272.3 90.5C274.5 96 279.9 99.9 286.2 99.9C294.5 99.9 301.2 93.2 301.2 84.9C301.2 76.9 294.5 69.9 286.2 69.9C277.9 69.9 271.2 76.7 271.2 84.9ZM211.6 110.1C219.9 115.6 228.7 120.3 237.8 123.9C246.3 108.1 256.8 96.3 268.6 90.1C268.5 89.6 268.4 89.1 268.3 88.6C247.8 91.4 228.6 98.8 211.6 110.1ZM177.9 130.7C177.9 135.2 181.4 138.7 185.9 138.7C190.4 138.7 193.9 135.2 193.9 130.7C193.9 126.2 190.4 122.7 185.9 122.7C181.4 122.7 177.9 126.3 177.9 130.7ZM169.8 153.8C182.3 162.1 200 168.8 220.8 173.4C224.3 155.9 229.6 140 236.3 126.7C226.7 122.9 217.4 118 208.7 112C203.7 115.5 199 119.3 194.4 123.4L194.2 123.5C195.9 125.5 196.9 128 196.9 130.7C196.9 136.7 191.8 141.8 185.8 141.8C183.4 141.8 181.2 141 179.3 139.7C175.9 144.2 172.7 148.9 169.8 153.8ZM151.4 205.1C160.4 206.4 167.4 214 167.7 223.3C168 222.9 168.4 222.7 169 222.7H206.4C207.1 217.8 211.3 213.8 216.3 213.2C216.2 213 216.2 212.8 216.2 212.5C216.7 200 218.1 187.9 220.3 176.5C199.3 171.8 181.3 165 168.4 156.5C160.1 171.2 154.5 187.4 152 204.2C151.7 204.5 151.6 204.8 151.4 205.1ZM164.6 224.3C164.6 215.4 157.6 208.4 148.7 208.4C140.1 208.4 132.8 215.4 132.8 224.3C132.8 232.9 139.8 240.2 148.7 240.2C157.2 240.2 164.6 233.2 164.6 224.3ZM151.8 243.4C154.1 259.8 159.4 275.6 167.4 290.1C180.2 281.5 198.4 274.5 219.6 269.7C217.7 258.8 216.5 247.3 216.1 235.5V235.4C211.2 234.8 207.1 230.8 206.4 225.9H169C168.4 225.9 168 225.7 167.7 225.3C167.1 234.3 160.2 241.6 151.5 242.9C151.6 243 151.7 243.2 151.8 243.4ZM183.6 323.8C185.6 323.8 187.3 323.1 188.7 322C188.8 321.9 188.9 321.7 189 321.6C189.1 321.5 189.3 321.3 189.5 321.3C190.8 319.9 191.6 318 191.6 315.9C191.6 311.4 187.8 307.9 183.6 307.9C179.1 307.9 175.6 311.4 175.6 315.9C175.7 320.3 179.2 323.8 183.6 323.8ZM194.8 315.9C194.8 318.4 193.9 320.8 192.4 322.7C198.6 328.6 205.3 333.9 212.5 338.5C212.6 338.1 212.8 337.8 213.3 337.5C221.2 332.7 229.4 328.7 237.9 325.6C230 310.9 224 292.9 220.2 272.7C199.2 277.4 181.5 284.3 169 292.8C171.6 297.3 174.5 301.6 177.6 305.7C177.8 305.9 177.9 306.1 177.9 306.4C179.6 305.4 181.5 304.8 183.6 304.8C189.7 304.7 194.8 309.8 194.8 315.9ZM268.7 359.5C257.5 353.6 247.6 342.8 239.4 328.4C230.9 331.5 222.6 335.3 214.8 340C231.2 350.2 249.5 357 268.7 359.5ZM303 362.6C303 354.3 296.3 347.6 288 347.6C279.7 347.6 273 354.3 273 362.6C273 370.9 279.7 377.6 288 377.6C296.3 377.6 303 370.9 303 362.6ZM304.8 363C304.8 363 304.7 363 304.6 363C304.8 363 304.8 363 304.8 363ZM360.4 339.9C352.5 335.1 344.2 331.2 335.6 328.1C327.3 342.6 317.1 353.4 305.8 359.1C305.8 359.2 305.9 359.4 305.9 359.5C325.3 357.1 343.9 350.3 360.4 339.9ZM400.1 315.9C400.1 311.4 396.3 307.9 392.1 307.9C387.6 307.9 384.1 311.4 384.1 315.9C384.1 320.4 387.6 323.9 392.1 323.9C396.6 323.8 400.1 320.3 400.1 315.9ZM406.8 293C394.3 284.3 376.2 277.4 354.9 272.6C351.1 292.8 345 310.9 337.1 325.4C345.8 328.5 354.2 332.6 362.2 337.4C362.5 337.5 362.7 337.9 362.8 338.3C370 333.6 376.8 328.2 383.1 322.2C381.8 320.4 381 318.1 381 315.8C381 309.8 386.1 304.7 392.1 304.7C394.2 304.7 396.2 305.3 397.9 306.4C398 306.3 398 306.1 398.2 306C401.3 301.8 404.2 297.5 406.8 293ZM424.2 242.9C415.3 241.7 408.3 234.2 407.7 225.1C407.4 225.5 407 225.9 406.4 225.9H369C368.2 230.9 364 235 358.9 235.4C358.5 247.3 357.2 258.7 355.4 269.6C377 274.4 395.3 281.5 408.3 290.3C416.3 275.9 421.6 260.1 423.9 243.8C424 243.4 424.1 243.1 424.2 242.9ZM442.7 224.3C442.7 215.4 435.4 208.4 426.8 208.4C418.2 208.4 410.9 215.4 410.9 224.3C410.9 232.9 417.9 240.2 426.8 240.2C435.4 240.2 442.7 233.2 442.7 224.3ZM0 136.5V8C0 3.5 3.5 0 8 0H136.6C141.1 0 144.6 3.5 144.6 8V136.5C144.6 141 141.1 144.5 136.6 144.5H8C3.5 144.4 0 140.9 0 136.5ZM3.2 136.5C3.2 139 5.4 141.3 8 141.3H136.6C139.1 141.3 141.4 139.1 141.4 136.5V8C141.4 5.5 139.2 3.2 136.6 3.2H8C5.4 3.2 3.2 5.4 3.2 8V136.5ZM24.8 111.7V32.8C24.8 28.3 28.3 24.8 32.8 24.8H111.4C115.9 24.8 119.4 28.3 119.4 32.8V111.4C119.7 115.9 115.9 119.7 111.8 119.7H32.8C28.3 119.6 24.8 116.1 24.8 111.7ZM28 111.3C28 113.8 30.2 116.1 32.8 116.1H111.4C113.9 116.1 116.2 113.9 116.2 111.3V32.8C116.2 30.3 114 28 111.4 28H32.8C30.3 28 28 30.2 28 32.8V111.3ZM36 91.6V38.5C36 36.3 37.9 34.4 40.1 34.4H103.1C105.3 34.4 107.2 36.3 107.2 38.5V91.9C107.2 94.1 105.3 96 103.1 96H90.7C90.4 96 89.7 96.3 89.7 97V105.9C90.7 107.8 88.7 109.7 86.5 109.7H57.5C55.3 109.7 53.4 107.8 53.4 105.6V96.7C53.4 96.4 53.1 95.7 52.4 95.7H40.1C37.9 95.8 36 93.8 36 91.6ZM39.8 92.3C39.8 92.6 40.1 93.3 40.8 93.3H53.2C55.4 93.3 57.3 95.2 57.3 97.4V106.3C57.3 106.6 57.6 107.3 58.3 107.3H87.3C87.6 107.3 88.3 107 88.3 106.3V97.4C88.3 95.2 90.2 93.3 92.4 93.3H104.8C105.1 93.3 105.8 93 105.8 92.3V38.5C105.8 38.2 105.5 37.5 104.8 37.5H101.3V47C101.3 48 100.7 48.6 99.7 48.6C98.7 48.6 98 48 98 47.1V37.6H87.8V47.1C87.8 48.1 86.8 48.7 86.2 48.7C85.2 48.7 84.6 48.1 84.6 47.1V37.6H74.2V47.1C74.2 48.1 73.6 48.7 72.6 48.7C71.6 48.7 71 48.1 71 47.1V37.6H60.5V47.1C60.5 48.1 59.9 48.7 58.9 48.7C57.9 48.7 57.3 48.1 57.3 47.1V37.6H46.8V47.1C46.8 48.1 46.2 48.7 45.2 48.7C44.2 48.7 43.6 48.1 43.6 47.1V37.6H40.7V37.9C40.4 37.9 39.7 38.2 39.7 38.9V92.3H39.8ZM125.7 12.7C125.7 9.2 128.6 6.3 132.1 6.3C135.6 6.3 138.5 9.2 138.5 12.7C138.5 16.2 135.6 19.1 132.1 19.1C128.6 19.1 125.7 16.2 125.7 12.7ZM128.9 12.7C128.9 14.6 130.5 15.9 132.1 15.9C134 15.9 135.3 14.3 135.3 12.7C135.3 10.8 134 9.5 132.1 9.5C130.2 9.5 128.9 11.1 128.9 12.7ZM8.3 12.7C8.3 9.2 11.2 6.3 14.7 6.3C18.2 6.3 21.1 9.2 21.1 12.7C21.4 16.2 18.6 19.1 14.7 19.1C11.1 19.1 8.3 16.2 8.3 12.7ZM11.5 12.7C11.5 14.6 13.1 15.9 14.7 15.9C16.6 15.9 17.9 14.3 17.9 12.7C18.2 10.8 16.6 9.5 14.7 9.5C12.7 9.5 11.5 11.1 11.5 12.7ZM124.4 133.3C124.4 129.8 127.3 126.9 130.8 126.9C134.3 126.9 137.2 129.8 137.2 133.3C137.5 136.8 134.3 139.7 130.8 139.7C127.3 139.7 124.4 136.8 124.4 133.3ZM127.6 133C127.6 134.9 129.2 136.2 130.8 136.2C132.4 136.2 134 134.6 134 133C134.3 131.4 132.7 129.8 130.8 129.8C128.9 129.8 127.6 131.4 127.6 133ZM7.3 133.3C7.3 129.8 10.2 126.9 13.7 126.9C17.2 126.9 20.1 129.8 20.1 133.3C20.1 136.8 17.2 139.7 13.7 139.7C10.2 139.6 7.3 136.8 7.3 133.3ZM10.5 133C10.5 134.9 12.1 136.2 13.7 136.2C15.6 136.2 16.9 134.6 16.9 133C16.9 131.4 15.3 129.8 13.7 129.8C11.8 129.8 10.5 131.4 10.5 133ZM182.4 405.3C175.5 405.3 170.1 400 169.4 393.5H128.9C128.6 400.5 122.7 405.9 115.9 405.9C108.8 405.9 103.2 400.2 102.9 393.5H62C61.4 400.2 55.9 405.3 49 405.3C41.7 405.3 36 399.3 36 392.3C36 385 42 379.3 48.9 379.3L69.1 355.4L69.2 355.3C68.2 353.8 67.5 351.9 67.5 350C67.5 344.9 72 340.5 77 340.5C78.4 340.5 79.7 340.8 80.9 341.3L100.7 317.9C96.9 314 94.5 308.8 94.5 302.9C94.5 291.1 104 281.6 115.8 281.6C127.6 281.6 137.1 291.1 137.1 302.9C137.1 308.4 135 313.5 131.6 317.2L151.7 341.1C153.1 340.2 154.8 339.7 156.6 339.7C162 339.7 166.1 344.2 166.1 349.2C166.1 351.8 165.2 354.1 163.6 355.8L183.1 379.2C190.1 379.6 195.4 385.5 195.4 392.2C195.7 399.5 189.7 405.3 182.4 405.3ZM161.1 357.8C159.8 358.5 158.3 358.9 156.6 358.9C154.6 358.9 152.8 358.3 151.2 357.3L151.1 357.4L124.6 383.6C126.6 385.4 128 387.8 128.5 390.5H169.3C170.1 385.2 174.1 381 179.1 379.7L161.1 357.8ZM156.6 342.9C153.1 342.9 150.2 345.8 150.2 349.3C150.2 352.8 153.1 355.7 156.6 355.7C158 355.7 159.4 355.2 160.5 354.4L160.6 354.3C162 353.1 163 351.3 163 349.4C163 345.8 160.1 342.9 156.6 342.9ZM129.3 319.4C126 322.1 121.9 323.8 117.4 324.1V379.9C119.1 380.1 120.6 380.7 122.1 381.5L149 355C147.8 353.4 147.1 351.4 147.1 349.3C147.1 346.9 148 344.8 149.3 343.2L129.3 319.4ZM115.9 320.7C126.1 320.7 134 312.4 134 302.6C134 292.7 125.7 284.5 115.9 284.5C105.7 284.5 97.8 292.8 97.8 302.6C97.7 312.7 106 320.7 115.9 320.7ZM83.6 343C85.5 344.8 86.6 347.3 86.6 349.9C86.6 351.9 85.9 353.9 84.8 355.5L109.4 381.6C110.9 380.7 112.5 380.2 114.3 379.9V324.1C110.1 323.8 106.3 322.3 103.1 319.9L83.6 343ZM70.7 349.9C70.7 353.4 73.6 356.3 77.1 356.3C80.6 356.3 83.5 353.4 83.5 349.9C83.5 346.4 80.6 343.5 77.1 343.5C73.6 343.5 70.7 346.4 70.7 349.9ZM52.6 379.7C57.5 381.1 61.1 385.3 61.9 390.3H103C103.5 387.6 104.9 385.3 106.8 383.5L82.5 357.7C81 358.8 79.1 359.5 77 359.5C74.8 359.5 72.9 358.8 71.3 357.6L52.6 379.7ZM58.9 392.2C58.9 386.8 54.4 382.3 49 382.3C43.6 382.3 39.1 386.8 39.1 392.2C39.1 397.6 43.6 402.1 49 402.1C54.4 402.1 58.9 397.6 58.9 392.2ZM125.7 392.5C125.7 389.4 124.3 386.7 122 384.8C121.7 384.8 121.4 384.7 121.2 384.5C121.1 384.4 120.9 384.2 120.9 384C119.4 383.1 117.7 382.6 115.9 382.6H115.8C110.4 382.6 106 387.1 106 392.5C106 397.9 110.5 402.4 115.9 402.4C121.3 402.4 125.7 398 125.7 392.5ZM192.2 392.2C192.5 386.8 188.1 382.3 182.3 382.3C176.9 382.3 172.4 386.8 172.4 392.2C172.4 397.6 176.9 402.1 182.3 402.1C187.8 402.1 192.2 397.6 192.2 392.2ZM268 435.5C268 434.5 267.4 433.9 266.4 433.9H250.5C249.5 433.9 248.9 434.5 248.9 435.5C248.9 436.5 249.5 437.1 250.5 437.1H266.4C267.4 437.1 268 436.4 268 435.5ZM140.7 435.5C140.7 434.5 140.1 433.9 139.1 433.9H123.2C122.2 433.9 121.6 434.5 121.6 435.5C121.6 436.5 122.2 437.1 123.2 437.1H139.1C140 437.1 140.7 436.4 140.7 435.5ZM236.2 435.5C236.2 434.5 235.6 433.9 234.6 433.9H218.7C217.7 433.9 217.1 434.5 217.1 435.5C217.1 436.5 217.7 437.1 218.7 437.1H234.6C235.5 437.1 236.2 436.4 236.2 435.5ZM286.8 409.7C287.8 409.7 288.4 409.1 288.4 408.1V392.2C288.4 391.2 287.8 390.6 286.8 390.6C285.8 390.6 285.2 391.2 285.2 392.2V408.1C285.2 409.1 285.8 409.7 286.8 409.7ZM204.3 435.5C204.3 434.5 203.7 433.9 202.7 433.9H186.8C185.8 433.9 185.2 434.5 185.2 435.5C185.2 436.5 185.8 437.1 186.8 437.1H202.7C203.7 437.1 204.3 436.4 204.3 435.5ZM114.3 430.1V414.2C114.3 413.2 113.7 412.6 112.7 412.6C111.7 412.6 111.1 413.2 111.1 414.2V430.1C111.1 431.1 111.7 431.7 112.7 431.7C113.3 431.7 114.3 431 114.3 430.1ZM172.5 435.5C172.5 434.5 171.9 433.9 170.9 433.9H155C154 433.9 153.4 434.5 153.4 435.5C153.4 436.5 154 437.1 155 437.1H170.9C171.9 437.1 172.5 436.4 172.5 435.5ZM288.4 435.5V424C288.4 423 287.8 422.4 286.8 422.4C285.8 422.4 285.2 423 285.2 424V433.9H282.3C281.3 433.9 280.7 434.5 280.7 435.5C280.7 436.5 281.3 437.1 282.3 437.1H286.8C287.7 437.1 288.4 436.4 288.4 435.5ZM288 61.4C288.6 61.4 289.6 60.8 289.6 59.8V44.8C289.6 43.8 289 43.2 288 43.2H287C286 43.2 285.4 43.8 285.4 44.8C285.4 45.4 285.7 45.8 286.4 46.1V59.8C286.5 60.8 287.1 61.4 288 61.4ZM159.8 42.9C158.8 42.9 158.2 43.5 158.2 44.5C158.2 45.5 158.8 46.1 159.8 46.1H175.7C176.7 46.1 177.3 45.5 177.3 44.5C177.3 43.5 176.7 42.9 175.7 42.9H159.8ZM255.3 42.9C254.3 42.9 253.7 43.5 253.7 44.5C253.7 45.5 254.3 46.1 255.3 46.1H271.2C272.2 46.1 272.8 45.5 272.8 44.5C272.8 43.5 272.2 42.9 271.2 42.9H255.3ZM191.6 42.9C190.6 42.9 190 43.5 190 44.5C190 45.5 190.6 46.1 191.6 46.1H207.5C208.5 46.1 209.1 45.5 209.1 44.5C209.1 43.5 208.5 42.9 207.5 42.9H191.6ZM223.4 42.9C222.4 42.9 221.8 43.5 221.8 44.5C221.8 45.5 222.4 46.1 223.4 46.1H239.3C240.3 46.1 240.9 45.5 240.9 44.5C240.9 43.5 240.3 42.9 239.3 42.9H223.4ZM367.5 479.3V607.8C367.5 612.3 364 615.8 359.5 615.8H230.9C226.4 615.8 222.9 612.3 222.9 607.8V479.3C222.9 474.8 226.4 471.3 230.9 471.3H359.5C364 471.3 367.5 474.8 367.5 479.3ZM364.3 479.3C364.3 476.8 362.1 474.5 359.5 474.5H230.9C228.4 474.5 226.1 476.7 226.1 479.3V607.8C226.1 610.3 228.3 612.6 230.9 612.6H359.5C362 612.6 364.3 610.4 364.3 607.8V479.3ZM342.3 582.6C342.6 587.1 338.8 590.9 334.7 590.9H255.8C251.3 590.9 247.8 587.4 247.8 582.9V504C247.8 499.5 251.3 496 255.8 496H334.4C338.9 496 342.4 499.5 342.4 504V582.6H342.3ZM339.1 504.1C339.1 501.6 336.9 499.3 334.3 499.3H255.7C253.2 499.3 250.9 501.5 250.9 504.1V582.7C250.9 585.2 253.1 587.5 255.7 587.5H334.3C336.8 587.5 339.1 585.3 339.1 582.7V504.1ZM330.2 509.8V563.2C330.2 565.4 328.3 567.3 326.1 567.3H313.7C313.4 567.3 312.7 567.6 312.7 568.3V577.2C313.7 579.1 311.7 581 309.5 581H280.5C278.3 581 276.4 579.1 276.4 576.9V568C276.4 567.7 276.1 567 275.4 567H263C260.8 567 258.9 565.1 258.9 562.9V509.8C258.9 507.6 260.8 505.7 263 505.7H326C328.3 505.7 330.2 507.6 330.2 509.8ZM328.6 509.8C328.6 509.5 328.3 508.8 327.6 508.8H324.1V518.3C324.1 519.3 323.5 519.9 322.5 519.9C321.5 519.9 320.9 519.3 320.9 518.3V508.8H310.7V518.3C310.7 519.3 309.7 519.9 309.1 519.9C308.1 519.9 307.5 519.3 307.5 518.3V508.8H297V518.3C297 519.3 296.4 519.9 295.4 519.9C294.4 519.9 293.8 519.3 293.8 518.3V508.8H283.3V518.3C283.3 519.3 282.7 519.9 281.7 519.9C280.7 519.9 280.1 519.3 280.1 518.3V508.8H269.6V518.3C269.6 519.3 269 519.9 268 519.9C267 519.9 266.4 519.3 266.4 518.3V508.8H263.5V509.1C263.2 509.1 262.5 509.4 262.5 510.1V563.5C262.5 563.8 262.8 564.5 263.5 564.5H275.9C278.1 564.5 280 566.4 280 568.6V577.5C280 577.8 280.3 578.5 281 578.5H310C310.3 578.5 311 578.2 311 577.5V568.6C311 566.4 312.9 564.5 315.1 564.5H327.5C327.8 564.5 328.5 564.2 328.5 563.5V509.8H328.6ZM361.4 484C361.4 487.5 358.5 490.4 355 490.4C351.5 490.4 348.6 487.5 348.6 484C348.6 480.5 351.5 477.6 355 477.6C358.5 477.6 361.4 480.5 361.4 484ZM358.2 484C358.2 482.1 356.9 480.8 355 480.8C353.1 480.8 351.8 482.4 351.8 484C351.8 485.9 353.4 487.2 355 487.2C357 487.2 358.2 485.6 358.2 484ZM244 484C244.3 487.5 241.5 490.4 237.6 490.4C234.1 490.4 231.2 487.5 231.2 484C231.2 480.5 234.1 477.6 237.6 477.6C241.1 477.6 244 480.5 244 484ZM237.6 480.8C235.7 480.8 234.4 482.4 234.4 484C234.4 485.9 236 487.2 237.6 487.2C239.5 487.2 240.8 485.6 240.8 484C241.1 482.1 239.5 480.8 237.6 480.8ZM360.1 604.6C360.4 608.1 357.2 611 353.7 611C350.2 611 347.3 608.1 347.3 604.6C347.3 601.1 350.2 598.2 353.7 598.2C357.2 598.2 360.1 601.1 360.1 604.6ZM353.8 601.1C351.9 601.1 350.6 602.7 350.6 604.3C350.6 606.2 352.2 607.5 353.8 607.5C355.4 607.5 357 605.9 357 604.3C357.3 602.7 355.7 601.1 353.8 601.1ZM243 604.6C243 608.1 240.1 611 236.6 611C233.1 611 230.2 608.1 230.2 604.6C230.2 601.1 233.1 598.2 236.6 598.2C240.1 598.2 243 601.1 243 604.6ZM239.8 604.3C239.8 602.7 238.2 601.1 236.6 601.1C234.7 601.1 233.4 602.7 233.4 604.3C233.4 606.2 235 607.5 236.6 607.5C238.6 607.5 239.8 605.9 239.8 604.3ZM494.1 514.2H478.2C477.2 514.2 476.6 514.8 476.6 515.8C476.6 516.8 477.2 517.4 478.2 517.4H494.1C495.1 517.4 495.7 516.8 495.7 515.8C495.7 514.9 495.1 514.2 494.1 514.2ZM511 514.6H510C509 514.6 508.4 515.2 508.4 516.2C508.4 516.8 508.7 517.2 509.4 517.5V531.2C509.4 532.2 510 532.8 511 532.8C511.6 532.8 512.6 532.2 512.6 531.2V516.2C512.6 515.2 512 514.6 511 514.6ZM462.3 514.2H446.4C445.4 514.2 444.8 514.8 444.8 515.8C444.8 516.8 445.4 517.4 446.4 517.4H462.3C463.3 517.4 463.9 516.8 463.9 515.8C463.9 514.9 463.3 514.2 462.3 514.2ZM398.6 514.2H382.7C381.7 514.2 381.1 514.8 381.1 515.8C381.1 516.8 381.7 517.4 382.7 517.4H398.6C399.6 517.4 400.2 516.8 400.2 515.8C400.2 514.9 399.6 514.2 398.6 514.2ZM430.5 514.2H414.6C413.6 514.2 413 514.8 413 515.8C413 516.8 413.6 517.4 414.6 517.4H430.5C431.5 517.4 432.1 516.8 432.1 515.8C432.1 514.9 431.4 514.2 430.5 514.2Z" fill="white" fill-opacity="0.3"/>
</svg>
