<svg width="534" height="600" viewBox="0 0 534 600" fill="none" xmlns="http://www.w3.org/2000/svg">
<path d="M373.1 394.768H377.9V399.644H375.5H373V394.768H373.1ZM377.9 356.065H373.1V360.941H375.6H378V356.065H377.9ZM373.1 380.343H375.6H378V375.467H373.2V380.343H373.1ZM247.5 237.721H233.3V242.597H247.5V237.721ZM332.8 232.947H335.3H337.7V228.071H332.9V232.947H332.8ZM619.8 595.089V597.629L615 597.832V595.597C616.4 583.509 602.8 577.922 590.8 572.944C588.8 572.131 586.9 571.42 585.2 570.506L584.3 570.1L583.4 570.506C581.1 571.522 578.6 572.03 576.1 572.03C573.6 572.03 571.3 571.522 569.1 570.608L568.2 570.201L567.3 570.608L557.6 574.773C556.5 575.28 555.2 575.788 554.1 576.296C546.4 579.649 538.5 583.204 537.5 593.261V593.565V593.87C537.6 594.48 537.6 596.207 537.6 597.527L532.8 597.73V597.629H532.6C532.6 596.308 532.6 594.378 532.7 593.87V593.565V593.261C532 582.087 520.4 577.515 511.1 573.858C508.2 572.741 505.6 571.522 503.3 570.405L502.3 569.897L501.3 570.405C499.2 571.42 496.7 571.928 494.2 571.928C491.7 571.928 489.3 571.42 487.1 570.506L486.2 570.1L485.3 570.506L475.6 574.671C474.5 575.179 473.2 575.687 472.1 576.195C464.4 579.547 456.5 583.102 455.5 593.159V593.464V593.769C455.6 594.378 455.6 596.105 455.6 597.426L450.8 597.629V597.527H450.6C450.6 596.207 450.6 594.276 450.7 593.769L450.8 593.464V593.159C450 581.985 438.4 577.414 429.1 573.757C426.2 572.639 423.6 571.42 421.3 570.303L420.3 569.795L419.3 570.303C417.3 571.319 414.8 571.827 412.3 571.827C409.8 571.827 407.4 571.217 405.1 570.303L404.2 569.897L403.3 570.303C401.6 571.014 399.7 571.725 397.8 572.639C385.9 577.515 372.5 582.899 373.3 593.464V593.565V593.667C373.4 594.276 373.4 596.003 373.4 597.324L368.6 597.527V594.683V594.48V594.276C368.5 593.769 368.5 593.565 368.5 593.261C369.2 579.242 380.3 574.671 392 569.795C393.5 569.186 395.2 568.576 396.7 567.865L399.5 566.646L397.7 564.208C392.5 557.199 391.7 548.361 395.4 540.742C398.9 533.632 405.5 529.06 412.2 529.06C417.3 529.06 422.1 531.701 426.3 536.679L427.3 537.898L428.8 537.289C430 536.781 431.8 536.171 433.4 535.562C434.6 535.155 435.8 534.647 436.8 534.343L439.8 533.225L437.9 530.584C433.1 524.388 432.6 515.144 436.4 507.322C439.8 500.414 445.7 496.249 452.4 496.249C452.5 496.249 452.7 496.249 452.8 496.249H452.9H453C453.1 496.249 453.3 496.249 453.4 496.249C460 496.249 465.9 500.414 469.3 507.322C473.2 515.245 472.7 524.388 468 530.584L466.1 533.225L469.1 534.343L471.2 535.155C473.3 535.968 475.8 536.781 477.5 537.593L479.2 538.203L480.2 536.679C483.3 532.108 488.6 529.365 494.3 529.365C500 529.365 505.3 532.108 508.4 536.577L509.4 538L511.1 537.39C512.4 536.882 514.2 536.273 515.9 535.663C517.1 535.257 518.3 534.851 519.3 534.444L522.3 533.327L520.4 530.686C515.6 524.489 515.1 515.245 518.9 507.423C522.3 500.516 528.2 496.351 534.9 496.351C535 496.351 535.2 496.351 535.3 496.351H535.4H535.5C535.6 496.351 535.8 496.351 535.9 496.351C542.4 496.351 548.4 500.516 551.8 507.423C555.7 515.347 555.2 524.489 550.5 530.686L548.6 533.327L551.6 534.444L553.7 535.257C555.9 536.07 558.3 536.984 559.9 537.695L561.4 538.203L562.5 536.984C566.6 532.006 571.5 529.365 576.6 529.365C583.3 529.365 589.8 533.936 593.3 541.047C597.1 548.666 596.3 557.504 591.2 564.411L589.5 566.849L592.2 568.068C593.8 568.779 595.6 569.49 597.2 570.303C608.9 574.874 620.2 579.649 619.8 595.089ZM526.5 530.076C529 532.616 531.9 533.835 535.1 533.835C538.7 533.835 542.3 532.209 545 529.263C548 526.013 549.6 521.746 549.4 517.378C549.3 508.337 543 500.922 535.3 500.922H535.1C529.5 500.922 524.8 504.681 522.5 510.877C520 518.089 521.5 526.013 526.5 530.076ZM443.8 530.076C446.3 532.616 449.2 533.835 452.4 533.835C456 533.835 459.6 532.209 462.3 529.263C465.3 526.013 466.9 521.746 466.7 517.378C466.7 513.112 465.3 509.049 462.7 505.899C460 502.649 456.5 500.922 452.7 500.922H452.5C446.9 500.922 442.2 504.681 439.9 510.877C437.4 518.089 438.9 526.013 443.8 530.076ZM426 549.072C425.5 541.758 421 534.343 412.2 534.038H412.1H412C402.7 534.241 398 542.672 398.1 550.799C398.2 558.824 403.1 566.951 412.2 566.951C412.8 566.951 413.4 566.951 414 566.849H414.1C423 565.224 426.5 556.488 426 549.072ZM481.8 566.443L479.9 563.903C475.8 558.723 474.3 550.698 476.2 544.399L476.8 542.368L474.8 541.555C473.3 540.946 468.6 539.117 465.1 537.898C463.9 537.492 462.8 537.085 462.2 536.882L461.2 536.476L460.3 536.984C458 538.203 455.4 538.812 452.6 538.812C449.9 538.812 447.4 538.203 445.1 537.085L444.2 536.577L443.3 536.882C442.7 537.085 441.5 537.492 440.1 538C436.9 539.219 432.6 540.844 431.3 541.352L429.3 542.165L430 544.298C431.9 550.494 430.5 558.621 426.5 563.802L424.7 566.341L427.6 567.56C428.2 567.865 428.9 568.068 429.5 568.373C437.8 571.928 447.1 575.89 451.4 581.477L453.2 583.915L455 581.579C459.4 575.992 466.8 572.944 473.9 569.897L478.9 567.662L481.8 566.443ZM508.2 549.174C507.7 541.86 503.2 534.444 494.4 534.139H494.3H494.2C484.5 534.546 480.2 543.18 480.4 551.002C480.6 558.926 485.4 567.052 494.3 567.052C494.9 567.052 495.6 566.951 496.4 566.849C505.3 565.224 508.7 556.488 508.2 549.174ZM564.1 566.544L562.2 564.005C558.1 558.824 556.7 550.698 558.6 544.399L559.2 542.368L557.2 541.555C555.9 540.946 551.2 539.117 547.7 537.898C546.5 537.492 545.4 537.085 544.9 536.882L543.9 536.476L543 536.984C540.7 538.203 538.1 538.812 535.3 538.812C532.6 538.812 530.1 538.203 527.8 537.085L526.9 536.577L526 536.882C525.3 537.085 524.2 537.492 522.7 538C519.4 539.117 515.1 540.844 513.7 541.352L511.7 542.165L512.3 544.298C514.2 550.596 512.8 558.621 508.8 563.802L507 566.341L509.9 567.56C510.5 567.865 511.2 568.068 511.8 568.373C520.1 571.928 529.4 575.89 533.7 581.477L535.5 583.915L537.3 581.579C541.7 575.992 549.1 572.944 556.2 569.897L561.2 567.662L564.1 566.544ZM590.7 548.666C589.9 540.031 584.1 534.038 576.8 533.936H576.7H576.6C566.9 534.343 562.6 542.977 562.8 550.799C563 558.824 567.8 566.951 576.7 566.951C577.3 566.951 578 566.951 578.7 566.849H578.8C587.8 565.021 591.2 556.183 590.7 548.666ZM278.2 468.517H276.8L276.2 469.736L239.2 542.266L237.5 545.821H241.4H247.3V599.051H195V574.163V572.03L192.9 571.827L107.3 562.481L104.7 562.176V564.919V579.75H66.5V541.047H73.7H77.4L75.8 537.593L49.6 482.028L49 480.707H47.6H0V408.177H51.4H52.8L53.4 406.958L79.4 356.167L81.1 352.611H77.2H66.5V294.607H123.5V325.59V327.622L125.5 327.927L196.8 339.101L199.5 339.507V336.663V323.558H242.2V367.036H240.4H236.3L238.4 370.693L274.9 433.471L275.6 434.588H276.9H299.3V468.415H278.2V468.517ZM223.4 452.975V455.413V476.136V480.199L226.9 478.269L262.8 458.257L270.6 453.889L261.7 453.686L225.8 452.975H223.4ZM225.8 448.099L263.8 448.81H266.2V446.372V444.442V443.223L265.2 442.512L227.2 416.405L223.5 413.866V418.335V445.661V448.099H225.8ZM231.6 368.356L230.9 367.239H229.6H225.8H223.4V369.677V406.755V407.974L224.4 408.685L262.4 434.792L266.1 437.331V434.69H270.2L268.1 431.033L231.6 368.356ZM204.4 362.261H206.8H235.4H237.8V359.824V330.872V328.434H235.4H206.8H204.4V330.872V348.04V359.925V362.261ZM218.7 482.739V481.316V455.21V452.772H216.3L167.1 451.857L163.2 451.756L164.9 455.311L186.2 497.874L187.3 500.109L189.4 498.992L217.2 483.45L218.7 482.739ZM215.2 490.154L191.7 503.258L189.7 504.376L190.7 506.407L209.8 544.501L210.4 545.821H211.8H216.2H218.6V543.384V492.389V488.326L215.2 490.154ZM90.2 445.458L90.3 443.121L91 424.735L91.2 420.672L87.6 422.5L72.7 430.322L71.4 430.931V432.354V442.613V445.051H73.8L87.9 445.356H90.2V445.458ZM87.5 450.334L73.7 450.029H71.3V452.467V466.79V468.111L72.3 468.822L85.2 477.558L88.7 479.996L88.9 475.729L89.8 452.873L89.9 450.334H87.5ZM91.1 541.047H93.6H94.5H95.8L96.5 539.93L116.8 507.525L118 505.595L116.1 504.376L96.8 491.272L93.3 488.834L93.1 493.1L91.3 538.609L91.1 541.047ZM118.4 500.008L120.4 501.328L121.7 499.297L149.3 455.108L151.6 451.451L147.4 451.35L97 450.435H94.7L94.6 452.772L93.4 481.723L93.3 483.043L94.4 483.754L118.4 500.008ZM96 418.335L95.9 419.656L95 443.223L94.9 445.661H97.4L151.4 446.677L155.3 446.778L153.6 443.223L132.8 401.777L131.8 399.644L129.7 400.761L97.5 417.522L96 418.335ZM99.9 410.615L127.3 396.292L129.3 395.276L128.3 393.244L108.7 354.135L108.1 352.814H106.7H101H98.7L98.6 355.151L96.5 408.583L96.3 412.647L99.9 410.615ZM136.9 399.441L156.1 437.737L157.9 441.496L160.2 437.941L188.4 392.838L189.6 390.908L187.7 389.587L173 379.531L171.9 378.718L170.7 379.327L138 396.292L136 397.308L136.9 399.441ZM124.4 504.071L126.3 505.29L148.2 520.121L149.4 520.934L150.6 520.223L181 503.36L183 502.243L182 500.211L159.3 455.007L157.5 451.248L155.2 454.803L125.6 502.141L124.4 504.071ZM218.7 447.794V445.356V411.631V410.412L217.7 409.701L195.9 394.768L193.9 393.447L192.6 395.479L162.7 443.121L160.4 446.778L164.6 446.88L216.3 447.896L218.7 447.794ZM218.6 404.723V400.253V369.575V367.137H216.2H211.5H210.2L209.5 368.255L197.5 387.352L196.3 389.283L198.2 390.603L214.9 402.082L218.6 404.723ZM199.7 367.137V364.09L196.3 365.817L180.4 374.045L176.8 375.874L180.1 378.21L190.3 385.219L192.3 386.54L193.6 384.508L202.2 370.794L204.5 367.137H200.2H199.7ZM123.7 338.186V339.304L124.7 340.015L171.2 371.81L172.3 372.623L173.5 372.013L198.3 359.112L199.6 358.503V357.081V346.516V344.484L197.6 344.18L126.3 333.006L123.6 332.599V335.444V338.288H123.7V338.186ZM123.6 352.713H117.4H113.5L115.2 356.167L132.6 390.908L133.6 393.041L135.7 391.924L163.7 377.397L167.3 375.569L164 373.232L127.2 347.938L123.5 345.399V349.868V352.713H123.6ZM116.5 347.837H118.9V345.399V301.921V299.483H116.5H73.7H71.3V301.921V345.399V347.837H73.7H116.5ZM58.1 408.075H62H71.3V421.484V425.446L74.7 423.719L90.2 415.592L91.4 414.983L91.5 413.662L93.9 355.252L94 352.713H91.5H88H86.6L86 353.932L60 404.723L58.1 408.075ZM64.2 475.831H66.6V473.393V415.491V413.154H64.2H7.2H4.8V415.592V473.495V475.933H7.2H42.9H64.2V475.831ZM81.7 539.219L86.2 538.304L88.3 486.802L88.4 485.481L87.3 484.77L74.9 476.339L71.2 473.799V478.269V480.605H57.9H54.2L55.8 484.059L81.7 539.219ZM99.8 545.821H97.4H73.7H71.3V548.26V572.436V574.874H73.7H97.4H99.8V572.436V558.215V548.361V545.821ZM101.4 540.945H104.8V541.86V545.923L108.3 543.993L141.6 525.607L145 523.778L141.7 521.645L124 509.658L122 508.337L120.7 510.369L103.7 537.39L101.4 541.047V540.945ZM194.9 557.503L193.9 556.792L150.5 527.333L149.3 526.521L148.1 527.232L105.9 550.596L104.7 551.307V552.729V555.066V557.3L106.8 557.503L192.4 566.849L195 567.154V564.411V558.926V557.503H194.9ZM194.8 547.244V545.821H201H204.9L203.2 542.368L186.4 508.845L185.3 506.712L183.2 507.83L157.4 522.153L154 523.981L157.3 526.216L191.3 549.174L195 551.713V547.244H194.8ZM202 550.698H199.6V553.135V591.737V594.175H202H240H242.4V591.737V553.135V550.698H240H202ZM271.5 468.415H267.6H266.2V465.774V461.711L262.7 463.641L224.7 484.77L223.5 485.481V486.904V543.282V545.72H225.9H230.6H232L232.6 544.501L269.6 471.971L271.5 468.415ZM292.3 463.743H294.7V461.305V442.004V439.566H292.3H282.7H273.3H270.9V442.004V461.305V463.743H273.3H292.3ZM113.8 285.16L75.9 237.518L74.2 235.385L76.6 234.064L173.5 175.451L171 171.286L67.1 234.064L110.1 288.106L113.8 285.16ZM279 48.1677C284 43.0885 290.5 40.1426 297.4 40.1426C301.5 40.1426 305.6 41.1584 309.5 43.1901L311.1 44.0028L310.7 45.8313L310.2 47.9645L322.2 50.9104L320.4 42.9869L319.4 38.7205L314.7 39.8379L313.8 40.041L313 39.5331C308.2 36.6888 303.1 35.2666 297.8 35.2666C289.7 35.2666 281.7 38.7205 275.8 44.7138C270.3 50.3009 267.1 57.6148 266.6 65.5383L271.3 66.0462C271.5 59.2402 274.4 53.0436 279 48.1677ZM185.8 132.684C185.8 95.0989 185.8 58.9354 185.8 47.4566C185.8 37.3999 194.4 30.5938 207.2 30.5938H250.5H254.6L252.6 26.9369L248.8 20.1308L281.9 0.728516L288.3 12.4105L289.1 13.7311L290.6 13.5279C292.9 13.2232 294.9 13.1216 297 13.1216C299.1 13.1216 301.2 13.2232 303.4 13.5279L304.9 13.7311L305.7 12.4105L312.7 0.728516L346 20.1308L342.2 26.9369L340.2 30.5938H344.3H463.4C476.2 30.5938 484.8 37.3999 484.8 47.4566V57.1069V206.637C484.8 209.684 484.8 214.662 484.8 219.538C484.8 223.906 484.8 228.071 484.8 230.813C484.8 240.972 477.6 249.911 467.7 252.044L465.9 252.451V254.381C465.9 258.139 465.9 267.383 465.9 276.018C465.9 283.433 465.9 290.341 465.9 293.388C465.9 300.093 460.6 305.477 454 305.477H368.6C362.1 305.477 356.7 300.093 356.7 293.388V290.95H354.3H281.2H280.8V286.074H290.5H291.5L292.2 285.262C299 277.542 303.3 266.774 304.2 254.889L304.4 252.247H301.8H272.6H271L270.5 253.771C268.8 258.546 264.4 261.796 259.3 261.796H221.3C216.3 261.796 211.9 258.546 210.1 253.771L209.5 252.146L207.8 252.247C207.6 252.247 207.3 252.247 207.1 252.247C201.4 252.247 196 249.911 192 245.848C188 241.784 185.8 236.299 185.8 230.61C185.9 218.522 185.9 174.841 185.8 132.684ZM266.5 163.058C266.5 159.096 263.3 155.845 259.4 155.845H245.2H242.8V158.283V160.721H238V158.283V155.845H235.6H221.4C217.5 155.845 214.3 159.096 214.3 163.058V206.434C214.3 211.513 214.3 220.554 214.3 229.391C214.3 237.416 214.3 245.137 214.3 249.809C214.3 253.771 217.5 257.022 221.4 257.022H259.4C263.3 257.022 266.5 253.771 266.5 249.809V206.941V163.058ZM356.6 252.247H354.2H311.3H309.2L309.1 254.482C308.4 264.742 305.4 274.392 300.5 282.214L298.1 285.871H302.4H354.2H356.6V283.433V254.482V252.247ZM356.6 213.748H354.2H273.6H271.2V216.186V245.137V247.575H273.6H354.2H356.6V245.137V216.084V213.748ZM460.8 281.198H458.4H415.8H413.4V283.636V286.074H408.6V283.636V281.198H406.2H363.5H361.1V283.636V288.411V293.185C361.1 297.147 364.3 300.398 368.2 300.398H453.6C457.5 300.398 460.7 297.147 460.7 293.185V283.535V281.198H460.8ZM460.8 165.496H458.4H363.5H361.1V167.934V273.986V276.424H363.5H458.4H460.8V273.986V249.809V167.832V165.496ZM460.7 158.283V153.509C460.7 149.547 457.5 146.297 453.6 146.297H368.2C364.3 146.297 361.1 149.547 361.1 153.509V158.283V160.721H363.5H458.4H460.8V158.283H460.7ZM479.9 213.748H477.5H468H465.6V216.186V244.121V247.575L468.8 246.457C475.5 244.019 479.9 237.721 479.9 230.61V216.084V213.748ZM340.3 35.3682L342.4 39.0252C343.8 41.4632 345 43.698 345.9 45.8313L346.5 47.2534H348H361.3V47.4566V49.8946H363.7H477.5H479.9V47.4566C479.9 38.5173 471.3 35.3682 463.3 35.3682H344.5H340.3ZM262 33.8445C257.5 39.1268 253.9 45.5265 251.6 52.1294H240.5H238.1V54.5674V78.9472V81.3852H240.5H251.6C253.9 88.0897 257.4 94.3878 262 99.6701L256.5 109.32L255.3 111.352L257.3 112.47L278.2 124.761L280.2 125.878L281.3 123.847L286.8 114.196C290.3 114.908 293.8 115.212 297.2 115.212C300.7 115.212 304.2 114.908 307.6 114.196L313.1 123.847L314.2 125.878L316.2 124.761L337.1 112.47L339.1 111.352L337.9 109.32L332.4 99.6701C337 94.3878 340.6 88.0897 342.8 81.3852H353.9H356.3V78.9472V54.3642V51.9262H353.9H343C340.5 45.2218 337 38.9236 332.6 33.6413V33.5397L338 23.991L339.2 21.9593L337.2 20.7403L316.3 8.4488L314.3 7.33139L313.2 9.36305L307.7 19.0134C304.2 18.3023 300.7 17.9976 297.3 17.9976C293.9 17.9976 290.3 18.3023 286.9 19.0134L281.4 9.36305L280.3 7.33139L278.3 8.4488L257.4 20.7403L255.4 21.9593L256.6 23.991L259.6 29.2733L261.3 32.3207L262 33.8445ZM190.7 49.793H193.1H231.1H233.5V47.4566V47.2534H246.8H248.3L248.9 45.8313C249.8 43.7996 250.9 41.4632 252.4 39.0252L254.5 35.3682H250.3H207.3C199.3 35.3682 190.7 38.6189 190.7 47.4566V49.793ZM190.6 206.434V208.872H193H207.2H209.6V206.434V163.058C209.6 156.353 214.9 150.969 221.5 150.969H229.7H241H252.4H259.4C265.9 150.969 271.3 156.353 271.3 163.058V206.434V208.872H273.7H354.3H356.7V206.434V158.283V153.509C356.7 146.804 362 141.421 368.6 141.421H454C460.5 141.421 465.9 146.804 465.9 153.509V158.283V206.434V208.872H468.4H477.9H480.3V206.434V57.1069V54.6689H477.9H363.8H361.4V57.1069V86.2612H348.1H346.6L346 87.6833C344.3 91.6451 342.1 95.5052 339.6 98.959L338.7 100.178L339.5 101.499L346.2 113.181L312.9 132.583L306.2 120.901L305.4 119.58L303.9 119.783C301.6 120.088 299.6 120.19 297.5 120.19C295.4 120.19 293.3 120.088 291.1 119.783L289.6 119.58L288.8 120.901L282.1 132.583L248.8 113.181L255.5 101.499L256.3 100.178L255.4 98.959C252.8 95.5052 250.6 91.7467 249 87.6833L248.4 86.2612H246.9H233.6V57.1069V54.6689H231H193H190.6V57.1069V206.434ZM190.7 230.509C190.7 239.753 198.2 247.371 207.3 247.371H209.7V244.933V216.084V213.646H207.3H193H190.6V216.084V230.509H190.7ZM297.1 93.1688C292.5 93.1688 288.1 91.9498 284.3 89.4103L282.9 88.496L283.3 86.8707L283.9 84.4327L278.1 83.0105L276.9 82.7058L272.1 81.5884L273.2 86.4643L273.5 87.6833L274.9 93.5751L279.2 92.5593L280.2 92.3561L281 92.8641C286 96.2163 291.6 97.8416 297.4 97.8416C305.2 97.8416 312.8 94.7941 318.6 89.2071C324.1 83.9248 327.7 76.9156 328.5 69.2969L323.6 68.4842L323.2 70.9222C321.5 83.5184 310 93.1688 297.1 93.1688ZM596.2 235.486L594.5 237.518L537.2 309.845L540.9 312.892L603.4 234.166L498.9 171.184L496.4 175.349L593.8 234.064L596.2 235.486ZM373 539.625V505.696H389.7H392.1V503.258V473.393V471.768L390.6 471.26C384.3 469.127 382.2 462.93 383 457.952C383.7 453.28 387.3 447.896 394.6 447.896C401.9 447.896 405.3 453.28 406.2 457.952C407 462.93 405.1 469.025 398.6 471.26L397.1 471.768V473.393V510.471H380.4H378V512.909V539.523H373.2H373V539.625ZM394.6 467.095C399.1 467.095 401.6 463.438 401.6 459.883C401.6 456.327 399.1 452.67 394.5 452.67C389.9 452.67 387.5 456.327 387.5 459.883C387.5 463.438 389.9 467.095 394.6 467.095ZM397 336.866H392.2V341.742H394.6H397.1V336.866H397ZM358.9 375.467H354.2V380.343H356.6H359V375.467H358.9ZM392.2 360.941H394.6H397.1V356.065H392.3V360.941H392.2ZM392.2 380.343H394.6H397.1V375.467H392.3V380.343H392.2ZM358.9 394.768H354.2V399.644H356.6H359V394.768H358.9ZM281.3 496.351L277.6 499.398L331.9 567.357L335.6 564.31L281.3 496.351ZM354 558.926V492.795V491.17L352.5 490.662C346.2 488.529 344.1 482.332 344.9 477.355C345.6 472.682 349.2 467.298 356.5 467.298C363.8 467.298 367.2 472.682 368.1 477.355C368.9 482.332 367 488.427 360.5 490.662L359 491.17V492.795V551.612V554.05H361.4H378V558.926H354.2H354ZM356.6 486.497C361.2 486.497 363.6 482.84 363.6 479.285C363.6 475.729 361.1 472.072 356.5 472.072C351.9 472.072 349.5 475.729 349.5 479.285C349.5 482.84 351.9 486.497 356.6 486.497ZM354.2 418.945H356.6H359V414.069H354.3V418.945H354.2ZM494.3 312.486C507.4 312.486 520 315.533 531.7 321.527L533.6 322.543L533.7 322.441L537.9 324.879L537.8 324.981L539.7 326.2C574.6 348.345 587.7 398.019 568.4 434.893L567.4 436.925L567.5 437.026L565.1 441.293L565 441.191L563.8 443.121C549.3 466.689 522.4 481.418 493.6 481.418C480.6 481.418 467.9 478.269 456.9 472.377L454.9 471.361V471.463C453.6 470.752 452 469.838 450.7 469.025L450.8 468.923L449 467.704C431.9 456.327 419.6 438.956 414.3 418.945C409 398.831 411.1 377.6 420.3 359.011L421.3 357.081L421.2 356.979L423.6 352.713L423.7 352.814L424.9 350.986C440.3 327.012 466.3 312.791 494.3 312.486ZM434.1 414.983L434.4 412.951L432.4 412.443C428.1 411.326 424.1 410.615 420.3 410.005L417 409.599L417.6 412.85C419.7 423.617 423.9 433.674 430.1 442.715L434.3 440.988C432.9 433.065 432.8 424.329 434.1 414.983ZM435.9 405.637C438.3 395.377 442 385.016 447.4 374.959L448.4 372.928L446.5 371.81L427.6 360.636L425.5 359.417L424.4 361.754C418.2 374.553 415.4 388.673 416.3 402.59L416.4 404.621L418.4 404.825C422.9 405.129 427.8 406.044 433 407.466L435.4 408.075L435.9 405.637ZM534 417.726L536.1 418.945L537.2 416.71C542.3 406.856 546 396.8 548.3 386.946L548.8 384.914L546.8 384.203C536.6 380.75 525.9 375.975 515.2 369.982L513.2 368.864L512.1 370.896L498.9 394.158L497.8 396.19L499.8 397.308L534 417.726ZM531.6 421.789L497.2 401.574L495.2 400.355L494.1 402.387L480.9 425.649L479.8 427.681L481.7 428.9C492.1 435.299 501.6 442.309 509.5 449.623L511.1 451.045L512.6 449.623C520 442.715 526.6 434.487 532.5 425.04L533.8 423.008L531.6 421.789ZM508.9 366.63L507 365.411C496.6 359.011 487.1 352.002 479.2 344.688L477.6 343.266L476.1 344.688C468.8 351.595 462.2 359.823 456.3 369.271L455 371.302L457.1 372.521L491.5 392.736L493.5 393.854L494.6 391.822L507.9 368.56L508.9 366.63ZM454.8 376.686L452.6 375.467L451.5 377.702C446.4 387.556 442.7 397.612 440.4 407.466L439.9 409.497L441.9 410.209C452.1 413.561 462.8 418.335 473.5 424.329L475.5 425.446L476.6 423.414L489.8 400.152L490.9 398.12L488.9 397.003L454.8 376.686ZM471.8 431.846L473 429.814L470.9 428.697C461 423.211 451.1 418.742 441.6 415.389L438.8 414.475L438.5 417.421C438 421.789 437.8 425.954 437.9 429.814C438.3 444.544 442.8 456.124 450.9 463.235L453 465.063L454.4 462.524L471.8 431.846ZM470 470.142C481.1 470.142 495 464.758 505.2 456.226L507.3 454.499L505.2 452.67C497.7 445.864 488.9 439.464 479.3 433.573L477.3 432.354L476.1 434.385L458.7 464.962L457.4 467.4L459.9 468.415C462.8 469.533 466.2 470.142 470 470.142ZM522.5 471.361L520.6 468.72C518.2 465.673 515.6 462.524 512.4 459.273L511 457.749L509.4 459.07C502.1 464.86 494.7 469.127 487.2 471.768L487.7 476.44C490.1 476.644 492.3 476.745 494.7 476.745C503.5 476.745 511.9 475.323 519.6 472.479L522.5 471.361ZM560.9 439.16L558.8 437.941L539.9 426.767L538 425.649L536.8 427.579C530.9 437.23 524 445.864 516.4 453.076L514.7 454.702L516.3 456.429C520.1 460.39 523.4 464.251 525.9 468.009L527 469.634L528.8 468.72C541.2 462.625 551.8 452.975 559.6 441.191L560.9 439.16ZM554.7 379.327L554.4 381.359L556.4 381.867C560.7 382.984 564.8 383.695 568.6 384.305L571.8 384.711L571.2 381.461C569.4 371.201 565 360.839 558.6 351.494L554.4 353.322C555.8 361.246 555.9 369.982 554.7 379.327ZM541.4 419.453L540.4 421.484L542.3 422.602L561.2 433.776L563.3 434.995L564.4 432.658C570.6 419.859 573.4 405.739 572.5 391.822L572.4 389.79L570.4 389.587C565.9 389.181 561 388.267 555.8 386.845L553.4 386.235L552.9 388.673C550.6 398.933 546.7 409.193 541.4 419.453ZM516.8 362.566L515.6 364.598L517.7 365.715C527.6 371.201 537.5 375.67 547 379.023L549.7 379.937L550.1 377.093C552.6 361.347 549.1 340.015 537.7 331.177L535.6 329.552L534.3 331.99L516.8 362.566ZM518 324.066C504.6 324.066 491.9 331.685 483.6 337.983L481.2 339.71L483.3 341.64C490.8 348.446 499.6 354.846 509.2 360.738L511.2 361.957L512.4 359.925L529.8 329.349L531.2 326.809L528.5 325.895C525.4 324.879 521.7 324.27 518 324.066ZM466.4 323.051L468.3 325.692C470.6 328.841 473.3 331.888 476.4 335.139L477.8 336.663L479.4 335.342C486.7 329.653 494.1 325.387 501.5 322.746L500.9 318.073C498.8 317.87 496.6 317.768 494.5 317.768C485.9 317.768 477.4 319.089 469.3 321.933L466.4 323.051ZM429.2 353.221L427.8 355.252L429.9 356.471L448.8 367.645L450.7 368.763L451.9 366.833C457.8 357.182 464.7 348.548 472.3 341.335L474 339.71L472.4 337.983C468.6 334.021 465.3 330.161 462.8 326.403L461.7 324.777L459.9 325.692C447.5 331.888 436.9 341.335 429.2 353.221Z" fill="white" fill-opacity="0.32"/>
</svg>
