<svg width="375" height="544" viewBox="0 0 375 544" fill="none" xmlns="http://www.w3.org/2000/svg">
<path d="M33.3 465.4H29.7V423.5H33.3V465.4ZM73.3 427.5L140.6 432L140.8 428.4L73.5 423.9L73.3 427.5ZM293.8 328C335.6 328 408 328 449.9 328C449.9 377.3 449.9 435.3 449.9 484.4C408.1 484.4 335.7 484.4 293.8 484.4C293.8 435.2 293.8 377.2 293.8 328ZM297.2 378.8H310.4V361.8H327.5L328.1 360.1V360.2C329 357.7 330.3 356.1 331.9 355.1C333.6 354 335.5 353.5 337.6 353.5C340.3 353.5 342.9 354.5 344.9 356.2C346.8 357.9 348.1 360.3 348.1 363.7C348.1 367 346.8 369.5 344.9 371.2C343 372.9 340.3 373.9 337.6 373.9C335.6 373.9 333.5 373.4 331.9 372.3C330.3 371.2 328.9 369.5 328.1 367.2L327.8 366.3L327.6 365.6H314.3V382.6H297.3V404.4H323.3L323.8 402.8C324.7 400.3 326 398.7 327.6 397.7C329.3 396.6 331.2 396.1 333.3 396.1C336 396.1 338.6 397.1 340.6 398.8C342.5 400.5 343.8 402.9 343.8 406.3C343.8 409.6 342.5 412.1 340.6 413.8C338.7 415.5 336 416.5 333.3 416.5C331.3 416.5 329.2 416 327.6 414.9C326 413.8 324.6 412.1 323.8 409.8L323.5 408.9L323.3 408.2H297.3V430H314.3V447H327.6L328.1 445.4C329 442.9 330.3 441.3 331.9 440.3C333.6 439.2 335.5 438.7 337.6 438.7C340.3 438.7 342.9 439.7 344.9 441.4C346.8 443.1 348.1 445.5 348.1 448.9C348.1 452.2 346.8 454.7 344.9 456.4C343 458.1 340.3 459.1 337.6 459.1C335.6 459.1 333.5 458.6 331.9 457.5C330.3 456.4 328.9 454.7 328.1 452.4L327.8 451.5L327.6 450.8H310.5V433.8H297.3V481H370V471.8L368.4 471.3C365.9 470.4 364.3 469.1 363.3 467.5C362.2 465.8 361.7 463.9 361.7 461.8C361.7 459.1 362.7 456.5 364.4 454.5C366.1 452.6 368.5 451.3 371.9 451.3C375.2 451.3 377.7 452.6 379.4 454.5C381.1 456.4 382.1 459.1 382.1 461.8C382.1 463.8 381.6 465.9 380.5 467.5C379.4 469.1 377.7 470.5 375.4 471.3L374.5 471.6L373.8 471.8V481H446.4V433.8H433V450.8H415.9L415.4 452.4C414.5 454.9 413.2 456.5 411.6 457.5C409.9 458.6 408 459.1 405.9 459.1C403.2 459.1 400.6 458.1 398.6 456.4C396.7 454.7 395.4 452.3 395.4 448.9C395.4 445.6 396.7 443.1 398.6 441.4C400.5 439.7 403.2 438.7 405.9 438.7C407.9 438.7 410 439.2 411.6 440.3C413.2 441.4 414.6 443.1 415.4 445.4L415.7 446.3L415.9 447H429.2V444.7V430.2H446.2V408H420.2L419.7 409.6C418.8 412.1 417.5 413.7 415.9 414.7C414.2 415.8 412.3 416.3 410.2 416.3C407.5 416.3 404.9 415.3 402.9 413.6C401 411.9 399.7 409.5 399.7 406.1C399.7 402.8 401 400.3 402.9 398.6C404.8 396.9 407.5 395.9 410.2 395.9C412.2 395.9 414.3 396.4 415.9 397.5C417.5 398.6 418.9 400.3 419.7 402.6L420 403.5L420.2 404.2H446.2V382.4H429.2V365.4H415.9L415.4 367C414.5 369.5 413.2 371.1 411.6 372.1C409.9 373.2 408 373.7 405.9 373.7C403.2 373.7 400.6 372.7 398.6 371C396.7 369.3 395.4 366.9 395.4 363.5C395.4 360.2 396.7 357.7 398.6 356C400.5 354.3 403.2 353.3 405.9 353.3C407.9 353.3 410 353.8 411.6 354.9C413.2 356 414.6 357.7 415.4 360L415.7 360.9L415.9 361.6H433V378.6H446.2V377.5L446.1 331.1H373.5V340.3L375.1 340.8C377.6 341.7 379.2 343 380.2 344.6C381.3 346.3 381.8 348.2 381.8 350.3C381.8 353 380.8 355.6 379.1 357.6C377.4 359.5 375 360.8 371.6 360.8C368.3 360.8 365.8 359.5 364.1 357.6V357.7C362.4 355.8 361.4 353.1 361.4 350.4C361.4 348.4 361.9 346.3 363 344.7C364.1 343.1 365.8 341.7 368.1 340.9L369 340.6L369.7 340.4V331.2H297.1V378.8H297.2ZM366.9 346.6C365.8 347.9 365.3 349.5 365.3 351.1C365.3 352.7 365.7 354.3 366.9 355.6C368.1 356.9 369.8 357.7 371.8 357.7C373.8 357.7 375.5 356.8 376.7 355.6C377.8 354.3 378.3 352.7 378.3 351.1C378.3 349.5 377.8 347.9 376.7 346.6C375.6 345.3 373.8 344.5 371.8 344.5C369.8 344.4 368.1 345.3 366.9 346.6ZM410.2 358.9C408.9 357.8 407.3 357.3 405.7 357.3C404.1 357.3 402.5 357.7 401.2 358.9C399.9 360.1 399.1 361.8 399.1 363.8C399.1 365.8 400 367.5 401.2 368.7C402.5 369.8 404.1 370.3 405.7 370.3C407.3 370.3 408.9 369.9 410.2 368.7C411.6 367.6 412.3 365.8 412.3 363.8V363.7C412.3 361.7 411.5 359.9 410.2 358.9ZM414.5 401.4C413.2 400.3 411.6 399.8 410 399.8C408.4 399.8 406.8 400.2 405.5 401.4C404.2 402.6 403.4 404.3 403.4 406.3C403.4 408.3 404.3 410 405.5 411.2C406.8 412.3 408.4 412.8 410 412.8C411.6 412.8 413.2 412.4 414.5 411.2C415.8 410 416.6 408.2 416.6 406.3V406.2C416.6 404.3 415.7 402.4 414.5 401.4ZM410.2 443.8C408.9 442.7 407.3 442.2 405.7 442.2C404.1 442.2 402.5 442.6 401.2 443.8C399.9 445 399.1 446.7 399.1 448.7C399.1 450.7 400 452.4 401.2 453.6C402.5 454.7 404.1 455.2 405.7 455.2C407.3 455.2 408.9 454.7 410.2 453.6C411.5 452.4 412.3 450.7 412.3 448.7V448.6C412.3 446.7 411.5 444.9 410.2 443.8ZM376.7 465.9C377.8 464.6 378.3 463 378.3 461.4C378.3 459.8 377.9 458.2 376.7 456.9C375.5 455.6 373.8 454.8 371.8 454.8C369.8 454.8 368.1 455.7 366.9 456.9C365.8 458.2 365.3 459.8 365.3 461.4C365.3 463 365.7 464.6 366.9 465.9C368 467.2 369.8 468 371.8 468C373.8 468 375.6 467.2 376.7 465.9ZM333.5 453.5C334.8 454.6 336.4 455.1 338 455.1C339.6 455.1 341.2 454.7 342.5 453.5C343.8 452.3 344.6 450.6 344.6 448.6V448.5C344.6 446.6 343.7 444.8 342.5 443.7C341.2 442.6 339.6 442.1 338 442.1C336.4 442.1 334.8 442.6 333.5 443.7C332.2 444.9 331.4 446.6 331.4 448.6C331.4 450.6 332.2 452.3 333.5 453.5ZM329.2 411.1C330.5 412.2 332.1 412.7 333.7 412.7C335.3 412.7 336.9 412.3 338.2 411.1C339.5 409.9 340.3 408.2 340.3 406.2V406.1C340.3 404.2 339.4 402.4 338.2 401.3C336.9 400.2 335.3 399.7 333.7 399.7C332.1 399.7 330.5 400.2 329.2 401.3C327.9 402.5 327.1 404.2 327.1 406.2C327.1 408.3 328 410 329.2 411.1ZM333.5 368.7C334.8 369.8 336.4 370.3 338 370.3C339.6 370.3 341.2 369.9 342.5 368.7C343.8 367.5 344.6 365.8 344.6 363.8V363.7C344.6 361.8 343.7 360 342.5 358.9C341.2 357.8 339.6 357.3 338 357.3C336.4 357.3 334.8 357.7 333.5 358.9C332.2 360.1 331.4 361.8 331.4 363.8C331.4 365.8 332.2 367.5 333.5 368.7ZM276.8 501.4H280.5V497.8H276.8V501.4ZM182.6 503.8C184.6 506.1 185.7 509.2 185.7 512.5C185.7 515.6 184.6 518.7 182.6 520.9V520.8C180.6 523 177.7 524.6 173.4 524.8C169.1 524.7 166.3 523.1 164.2 520.8C162.2 518.6 161.1 515.5 161.1 512.4V512.3C161.1 509.2 162.2 506.1 164.2 503.9C166.2 501.7 169.1 500.1 173.4 499.9C177.7 500 180.6 501.6 182.6 503.8ZM182.2 512.4C182.1 509.6 181 507.4 179.3 505.9C177.7 504.4 175.6 503.8 173.4 503.8C171.4 503.8 169.2 504.4 167.5 505.9C165.8 507.4 164.6 509.7 164.6 512.4C164.7 515.2 165.8 517.4 167.5 518.9C169.1 520.4 171.2 521 173.4 521C175.4 521 177.6 520.4 179.3 518.9C181 517.4 182.2 515 182.2 512.4ZM314.4 311H310.7V314.7H314.4V311ZM376.5 237.4V236.3H373.9C329.1 236.3 282.5 236.3 237.7 236.3C218 236.3 194.5 236.3 174.8 236.3H173.5H172.4V238.7C172.4 244.5 172.4 251.4 172.4 257.5H168.8V253.2L166.9 252.8C158.4 251.1 151.9 243.5 151.9 234.4C152 228.2 154.4 223.6 157.9 220.5C161.4 217.3 166.2 215.7 170.9 215.7C175 215.7 179 216.9 182.2 219.3C185.5 221.8 188 225.4 189.1 230.5L189.3 231.6L189.5 232.5H202.7L203.1 230.6C204.2 225.5 206.7 221.8 210 219.4C213.3 216.9 217.4 215.7 221.5 215.7C225.7 215.7 229.7 217 233 219.4C236.2 222 238.8 225.6 239.8 230.6L240 231.7L240.2 232.6H253.4L253.8 230.7C254.8 225.6 257.3 221.9 260.6 219.5C263.9 217 268 215.8 272.1 215.8C276.3 215.8 280.3 217.1 283.6 219.5C286.8 222.1 289.4 225.7 290.4 230.7L290.6 231.8L290.8 232.7H304L304.4 230.8C305 228.1 306.2 225.6 307.9 223.3L310.8 219.5H299.8V158.5L290.8 131.6L294.3 130.4L302.9 156.4H303.6H304.6C319.6 156.4 342.8 156.4 357.8 156.4H358.8H359.5L368.1 130.4L371.6 131.6L362.6 158.5V216.9L365.6 216.2C366.6 216 367.6 215.9 368.7 215.9C370.9 215.9 373.3 216.3 375.7 217L374.7 220.6L374 220.4C372.4 219.8 370.8 219.5 369.2 219.5C362.9 219.5 357 223.6 354.9 229.6V229.7L353.8 232.8H357.1C362 232.8 373.1 232.8 379.4 232.8V257.7H375.8C375.8 251.6 375.8 244.7 375.8 238.9V237.4H376.5ZM185.9 232.7L184.7 229.5C182.7 223.7 177.1 219.5 170.5 219.5C170.4 219.5 170.3 219.5 170.1 219.5C165.6 219.5 161.9 221.5 159.4 224.3C156.8 227.2 155.6 231 155.6 234.8C155.6 237.7 156.3 240.6 158.1 243.1C159.8 245.7 162.4 247.7 165.7 248.9L168.9 250V232.8H185.9V232.7ZM236.8 232.7L235.7 229.5C234.5 226.3 232.5 223.7 229.9 222C227.4 220.4 224.5 219.5 221.5 219.5C218.6 219.5 215.6 220.2 213.1 222C210.5 223.6 208.4 226.2 207.3 229.5L206.2 232.7H207.7H236.8ZM287.6 232.7L286.5 229.5C285.3 226.3 283.3 223.7 280.7 222C278.2 220.4 275.3 219.5 272.3 219.5C269.4 219.5 266.4 220.2 263.9 222C261.3 223.6 259.2 226.2 258.1 229.5L257 232.7H260.3H287.6ZM325.1 173.2H338.3V160H325.1V162.4V173.2ZM357.2 215.7H358.5H359.6V159.9H342V176.9H321.4V159.9H304V215.7H306.3C317.1 215.7 346.1 215.7 357.2 215.7ZM338.5 232.7L337.4 229.5C336.2 226.3 334.2 223.7 331.6 222C329.1 220.4 326.2 219.5 323.2 219.5C320.3 219.5 317.3 220.2 314.8 222C312.2 223.6 310.1 226.2 309 229.5L307.9 232.7H311.2H338.5ZM351.3 230.8C351.9 228.1 353.1 225.6 354.8 223.3L357.7 219.5H352.9H335.2L338.1 223.3C339.8 225.5 341.1 228 341.6 230.8L341.8 231.9L342 232.8H351.1L351.3 230.8ZM297.5 311H293.8V314.7H297.5V311ZM33.5 504.2V499.7C32.3 499.7 31 499.7 29.9 499.7V504.2H25.4V507.8H29.9V512.3C31.1 512.3 32.4 512.3 33.5 512.3V507.8H34.6H35.9C36.2 507.8 37.1 507.8 37.9 507.8C37.9 506.6 37.9 505.3 37.9 504.2C37 504.2 36.2 504.2 35.9 504.2H33.5ZM331.4 311H327.7V314.7H331.4V311ZM365.3 311H361.6V314.7H365.3V311ZM348.3 311H344.6V314.7H348.3V311ZM276.8 416.5H280.5V412.8H276.8V416.5ZM276.8 365.7L280.5 365.6V362H276.8V365.7ZM276.8 399.6H280.5V395.9H276.8V399.6ZM276.8 484.5L280.5 484.4V480.8H276.8V484.5ZM276.8 382.6H280.5V378.9H276.8V382.6ZM276.8 331.7L280.5 331.6V328H276.8V331.7ZM276.8 348.7L280.5 348.6V345H276.8V348.7ZM227.2 487.2L91.1 318.4L88.3 320.7L224.5 489.6L227.2 487.2ZM198.6 535.2C193.2 540.5 185.8 543.9 178.2 544H177.4C176.7 544 176.1 544 175.4 543.9L44 530.4L43.4 530.7C39.6 532.6 35.7 533.5 32 533.5C24.9 533.5 17.9 530.3 12.8 525.3C7.7 520.3 4.5 513.4 4.5 506.2C4.5 503.1 5.1 499.9 6.4 496.7L6.7 495.8L7 495.1L5.7 493.9C2 490.6 0 485.6 0 480.5C0 479.2 0.2 477.9 0.4 476.7L17.7 398.1H21.5V384.9H13.8L0.3 362.3C0.3 345.4 0.3 310.3 0.3 292H3.9V332.6L17.1 322.7V279.3H20.7V321.7H34V275H37.6V321.9H50.8V279.5H54.4V323.3L64.7 343.9L72.4 313L75.9 313.9L67 349.4V362.4L53.5 384.9H50.1V398.1H54.4V485.2L133.1 474.4L180.6 484.2H180.7C195.6 486 206.9 498.7 206.9 513.9C206.9 514.1 206.9 514.3 207.4 514.6C207.5 522.5 204 529.8 198.6 535.2ZM51.5 381.1L63.4 361.2V360.6C63.4 358.9 63.4 351.6 63.4 350V349.7V349.5L62.9 348.4L51.4 325.3H49.9C41 325.3 28.9 325.3 20 325.3H19.6H19.3L3.6 337.2V361.2L3.9 361.7L4 361.8L15.5 381H18.7H51.5V381.1ZM45.6 384.7H25V398H27.3H46.6V384.8H45.6V384.7ZM8.2 492L10.2 489.2V489.3C14.9 482.7 23.4 478.8 32 478.8C37.4 478.8 42.8 480.4 47 483.6L50.8 486.5V401.7H20.3L3.6 477.4C3.4 478.4 3.3 479.4 3.3 480.4C3.3 483.6 4.4 486.7 6.2 489.3L8.2 492ZM55 506.1V506V505.9C54.8 498.3 51.7 492.4 47.3 488.5C42.9 484.5 37.2 482.6 31.5 482.6C25.7 482.6 20.1 484.5 15.6 488.5C11.1 492.3 8.1 498.3 7.8 505.9V506C8 513.6 11 519.6 15.5 523.5C20 527.4 25.7 529.4 31.4 529.4C37.1 529.4 42.8 527.5 47.3 523.5C51.7 519.6 54.8 513.7 55 506.1ZM196.5 531.8C200.9 526.9 203.1 520.3 203.2 513.5C203.2 507.7 201.4 501.7 197.5 497C193.8 492.2 187.9 488.7 180.3 487.6H180L140.2 479.4L129.4 495.6L126.3 493.6L137.1 477.5L52.8 489L54.8 492.2C57.3 496 58.5 500.9 58.5 505.7C58.5 512.3 56.3 518.9 52 523.5L48.7 527L53.5 527.5L175.2 540H175.3C175.8 540 176.3 540 176.8 540C185.4 540.2 192 536.8 196.5 531.8ZM276.8 467.5H280.5V463.8H276.8V467.5ZM276.8 450.5H280.5V446.8H276.8V450.5ZM449.9 266.1L485.9 221.3L376.6 156.1L374.7 159.3L478 220.9L480.3 222.3L447 263.8L449.9 266.1ZM276.8 433.5H280.5V429.8H276.8V433.5ZM17 355H34V367.7H37.6V355H50.3V351.4C40.3 351.4 27 351.4 16.9 351.4L17 355ZM206.5 169H202.9V172.6C204.1 172.6 205.4 172.6 206.5 172.6C206.5 171.5 206.5 170.2 206.5 169ZM293.7 497.7V501.3H297.4L297.3 497.7H293.7ZM370 437.8H373.7V429.3H390.7V425.7H373.7V408.2H382.1V404.5H373.7V387H390.7V383.4H373.7V374.9H370V383.4H353V387H370V404.5H361.6V408.2H370V425.7H353V429.3H370V437.8ZM276.8 314.7H280.5V311H276.8V314.7ZM344.5 501.4H348.2V497.8H344.5V501.4ZM327.6 497.7V501.3H331.3L331.2 497.7H327.6ZM352.3 141.8L294.4 107.3L292.5 110.4L350.4 144.9L352.3 141.8ZM310.7 497.7V501.3H314.4L314.3 497.7H310.7ZM361.4 501.4H365.1V497.8H361.4V501.4ZM492.3 315.3H505V318.9H492.3V321.5V340.8H505V344.4H492.3V366.2H505V369.8H492.3V391.6H505V395.2H492.3V417H505V420.8H492.3V442.6H505V446.2H492.3V468H505V471.6H492.3V493.4H505V497H492.3V526.5H462.7V539.2H459V526.5H437.2V539.2H433.6V526.5H411.8V539.2H408.2V526.5H386.4V539.2H382.8V526.5H361V539.2H357.4V526.5H335.6V539.2H332V526.5H310.2V539.2H306.6V526.5H285V539.2H281.4V526.5H251.8V497H239V493.4H251.7V471.6H239V468H251.7V446.2H239V442.6H251.7V420.8H239V417.2H251.7V395.3H239V391.7H251.7V369.9H239V366.3H251.7V344.5H239V340.9H251.7V319.1H239V315.5H251.7V285.8H281.3V273.1H284.9V285.8H306.7V273.1H310.3V285.8H332.1V273.1H335.7V285.8H357.5V273.1H361.1V285.8H382.9V273.1H386.5V285.8H408.3V273.1H411.9V285.8H433.7V273.1H437.3V285.8H459V273.1H462.6V285.8H492.2V315.3H492.3ZM488.6 289.3H462.6V297.7H459V289.3H437.2V297.7H433.6V289.3H411.8V297.7H408.2V289.3H386.4V297.7H382.8V289.3H361V297.7H357.4V289.3H335.6V297.7H332V289.3H310.2V297.7H306.6V289.3H284.8V297.7H281.2V289.3H255.2V315.4H263.6V319H255.2V340.8H263.6V344.4H255.2V366.2H263.6V369.8H255.2V391.6H263.6V395.2H255.2V417H263.6V420.8H255.2V442.6H263.6V446.2H255.2V468H263.6V471.6H255.2V493.4H263.6V497H255.2V522.9H281.2V514.5H284.8V522.9H306.6V514.5H310.2V522.9H332V514.5H335.6V522.9H357.4V514.5H361V522.9H382.8V514.5H386.4V522.9H408.2V514.5H411.8V522.9H433.6V514.5H437.2V522.9H459V514.5H462.6V522.9H488.6V497H480.2V493.4H488.6V471.6H480.2V468H488.6V446.2H480.2V442.6H488.6V420.8H480.2V417.2H488.6V395.3H480.2V391.7H488.6V369.9H480.2V366.3H488.6V344.5H480.2V340.9H488.6V319.1H486.3H480.2V315.5H488.6V314.4V289.3ZM126.7 150.6L8.1 221.4L45.2 267.4L48.1 265.2L13.5 222.4L128.6 153.9L126.7 150.6ZM256.1 26.9L264.9 0L268.4 1.2L259.9 27.2L274.7 38.3C283 44.5 296.8 54.8 303.9 60.1L304.6 60.6L305.2 61L327.6 45.4L329.7 48.4L306.5 64.6L279.9 100.3L283.3 102.9L270.9 119.5L204 69.6L203 70C201.4 70.5 199.8 71.1 198.3 71.2H197.8H197.4L154.4 120.9L203.1 148.4L203.8 148.3C204.3 148.2 204.8 148.2 205.3 148.2C211.2 148.2 216.7 150.9 220.9 155C225.1 159.3 227.6 164.9 227.6 170.7C227.6 172.1 227.5 173.4 227.2 174.8L226.6 177.7H227.7V202.6H224C224 198.8 224 191.9 224 190.1V184.7L219.9 188.4C215.8 192.2 210.2 194.3 204.5 194.3C200.4 194.3 196.5 193.2 193.1 191.2L189.5 189V193.3C189.5 196.4 189.5 206.1 189.5 211.2H185.9V184.5L185.5 183.9C185.1 183.2 184.6 182.4 184.2 181.5L184.1 181.2L184 181L128.6 138.6L128.1 138.5C123.7 137.5 120.2 135 117.4 132.2C114.9 128.8 113.6 124.6 113.6 120.4C113.7 116.6 114.8 112.7 117.3 109.5C119.6 106.3 123 104.1 126.7 102.9L126.9 102.8L127.1 102.7L178 58.3L177.7 56.9C177.3 55.2 177.2 53.6 177.2 52.1C177.3 46.1 179.7 41.7 183.2 38.6C186.7 35.5 191.6 33.8 196.4 33.8C200.7 33.8 204.8 35.2 208.1 37.9C211.4 40.6 213.9 44.7 214.7 50.7L214.8 51.2L214.9 51.6L229.5 62.5L256.1 26.9ZM132.5 134.9C136.4 134.9 140.3 133.4 143.2 130.7C146.1 128 148 124.3 148 119.8C148 119.1 147.9 118.3 147.8 117.6C147.3 113.6 145.1 110.3 142.4 108.1C139.6 105.9 136.1 104.7 132.6 104.7C128.5 104.7 124.5 106.4 121.5 109.8H121.4L120.7 110.8C118.7 113.6 117.7 116.8 117.7 120C117.7 123.6 119 127.2 121.5 129.7V129.8L121.6 129.9C124.6 133.3 128.5 134.9 132.5 134.9ZM191.3 156.5C187.7 159.8 185.3 164.8 185.3 171.1V171.2C185.3 171.9 185.3 172.7 185.4 173.4V173.5C186.3 178.8 188.9 183 192.4 185.8C195.9 188.6 200.3 190 204.7 190C208.6 190 212.6 188.8 216 186.4C219.3 183.9 222 180.3 223.3 175.5V175.4C223.6 173.8 223.7 172.2 223.7 170.7C223.8 164.6 221.4 159.7 217.6 156.5C214 153.3 209.2 151.7 204.4 151.7C199.8 151.7 195 153.3 191.3 156.5ZM151.2 123.1L150.3 126C148.8 131.2 144.4 135.7 139.4 137.6L135.3 139.1L181.3 174.2L181.5 169.6C181.6 165.9 182.9 162 184.9 158.7C186.9 155.4 189.8 152.6 193.1 150.8L196.9 148.8L193.1 146.7L151.2 123.1ZM192.7 70.8L189.4 69.6C186.2 68.4 183.2 66.2 181.3 63.4L179.8 61.3L177.8 63L134.3 100.8L138.6 102.1C144.1 103.7 148.9 108.4 150.7 114L152 118.1L192.7 70.8ZM210.7 51.9L211 51.5L211.2 51.2L211.1 50.3C210.9 46 208.8 42.6 205.9 40.3C203.1 38.1 199.4 36.8 195.8 36.8C193.6 36.8 191.3 37.3 189.3 38.3C187.6 39.2 186.1 40.3 184.8 41.9L184.1 42.9C182.1 45.6 181.1 48.7 181.1 51.7C181.1 55.8 182.7 59.6 185.2 62.4C187.9 65.3 191.6 67.3 195.9 67.3C196.9 67.3 197.8 67.2 198.9 67L199.4 66.9L199.8 66.8L200.3 66.1C202.5 62.9 208.5 55 210.7 51.9ZM241.5 89.1C242.7 87.4 245.2 84 246.5 82.3L247.9 80.4L246 79C243.5 77.1 231.3 68 229 66.3C225.7 63.7 218.9 58.7 215.5 56.2L213.6 54.8L213 55.7L205.7 65.5L207.6 66.9C214.3 71.9 231.3 84.6 238.2 89.8L240.1 91.2L241.5 89.1ZM278.5 102.9L276.6 101.5C275 100.3 255.1 85.5 252.8 83.8L250.9 82.4L249.5 84.3C248.3 86 245.8 89.4 244.5 91.1L244.4 91.2L244.3 91.3L244.2 91.5L243.3 93.3L270.6 113.7L272 111.8L278.5 102.9ZM273.9 44.3L267.4 53.1L278 61L285.9 50.3L284 48.9C283.3 48.4 278 44.5 277.2 43.9L275.3 42.5L273.9 44.3ZM257.7 30.8L232.7 64.5L234.6 65.9L249.9 77.3L255 81.1L277.3 97.8L303 63.2L288.9 52.7L278.8 66.3L262.3 54L272.4 40.4L258.3 29.9L257.7 30.8Z" fill="#FEFEFE" fill-opacity="0.3"/>
</svg>
