<svg width="71" height="83" viewBox="0 0 71 83" fill="none" xmlns="http://www.w3.org/2000/svg">
<path d="M43.1883 42.8944H59.0998C59.7684 45.5504 62.0414 47.4096 64.983 47.4096C68.3258 47.4096 71 44.7536 71 41.4336C71 38.1136 68.3258 35.4576 64.983 35.4576C62.0414 35.4576 59.6347 37.4496 59.0998 40.2384H43.1883V34.2624H47.0659C47.6008 36.1216 49.4727 37.5824 51.4783 37.5824C54.0188 37.5824 56.1582 35.4576 56.1582 32.9344C56.1582 30.4112 54.0188 28.2864 51.4783 28.2864C49.339 28.2864 47.6008 29.7472 47.0659 31.6064H43.1883V28.8176V22.3104H54.42C55.0885 24.9664 57.3616 26.8256 60.3032 26.8256C61.1055 26.8256 61.774 26.0288 61.774 25.3648C61.774 24.7008 61.2392 24.0368 60.4369 24.0368C58.6987 24.0368 57.2279 22.576 57.2279 20.8496C57.2279 19.1232 58.6987 17.6624 60.4369 17.6624C62.1751 17.6624 63.6459 19.1232 63.6459 20.8496C63.6459 21.5136 64.1808 22.1776 64.983 22.1776C65.6516 22.1776 66.3201 21.6464 66.3201 20.8496C66.3201 17.5296 63.6459 14.8736 60.3032 14.8736C57.3616 14.8736 54.9548 16.8656 54.42 19.6544H43.1883V13.944V12.2176H47.0659C47.7345 14.0768 49.4727 15.4048 51.4783 15.4048C54.0188 15.4048 56.1582 13.28 56.1582 10.7568C56.1582 8.2336 54.0188 6.1088 51.4783 6.1088C49.339 6.1088 47.467 7.5696 46.9322 9.5616H43.1883V1.328C43.1883 0.664 42.6535 0 41.8512 0H35.968C33.5612 0 31.5556 1.992 31.5556 4.3824V14.4752C31.0207 14.7408 30.3522 15.0064 29.8173 15.272L22.4633 7.968C20.8588 6.3744 17.9171 6.3744 16.3126 7.968L8.0226 16.2016C6.28437 17.928 6.28437 20.584 8.0226 22.3104L15.3766 29.6144C15.2429 29.7472 15.2429 29.88 15.2429 30.1456C15.1092 30.544 14.8418 30.9424 14.7081 31.3408H4.41243C2.00565 31.3408 0 33.3328 0 35.7232V47.2768C0 49.6672 2.00565 51.6592 4.41243 51.6592H14.7081C14.8418 52.1904 15.1092 52.8544 15.3766 53.3856L8.0226 60.6896C7.08663 61.4864 6.6855 62.5488 6.6855 63.744C6.6855 64.9392 7.22034 66.0016 8.0226 66.7984L16.3126 75.032C17.9171 76.6256 20.8588 76.6256 22.4633 75.032L29.8173 67.728C30.3522 67.9936 31.0207 68.1264 31.5556 68.392V78.6176C31.5556 81.008 33.5612 83 35.968 83H41.8512C42.6535 83 43.1883 82.336 43.1883 81.5392V73.4384H47.0659C47.6008 75.2976 49.4727 76.7584 51.4783 76.7584C54.0188 76.7584 56.1582 74.6336 56.1582 72.1104C56.1582 69.5872 54.0188 67.4624 51.4783 67.4624C49.339 67.4624 47.6008 68.9232 47.0659 70.7824H43.1883V68.7904V63.3456H54.42C55.0885 66.0016 57.3616 67.9936 60.3032 67.9936C63.6459 67.9936 66.3202 65.3376 66.4539 62.1504C66.4539 60.2912 65.5179 58.5648 64.0471 57.3696C63.5122 56.9712 62.5763 56.9712 62.1751 57.6352C61.774 58.1664 61.774 59.096 62.4426 59.4944C63.2448 60.0256 63.6459 60.9552 63.6459 62.0176C63.6459 63.744 62.1751 65.2048 60.4369 65.2048C58.6987 65.2048 57.2279 63.744 57.2279 62.0176C57.2279 61.2208 57.4953 60.424 58.0301 59.8928C58.565 59.2288 58.4313 58.432 57.8964 57.9008C57.2279 57.3696 56.4256 57.5024 55.8908 58.0336C55.0885 58.8304 54.6874 59.76 54.42 60.6896H43.1883V54.0496V51.3936H47.0659C47.7345 53.2528 49.4727 54.5808 51.4783 54.5808C54.0188 54.5808 56.1582 52.5888 56.1582 49.9328C56.1582 47.4096 54.0188 45.2848 51.4783 45.2848C49.339 45.2848 47.467 46.7456 46.9322 48.7376H43.1883V42.8944ZM64.983 38.2464C66.7213 38.2464 68.1921 39.7072 68.1921 41.4336C68.1921 43.16 66.7213 44.6208 64.983 44.6208C63.2448 44.6208 61.774 43.16 61.774 41.4336C61.774 39.7072 63.2448 38.2464 64.983 38.2464ZM51.4783 31.0752C52.548 31.0752 53.3503 31.872 53.3503 32.9344C53.3503 33.9968 52.548 34.7936 51.4783 34.7936C50.4087 34.7936 49.6064 33.9968 49.6064 32.9344C49.6064 31.872 50.4087 31.0752 51.4783 31.0752ZM51.4783 8.8976C52.548 8.8976 53.3503 9.8272 53.3503 10.7568C53.3503 11.8192 52.548 12.616 51.4783 12.616C50.4087 12.616 49.6064 11.8192 49.6064 10.7568C49.6064 9.6944 50.4087 8.8976 51.4783 8.8976ZM51.4783 70.2512C52.548 70.2512 53.3503 71.048 53.3503 72.1104C53.3503 73.1728 52.548 73.9696 51.4783 73.9696C50.4087 73.9696 49.6064 73.1728 49.6064 72.1104C49.6064 71.048 50.4087 70.2512 51.4783 70.2512ZM51.4783 48.0736C52.548 48.0736 53.3503 49.0032 53.3503 49.9328C53.3503 50.9952 52.548 51.792 51.4783 51.792C50.4087 51.792 49.6064 50.9952 49.6064 49.9328C49.6064 48.8704 50.4087 48.0736 51.4783 48.0736ZM40.5141 67.5952C38.2411 67.4624 36.1017 67.064 33.9623 66.4C33.8286 66.2672 33.6949 66.1344 33.5612 66.1344C32.4915 65.736 31.4218 65.3376 30.3522 64.8064C30.2185 64.6736 30.0847 64.6736 29.8173 64.6736C25.0038 62.1504 20.9925 58.2992 18.5857 53.5184C18.5857 53.3856 18.5857 53.12 18.452 52.9872C17.9171 51.9248 17.516 50.8624 17.1149 49.8C17.1149 49.6672 16.9812 49.5344 16.8475 49.4016C16.0452 46.8784 15.6441 44.2224 15.6441 41.5664C15.6441 38.7776 16.0452 36.1216 16.9812 33.5984C17.1149 33.4656 17.1149 33.3328 17.1149 33.2C17.516 32.1376 17.9171 31.0752 18.452 30.0128C18.452 29.88 18.5857 29.7472 18.5857 29.6144C21.1262 24.7008 25.2712 20.7168 30.2185 18.1936H30.3522C31.4218 17.6624 32.4915 17.264 33.5612 16.8656C35.7006 16.2016 38.1073 15.6704 40.5141 15.5376V27.6224C33.4275 28.2864 27.8117 34.2624 27.8117 41.4336C27.8117 48.6048 33.4275 54.5808 40.5141 55.2448V67.5952ZM40.5141 52.5888C34.8983 51.9248 30.6196 47.144 30.6196 41.4336C30.6196 35.7232 34.8983 30.9424 40.5141 30.2784V52.5888ZM34.4972 4.3824C34.4972 3.4528 35.1657 2.7888 36.1017 2.7888H40.5141V12.616C38.5085 12.7488 36.3691 13.0144 34.4972 13.5456V4.3824ZM10.162 20.4512C9.49341 19.7872 9.49341 18.8576 10.162 18.1936L18.452 9.96C19.1205 9.296 20.0565 9.296 20.725 9.96L27.2768 16.4672C22.8644 18.9904 19.2542 22.576 16.7137 26.9584L10.162 20.4512ZM2.94162 47.2768V35.7232C2.94162 34.7936 3.61017 34.1296 4.54614 34.1296H13.7721C13.1036 36.52 12.8362 38.9104 12.8362 41.4336C12.8362 43.9568 13.2373 46.48 13.7721 48.8704H4.54614C3.61017 48.8704 2.94162 48.2064 2.94162 47.2768ZM20.725 72.9072C20.0565 73.5712 19.1205 73.5712 18.452 72.9072L10.162 64.6736C9.76083 64.408 9.62712 64.0096 9.62712 63.6112C9.62712 63.2128 9.89454 62.8144 10.162 62.5488L16.8475 55.9088C19.3879 60.1584 22.9981 63.744 27.4105 66.2672L20.725 72.9072ZM40.5141 80.2112H36.1017C35.1657 80.2112 34.4972 79.5472 34.4972 78.6176V69.3216C36.3691 69.8528 38.5085 70.1184 40.5141 70.2512V80.2112Z" fill="white"/>
</svg>
