<svg width="79" height="77" viewBox="0 0 79 77" fill="none" xmlns="http://www.w3.org/2000/svg">
<path d="M35.9733 8.78757C20.672 8.78757 8.208 21.3516 8.208 36.7758C8.208 52.2 20.672 64.7641 35.9733 64.7641C36.6826 64.7641 37.2906 65.377 37.2906 66.092C37.2906 66.807 36.6826 67.4199 35.9733 67.4199C19.2533 67.4199 5.57333 53.7322 5.57333 36.7758C5.57333 19.9216 19.152 6.13175 35.9733 6.13175C51.5786 6.13175 64.5493 17.8786 66.1706 33.5071C66.272 34.2222 65.7653 34.835 65.056 34.9372C64.3466 35.0393 63.7386 34.5286 63.6373 33.8136C62.1173 19.513 50.2613 8.78757 35.9733 8.78757ZM37.4933 70.4843C36.9866 70.4843 36.48 70.4843 35.9733 70.4843C17.5307 70.4843 2.53333 55.3666 2.53333 36.7758C2.53333 18.1851 17.5307 3.06734 35.9733 3.06734C53.504 3.06734 68.1973 16.8572 69.312 34.5286C69.4133 35.2436 70.0213 35.7544 70.7306 35.7544C71.44 35.6522 71.9466 35.0393 71.9466 34.3243C70.6293 15.4271 54.8213 0.513672 35.9733 0.513672C16.112 0.513672 0 16.755 0 36.7758C0 56.7966 16.112 73.038 35.9733 73.038C36.5813 73.038 37.088 73.038 37.5946 73.038C38.304 73.038 38.8106 72.4251 38.8106 71.7101C38.8106 70.995 38.2026 70.4843 37.4933 70.4843ZM54.8213 25.1311L40.736 34.6307L41.8506 35.7544C42.3573 36.2651 42.3573 37.0823 41.8506 37.593L36.8853 42.5982C36.6827 42.9046 36.3787 43.0068 35.9733 43.0068C35.6693 43.0068 35.264 42.9046 35.0613 42.5982L30.096 37.593C29.5893 37.0823 29.5893 36.2651 30.096 35.7544L34.656 31.1577V19.9216C34.656 19.2066 35.264 18.5937 35.9733 18.5937C36.6826 18.5937 37.2906 19.2066 37.2906 19.9216V31.1577L38.8106 32.6899L53.4026 22.8838C54.0106 22.4753 54.8213 22.6796 55.2266 23.2924C55.632 23.9053 55.4293 24.7225 54.8213 25.1311ZM39.216 36.7758L38.1013 35.6522C37.8986 35.5501 37.696 35.3458 37.4933 35.1415C37.4933 35.0393 37.4933 35.0393 37.392 34.9372L36.0746 33.6093L32.9333 36.7758L36.0746 39.9424L39.216 36.7758ZM78.3306 53.7322V58.431C78.3306 60.3718 76.8106 61.904 74.8853 61.904H72.656V62.0061C72.5546 62.2104 72.4533 62.4147 72.4533 62.619L74.0746 64.2533C75.392 65.5813 75.392 67.8285 74.0746 69.1564L70.832 72.4251C69.5146 73.753 67.2853 73.753 65.968 72.4251L64.3466 70.7907C64.144 70.8929 63.84 70.995 63.6373 71.0972V73.3444C63.6373 75.2852 62.1173 76.8174 60.192 76.8174H55.5306C53.6053 76.8174 52.0853 75.2852 52.0853 73.3444V71.0972C51.984 71.0972 51.984 70.995 51.8826 70.995C51.7813 70.995 51.68 70.8929 51.5786 70.8929C51.4773 70.8929 51.4773 70.7907 51.376 70.7907L49.6533 72.4251C48.336 73.753 46.1066 73.753 44.7893 72.4251L41.5466 69.1564C40.2293 67.8285 40.2293 65.5813 41.5466 64.2533L43.168 62.619C43.0666 62.4147 42.9653 62.1083 42.864 61.904H40.6346C38.7093 61.904 37.1893 60.3718 37.1893 58.431V53.7322C37.1893 51.7914 38.7093 50.2592 40.6346 50.2592H42.864C42.9653 50.0549 43.0666 49.7485 43.168 49.5442L41.5466 47.9098C40.2293 46.5819 40.2293 44.3347 41.5466 43.0068L44.7893 39.7381C46.1066 38.4102 48.336 38.4102 49.6533 39.7381L51.2746 41.3724C51.4773 41.2703 51.7813 41.1681 51.984 41.066V38.8188C51.984 36.878 53.504 35.3458 55.4293 35.3458H60.0906C62.016 35.3458 63.536 36.878 63.536 38.8188V41.066C63.7386 41.1681 64.0426 41.2703 64.2453 41.3724L65.8666 39.7381C67.184 38.4102 69.4133 38.4102 70.7306 39.7381L73.9733 43.0068C75.2906 44.3347 75.2906 46.5819 73.9733 47.9098L72.352 49.5442C72.352 49.6463 72.4533 49.6463 72.4533 49.7485C72.4533 49.8506 72.5546 49.9528 72.5546 50.0549C72.5546 50.1571 72.656 50.1571 72.656 50.2592H74.8853C76.8106 50.2592 78.3306 51.7914 78.3306 53.7322ZM69.5146 62.4147C69.5146 62.3126 69.5146 62.2104 69.616 62.2104C70.0213 61.4954 70.224 60.7803 70.4266 60.1675C70.4266 60.0653 70.528 59.9632 70.528 59.9632C70.9333 58.7374 71.136 57.5117 71.136 56.0816C71.136 54.7537 70.9333 53.5279 70.6293 52.3022C70.528 52.2 70.528 52.0979 70.4266 51.9957C70.224 51.2807 69.92 50.5657 69.616 49.9528C69.616 49.8506 69.5146 49.7485 69.5146 49.7485C67.8933 46.7862 65.1573 44.4368 61.8133 43.3132C60.5973 42.9046 59.28 42.7003 57.8613 42.7003C50.5653 42.7003 44.5866 48.727 44.5866 56.0816C44.5866 63.4362 50.5653 69.4628 57.8613 69.4628C59.28 69.4628 60.5973 69.2585 61.8133 68.85H61.9146C65.1573 67.7263 67.8933 65.4791 69.5146 62.4147ZM67.5893 41.6789L66.576 42.7003C68.4 43.824 69.92 45.3562 71.0346 47.1948L72.048 46.1733C72.352 45.8669 72.352 45.3562 72.048 44.9476L68.8053 41.6789C68.5013 41.3724 67.9946 41.3724 67.5893 41.6789ZM54.6186 38.9209V40.4531C55.632 40.2488 56.7466 40.1467 57.8613 40.1467C58.8746 40.1467 59.888 40.2488 60.9013 40.4531V38.9209C60.9013 38.4102 60.496 38.1037 60.0906 38.1037H55.4293C54.9226 38.1037 54.6186 38.5123 54.6186 38.9209ZM43.472 46.1733L44.5866 47.297C45.8026 45.5605 47.3226 44.0283 49.0453 42.8025L47.9306 41.6789C47.6266 41.3724 47.12 41.3724 46.7146 41.6789L43.472 44.9476C43.168 45.254 43.168 45.7648 43.472 46.1733ZM40.736 59.2481H42.256C42.0533 58.2267 41.952 57.2052 41.952 56.1837C41.952 55.0601 42.0533 53.9365 42.256 52.915H40.736C40.2293 52.915 39.9253 53.3236 39.9253 53.7322V58.431C39.9253 58.9417 40.3306 59.2481 40.736 59.2481ZM48.944 69.4628C47.2213 68.2371 45.7013 66.7049 44.4853 64.9684L43.472 65.9898C43.168 66.2963 43.168 66.807 43.472 67.2156L46.7146 70.4843C47.0186 70.7907 47.5253 70.7907 47.9306 70.4843L48.944 69.4628ZM60.9013 71.9144C59.888 72.1187 58.8746 72.2208 57.8613 72.2208C56.7466 72.2208 55.632 72.1187 54.6186 71.9144V73.2423C54.6186 73.753 55.024 74.0594 55.4293 74.0594H60.0906C60.5973 74.0594 60.9013 73.6509 60.9013 73.2423V71.9144ZM71.0346 64.9684C69.8186 66.7049 68.2986 68.3392 66.576 69.4628L67.5893 70.4843C67.8933 70.7907 68.4 70.7907 68.8053 70.4843L72.048 67.2156C72.352 66.9092 72.352 66.3984 72.048 65.9898L71.0346 64.9684ZM75.5946 53.7322C75.5946 53.2215 75.1893 52.915 74.784 52.915H73.4666C73.6693 53.9365 73.7706 55.0601 73.7706 56.1837C73.7706 57.2052 73.6693 58.2267 73.4666 59.2481H74.784C75.2906 59.2481 75.5946 58.8396 75.5946 58.431V53.7322ZM57.8613 47.7055C57.152 47.7055 56.544 48.3184 56.544 49.0335C56.544 49.7485 57.152 50.3614 57.8613 50.3614C61.0026 50.3614 63.6373 53.0172 63.6373 56.1837C63.6373 59.3503 61.0026 62.0061 57.8613 62.0061C54.72 62.0061 52.0853 59.4524 52.0853 56.1837C52.0853 55.4687 51.4773 54.8558 50.768 54.8558C50.0586 54.8558 49.4506 55.4687 49.4506 56.1837C49.4506 60.8825 53.2 64.6619 57.8613 64.6619C62.4213 64.6619 66.272 60.8825 66.272 56.1837C66.272 51.485 62.5226 47.7055 57.8613 47.7055Z" fill="white"/>
</svg>
