<svg width="146" height="137" viewBox="0 0 146 137" fill="none" xmlns="http://www.w3.org/2000/svg">
<path d="M78.6063 113.021H135.88C139.752 113.021 142.94 109.833 142.94 105.961V9.85942C142.94 5.98802 139.752 2.7998 135.88 2.7998H66.6505C62.7791 2.7998 59.7047 5.98802 59.7047 9.85942V57.7965M73.9379 67.93H87.0323V79.0887H78.9479M35.5652 71.5739H47.7487C55.3777 71.5739 61.5264 77.8364 61.5264 85.4654C61.5264 92.9804 55.3777 99.243 47.7487 99.243H35.5652V71.5739ZM35.5652 71.5739V118.714M28.8473 108.239H42.7388M28.8473 99.0154H42.7388M124.038 15.211H78.4923C75.9873 15.211 73.8239 17.6021 73.8239 20.4487V29.4441C73.8239 32.4045 75.8734 34.6818 78.4923 34.6818H124.038C126.543 34.6818 128.707 32.2907 128.707 29.4441V20.4487C128.707 17.4883 126.543 15.211 124.038 15.211ZM116.751 48.2316H128.707V59.3903H116.751V48.2316ZM95.9138 48.2316H107.87V59.3903H95.9138V48.2316ZM95.9138 67.93H107.87V79.0887H95.9138V67.93ZM75.0765 48.2316H87.0323V59.3903H75.0765V48.2316ZM95.9138 87.6289H107.87V98.7877H95.9138V87.6289ZM128.707 98.9012H116.751V67.93H128.707V98.9012ZM83.1608 94.1194C83.1608 116.255 65.2162 134.2 43.0804 134.2C20.9446 134.2 3 116.255 3 94.1194C3 71.9836 20.9446 54.039 43.0804 54.039C65.2162 54.039 83.1608 71.9836 83.1608 94.1194Z" stroke="#444444" stroke-width="4.45" stroke-miterlimit="10"/>
</svg>
