<svg width="458" height="504" viewBox="0 0 458 504" fill="none" xmlns="http://www.w3.org/2000/svg">
<path d="M554.4 276.8C554.4 143.3 457.7 25.7 321.6 3.6C306.6 1.2 291.6 0 276.9 0C143.3 0 25.7 96.7 3.6 232.8C1.2 247.8 0 262.8 0 277.5C0 411 96.7 528.7 232.8 550.7C247.8 553.1 262.8 554.3 277.5 554.3C411 554.3 528.6 457.6 550.7 321.5C553.2 306.6 554.4 291.6 554.4 276.8ZM547.5 321.1C525.7 455.6 409.4 551.2 277.5 551.2C262.9 551.2 248.1 550 233.3 547.6C98.9 525.7 3.2 409.5 3.2 277.5C3.2 262.9 4.4 248.1 6.8 233.3C28.6 98.9 144.9 3.2 276.8 3.2C291.4 3.2 306.2 4.4 321 6.8C455.5 28.6 551.1 144.9 551.1 276.8C551.1 291.4 550 306.2 547.5 321.1ZM277.2 48.2C150.8 48.2 48.3 150.7 48.3 277.1C48.3 403.5 150.8 506 277.2 506C403.6 506 506.1 403.5 506.1 277.1C506.1 150.7 403.6 48.2 277.2 48.2ZM459.4 278.8H502.9C502.5 340.5 477.3 396.3 436.8 436.8C396.3 477.3 340.5 502.5 278.8 502.9V459.4C278.8 458.5 278.1 457.8 277.2 457.8C276.3 457.8 275.6 458.5 275.6 459.4V502.9C213.9 502.5 158.1 477.3 117.6 436.8C77.1 396.3 51.9 340.5 51.5 278.8H95C95.9 278.8 96.6 278.1 96.6 277.2C96.6 276.3 95.9 275.6 95 275.6H51.5C51.9 213.9 77.1 158.1 117.6 117.6C158.1 77.1 213.9 51.9 275.6 51.5V95C275.6 95.9 276.3 96.6 277.2 96.6C278.1 96.6 278.8 95.9 278.8 95V51.5C340.5 51.9 396.3 77.1 436.8 117.6C477.3 158.1 502.5 213.9 502.9 275.6H459.4C458.5 275.6 457.8 276.3 457.8 277.2C457.7 278.1 458.5 278.8 459.4 278.8ZM141.5 139.2C142.1 139.8 142.1 140.9 141.5 141.5C141.2 141.8 140.8 142 140.4 142C140 142 139.6 141.8 139.3 141.5L123.4 125.6C122.8 125 122.8 123.9 123.4 123.3C123.7 123 124.1 122.8 124.5 122.8C124.9 122.8 125.3 123 125.6 123.3L141.5 139.2ZM141.5 412.8C142.1 413.4 142.1 414.5 141.5 415.1L125.6 431C125.3 431.3 124.9 431.5 124.5 431.5C124.1 431.5 123.7 431.3 123.4 431C122.8 430.4 122.8 429.3 123.4 428.7L139.3 412.8C139.6 412.5 140 412.3 140.4 412.3C140.8 412.4 141.2 412.5 141.5 412.8ZM431.1 428.8C431.7 429.4 431.7 430.5 431.1 431.1C430.8 431.4 430.4 431.6 430 431.6C429.6 431.6 429.2 431.4 428.9 431.1L413 415.2C412.4 414.6 412.4 413.5 413 412.9C413.3 412.6 413.7 412.4 414.1 412.4C414.5 412.4 414.9 412.6 415.2 412.9L431.1 428.8ZM431.1 123.3C431.7 123.9 431.7 125 431.1 125.6L415.2 141.5C414.9 141.8 414.5 142 414.1 142C413.7 142 413.3 141.8 413 141.5C412.4 140.9 412.4 139.8 413 139.2L428.9 123.3C429.2 123 429.6 122.8 430 122.8C430.3 122.8 430.8 123 431.1 123.3ZM295.7 292.8C299.3 288.6 301.4 283.1 301.4 277.2C301.4 264.4 291.4 253.9 278.8 253V122.1C278.8 121.2 278.1 120.5 277.2 120.5C276.3 120.5 275.6 121.2 275.6 122.1V253C263 253.8 253 264.3 253 277.2C253 290.6 263.8 301.4 277.2 301.4C283.4 301.4 289.1 299 293.4 295.2L376.9 376.2C377.2 376.5 377.6 376.7 378 376.7C378.4 376.7 378.8 376.5 379.2 376.2C379.8 375.6 379.8 374.5 379.2 373.9L295.7 292.8ZM262.3 292C258.5 288.2 256.2 283 256.2 277.2C256.2 271.4 258.5 266.2 262.3 262.4C266.1 258.6 271.3 256.3 277.1 256.3C282.9 256.3 288.1 258.6 291.9 262.4C295.7 266.2 298 271.4 298 277.2C298 282.8 295.8 287.9 292.2 291.6C292.1 291.6 292.1 291.7 292 291.7C291.9 291.8 291.9 291.8 291.9 291.9L291.8 292C288 295.8 282.8 298.1 277 298.1C271.4 298.1 266.1 295.8 262.3 292Z" fill="white" fill-opacity="0.3"/>
</svg>
