<svg width="534" height="589" viewBox="0 0 534 589" fill="none" xmlns="http://www.w3.org/2000/svg">
<path d="M373.1 387.9H377.9V392.7H375.5H373V387.9H373.1ZM377.9 349.8H373.1V354.6H375.6H378V349.8H377.9ZM373.1 373.7H375.6H378V368.9H373.2V373.7H373.1ZM247.5 233.3H233.3V238.1H247.5V233.3ZM332.8 228.6H335.3H337.7V223.8H332.9V228.6H332.8ZM619.8 585.1V587.6L615 587.8V585.6C616.4 573.7 602.8 568.2 590.8 563.3C588.8 562.5 586.9 561.8 585.2 560.9L584.3 560.5L583.4 560.9C581.1 561.9 578.6 562.4 576.1 562.4C573.6 562.4 571.3 561.9 569.1 561L568.2 560.6L567.3 561L557.6 565.1C556.5 565.6 555.2 566.1 554.1 566.6C546.4 569.9 538.5 573.4 537.5 583.3V583.6V583.9C537.6 584.5 537.6 586.2 537.6 587.5L532.8 587.7V587.6H532.6C532.6 586.3 532.6 584.4 532.7 583.9V583.6V583.3C532 572.3 520.4 567.8 511.1 564.2C508.2 563.1 505.6 561.9 503.3 560.8L502.3 560.3L501.3 560.8C499.2 561.8 496.7 562.3 494.2 562.3C491.7 562.3 489.3 561.8 487.1 560.9L486.2 560.5L485.3 560.9L475.6 565C474.5 565.5 473.2 566 472.1 566.5C464.4 569.8 456.5 573.3 455.5 583.2V583.5V583.8C455.6 584.4 455.6 586.1 455.6 587.4L450.8 587.6V587.5H450.6C450.6 586.2 450.6 584.3 450.7 583.8L450.8 583.5V583.2C450 572.2 438.4 567.7 429.1 564.1C426.2 563 423.6 561.8 421.3 560.7L420.3 560.2L419.3 560.7C417.3 561.7 414.8 562.2 412.3 562.2C409.8 562.2 407.4 561.6 405.1 560.7L404.2 560.3L403.3 560.7C401.6 561.4 399.7 562.1 397.8 563C385.9 567.8 372.5 573.1 373.3 583.5V583.6V583.7C373.4 584.3 373.4 586 373.4 587.3L368.6 587.5V584.7V584.5V584.3C368.5 583.8 368.5 583.6 368.5 583.3C369.2 569.5 380.3 565 392 560.2C393.5 559.6 395.2 559 396.7 558.3L399.5 557.1L397.7 554.7C392.5 547.8 391.7 539.1 395.4 531.6C398.9 524.6 405.5 520.1 412.2 520.1C417.3 520.1 422.1 522.7 426.3 527.6L427.3 528.8L428.8 528.2C430 527.7 431.8 527.1 433.4 526.5C434.6 526.1 435.8 525.6 436.8 525.3L439.8 524.2L437.9 521.6C433.1 515.5 432.6 506.4 436.4 498.7C439.8 491.9 445.7 487.8 452.4 487.8C452.5 487.8 452.7 487.8 452.8 487.8H452.9H453C453.1 487.8 453.3 487.8 453.4 487.8C460 487.8 465.9 491.9 469.3 498.7C473.2 506.5 472.7 515.5 468 521.6L466.1 524.2L469.1 525.3L471.2 526.1C473.3 526.9 475.8 527.7 477.5 528.5L479.2 529.1L480.2 527.6C483.3 523.1 488.6 520.4 494.3 520.4C500 520.4 505.3 523.1 508.4 527.5L509.4 528.9L511.1 528.3C512.4 527.8 514.2 527.2 515.9 526.6C517.1 526.2 518.3 525.8 519.3 525.4L522.3 524.3L520.4 521.7C515.6 515.6 515.1 506.5 518.9 498.8C522.3 492 528.2 487.9 534.9 487.9C535 487.9 535.2 487.9 535.3 487.9H535.4H535.5C535.6 487.9 535.8 487.9 535.9 487.9C542.4 487.9 548.4 492 551.8 498.8C555.7 506.6 555.2 515.6 550.5 521.7L548.6 524.3L551.6 525.4L553.7 526.2C555.9 527 558.3 527.9 559.9 528.6L561.4 529.1L562.5 527.9C566.6 523 571.5 520.4 576.6 520.4C583.3 520.4 589.8 524.9 593.3 531.9C597.1 539.4 596.3 548.1 591.2 554.9L589.5 557.3L592.2 558.5C593.8 559.2 595.6 559.9 597.2 560.7C608.9 565.2 620.2 569.9 619.8 585.1ZM526.5 521.1C529 523.6 531.9 524.8 535.1 524.8C538.7 524.8 542.3 523.2 545 520.3C548 517.1 549.6 512.9 549.4 508.6C549.3 499.7 543 492.4 535.3 492.4H535.1C529.5 492.4 524.8 496.1 522.5 502.2C520 509.3 521.5 517.1 526.5 521.1ZM443.8 521.1C446.3 523.6 449.2 524.8 452.4 524.8C456 524.8 459.6 523.2 462.3 520.3C465.3 517.1 466.9 512.9 466.7 508.6C466.7 504.4 465.3 500.4 462.7 497.3C460 494.1 456.5 492.4 452.7 492.4H452.5C446.9 492.4 442.2 496.1 439.9 502.2C437.4 509.3 438.9 517.1 443.8 521.1ZM426 539.8C425.5 532.6 421 525.3 412.2 525H412.1H412C402.7 525.2 398 533.5 398.1 541.5C398.2 549.4 403.1 557.4 412.2 557.4C412.8 557.4 413.4 557.4 414 557.3H414.1C423 555.7 426.5 547.1 426 539.8ZM481.8 556.9L479.9 554.4C475.8 549.3 474.3 541.4 476.2 535.2L476.8 533.2L474.8 532.4C473.3 531.8 468.6 530 465.1 528.8C463.9 528.4 462.8 528 462.2 527.8L461.2 527.4L460.3 527.9C458 529.1 455.4 529.7 452.6 529.7C449.9 529.7 447.4 529.1 445.1 528L444.2 527.5L443.3 527.8C442.7 528 441.5 528.4 440.1 528.9C436.9 530.1 432.6 531.7 431.3 532.2L429.3 533L430 535.1C431.9 541.2 430.5 549.2 426.5 554.3L424.7 556.8L427.6 558C428.2 558.3 428.9 558.5 429.5 558.8C437.8 562.3 447.1 566.2 451.4 571.7L453.2 574.1L455 571.8C459.4 566.3 466.8 563.3 473.9 560.3L478.9 558.1L481.8 556.9ZM508.2 539.9C507.7 532.7 503.2 525.4 494.4 525.1H494.3H494.2C484.5 525.5 480.2 534 480.4 541.7C480.6 549.5 485.4 557.5 494.3 557.5C494.9 557.5 495.6 557.4 496.4 557.3C505.3 555.7 508.7 547.1 508.2 539.9ZM564.1 557L562.2 554.5C558.1 549.4 556.7 541.4 558.6 535.2L559.2 533.2L557.2 532.4C555.9 531.8 551.2 530 547.7 528.8C546.5 528.4 545.4 528 544.9 527.8L543.9 527.4L543 527.9C540.7 529.1 538.1 529.7 535.3 529.7C532.6 529.7 530.1 529.1 527.8 528L526.9 527.5L526 527.8C525.3 528 524.2 528.4 522.7 528.9C519.4 530 515.1 531.7 513.7 532.2L511.7 533L512.3 535.1C514.2 541.3 512.8 549.2 508.8 554.3L507 556.8L509.9 558C510.5 558.3 511.2 558.5 511.8 558.8C520.1 562.3 529.4 566.2 533.7 571.7L535.5 574.1L537.3 571.8C541.7 566.3 549.1 563.3 556.2 560.3L561.2 558.1L564.1 557ZM590.7 539.4C589.9 530.9 584.1 525 576.8 524.9H576.7H576.6C566.9 525.3 562.6 533.8 562.8 541.5C563 549.4 567.8 557.4 576.7 557.4C577.3 557.4 578 557.4 578.7 557.3H578.8C587.8 555.5 591.2 546.8 590.7 539.4ZM278.2 460.5H276.8L276.2 461.7L239.2 533.1L237.5 536.6H241.4H247.3V589H195V564.5V562.4L192.9 562.2L107.3 553L104.7 552.7V555.4V570H66.5V531.9H73.7H77.4L75.8 528.5L49.6 473.8L49 472.5H47.6H0V401.1H51.4H52.8L53.4 399.9L79.4 349.9L81.1 346.4H77.2H66.5V289.3H123.5V319.8V321.8L125.5 322.1L196.8 333.1L199.5 333.5V330.7V317.8H242.2V360.6H240.4H236.3L238.4 364.2L274.9 426L275.6 427.1H276.9H299.3V460.4H278.2V460.5ZM223.4 445.2V447.6V468V472L226.9 470.1L262.8 450.4L270.6 446.1L261.7 445.9L225.8 445.2H223.4ZM225.8 440.4L263.8 441.1H266.2V438.7V436.8V435.6L265.2 434.9L227.2 409.2L223.5 406.7V411.1V438V440.4H225.8ZM231.6 361.9L230.9 360.8H229.6H225.8H223.4V363.2V399.7V400.9L224.4 401.6L262.4 427.3L266.1 429.8V427.2H270.2L268.1 423.6L231.6 361.9ZM204.4 355.9H206.8H235.4H237.8V353.5V325V322.6H235.4H206.8H204.4V325V341.9V353.6V355.9ZM218.7 474.5V473.1V447.4V445H216.3L167.1 444.1L163.2 444L164.9 447.5L186.2 489.4L187.3 491.6L189.4 490.5L217.2 475.2L218.7 474.5ZM215.2 481.8L191.7 494.7L189.7 495.8L190.7 497.8L209.8 535.3L210.4 536.6H211.8H216.2H218.6V534.2V484V480L215.2 481.8ZM90.2 437.8L90.3 435.5L91 417.4L91.2 413.4L87.6 415.2L72.7 422.9L71.4 423.5V424.9V435V437.4H73.8L87.9 437.7H90.2V437.8ZM87.5 442.6L73.7 442.3H71.3V444.7V458.8V460.1L72.3 460.8L85.2 469.4L88.7 471.8L88.9 467.6L89.8 445.1L89.9 442.6H87.5ZM91.1 531.9H93.6H94.5H95.8L96.5 530.8L116.8 498.9L118 497L116.1 495.8L96.8 482.9L93.3 480.5L93.1 484.7L91.3 529.5L91.1 531.9ZM118.4 491.5L120.4 492.8L121.7 490.8L149.3 447.3L151.6 443.7L147.4 443.6L97 442.7H94.7L94.6 445L93.4 473.5L93.3 474.8L94.4 475.5L118.4 491.5ZM96 411.1L95.9 412.4L95 435.6L94.9 438H97.4L151.4 439L155.3 439.1L153.6 435.6L132.8 394.8L131.8 392.7L129.7 393.8L97.5 410.3L96 411.1ZM99.9 403.5L127.3 389.4L129.3 388.4L128.3 386.4L108.7 347.9L108.1 346.6H106.7H101H98.7L98.6 348.9L96.5 401.5L96.3 405.5L99.9 403.5ZM136.9 392.5L156.1 430.2L157.9 433.9L160.2 430.4L188.4 386L189.6 384.1L187.7 382.8L173 372.9L171.9 372.1L170.7 372.7L138 389.4L136 390.4L136.9 392.5ZM124.4 495.5L126.3 496.7L148.2 511.3L149.4 512.1L150.6 511.4L181 494.8L183 493.7L182 491.7L159.3 447.2L157.5 443.5L155.2 447L125.6 493.6L124.4 495.5ZM218.7 440.1V437.7V404.5V403.3L217.7 402.6L195.9 387.9L193.9 386.6L192.6 388.6L162.7 435.5L160.4 439.1L164.6 439.2L216.3 440.2L218.7 440.1ZM218.6 397.7V393.3V363.1V360.7H216.2H211.5H210.2L209.5 361.8L197.5 380.6L196.3 382.5L198.2 383.8L214.9 395.1L218.6 397.7ZM199.7 360.7V357.7L196.3 359.4L180.4 367.5L176.8 369.3L180.1 371.6L190.3 378.5L192.3 379.8L193.6 377.8L202.2 364.3L204.5 360.7H200.2H199.7ZM123.7 332.2V333.3L124.7 334L171.2 365.3L172.3 366.1L173.5 365.5L198.3 352.8L199.6 352.2V350.8V340.4V338.4L197.6 338.1L126.3 327.1L123.6 326.7V329.5V332.3H123.7V332.2ZM123.6 346.5H117.4H113.5L115.2 349.9L132.6 384.1L133.6 386.2L135.7 385.1L163.7 370.8L167.3 369L164 366.7L127.2 341.8L123.5 339.3V343.7V346.5H123.6ZM116.5 341.7H118.9V339.3V296.5V294.1H116.5H73.7H71.3V296.5V339.3V341.7H73.7H116.5ZM58.1 401H62H71.3V414.2V418.1L74.7 416.4L90.2 408.4L91.4 407.8L91.5 406.5L93.9 349L94 346.5H91.5H88H86.6L86 347.7L60 397.7L58.1 401ZM64.2 467.7H66.6V465.3V408.3V406H64.2H7.2H4.8V408.4V465.4V467.8H7.2H42.9H64.2V467.7ZM81.7 530.1L86.2 529.2L88.3 478.5L88.4 477.2L87.3 476.5L74.9 468.2L71.2 465.7V470.1V472.4H57.9H54.2L55.8 475.8L81.7 530.1ZM99.8 536.6H97.4H73.7H71.3V539V562.8V565.2H73.7H97.4H99.8V562.8V548.8V539.1V536.6ZM101.4 531.8H104.8V532.7V536.7L108.3 534.8L141.6 516.7L145 514.9L141.7 512.8L124 501L122 499.7L120.7 501.7L103.7 528.3L101.4 531.9V531.8ZM194.9 548.1L193.9 547.4L150.5 518.4L149.3 517.6L148.1 518.3L105.9 541.3L104.7 542V543.4V545.7V547.9L106.8 548.1L192.4 557.3L195 557.6V554.9V549.5V548.1H194.9ZM194.8 538V536.6H201H204.9L203.2 533.2L186.4 500.2L185.3 498.1L183.2 499.2L157.4 513.3L154 515.1L157.3 517.3L191.3 539.9L195 542.4V538H194.8ZM202 541.4H199.6V543.8V581.8V584.2H202H240H242.4V581.8V543.8V541.4H240H202ZM271.5 460.4H267.6H266.2V457.8V453.8L262.7 455.7L224.7 476.5L223.5 477.2V478.6V534.1V536.5H225.9H230.6H232L232.6 535.3L269.6 463.9L271.5 460.4ZM292.3 455.8H294.7V453.4V434.4V432H292.3H282.7H273.3H270.9V434.4V453.4V455.8H273.3H292.3ZM113.8 280L75.9 233.1L74.2 231L76.6 229.7L173.5 172L171 167.9L67.1 229.7L110.1 282.9L113.8 280ZM279 46.7C284 41.7 290.5 38.8 297.4 38.8C301.5 38.8 305.6 39.8 309.5 41.8L311.1 42.6L310.7 44.4L310.2 46.5L322.2 49.4L320.4 41.6L319.4 37.4L314.7 38.5L313.8 38.7L313 38.2C308.2 35.4 303.1 34 297.8 34C289.7 34 281.7 37.4 275.8 43.3C270.3 48.8 267.1 56 266.6 63.8L271.3 64.3C271.5 57.6 274.4 51.5 279 46.7ZM185.8 129.9C185.8 92.9 185.8 57.3 185.8 46C185.8 36.1 194.4 29.4 207.2 29.4H250.5H254.6L252.6 25.8L248.8 19.1L281.9 0L288.3 11.5L289.1 12.8L290.6 12.6C292.9 12.3 294.9 12.2 297 12.2C299.1 12.2 301.2 12.3 303.4 12.6L304.9 12.8L305.7 11.5L312.7 0L346 19.1L342.2 25.8L340.2 29.4H344.3H463.4C476.2 29.4 484.8 36.1 484.8 46V55.5V202.7C484.8 205.7 484.8 210.6 484.8 215.4C484.8 219.7 484.8 223.8 484.8 226.5C484.8 236.5 477.6 245.3 467.7 247.4L465.9 247.8V249.7C465.9 253.4 465.9 262.5 465.9 271C465.9 278.3 465.9 285.1 465.9 288.1C465.9 294.7 460.6 300 454 300H368.6C362.1 300 356.7 294.7 356.7 288.1V285.7H354.3H281.2H280.8V280.9H290.5H291.5L292.2 280.1C299 272.5 303.3 261.9 304.2 250.2L304.4 247.6H301.8H272.6H271L270.5 249.1C268.8 253.8 264.4 257 259.3 257H221.3C216.3 257 211.9 253.8 210.1 249.1L209.5 247.5L207.8 247.6C207.6 247.6 207.3 247.6 207.1 247.6C201.4 247.6 196 245.3 192 241.3C188 237.3 185.8 231.9 185.8 226.3C185.9 214.4 185.9 171.4 185.8 129.9ZM266.5 159.8C266.5 155.9 263.3 152.7 259.4 152.7H245.2H242.8V155.1V157.5H238V155.1V152.7H235.6H221.4C217.5 152.7 214.3 155.9 214.3 159.8V202.5C214.3 207.5 214.3 216.4 214.3 225.1C214.3 233 214.3 240.6 214.3 245.2C214.3 249.1 217.5 252.3 221.4 252.3H259.4C263.3 252.3 266.5 249.1 266.5 245.2V203V159.8ZM356.6 247.6H354.2H311.3H309.2L309.1 249.8C308.4 259.9 305.4 269.4 300.5 277.1L298.1 280.7H302.4H354.2H356.6V278.3V249.8V247.6ZM356.6 209.7H354.2H273.6H271.2V212.1V240.6V243H273.6H354.2H356.6V240.6V212V209.7ZM460.8 276.1H458.4H415.8H413.4V278.5V280.9H408.6V278.5V276.1H406.2H363.5H361.1V278.5V283.2V287.9C361.1 291.8 364.3 295 368.2 295H453.6C457.5 295 460.7 291.8 460.7 287.9V278.4V276.1H460.8ZM460.8 162.2H458.4H363.5H361.1V164.6V269V271.4H363.5H458.4H460.8V269V245.2V164.5V162.2ZM460.7 155.1V150.4C460.7 146.5 457.5 143.3 453.6 143.3H368.2C364.3 143.3 361.1 146.5 361.1 150.4V155.1V157.5H363.5H458.4H460.8V155.1H460.7ZM479.9 209.7H477.5H468H465.6V212.1V239.6V243L468.8 241.9C475.5 239.5 479.9 233.3 479.9 226.3V212V209.7ZM340.3 34.1L342.4 37.7C343.8 40.1 345 42.3 345.9 44.4L346.5 45.8H348H361.3V46V48.4H363.7H477.5H479.9V46C479.9 37.2 471.3 34.1 463.3 34.1H344.5H340.3ZM262 32.6C257.5 37.8 253.9 44.1 251.6 50.6H240.5H238.1V53V77V79.4H240.5H251.6C253.9 86 257.4 92.2 262 97.4L256.5 106.9L255.3 108.9L257.3 110L278.2 122.1L280.2 123.2L281.3 121.2L286.8 111.7C290.3 112.4 293.8 112.7 297.2 112.7C300.7 112.7 304.2 112.4 307.6 111.7L313.1 121.2L314.2 123.2L316.2 122.1L337.1 110L339.1 108.9L337.9 106.9L332.4 97.4C337 92.2 340.6 86 342.8 79.4H353.9H356.3V77V52.8V50.4H353.9H343C340.5 43.8 337 37.6 332.6 32.4V32.3L338 22.9L339.2 20.9L337.2 19.7L316.3 7.6L314.3 6.5L313.2 8.5L307.7 18C304.2 17.3 300.7 17 297.3 17C293.9 17 290.3 17.3 286.9 18L281.4 8.5L280.3 6.5L278.3 7.6L257.4 19.7L255.4 20.9L256.6 22.9L259.6 28.1L261.3 31.1L262 32.6ZM190.7 48.3H193.1H231.1H233.5V46V45.8H246.8H248.3L248.9 44.4C249.8 42.4 250.9 40.1 252.4 37.7L254.5 34.1H250.3H207.3C199.3 34.1 190.7 37.3 190.7 46V48.3ZM190.6 202.5V204.9H193H207.2H209.6V202.5V159.8C209.6 153.2 214.9 147.9 221.5 147.9H229.7H241H252.4H259.4C265.9 147.9 271.3 153.2 271.3 159.8V202.5V204.9H273.7H354.3H356.7V202.5V155.1V150.4C356.7 143.8 362 138.5 368.6 138.5H454C460.5 138.5 465.9 143.8 465.9 150.4V155.1V202.5V204.9H468.4H477.9H480.3V202.5V55.5V53.1H477.9H363.8H361.4V55.5V84.2H348.1H346.6L346 85.6C344.3 89.5 342.1 93.3 339.6 96.7L338.7 97.9L339.5 99.2L346.2 110.7L312.9 129.8L306.2 118.3L305.4 117L303.9 117.2C301.6 117.5 299.6 117.6 297.5 117.6C295.4 117.6 293.3 117.5 291.1 117.2L289.6 117L288.8 118.3L282.1 129.8L248.8 110.7L255.5 99.2L256.3 97.9L255.4 96.7C252.8 93.3 250.6 89.6 249 85.6L248.4 84.2H246.9H233.6V55.5V53.1H231H193H190.6V55.5V202.5ZM190.7 226.2C190.7 235.3 198.2 242.8 207.3 242.8H209.7V240.4V212V209.6H207.3H193H190.6V212V226.2H190.7ZM297.1 91C292.5 91 288.1 89.8 284.3 87.3L282.9 86.4L283.3 84.8L283.9 82.4L278.1 81L276.9 80.7L272.1 79.6L273.2 84.4L273.5 85.6L274.9 91.4L279.2 90.4L280.2 90.2L281 90.7C286 94 291.6 95.6 297.4 95.6C305.2 95.6 312.8 92.6 318.6 87.1C324.1 81.9 327.7 75 328.5 67.5L323.6 66.7L323.2 69.1C321.5 81.5 310 91 297.1 91ZM596.2 231.1L594.5 233.1L537.2 304.3L540.9 307.3L603.4 229.8L498.9 167.8L496.4 171.9L593.8 229.7L596.2 231.1ZM373 530.5V497.1H389.7H392.1V494.7V465.3V463.7L390.6 463.2C384.3 461.1 382.2 455 383 450.1C383.7 445.5 387.3 440.2 394.6 440.2C401.9 440.2 405.3 445.5 406.2 450.1C407 455 405.1 461 398.6 463.2L397.1 463.7V465.3V501.8H380.4H378V504.2V530.4H373.2H373V530.5ZM394.6 459.1C399.1 459.1 401.6 455.5 401.6 452C401.6 448.5 399.1 444.9 394.5 444.9C389.9 444.9 387.5 448.5 387.5 452C387.5 455.5 389.9 459.1 394.6 459.1ZM397 330.9H392.2V335.7H394.6H397.1V330.9H397ZM358.9 368.9H354.2V373.7H356.6H359V368.9H358.9ZM392.2 354.6H394.6H397.1V349.8H392.3V354.6H392.2ZM392.2 373.7H394.6H397.1V368.9H392.3V373.7H392.2ZM358.9 387.9H354.2V392.7H356.6H359V387.9H358.9ZM281.3 487.9L277.6 490.9L331.9 557.8L335.6 554.8L281.3 487.9ZM354 549.5V484.4V482.8L352.5 482.3C346.2 480.2 344.1 474.1 344.9 469.2C345.6 464.6 349.2 459.3 356.5 459.3C363.8 459.3 367.2 464.6 368.1 469.2C368.9 474.1 367 480.1 360.5 482.3L359 482.8V484.4V542.3V544.7H361.4H378V549.5H354.2H354ZM356.6 478.2C361.2 478.2 363.6 474.6 363.6 471.1C363.6 467.6 361.1 464 356.5 464C351.9 464 349.5 467.6 349.5 471.1C349.5 474.6 351.9 478.2 356.6 478.2ZM354.2 411.7H356.6H359V406.9H354.3V411.7H354.2ZM494.3 306.9C507.4 306.9 520 309.9 531.7 315.8L533.6 316.8L533.7 316.7L537.9 319.1L537.8 319.2L539.7 320.4C574.6 342.2 587.7 391.1 568.4 427.4L567.4 429.4L567.5 429.5L565.1 433.7L565 433.6L563.8 435.5C549.3 458.7 522.4 473.2 493.6 473.2C480.6 473.2 467.9 470.1 456.9 464.3L454.9 463.3V463.4C453.6 462.7 452 461.8 450.7 461L450.8 460.9L449 459.7C431.9 448.5 419.6 431.4 414.3 411.7C409 391.9 411.1 371 420.3 352.7L421.3 350.8L421.2 350.7L423.6 346.5L423.7 346.6L424.9 344.8C440.3 321.2 466.3 307.2 494.3 306.9ZM434.1 407.8L434.4 405.8L432.4 405.3C428.1 404.2 424.1 403.5 420.3 402.9L417 402.5L417.6 405.7C419.7 416.3 423.9 426.2 430.1 435.1L434.3 433.4C432.9 425.6 432.8 417 434.1 407.8ZM435.9 398.6C438.3 388.5 442 378.3 447.4 368.4L448.4 366.4L446.5 365.3L427.6 354.3L425.5 353.1L424.4 355.4C418.2 368 415.4 381.9 416.3 395.6L416.4 397.6L418.4 397.8C422.9 398.1 427.8 399 433 400.4L435.4 401L435.9 398.6ZM534 410.5L536.1 411.7L537.2 409.5C542.3 399.8 546 389.9 548.3 380.2L548.8 378.2L546.8 377.5C536.6 374.1 525.9 369.4 515.2 363.5L513.2 362.4L512.1 364.4L498.9 387.3L497.8 389.3L499.8 390.4L534 410.5ZM531.6 414.5L497.2 394.6L495.2 393.4L494.1 395.4L480.9 418.3L479.8 420.3L481.7 421.5C492.1 427.8 501.6 434.7 509.5 441.9L511.1 443.3L512.6 441.9C520 435.1 526.6 427 532.5 417.7L533.8 415.7L531.6 414.5ZM508.9 360.2L507 359C496.6 352.7 487.1 345.8 479.2 338.6L477.6 337.2L476.1 338.6C468.8 345.4 462.2 353.5 456.3 362.8L455 364.8L457.1 366L491.5 385.9L493.5 387L494.6 385L507.9 362.1L508.9 360.2ZM454.8 370.1L452.6 368.9L451.5 371.1C446.4 380.8 442.7 390.7 440.4 400.4L439.9 402.4L441.9 403.1C452.1 406.4 462.8 411.1 473.5 417L475.5 418.1L476.6 416.1L489.8 393.2L490.9 391.2L488.9 390.1L454.8 370.1ZM471.8 424.4L473 422.4L470.9 421.3C461 415.9 451.1 411.5 441.6 408.2L438.8 407.3L438.5 410.2C438 414.5 437.8 418.6 437.9 422.4C438.3 436.9 442.8 448.3 450.9 455.3L453 457.1L454.4 454.6L471.8 424.4ZM470 462.1C481.1 462.1 495 456.8 505.2 448.4L507.3 446.7L505.2 444.9C497.7 438.2 488.9 431.9 479.3 426.1L477.3 424.9L476.1 426.9L458.7 457L457.4 459.4L459.9 460.4C462.8 461.5 466.2 462.1 470 462.1ZM522.5 463.3L520.6 460.7C518.2 457.7 515.6 454.6 512.4 451.4L511 449.9L509.4 451.2C502.1 456.9 494.7 461.1 487.2 463.7L487.7 468.3C490.1 468.5 492.3 468.6 494.7 468.6C503.5 468.6 511.9 467.2 519.6 464.4L522.5 463.3ZM560.9 431.6L558.8 430.4L539.9 419.4L538 418.3L536.8 420.2C530.9 429.7 524 438.2 516.4 445.3L514.7 446.9L516.3 448.6C520.1 452.5 523.4 456.3 525.9 460L527 461.6L528.8 460.7C541.2 454.7 551.8 445.2 559.6 433.6L560.9 431.6ZM554.7 372.7L554.4 374.7L556.4 375.2C560.7 376.3 564.8 377 568.6 377.6L571.8 378L571.2 374.8C569.4 364.7 565 354.5 558.6 345.3L554.4 347.1C555.8 354.9 555.9 363.5 554.7 372.7ZM541.4 412.2L540.4 414.2L542.3 415.3L561.2 426.3L563.3 427.5L564.4 425.2C570.6 412.6 573.4 398.7 572.5 385L572.4 383L570.4 382.8C565.9 382.4 561 381.5 555.8 380.1L553.4 379.5L552.9 381.9C550.6 392 546.7 402.1 541.4 412.2ZM516.8 356.2L515.6 358.2L517.7 359.3C527.6 364.7 537.5 369.1 547 372.4L549.7 373.3L550.1 370.5C552.6 355 549.1 334 537.7 325.3L535.6 323.7L534.3 326.1L516.8 356.2ZM518 318.3C504.6 318.3 491.9 325.8 483.6 332L481.2 333.7L483.3 335.6C490.8 342.3 499.6 348.6 509.2 354.4L511.2 355.6L512.4 353.6L529.8 323.5L531.2 321L528.5 320.1C525.4 319.1 521.7 318.5 518 318.3ZM466.4 317.3L468.3 319.9C470.6 323 473.3 326 476.4 329.2L477.8 330.7L479.4 329.4C486.7 323.8 494.1 319.6 501.5 317L500.9 312.4C498.8 312.2 496.6 312.1 494.5 312.1C485.9 312.1 477.4 313.4 469.3 316.2L466.4 317.3ZM429.2 347L427.8 349L429.9 350.2L448.8 361.2L450.7 362.3L451.9 360.4C457.8 350.9 464.7 342.4 472.3 335.3L474 333.7L472.4 332C468.6 328.1 465.3 324.3 462.8 320.6L461.7 319L459.9 319.9C447.5 326 436.9 335.3 429.2 347Z" fill="#FF8C83"/>
</svg>
