<svg width="209" height="20" viewBox="0 0 209 20" fill="none" xmlns="http://www.w3.org/2000/svg">
<path d="M11.446 15.2658H9.04365V9.09077H2.83764V15.2658H0.425781V1.36957H2.83764V7.15331H9.04365V1.36957H11.446V15.2658Z" fill="white"/>
<path d="M20.244 15.2659C20.1423 15.0686 20.0533 14.7473 19.977 14.3019C19.2398 15.0718 18.3373 15.4567 17.2696 15.4567C16.2337 15.4567 15.3885 15.1609 14.7339 14.5691C14.0793 13.9774 13.752 13.2457 13.752 12.374C13.752 11.2732 14.1587 10.4302 14.9722 9.8448C15.792 9.25306 16.9614 8.95719 18.4803 8.95719H19.9008V8.27956C19.9008 7.74509 19.7514 7.31878 19.4527 7.00065C19.154 6.67615 18.6996 6.51389 18.0895 6.51389C17.562 6.51389 17.1298 6.64751 16.793 6.91475C16.4562 7.17562 16.2877 7.50967 16.2877 7.91688H13.9712C13.9712 7.3506 14.1587 6.82249 14.5337 6.33256C14.9086 5.83626 15.4171 5.44813 16.0589 5.16817C16.7072 4.88821 17.4285 4.74823 18.2229 4.74823C19.4305 4.74823 20.3933 5.05364 21.1115 5.66447C21.8296 6.26893 22.1982 7.12154 22.2173 8.2223V12.8798C22.2173 13.8088 22.3476 14.5501 22.6082 15.1036V15.2659H20.244ZM17.6986 13.5956C18.1562 13.5956 18.5852 13.4843 18.9856 13.2616C19.3923 13.0389 19.6974 12.7399 19.9008 12.3644V10.4174H18.6519C17.794 10.4174 17.1489 10.567 16.7167 10.866C16.2846 11.1651 16.0685 11.5882 16.0685 12.1354C16.0685 12.5808 16.2147 12.9371 16.507 13.2043C16.8057 13.4652 17.2029 13.5956 17.6986 13.5956Z" fill="white"/>
<path d="M24.7344 4.93909H27.0509V13.4143H31.0738V4.93909H33.3904V13.4143H34.7917L34.6011 18.3295H32.4943V15.2658H24.7344V4.93909Z" fill="white"/>
<path d="M42.8666 4.93909H45.1736V15.2658H42.8666V8.37498L38.8246 15.2658H36.5176V4.93909H38.8246V11.83L42.8666 4.93909Z" fill="white"/>
<path d="M47.2031 10.007C47.2031 8.99537 47.4033 8.0855 47.8037 7.27743C48.2041 6.46299 48.7665 5.83944 49.4911 5.40678C50.2156 4.96775 51.0481 4.74823 51.9887 4.74823C53.3805 4.74823 54.5086 5.1968 55.3729 6.09395C56.2436 6.9911 56.7139 8.18094 56.7838 9.66346L56.7934 10.2075C56.7934 11.2255 56.5963 12.1354 56.2023 12.9371C55.8146 13.7388 55.2554 14.3592 54.5245 14.7982C53.8 15.2372 52.9611 15.4567 52.0078 15.4567C50.5524 15.4567 49.3862 14.9732 48.5092 14.006C47.6385 13.0325 47.2031 11.7377 47.2031 10.1216V10.007ZM49.5196 10.2075C49.5196 11.2701 49.7389 12.1036 50.1774 12.708C50.616 13.3061 51.2261 13.6052 52.0078 13.6052C52.7895 13.6052 53.3964 13.2998 53.8286 12.689C54.2671 12.0781 54.4864 11.1842 54.4864 10.007C54.4864 8.96356 54.2608 8.1364 53.8095 7.52557C53.3646 6.91475 52.7577 6.60934 51.9887 6.60934C51.2324 6.60934 50.6318 6.91157 50.187 7.51603C49.7421 8.11413 49.5196 9.01128 49.5196 10.2075Z" fill="white"/>
<path d="M67.4902 15.2658H65.1737V11.0951H61.1603V15.2658H58.8438V4.93909H61.1603V9.24349H65.1737V4.93909H67.4902V15.2658Z" fill="white"/>
<path d="M76.1268 15.2659C76.0251 15.0686 75.9361 14.7473 75.8598 14.3019C75.1226 15.0718 74.2202 15.4567 73.1525 15.4567C72.1165 15.4567 71.2713 15.1609 70.6167 14.5691C69.9621 13.9774 69.6348 13.2457 69.6348 12.374C69.6348 11.2732 70.0415 10.4302 70.855 9.8448C71.6748 9.25306 72.8442 8.95719 74.3632 8.95719H75.7836V8.27956C75.7836 7.74509 75.6342 7.31878 75.3355 7.00065C75.0368 6.67615 74.5824 6.51389 73.9723 6.51389C73.4448 6.51389 73.0126 6.64751 72.6758 6.91475C72.339 7.17562 72.1706 7.50967 72.1706 7.91688H69.854C69.854 7.3506 70.0415 6.82249 70.4165 6.33256C70.7914 5.83626 71.2999 5.44813 71.9418 5.16817C72.59 4.88821 73.3113 4.74823 74.1058 4.74823C75.3133 4.74823 76.2761 5.05364 76.9943 5.66447C77.7124 6.26893 78.081 7.12154 78.1001 8.2223V12.8798C78.1001 13.8088 78.2304 14.5501 78.491 15.1036V15.2659H76.1268ZM73.5815 13.5956C74.039 13.5956 74.468 13.4843 74.8684 13.2616C75.2752 13.0389 75.5802 12.7399 75.7836 12.3644V10.4174H74.5348C73.6768 10.4174 73.0317 10.567 72.5995 10.866C72.1674 11.1651 71.9513 11.5882 71.9513 12.1354C71.9513 12.5808 72.0975 12.9371 72.3898 13.2043C72.6885 13.4652 73.0857 13.5956 73.5815 13.5956Z" fill="white"/>
<path d="M89.2922 4.93909V15.2658H86.9757V6.80974H84.0586L83.8679 10.4079C83.7472 12.1385 83.4135 13.3825 82.8669 14.1396C82.3267 14.8904 81.4974 15.2658 80.3788 15.2658H79.6638L79.6543 13.3379L80.131 13.2902C80.6394 13.2202 81.008 12.9116 81.2368 12.3644C81.4719 11.8109 81.6213 10.8055 81.6848 9.34848L81.8755 4.93909H89.2922Z" fill="white"/>
<path d="M94.2501 8.22227H96.519C97.3643 8.22227 98.1015 8.36861 98.7307 8.6613C99.3598 8.95399 99.8365 9.36438 100.161 9.89249C100.491 10.4206 100.656 11.0346 100.656 11.7345C100.656 12.7971 100.281 13.6497 99.5314 14.2923C98.7815 14.935 97.7837 15.2595 96.5381 15.2658H91.9336V4.93909H94.2501V8.22227ZM94.2501 10.0834V13.4143H96.5095C97.0751 13.4143 97.52 13.2743 97.8441 12.9943C98.1746 12.708 98.3398 12.304 98.3398 11.7822C98.3398 11.2605 98.1777 10.8501 97.8536 10.551C97.5359 10.2456 97.1037 10.0897 96.5571 10.0834H94.2501Z" fill="white"/>
<path d="M111.246 15.2658H108.93V11.0951H104.916V15.2658H102.6V4.93909H104.916V9.24349H108.93V4.93909H111.246V15.2658Z" fill="white"/>
<path d="M116.213 8.22227H118.482C119.327 8.22227 120.064 8.36861 120.694 8.6613C121.323 8.95399 121.799 9.36438 122.123 9.89249C122.454 10.4206 122.619 11.0346 122.619 11.7345C122.619 12.7971 122.244 13.6497 121.494 14.2923C120.744 14.935 119.747 15.2595 118.501 15.2658H113.896V4.93909H116.213V8.22227ZM126.652 15.2658H124.335V4.93909H126.652V15.2658ZM116.213 10.0834V13.4143H118.472C119.038 13.4143 119.483 13.2743 119.807 12.9943C120.137 12.708 120.303 12.304 120.303 11.7822C120.303 11.2605 120.141 10.8501 119.817 10.551C119.499 10.2456 119.067 10.0897 118.52 10.0834H116.213Z" fill="white"/>
<path d="M135.87 4.93909H138.177V15.2658H135.87V8.37498L131.828 15.2658H129.521V4.93909H131.828V11.83L135.87 4.93909ZM136.957 0.978271C136.957 1.77998 136.678 2.42898 136.118 2.92528C135.559 3.42157 134.812 3.66972 133.878 3.66972C132.944 3.66972 132.197 3.42157 131.638 2.92528C131.079 2.42898 130.799 1.77998 130.799 0.978271H132.534C132.534 1.39821 132.652 1.7259 132.887 1.96132C133.128 2.19038 133.459 2.30491 133.878 2.30491C134.298 2.30491 134.625 2.19038 134.86 1.96132C135.095 1.7259 135.213 1.39821 135.213 0.978271H136.957Z" fill="white"/>
<path d="M154.25 15.2658H151.933V6.80974H147.91V15.2658H145.594V4.93909H154.25V15.2658Z" fill="white"/>
<path d="M165.746 10.2075C165.746 11.8045 165.384 13.0803 164.66 14.0347C163.935 14.9827 162.963 15.4567 161.742 15.4567C160.611 15.4567 159.706 15.0845 159.026 14.3401V19.2362H156.709V4.93911H158.844L158.94 5.98897C159.62 5.16181 160.544 4.74823 161.714 4.74823C162.972 4.74823 163.957 5.21907 164.669 6.16076C165.387 7.09609 165.746 8.39727 165.746 10.0643V10.2075ZM163.439 10.007C163.439 8.97628 163.233 8.15867 162.82 7.55421C162.413 6.94974 161.828 6.64751 161.066 6.64751C160.119 6.64751 159.439 7.03882 159.026 7.82144V12.4026C159.445 13.2043 160.131 13.6052 161.085 13.6052C161.822 13.6052 162.397 13.3093 162.81 12.7176C163.23 12.1195 163.439 11.216 163.439 10.007Z" fill="white"/>
<path d="M167.281 10.007C167.281 8.99537 167.481 8.0855 167.882 7.27743C168.282 6.46299 168.845 5.83944 169.569 5.40678C170.294 4.96775 171.126 4.74823 172.067 4.74823C173.459 4.74823 174.587 5.1968 175.451 6.09395C176.322 6.9911 176.792 8.18094 176.862 9.66346L176.871 10.2075C176.871 11.2255 176.674 12.1354 176.28 12.9371C175.893 13.7388 175.334 14.3592 174.603 14.7982C173.878 15.2372 173.039 15.4567 172.086 15.4567C170.631 15.4567 169.464 14.9732 168.587 14.006C167.717 13.0325 167.281 11.7377 167.281 10.1216V10.007ZM169.598 10.2075C169.598 11.2701 169.817 12.1036 170.256 12.708C170.694 13.3061 171.304 13.6052 172.086 13.6052C172.868 13.6052 173.475 13.2998 173.907 12.689C174.345 12.0781 174.564 11.1842 174.564 10.007C174.564 8.96356 174.339 8.1364 173.888 7.52557C173.443 6.91475 172.836 6.60934 172.067 6.60934C171.311 6.60934 170.71 6.91157 170.265 7.51603C169.82 8.11413 169.598 9.01128 169.598 10.2075Z" fill="white"/>
<path d="M183.374 15.4567C181.906 15.4567 180.714 14.9954 179.799 14.0729C178.89 13.1439 178.436 11.9095 178.436 10.3697V10.0834C178.436 9.05264 178.633 8.13322 179.027 7.32515C179.427 6.51071 179.986 5.87762 180.704 5.42586C181.423 4.97411 182.223 4.74823 183.107 4.74823C184.511 4.74823 185.595 5.1968 186.358 6.09395C187.127 6.9911 187.511 8.26047 187.511 9.90206V10.8374H180.771C180.841 11.69 181.124 12.3645 181.62 12.8607C182.122 13.357 182.751 13.6052 183.507 13.6052C184.568 13.6052 185.433 13.1757 186.1 12.3167L187.349 13.5097C186.936 14.1269 186.383 14.6073 185.69 14.9509C185.004 15.2881 184.232 15.4567 183.374 15.4567ZM183.097 6.60934C182.462 6.60934 181.947 6.83203 181.553 7.27743C181.165 7.72282 180.917 8.34319 180.809 9.13853H185.223V8.96674C185.172 8.19048 184.966 7.60511 184.603 7.21062C184.241 6.80976 183.739 6.60934 183.097 6.60934Z" fill="white"/>
<path d="M192.983 11.181H191.811V15.2658H189.494V4.93909H191.811V9.06215H192.831L195.681 4.93909H198.541L194.814 9.88295L198.856 15.2658H195.843L192.983 11.181Z" fill="white"/>
<path d="M208.246 6.78111H204.9V15.2658H202.583V6.78111H199.275V4.93909H208.246V6.78111Z" fill="white"/>
</svg>
