<svg width="255" height="72" viewBox="0 0 255 72" fill="none" xmlns="http://www.w3.org/2000/svg">
<path d="M101 4.72262H100.202V2.68152H98.1417V4.72262H97.3409V0.129344H98.1417V2.04111H100.202V0.129344H101V4.72262Z" fill="white"/>
<path d="M103.922 4.72262C103.888 4.65743 103.859 4.55122 103.833 4.404C103.589 4.65848 103.289 4.78572 102.934 4.78572C102.59 4.78572 102.31 4.68792 102.092 4.49233C101.875 4.29674 101.766 4.05487 101.766 3.76674C101.766 3.4029 101.901 3.12423 102.171 2.93074C102.444 2.73515 102.832 2.63735 103.336 2.63735H103.808V2.41336C103.808 2.2367 103.758 2.09579 103.659 1.99063C103.56 1.88337 103.409 1.82974 103.207 1.82974C103.031 1.82974 102.888 1.87391 102.776 1.96224C102.664 2.04847 102.608 2.15888 102.608 2.29349H101.839C101.839 2.10631 101.901 1.93174 102.026 1.7698C102.15 1.60576 102.319 1.47746 102.532 1.38492C102.748 1.29239 102.987 1.24612 103.251 1.24612C103.652 1.24612 103.972 1.34707 104.21 1.54897C104.449 1.74877 104.571 2.03059 104.577 2.39444V3.93394C104.577 4.241 104.621 4.48602 104.707 4.66899V4.72262H103.922ZM103.077 4.17055C103.229 4.17055 103.371 4.13374 103.504 4.06013C103.639 3.98652 103.741 3.88767 103.808 3.76359V3.12002H103.393C103.108 3.12002 102.894 3.16945 102.751 3.2683C102.607 3.36714 102.535 3.507 102.535 3.68787C102.535 3.83509 102.584 3.95287 102.681 4.0412C102.78 4.12743 102.912 4.17055 103.077 4.17055Z" fill="white"/>
<path d="M105.413 1.30921H106.182V4.11061H107.518V1.30921H108.287V4.11061H108.753L108.689 5.73529H107.99V4.72262H105.413V1.30921Z" fill="white"/>
<path d="M111.434 1.30921H112.2V4.72262H111.434V2.44491L110.092 4.72262H109.326V1.30921H110.092V3.58692L111.434 1.30921Z" fill="white"/>
<path d="M112.874 2.98437C112.874 2.64997 112.941 2.34922 113.074 2.08212C113.206 1.81292 113.393 1.60681 113.634 1.46379C113.874 1.31868 114.151 1.24612 114.463 1.24612C114.925 1.24612 115.3 1.39439 115.587 1.69093C115.876 1.98748 116.032 2.38077 116.055 2.8708L116.059 3.05062C116.059 3.38712 115.993 3.68787 115.862 3.95287C115.734 4.21787 115.548 4.42292 115.305 4.56804C115.065 4.71316 114.786 4.78572 114.47 4.78572C113.986 4.78572 113.599 4.62588 113.308 4.3062C113.019 3.98442 112.874 3.55643 112.874 3.02223V2.98437ZM113.643 3.05062C113.643 3.40185 113.716 3.67736 113.862 3.87716C114.007 4.07485 114.21 4.1737 114.47 4.1737C114.729 4.1737 114.931 4.07275 115.074 3.87085C115.22 3.66895 115.293 3.37345 115.293 2.98437C115.293 2.63945 115.218 2.36604 115.068 2.16414C114.92 1.96224 114.719 1.86129 114.463 1.86129C114.212 1.86129 114.013 1.96119 113.865 2.16099C113.717 2.35868 113.643 2.65523 113.643 3.05062Z" fill="white"/>
<path d="M119.61 4.72262H118.841V3.34401H117.508V4.72262H116.739V1.30921H117.508V2.73199H118.841V1.30921H119.61V4.72262Z" fill="white"/>
<path d="M122.478 4.72262C122.445 4.65743 122.415 4.55122 122.39 4.404C122.145 4.65848 121.845 4.78572 121.491 4.78572C121.147 4.78572 120.866 4.68792 120.649 4.49233C120.431 4.29674 120.323 4.05487 120.323 3.76674C120.323 3.4029 120.458 3.12423 120.728 2.93074C121 2.73515 121.388 2.63735 121.893 2.63735H122.364V2.41336C122.364 2.2367 122.315 2.09579 122.216 1.99063C122.116 1.88337 121.966 1.82974 121.763 1.82974C121.588 1.82974 121.444 1.87391 121.332 1.96224C121.221 2.04847 121.165 2.15888 121.165 2.29349H120.395C120.395 2.10631 120.458 1.93174 120.582 1.7698C120.707 1.60576 120.876 1.47746 121.089 1.38492C121.304 1.29239 121.543 1.24612 121.807 1.24612C122.208 1.24612 122.528 1.34707 122.766 1.54897C123.005 1.74877 123.127 2.03059 123.134 2.39444V3.93394C123.134 4.241 123.177 4.48602 123.263 4.66899V4.72262H122.478ZM121.633 4.17055C121.785 4.17055 121.928 4.13374 122.06 4.06013C122.196 3.98652 122.297 3.88767 122.364 3.76359V3.12002H121.95C121.665 3.12002 121.451 3.16945 121.307 3.2683C121.164 3.36714 121.092 3.507 121.092 3.68787C121.092 3.83509 121.14 3.95287 121.237 4.0412C121.337 4.12743 121.469 4.17055 121.633 4.17055Z" fill="white"/>
<path d="M126.85 1.30921V4.72262H126.081V1.92754H125.112L125.049 3.11687C125.009 3.68893 124.898 4.10009 124.716 4.35037C124.537 4.59854 124.262 4.72262 123.89 4.72262H123.653L123.65 4.08537L123.808 4.0696C123.977 4.04646 124.099 3.94446 124.175 3.76359C124.253 3.58061 124.303 3.24832 124.324 2.76669L124.387 1.30921H126.85Z" fill="white"/>
<path d="M128.496 2.39444H129.249C129.53 2.39444 129.775 2.44281 129.984 2.53955C130.193 2.6363 130.351 2.77195 130.459 2.94651C130.568 3.12107 130.623 3.32403 130.623 3.55538C130.623 3.9066 130.499 4.18842 130.25 4.40084C130.001 4.61326 129.669 4.72052 129.256 4.72262H127.727V1.30921H128.496V2.39444ZM128.496 3.00961V4.11061H129.246C129.434 4.11061 129.582 4.06434 129.689 3.9718C129.799 3.87716 129.854 3.74361 129.854 3.57115C129.854 3.39869 129.8 3.26304 129.693 3.16419C129.587 3.06324 129.444 3.01171 129.262 3.00961H128.496Z" fill="white"/>
<path d="M134.14 4.72262H133.371V3.34401H132.038V4.72262H131.269V1.30921H132.038V2.73199H133.371V1.30921H134.14V4.72262Z" fill="white"/>
<path d="M135.789 2.39444H136.543C136.823 2.39444 137.068 2.44281 137.277 2.53955C137.486 2.6363 137.644 2.77195 137.752 2.94651C137.862 3.12107 137.917 3.32403 137.917 3.55538C137.917 3.9066 137.792 4.18842 137.543 4.40084C137.294 4.61326 136.963 4.72052 136.549 4.72262H135.02V1.30921H135.789V2.39444ZM139.256 4.72262H138.486V1.30921H139.256V4.72262ZM135.789 3.00961V4.11061H136.54C136.727 4.11061 136.875 4.06434 136.983 3.9718C137.093 3.87716 137.147 3.74361 137.147 3.57115C137.147 3.39869 137.094 3.26304 136.986 3.16419C136.88 3.06324 136.737 3.01171 136.555 3.00961H135.789Z" fill="white"/>
<path d="M142.317 1.30921H143.083V4.72262H142.317V2.44491L140.975 4.72262H140.208V1.30921H140.975V3.58692L142.317 1.30921ZM142.678 0C142.678 0.264997 142.585 0.479518 142.399 0.643564C142.213 0.80761 141.965 0.889633 141.655 0.889633C141.345 0.889633 141.097 0.80761 140.911 0.643564C140.725 0.479518 140.633 0.264997 140.633 0H141.209C141.209 0.138808 141.248 0.24712 141.326 0.324937C141.406 0.40065 141.516 0.438507 141.655 0.438507C141.794 0.438507 141.903 0.40065 141.981 0.324937C142.059 0.24712 142.098 0.138808 142.098 0H142.678Z" fill="white"/>
<path d="M148.42 4.72262H147.651V1.92754H146.315V4.72262H145.546V1.30921H148.42V4.72262Z" fill="white"/>
<path d="M152.237 3.05062C152.237 3.57851 152.117 4.00019 151.877 4.31566C151.636 4.62903 151.313 4.78572 150.908 4.78572C150.532 4.78572 150.232 4.66268 150.006 4.41662V6.03499H149.237V1.30921H149.946L149.977 1.65623C150.203 1.38282 150.51 1.24612 150.898 1.24612C151.316 1.24612 151.643 1.40175 151.88 1.71302C152.118 2.02218 152.237 2.45227 152.237 3.0033V3.05062ZM151.471 2.98437C151.471 2.64366 151.403 2.3734 151.266 2.17361C151.131 1.97381 150.936 1.87391 150.683 1.87391C150.369 1.87391 150.143 2.00325 150.006 2.26194V3.77621C150.145 4.0412 150.373 4.1737 150.69 4.1737C150.934 4.1737 151.125 4.07591 151.262 3.88031C151.402 3.68262 151.471 3.38397 151.471 2.98437Z" fill="white"/>
<path d="M152.747 2.98437C152.747 2.64997 152.814 2.34922 152.947 2.08212C153.079 1.81292 153.266 1.60681 153.507 1.46379C153.747 1.31868 154.024 1.24612 154.336 1.24612C154.798 1.24612 155.173 1.39439 155.46 1.69093C155.749 1.98748 155.905 2.38077 155.928 2.8708L155.932 3.05062C155.932 3.38712 155.866 3.68787 155.735 3.95287C155.607 4.21787 155.421 4.42292 155.178 4.56804C154.938 4.71316 154.659 4.78572 154.343 4.78572C153.859 4.78572 153.472 4.62588 153.181 4.3062C152.892 3.98442 152.747 3.55643 152.747 3.02223V2.98437ZM153.516 3.05062C153.516 3.40185 153.589 3.67736 153.735 3.87716C153.88 4.07485 154.083 4.1737 154.343 4.1737C154.602 4.1737 154.804 4.07275 154.947 3.87085C155.093 3.66895 155.166 3.37345 155.166 2.98437C155.166 2.63945 155.091 2.36604 154.941 2.16414C154.793 1.96224 154.592 1.86129 154.336 1.86129C154.085 1.86129 153.886 1.96119 153.738 2.16099C153.59 2.35868 153.516 2.65523 153.516 3.05062Z" fill="white"/>
<path d="M158.091 4.78572C157.603 4.78572 157.207 4.63324 156.903 4.32828C156.602 4.02122 156.451 3.61321 156.451 3.10425V3.00961C156.451 2.6689 156.516 2.36499 156.647 2.09789C156.78 1.82869 156.966 1.61943 157.204 1.4701C157.443 1.32078 157.709 1.24612 158.002 1.24612C158.468 1.24612 158.828 1.39439 159.081 1.69093C159.337 1.98748 159.464 2.40706 159.464 2.94967V3.25883H157.226C157.25 3.54065 157.343 3.76359 157.508 3.92763C157.675 4.09168 157.884 4.1737 158.135 4.1737C158.487 4.1737 158.774 4.03174 158.996 3.74781L159.411 4.14215C159.273 4.34616 159.09 4.50495 158.86 4.61852C158.632 4.72998 158.375 4.78572 158.091 4.78572ZM157.999 1.86129C157.788 1.86129 157.617 1.9349 157.486 2.08212C157.357 2.22934 157.275 2.4344 157.239 2.69729H158.705V2.64051C158.688 2.38392 158.619 2.19043 158.499 2.06004C158.379 1.92754 158.212 1.86129 157.999 1.86129Z" fill="white"/>
<path d="M161.281 3.3724H160.892V4.72262H160.123V1.30921H160.892V2.67205H161.231L162.177 1.30921H163.127L161.889 2.94336L163.231 4.72262H162.231L161.281 3.3724Z" fill="white"/>
<path d="M166.349 1.91807H165.238V4.72262H164.469V1.91807H163.371V1.30921H166.349V1.91807Z" fill="white"/>
<path d="M100.982 18.2663C100.982 16.4625 101.778 15.777 103.045 15.777C104.312 15.777 105.109 16.4625 105.109 18.2663V31.9031C105.109 33.7069 104.312 34.3924 103.045 34.3924C101.778 34.3924 100.982 33.7069 100.982 31.9031V18.2663ZM97 31.6506C97 35.6911 99.1358 38 103.045 38C106.955 38 109.091 35.6911 109.091 31.6506V18.5188C109.091 14.4783 106.955 12.1694 103.045 12.1694C99.1358 12.1694 97 14.4783 97 18.5188V31.6506Z" fill="white"/>
<path d="M118.013 37.7114C121.995 37.7114 124.023 35.5107 124.023 31.4702V28.7645C124.023 24.7239 121.995 22.5233 118.013 22.5233H115.697V16.0656H122.864V12.458H111.715V37.7114H118.013ZM115.697 34.1038V26.1309H118.013C119.28 26.1309 120.041 26.7081 120.041 28.5119V31.7227C120.041 33.5265 119.28 34.1038 118.013 34.1038H115.697Z" fill="white"/>
<path d="M132.567 12.458H126.703V37.7114H130.685V28.2233H132.567C136.549 28.2233 138.504 26.0227 138.504 21.9821V18.6992C138.504 14.6587 136.549 12.458 132.567 12.458ZM132.567 16.0656C133.834 16.0656 134.522 16.6428 134.522 18.4467V22.2347C134.522 24.0385 133.834 24.6157 132.567 24.6157H130.685V16.0656H132.567Z" fill="white"/>
<path d="M149.181 12.458H143.353L139.299 37.7114H142.955L143.643 33.1297H148.53L149.217 37.7114H153.236L149.181 12.458ZM146.068 16.9315L147.987 29.7025H144.149L146.068 16.9315Z" fill="white"/>
<path d="M162.764 20.0701C162.764 22.0904 161.859 22.7397 160.375 22.7397H159.181V26.3474H160.158C161.968 26.3474 162.764 27.2132 162.764 29.5582V31.5423C162.764 33.7791 161.968 34.3924 160.701 34.3924C159.434 34.3924 158.638 33.7069 158.638 31.9031V28.8727H154.873V31.6506C154.873 35.6911 156.9 38 160.81 38C164.719 38 166.746 35.6911 166.746 31.6506V29.6664C166.746 27.105 165.95 25.229 163.959 24.3632C165.877 23.5695 166.746 21.8739 166.746 19.1682V18.5188C166.746 14.4783 164.719 12.1694 160.81 12.1694C156.9 12.1694 154.945 14.4061 154.945 18.4467V20.3226H158.601V18.2663C158.601 16.4625 159.434 15.777 160.701 15.777C161.968 15.777 162.764 16.3903 162.764 18.6631V20.0701Z" fill="white"/>
<path d="M173.099 18.2663C173.099 16.4625 173.895 15.777 175.162 15.777C176.429 15.777 177.226 16.4625 177.226 18.2663V31.9031C177.226 33.7069 176.429 34.3924 175.162 34.3924C173.895 34.3924 173.099 33.7069 173.099 31.9031V18.2663ZM169.117 31.6506C169.117 35.6911 171.253 38 175.162 38C179.072 38 181.208 35.6911 181.208 31.6506V18.5188C181.208 14.4783 179.072 12.1694 175.162 12.1694C171.253 12.1694 169.117 14.4783 169.117 18.5188V31.6506Z" fill="white"/>
<path d="M189.804 12.458H183.795V37.7114H190.058C194.04 37.7114 196.103 35.619 196.103 31.7227V29.6664C196.103 26.9967 195.271 25.0847 193.135 24.2549C194.909 23.4252 195.705 21.7657 195.705 19.1682V18.2663C195.705 14.37 193.931 12.458 189.804 12.458ZM189.551 26.3474C191.361 26.3474 192.121 27.0689 192.121 29.4138V31.6145C192.121 33.4905 191.397 34.1038 190.058 34.1038H187.777V26.3474H189.551ZM189.696 16.0656C191.108 16.0656 191.723 16.8593 191.723 18.6631V20.0701C191.723 22.0904 190.818 22.7397 189.334 22.7397H187.777V16.0656H189.696Z" fill="white"/>
<path d="M207.334 12.458H201.506L197.452 37.7114H201.108L201.796 33.1297H206.683L207.37 37.7114H211.389L207.334 12.458ZM204.221 16.9315L206.14 29.7025H202.302L204.221 16.9315Z" fill="white"/>
<path d="M217.225 26.8885H221.75V37.7114H225.804V12.458H221.75V23.2809H217.225V12.458H213.243V37.7114H217.225V26.8885Z" fill="white"/>
<path d="M236.112 26.1309L237.741 19.9258V37.7114H241.325V12.458H236.945L233.687 22.884L232.239 28.4398V12.458H228.692V37.7114H232.782L236.112 26.1309Z" fill="white"/>
<path d="M248.122 16.0656H255V12.458H244.14V37.7114H255V34.1038H248.122V26.7081H253.588V23.1005H248.122V16.0656Z" fill="white"/>
<g clip-path="url(#clip0_204_2550)">
<path d="M28.6027 22.5621H27.411V19.7086H26.3516V26.411H27.411V23.5575H28.6027V26.411H29.6621V19.7086H28.6027V22.5621ZM72.9635 19.7086H71.9041V26.411H72.9635V19.7086ZM31.4498 19.7086L30.3904 26.411H31.3836L31.5822 25.2165H32.9064L33.105 26.411H34.1644L33.105 19.7086H31.4498ZM31.6484 24.2874L32.1781 20.9031L32.7078 24.2874H31.6484ZM40.5205 22.4294L40.1233 23.8893V19.6423H39.1963V26.3446H40.2557L41.1164 23.2921L41.5137 21.6331V26.3446H42.4406V19.7086H41.3151L40.5205 22.4294ZM57.2055 24.6856L57.3379 20.6377H58.2648V26.411H59.3242V19.7086H56.3447L56.1461 24.752C56.1461 25.3492 55.9475 25.4156 55.484 25.4156V26.3446H55.6164C56.742 26.411 57.2055 25.9464 57.2055 24.6856ZM71.3082 24.752V23.8893C71.3082 22.8275 70.7785 22.2303 69.7192 22.2303H69.1895V19.7086H68.1963V26.411H69.7192C70.7785 26.411 71.3082 25.8137 71.3082 24.752ZM69.2557 23.1593H69.7854C70.1164 23.1593 70.3151 23.2921 70.3151 23.8229V24.8183C70.3151 25.2828 70.1164 25.4819 69.7854 25.4819H69.2557V23.1593ZM63.2968 24.752V23.8893C63.2968 22.8275 62.7671 22.2303 61.7078 22.2303H61.1781V19.7086H60.1187V26.411H61.6415C62.7671 26.411 63.2968 25.8137 63.2968 24.752ZM61.2443 23.1593H61.774C62.105 23.1593 62.3036 23.2921 62.3036 23.8229V24.8183C62.3036 25.2828 62.105 25.4819 61.774 25.4819H61.2443V23.1593ZM65.0845 23.4911H66.2763V26.3446H67.3356V19.7086H66.2763V22.5621H65.0845V19.7086H64.0251V26.411H65.0845V23.4911ZM38.0046 19.7086H36.9452V25.4819H35.7534V19.7086H34.6941V26.411H37.4749V27.34H38.468V25.4819H38.0046V19.7086ZM53.895 26.411H54.9543L53.895 19.7086H52.3721L51.3128 26.411H52.3059L52.5046 25.2165H53.8288L53.895 26.411ZM52.5708 24.2874L53.1005 20.9031L53.6301 24.2874H52.5708ZM76.6712 20.6377V19.7086H73.8242V26.411H76.6712V25.4819H74.8836V23.4911H76.3402V22.5621H74.8836V20.704H76.6712V20.6377ZM44.8904 19.5759C43.831 19.5759 43.3014 20.1732 43.3014 21.2349V24.752C43.3014 25.8137 43.8973 26.411 44.8904 26.411C45.9498 26.411 46.4794 25.8137 46.4794 24.752V21.2349C46.4794 20.2395 45.9498 19.5759 44.8904 19.5759ZM45.4863 24.8847C45.4863 25.3492 45.2877 25.5483 44.9566 25.5483C44.6256 25.5483 44.4269 25.3492 44.4269 24.8847V21.2349C44.4269 20.7704 44.6256 20.5713 44.9566 20.5713C45.2877 20.5713 45.4863 20.7704 45.4863 21.2349V24.8847ZM48.3333 23.4911H49.5251V26.3446H50.5845V19.7086H49.5251V22.5621H48.3333V19.7086H47.274V26.411H48.3333V23.4911ZM63.0982 28.6672V27.7381H60.2511V34.4404H63.0982V33.5114H61.3105V31.5206H62.7671V30.5916H61.3105V28.7335H63.0982V28.6672ZM66.2763 34.4404H67.3356L65.879 30.7243L67.3356 27.7381H66.2763L64.8858 30.658V27.7381H63.8265V34.4404H64.8858V32.3833L65.2169 31.7861L66.2763 34.4404ZM70.0502 34.4404V28.6672H71.1758V27.7381H67.9315V28.6672H69.0571V34.4404H70.0502ZM74.8836 32.7815V31.9188C74.8836 30.857 74.3539 30.2598 73.2945 30.2598H72.831V27.7381H71.7717V34.4404H73.2945C74.4201 34.4404 74.8836 33.8432 74.8836 32.7815ZM72.831 31.1888H73.3607C73.6918 31.1888 73.8904 31.3216 73.8904 31.8524V32.8478C73.8904 33.3123 73.6918 33.5114 73.3607 33.5114H72.831V31.1888ZM55.6164 30.2598V29.3971C55.6164 28.3354 55.0868 27.7381 54.0274 27.7381H52.5046V34.4404H53.5639V31.9188H54.0936C55.0868 31.9188 55.6164 31.3215 55.6164 30.2598ZM53.5639 28.6672H54.0936C54.4247 28.6672 54.6233 28.7999 54.6233 29.3308V30.3262C54.6233 30.7907 54.4247 30.9898 54.0936 30.9898H53.5639V28.6672ZM48.3333 34.4404H49.3927V28.6672H50.5845V34.4404H51.6438V27.7381H48.3333V34.4404ZM75.5457 34.4404H76.605V27.7381H75.5457V34.4404ZM57.8676 27.6718C56.8082 27.6718 56.2785 28.269 56.2785 29.3308V32.8478C56.2785 33.9096 56.8744 34.5068 57.8676 34.5068C58.9269 34.5068 59.4566 33.9096 59.4566 32.8478V29.3308C59.4566 28.269 58.8607 27.6718 57.8676 27.6718ZM58.3973 32.9142C58.3973 33.3787 58.1986 33.5778 57.8676 33.5778C57.5365 33.5778 57.3379 33.3787 57.3379 32.9142V29.2644C57.3379 28.7999 57.5365 28.6008 57.8676 28.6008C58.1986 28.6008 58.3973 28.7999 58.3973 29.2644V32.9142ZM74.5525 38.5547L74.1552 40.0146V35.7676H73.2283V42.4699H74.2877L75.1484 39.4174L75.5457 37.7584V42.4699H76.4726V35.7676H75.347L74.5525 38.5547ZM58.9931 35.7013C57.9338 35.7013 57.4041 36.2985 57.4041 37.3603V40.8773C57.4041 41.9391 58 42.5363 58.9931 42.5363C60.0525 42.5363 60.5822 41.9391 60.5822 40.8773V37.3603C60.5822 36.2985 60.0525 35.7013 58.9931 35.7013ZM59.5228 40.9437C59.5228 41.4082 59.3242 41.6073 58.9931 41.6073C58.6621 41.6073 58.4635 41.4082 58.4635 40.9437V37.2939C58.4635 36.8294 58.6621 36.6303 58.9931 36.6303C59.3242 36.6303 59.5228 36.8294 59.5228 37.2939V40.9437ZM55.2192 35.7676H53.6301V42.4699H54.6895V39.9483H55.2192C56.2785 39.9483 56.8082 39.351 56.8082 38.2893V37.4266C56.742 36.3649 56.2785 35.7676 55.2192 35.7676ZM55.6826 38.3557C55.6826 38.8202 55.484 39.0192 55.153 39.0192H54.6233V36.763H55.153C55.484 36.763 55.6826 36.8957 55.6826 37.4266V38.3557ZM62.8995 35.7013C61.8402 35.7013 61.3105 36.2985 61.3105 37.3603V40.8773C61.3105 41.9391 61.8402 42.5363 62.8995 42.5363C63.9589 42.5363 64.4886 41.9391 64.4886 40.8773V40.0146H63.4954V40.9437C63.4954 41.4082 63.2968 41.6073 62.9658 41.6073C62.6347 41.6073 62.4361 41.4082 62.4361 40.9437V37.2939C62.4361 36.8294 62.6347 36.6303 62.9658 36.6303C63.2968 36.6303 63.4954 36.8294 63.4954 37.2939V38.0239H64.4886V37.3603C64.4886 36.2985 63.9589 35.7013 62.8995 35.7013ZM66.7397 35.7013C65.6804 35.7013 65.1507 36.2985 65.1507 37.3603V40.8773C65.1507 41.9391 65.6804 42.5363 66.7397 42.5363C67.7991 42.5363 68.3288 41.9391 68.3288 40.8773V40.0146H67.3356V40.9437C67.3356 41.4082 67.137 41.6073 66.8059 41.6073C66.4749 41.6073 66.2763 41.4082 66.2763 40.9437V37.2939C66.2763 36.8294 66.4749 36.6303 66.8059 36.6303C67.137 36.6303 67.3356 36.8294 67.3356 37.2939V38.0239H68.3288V37.3603C68.3288 36.2985 67.7991 35.7013 66.7397 35.7013ZM70.3813 38.5547L69.984 40.0146V35.7676H69.0571V42.4699H70.1164L70.9772 39.4174L71.4406 37.7584V42.4699H72.3676V35.7676H71.242L70.3813 38.5547Z" fill="white"/>
<path d="M86.2718 0H26.2855C26.0207 0 25.7558 0.199078 25.6234 0.464516L0.264944 70.5401L0.0663135 71.0046C-0.132317 71.4691 0.198734 72 0.662204 72C0.728414 72 0.794624 72 0.927044 71.9336L78.3266 43.6645C78.5914 43.5982 78.7901 43.3327 78.7901 43.0009V27.7382L86.6029 23.2922C86.8015 23.1594 87.0001 22.9604 87.0001 22.6949V0.663594C87.0001 0.331797 86.6691 0 86.2718 0ZM77.7307 42.8682L1.3243 70.7392L25.5572 18.5806H77.7307V42.8682ZM86.4704 22.6949C86.4704 22.7613 86.4042 22.8277 86.338 22.8277L78.7901 27.2074V18.2488C78.7901 17.8507 78.459 17.5853 78.128 17.5853H25.3586C25.0937 17.5853 24.8289 17.718 24.7627 17.9834L2.64851 65.4304L26.0869 0.597235C26.0869 0.530876 26.1531 0.464516 26.2855 0.464516H86.338C86.4704 0.464516 86.5366 0.530876 86.5366 0.663594V22.6949H86.4704Z" fill="white"/>
<path d="M37.8721 10.4849C37.8721 10.9494 37.8059 11.2812 37.6735 11.613C37.5411 11.9448 37.2763 12.2102 37.0114 12.4093C36.7466 12.6084 36.4155 12.6747 36.0183 12.6747C35.6872 12.6747 35.3562 12.6084 35.0251 12.4093C34.7603 12.2102 34.4954 12.0112 34.363 11.6794C34.2306 11.3476 34.0982 10.9494 34.0982 10.5512V10.2858C34.0982 9.82129 34.1644 9.4895 34.363 9.1577C34.4954 8.8259 34.7603 8.56046 35.0251 8.36139C35.29 8.16231 35.621 8.09595 36.0183 8.09595C36.4155 8.09595 36.6804 8.16231 37.0114 8.36139C37.2763 8.56046 37.5411 8.75954 37.6735 9.09134C37.8059 9.42314 37.8721 9.82129 37.9384 10.2194V10.4849H37.8721ZM37.0776 10.2194C37.0776 9.75493 37.0114 9.35678 36.8128 9.09134C36.6142 8.8259 36.3493 8.69318 36.0183 8.69318C35.6872 8.69318 35.4224 8.8259 35.2237 9.09134C35.0251 9.35678 34.9589 9.75493 34.9589 10.2194V10.4849C34.9589 10.9494 35.0251 11.3476 35.2237 11.613C35.4224 11.8784 35.6872 12.0112 36.0183 12.0112C36.3493 12.0112 36.6142 11.8784 36.8128 11.613C37.0114 11.3476 37.0776 10.9494 37.0776 10.4849V10.2194Z" fill="white"/>
<path d="M41.4475 8.75954H39.395V9.82129H40.3219C40.653 9.82129 40.9178 9.88765 41.1827 10.0204C41.4475 10.1531 41.5799 10.2858 41.7123 10.4849C41.8448 10.684 41.911 10.9494 41.911 11.2148C41.911 11.613 41.7785 11.9448 41.5137 12.2102C41.2489 12.4757 40.8516 12.6084 40.3219 12.6084H38.6005V8.09595H41.4475V8.75954ZM39.395 10.4849V12.0112H40.3219C40.5868 12.0112 40.7854 11.9448 40.9178 11.8121C41.0502 11.6794 41.1164 11.4803 41.1164 11.2148C41.1164 11.0158 41.0502 10.8167 40.9178 10.684C40.7854 10.5512 40.5868 10.4849 40.3219 10.4849H39.395Z" fill="white"/>
<path d="M43.3676 10.9494V12.6084H42.5731V8.09595H44.2945C44.8242 8.09595 45.2215 8.22867 45.4863 8.4941C45.7511 8.75954 45.9498 9.09134 45.9498 9.55586C45.9498 10.0204 45.8173 10.3522 45.4863 10.5512C45.2215 10.8167 44.8242 10.9494 44.2945 10.9494H43.3676ZM43.3676 10.2858H44.2945C44.5594 10.2858 44.758 10.2194 44.9566 10.0867C45.089 9.95401 45.1552 9.75493 45.1552 9.4895C45.1552 9.22406 45.089 9.02498 44.9566 8.89226C44.8242 8.75954 44.6256 8.69318 44.3607 8.69318H43.4338V10.2858H43.3676Z" fill="white"/>
<path d="M48.7968 11.5466H47.0091L46.6781 12.6084H45.8836L47.605 8.09595H48.3333L50.0548 12.6084H49.2603L48.7968 11.5466ZM47.274 10.9494H48.5982L47.9361 9.09134L47.274 10.9494Z" fill="white"/>
<path d="M52.7032 9.35678C52.7032 9.1577 52.637 9.02498 52.5046 8.89226C52.3721 8.75954 52.1735 8.69318 51.9087 8.69318C51.71 8.69318 51.5114 8.75954 51.379 8.89226C51.2466 9.02498 51.1804 9.1577 51.1804 9.35678H50.3196C50.3196 9.09134 50.3858 8.89226 50.5183 8.69318C50.6507 8.4941 50.8493 8.36138 51.0479 8.22867C51.3128 8.09595 51.5776 8.09595 51.8425 8.09595C52.3721 8.09595 52.7694 8.22867 53.0342 8.42774C53.2991 8.62682 53.4315 8.95862 53.4315 9.35678C53.4315 9.55586 53.3653 9.75493 53.2329 9.88765C53.1005 10.0867 52.968 10.2194 52.7032 10.2858C52.968 10.3522 53.1667 10.4849 53.2991 10.684C53.4315 10.883 53.4977 11.0821 53.4977 11.3476C53.4977 11.7457 53.3653 12.0775 53.0342 12.2766C52.7032 12.542 52.3059 12.6084 51.7763 12.6084C51.4452 12.6084 51.1804 12.542 50.9155 12.4093C50.6507 12.2766 50.4521 12.1439 50.3196 11.9448C50.1872 11.7457 50.121 11.5466 50.121 11.2812H50.9155C50.9155 11.4803 50.9817 11.613 51.1804 11.7457C51.3128 11.8784 51.5114 11.9448 51.7763 11.9448C52.0411 11.9448 52.2397 11.8784 52.4384 11.7457C52.637 11.613 52.7032 11.4803 52.7032 11.2148C52.7032 10.9494 52.637 10.7503 52.5046 10.684C52.3721 10.5512 52.1735 10.4849 51.8425 10.4849H51.3128V9.88765H51.8425C52.4384 10.0204 52.7032 9.82129 52.7032 9.35678Z" fill="white"/>
<path d="M57.8676 10.4849C57.8676 10.9494 57.8014 11.2812 57.6689 11.613C57.5365 11.9448 57.2717 12.2102 57.0068 12.4093C56.742 12.6084 56.411 12.6747 56.0137 12.6747C55.6826 12.6747 55.3516 12.6084 55.0205 12.4093C54.7557 12.2102 54.4909 12.0112 54.3584 11.6794C54.226 11.3476 54.0936 10.9494 54.0936 10.5512V10.2858C54.0936 9.82129 54.1598 9.4895 54.3584 9.1577C54.4909 8.8259 54.7557 8.56046 55.0205 8.36139C55.2854 8.16231 55.6164 8.09595 56.0137 8.09595C56.411 8.09595 56.6758 8.16231 57.0068 8.36139C57.2717 8.56046 57.5365 8.75954 57.6689 9.09134C57.8014 9.42314 57.8676 9.82129 57.9338 10.2194V10.4849H57.8676ZM57.0731 10.2194C57.0731 9.75493 57.0068 9.35678 56.8082 9.09134C56.6096 8.8259 56.3447 8.69318 56.0137 8.69318C55.6826 8.69318 55.4178 8.8259 55.2192 9.09134C55.0205 9.35678 54.9543 9.75493 54.9543 10.2194V10.4849C54.9543 10.9494 55.0205 11.3476 55.2192 11.613C55.4178 11.8784 55.6826 12.0112 56.0137 12.0112C56.3447 12.0112 56.6096 11.8784 56.8082 11.613C57.0068 11.3476 57.0731 10.9494 57.0731 10.4849V10.2194Z" fill="white"/>
<path d="M58.6621 12.6084V8.09595H60.1849C60.7146 8.09595 61.0457 8.22867 61.3105 8.42774C61.5754 8.62682 61.7078 8.95862 61.7078 9.35678C61.7078 9.55586 61.6416 9.75493 61.5091 9.88765C61.3767 10.0204 61.2443 10.1531 61.0457 10.2858C61.3105 10.3522 61.4429 10.4849 61.5754 10.684C61.7078 10.883 61.774 11.0821 61.774 11.3476C61.774 11.7457 61.6416 12.0775 61.3767 12.343C61.1119 12.542 60.7146 12.6747 60.2512 12.6747H58.6621V12.6084ZM59.3904 10.0204H60.1849C60.4498 10.0204 60.5822 9.95401 60.7808 9.88765C60.9133 9.75493 60.9795 9.62221 60.9795 9.42314C60.9795 9.22406 60.9133 9.02498 60.7808 8.95862C60.6484 8.89226 60.4498 8.8259 60.1849 8.8259H59.4566V10.0204H59.3904ZM59.3904 10.6176V12.0112H60.2512C60.516 12.0112 60.7146 11.9448 60.847 11.8121C60.9795 11.6794 61.0457 11.5466 61.0457 11.2812C61.0457 10.8167 60.7808 10.5512 60.3174 10.5512H59.3904V10.6176Z" fill="white"/>
<path d="M65.0845 11.5466H63.363L63.032 12.6084H62.2375L63.9589 8.09595H64.6872L66.4087 12.6084H65.6142L65.0845 11.5466ZM63.5617 10.9494H64.8859L64.2238 9.09134L63.5617 10.9494Z" fill="white"/>
<path d="M70.3813 12.6084H69.5868V10.6176H67.6005V12.6084H66.8059V8.09595H67.6005V9.95401H69.5868V8.09595H70.3813V12.6084Z" fill="white"/>
<path d="M74.0228 8.09595H74.8173V12.6084H74.0228V9.42314L72.0365 12.6084H71.242V8.09595H72.0365V11.2812L74.0228 8.09595Z" fill="white"/>
<path d="M78.3265 10.6176H76.4726V12.0112H78.5913V12.6084H75.6781V8.09595H78.5913V8.69318H76.4726V9.95401H78.3265V10.6176Z" fill="white"/>
</g>
<defs>
<clipPath id="clip0_204_2550">
<rect width="87" height="72" fill="white"/>
</clipPath>
</defs>
</svg>
