<svg width="308" height="254" viewBox="0 0 308 254" fill="none" xmlns="http://www.w3.org/2000/svg">
<g clip-path="url(#clip0_83_1935)">
<path d="M101.26 79.5945H97.0411V69.5281H93.2907V93.1724H97.0411V83.106H101.26V93.1724H105.011V69.5281H101.26V79.5945ZM258.307 69.5281H254.557V93.1724H258.307V69.5281ZM111.339 69.5281L107.589 93.1724H111.105L111.808 88.9586H116.496L117.199 93.1724H120.95L117.199 69.5281H111.339ZM112.043 85.6811L113.918 73.742L115.793 85.6811H112.043ZM143.452 79.1263L142.046 84.2765V69.294H138.764V92.9383H142.514L145.562 82.1696L146.968 76.3171V92.9383H150.25V69.5281H146.265L143.452 79.1263ZM202.521 87.0857L202.989 72.8056H206.271V93.1724H210.021V69.5281H199.473L198.77 87.3198C198.77 89.4268 198.067 89.6609 196.426 89.6609V92.9383H196.895C200.88 93.1724 202.521 91.5337 202.521 87.0857ZM252.447 87.3198V84.2765C252.447 80.5309 250.572 78.424 246.822 78.424H244.947V69.5281H241.431V93.1724H246.822C250.572 93.1724 252.447 91.0655 252.447 87.3198ZM245.181 81.7014H247.056C248.228 81.7014 248.931 82.1696 248.931 84.0424V87.5539C248.931 89.1927 248.228 89.895 247.056 89.895H245.181V81.7014ZM224.085 87.3198V84.2765C224.085 80.5309 222.21 78.424 218.46 78.424H216.584V69.5281H212.834V93.1724H218.225C222.21 93.1724 224.085 91.0655 224.085 87.3198ZM216.819 81.7014H218.694C219.866 81.7014 220.569 82.1696 220.569 84.0424V87.5539C220.569 89.1927 219.866 89.895 218.694 89.895H216.819V81.7014ZM230.414 82.8719H234.633V92.9383H238.384V69.5281H234.633V79.5945H230.414V69.5281H226.664V93.1724H230.414V82.8719ZM134.545 69.5281H130.795V89.895H126.575V69.5281H122.825V93.1724H132.67V96.4498H136.186V89.895H134.545V69.5281ZM190.801 93.1724H194.551L190.801 69.5281H185.409L181.659 93.1724H185.175L185.878 88.9586H190.566L190.801 93.1724ZM186.113 85.6811L187.988 73.742L189.863 85.6811H186.113ZM271.434 72.8056V69.5281H261.355V93.1724H271.434V89.895H265.105V82.8719H270.262V79.5945H265.105V73.0397H271.434V72.8056ZM158.922 69.0599C155.172 69.0599 153.297 71.1668 153.297 74.9125V87.3198C153.297 91.0655 155.406 93.1724 158.922 93.1724C162.673 93.1724 164.548 91.0655 164.548 87.3198V74.9125C164.548 71.401 162.673 69.0599 158.922 69.0599ZM161.032 87.788C161.032 89.4268 160.329 90.1291 159.157 90.1291C157.985 90.1291 157.282 89.4268 157.282 87.788V74.9125C157.282 73.2738 157.985 72.5715 159.157 72.5715C160.329 72.5715 161.032 73.2738 161.032 74.9125V87.788ZM171.111 82.8719H175.33V92.9383H179.081V69.5281H175.33V79.5945H171.111V69.5281H167.361V93.1724H171.111V82.8719ZM223.382 101.132V97.8544H213.303V121.499H223.382V118.221H217.053V111.198H222.21V107.921H217.053V101.366H223.382V101.132ZM234.633 121.499H238.384L233.227 108.389L238.384 97.8544H234.633L229.711 108.155V97.8544H225.96V121.499H229.711V114.242L230.883 112.135L234.633 121.499ZM247.994 121.499V101.132H251.979V97.8544H240.493V101.132H244.478V121.499H247.994ZM265.105 115.646V112.603C265.105 108.857 263.23 106.75 259.479 106.75H257.839V97.8544H254.088V121.499H259.479C263.464 121.499 265.105 119.392 265.105 115.646ZM257.839 110.028H259.714C260.886 110.028 261.589 110.496 261.589 112.369V115.88C261.589 117.519 260.886 118.221 259.714 118.221H257.839V110.028ZM196.895 106.75V103.707C196.895 99.9613 195.02 97.8544 191.269 97.8544H185.878V121.499H189.629V112.603H191.504C195.02 112.603 196.895 110.496 196.895 106.75ZM189.629 101.132H191.504C192.676 101.132 193.379 101.6 193.379 103.473V106.984C193.379 108.623 192.676 109.325 191.504 109.325H189.629V101.132ZM171.111 121.499H174.861V101.132H179.081V121.499H182.831V97.8544H171.111V121.499ZM267.449 121.499H271.199V97.8544H267.449V121.499ZM204.865 97.6203C201.114 97.6203 199.239 99.7272 199.239 103.473V115.88C199.239 119.626 201.349 121.733 204.865 121.733C208.615 121.733 210.49 119.626 210.49 115.88V103.473C210.49 99.7272 208.381 97.6203 204.865 97.6203ZM206.74 116.114C206.74 117.753 206.037 118.455 204.865 118.455C203.693 118.455 202.989 117.753 202.989 116.114V103.239C202.989 101.6 203.693 100.898 204.865 100.898C206.037 100.898 206.74 101.6 206.74 103.239V116.114ZM263.933 136.013L262.527 141.163V126.181H259.245V149.825H262.995L266.043 139.056L267.449 133.204V149.825H270.731V126.181H266.746L263.933 136.013ZM208.849 125.947C205.099 125.947 203.224 128.053 203.224 131.799V144.206C203.224 147.952 205.333 150.059 208.849 150.059C212.6 150.059 214.475 147.952 214.475 144.206V131.799C214.475 128.053 212.6 125.947 208.849 125.947ZM210.725 144.441C210.725 146.079 210.021 146.782 208.849 146.782C207.677 146.782 206.974 146.079 206.974 144.441V131.565C206.974 129.926 207.677 129.224 208.849 129.224C210.021 129.224 210.725 129.926 210.725 131.565V144.441ZM195.489 126.181H189.863V149.825H193.613V140.929H195.489C199.239 140.929 201.114 138.822 201.114 135.077V132.033C200.88 128.288 199.239 126.181 195.489 126.181ZM197.129 135.311C197.129 136.949 196.426 137.652 195.254 137.652H193.379V129.692H195.254C196.426 129.692 197.129 130.16 197.129 132.033V135.311ZM222.679 125.947C218.928 125.947 217.053 128.053 217.053 131.799V144.206C217.053 147.952 218.928 150.059 222.679 150.059C226.429 150.059 228.304 147.952 228.304 144.206V141.163H224.788V144.441C224.788 146.079 224.085 146.782 222.913 146.782C221.741 146.782 221.038 146.079 221.038 144.441V131.565C221.038 129.926 221.741 129.224 222.913 129.224C224.085 129.224 224.788 129.926 224.788 131.565V134.14H228.304V131.799C228.304 128.053 226.429 125.947 222.679 125.947ZM236.274 125.947C232.524 125.947 230.648 128.053 230.648 131.799V144.206C230.648 147.952 232.524 150.059 236.274 150.059C240.024 150.059 241.9 147.952 241.9 144.206V141.163H238.384V144.441C238.384 146.079 237.68 146.782 236.508 146.782C235.336 146.782 234.633 146.079 234.633 144.441V131.565C234.633 129.926 235.336 129.224 236.508 129.224C237.68 129.224 238.384 129.926 238.384 131.565V134.14H241.9V131.799C241.9 128.053 240.024 125.947 236.274 125.947ZM249.166 136.013L247.76 141.163V126.181H244.478V149.825H248.228L251.275 139.056L252.916 133.204V149.825H256.198V126.181H252.213L249.166 136.013Z" fill="white"/>
<path d="M305.421 0H93.0562C92.1186 0 91.181 0.702304 90.7122 1.63871L0.937461 248.85L0.234265 250.488C-0.468932 252.127 0.703062 254 2.34385 254C2.57825 254 2.81265 254 3.28145 253.766L277.294 154.039C278.231 153.805 278.934 152.868 278.934 151.698V97.8544L306.593 82.1696C307.297 81.7014 308 80.9991 308 80.0627V2.34101C308 1.17051 306.828 0 305.421 0ZM275.184 151.229L4.68784 249.552L90.4778 65.5484H275.184V151.229ZM306.125 80.0627C306.125 80.2968 305.89 80.5309 305.656 80.5309L278.934 95.9816V64.3779C278.934 62.9733 277.762 62.0369 276.59 62.0369H89.7746C88.837 62.0369 87.8994 62.5051 87.665 63.4415L9.37582 230.824L92.353 2.10691C92.353 1.87281 92.5874 1.63871 93.0562 1.63871H305.656C306.125 1.63871 306.359 1.87281 306.359 2.34101V80.0627H306.125Z" fill="white"/>
<path d="M134.076 36.988C134.076 38.6267 133.842 39.7972 133.373 40.9677C132.904 42.1382 131.967 43.0747 131.029 43.777C130.091 44.4793 128.919 44.7134 127.513 44.7134C126.341 44.7134 125.169 44.4793 123.997 43.777C123.059 43.0747 122.122 42.3723 121.653 41.2018C121.184 40.0313 120.715 38.6267 120.715 37.2221V36.2857C120.715 34.647 120.95 33.4765 121.653 32.306C122.122 31.1355 123.059 30.1991 123.997 29.4968C124.935 28.7945 126.107 28.5604 127.513 28.5604C128.919 28.5604 129.857 28.7945 131.029 29.4968C131.967 30.1991 132.904 30.9014 133.373 32.0719C133.842 33.2424 134.076 34.647 134.31 36.0516V36.988H134.076ZM131.263 36.0516C131.263 34.4129 131.029 33.0083 130.326 32.0719C129.623 31.1355 128.685 30.6673 127.513 30.6673C126.341 30.6673 125.403 31.1355 124.7 32.0719C123.997 33.0083 123.763 34.4129 123.763 36.0516V36.988C123.763 38.6267 123.997 40.0313 124.7 40.9677C125.403 41.9041 126.341 42.3723 127.513 42.3723C128.685 42.3723 129.623 41.9041 130.326 40.9677C131.029 40.0313 131.263 38.6267 131.263 36.988V36.0516Z" fill="white"/>
<path d="M146.734 30.9014H139.467V34.647H142.749C143.921 34.647 144.858 34.8811 145.796 35.3493C146.734 35.8175 147.202 36.2857 147.671 36.988C148.14 37.6903 148.374 38.6267 148.374 39.5631C148.374 40.9677 147.906 42.1382 146.968 43.0746C146.03 44.0111 144.624 44.4793 142.749 44.4793H136.654V28.5604H146.734V30.9014ZM139.467 36.988V42.3723H142.749C143.686 42.3723 144.39 42.1382 144.858 41.67C145.327 41.2018 145.562 40.4995 145.562 39.5631C145.562 38.8608 145.327 38.1585 144.858 37.6903C144.39 37.2221 143.686 36.988 142.749 36.988H139.467Z" fill="white"/>
<path d="M153.531 38.6267V44.4793H150.718V28.5604H156.813C158.688 28.5604 160.094 29.0286 161.032 29.965C161.97 30.9014 162.673 32.0719 162.673 33.7106C162.673 35.3493 162.204 36.5198 161.032 37.2221C160.094 38.1585 158.688 38.6267 156.813 38.6267H153.531ZM153.531 36.2857H156.813C157.75 36.2857 158.454 36.0516 159.157 35.5834C159.626 35.1152 159.86 34.4129 159.86 33.4765C159.86 32.5401 159.626 31.8378 159.157 31.3696C158.688 30.9014 157.985 30.6673 157.047 30.6673H153.766V36.2857H153.531Z" fill="white"/>
<path d="M172.752 40.7336H166.423L165.251 44.4793H162.438L168.533 28.5604H171.111L177.205 44.4793H174.393L172.752 40.7336ZM167.361 38.6267H172.049L169.705 32.0719L167.361 38.6267Z" fill="white"/>
<path d="M186.581 33.0083C186.581 32.306 186.347 31.8378 185.878 31.3696C185.409 30.9014 184.706 30.6673 183.769 30.6673C183.065 30.6673 182.362 30.9014 181.893 31.3696C181.425 31.8378 181.19 32.306 181.19 33.0083H178.143C178.143 32.0719 178.377 31.3696 178.846 30.6673C179.315 29.965 180.018 29.4968 180.721 29.0286C181.659 28.5604 182.597 28.5604 183.534 28.5604C185.409 28.5604 186.816 29.0286 187.753 29.7309C188.691 30.4332 189.16 31.6037 189.16 33.0083C189.16 33.7106 188.925 34.4129 188.457 34.8811C187.988 35.5834 187.519 36.0516 186.581 36.2857C187.519 36.5198 188.222 36.988 188.691 37.6903C189.16 38.3926 189.394 39.0949 189.394 40.0313C189.394 41.4359 188.925 42.6064 187.753 43.3088C186.581 44.2452 185.175 44.4793 183.3 44.4793C182.128 44.4793 181.19 44.2452 180.253 43.777C179.315 43.3088 178.612 42.8405 178.143 42.1382C177.674 41.4359 177.44 40.7336 177.44 39.7972H180.253C180.253 40.4995 180.487 40.9677 181.19 41.4359C181.659 41.9041 182.362 42.1382 183.3 42.1382C184.237 42.1382 184.941 41.9041 185.644 41.4359C186.347 40.9677 186.581 40.4995 186.581 39.5631C186.581 38.6267 186.347 37.9244 185.878 37.6903C185.409 37.2221 184.706 36.988 183.534 36.988H181.659V34.8811H183.534C185.644 35.3493 186.581 34.647 186.581 33.0083Z" fill="white"/>
<path d="M204.865 36.988C204.865 38.6267 204.63 39.7972 204.161 40.9677C203.693 42.1382 202.755 43.0747 201.817 43.777C200.88 44.4793 199.708 44.7134 198.301 44.7134C197.129 44.7134 195.957 44.4793 194.785 43.777C193.848 43.0747 192.91 42.3723 192.441 41.2018C191.973 40.0313 191.504 38.6267 191.504 37.2221V36.2857C191.504 34.647 191.738 33.4765 192.441 32.306C192.91 31.1355 193.848 30.1991 194.785 29.4968C195.723 28.7945 196.895 28.5604 198.301 28.5604C199.708 28.5604 200.645 28.7945 201.817 29.4968C202.755 30.1991 203.693 30.9014 204.161 32.0719C204.63 33.2424 204.865 34.647 205.099 36.0516V36.988H204.865ZM202.052 36.0516C202.052 34.4129 201.817 33.0083 201.114 32.0719C200.411 31.1355 199.473 30.6673 198.301 30.6673C197.129 30.6673 196.192 31.1355 195.489 32.0719C194.785 33.0083 194.551 34.4129 194.551 36.0516V36.988C194.551 38.6267 194.785 40.0313 195.489 40.9677C196.192 41.9041 197.129 42.3723 198.301 42.3723C199.473 42.3723 200.411 41.9041 201.114 40.9677C201.817 40.0313 202.052 38.6267 202.052 36.988V36.0516Z" fill="white"/>
<path d="M207.677 44.4793V28.5604H213.068C214.944 28.5604 216.116 29.0286 217.053 29.7309C217.991 30.4332 218.46 31.6037 218.46 33.0083C218.46 33.7106 218.225 34.4129 217.756 34.8811C217.288 35.3493 216.819 35.8175 216.116 36.2857C217.053 36.5198 217.522 36.988 217.991 37.6903C218.46 38.3926 218.694 39.0949 218.694 40.0313C218.694 41.4359 218.225 42.6064 217.288 43.5429C216.35 44.2452 214.944 44.7134 213.303 44.7134H207.677V44.4793ZM210.256 35.3493H213.068C214.006 35.3493 214.475 35.1152 215.178 34.8811C215.647 34.4129 215.881 33.9447 215.881 33.2424C215.881 32.5401 215.647 31.8378 215.178 31.6037C214.709 31.3696 214.006 31.1355 213.068 31.1355H210.49V35.3493H210.256ZM210.256 37.4562V42.3723H213.303C214.24 42.3723 214.944 42.1382 215.412 41.67C215.881 41.2018 216.116 40.7336 216.116 39.7972C216.116 38.1585 215.178 37.2221 213.537 37.2221H210.256V37.4562Z" fill="white"/>
<path d="M230.414 40.7336H224.32L223.148 44.4793H220.335L226.429 28.5604H229.008L235.102 44.4793H232.289L230.414 40.7336ZM225.023 38.6267H229.711L227.367 32.0719L225.023 38.6267Z" fill="white"/>
<path d="M249.166 44.4793H246.353V37.4562H239.321V44.4793H236.508V28.5604H239.321V35.1152H246.353V28.5604H249.166V44.4793Z" fill="white"/>
<path d="M262.058 28.5604H264.871V44.4793H262.058V33.2424L255.026 44.4793H252.213V28.5604H255.026V39.7972L262.058 28.5604Z" fill="white"/>
<path d="M277.294 37.4562H270.731V42.3723H278.231V44.4793H267.918V28.5604H278.231V30.6673H270.731V35.1152H277.294V37.4562Z" fill="white"/>
</g>
<defs>
<clipPath id="clip0_83_1935">
<rect width="308" height="254" fill="white"/>
</clipPath>
</defs>
</svg>
