<svg width="184" height="30" viewBox="0 0 184 30" fill="none" xmlns="http://www.w3.org/2000/svg">
<path d="M4.63724 7.05956C4.63724 4.97093 5.56469 4.17725 7.04018 4.17725C8.51566 4.17725 9.44311 4.97093 9.44311 7.05956V22.8496C9.44311 24.9382 8.51566 25.7319 7.04018 25.7319C5.56469 25.7319 4.63724 24.9382 4.63724 22.8496V7.05956ZM0 22.5572C0 27.2357 2.48725 29.9091 7.04018 29.9091C11.5931 29.9091 14.0804 27.2357 14.0804 22.5572V7.35196C14.0804 2.67344 11.5931 0 7.04018 0C2.48725 0 0 2.67344 0 7.35196V22.5572Z" fill="white"/>
<path d="M24.4713 29.5749C29.1086 29.5749 31.4693 27.0268 31.4693 22.3483V19.2154C31.4693 14.5368 29.1086 11.9887 24.4713 11.9887H21.7733V4.51143H30.1203V0.334179H17.1361V29.5749H24.4713ZM21.7733 25.3977V16.166H24.4713C25.9468 16.166 26.8321 16.8343 26.8321 18.9229V22.6407C26.8321 24.7293 25.9468 25.3977 24.4713 25.3977H21.7733Z" fill="white"/>
<path d="M41.42 0.334179H34.5906V29.5749H39.2278V18.5888H41.42C46.0572 18.5888 48.3337 16.0406 48.3337 11.3621V7.56083C48.3337 2.8823 46.0572 0.334179 41.42 0.334179ZM41.42 4.51143C42.8955 4.51143 43.6964 5.17979 43.6964 7.26842V11.6545C43.6964 13.7432 42.8955 14.4115 41.42 14.4115H39.2278V4.51143H41.42Z" fill="white"/>
<path d="M60.768 0.334179H53.9807L49.2592 29.5749H53.517L54.318 24.2698H60.0091L60.8101 29.5749H65.4895L60.768 0.334179ZM57.1425 5.51397L59.3768 20.3014H54.9082L57.1425 5.51397Z" fill="white"/>
<path d="M76.5863 9.14818C76.5863 11.4874 75.5324 12.2393 73.8039 12.2393H72.4128V16.4166H73.551C75.6588 16.4166 76.5863 17.4191 76.5863 20.1344V22.4318C76.5863 25.0217 75.6588 25.7319 74.1833 25.7319C72.7079 25.7319 71.7804 24.9382 71.7804 22.8496V19.3407H67.3961V22.5572C67.3961 27.2357 69.7569 29.9091 74.3098 29.9091C78.8627 29.9091 81.2235 27.2357 81.2235 22.5572V20.2597C81.2235 17.2938 80.2961 15.1216 77.9775 14.1191C80.2118 13.2001 81.2235 11.2368 81.2235 8.10387V7.35196C81.2235 2.67344 78.8627 0 74.3098 0C69.7569 0 67.4804 2.58989 67.4804 7.26842V9.44059H71.7383V7.05956C71.7383 4.97093 72.7079 4.17725 74.1833 4.17725C75.6588 4.17725 76.5863 4.88739 76.5863 7.51905V9.14818Z" fill="white"/>
<path d="M88.6214 7.05956C88.6214 4.97093 89.5488 4.17725 91.0243 4.17725C92.4998 4.17725 93.4272 4.97093 93.4272 7.05956V22.8496C93.4272 24.9382 92.4998 25.7319 91.0243 25.7319C89.5488 25.7319 88.6214 24.9382 88.6214 22.8496V7.05956ZM83.9841 22.5572C83.9841 27.2357 86.4714 29.9091 91.0243 29.9091C95.5772 29.9091 98.0645 27.2357 98.0645 22.5572V7.35196C98.0645 2.67344 95.5772 0 91.0243 0C86.4714 0 83.9841 2.67344 83.9841 7.35196V22.5572Z" fill="white"/>
<path d="M108.076 0.334179H101.078V29.5749H108.371C113.008 29.5749 115.411 27.1521 115.411 22.6407V20.2597C115.411 17.1685 114.442 14.9546 111.954 13.9938C114.02 13.033 114.948 11.1115 114.948 8.10387V7.05956C114.948 2.54812 112.882 0.334179 108.076 0.334179ZM107.781 16.4166C109.889 16.4166 110.774 17.252 110.774 19.9673V22.5154C110.774 24.6876 109.931 25.3977 108.371 25.3977H105.715V16.4166H107.781ZM107.95 4.51143C109.594 4.51143 110.31 5.43043 110.31 7.51905V9.14818C110.31 11.4874 109.256 12.2393 107.528 12.2393H105.715V4.51143H107.95Z" fill="white"/>
<path d="M128.49 0.334179H121.703L116.982 29.5749H121.239L122.04 24.2698H127.732L128.533 29.5749H133.212L128.49 0.334179ZM124.865 5.51397L127.099 20.3014H122.631L124.865 5.51397Z" fill="white"/>
<path d="M140.009 17.0432H145.278V29.5749H150V0.334179H145.278V12.8659H140.009V0.334179H135.372V29.5749H140.009V17.0432Z" fill="white"/>
<path d="M162.004 16.166L163.901 8.98109V29.5749H168.075V0.334179H162.974L159.18 12.4064L157.494 18.8394V0.334179H153.362V29.5749H158.126L162.004 16.166Z" fill="white"/>
<path d="M175.99 4.51143H184V0.334179H171.353V29.5749H184V25.3977H175.99V16.8343H182.356V12.6571H175.99V4.51143Z" fill="white"/>
</svg>
