<svg width="350" height="346" viewBox="0 0 350 346" fill="none" xmlns="http://www.w3.org/2000/svg">
<g clip-path="url(#clip0_4551_5364)">
<path d="M3.4407 148.146L74.5649 286.235C67.6246 272.788 85.6924 248.423 118.731 222.736C122.688 219.633 123.893 214.174 121.599 209.691L60.2254 90.5078C57.2427 84.6463 49.6141 83.0373 44.5092 87.1173C13.421 111.885 -3.32758 135.101 3.4407 148.146Z" fill="white"/>
<path d="M74.5077 286.638C74.3356 286.638 74.2209 286.581 74.1635 286.408L3.03932 148.318C-0.28746 141.882 1.94951 132.688 9.40608 121.769C16.6332 111.311 28.6211 99.1854 44.1652 86.7729C46.6889 84.7616 49.9584 83.9571 53.1704 84.6467C56.3825 85.3362 59.0783 87.405 60.5696 90.2783L121.943 209.462C124.352 214.117 123.09 219.806 118.96 223.024C102.499 235.838 89.7076 248.366 81.9643 259.227C74.0488 270.375 71.6398 279.57 74.9092 285.948C75.0239 286.178 74.9092 286.408 74.7371 286.523C74.6798 286.638 74.565 286.638 74.5077 286.638ZM3.78498 147.916L72.7869 281.926C71.0088 268.134 87.528 246.47 118.444 222.392C122.23 219.461 123.377 214.174 121.197 209.864L59.824 90.6805C58.4474 87.9797 55.981 86.0833 52.9984 85.4512C50.0731 84.819 47.0331 85.5086 44.6814 87.405C12.7329 112.977 -2.58179 135.561 3.78498 147.916Z" fill="#444444"/>
<path d="M2.29403 155.846L73.4183 293.936C66.4779 280.489 84.5458 256.123 117.584 230.436C121.542 227.333 122.746 221.874 120.452 217.392L59.0787 98.2656C56.0961 92.4041 48.4674 90.7951 43.3625 94.8751C12.3317 119.585 -4.41688 142.801 2.29403 155.846Z" fill="white"/>
<path d="M73.4179 294.338C73.2458 294.338 73.1311 294.281 73.0737 294.108L1.94947 156.019C-1.3773 149.583 0.859668 140.388 8.31624 129.47C15.486 119.011 27.5313 106.943 43.0753 94.5307C45.5991 92.5194 48.8685 91.7149 52.0806 92.4045C55.2926 93.0941 57.9885 95.1628 59.4798 98.0361L120.853 217.22C123.262 221.874 122 227.563 117.87 230.781C101.409 243.596 88.6178 256.124 80.8744 266.985C72.959 278.133 70.5499 287.385 73.8194 293.706C73.9341 293.936 73.8194 294.166 73.6473 294.281C73.5326 294.338 73.4752 294.338 73.4179 294.338ZM2.63777 155.674L71.6397 289.626C69.8616 275.834 86.3808 254.17 117.297 230.092C121.083 227.161 122.23 221.874 120.05 217.564L58.6768 98.3809C57.3002 95.68 54.8338 93.7836 51.8512 93.1515C48.9259 92.5194 45.8859 93.209 43.5342 95.1053C11.5857 120.678 -3.67163 143.319 2.63777 155.674Z" fill="#444444"/>
<path d="M165.593 31.7209L227.081 151.134C229.49 155.846 235.054 157.973 239.987 156.134C290.691 137.228 331.186 133.55 339.331 149.41L268.207 11.3206C260.177 -4.31001 220.829 -0.919539 171.271 17.1821C165.364 19.2509 162.725 26.1467 165.593 31.7209Z" fill="white"/>
<path d="M236.316 157.226C232.358 157.226 228.572 155.042 226.679 151.365L165.191 31.8937C163.757 29.1353 163.585 25.8598 164.732 22.9865C165.88 20.0558 168.174 17.8146 171.099 16.7228C195.878 7.70067 218.018 2.29891 235.283 1.1496C253.121 -0.0571792 264.593 3.39075 268.551 11.0911L339.675 149.181C339.79 149.411 339.675 149.641 339.503 149.755C339.274 149.87 339.044 149.755 338.929 149.583C335.086 142.055 323.557 138.837 305.604 140.159C287.938 141.48 265.281 147.17 240.101 156.536C238.839 156.996 237.577 157.226 236.316 157.226ZM165.937 31.5489L227.425 150.962C229.719 155.445 235.054 157.513 239.814 155.789C287.823 137.918 324.647 134.182 336.864 145.503L267.863 11.4359C260.177 -3.44765 222.32 -1.09156 171.443 17.5273C168.747 18.5042 166.568 20.6304 165.535 23.3313C164.446 25.9747 164.618 28.9629 165.937 31.5489Z" fill="#444444"/>
<path d="M164.446 39.4219L225.934 158.835C228.343 163.547 233.906 165.674 238.839 163.835C289.544 144.929 330.039 141.251 338.184 157.111L267.117 18.9642C259.087 3.33355 219.739 6.72402 170.181 24.8257C164.274 27.0093 161.578 33.8477 164.446 39.4219Z" fill="white"/>
<path d="M235.226 164.926C231.268 164.926 227.482 162.743 225.589 159.065L164.101 39.6515C162.667 36.8931 162.495 33.6176 163.643 30.7443C164.79 27.8136 167.084 25.5724 170.009 24.4806C194.731 15.4585 216.928 10.0567 234.136 8.90741C251.974 7.70063 263.446 11.1486 267.404 18.8489L338.528 156.939C338.643 157.169 338.528 157.398 338.356 157.513C338.126 157.628 337.897 157.513 337.782 157.341C333.939 149.813 322.41 146.595 304.457 147.917C286.791 149.238 264.134 154.927 238.954 164.294C237.749 164.696 236.488 164.926 235.226 164.926ZM164.847 39.2492L226.335 158.663C228.629 163.145 233.964 165.214 238.725 163.49C286.733 145.618 323.557 141.883 335.775 153.203L266.715 19.1937C259.029 4.2527 221.173 6.66625 170.296 25.2276C167.6 26.2045 165.421 28.3308 164.388 31.0316C163.356 33.6751 163.528 36.7207 164.847 39.2492Z" fill="#444444"/>
<path d="M237.005 84.7617C235.571 85.2214 234.079 85.6812 232.531 86.0834C222.665 88.497 220.658 86.0834 194.961 85.164C163.529 84.0721 152.86 87.1178 145.461 90.3933C141.216 92.2322 137.89 94.2435 132.039 97.6915C112.078 109.529 106.974 117 101.754 115.333C100.549 114.931 99.3449 114.069 98.3124 112.403C90.3396 118.437 81.2197 117.115 76.2295 115.621C76.2295 116.77 76.2869 117.919 76.4016 119.069C76.6884 122.459 77.2046 128.378 80.8755 133.378C88.6762 144.124 108.006 146.537 128.598 139.469C127.278 142.285 116.782 166.133 129.171 188.315C141.962 211.243 170.01 215.841 188.422 212.68C218.478 207.566 242.454 178.488 238.381 161.191C237.693 158.203 234.538 153.893 228.401 145.445C221.059 135.446 214.463 127.631 209.759 122.344C214.807 122.057 232.187 120.333 247.272 106.369C248.648 105.105 249.91 103.783 251.115 102.519C242.396 99.6453 238.611 90.7381 237.005 84.7617Z" fill="#1F75BA"/>
<path d="M177.581 214.002C170.411 214.002 163.069 212.852 156.473 210.669C144.141 206.589 134.562 198.946 128.712 188.544C117.24 168.029 125.156 146.192 127.737 140.216C107.145 146.997 88.217 144.411 80.4163 133.665C76.688 128.55 76.1718 122.689 75.885 119.126C75.7703 117.977 75.7129 116.827 75.7129 115.621C75.7129 115.506 75.7703 115.391 75.885 115.276C75.9997 115.218 76.1144 115.161 76.2291 115.218C80.9325 116.598 89.9951 118.034 97.9105 112.058C98.0252 112 98.14 111.943 98.2547 112C98.3694 112 98.4841 112.115 98.5415 112.173C99.4592 113.609 100.549 114.529 101.811 114.931C104.679 115.85 107.661 113.667 113.627 109.357C117.814 106.311 123.55 102.174 131.695 97.3466C137.66 93.8412 140.929 91.8874 145.174 89.991C152.344 86.8304 162.668 83.6123 194.846 84.7042C205.17 85.049 211.652 85.6811 216.413 86.0833C223.525 86.7155 226.508 87.0028 232.358 85.5661C233.85 85.2214 235.341 84.7616 236.832 84.3019C236.947 84.2444 237.062 84.3019 237.176 84.3019C237.291 84.3594 237.348 84.4743 237.406 84.5318C239.127 90.9679 242.912 99.243 251.114 102.001C251.229 102.059 251.344 102.174 251.401 102.289C251.459 102.404 251.401 102.576 251.286 102.691C250.025 104.07 248.763 105.392 247.443 106.599C234.022 119.011 218.879 121.942 210.505 122.631C216.814 129.757 222.894 137.343 228.573 145.1C235.054 153.95 237.922 158.03 238.668 161.018C240.216 167.455 237.979 175.615 232.473 183.947C222.722 198.658 205.457 210.094 188.422 212.967C184.923 213.657 181.252 214.002 177.581 214.002ZM128.54 139.067C128.655 139.067 128.769 139.124 128.827 139.181C128.941 139.296 128.941 139.469 128.884 139.641C126.876 144.009 117.527 166.765 129.458 188.085C141.445 209.519 168.346 215.611 188.25 212.22C205.113 209.347 222.148 198.084 231.785 183.545C237.176 175.385 239.356 167.455 237.865 161.248C237.176 158.318 233.907 153.778 227.942 145.618C222.091 137.63 215.839 129.872 209.358 122.574C209.243 122.459 209.243 122.287 209.3 122.114C209.358 121.942 209.472 121.884 209.644 121.884C217.675 121.367 233.219 118.666 246.927 106.024C248.074 104.932 249.222 103.84 250.311 102.633C242.339 99.6452 238.553 91.6575 236.775 85.2214C235.398 85.6811 234.022 86.0833 232.645 86.3707C226.68 87.8073 223.468 87.52 216.47 86.8879C211.709 86.4281 205.228 85.8535 194.961 85.5087C162.955 84.4168 152.688 87.5774 145.633 90.6806C141.445 92.5195 138.176 94.4733 132.211 97.9787C124.066 102.806 118.33 106.943 114.2 109.932C108.006 114.414 104.908 116.655 101.639 115.621C100.32 115.218 99.1724 114.299 98.1973 112.862C90.3966 118.551 81.5634 117.402 76.6306 116.08C76.6306 117.057 76.688 118.034 76.8027 118.954C77.0895 122.402 77.6057 128.148 81.1619 133.033C88.8479 143.606 107.833 146.02 128.425 139.009C128.425 139.067 128.482 139.067 128.54 139.067Z" fill="#444444"/>
<path d="M275.435 63.2693L272.739 64.9932L276.869 57.5802C277.041 57.2354 277.098 56.7757 276.926 56.4309C276.525 55.5689 275.377 55.4539 274.804 56.1435L269.355 62.867L273.14 53.3852C273.427 52.5807 273.14 51.7187 272.452 51.259C271.534 50.6843 270.387 51.0866 269.986 52.0635L266.372 60.6258L267.634 53.1553C267.806 52.2933 267.118 51.3739 266.2 51.4314C265.626 51.4314 265.11 51.7762 264.881 52.868C264.365 55.5114 261.726 66.0276 261.726 66.0276C261.726 66.0276 260.579 65.6253 259.088 63.6141C257.596 61.6028 256.965 62.6946 256.965 62.6946C256.048 65.7977 258.285 69.1307 259.891 71.0846C254.442 76.0841 246.87 81.5433 237.177 84.8188C238.783 90.7953 242.568 99.7024 251.172 102.576C260.579 92.117 264.078 80.9112 265.397 75.2221C269.183 73.6705 275.607 66.6023 277.041 64.9932C277.213 64.7634 277.328 64.5335 277.328 64.2462C277.155 63.3267 276.18 62.7521 275.435 63.2693Z" fill="white"/>
<path d="M251 102.92C250.942 102.92 250.885 102.92 250.885 102.92C242.339 100.047 238.381 91.5421 236.66 84.8761C236.603 84.6463 236.717 84.4164 236.947 84.3589C244.862 81.7155 252.319 77.2332 259.259 70.9695C257.481 68.7283 255.646 65.5102 256.506 62.522C256.506 62.522 256.506 62.4646 256.563 62.4646C256.563 62.4071 256.85 62.0048 257.424 61.9474C258.055 61.8899 258.686 62.3496 259.374 63.3266C260.234 64.4759 260.98 65.108 261.439 65.3953C261.955 63.2691 264.02 55.0515 264.479 52.8104C264.766 51.3163 265.683 51.0289 266.2 51.0289C266.716 51.0289 267.232 51.2588 267.576 51.661C267.978 52.1208 268.092 52.6954 268.035 53.2701L267.347 57.2352L269.584 51.9484C269.813 51.3737 270.329 50.914 270.903 50.7416C271.477 50.5692 272.165 50.6267 272.681 50.9715C273.541 51.5461 273.943 52.638 273.541 53.6149L270.788 60.5682L274.574 55.971C274.918 55.5112 275.492 55.2814 276.065 55.3388C276.639 55.3963 277.155 55.7411 277.384 56.3158C277.614 56.8329 277.614 57.4076 277.327 57.8673L274 63.8437L275.32 62.9818C275.778 62.6944 276.409 62.637 276.868 62.9243C277.384 63.2116 277.671 63.7288 277.671 64.3035C277.671 64.7057 277.557 65.0505 277.27 65.3378C275.492 67.3491 269.469 73.8427 265.626 75.5667C263.963 82.7499 260.12 93.2086 251.401 102.92C251.229 102.863 251.114 102.92 251 102.92ZM237.52 84.9911C239.241 91.3123 242.97 99.2425 250.885 102.001C259.489 92.4041 263.217 82.0603 264.823 75.0495C264.88 74.9346 264.938 74.8197 265.052 74.7622C268.781 73.2106 275.32 66.0849 276.581 64.6483C276.696 64.5333 276.754 64.3609 276.754 64.1885C276.754 63.9012 276.639 63.6713 276.409 63.5564C276.18 63.4415 275.893 63.4415 275.664 63.5564L272.968 65.2804C272.796 65.3953 272.624 65.3378 272.452 65.2229C272.337 65.108 272.28 64.8781 272.394 64.7057L276.524 57.2927C276.639 57.0628 276.696 56.7755 276.524 56.4882C276.409 56.2008 276.123 56.0284 275.836 56.0284C275.549 55.971 275.262 56.0859 275.09 56.3158L269.641 63.0392C269.526 63.2116 269.297 63.2116 269.125 63.1542C268.953 63.0392 268.895 62.8094 268.953 62.637L272.738 53.1552C272.968 52.5805 272.738 51.8909 272.222 51.5461C271.878 51.3163 271.477 51.3163 271.132 51.4312C270.788 51.5461 270.501 51.8334 270.329 52.1782L266.716 60.7406C266.658 60.913 266.429 61.0279 266.2 60.9705C265.97 60.913 265.855 60.6831 265.913 60.5107L267.175 53.0402C267.232 52.6954 267.117 52.3506 266.945 52.1208C266.773 51.8909 266.486 51.776 266.2 51.776C266.028 51.776 265.511 51.776 265.282 52.8678C264.766 55.4538 262.242 65.6252 262.127 66.0274C262.07 66.1424 262.012 66.2573 261.898 66.3148C261.783 66.3722 261.668 66.3722 261.554 66.3148C261.496 66.3148 260.234 65.855 258.686 63.7288C257.94 62.7519 257.539 62.6944 257.424 62.6944C257.366 62.6944 257.309 62.7519 257.252 62.7519C256.449 65.6826 258.686 69.0156 260.12 70.6821C260.234 70.8545 260.234 71.0844 260.062 71.2568C253.065 77.6929 245.493 82.2902 237.52 84.9911Z" fill="#444444"/>
<path d="M94.1253 88.5533C95.9034 85.68 95.3871 78.7267 93.437 75.3362C91.4294 71.9458 84.5464 62.1191 84.5464 62.1191C81.1623 64.7626 86.2098 72.6353 86.2098 72.6353C80.3019 76.4281 83.6287 80.3932 83.6287 80.3932C81.277 85.3352 84.2597 87.0017 86.0951 87.5764C82.1948 92.8632 76.2295 102.862 76.2295 115.562C81.2197 116.999 90.3396 118.378 98.3124 112.344C96.0181 108.896 94.2973 101.943 94.1253 88.5533Z" fill="white"/>
<path d="M84.5461 117.286C81.1619 117.286 78.2367 116.654 76.1144 116.022C75.9423 115.965 75.8276 115.792 75.8276 115.62C75.7703 103.667 80.9325 93.9553 85.4064 87.8065C84.374 87.4043 83.2268 86.6572 82.6533 85.393C82.0797 84.0713 82.2517 82.4048 83.1121 80.4509C82.768 79.9337 82.0223 78.612 82.3091 76.9455C82.5385 75.3365 83.6857 73.8424 85.6359 72.5207C84.6608 70.9116 80.9899 64.3606 84.2593 61.7746C84.374 61.7172 84.4887 61.6597 84.6034 61.7172C84.7182 61.7172 84.8329 61.7746 84.8902 61.8896C84.9476 62.0045 91.8306 71.7162 93.7808 75.1066C95.6736 78.3822 96.4192 85.4504 94.5838 88.6685C94.7558 100.277 96.1324 108.207 98.6562 112.172C98.7709 112.344 98.7136 112.574 98.5415 112.747C93.8955 116.194 88.8479 117.286 84.5461 117.286ZM76.6306 115.333C81.334 116.654 90.0525 117.918 97.7385 112.287C95.2147 108.092 93.8955 100.104 93.7234 88.5536C93.7234 88.4961 93.7234 88.3812 93.7808 88.3237C95.3868 85.6803 95.0426 78.8419 93.0351 75.5089C91.3143 72.5207 85.7506 64.5904 84.4314 62.7515C82.0223 65.395 86.4389 72.3483 86.4963 72.4058C86.5536 72.5207 86.5536 72.6356 86.5536 72.6931C86.5536 72.808 86.4389 72.9229 86.3815 72.9804C84.4314 74.2446 83.3415 75.6238 83.1121 77.0605C82.8253 78.7844 83.8578 80.1061 83.9151 80.1061C84.0299 80.2211 84.0298 80.3935 83.9725 80.5659C83.1121 82.4048 82.94 83.8989 83.3989 85.0482C83.9151 86.3124 85.177 86.8871 86.1521 87.1744C86.2668 87.2319 86.3815 87.2893 86.4389 87.4617C86.4963 87.5767 86.4389 87.749 86.3815 87.864C81.965 93.8404 76.688 103.437 76.6306 115.333Z" fill="#444444"/>
<path d="M89.8233 85.9684C89.7085 85.9684 89.6512 85.9109 89.5365 85.8534C89.4217 85.7385 86.6686 83.3249 87.9304 80.5666C88.9629 78.3829 88.7908 78.153 87.9304 76.7164L87.8157 76.544C86.7259 74.7626 87.7584 73.1535 87.8157 73.0386C87.8731 72.9237 87.9878 72.8662 88.1025 72.8662C88.2172 72.8662 88.3319 72.8662 88.4467 72.9811L92.4044 76.6589C92.5765 76.8313 92.5765 77.0612 92.4044 77.2336C92.2323 77.406 92.0029 77.406 91.8308 77.2336L88.2746 73.9581C88.1025 74.4178 87.9878 75.2223 88.504 76.0843L88.6187 76.2567C89.5938 77.8657 89.8233 78.3829 88.6761 80.9114C87.6436 83.0951 90.0527 85.1638 90.0527 85.2213C90.2248 85.3937 90.2248 85.6236 90.11 85.796C90.0527 85.9109 89.938 85.9684 89.8233 85.9684Z" fill="#444444"/>
<path d="M85.9802 82.7494C85.5213 82.7494 85.0624 82.577 84.7183 82.2322L83.2843 80.7381C83.1123 80.5657 83.1123 80.3359 83.2843 80.1635C83.4564 79.9911 83.6858 79.9911 83.8579 80.1635L85.2919 81.6576C85.636 82.0024 86.2096 82.0598 86.5537 81.715C86.7258 81.5426 87.0126 81.6001 87.1273 81.7725C87.2994 81.9449 87.2421 82.2322 87.07 82.3472C86.7832 82.577 86.3817 82.7494 85.9802 82.7494Z" fill="#444444"/>
<path d="M222.034 296.867C222.092 297.327 236.718 318.474 236.718 318.474L224.959 321.577L213.373 303.361L222.034 296.867Z" fill="white"/>
<path d="M224.959 321.98C224.844 321.98 224.672 321.922 224.615 321.808L213.028 303.591C212.914 303.419 212.971 303.189 213.143 303.016L221.862 296.523C221.976 296.465 222.148 296.408 222.263 296.465C222.378 296.523 222.493 296.58 222.493 296.695C222.894 297.5 231.44 309.97 237.119 318.187C237.176 318.302 237.234 318.417 237.176 318.589C237.119 318.704 237.004 318.819 236.889 318.819L225.131 321.922C225.016 321.98 224.959 321.98 224.959 321.98ZM213.889 303.476L225.131 321.06L236.029 318.187C230.121 309.682 223.41 299.856 221.919 297.442L213.889 303.476Z" fill="#444444"/>
<path d="M224.901 315.658C224.901 315.658 226.277 309.51 232.988 311.234C232.988 311.234 247.328 325.715 253.981 338.587C255.874 342.208 252.547 346.403 248.532 345.426C239.298 343.07 224.327 337.323 213.945 323.531C213.945 323.531 215.207 316.865 218.534 313.302L224.901 315.658Z" fill="white"/>
<path d="M249.737 346C249.336 346 248.877 345.943 248.418 345.828C238.151 343.242 223.754 337.266 213.602 323.761C213.544 323.646 213.487 323.531 213.544 323.416C213.602 323.129 214.864 316.578 218.248 313.015C218.362 312.9 218.534 312.843 218.707 312.9L224.614 315.084C224.901 314.222 225.647 312.441 227.425 311.349C228.974 310.429 230.866 310.257 233.046 310.832C233.103 310.832 233.161 310.889 233.218 310.946C233.39 311.119 247.672 325.6 254.269 338.415C255.186 340.254 255.014 342.38 253.695 343.989C252.777 345.253 251.286 346 249.737 346ZM214.405 323.416C224.442 336.634 238.552 342.438 248.648 345.024C250.311 345.426 252.032 344.851 253.121 343.472C254.211 342.093 254.383 340.311 253.58 338.76C247.271 326.577 233.906 312.785 232.759 311.579C230.809 311.119 229.203 311.234 227.884 312.038C225.876 313.303 225.303 315.659 225.303 315.716C225.303 315.831 225.188 315.946 225.073 316.003C224.959 316.061 224.844 316.061 224.729 316.003L218.649 313.762C215.896 316.923 214.634 322.382 214.405 323.416Z" fill="#444444"/>
<path d="M248.476 341.346C243.428 341.346 232.473 339.105 216.642 323.819C216.47 323.647 216.47 323.417 216.642 323.245C216.814 323.072 217.043 323.072 217.215 323.245C238.782 344.047 251.286 340.254 251.401 340.197C251.63 340.139 251.86 340.254 251.917 340.484C251.974 340.714 251.86 340.944 251.63 341.001C251.516 341.001 250.426 341.346 248.476 341.346Z" fill="#444444"/>
<path d="M238.668 329.91C238.553 329.91 238.438 329.852 238.324 329.738C238.152 329.565 238.209 329.278 238.381 329.163L243.543 324.796C243.715 324.623 244.002 324.681 244.117 324.853C244.289 325.025 244.232 325.313 244.059 325.428L238.897 329.795C238.897 329.91 238.782 329.91 238.668 329.91Z" fill="#444444"/>
<path d="M235.054 326.117C234.939 326.117 234.825 326.06 234.71 325.945C234.595 325.772 234.595 325.485 234.767 325.37L240.388 320.888C240.56 320.773 240.847 320.773 240.962 320.945C241.077 321.118 241.077 321.405 240.905 321.52L235.283 326.002C235.226 326.117 235.169 326.117 235.054 326.117Z" fill="#444444"/>
<path d="M186.012 248.768L176.204 256.296L184.808 268.019L193.928 259.284L186.012 248.768Z" fill="white"/>
<path d="M184.808 268.421C184.636 268.421 184.521 268.364 184.464 268.249L175.86 256.583C175.746 256.411 175.746 256.124 175.918 256.009L185.668 248.481C185.783 248.423 185.841 248.366 185.955 248.423C186.07 248.423 186.185 248.481 186.242 248.596L194.215 259.054C194.33 259.227 194.33 259.457 194.157 259.629L184.98 268.364C184.98 268.364 184.923 268.421 184.808 268.421ZM176.778 256.411L184.865 267.387L193.412 259.227L185.898 249.4L176.778 256.411Z" fill="#444444"/>
<path d="M190.601 266.64L181.538 259.284L179.818 253.078C175.057 252.963 169.665 256.526 166.74 258.824C165.363 259.859 164.962 261.755 165.708 263.307C170.583 273.191 181.481 288.592 186.758 295.832C188.077 297.671 191.003 297.097 191.461 294.855C193.813 283.707 190.601 266.64 190.601 266.64Z" fill="white"/>
<path d="M188.88 297.327C187.905 297.327 187.045 296.867 186.414 296.062C180.563 288.075 170.067 273.191 165.306 263.479C164.446 261.755 164.962 259.687 166.453 258.48C169.264 256.296 174.656 252.676 179.531 252.676C179.588 252.676 179.703 252.676 179.76 252.676C179.932 252.676 180.105 252.791 180.162 252.963L181.825 258.997L190.831 266.295C190.888 266.353 190.945 266.467 191.003 266.525C191.06 266.697 194.157 283.822 191.863 294.855C191.634 296.005 190.716 296.924 189.569 297.154C189.339 297.269 189.11 297.327 188.88 297.327ZM179.474 253.48C174.885 253.538 169.665 257.043 166.97 259.112C165.765 260.031 165.363 261.698 166.052 263.077C170.813 272.731 181.252 287.557 187.102 295.545C187.618 296.292 188.479 296.579 189.397 296.407C190.257 296.235 190.888 295.603 191.06 294.741C193.24 284.397 190.544 268.594 190.257 266.87L181.252 259.572C181.194 259.514 181.137 259.457 181.137 259.342L179.474 253.48Z" fill="#444444"/>
<path d="M187.561 291.81C187.446 291.81 187.274 291.752 187.217 291.637L172.762 270.72C171.787 269.283 171.328 267.502 171.5 265.663C171.845 262.157 170.468 258.595 170.468 258.595C170.411 258.365 170.468 258.135 170.697 258.077C170.927 258.02 171.156 258.077 171.214 258.307C171.271 258.48 172.705 262.1 172.303 265.778C172.131 267.444 172.533 268.996 173.393 270.26L187.847 291.178C187.962 291.35 187.905 291.637 187.733 291.752C187.733 291.752 187.618 291.81 187.561 291.81Z" fill="#444444"/>
<path d="M195.706 149.525C195.706 149.525 223.64 171.592 238.381 192.28C242.51 198.084 243.084 205.669 239.987 212.048C233.161 225.897 218.477 250.722 195.706 263.077L176.606 238.597C176.606 238.597 193.297 220.093 205.629 211.646L174.311 176.477L166.511 158.777L195.706 149.525Z" fill="#444444"/>
<path d="M209.185 314.509C210.16 316.233 232.702 299.74 232.702 299.74C232.702 299.74 215.495 279.512 188.077 176.821C187.733 175.614 182.686 150.502 182.686 150.502L145.288 170.155C145.288 170.213 151.884 213.427 209.185 314.509Z" fill="#444444"/>
<path d="M192.552 193.774C192.379 193.774 192.207 193.659 192.15 193.487L188.651 180.615C188.02 178.201 188.422 175.673 189.798 173.604L191.978 170.443C192.093 170.271 192.379 170.213 192.552 170.328C192.724 170.443 192.781 170.731 192.666 170.903L190.487 174.064C189.225 175.903 188.823 178.201 189.454 180.385L192.953 193.257C193.01 193.487 192.896 193.717 192.666 193.774C192.666 193.717 192.609 193.774 192.552 193.774Z" fill="white"/>
<path d="M215.437 261.123C215.265 261.123 215.15 261.008 215.036 260.893C214.978 260.721 206.432 240.723 203.277 230.667C203.22 230.437 203.335 230.207 203.564 230.149C203.794 230.092 204.023 230.207 204.08 230.437C207.235 240.436 215.724 260.376 215.781 260.549C215.896 260.779 215.781 261.008 215.552 261.066C215.552 261.123 215.495 261.123 215.437 261.123Z" fill="white"/>
<path d="M136.455 103.725C137.143 118.666 139.266 156.019 143.166 171.017C143.682 172.971 145.804 173.948 147.583 173.143C156.473 169.121 181.825 158.375 201.098 156.881C203.851 156.651 205.686 153.95 204.826 151.306C201.155 139.986 192.896 113.494 190.544 95.335C189.856 90.1631 185.783 86.198 180.736 85.7958C171.329 85.0487 156.186 85.6234 141.961 93.6111C138.405 95.6224 136.283 99.53 136.455 103.725Z" fill="white"/>
<path d="M146.321 173.776C145.804 173.776 145.231 173.661 144.772 173.431C143.797 172.971 143.109 172.109 142.822 171.075C138.921 156.076 136.799 118.953 136.111 103.725C135.881 99.4151 138.118 95.3351 141.789 93.2663C155.899 85.3361 170.813 84.589 180.793 85.3936C186.013 85.7958 190.314 89.9333 191.003 95.2776C193.354 113.494 201.729 140.446 205.228 151.192C205.686 152.571 205.457 154.065 204.654 155.272C203.851 156.478 202.589 157.225 201.155 157.34C182.17 158.777 157.505 169.178 147.812 173.546C147.353 173.718 146.837 173.776 146.321 173.776ZM136.914 103.668C137.66 118.896 139.724 155.961 143.625 170.845C143.854 171.649 144.37 172.281 145.116 172.684C145.862 173.029 146.722 173.029 147.468 172.684C157.219 168.259 181.997 157.858 201.098 156.421C202.302 156.306 203.335 155.731 203.966 154.754C204.654 153.778 204.769 152.571 204.424 151.421C200.926 140.675 192.494 113.667 190.142 95.3926C189.511 90.4505 185.554 86.6003 180.678 86.2555C170.755 85.5085 156.014 86.1981 142.133 94.0134C138.749 95.9097 136.684 99.7025 136.914 103.668Z" fill="#444444"/>
<path d="M153.49 66.5448C153.49 66.5448 150.565 60.6258 149.532 59.5914C148.5 58.5571 147.697 57.4652 150.737 55.3965C153.777 53.3852 161.635 47.9834 166.453 47.9834C171.271 48.0409 174.655 51.0865 173.164 53.2702C171.672 55.4539 170.984 56.4308 172.131 56.5458C173.278 56.6607 173.909 57.9824 170.64 59.8788C167.485 61.8326 156.128 69.9927 153.49 66.5448Z" fill="#444444"/>
<path d="M170.01 87.1754L168.347 78.2108C173.451 75.6823 171.387 72.1194 170.641 69.3036C169.838 66.2579 167.314 59.6494 167.314 59.6494C163.127 62.1204 154.982 61.3734 154.982 61.3734C154.982 61.3734 156.129 63.2697 155.498 64.1892C154.81 65.1086 155.269 68.6715 155.269 68.6715C155.269 68.6715 153.835 67.2923 152.229 68.3267C151.369 68.9014 152.344 71.4298 153.089 72.8665C153.835 74.3031 155.384 74.533 155.384 74.533C155.384 74.533 155.613 74.3606 156.187 75.6248L153.433 90.2785L147.984 92.5197L160.087 94.1287C163.93 94.6459 167.773 93.6115 170.813 91.2555L175.172 87.9225L170.01 87.1754Z" fill="white"/>
<path d="M161.865 94.6457C161.234 94.6457 160.545 94.5882 159.915 94.5308L147.812 92.9217C147.64 92.9217 147.468 92.7493 147.468 92.5769C147.468 92.4045 147.525 92.2321 147.697 92.1172L152.917 89.9335L155.613 75.6246C155.383 75.1649 155.268 74.935 155.211 74.8775C155.154 74.8775 153.433 74.5328 152.63 72.9812C151.999 71.7169 150.68 68.7862 151.942 67.9242C152.917 67.2346 153.949 67.407 154.695 67.7518C154.58 66.545 154.58 64.6487 155.096 63.8442C155.498 63.2695 154.867 61.9478 154.58 61.5455C154.523 61.4306 154.523 61.2582 154.58 61.0858C154.638 60.9709 154.81 60.856 154.982 60.9134C155.039 60.9134 163.069 61.603 167.084 59.2469C167.199 59.1895 167.314 59.1895 167.428 59.1895C167.543 59.2469 167.658 59.3044 167.658 59.4193C167.773 59.7066 170.182 66.0853 170.985 69.131C171.099 69.4758 171.214 69.878 171.329 70.2803C172.132 72.8663 173.164 76.0269 168.748 78.3829L170.354 86.7729L175.057 87.4625C175.229 87.4625 175.344 87.6349 175.401 87.7498C175.459 87.9222 175.401 88.0946 175.229 88.2096L170.87 91.5426C168.346 93.5538 165.134 94.6457 161.865 94.6457ZM149.418 92.2321L160.029 93.6688C163.7 94.186 167.543 93.1516 170.468 90.9104L174.025 88.1521L169.952 87.52C169.78 87.52 169.665 87.3476 169.608 87.1752L167.945 78.2106C167.887 78.0382 168.002 77.8658 168.174 77.7508C172.247 75.6821 171.386 73.0386 170.583 70.5102C170.468 70.1079 170.354 69.7056 170.239 69.3034C169.551 66.7749 167.658 61.6605 167.084 60.1664C163.528 62.0053 157.735 61.8903 155.67 61.7754C156.014 62.465 156.358 63.6143 155.785 64.3614C155.383 64.8785 155.441 67.1197 155.613 68.5563C155.613 68.7287 155.555 68.9011 155.383 68.9586C155.211 69.0161 155.039 69.0161 154.924 68.9011C154.867 68.8437 153.662 67.7518 152.401 68.6138C151.999 68.8437 152.286 70.4527 153.376 72.6364C153.892 73.7282 155.039 74.0156 155.268 74.073C155.326 74.073 155.383 74.073 155.441 74.073C155.67 74.1305 155.957 74.3604 156.416 75.3947C156.473 75.4522 156.473 75.5671 156.416 75.6246L153.662 90.2783C153.662 90.3932 153.548 90.5082 153.433 90.5656L149.418 92.2321Z" fill="#444444"/>
<path d="M163.643 79.6473C158.997 79.6473 157.276 76.0844 157.276 76.027C157.162 75.7971 157.276 75.5672 157.506 75.4523C157.735 75.3374 157.965 75.4523 158.079 75.6822C158.194 75.912 160.661 80.969 168.232 77.8084C168.461 77.6935 168.691 77.8084 168.748 78.0383C168.863 78.2681 168.748 78.498 168.519 78.5555C166.626 79.36 165.02 79.6473 163.643 79.6473Z" fill="#444444"/>
<path d="M151.54 63.6713L153.089 68.2111C153.089 68.2111 162.954 74.13 174.713 71.7165C176.319 71.3717 177.351 69.7626 177.007 68.2111L176.089 60.2234C175.745 58.6143 174.139 57.6374 172.533 58.0397L151.54 63.6713Z" fill="white"/>
<path d="M169.035 72.6932C159.915 72.6932 152.974 68.6131 152.86 68.5557C152.802 68.4982 152.687 68.4407 152.687 68.3258L151.139 63.786C151.081 63.6711 151.139 63.5562 151.139 63.4412C151.196 63.3263 151.311 63.2688 151.426 63.2114L172.419 57.5223C173.279 57.2924 174.197 57.4648 175 57.9245C175.745 58.3843 176.319 59.1313 176.491 60.0508V60.1082L177.409 68.0959C177.581 68.9579 177.466 69.8774 176.95 70.6244C176.434 71.3715 175.688 71.8887 174.828 72.1185C172.82 72.5782 170.87 72.6932 169.035 72.6932ZM153.433 67.9235C154.638 68.6131 163.872 73.4977 174.656 71.314C175.344 71.1991 175.918 70.7968 176.262 70.2222C176.606 69.6475 176.778 68.9579 176.606 68.2683V68.2109L175.688 60.2232C175.516 59.591 175.115 59.0164 174.598 58.6716C174.025 58.3268 173.336 58.2119 172.705 58.3843L152.114 63.9584L153.433 67.9235Z" fill="#444444"/>
<path d="M162.725 69.0725C162.611 69.0725 162.496 69.0151 162.439 68.9576C162.267 68.7852 162.267 68.5554 162.439 68.383L166.224 64.5902C166.396 64.4178 166.626 64.4178 166.798 64.5902C166.97 64.7626 166.97 64.9925 166.798 65.1649L163.012 68.9576C162.897 69.0725 162.84 69.0725 162.725 69.0725Z" fill="#444444"/>
<path d="M168.347 68.3831C168.232 68.3831 168.117 68.3257 168.06 68.2682C167.888 68.0958 167.888 67.8659 168.06 67.6935L173.681 62.0619C173.853 61.8895 174.082 61.8895 174.254 62.0619C174.426 62.2343 174.426 62.4642 174.254 62.6366L168.633 68.2682C168.519 68.3257 168.461 68.3831 168.347 68.3831Z" fill="#444444"/>
<path d="M98.6555 296.58C85.6926 296.235 77.433 292.844 74.1636 286.408L3.03934 148.319C2.92462 148.089 3.03934 147.859 3.21142 147.744C3.44085 147.629 3.67028 147.744 3.785 147.916C7.68536 155.444 19.2717 158.72 37.3396 157.341C55.1206 155.962 77.8918 150.215 103.244 140.733C108.406 138.837 114.142 141.021 116.666 145.905L178.154 265.318C179.588 268.077 179.76 271.352 178.613 274.226C177.466 277.156 175.171 279.398 172.246 280.489C164.904 283.19 157.677 285.604 150.737 287.673C150.507 287.73 150.278 287.615 150.221 287.385C150.163 287.155 150.278 286.926 150.507 286.868C157.39 284.799 164.618 282.386 171.959 279.742C174.655 278.765 176.835 276.639 177.867 273.938C178.9 271.237 178.728 268.249 177.408 265.721L115.92 146.307C113.626 141.768 108.292 139.756 103.531 141.538C73.5326 152.743 47.8935 158.49 29.8256 158.49C18.7555 158.49 10.5533 156.364 5.90725 152.054L74.9092 286.064C78.0066 292.097 86.2088 295.43 98.6555 295.775C98.885 295.775 99.057 295.948 99.057 296.177C99.057 296.407 98.885 296.58 98.6555 296.58Z" fill="#444444"/>
<path d="M133.128 292.327C132.956 292.327 132.783 292.212 132.726 291.983C132.669 291.753 132.841 291.523 133.013 291.465C138.577 290.201 144.427 288.65 150.45 286.868C150.679 286.811 150.909 286.926 150.966 287.155C151.023 287.385 150.909 287.615 150.679 287.673C144.657 289.454 138.749 291.006 133.185 292.27C133.185 292.327 133.185 292.327 133.128 292.327Z" fill="white"/>
<path d="M111.275 296.063C111.045 296.063 110.873 295.89 110.873 295.661C110.873 295.431 111.045 295.201 111.217 295.201C117.813 294.569 125.155 293.304 133.013 291.523C133.243 291.466 133.472 291.638 133.53 291.81C133.587 292.04 133.415 292.27 133.243 292.328C125.327 294.109 117.985 295.373 111.275 296.063C111.332 296.063 111.332 296.063 111.275 296.063Z" fill="#444444"/>
<path d="M100.778 296.58C100.032 296.58 99.3437 296.58 98.6554 296.58C98.426 296.58 98.2539 296.407 98.2539 296.177C98.2539 295.947 98.426 295.775 98.6554 295.775C102.441 295.89 106.686 295.718 111.274 295.258C111.504 295.258 111.733 295.43 111.733 295.603C111.733 295.832 111.561 296.062 111.389 296.062C107.603 296.407 104.047 296.58 100.778 296.58Z" fill="white"/>
<path d="M213.888 261.583C209.931 261.583 206.145 259.457 204.195 255.722C204.08 255.492 204.195 255.262 204.367 255.147C204.596 255.032 204.826 255.147 204.94 255.319C207.407 260.146 213.429 262.1 218.305 259.687C221.001 258.365 223.697 256.986 226.392 255.607C261.725 237.333 292.871 216.243 314.151 196.13C335.316 176.132 344.092 159.582 338.929 149.583L269.985 15.573C271.361 26.0318 262.241 41.0303 243.657 58.6147C222.32 78.7851 191.117 99.9325 155.727 118.264C153.146 119.586 150.507 120.907 147.926 122.229C145.517 123.436 143.682 125.505 142.879 128.091C142.018 130.677 142.248 133.435 143.51 135.848L163.815 175.327C163.929 175.557 163.815 175.787 163.643 175.902C163.413 176.017 163.184 175.902 163.069 175.729L142.649 136.193C141.33 133.607 141.043 130.619 141.961 127.803C142.879 125.045 144.829 122.746 147.467 121.482C150.049 120.218 152.687 118.839 155.268 117.517C190.601 99.2429 221.746 78.153 243.026 58.0401C264.134 38.0421 272.967 21.5495 267.805 11.493C267.69 11.2631 267.805 11.0333 267.977 10.9183C268.207 10.8034 268.436 10.9183 268.551 11.0907L339.675 149.18C345.009 159.582 336.176 176.419 314.724 196.704C293.387 216.875 262.184 238.022 226.794 256.354C224.098 257.733 221.402 259.112 218.706 260.434C217.158 261.238 215.494 261.583 213.888 261.583Z" fill="#444444"/>
<path d="M204.596 255.951C204.424 255.951 204.309 255.894 204.252 255.722L190.314 228.713C190.199 228.483 190.314 228.253 190.486 228.138C190.715 228.023 190.945 228.138 191.059 228.31L204.997 255.319C205.112 255.549 204.997 255.779 204.825 255.894C204.711 255.894 204.653 255.951 204.596 255.951Z" fill="white"/>
<path d="M190.659 228.943C190.486 228.943 190.372 228.885 190.314 228.713L184.407 217.22C184.292 216.99 184.407 216.76 184.579 216.645C184.808 216.53 185.037 216.645 185.152 216.817L191.06 228.31C191.175 228.54 191.06 228.77 190.888 228.885C190.773 228.885 190.716 228.943 190.659 228.943Z" fill="#444444"/>
<path d="M184.75 217.449C184.578 217.449 184.463 217.392 184.406 217.219L163.011 175.672C162.896 175.442 163.011 175.212 163.183 175.097C163.413 174.982 163.642 175.097 163.757 175.269L185.151 216.817C185.266 217.047 185.151 217.277 184.979 217.392C184.865 217.392 184.807 217.449 184.75 217.449Z" fill="white"/>
<path d="M163.585 135.791C163.413 135.791 163.298 135.733 163.241 135.561C163.126 135.331 163.241 135.101 163.413 134.986C219.452 106.023 264.306 69.9351 275.032 45.11C275.146 44.8801 275.376 44.8226 275.605 44.8801C275.835 44.995 275.892 45.2249 275.835 45.4548C265.051 70.3948 220.025 106.713 163.871 135.733C163.699 135.733 163.642 135.791 163.585 135.791Z" fill="#444444"/>
<path d="M170.353 150.1C170.181 150.1 170.066 150.043 170.009 149.87C169.894 149.64 170.009 149.411 170.181 149.296C226.22 120.333 271.074 84.2446 281.8 59.4195C281.915 59.1897 282.144 59.1322 282.374 59.1897C282.603 59.3046 282.661 59.5345 282.603 59.7643C271.82 84.7044 226.794 121.023 170.64 150.043C170.468 150.1 170.411 150.1 170.353 150.1Z" fill="#444444"/>
<path d="M195.074 154.697C194.902 154.697 194.788 154.64 194.73 154.467C194.615 154.295 194.673 154.008 194.902 153.893C208.898 145.963 222.033 137.63 233.963 129.068C234.135 128.953 234.422 128.953 234.537 129.183C234.652 129.355 234.652 129.642 234.422 129.757C222.492 138.262 209.299 146.652 195.304 154.582C195.189 154.697 195.132 154.697 195.074 154.697Z" fill="#444444"/>
<path d="M243.772 122.746C243.657 122.746 243.542 122.689 243.428 122.574C243.313 122.402 243.313 122.114 243.485 121.999C266.772 104.185 282.718 87.0603 288.454 73.7857C288.569 73.5559 288.798 73.4984 289.027 73.5559C289.257 73.6708 289.314 73.9007 289.257 74.1305C283.464 87.52 267.403 104.817 244.001 122.689C244.001 122.746 243.886 122.746 243.772 122.746Z" fill="#444444"/>
<path d="M219.509 158.49C219.395 158.49 219.223 158.433 219.165 158.318C219.05 158.145 219.108 157.858 219.28 157.743C233.161 149.066 245.837 140.101 256.85 131.194C257.022 131.022 257.308 131.079 257.423 131.251C257.595 131.424 257.538 131.711 257.366 131.826C246.296 140.733 233.677 149.698 219.739 158.433C219.624 158.49 219.567 158.49 219.509 158.49Z" fill="#444444"/>
<path d="M264.65 125.619C264.536 125.619 264.421 125.562 264.364 125.505C264.192 125.332 264.249 125.045 264.421 124.93C280.137 111.253 290.863 98.5532 295.337 88.152C295.452 87.9221 295.681 87.8646 295.911 87.9221C296.14 88.037 296.197 88.2669 296.14 88.4967C291.609 98.9555 280.825 111.77 265.052 125.562C264.823 125.562 264.765 125.619 264.65 125.619Z" fill="#444444"/>
<path d="M197.369 207.451C197.197 207.451 197.082 207.394 197.025 207.221C196.91 206.991 197.025 206.761 197.197 206.646C199.778 205.325 202.359 203.946 204.883 202.624C205.112 202.509 205.342 202.566 205.456 202.796C205.571 203.026 205.514 203.256 205.284 203.371C202.761 204.75 200.179 206.129 197.598 207.451C197.541 207.451 197.426 207.451 197.369 207.451Z" fill="#444444"/>
<path d="M205.055 203.37C204.883 203.37 204.768 203.313 204.711 203.141C204.596 202.911 204.653 202.681 204.883 202.566C213.028 198.198 221.058 193.601 228.686 188.947C228.859 188.832 229.145 188.889 229.26 189.061C229.375 189.234 229.317 189.521 229.145 189.636C221.459 194.291 213.486 198.946 205.284 203.313C205.227 203.37 205.112 203.37 205.055 203.37Z" fill="white"/>
<path d="M228.917 189.752C228.802 189.752 228.63 189.694 228.572 189.579C228.458 189.407 228.515 189.119 228.687 189.004C249.049 176.534 267.232 163.26 281.227 150.675C295.108 138.147 304.687 126.424 308.817 116.828C308.931 116.598 309.161 116.54 309.39 116.598C309.62 116.713 309.677 116.943 309.62 117.173C301.016 137.056 270.96 164.179 229.146 189.752C229.031 189.694 228.974 189.752 228.917 189.752Z" fill="#444444"/>
<path d="M204.137 221.76C203.965 221.76 203.851 221.702 203.793 221.53C203.679 221.3 203.793 221.07 203.965 220.955C212.798 216.415 221.517 211.588 229.834 206.646C230.006 206.531 230.293 206.589 230.407 206.819C230.522 206.991 230.465 207.278 230.235 207.393C221.918 212.335 213.2 217.163 204.309 221.76C204.252 221.76 204.195 221.76 204.137 221.76Z" fill="white"/>
<path d="M230.064 207.45C229.949 207.45 229.777 207.393 229.719 207.221C229.605 207.048 229.662 206.761 229.892 206.646C273.885 180.557 306.752 151.594 315.642 131.079C315.757 130.849 315.986 130.791 316.216 130.849C316.445 130.964 316.502 131.194 316.445 131.424C307.497 152.111 274.516 181.189 230.35 207.335C230.178 207.393 230.121 207.45 230.064 207.45Z" fill="#444444"/>
<path d="M210.906 236.125C210.734 236.125 210.619 236.068 210.562 235.895C210.447 235.666 210.562 235.436 210.734 235.321C215.896 232.677 221.058 229.862 226.049 227.046C226.221 226.931 226.507 226.988 226.622 227.218C226.737 227.391 226.679 227.678 226.45 227.793C221.46 230.609 216.298 233.367 211.078 236.068C211.021 236.068 210.963 236.125 210.906 236.125Z" fill="#444444"/>
<path d="M226.277 227.851C226.105 227.851 225.991 227.793 225.933 227.621C225.819 227.448 225.876 227.161 226.105 227.046C274.975 199.692 312.774 167.627 322.353 145.445C322.467 145.215 322.697 145.158 322.926 145.215C323.156 145.33 323.213 145.56 323.156 145.79C318.395 156.766 306.981 170.155 290.002 184.636C272.852 199.233 250.884 214.174 226.507 227.851C226.392 227.851 226.335 227.851 226.277 227.851Z" fill="#444444"/>
<path d="M80.5307 29.4232C77.0892 23.3893 69.5179 21.378 63.7821 25.0558C58.161 28.6187 56.4976 36.0892 59.9391 42.0081C61.6025 44.8239 64.1836 46.7778 67.0515 47.5823C69.2311 48.2144 71.1239 49.7085 72.3284 51.7198L73.0167 52.9266C73.5903 53.9035 74.8522 54.2483 75.7699 53.6736L82.825 49.4786C83.8001 48.904 84.0869 47.6397 83.5133 46.6054L82.825 45.3986C81.6778 43.3873 81.2763 40.9737 81.8499 38.7326C82.5956 35.7444 82.1941 32.3539 80.5307 29.4232Z" fill="#444444"/>
<path d="M83.4563 58.9033C81.0472 60.3399 77.9499 59.478 76.5159 57.0069L74.8525 54.0762L83.571 48.9043L85.2344 51.835C86.6683 54.3061 85.8653 57.4667 83.4563 58.9033Z" fill="white"/>
<path d="M80.9327 60.0525C80.4738 60.0525 80.0149 59.9951 79.5561 59.8801C78.1221 59.4779 76.9176 58.5584 76.1719 57.2367L74.5085 54.306C74.3938 54.1336 74.4512 53.8462 74.6806 53.7313L83.3991 48.5594C83.5138 48.502 83.6285 48.502 83.7432 48.502C83.8579 48.502 83.9153 48.6169 83.9726 48.6743L85.636 51.6051C87.1847 54.306 86.3243 57.7539 83.7432 59.3055C82.8255 59.7652 81.9078 60.0525 80.9327 60.0525ZM75.4263 54.2485L76.9176 56.8345C77.5485 57.9838 78.581 58.7883 79.8428 59.0756C81.0474 59.3629 82.2519 59.1905 83.2843 58.6159C85.464 57.2942 86.2096 54.3634 84.8904 52.0648L83.4564 49.4789L75.4263 54.2485Z" fill="#444444"/>
<path d="M59.824 17.4121C59.6519 17.4121 59.5372 17.3546 59.4798 17.1822L53.3425 6.55107C53.2278 6.37867 53.2852 6.09134 53.5146 5.97641C53.6867 5.86148 53.9735 5.91895 54.0882 6.14881L60.1681 16.7799C60.2829 16.9523 60.2255 17.2397 59.9961 17.3546C59.9387 17.4121 59.8814 17.4121 59.824 17.4121Z" fill="#444444"/>
<path d="M39.6915 56.9485C39.5195 56.9485 39.4048 56.891 39.3474 56.7186C39.2327 56.5462 39.29 56.2589 39.5195 56.144L53.3428 48.2137C53.5149 48.0988 53.8017 48.1562 53.9164 48.3861C54.0311 48.5585 53.9737 48.8458 53.7443 48.9608L39.8636 56.891C39.8063 56.9485 39.7489 56.9485 39.6915 56.9485Z" fill="#444444"/>
<path d="M89.1915 28.9054C89.0195 28.9054 88.9048 28.8479 88.8474 28.6755C88.7327 28.5031 88.79 28.2158 89.0195 28.1008L103.359 20.1131C103.588 19.9982 103.818 20.0557 103.933 20.2855C104.047 20.4579 103.99 20.7453 103.761 20.8602L89.421 28.8479C89.3636 28.9054 89.3063 28.9054 89.1915 28.9054Z" fill="#444444"/>
<path d="M49.4998 32.6412C49.4424 32.6412 49.4424 32.6412 49.3851 32.6412L35.9059 28.8485C35.6765 28.791 35.5618 28.5611 35.6191 28.3313C35.6765 28.1014 35.9059 27.9865 36.1353 28.0439L49.6145 31.8367C49.844 31.8941 49.9587 32.124 49.9013 32.3539C49.844 32.5263 49.6719 32.6412 49.4998 32.6412Z" fill="#444444"/>
<path d="M77.6622 17.4124C77.6049 17.4124 77.6049 17.4124 77.5475 17.4124C77.3181 17.3549 77.2034 17.1251 77.2607 16.8952L81.2184 2.64377C81.2758 2.41391 81.5052 2.29898 81.7347 2.35644C81.9641 2.41391 82.0788 2.64377 82.0214 2.87363L78.0637 17.1251C78.0637 17.24 77.8916 17.4124 77.6622 17.4124Z" fill="#444444"/>
</g>
<defs>
<clipPath id="clip0_4551_5364">
<rect width="350" height="346" fill="white"/>
</clipPath>
</defs>
</svg>
