<svg width="254" height="240" viewBox="0 0 254 240" fill="none" xmlns="http://www.w3.org/2000/svg">
<g clip-path="url(#clip0_4545_5144)">
<path d="M238.336 46.291L236.601 30.7733L226.929 31.8742C225.72 28.4142 223.933 25.2687 221.725 22.4377L227.822 14.8362L215.575 5.08519L209.477 12.6868C206.27 11.1664 202.748 10.118 199.121 9.69856L198.07 0L182.563 1.73001L183.667 11.3761C180.197 12.6343 177.043 14.3644 174.205 16.5662L166.583 10.4849L156.858 22.6999L164.48 28.7811C162.956 31.979 161.904 35.4915 161.484 39.1088L151.549 40.6291L153.546 55.675L163.219 54.5741C164.428 58.0341 166.215 61.1796 168.423 64.0105L162.325 71.6121L174.52 81.363L180.618 73.7615C183.825 75.2818 187.346 76.3303 190.973 76.7497L192.077 86.3958L207.584 84.6658L206.481 75.0197C209.95 73.7615 213.104 72.0315 215.942 69.8296L223.565 75.9109L233.289 63.6959L225.667 57.6147C227.192 54.4168 228.243 50.9043 228.663 47.287L238.336 46.291ZM197.229 62.8047C186.4 64.0105 176.675 56.2516 175.466 45.3997C174.257 34.6003 182.037 24.8493 192.866 23.6435C203.695 22.4377 213.419 30.1966 214.628 41.0485C215.837 51.9004 208.058 61.599 197.229 62.8047Z" fill="#1F75BA"/>
<path d="M219.096 106.002C218.991 106.002 218.938 105.95 218.885 105.95C218.833 105.898 218.78 105.793 218.728 105.688L217.939 98.7678C215.416 98.4532 212.945 97.7193 210.632 96.6708L206.269 102.123C206.217 102.175 206.112 102.228 206.007 102.28C205.902 102.28 205.796 102.28 205.744 102.228L196.702 94.8884C196.545 94.7835 196.545 94.5214 196.65 94.3641L201.013 88.912C199.436 86.8674 198.227 84.6656 197.333 82.254L190.395 83.0404C190.184 83.0404 190.027 82.9355 190.027 82.7258L188.555 71.507C188.555 71.2973 188.66 71.14 188.87 71.0876L196.019 69.9867C196.334 67.4703 197.07 65.0063 198.122 62.6996L192.655 58.3484C192.497 58.2435 192.497 57.9814 192.602 57.8241L199.856 48.7547C199.909 48.7023 200.014 48.6498 200.119 48.5974C200.224 48.5974 200.33 48.5974 200.382 48.6498L205.849 53.0011C207.899 51.4283 210.107 50.2226 212.525 49.3313L211.684 42.4637C211.684 42.254 211.789 42.0967 211.999 42.0967L223.564 40.7861C223.669 40.7861 223.774 40.7861 223.827 40.8386C223.879 40.891 223.932 40.9958 223.984 41.1007L224.773 48.0207C227.296 48.3353 229.767 49.0692 232.08 50.1177L236.443 44.6656C236.495 44.6131 236.6 44.5607 236.705 44.5083C236.81 44.5083 236.916 44.5083 236.968 44.5607L246.01 51.9002C246.167 52.005 246.167 52.2671 246.062 52.4244L241.699 57.8766C243.276 59.9211 244.485 62.123 245.379 64.5345L252.318 63.7481C252.423 63.7481 252.528 63.7481 252.58 63.8005C252.633 63.853 252.685 63.9578 252.738 64.0627L254.052 75.6485C254.052 75.8582 253.947 76.0155 253.737 76.0155L246.798 76.8019C246.483 79.3182 245.747 81.7822 244.695 84.0889L250.162 88.4401C250.32 88.545 250.32 88.8071 250.215 88.9644L242.856 98.0338C242.803 98.0863 242.698 98.1387 242.593 98.1911C242.488 98.1911 242.382 98.1911 242.33 98.1387L236.863 93.7874C234.813 95.3602 232.605 96.5659 230.187 97.4572L230.976 104.377C230.976 104.587 230.87 104.744 230.66 104.744L219.096 106.002ZM210.58 95.832C210.632 95.832 210.685 95.832 210.738 95.8844C213.156 97.0378 215.731 97.7717 218.36 98.0863C218.517 98.0863 218.675 98.2435 218.675 98.4008L219.464 105.268L230.345 104.063L229.556 97.195C229.556 97.0378 229.609 96.8805 229.767 96.8281C232.29 95.9369 234.603 94.6262 236.705 93.0011C236.81 92.8962 237.021 92.8962 237.126 93.0011L242.54 97.2999L249.374 88.7547L243.959 84.4559C243.854 84.351 243.802 84.1937 243.854 84.0365C245.011 81.6249 245.747 79.0561 246.062 76.4349C246.062 76.2776 246.22 76.1203 246.378 76.1203L253.264 75.334L252.055 64.4821L245.168 65.2684C245.011 65.2684 244.853 65.1636 244.801 65.0587C243.907 62.5424 242.593 60.2357 240.963 58.1387C240.858 58.0338 240.858 57.8241 240.963 57.7193L245.274 52.3196L236.758 45.5044L232.447 50.9041C232.342 51.0089 232.185 51.0614 232.027 51.0089C229.609 49.8556 227.033 49.1216 224.405 48.8071C224.247 48.8071 224.089 48.6498 224.089 48.4926L223.301 41.6249L212.42 42.8307L213.208 49.6983C213.208 49.8556 213.156 50.0129 212.998 50.0653C210.475 50.9565 208.162 52.2671 206.059 53.8923C205.954 53.9971 205.744 53.9971 205.639 53.8923L200.224 49.5935L193.391 58.1387L198.805 62.4375C198.91 62.5424 198.963 62.6996 198.91 62.8569C197.754 65.2684 197.018 67.8372 196.702 70.4585C196.702 70.6157 196.545 70.7206 196.387 70.773L189.343 71.8739L190.71 82.4113L197.596 81.6249C197.754 81.6249 197.911 81.7298 197.964 81.8346C198.858 84.351 200.172 86.6577 201.801 88.7547C201.906 88.8595 201.906 89.0692 201.801 89.1741L197.491 94.5738L206.007 101.389L210.317 95.9893C210.37 95.8844 210.475 95.832 210.58 95.832ZM221.356 88.4401C217.939 88.4401 214.68 87.2868 211.999 85.1374C208.845 82.621 206.9 79.0561 206.427 75.0718C205.534 66.8412 211.474 59.3969 219.726 58.4532C223.721 58.0338 227.664 59.1348 230.765 61.6511C233.919 64.1675 235.864 67.7324 236.337 71.7167C237.231 79.9473 231.291 87.3916 223.038 88.3353C222.46 88.3877 221.882 88.4401 221.356 88.4401ZM221.409 59.0823C220.883 59.0823 220.357 59.1348 219.779 59.1872C211.947 60.0784 206.269 67.1557 207.111 75.0194C207.531 78.8464 209.423 82.254 212.42 84.6131C215.416 87.0247 219.148 88.0732 222.933 87.6538C230.765 86.7625 236.443 79.6852 235.601 71.8215C235.181 67.9945 233.289 64.5869 230.292 62.2278C227.769 60.1308 224.615 59.0823 221.409 59.0823Z" fill="#444444"/>
<path d="M125.792 45.3471C125.792 45.3471 138.565 49.0168 137.567 35.7534C136.673 23.8006 132.468 32.9749 130.786 32.4506C128.946 31.874 130.47 28.2042 128.105 27.8897C125.792 27.5752 124.004 30.9828 121.692 30.4061C119.379 29.8294 114.753 26.2645 110.285 28.8333C106.553 30.9828 106.342 35.3864 106.342 35.3864C106.342 35.3864 101.716 35.7534 100.613 42.8307C99.5612 49.8556 109.181 63.0142 109.181 63.0142L125.792 45.3471Z" fill="#444444"/>
<path d="M106.079 57.352L99.2458 77.221C98.8253 78.4792 97.7214 79.4228 96.4072 79.6849L93.3584 80.2616C93.3584 80.2616 101.243 97.352 114.543 94.4687C127.842 91.5853 124.898 80.2616 124.898 80.2616L122.112 80.0519C120.43 79.8946 119.274 78.3219 119.694 76.6443L122.848 64.4294C122.901 64.4818 110.022 54.1017 106.079 57.352Z" fill="white"/>
<path d="M111.599 95.3077C99.9292 95.3077 93.043 80.6288 92.9379 80.4715C92.8853 80.3142 92.8853 80.2094 92.9379 80.0521C92.9904 79.9472 93.1481 79.8424 93.2533 79.79L96.3021 79.2133C97.4586 79.0036 98.4047 78.1648 98.7727 77.0639L105.606 57.195C105.659 57.0901 105.659 57.0377 105.764 56.9853C109.864 53.5777 121.797 63.0141 123.163 64.0626C123.321 64.1674 123.374 64.3771 123.321 64.5344L120.167 76.7493C120.009 77.3784 120.115 78.06 120.535 78.5842C120.903 79.1085 121.534 79.4754 122.165 79.5279L124.951 79.7376C125.161 79.7376 125.319 79.8948 125.371 80.1045C125.424 80.3142 126.58 84.9276 123.952 89.1216C122.165 92.0049 119.011 93.9971 114.648 94.9407C113.649 95.2028 112.598 95.3077 111.599 95.3077ZM94.0943 80.6288C95.5662 83.4597 103.031 96.5134 114.49 94.0495C118.59 93.1583 121.534 91.3758 123.216 88.6497C125.214 85.3994 124.793 81.7821 124.583 80.7336L122.112 80.5239C121.166 80.4715 120.325 79.9473 119.747 79.2133C119.221 78.4269 119.011 77.4833 119.274 76.5921L122.375 64.6917C118.748 61.8083 109.549 55.5174 106.5 57.7192L99.7189 77.4833C99.2458 78.8988 97.9842 79.9997 96.5124 80.2618L94.0943 80.6288Z" fill="#444444"/>
<path d="M110.704 60.4453C110.704 60.4453 114.016 68.0468 122.637 66.6314C131.258 65.2159 131.521 54.2592 130.732 42.6209C129.471 43.25 127.946 43.6694 125.738 43.5645C122.006 43.4597 114.174 41.9394 113.806 41.1006C115.225 44.4033 115.751 47.7585 114.016 49.9079C113.333 50.8516 112.019 51.4807 109.758 51.5331C109.758 51.5331 108.654 47.8634 105.395 50.0128C102.136 52.1098 103.345 61.0744 110.704 60.4453Z" fill="white"/>
<path d="M120.587 67.3128C114.174 67.3128 111.125 62.28 110.442 60.9694C107.183 61.1267 104.66 59.4491 103.661 56.4609C102.715 53.7348 103.345 50.799 105.185 49.6457C106.289 48.9118 107.288 48.7545 108.234 49.069C109.338 49.4884 109.916 50.5369 110.127 51.1136C111.861 51.0087 113.07 50.5369 113.701 49.6981C115.488 47.4963 114.542 43.9838 113.438 41.3626C113.333 41.1005 113.438 40.8384 113.701 40.7335C113.911 40.6287 114.174 40.7335 114.279 40.9432C114.963 41.6247 121.901 43.0402 125.791 43.1451C127.631 43.1975 129.156 42.9354 130.575 42.2014C130.732 42.149 130.89 42.149 130.995 42.2014C131.153 42.3063 131.206 42.4111 131.206 42.5684C131.942 53.63 131.942 65.5828 122.69 67.1031C122.007 67.2604 121.271 67.3128 120.587 67.3128ZM110.705 59.9734C110.915 59.9734 111.073 60.0782 111.125 60.2355C111.23 60.55 114.384 67.4701 122.585 66.1595C130.838 64.7964 130.995 53.7873 130.312 43.3023C128.945 43.8266 127.473 44.0887 125.739 44.0363C123.531 43.9838 117.486 43.0926 114.752 42.0966C116.014 45.609 115.909 48.3875 114.384 50.17C113.543 51.3233 111.966 51.9524 109.759 51.9524C109.548 51.9524 109.338 51.7951 109.285 51.6378C109.285 51.6378 108.865 50.2748 107.814 49.8554C107.183 49.6457 106.499 49.803 105.658 50.3272C104.239 51.2709 103.766 53.7873 104.555 56.0415C104.975 57.4046 106.447 60.3403 110.705 59.9734Z" fill="#444444"/>
<path d="M108.55 56.251C108.34 56.251 108.182 56.1462 108.077 55.9365C107.867 55.4122 107.709 54.8355 107.394 54.4161C107.078 53.9967 106.658 53.6822 106.237 53.6822C105.974 53.6822 105.764 53.4201 105.817 53.158C105.817 52.8958 106.08 52.6861 106.342 52.7386C107.026 52.791 107.709 53.2104 108.182 53.8919C108.603 54.4686 108.813 55.0977 109.023 55.6743C109.128 55.9365 108.971 56.1986 108.708 56.251C108.655 56.251 108.603 56.251 108.55 56.251Z" fill="#444444"/>
<path d="M88.2589 165.662L128.577 160.629L132.415 169.803L101.19 184.954C101.19 184.954 85.7357 174.312 88.2589 165.662Z" fill="#1F75BA"/>
<path d="M78.2193 197.693C78.2193 197.693 178.831 126.448 209.267 134.731C239.703 143.066 232.817 182.175 214.944 197.273C202.486 207.758 182.773 224.534 127.106 237.483C71.3331 250.432 78.2193 197.693 78.2193 197.693Z" fill="white"/>
<path d="M110.915 239.999C101.453 239.999 93.8839 237.483 88.3119 232.398C74.9601 220.34 77.6935 197.85 77.7461 197.64C77.7461 197.535 77.8512 197.378 77.9564 197.326C78.2192 197.168 103.451 179.292 132.1 162.725C170.631 140.392 196.651 130.851 209.372 134.311C223.355 138.138 228.243 147.784 229.873 155.229C233.027 169.436 226.561 188.099 215.207 197.64L215.049 197.797C202.959 207.968 182.721 225.058 127.158 237.955C121.271 239.318 115.857 239.999 110.915 239.999ZM78.6397 197.955C78.3769 200.209 76.5896 220.602 88.9427 231.716C97.1956 239.16 109.969 240.943 126.948 237.011C182.3 224.167 201.645 207.863 214.418 197.064L214.576 196.906C225.667 187.522 231.975 169.331 228.927 155.438C227.35 148.256 222.619 138.925 209.109 135.202C179.83 127.234 83.3707 194.652 78.6397 197.955Z" fill="#444444"/>
<path d="M165.584 225.215C165.374 225.215 165.216 225.11 165.164 224.901C160.065 212.214 136.883 187.522 136.673 187.312C136.515 187.102 136.515 186.84 136.673 186.631C136.883 186.473 137.146 186.473 137.356 186.631C138.303 187.627 160.906 211.69 166.057 224.534C166.163 224.796 166.057 225.058 165.795 225.163C165.69 225.215 165.637 225.215 165.584 225.215Z" fill="#444444"/>
<path d="M100.087 207.601C99.9291 207.601 99.824 207.549 99.7189 207.444C99.5612 207.234 99.5612 206.919 99.7714 206.762C115.173 193.866 184.876 156.487 185.559 156.12C185.77 156.015 186.085 156.068 186.19 156.33C186.295 156.539 186.243 156.854 185.98 156.959C185.297 157.326 115.699 194.704 100.35 207.496C100.297 207.549 100.192 207.601 100.087 207.601Z" fill="#444444"/>
<path d="M163.587 234.39C164.375 235.333 164.533 236.644 164.007 237.745C163.481 238.846 162.377 239.58 161.116 239.58C151.444 239.58 127.474 239.58 74.2239 239.58C65.2351 239.58 56.5617 236.172 49.9383 230.038C40.5815 221.336 26.4938 208.125 14.5613 196.382C1.1043 183.066 -3.15356 163.04 3.73261 145.425C3.83775 145.163 3.94288 144.901 4.04801 144.639C9.88286 129.855 28.0708 124.403 41.0546 133.63C67.2326 152.188 108.707 182.751 125.161 200.995C125.161 200.995 153.284 221.808 163.587 234.39Z" fill="white"/>
<path d="M161.116 240H74.224C65.0775 240 56.3515 236.592 49.623 230.353C40.0034 221.441 26.0733 208.335 14.2459 196.697C0.631272 183.276 -3.67916 163.093 3.31215 145.268L3.62755 144.482C6.46612 137.3 12.3535 131.9 19.8179 129.698C27.2298 127.496 35.1147 128.807 41.3701 133.263C65.6031 150.458 108.76 182.07 125.529 200.629C126.738 201.52 153.914 221.808 163.955 234.023C164.848 235.124 165.006 236.644 164.428 237.903C163.797 239.213 162.535 240 161.116 240ZM26.9144 129.593C24.6015 129.593 22.2886 129.908 20.0282 130.589C12.8792 132.686 7.20205 137.876 4.46861 144.849L4.20578 145.635C-2.62783 163.093 1.57746 182.909 14.9293 196.068C26.7041 207.706 40.6867 220.76 50.2538 229.724C56.772 235.753 65.2877 239.108 74.1714 239.108H161.063C162.115 239.108 163.061 238.479 163.481 237.588C163.902 236.644 163.797 235.544 163.113 234.705C152.968 222.333 125.108 201.625 124.793 201.415L124.74 201.363C108.024 182.857 64.9198 151.245 40.7393 134.102C36.6917 131.114 31.8556 129.593 26.9144 129.593Z" fill="#444444"/>
<path d="M90.9925 239.999C90.8874 239.999 90.8348 239.999 90.7297 239.947C69.6507 227.575 45.5227 206.185 29.2798 185.425C27.072 182.647 24.8642 179.606 23.5501 176.199C23.4449 175.936 23.6026 175.674 23.8129 175.569C24.0757 175.465 24.3386 175.569 24.4437 175.832C25.7053 179.134 27.9131 182.07 30.0683 184.796C46.2587 205.504 70.2814 226.841 91.2554 239.161C91.4656 239.318 91.5708 239.58 91.4131 239.79C91.3605 239.947 91.1502 239.999 90.9925 239.999Z" fill="#444444"/>
<path d="M86.6298 233.079C86.5247 233.079 86.4195 233.027 86.3144 232.975C86.1041 232.817 86.1041 232.503 86.2618 232.293C97.143 219.868 109.706 209.017 123.689 200.157C123.899 200 124.215 200.104 124.32 200.314C124.477 200.524 124.372 200.838 124.162 200.943C110.285 209.75 97.7738 220.498 86.9452 232.87C86.8926 233.027 86.7349 233.079 86.6298 233.079Z" fill="#444444"/>
<path d="M75.8012 223.591C75.6961 223.591 75.5384 223.539 75.4858 223.434C75.2756 223.277 75.2756 222.962 75.4858 222.752C86.7876 211.114 99.2458 200.472 112.492 191.14C112.703 190.983 113.018 191.035 113.176 191.245C113.334 191.455 113.281 191.769 113.071 191.927C99.8766 201.258 87.4709 211.9 76.2217 223.434C76.0115 223.539 75.9063 223.591 75.8012 223.591Z" fill="#444444"/>
<path d="M153.389 89.3319C149.446 84.037 143.454 80.6818 136.883 80.0527C133.151 79.6857 128.42 79.3188 123.216 79.0566C122.953 80.0003 122.532 80.8915 122.006 81.7827C120.482 84.2991 118.117 86.1864 115.436 87.3922C112.807 88.5979 109.811 89.1222 106.92 88.7552C104.081 88.3882 101.401 87.1825 99.403 85.0855C97.826 83.3555 95.8811 81.3109 95.408 79.0566C90.677 79.3188 86.8923 79.7382 82.4241 80.4197C73.9084 81.7303 66.444 86.8155 61.9233 94.1549C53.6704 107.576 39.3724 131.481 38.5839 150.721C37.3749 181.704 87.7859 168.546 87.7859 168.546L144.452 163.355L177.254 138.034C177.254 138.034 167.056 107.733 153.389 89.3319Z" fill="#1F75BA"/>
<path d="M88.4692 162.307C88.1013 164.928 90.7296 166.92 93.1476 165.871C98.0889 163.67 103.451 162.569 108.865 162.621L132.257 162.831C132.257 162.831 134.097 132.791 101.033 136.409C100.98 136.409 90.9924 145.059 88.4692 162.307Z" fill="white"/>
<path d="M115.015 163.408H114.962C114.699 163.355 114.542 163.146 114.542 162.884C114.805 161.258 114.384 159.424 113.438 157.798C112.649 156.383 111.493 155.072 109.863 153.762C109.548 153.5 109.233 153.237 108.865 153.133C108.602 153.028 108.497 152.766 108.602 152.503C108.707 152.241 108.97 152.137 109.233 152.241C109.706 152.451 110.074 152.766 110.442 153.028C112.176 154.443 113.385 155.859 114.279 157.379C115.33 159.214 115.751 161.258 115.488 163.093C115.435 163.251 115.225 163.408 115.015 163.408Z" fill="#444444"/>
<path d="M122.532 162.988C122.322 162.988 122.111 162.831 122.059 162.569C121.796 160.576 121.375 158.27 120.534 156.12C119.641 153.918 118.327 152.084 116.75 150.878C116.539 150.721 116.487 150.406 116.644 150.196C116.802 149.987 117.118 149.934 117.328 150.091C119.01 151.402 120.429 153.342 121.375 155.701C122.269 157.955 122.69 160.367 123.005 162.359C123.058 162.621 122.847 162.883 122.584 162.883C122.584 162.988 122.584 162.988 122.532 162.988Z" fill="#444444"/>
<path d="M128.63 162.988H128.577C128.314 162.936 128.157 162.726 128.157 162.464C129.155 154.076 123.636 148.834 123.583 148.781C123.373 148.624 123.373 148.309 123.583 148.1C123.741 147.89 124.057 147.89 124.267 148.1C124.53 148.309 130.207 153.709 129.103 162.569C129.05 162.831 128.84 162.988 128.63 162.988Z" fill="#444444"/>
<path d="M189.344 167.392H104.029C103.503 167.392 103.03 167.288 102.609 166.973C101.611 166.292 101.295 165.086 101.663 164.09C102.662 161.993 104.765 161.259 107.814 161.259H194.916L193.812 164.299C193.076 166.187 191.289 167.392 189.344 167.392Z" fill="#444444"/>
<path d="M189.817 167.392C191.499 167.392 193.076 166.344 193.706 164.771L208.793 126.973C209.213 125.977 209.056 124.823 208.478 123.932C207.847 123.041 206.848 122.517 205.797 122.517H153.388C150.234 122.517 147.396 124.509 146.344 127.497L132.151 167.445H189.817V167.392Z" fill="#444444"/>
<path d="M177.411 142.071C179.037 142.071 180.355 140.756 180.355 139.135C180.355 137.514 179.037 136.199 177.411 136.199C175.786 136.199 174.468 137.514 174.468 139.135C174.468 140.756 175.786 142.071 177.411 142.071Z" fill="#1F75BA"/>
<path d="M61.1352 137.458C60.8724 137.458 60.6621 137.248 60.6621 136.986C60.6621 136.724 60.8724 136.514 61.1352 136.514L99.2457 135.78C99.5085 135.78 99.7188 135.99 99.7188 136.252C99.7188 136.514 99.5085 136.724 99.2457 136.724L61.1352 137.458Z" fill="#444444"/>
<path d="M73.8554 135.256C73.8028 135.256 73.7502 135.256 73.6977 135.256C73.4348 135.204 73.3297 134.942 73.3823 134.679C74.749 130.066 76.694 125.558 79.112 121.364C79.6377 120.472 80.4787 119.267 81.7929 119.319C82.0557 119.319 82.266 119.529 82.266 119.791C82.266 120.053 82.0557 120.263 81.7929 120.263C81.7929 120.263 81.7929 120.263 81.7403 120.263C81.1621 120.263 80.5839 120.787 79.9531 121.835C77.5876 125.977 75.6952 130.381 74.3285 134.942C74.2759 135.151 74.0656 135.256 73.8554 135.256Z" fill="#444444"/>
</g>
<defs>
<clipPath id="clip0_4545_5144">
<rect width="254" height="240" fill="white"/>
</clipPath>
</defs>
</svg>
