<svg width="325" height="250" viewBox="0 0 325 250" fill="none" xmlns="http://www.w3.org/2000/svg">
<g clip-path="url(#clip0_4551_5288)">
<path d="M308.114 80.4943H234.787C225.65 80.4943 218.306 73.0766 218.306 63.9783V24.0502C218.306 14.8939 225.708 7.53418 234.787 7.53418H308.114C317.251 7.53418 324.596 14.9519 324.596 24.0502V63.9783C324.596 73.1346 317.251 80.4943 308.114 80.4943Z" fill="white"/>
<path d="M319.564 80.8997H223.337C220.329 80.8997 217.843 78.4658 217.843 75.3944V12.5756C217.843 9.5622 220.272 7.07031 223.337 7.07031H319.564C322.571 7.07031 325.058 9.50425 325.058 12.5756V75.3944C325 78.4658 322.571 80.8997 319.564 80.8997ZM223.337 7.88162C220.734 7.88162 218.652 9.96786 218.652 12.5756V75.3944C218.652 78.0022 220.734 80.0884 223.337 80.0884H319.564C322.167 80.0884 324.248 78.0022 324.248 75.3944V12.5756C324.248 9.96786 322.167 7.88162 319.564 7.88162H223.337Z" fill="#444444"/>
<path d="M271.45 71.57C271.218 71.57 271.045 71.3961 271.045 71.1643V16.5746C271.045 16.3428 271.218 16.1689 271.45 16.1689C271.681 16.1689 271.855 16.3428 271.855 16.5746V71.1643C271.855 71.3961 271.681 71.57 271.45 71.57Z" fill="#444444"/>
<path d="M270.12 18.1393L271.45 16.8065L272.78 18.1393V17.0383L271.45 15.6475L270.12 17.0383V18.1393Z" fill="#444444"/>
<path d="M312.682 50.0691H229.293C229.061 50.0691 228.888 49.8953 228.888 49.6635C228.888 49.4317 229.061 49.2578 229.293 49.2578H312.682C312.914 49.2578 313.087 49.4317 313.087 49.6635C313.087 49.8953 312.914 50.0691 312.682 50.0691Z" fill="#444444"/>
<path d="M311.062 51.0547L312.45 49.7219L311.062 48.3311H312.219L313.607 49.7219L312.219 51.0547H311.062Z" fill="#444444"/>
<path d="M271.623 67.8608C262.082 67.8608 254.333 60.0954 254.333 50.5335V40.508C254.333 31.4097 246.93 23.992 237.851 23.992H229.293C229.061 23.992 228.888 23.8181 228.888 23.5863C228.888 23.3545 229.061 23.1807 229.293 23.1807H237.851C247.393 23.1807 255.142 30.9461 255.142 40.508V50.5335C255.142 59.6318 262.544 67.0495 271.623 67.0495C280.703 67.0495 288.105 59.6318 288.105 50.5335V40.508C288.105 30.9461 295.854 23.1807 305.396 23.1807H310.427C310.658 23.1807 310.832 23.3545 310.832 23.5863C310.832 23.8181 310.658 23.992 310.427 23.992H305.396C296.317 23.992 288.914 31.4097 288.914 40.508V50.5335C288.914 60.0954 281.165 67.8608 271.623 67.8608Z" fill="#444444"/>
<path d="M128.091 78.1177C124.159 79.3346 122.135 73.7134 114.848 72.7862C107.735 71.9169 106.058 76.8427 98.4249 77.0166C89.6927 77.1904 79.9195 71.0476 79.3412 64.789C78.8208 59.3416 85.529 56.2122 84.0832 52.5034C82.7532 49.0843 76.7967 51.1705 70.8982 46.7662C65.8092 42.9994 62.2816 35.5817 64.0165 30.3082C65.3466 26.3096 68.7007 26.7152 70.3777 22.0792C72.1704 17.1533 69.1055 15.1251 70.4934 10.1413C71.9391 4.98367 77.2594 -0.000104167 82.3483 -0.058055C87.3217 -0.116006 88.1313 4.52006 93.625 4.80982C99.9862 5.21547 102.531 -0.637564 106.347 0.811208C110.453 2.37588 108.718 9.67769 114.212 12.7491C116.468 14.024 117.104 13.0388 121.73 14.3138C124.101 15.0092 128.554 16.2841 131.33 19.2396C136.65 24.9188 131.677 32.6262 136.303 36.3351C139.715 39.1167 143.416 35.5817 148.505 38.7111C151.628 40.6234 154.866 44.8539 154.172 48.5048C153.073 54.2998 143.358 52.5613 136.592 60.6744C130.347 68.324 132.833 76.6109 128.091 78.1177Z" fill="#444444"/>
<path d="M62.1665 141.748C61.9352 141.748 61.7617 141.516 61.7617 141.285L62.9183 129.694C62.9183 129.463 63.1496 129.347 63.3809 129.347C63.6122 129.347 63.7857 129.578 63.7279 129.81L62.5713 141.4C62.5713 141.574 62.3978 141.748 62.1665 141.748Z" fill="#444444"/>
<path d="M265.088 36.1616C263.295 34.4811 261.271 34.4231 258.843 34.7129L257.975 34.1913C256.125 33.0323 253.811 32.6846 251.672 33.2061L234.786 37.3206C234.092 37.4945 233.456 36.857 233.571 36.1616C233.918 34.7708 234.381 32.6266 234.728 30.946C235.133 29.2075 234.439 28.2224 233.86 27.7008C233.513 27.411 233.051 27.411 232.762 27.7588C230.911 29.9029 223.972 38.132 224.203 42.1885C224.434 46.8825 227.673 60.5589 227.673 60.5589H242.014L239.181 51.3447C239.007 50.7073 239.354 50.0119 239.99 49.7801L260.462 42.5362C260.809 42.4203 260.924 41.9567 260.693 41.667C260.23 41.1454 259.537 40.392 258.727 39.8125L264.568 37.4945C265.146 37.2627 265.377 36.6252 265.088 36.1616Z" fill="white"/>
<path d="M242.073 60.9644H227.731C227.557 60.9644 227.384 60.8485 227.326 60.6746C227.21 60.0951 224.088 46.8823 223.856 42.2463C223.625 38.0738 230.391 29.9607 232.531 27.5268C232.762 27.2949 233.051 27.1211 233.34 27.1211C233.63 27.1211 233.976 27.237 234.208 27.4108C234.786 27.9324 235.654 29.0914 235.191 31.0618C234.844 32.7423 234.323 34.8865 234.034 36.2773C233.976 36.4512 234.034 36.683 234.208 36.7989C234.381 36.9727 234.555 36.9727 234.728 36.9727L251.614 32.8003C253.87 32.2787 256.241 32.6264 258.207 33.8434L258.959 34.307C261.503 34.0172 263.643 34.1911 265.378 35.8717L265.436 35.9296C265.609 36.2773 265.667 36.683 265.551 37.0307C265.436 37.3784 265.146 37.6682 264.799 37.842L259.653 39.8703C260.231 40.3339 260.751 40.9134 261.098 41.3191C261.33 41.5509 261.388 41.8986 261.272 42.1883C261.214 42.4781 260.983 42.7099 260.694 42.8258L240.222 50.0696C239.759 50.2435 239.528 50.7071 239.702 51.1127L242.535 60.3269C242.593 60.4428 242.535 60.5587 242.477 60.6746C242.304 60.9064 242.188 60.9644 242.073 60.9644ZM228.02 60.1531H241.494L238.834 51.4605C238.545 50.5912 239.008 49.7219 239.875 49.4322L260.347 42.1883C260.404 42.1883 260.462 42.1304 260.462 42.0724C260.462 42.0145 260.462 41.9565 260.404 41.8986C259.942 41.377 259.248 40.6236 258.554 40.16C258.438 40.1021 258.38 39.9282 258.38 39.8123C258.38 39.6385 258.496 39.5226 258.612 39.4646L264.452 37.1466C264.568 37.0886 264.684 36.9727 264.742 36.7989C264.799 36.683 264.799 36.5091 264.742 36.3932C263.18 34.8865 261.33 34.8286 258.843 35.1183C258.727 35.1183 258.67 35.1183 258.612 35.0604L257.744 34.5388C255.952 33.4377 253.812 33.09 251.788 33.5536L234.902 37.7261C234.439 37.842 233.976 37.7261 233.63 37.3784C233.283 37.0307 233.167 36.5671 233.225 36.1035C233.572 34.7127 234.034 32.5685 234.381 30.8879C234.728 29.3812 234.15 28.5119 233.63 27.9904C233.572 27.9324 233.456 27.8745 233.34 27.8745C233.225 27.8745 233.109 27.9324 233.051 27.9904C228.83 32.8003 224.435 39.059 224.608 42.1304C224.839 46.3608 227.557 58.1248 228.02 60.1531Z" fill="#444444"/>
<path d="M241.263 44.506C241.09 44.506 240.916 44.39 240.858 44.2162C240.801 43.9844 240.916 43.8105 241.148 43.7526L255.721 40.1017C255.952 40.0437 256.125 40.1596 256.183 40.3914C256.241 40.6232 256.125 40.7971 255.894 40.855L241.321 44.506C241.321 44.506 241.321 44.506 241.263 44.506Z" fill="#444444"/>
<path d="M239.759 40.2179C239.586 40.2179 239.412 40.102 239.355 39.9281C239.297 39.6963 239.412 39.5225 239.644 39.4645L254.217 35.8136C254.448 35.7556 254.621 35.8715 254.679 36.1034C254.737 36.3352 254.621 36.509 254.39 36.567L239.817 40.2179C239.817 40.2179 239.817 40.2179 239.759 40.2179Z" fill="#444444"/>
<path d="M47.8826 99.849C51.9885 100.081 58.8123 100.429 62.9182 100.66C64.8265 100.776 66.2723 102.457 66.0988 104.369L63.2652 129.752C63.2652 129.752 69.6842 126.854 76.6815 118.509C83.6789 110.106 90.0401 92.8949 105.596 92.3154C115.485 91.9098 140.294 93.5324 157.064 94.6914C165.681 95.3289 174.008 97.9367 181.352 102.457C186.673 105.76 194.595 108.716 204.658 106.861C223.047 103.5 231.375 87.7373 223.683 62.2389C222.989 59.9209 224.724 57.5449 227.153 57.5449H242.767C244.444 57.5449 245.948 58.646 246.41 60.2686C249.938 72.4383 261.851 121.407 227.616 136.822C207.433 145.92 186.21 144.877 186.21 144.877L194.595 221.604C195.463 229.833 191.472 237.772 184.302 241.887C176.784 246.175 165.102 250.174 147.638 249.594C133.065 249.13 121.788 246.523 113.403 243.567C101.953 239.569 93.7411 229.485 92.0063 217.489C90.0979 204.566 87.9582 184.515 87.5534 159.365C87.5534 159.365 75.7563 172.346 53.2029 168.115C25.4449 162.9 38.8612 115.959 43.1984 102.92C44.008 100.95 45.8586 99.7331 47.8826 99.849Z" fill="white"/>
<path d="M151.165 250C150.009 250 148.91 250 147.754 249.942C135.147 249.536 123.581 247.508 113.403 243.915C101.837 239.859 93.5098 229.717 91.7171 217.49C89.9244 205.146 87.7269 185.269 87.3221 160.234C84.4884 162.842 72.8069 172.114 53.3185 168.463C47.4199 167.362 42.9093 164.291 40.0178 159.365C30.6495 143.486 39.9021 112.019 42.9671 102.747C43.661 100.661 45.6851 99.2699 47.8826 99.3858C52.0463 99.6176 59.1014 99.9653 62.9182 100.197C63.9591 100.255 64.8844 100.719 65.5783 101.53C66.2723 102.341 66.5614 103.326 66.4457 104.37L63.7278 129.057C65.5205 128.072 70.7829 124.884 76.3924 118.22C78.0694 116.192 79.7465 113.642 81.5392 110.918C86.9173 102.631 93.6255 92.3158 105.596 91.8522C115.254 91.4466 138.964 92.9533 157.122 94.2861C165.796 94.9236 174.297 97.6473 181.584 102.11C186.441 105.123 194.422 108.31 204.6 106.456C212.58 105.007 218.652 101.124 222.238 95.2713C227.037 87.39 227.442 75.9737 223.336 62.3552C222.989 61.1383 223.163 59.8054 223.972 58.7623C224.724 57.7192 225.939 57.1396 227.211 57.1396H242.825C244.675 57.1396 246.352 58.4146 246.873 60.1531C248.608 66.0641 252.54 81.537 251.673 97.3575C250.574 117.177 242.593 130.563 227.905 137.17C209.515 145.457 190.027 145.341 186.788 145.283L195.116 221.546C196.041 229.891 191.935 238.004 184.649 242.177C175.569 247.392 164.351 250 151.165 250ZM87.7269 158.959C87.7847 158.959 87.8425 158.959 87.8425 158.959C88.016 159.017 88.0739 159.191 88.0739 159.307C88.4208 184.747 90.6762 204.972 92.4689 217.432C94.2037 229.37 102.3 239.221 113.634 243.22C123.754 246.755 135.205 248.783 147.754 249.189C162.269 249.652 174.528 247.103 184.186 241.539C191.183 237.541 195.116 229.717 194.248 221.662L185.863 144.935C185.863 144.819 185.863 144.703 185.979 144.645C186.036 144.587 186.152 144.53 186.268 144.53C186.499 144.53 207.607 145.457 227.5 136.532C241.899 130.042 249.764 116.887 250.805 97.3575C251.673 81.6529 247.74 66.2959 246.063 60.4429C245.658 58.9941 244.27 57.951 242.767 57.951H227.153C226.112 57.951 225.187 58.4146 224.551 59.2259C223.915 60.0372 223.741 61.0803 224.03 62.1234C228.194 75.9737 227.789 87.6218 222.874 95.677C219.173 101.762 212.869 105.76 204.715 107.267C194.306 109.18 186.152 105.876 181.179 102.805C173.95 98.3427 165.623 95.677 157.064 95.0975C138.906 93.7646 115.311 92.3158 105.654 92.7215C94.0881 93.1851 87.7847 102.863 82.2331 111.44C80.4404 114.163 78.7634 116.771 77.0285 118.799C70.0312 127.144 63.7278 130.042 63.4386 130.158C63.323 130.216 63.1495 130.216 63.0338 130.1C62.9182 130.042 62.8603 129.868 62.8603 129.752L65.694 104.37C65.8096 103.558 65.5205 102.747 65 102.11C64.4795 101.472 63.7278 101.124 62.9182 101.066C59.0436 100.893 51.9884 100.545 47.8247 100.255C45.9742 100.139 44.2972 101.298 43.7189 103.037C40.7118 112.193 31.5169 143.371 40.7118 158.959C43.4876 163.711 47.7669 166.609 53.492 167.71C75.5249 171.824 87.3221 159.191 87.4377 159.075C87.4956 158.959 87.6112 158.959 87.7269 158.959Z" fill="#444444"/>
<path d="M62.8027 83.7971L60.9521 81.7689V68.1504C60.9521 66.8175 59.8534 65.7744 58.5811 65.7744C57.2511 65.7744 56.2101 66.8755 56.2101 68.1504V82.812L43.3721 85.5936V93.0693C43.3721 96.3145 45.2804 99.328 48.2297 100.661L48.8658 100.951C52.6826 102.747 57.1932 102.399 60.663 100.081C62.34 98.9803 63.4966 97.1258 63.7279 95.0976L64.4797 89.2445C64.7689 87.3321 64.1327 85.3039 62.8027 83.7971Z" fill="white"/>
<path d="M54.0122 102.516C52.2195 102.516 50.4268 102.11 48.6919 101.357L48.0558 101.067C44.9908 99.6181 42.9668 96.4887 42.9668 93.1276V85.6519C42.9668 85.4781 43.0825 85.3042 43.2559 85.2463L55.6892 82.5226V68.1508C55.6892 66.5861 56.9615 65.3691 58.465 65.3691C60.0264 65.3691 61.2408 66.6441 61.2408 68.1508V81.6533L62.9757 83.5657C64.4214 85.1304 65.0575 87.2746 64.8262 89.4187L64.0744 95.2718C63.7853 97.416 62.6287 99.3283 60.836 100.487C58.812 101.82 56.441 102.516 54.0122 102.516ZM43.7764 85.9417V93.1276C43.7764 96.199 45.5691 99.0965 48.4027 100.371L49.0389 100.661C52.7399 102.4 57.0193 102.052 60.489 99.7919C62.1083 98.7488 63.1492 97.0103 63.3805 95.0979L64.1323 89.2449C64.3636 87.3325 63.7853 85.4781 62.5131 84.0293L60.6625 82.001C60.6047 81.9431 60.5469 81.8272 60.5469 81.7113V68.0928C60.5469 66.9918 59.6216 66.0645 58.5228 66.0645C57.4241 66.0645 56.4988 66.9918 56.4988 68.0928V82.7544C56.4988 82.9283 56.3832 83.1021 56.2097 83.1601L43.7764 85.9417Z" fill="#444444"/>
<path d="M54.244 86.695H52.5669C51.6416 86.695 50.832 85.9416 50.832 84.9564V79.3352C50.832 78.408 51.5838 77.5967 52.5669 77.5967H53.7813C54.9957 77.5967 55.9788 78.5818 55.9788 79.7988V84.9564C55.9788 85.8837 55.1692 86.695 54.244 86.695Z" fill="white"/>
<path d="M54.1857 87.101H52.6243C51.4099 87.101 50.4268 86.1158 50.4268 84.8989V79.3935C50.4268 78.1766 51.4099 77.1914 52.6243 77.1914H53.723C55.1688 77.1914 56.3832 78.4084 56.3832 79.8571V84.8409C56.3832 86.1158 55.4001 87.101 54.1857 87.101ZM52.6243 78.0027C51.8725 78.0027 51.2364 78.6402 51.2364 79.3935V84.8989C51.2364 85.6522 51.8725 86.2897 52.6243 86.2897H54.1857C54.9374 86.2897 55.5736 85.6522 55.5736 84.8989V79.9151C55.5736 78.872 54.7639 78.0607 53.723 78.0607H52.6243V78.0027Z" fill="#444444"/>
<path d="M49.3273 87.7959H48.402C47.5924 87.7959 46.8984 87.1584 46.8984 86.2891V80.3202C46.8984 79.5089 47.5346 78.8135 48.402 78.8135H49.3273C50.1369 78.8135 50.8308 79.4509 50.8308 80.3202V86.3471C50.8308 87.1584 50.1947 87.7959 49.3273 87.7959Z" fill="white"/>
<path d="M49.0384 88.2016H48.7493C47.5349 88.2016 46.5518 87.2164 46.5518 85.9994V80.668C46.5518 79.451 47.5349 78.4658 48.7493 78.4658H49.0384C50.2528 78.4658 51.2359 79.451 51.2359 80.668V85.9994C51.2359 87.2164 50.2528 88.2016 49.0384 88.2016ZM48.7493 79.2771C47.9975 79.2771 47.3614 79.9146 47.3614 80.668V85.9994C47.3614 86.7528 47.9975 87.3903 48.7493 87.3903H49.0384C49.7902 87.3903 50.4263 86.7528 50.4263 85.9994V80.668C50.4263 79.9146 49.7902 79.2771 49.0384 79.2771H48.7493Z" fill="#444444"/>
<path d="M45.1648 89.1868C44.1817 89.1868 43.3721 88.3755 43.3721 87.3903V82.1168C43.3721 81.1316 44.1817 80.3203 45.1648 80.3203C46.1479 80.3203 46.9575 81.1316 46.9575 82.1168V87.3903C46.9575 88.4334 46.1479 89.1868 45.1648 89.1868Z" fill="white"/>
<path d="M45.1643 89.5928C43.9499 89.5928 42.9668 88.6077 42.9668 87.3907V82.1172C42.9668 80.9002 43.9499 79.915 45.1643 79.915C46.3787 79.915 47.3618 80.9002 47.3618 82.1172V87.3907C47.3618 88.6077 46.3787 89.5928 45.1643 89.5928ZM45.1643 80.7264C44.4125 80.7264 43.7764 81.3638 43.7764 82.1172V87.3907C43.7764 88.1441 44.4125 88.7815 45.1643 88.7815C45.9161 88.7815 46.5522 88.1441 46.5522 87.3907V82.1172C46.5522 81.3638 45.9161 80.7264 45.1643 80.7264Z" fill="#444444"/>
<path d="M62.1663 87.101C62.1085 87.101 61.9928 87.101 61.935 87.043L56.4991 83.1024C56.3256 82.9865 56.2678 82.6967 56.3834 82.5229C56.4991 82.349 56.7882 82.2911 56.9617 82.407L62.3977 86.3476C62.5711 86.4635 62.629 86.7533 62.5133 86.9271C62.3976 87.043 62.282 87.101 62.1663 87.101Z" fill="#444444"/>
<path d="M52.5081 96.3147C52.2768 96.3147 52.1033 96.1409 52.1033 95.9091C51.9298 91.4469 54.7635 89.6504 56.0357 89.0129L53.9539 86.9267C53.7804 86.7528 53.7804 86.521 53.9539 86.3472C54.1273 86.1733 54.3587 86.1733 54.5322 86.3472L57.0766 88.897C57.1923 89.0129 57.1923 89.1288 57.1923 89.3027C57.1345 89.4186 57.0766 89.5345 56.9031 89.5924C56.7297 89.6504 52.7394 90.8094 52.9708 95.9091C52.9129 96.1409 52.7394 96.3147 52.5081 96.3147Z" fill="#444444"/>
<path d="M111.321 250C111.321 250 106.405 195.004 120.574 177.503L166.663 175.765C166.663 175.765 183.376 194.483 181.583 249.652L111.321 250Z" fill="#1F75BA"/>
<path d="M108.082 92.1416L102.126 175.996C101.837 179.763 104.497 183.182 108.256 183.82C120.111 185.848 146.365 189.035 172.967 182.951C175.974 182.255 177.882 179.3 177.246 176.286L160.649 95.0391C160.649 95.0391 130.694 90.8087 108.082 92.1416Z" fill="white"/>
<path d="M139.658 186.891C126.646 186.891 115.427 185.442 108.198 184.225C104.266 183.53 101.49 179.995 101.779 175.996L107.736 92.1415C107.736 91.9677 107.909 91.7938 108.083 91.7938C130.405 90.4609 160.418 94.6334 160.707 94.6914C160.881 94.6914 160.997 94.8652 161.054 94.9811L177.709 176.286C178.403 179.531 176.379 182.661 173.083 183.414C161.459 186.022 150.009 186.891 139.658 186.891ZM108.488 92.5472L102.589 176.054C102.358 179.647 104.844 182.835 108.372 183.472C121.268 185.674 146.828 188.572 172.909 182.603C175.743 181.965 177.478 179.242 176.9 176.402L160.303 95.3868C157.238 94.9811 129.537 91.3302 108.488 92.5472Z" fill="#444444"/>
<path d="M124.969 174.258C124.796 174.258 124.622 174.142 124.565 173.969C124.507 173.737 124.622 173.563 124.854 173.447C148.043 166.261 159.031 139.604 159.146 139.372C159.204 139.14 159.436 139.082 159.667 139.14C159.898 139.198 159.956 139.43 159.898 139.662C159.783 139.951 148.621 166.956 125.143 174.2C125.085 174.258 125.027 174.258 124.969 174.258Z" fill="#444444"/>
<path d="M146.828 63.2827C145.44 61.6021 144.515 59.6318 144.11 57.5456C143.416 53.7788 142.665 50.4756 142.665 50.4756C137.055 55.1117 130.752 51.9244 130.752 51.9244C125.489 56.0389 126.415 61.834 126.415 61.834C126.415 61.834 121.499 61.3124 121.846 64.4997C122.193 67.629 126.935 68.4404 126.993 68.4404L121.21 91.7945C120.863 93.2433 121.73 94.75 123.234 95.0398C132.14 97.0101 137.691 96.2568 140.467 95.5034C141.277 95.2716 141.566 94.2864 140.93 93.649C137.807 90.5776 137.286 81.827 137.344 76.0899C140.236 76.7273 142.838 76.1478 144.168 73.54C145.093 71.6277 145.383 69.6573 145.267 66.7018C145.267 66.0644 147.175 63.8622 146.828 63.2827Z" fill="white"/>
<path d="M133.759 96.6042C130.925 96.6042 127.397 96.2565 123.176 95.3293C122.366 95.1554 121.672 94.6918 121.21 93.9384C120.747 93.243 120.631 92.3738 120.863 91.5625L126.53 68.6139C125.316 68.3242 121.788 67.281 121.499 64.3835C121.383 63.5722 121.615 62.8768 122.135 62.3552C123.176 61.3121 125.084 61.2542 126.01 61.3121C125.894 59.8054 125.952 55.0534 130.52 51.5184C130.636 51.4025 130.809 51.4025 130.925 51.4605C130.983 51.5184 137.113 54.4739 142.433 50.0696C142.549 49.9537 142.664 49.9537 142.838 50.0117C142.953 50.0696 143.069 50.1856 143.069 50.3015C143.069 50.3594 143.821 53.6626 144.515 57.4294C144.92 59.4577 145.787 61.3701 147.117 62.9927C147.117 62.9927 147.117 63.0506 147.175 63.0506C147.464 63.5722 147.002 64.3256 146.25 65.5425C146.018 65.9482 145.671 66.4697 145.614 66.5856C145.729 69.7729 145.44 71.7433 144.515 73.5977C143.3 76.0316 140.929 77.0168 137.749 76.4952C137.749 81.7108 138.269 90.3455 141.219 93.301C141.623 93.7066 141.739 94.2282 141.623 94.7498C141.508 95.2713 141.103 95.677 140.582 95.7929C139.021 96.2565 136.766 96.6042 133.759 96.6042ZM125.663 62.1814C124.795 62.1814 123.407 62.2973 122.713 62.9927C122.366 63.3404 122.251 63.804 122.308 64.3835C122.598 67.2231 127.05 67.9765 127.108 67.9765C127.224 67.9765 127.34 68.0344 127.397 68.1503C127.455 68.2662 127.455 68.3821 127.455 68.4401L121.672 91.7943C121.499 92.3738 121.615 93.0112 121.961 93.5328C122.308 94.0543 122.771 94.4021 123.407 94.5759C132.429 96.5462 137.98 95.7349 140.467 95.0395C140.698 94.9816 140.872 94.8077 140.929 94.5759C140.987 94.3441 140.929 94.0543 140.756 93.8805C137.633 90.8091 136.997 82.4642 137.055 76.0316C137.055 75.9157 137.113 75.7998 137.228 75.7419C137.344 75.6839 137.46 75.626 137.575 75.6839C139.715 76.1475 142.549 76.1475 143.937 73.3079C144.804 71.5694 145.093 69.715 144.977 66.6436C144.977 66.2959 145.209 65.8902 145.729 65.1369C146.018 64.6733 146.597 63.804 146.597 63.5142C145.209 61.8337 144.284 59.8054 143.879 57.6612C143.358 54.8796 142.78 52.3297 142.549 51.1707C137.575 54.8796 132.139 52.9092 130.925 52.3877C126.125 56.2704 126.935 61.7178 126.935 61.7757C126.935 61.8916 126.935 62.0075 126.819 62.1234C126.761 62.2393 126.588 62.2393 126.472 62.2393C126.356 62.1814 126.067 62.1814 125.663 62.1814Z" fill="#444444"/>
<path d="M137.402 76.4377H137.344C135.089 76.0321 131.966 73.8879 131.851 73.8299C131.677 73.714 131.619 73.4822 131.735 73.2504C131.851 73.0766 132.082 73.0186 132.313 73.1345C132.371 73.1345 135.436 75.2207 137.518 75.6264C137.749 75.6844 137.865 75.8582 137.865 76.09C137.749 76.3218 137.576 76.4377 137.402 76.4377Z" fill="#444444"/>
<path d="M35.1601 88.5485H5.49377C2.48665 88.5485 0 86.1145 0 83.0431V20.1665C0 17.153 2.42883 14.6611 5.49377 14.6611H24.4617C24.6931 14.6611 24.8665 14.835 24.8665 15.0668C24.8665 15.2986 24.6931 15.4724 24.4617 15.4724H5.49377C2.89146 15.4724 0.809608 17.5587 0.809608 20.1665V83.1011C0.809608 85.7089 2.89146 87.7951 5.49377 87.7951H35.1601C35.3915 87.7951 35.5649 87.969 35.5649 88.2008C35.5071 88.3746 35.3336 88.5485 35.1601 88.5485Z" fill="#444444"/>
<path d="M101.664 88.5484H70.8989C70.6676 88.5484 70.4941 88.3746 70.4941 88.1428C70.4941 87.911 70.6676 87.7371 70.8989 87.7371H101.664C104.266 87.7371 106.348 85.6509 106.348 83.0431V73.4232C106.348 73.1914 106.522 73.0176 106.753 73.0176C106.984 73.0176 107.158 73.1914 107.158 73.4232V83.0431C107.158 86.1145 104.729 88.5484 101.664 88.5484Z" fill="#444444"/>
<path d="M106.753 73.8869C106.522 73.8869 106.348 73.7131 106.348 73.4813V20.1665C106.348 17.5587 104.266 15.4724 101.664 15.4724H70.8989C70.6676 15.4724 70.4941 15.2986 70.4941 15.0668C70.4941 14.835 70.6676 14.6611 70.8989 14.6611H101.664C104.671 14.6611 107.158 17.0951 107.158 20.1665V73.4813C107.158 73.7131 106.984 73.8869 106.753 73.8869Z" fill="white"/>
<path d="M70.9561 15.4724H37.2417C37.0104 15.4724 36.8369 15.2986 36.8369 15.0668C36.8369 14.835 37.0104 14.6611 37.2417 14.6611H70.9561C71.1874 14.6611 71.3609 14.835 71.3609 15.0668C71.3609 15.2986 71.1874 15.4724 70.9561 15.4724Z" fill="#444444"/>
<path d="M85.4713 78.5808H72.9224C72.6911 78.5808 72.5176 78.407 72.5176 78.1752C72.5176 77.9434 72.6911 77.7695 72.9224 77.7695H85.4713C85.7026 77.7695 85.8761 77.9434 85.8761 78.1752C85.8761 78.407 85.7026 78.5808 85.4713 78.5808Z" fill="#444444"/>
<path d="M41.6368 78.5808H16.1919C15.9606 78.5808 15.7871 78.407 15.7871 78.1752C15.7871 77.9434 15.9606 77.7695 16.1919 77.7695H41.6368C41.8681 77.7695 42.0416 77.9434 42.0416 78.1752C42.0416 78.407 41.8681 78.5808 41.6368 78.5808Z" fill="#444444"/>
<path d="M57.2507 66.7007H18.563C18.3317 66.7007 18.1582 66.5268 18.1582 66.295V26.3089C18.1582 26.1351 18.2739 26.0192 18.3895 25.9612C18.563 25.9033 18.7365 25.9612 18.8522 26.0771L57.5399 66.0632C57.6555 66.1791 57.6555 66.353 57.5977 66.4689C57.5399 66.6427 57.4242 66.7007 57.2507 66.7007ZM18.9678 65.9473H56.3255L18.9678 27.2941V65.9473Z" fill="#444444"/>
<path d="M18.5632 70.004C20.5753 70.004 22.2064 68.3694 22.2064 66.3531C22.2064 64.3367 20.5753 62.7021 18.5632 62.7021C16.5511 62.7021 14.9199 64.3367 14.9199 66.3531C14.9199 68.3694 16.5511 70.004 18.5632 70.004Z" fill="#444444"/>
<path d="M57.2507 70.004C59.2628 70.004 60.8939 68.3694 60.8939 66.3531C60.8939 64.3367 59.2628 62.7021 57.2507 62.7021C55.2386 62.7021 53.6074 64.3367 53.6074 66.3531C53.6074 68.3694 55.2386 70.004 57.2507 70.004Z" fill="#444444"/>
<path d="M18.5632 29.96C20.5753 29.96 22.2064 28.3254 22.2064 26.3091C22.2064 24.2928 20.5753 22.6582 18.5632 22.6582C16.5511 22.6582 14.9199 24.2928 14.9199 26.3091C14.9199 28.3254 16.5511 29.96 18.5632 29.96Z" fill="#444444"/>
<path d="M60.4312 227.979H16.9436C11.6233 227.979 7.28613 223.632 7.28613 218.301V157.395C7.28613 152.063 11.6233 147.717 16.9436 147.717H60.4312C65.7514 147.717 70.0886 152.063 70.0886 157.395V218.301C70.0886 223.632 65.7514 227.979 60.4312 227.979ZM16.9436 148.528C12.0281 148.528 8.09574 152.527 8.09574 157.395V218.301C8.09574 223.227 12.086 227.167 16.9436 227.167H60.4312C65.3466 227.167 69.279 223.169 69.279 218.301V157.395C69.279 152.469 65.2888 148.528 60.4312 148.528H16.9436Z" fill="#444444"/>
<path d="M28.5672 170.839H15.0352V215.345H28.5672V170.839Z" fill="#444444"/>
<path d="M45.4529 158.554H31.9209V215.346H45.4529V158.554Z" fill="#1F75BA"/>
<path d="M62.3396 188.804H48.8076V215.345H62.3396V188.804Z" fill="#444444"/>
</g>
<defs>
<clipPath id="clip0_4551_5288">
<rect width="325" height="250" fill="white"/>
</clipPath>
</defs>
</svg>
