<svg width="200" height="134" viewBox="0 0 200 134" fill="none" xmlns="http://www.w3.org/2000/svg">
<g clip-path="url(#clip0_3309_5751)">
<path d="M50.7 58.0004C51 58.3004 51.4 58.5004 51.7 58.5004C52 58.5004 52.3 58.4004 52.6 58.3004C53.2 57.8004 53.2 57.0004 52.7 56.5004C50.8 54.3004 48.7 53.2004 46.3 53.1004C42.3 52.9004 39.3 55.8004 39.2 55.9004C38.7 56.4004 38.7 57.2004 39.2 57.7004C39.7 58.2004 40.4 58.2004 41 57.7004C41 57.6004 43.4 55.4004 46.2 55.5004C47.8 55.6004 49.3 56.4004 50.7 58.0004Z" fill="#014BE4"/>
<path d="M77.2 58.4004C77.5 58.4004 77.9 58.3004 78.1 58.2004C78.7 57.7004 78.7 56.9004 78.2 56.4004C76.3 54.3004 74.3 53.2004 71.9 53.0004C67.9 52.8004 64.9 55.7004 64.8 55.8004C64.3 56.3004 64.3 57.1004 64.8 57.6004C65.3 58.1004 66 58.1004 66.6 57.6004C66.6 57.5004 69 55.3004 71.8 55.4004C73.4 55.5004 74.9 56.3004 76.2 57.9004C76.5 58.2004 76.9 58.4004 77.2 58.4004Z" fill="#014BE4"/>
<path d="M46 60.2004C45 60.2004 44.2 61.0004 44.2 62.0004V65.9004C44.2 66.9004 45 67.7004 46 67.7004C47 67.7004 47.8 66.8004 47.8 65.9004V62.0004C47.8 61.0004 47 60.2004 46 60.2004Z" fill="#014BE4"/>
<path d="M71.4 60.2004C70.4 60.2004 69.6 61.0004 69.6 62.0004V65.9004C69.6 66.9004 70.4 67.7004 71.4 67.7004C72.4 67.7004 73.3 66.8004 73.2 65.9004V62.0004C73.2 61.0004 72.4 60.2004 71.4 60.2004Z" fill="#014BE4"/>
<path d="M65.9 81.7004C63.5 84.2004 61.1 85.5004 58.6 85.3004C54.5 85.1004 51.5 81.2004 51.5 81.2004C51 80.6004 50.3 80.5004 49.7 81.0004C49.1 81.5004 49 82.3004 49.5 82.8004C49.6 83.0004 53.2 87.7004 58.6 87.9004C58.7 87.9004 58.9 87.9004 59.1 87.9004C62.2 87.9004 65.2 86.4004 67.9 83.4004C68.4 82.8004 68.4 82.0004 67.8 81.6004C67.2 81.2004 66.3 81.1004 65.9 81.7004Z" fill="#014BE4"/>
<path d="M55.2 77.1004C55.9 77.2004 56.6 76.8004 56.7 76.1004C56.7 76.0004 57.2 73.7004 58.9 73.7004C60.5 73.7004 60.7 75.9004 60.7 76.0004C60.7 76.7004 61.3 77.1004 61.9 77.1004C62 77.1004 62 77.1004 62.2 77.1004C62.9 77.1004 63.4 76.4004 63.3 75.7004C63.1 74.1004 62.1 71.0004 58.9 71.0004C55.8 71.0004 54.5 74.0004 54.1 75.5004C54.1 76.3004 54.5 77.0004 55.2 77.1004Z" fill="#014BE4"/>
<path d="M100 96.6004C101.5 94.3004 101.7 91.7004 100.6 88.8004C99.8 86.8004 97.8 84.8004 95.5 82.9004C92.8 80.4004 89.9 77.9004 89.8 75.1004C89.8 74.6004 89.9 74.1004 90 73.7004C92.2 71.6004 93.6 68.7004 93.6 65.4004C93.6 62.9004 92.7 60.5004 91.2 58.6004V44.9004C91.3 44.8004 91.3 44.7004 91.3 44.6004V24.6004L107.4 19.8004C108.6 19.5004 109.4 18.3004 109.4 17.1004C109.4 15.9004 108.6 14.7004 107.4 14.4004L60.8 0.400391C59.3 -0.0996094 57.9 -0.0996094 56.4 0.400391L9.5 14.3004C8.3 14.6004 7.5 15.8004 7.5 17.0004V28.8004C3.3 29.4004 0 33.1004 0 37.5004C0 41.8004 6.9 53.3004 7.7 54.4004C7.9 54.7004 8.3 55.0004 8.7 55.0004C9 55.0004 9.5 54.8004 9.7 54.4004C10.5 53.1004 17.4 41.8004 17.4 37.4004C17.4 33.1004 14.1 29.2004 9.9 28.7004V20.0004L25.4 24.5004V40.2004C25.4 40.3004 25.4 40.3004 25.4 40.4004V58.1004C23.8 60.0004 22.9 62.4004 22.9 65.2004C22.9 68.5004 24.3 71.4004 26.5 73.6004C27.1 74.5004 27.3 75.4004 27.3 76.3004C27.3 79.0004 24.4 81.5004 21.6 84.1004C19.4 86.0004 17.3 88.0004 16.5 90.0004C15.4 93.0004 15.6 95.5004 17.1 97.8004C20 102 27.2 104.2 33.8 105.3C32.5 105.8 31.3 106.4 30.2 107.1C21.5 112.2 15.6 121.8 15.6 132.4C15.6 133.1 16.2 133.7 16.8 133.7C17.5 133.7 18 133.1 18 132.4C18 119.7 27 109.1 39.1 106C42.9 106.4 45.8 106.4 46.1 106.4C46.2 106.4 46.3 106.4 46.4 106.4C47.7 111.6 52.4 115.6 58 115.6C61.2 115.6 64.2 114.3 66.5 112.1C68.4 110.2 69.6 107.8 69.9 105.2H70.1C70.3 105.3 70.5 105.4 70.8 105.4C71 105.4 71.8 105.4 73 105.3C87.1 106.7 98.3 118.4 98.3 132.4C98.3 133.1 98.9 133.7 99.5 133.7C100.1 133.7 100.7 133.1 100.7 132.4C100.7 119.7 92.4 108.8 80.8 104.6C88.3 103.6 96.9 101.4 100 96.6004ZM15 37.4004C15 39.9004 11.6 46.6004 8.8 51.4004C6 46.6004 2.6 39.9004 2.6 37.4004C2.6 34.0004 5.4 31.1004 8.8 31.1004C12.2 31.1004 15 34.0004 15 37.4004ZM10.2 17.4004C10.1 17.3004 10 17.2004 10 17.1004C10 17.0004 10.1 16.9004 10.2 16.8004L57 2.80039C57.5 2.70039 58 2.60039 58.5 2.60039C59 2.60039 59.5 2.70039 60 2.80039L106.8 16.7004C106.9 16.8004 107 16.9004 107 17.0004C107 17.2004 106.9 17.3004 106.8 17.3004L59.9 31.2004C59 31.5004 58 31.5004 57 31.2004L10.2 17.4004ZM82.6 45.9004H88.7V56.0004C87.2 55.0004 85.5 54.3004 83.7 54.1004V52.6004C83.8 50.3004 83.3 48.1004 82.6 45.9004ZM28.2 43.2004V25.3004L56.4 33.7004C57.1 33.9004 57.9 34.0004 58.6 34.0004C59.3 34.0004 60.1 33.9004 60.8 33.7004L88.9 25.3004V43.1004H28.2V43.2004ZM34.3 45.9004C33.5 47.9004 33.2 50.2004 33.2 52.6004V54.1004C31.4 54.3004 29.8 54.9004 28.3 55.9004V45.9004H34.3ZM46.4 102.8C44 102.8 41.6 103.2 39.4 103.7C31.8 102.8 22.1 100.8 19.2 96.5004C18.2 94.9004 18.1 93.1004 18.9 91.0004C19.6 89.4004 21.4 87.8004 23.4 86.0004C26.5 83.3004 29.9 80.3004 30 76.5004C30 76.3004 30 76.1004 30 75.8004C31 76.2004 32.1 76.6004 33.2 76.7004V78.2004C33.2 82.9004 34.8 87.2004 37.3 90.7004C39.7 93.9004 42.7 96.4004 46.4 97.9004V102.8ZM67.9 103.7H67.8C67.8 109 63.5 113.4 58.3 113.4C53 113.4 48.8 109.1 48.8 103.7C48.8 103.6 48.8 100.7 48.9 98.7004C50.7 99.3004 52.5 99.5004 54.5 99.5004H62.7C64.5 99.5004 66.2 99.3004 67.9 98.8004V103.7ZM62.5 96.9004H54.3C44.1 96.9004 35.7 88.4004 35.7 78.1004V75.5004C35.7 74.8004 35.1 74.2004 34.5 74.2004C29.7 74.2004 25.8 70.2004 25.8 65.3004C25.8 60.4004 29.8 56.4004 34.5 56.4004C35.2 56.4004 35.7 55.8004 35.7 55.1004V52.5004C35.7 50.1004 36.2 47.8004 36.9 45.8004H79.9C80.7 47.8004 81.1 50.1004 81.1 52.5004V55.1004C81.1 55.8004 81.7 56.4004 82.3 56.4004C87.1 56.5004 90.9 60.4004 90.9 65.3004C90.9 66.6004 90.6 67.9004 90.1 69.0004C89.2 69.9004 88.5 70.8004 88 71.8004C86.6 73.2004 84.6 74.0004 82.4 74.1004C81.7 74.1004 81.2 74.7004 81.2 75.4004V78.0004C81.2 88.4004 72.8 96.9004 62.5 96.9004ZM73.4 102.7C72.4 102.6 71.4 102.6 70.4 102.6V97.8004C78.2 94.7004 83.8 87.0004 83.8 78.0004V76.6004C85.1 76.4004 86.3 76.0004 87.4 75.5004C87.7 79.1004 91 82.1004 94 84.8004C96 86.6004 98 88.3004 98.5 89.8004C99.3 92.0004 99.2 93.7004 98.2 95.3004C94.5 100.6 80.6 102.4 73.4 102.7Z" fill="#014BE4"/>
<path d="M173.1 11.2004H156.5C155.7 11.2004 155.1 11.8004 155.1 12.6004V97.5004C155.1 98.3004 155.7 98.9004 156.5 98.9004H173.1C173.9 98.9004 174.5 98.3004 174.5 97.5004V12.7004C174.5 12.0004 173.9 11.2004 173.1 11.2004ZM171.7 96.1004H157.9V14.1004H171.7V96.1004Z" fill="#014BE4"/>
<path d="M131.9 98.9004H148.5C149.3 98.9004 149.9 98.3004 149.9 97.5004V23.2004C149.9 22.4004 149.3 21.8004 148.5 21.8004H131.9C131.1 21.8004 130.5 22.4004 130.5 23.2004V97.5004C130.5 98.3004 131.1 98.9004 131.9 98.9004ZM133.3 24.6004H147.1V96.1004H133.3V24.6004Z" fill="#014BE4"/>
<path d="M104.6 33.4004V97.5004C104.6 98.3004 105.2 98.9004 106 98.9004H122.6C123.4 98.9004 124 98.3004 124 97.5004V33.4004C124 32.6004 123.4 32.0004 122.6 32.0004H106C105.2 32.0004 104.6 32.7004 104.6 33.4004ZM107.4 34.8004H121.2V96.1004H107.4V34.8004Z" fill="#014BE4"/>
<path d="M172.3 106.5C172.7 106.2 172.8 105.8 172.8 105.3C172.8 105 172.7 104.7 172.6 104.4C172.5 104.3 172.4 104.2 172.3 104.1C172.2 104 172 103.9 171.9 103.9H103.6C103.4 103.9 103.3 104 103.2 104.1C102.8 104.4 102.7 104.8 102.7 105.3C102.7 105.6 102.8 105.9 102.9 106.2C103 106.3 103.1 106.4 103.2 106.5C103.3 106.6 103.5 106.7 103.6 106.7H171.9C172 106.6 172.2 106.6 172.3 106.5Z" fill="#014BE4"/>
<path d="M124.3 117.7H118.7L117 112.4C116.8 111.9 116.4 111.6 115.9 111.6C115.4 111.6 114.9 111.9 114.8 112.4L113.1 117.7H107.5C107 117.7 106.5 118 106.4 118.5C106.2 119 106.4 119.5 106.8 119.8L111.3 123.1L109.6 128.4C109.4 128.9 109.6 129.4 110 129.7C110.4 130 111 130 111.4 129.7L115.9 126.4L120.4 129.7C120.6 129.9 120.9 129.9 121.1 129.9C121.3 129.9 121.6 129.8 121.8 129.7C122.2 129.4 122.4 128.9 122.2 128.4L120.5 123.1L125 119.9C125.4 119.6 125.6 119.1 125.4 118.6C125.2 118.1 124.8 117.7 124.3 117.7ZM118.3 121.8C117.9 122.1 117.7 122.6 117.9 123.1L118.8 125.7L116.6 124.1C116.4 123.9 116.1 123.9 115.9 123.9C115.7 123.9 115.4 124 115.2 124.1L113 125.7L113.8 123.1C114 122.6 113.8 122.1 113.4 121.8L111.2 120.2H113.9C114.4 120.2 114.9 119.9 115 119.4L115.8 116.8L116.6 119.4C116.8 119.9 117.2 120.2 117.7 120.2H120.4L118.3 121.8Z" fill="#014BE4"/>
<path d="M148.3 117.7H142.7L141 112.4C140.8 111.9 140.4 111.6 139.9 111.6C139.4 111.6 138.9 111.9 138.8 112.4L137.1 117.7H131.5C131 117.7 130.5 118 130.4 118.5C130.2 119 130.4 119.5 130.8 119.8L135.3 123.1L133.6 128.4C133.4 128.9 133.6 129.4 134 129.7C134.4 130 135 130 135.4 129.7L139.9 126.4L144.4 129.7C144.6 129.9 144.9 129.9 145.1 129.9C145.3 129.9 145.6 129.8 145.8 129.7C146.2 129.4 146.4 128.9 146.2 128.4L144.5 123.1L149 119.9C149.4 119.6 149.6 119.1 149.4 118.6C149.2 118.1 148.8 117.7 148.3 117.7ZM142.4 121.8C142 122.1 141.8 122.6 142 123.1L142.8 125.7L140.6 124.1C140.4 123.9 140.1 123.9 139.9 123.9C139.7 123.9 139.4 124 139.2 124.1L137 125.7L137.8 123.1C138 122.6 137.8 122.1 137.4 121.8L135.2 120.2H137.9C138.4 120.2 138.9 119.9 139 119.4L139.8 116.8L140.6 119.4C140.8 119.9 141.2 120.2 141.7 120.2H144.4L142.4 121.8Z" fill="#014BE4"/>
<path d="M173 117.7H167.4L165.7 112.4C165.5 111.9 165.1 111.6 164.6 111.6C164.1 111.6 163.6 111.9 163.5 112.4L161.8 117.7H156.2C155.7 117.7 155.2 118 155.1 118.5C154.9 119 155.1 119.5 155.5 119.8L160 123.1L158.3 128.4C158.1 128.9 158.3 129.4 158.7 129.7C159.1 130 159.7 130 160.1 129.7L164.6 126.4L169.1 129.7C169.3 129.9 169.6 129.9 169.8 129.9C170 129.9 170.3 129.8 170.5 129.7C170.9 129.4 171.1 128.9 170.9 128.4L169.2 123.1L173.7 119.9C174.1 119.6 174.3 119.1 174.1 118.6C173.9 118.1 173.5 117.7 173 117.7ZM167.1 121.8C166.7 122.1 166.5 122.6 166.7 123.1L167.5 125.7L165.3 124.1C165.1 123.9 164.8 123.9 164.6 123.9C164.4 123.9 164.1 124 163.9 124.1L161.7 125.7L162.5 123.1C162.7 122.6 162.5 122.1 162.1 121.8L159.9 120.2H162.6C163.1 120.2 163.6 119.9 163.7 119.4L164.5 116.8L165.3 119.4C165.5 119.9 165.9 120.2 166.4 120.2H169.1L167.1 121.8Z" fill="#014BE4"/>
</g>
<defs>
<clipPath id="clip0_3309_5751">
<rect width="200" height="133.673" fill="white"/>
</clipPath>
</defs>
</svg>
