<svg width="183" height="146" viewBox="0 0 183 146" fill="none" xmlns="http://www.w3.org/2000/svg">
<path d="M72.3999 105.8L60.2999 98.7V89.5C66.5999 88.5 74.2999 84.1 74.3999 72.7V67.7H75.0999C79.0999 67.7 82.3999 64.4 82.3999 60.4V50.8C82.3999 50.2 82.2999 49.8 82.1999 49.3C82.2999 49.2 82.2999 49.1 82.3999 49C83.2999 47 83.6999 38.6 82.4999 29.6C81.1999 19.8 69.0999 11 60.5999 11H37.2999C37.1999 9.7 37.1999 7.7 37.4999 6.5C37.8999 5.6 38.2999 5.4 39.1999 5C39.5999 4.8 39.9999 4.6 40.2999 4.3C40.7999 3.8 40.8999 3.1 40.3999 2.5C39.8999 2 39.1999 1.9 38.5999 2.4C38.4999 2.5 38.0999 2.6 37.8999 2.8C36.8999 3.3 35.3999 4 34.7999 6C34.2999 7.4 34.3999 9.6 34.4999 11C27.1999 11.1 22.6999 11.8 15.3999 18.8C7.59994 26.5 7.59994 37.2 7.59994 42.3C7.59994 45.9 8.39994 47.7 8.99994 48.7C8.79994 49.4 8.69994 50 8.69994 50.7V60.4C8.69994 64.4 11.8999 67.6 15.9999 67.6H18.6999V73C18.6999 82.8 24.5999 88.4 30.7999 89.5V98.7L19.3999 105.7C17.9999 105.9 11.0999 107 7.09994 110.8C3.49994 114.1 1.29994 119.5 -5.89341e-05 127.6C-0.500059 130.7 -0.100059 132.7 0.999941 134.1C2.59994 135.7 4.99994 136 6.99994 136H81.2999C86.4999 136 89.4999 135.3 90.4999 134.1C90.5999 134 94.7999 128.8 89.0999 116.8C84.3999 107.1 74.3999 105.9 72.3999 105.8ZM71.2999 108.1L60.4999 125.1L55.2999 121.8C55.0999 121.7 54.9999 121.5 54.7999 121.5L47.5999 117L59.4999 101L71.2999 108.1ZM45.7999 115.1L33.4999 99V89.7H57.7999V98.9L45.7999 115.1ZM79.8999 60.4C79.8999 63 77.7999 65.1 75.1999 65.1H74.4999V46H75.1999C77.7999 46 79.8999 48.1 79.8999 50.7V60.4ZM18.6999 64.9H15.9999C13.3999 64.9 11.2999 62.8 11.2999 60.2V50.6C11.2999 48 13.3999 45.9 15.9999 45.9H18.6999V64.9ZM18.6999 41.8V43.4H15.9999C13.7999 43.4 11.7999 44.4 10.4999 45.9C10.2999 45.1 10.0999 44 10.0999 42.3C10.0999 37.5 10.0999 27.5 17.1999 20.7C24.1999 13.8 27.9999 13.6 35.9999 13.6H60.5999C68.0999 13.6 78.8999 21.5 80.0999 29.9C81.0999 36.8 80.9999 42.8 80.6999 45.9C79.1999 44.4 77.2999 43.5 75.1999 43.5H74.4999V40.4C74.4999 33.8 66.3999 33.3 58.8999 33.3H45.9999C41.6999 33.3 37.2999 30.6 37.2999 25.6C37.2999 24.9 36.6999 24.4 36.0999 24.4C35.3999 24.3 34.8999 24.9 34.7999 25.5C34.7999 25.5 34.1999 30.8 30.0999 32.2C28.9999 32.6 27.7999 32.8 26.8999 33C22.9999 33.4 18.6999 34.2 18.6999 41.8ZM21.1999 73.2V42C21.1999 36.6 23.4999 36.1 27.0999 35.4C28.2999 35.2 29.4999 34.9 30.6999 34.5C33.2999 33.7 34.8999 31.9 35.7999 30.1C37.6999 33.7 41.8999 35.5 45.8999 35.7H58.6999C68.0999 35.7 71.7999 36.9 71.7999 40.3V72.7C71.7999 86.8 58.4999 87.2 57.0999 87.2H32.8999C27.1999 87.2 21.1999 82.4 21.1999 73.2ZM31.8999 101.1L44.0999 116.9L36.2999 121C36.0999 121.1 35.8999 121.2 35.7999 121.3L30.2999 124.3L21.1999 108.1C21.1999 108 21.0999 108 20.9999 107.9L31.8999 101.1ZM6.69994 133.5C4.59994 133.5 3.49994 133.3 2.89994 132.6C2.19994 131.9 2.09994 130.5 2.39994 128.1C3.49994 120.8 5.59994 115.8 8.79994 112.8C11.6999 110.1 16.4999 108.9 18.7999 108.4C18.7999 108.7 18.7999 109 18.8999 109.2L28.4999 126.5C28.8999 127.1 29.5999 127.3 30.1999 127L35.6999 124L38.4999 133.4H6.69994V133.5ZM50.3999 133.6H41.1999V133.5L38.0999 122.9L45.8999 118.8L52.9999 123.2L50.3999 133.6ZM88.4999 132.3C88.2999 132.7 87.0999 133.5 81.0999 133.5H53.0999L55.2999 124.5L60.3999 127.6C60.5999 127.7 60.8999 127.8 61.0999 127.8C61.5999 127.8 61.8999 127.6 61.9999 127.3L73.9999 108.6V108.5C77.1999 109.1 83.3999 111.1 86.4999 117.7C90.7999 126.6 89.0999 131.5 88.4999 132.3Z" fill="#0272B0"/>
<path d="M38.7999 48.3C39.1999 48.7 39.4999 48.8 39.7999 48.8C39.9999 48.8 40.3999 48.7 40.6999 48.6C41.2999 48.1 41.2999 47.4 40.7999 46.8C38.8999 44.7 36.8999 43.6 34.4999 43.5C30.5999 43.3 27.4999 46.2 27.3999 46.3C26.8999 46.8 26.8999 47.5 27.3999 48.1C27.8999 48.6 28.5999 48.6 29.1999 48.1C29.1999 48 31.5999 45.9 34.3999 46C36.0999 46 37.4999 46.7 38.7999 48.3Z" fill="#0272B0"/>
<path d="M54.4999 48C54.4999 47.9 56.8999 45.8 59.6999 45.9C61.1999 46 62.7999 46.8 64.0999 48.4C64.4999 48.8 64.7999 48.9 65.0999 48.9C65.3999 48.9 65.6999 48.8 65.9999 48.7C66.5999 48.2 66.5999 47.5 66.0999 46.9C64.1999 44.8 62.1999 43.7 59.7999 43.6C55.8999 43.4 52.7999 46.3 52.6999 46.4C52.1999 46.9 52.1999 47.6 52.6999 48.2C53.0999 48.3 53.8999 48.3 54.4999 48Z" fill="#0272B0"/>
<path d="M34.2999 57.8C35.2999 57.8 36.0999 57 36.0999 56V52.2C36.0999 51.2 35.2999 50.4 34.2999 50.4C33.2999 50.4 32.4999 51.2 32.4999 52.2V56C32.4999 57 33.1999 57.8 34.2999 57.8Z" fill="#0272B0"/>
<path d="M59.2999 50.4C58.2999 50.4 57.4999 51.2 57.4999 52.2V56C57.4999 57 58.2999 57.8 59.2999 57.8C60.2999 57.8 61.0999 57 61.0999 56V52.2C61.0999 51.2 60.2999 50.4 59.2999 50.4Z" fill="#0272B0"/>
<path d="M53.8999 71.4C51.4999 73.9 49.1999 75.1 46.6999 75C42.6999 74.8 39.5999 71 39.5999 71C39.0999 70.4 38.3999 70.3 37.7999 70.8C37.1999 71.3 37.0999 72 37.5999 72.6C37.6999 72.8 41.2999 77.4 46.5999 77.6C46.6999 77.6 46.9999 77.6 47.0999 77.6C50.1999 77.6 52.9999 76.2 55.8999 73.1C56.3999 72.5 56.3999 71.8 55.7999 71.3C55.1999 70.8 54.2999 70.8 53.8999 71.4Z" fill="#0272B0"/>
<path d="M43.2999 67C43.9999 67.1 44.5999 66.6 44.6999 66C44.6999 65.9 45.1999 63.6 46.7999 63.6C48.2999 63.6 48.5999 65.7 48.5999 65.8C48.5999 66.5 49.1999 66.9 49.7999 66.9C49.7999 66.9 49.8999 66.8 50.1999 66.9C50.8999 66.9 51.3999 66.2 51.2999 65.6C51.0999 64.1 50.0999 61 46.8999 61C43.7999 61 42.4999 63.9 42.1999 65.5C42.1999 66.3 42.6999 66.9 43.2999 67Z" fill="#0272B0"/>
<path d="M137.2 78.8V95.6C137.2 96.1 137.5 96.5 137.9 96.7C138.1 96.8 138.4 96.9 138.6 96.9C138.8 96.9 139.1 96.8 139.3 96.7C140.6 96 141.8 95 142.6 93.7C143.6 92.2 144.2 90.4 144.2 88.5V78.8C144.2 78 143.6 77.5 142.9 77.5H138.6C137.8 77.4 137.2 78 137.2 78.8ZM140 80.1H141.5V88.5C141.5 89.8 141.1 91.1 140.4 92.2C140.3 92.4 140.1 92.5 140 92.7V80.1Z" fill="#0272B0"/>
<path d="M96.9999 77.3H92.6999C91.8999 77.3 91.3999 77.9 91.3999 78.6V88.4C91.3999 90.3 91.9999 92.1 92.9999 93.6C93.8999 94.8 94.9999 95.9 96.2999 96.6C96.4999 96.7 96.6999 96.8 96.9999 96.8C97.2999 96.8 97.4999 96.7 97.6999 96.6C98.0999 96.3 98.3999 95.9 98.3999 95.5V78.8C98.3999 78 97.7999 77.4 96.9999 77.3ZM95.5999 92.7C95.4999 92.5 95.2999 92.4 95.1999 92.2C94.3999 91.2 94.0999 89.8 94.0999 88.5V80.1H95.5999V92.7Z" fill="#0272B0"/>
<path d="M146.5 72.9H139.9V68.2C139.9 67.2 139 66.3 138 66.3H97.5999C96.5999 66.3 95.6999 67.2 95.6999 68.2V72.9H89.0999C88.0999 72.9 87.1999 73.8 87.1999 74.8V88.9C87.1999 91.9 88.1999 94.7 89.9999 97.1C91.4999 99.1 93.5999 100.6 95.8999 101.5C96.4999 105.6 98.0999 109.4 100.8 112.6C103.5 115.8 107 118.2 110.9 119.6C111 120.3 111.1 120.9 111.1 121.7C111.1 122.8 111 124.1 110.7 125.3C110.2 127.4 109.4 129.8 108 132.4C108 132.5 107.9 132.5 107.9 132.6H101.6C100.8 132.6 100.3 133.2 100.3 133.9V141.7C100.3 142.5 100.9 143 101.6 143H103.9V144.7C103.9 145.5 104.5 146 105.2 146H130.4C131.2 146 131.7 145.4 131.7 144.7V143H134C134.8 143 135.3 142.4 135.3 141.7V133.9C135.3 133.1 134.7 132.6 134 132.6H127.7V132.5C126.3 129.8 125.4 127.6 124.9 125.5C124.6 124.3 124.5 123 124.5 121.9C124.5 121.1 124.6 120.5 124.7 119.7C128.6 118.4 132.1 116 134.8 112.7C137.5 109.5 139.1 105.6 139.7 101.6C142 100.7 144.1 99.2 145.6 97.2C147.4 94.8 148.4 92 148.4 89V74.8C148.5 73.7 147.6 72.9 146.5 72.9ZM129 143.3H106.6V142.9H129V143.3ZM132.7 135.1V140.1H103V135.1H132.7ZM145.7 88.9C145.7 91.3 144.9 93.6 143.5 95.4C142.2 97.2 140.3 98.5 138.1 99.2C137.5 99.4 137.2 99.9 137.1 100.3C136.7 104.2 135.2 107.8 132.7 110.9C130.2 113.9 126.9 116.1 123.2 117.2C122.7 117.3 122.3 117.8 122.2 118.2C121.9 119.3 121.8 120.5 121.8 121.7C121.8 123 122 124.5 122.3 125.9C122.8 127.9 123.5 130 124.7 132.4H110.9C112 130 112.8 127.8 113.3 125.7C113.6 124.3 113.8 122.8 113.8 121.5C113.8 120.4 113.7 119.2 113.4 118.1C113.3 117.6 112.9 117.2 112.4 117.1C108.6 116.1 105.3 113.9 102.8 110.8C100.3 107.8 98.7999 104.1 98.3999 100.2C98.2999 99.6 97.9999 99.2 97.3999 99.1C95.2999 98.4 93.3999 97.1 91.9999 95.3C90.5999 93.4 89.7999 91.2 89.7999 88.8V75.5H96.9999C97.7999 75.5 98.2999 74.9 98.2999 74.2V69H137.2V74.2C137.2 75 137.8 75.5 138.5 75.5H145.7V88.9Z" fill="#0272B0"/>
<path d="M127.1 89.7H121.4L119.7 84.3C119.4 83.5 118.7 83 117.9 83L117.8 82.8L117.7 83C116.8 83 116.2 83.6 115.9 84.3L114.2 89.7H108.5C107.6 89.7 107 90.2 106.7 90.9H106.5L106.7 91C106.6 91.2 106.6 91.4 106.6 91.6C106.6 92.2 106.9 92.8 107.4 93.1L112 96.4L110.3 101.8C110.2 102 110.2 102.2 110.2 102.4C110.2 102.8 110.3 103.2 110.6 103.5C110.7 103.7 110.9 103.8 111 103.9L110.9 104.1L111.1 104C111.4 104.2 111.8 104.3 112.1 104.3C112.5 104.3 112.9 104.2 113.2 103.9L117.8 100.6L122.4 103.9C122.8 104.2 123.2 104.3 123.6 104.3C124 104.3 124.4 104.2 124.6 103.9L124.8 104.1L124.7 103.8C124.8 103.7 125 103.6 125.1 103.4C125.3 103.1 125.5 102.6 125.5 102.3C125.5 102.1 125.5 101.9 125.4 101.7L123.6 96.3L128.2 93C128.7 92.6 129 92 129 91.5C129 91.3 129 91.1 128.9 90.9L129 90.8C128.6 90.2 127.9 89.7 127.1 89.7ZM121.5 94.9C121.1 95.2 120.9 95.6 120.9 96C120.9 96.1 120.9 96.3 121 96.4L122.3 100.5L118.9 97.9C118.7 97.7 118.4 97.6 118.1 97.6C117.8 97.6 117.5 97.7 117.3 97.9L113.9 100.5L114.9 96.4C114.9 96.3 115 96.1 115 96C115 95.6 114.8 95.1 114.4 94.9L111 92.4H115.4C115.7 92.4 116 92.3 116.2 92.1C116.4 91.9 116.6 91.7 116.7 91.4L118 87.3L119.3 91.4C119.5 92 120 92.4 120.6 92.4H124.9L121.5 94.9Z" fill="#0272B0"/>
<path d="M128.9 91C128.9 90.9 128.9 90.9 128.9 91V91Z" fill="#0272B0"/>
<path d="M180.8 69.8L161 50.6L162.9 48.7C163.2 48.4 163.3 48.1 163.3 47.7C163.3 47.3 163.1 47 162.9 46.7C162.7 46.4 162.3 46.3 161.9 46.3C161.5 46.3 161.2 46.5 160.9 46.7C159.4 48.3 158.5 49.2 158 49.6C158 49.6 157.4 50.2 155 52.6L150.6 48.4C155.5 42.9 158 36 158 29.1C158 21.5 155 14 149.2 8.3C143.6 2.8 136.2 0 128.8 0C121.2 0 113.5 2.9 107.9 8.8C102.3 14.4 99.5999 21.8 99.5999 29.2C99.5999 36.8 102.6 44.4 108.4 50C114.1 55.5 121.4 58.3 128.9 58.3C136 58.3 143.2 55.7 148.8 50.4L153.2 54.6L147.4 60.6C147.1 60.9 147 61.2 147 61.6C147 62 147.2 62.3 147.4 62.6C147.7 62.9 148 63 148.4 63C148.8 63 149.1 62.8 149.4 62.6L151.5 60.5L171.3 79.7C172.6 81 174.4 81.7 176.1 81.7C177.9 81.7 179.7 81 181 79.6L181.1 79.5C182.3 78.2 182.9 76.6 182.9 74.9C182.9 72.9 182.2 71.1 180.8 69.8ZM147.7 47.5C142.5 52.8 135.7 55.5 128.8 55.5C122.2 55.5 115.4 53 110.3 48C105 42.8 102.3 36 102.3 29.1C102.4 22.5 104.8 15.8 109.8 10.7C115 5.4 121.8 2.7 128.7 2.7C135.3 2.7 142.1 5.2 147.2 10.2C152.5 15.4 155.2 22.2 155.2 29.1C155.2 35.7 152.7 42.4 147.7 47.5ZM153.3 58.4L159 52.5L162.8 56.2L157 62L153.3 58.4ZM178.9 77.6C178.1 78.4 177 78.9 175.9 78.9C174.8 78.9 173.8 78.5 173 77.7L159 64L164.7 58.1L178.8 71.8C179.6 72.6 180.1 73.7 180.1 74.7C180.1 75.8 179.8 76.8 178.9 77.6Z" fill="#0272B0"/>
<path d="M128.4 32.3C131.6 32.3 134.4 29.7 134.4 26.4C134.4 25.6 133.8 25.1 133.1 25.1C132.2 25.1 131.4 24.8 130.8 24.1C130.2 23.5 129.8 22.7 129.8 21.8C129.8 21 129.2 20.4 128.4 20.4C125.2 20.4 122.4 23 122.4 26.3C122.5 29.6 125.1 32.3 128.4 32.3ZM127.3 23.3C127.8 25.3 129.4 26.9 131.4 27.4C131 28.6 129.8 29.5 128.4 29.5C127.5 29.5 126.7 29.2 126.1 28.5C125.5 27.9 125.1 27.1 125.1 26.2C125.2 24.9 126.1 23.8 127.3 23.3Z" fill="#0272B0"/>
<path d="M152 28.5C145.7 20 137.4 15.3 128.4 15.3C119.4 15.3 111.1 20 104.8 28.5C104.6 28.8 104.5 29 104.5 29.3C104.5 29.6 104.6 29.8 104.8 30.1C111.1 38.6 119.4 43.3 128.4 43.3C137.4 43.3 145.7 38.6 152 30.1C152.2 29.8 152.3 29.6 152.3 29.3C152.3 29 152.2 28.8 152 28.5ZM122.4 20.5C124 19 126.2 18 128.5 18C130.9 18 133.1 19 134.6 20.5C136.1 22.1 137.1 24.2 137.1 26.5C137.1 28.9 136.1 31 134.6 32.5C133 34 130.8 35 128.5 35C126.1 35 123.9 34 122.4 32.5C120.9 30.9 119.9 28.8 119.9 26.5C119.9 24.1 120.9 22 122.4 20.5ZM128.4 40.6C120.7 40.6 113.4 36.6 107.7 29.3C111 25 115 21.9 119.1 20C117.8 21.9 116.9 24.1 116.9 26.6C116.9 32.8 122 37.9 128.4 37.9C134.7 37.9 139.9 32.8 139.9 26.6C139.9 24.2 139.1 21.9 137.8 20C142 21.9 145.9 25 149.2 29.3C143.5 36.6 136.1 40.6 128.4 40.6Z" fill="#0272B0"/>
</svg>
