<svg width="199" height="151" viewBox="0 0 199 151" fill="none" xmlns="http://www.w3.org/2000/svg">
<path d="M195.5 125.5C193.9 119.5 192.3 114.7 192.1 114.3C191.9 113.7 191.3 113.4 190.7 113.4C190.1 113.5 189.4 113.5 188.8 113.5C183.2 113.5 177.4 111.5 172.3 107.3C174 105.4 175.5 103.2 176.8 100.7C177 100.7 177.2 100.7 177.4 100.7C178.1 100.7 179.1 100.6 179.9 100.2C180.8 99.8 181.6 99 181.9 97.6L182.9 93.7C183 93.4 183 93.1 183 92.8C183 92 182.7 91.2 182.2 90.6C181.7 90.1 181.1 89.8 180.3 89.7C180.5 88.5 180.6 87.3 180.6 86.1C180.6 80.8 178.5 76.5 175.4 73.5C172.3 70.5 168 68.9 163.7 68.9C157.8 68.9 152.7 71.9 149.6 76.4C147.6 79.4 146.8 82.5 146.8 85.6C146.8 86.9 146.9 88.2 147.2 89.5C146.4 89.6 145.8 89.9 145.3 90.4C144.8 91 144.5 91.7 144.5 92.5C144.5 92.8 144.6 93.2 144.7 93.6L145.7 97.5C146 98.9 146.9 99.7 147.8 100.1C148.7 100.5 149.7 100.5 150.4 100.5C150.6 100.5 150.7 100.5 150.9 100.5C152.1 102.9 153.5 105.1 155.2 106.9C150.4 110.9 144.6 113.2 138.4 113.2C137.8 113.2 137.2 113.2 136.6 113.1C136 113.1 135.5 113.4 135.2 114C135.1 114.4 133.4 119.2 131.8 125.2C130.2 131.2 128.6 138.5 128.6 144.1C128.6 146.1 128.8 147.9 129.3 149.4C129.5 149.9 130 150.3 130.6 150.3C178.3 150.3 164.3 150.3 196.4 150.3C197 150.3 197.5 149.9 197.7 149.4C198.2 148 198.4 146.3 198.4 144.3C198.7 138.8 197.1 131.5 195.5 125.5ZM171.3 147.8H166C165.9 147.7 165.9 147.6 165.8 147.5C171.2 137.2 173.8 123.8 174.8 112.4C176.6 113.5 178.8 114.4 181.2 115.1C181.2 115.9 181.3 116.8 181.3 117.6C181.3 119.5 181.2 121.4 180.9 123.3L176.1 123.9C175.3 124 174.9 124.6 174.9 125.3C174.9 125.6 175 126 175.3 126.3L179.4 130.2C177.4 137.4 174 143.6 171.3 147.8ZM195.6 147.8H174.6C177.3 143.4 180.5 137.2 182.4 130C182.4 129.9 182.4 129.8 182.4 129.7C182.4 129.4 182.3 129 182 128.7L179.4 126.2L182.3 125.9C182.9 125.8 183.3 125.3 183.5 124.7C183.9 122.3 184.1 119.9 184.1 117.5C184.1 116.9 184.1 116.2 184 115.6C185.6 115.9 187.2 116.1 189 116.1C189.3 116.1 189.6 116.1 189.9 116.1C190.5 118 192 122.6 193.3 127.8C194.7 133.3 195.9 139.5 195.9 144.2C195.9 145.6 195.8 146.8 195.6 147.8ZM157.3 109C159.3 110.6 161.5 111.6 163.9 111.6C166.2 111.6 168.4 110.6 170.3 109.1C170.9 109.5 171.4 110 172.1 110.5C172 111.4 171.9 112.2 171.9 113.2C171.6 113.8 171.6 113.9 171.4 114.3C171.2 114.7 170.8 115.5 169.8 117.3C168.8 115.6 167.8 114.4 166.8 113.7C165.7 112.8 164.6 112.5 163.6 112.5C162.7 112.5 161.8 112.8 161.1 113.3C159.7 114.3 158.4 115.9 157.6 117.4L156.1 114.5C156 113.6 155.9 112.4 155.9 111.2C155.9 110.8 155.9 110.4 155.9 110.1C156.5 109.8 156.9 109.4 157.3 109ZM162.4 115.9C162.7 115.6 163.1 115.5 163.2 115.5H163.3C163.4 115.5 163.5 115.5 163.6 115.5C163.7 115.5 163.8 115.5 163.9 115.5H164.1C164.2 115.5 164.2 115.5 164.3 115.5C164.8 115.6 165.5 116.2 165.9 116.7L165.6 118.5H162L161.7 116.5C161.9 116.3 162.1 116.1 162.4 115.9ZM157.6 121.8H157.8C158 121.8 158.3 121.7 158.5 121.6C158.8 121.4 159 121.1 159.2 120.6C159.3 120.4 159.5 120.1 159.7 119.7L159.8 120V120.1C159.8 120.3 159.9 120.5 160 120.7C160.1 120.8 160.1 120.8 160.2 120.9L159.6 131.6C158.6 128.5 157.8 125.1 157.1 121.7C157.2 121.7 157.4 121.8 157.6 121.8ZM168.1 120.1C168.3 120.4 168.4 120.7 168.5 120.9C168.7 121.4 169.2 121.8 169.8 121.8C170.2 121.8 170.7 121.6 171 121.1L171.1 121C170.5 124.9 169.6 129.2 168.4 133.4L167.7 120.9C167.8 120.7 168 120.5 168.1 120.1ZM149.7 85.9C149.7 82.8 150.5 80.2 152.1 77.9C154.7 74.1 158.9 71.6 163.9 71.6C169.2 71.6 174.2 74.6 176.6 79.6C176.3 79.3 175.8 79 175.3 79H175.1C174.7 79 174.3 79.2 174.1 79.6C174 79.8 172.3 81.8 168.4 81.8C165.8 81.8 162.2 80.9 157.4 77.8C157 77.6 156.5 77.4 155.8 77.4C154.7 77.4 153.2 77.9 152.1 79.5C151 81.1 150.2 83.6 150.2 87.7H150C149.8 87.1 149.7 86.5 149.7 85.9ZM151.7 90C152 89.9 152.2 89.8 152.4 89.5C152.6 89.3 152.7 89 152.7 88.7V88.6C152.7 88.4 152.7 88.2 152.7 88C152.7 86.4 152.9 84.3 153.3 82.7C153.5 81.9 153.8 81.2 154.2 80.8C154.6 80.3 155 80.1 155.5 80.1C155.6 80.1 155.8 80.1 156 80.2C161.2 83.5 165.2 84.5 168.3 84.5C171.6 84.5 173.8 83.3 175 82.3C175.1 82.6 175.2 83.1 175.2 83.6C175.3 84.4 175.4 85.4 175.4 86.4C175.4 87 175.4 87.5 175.3 88.1V88.2C175.3 88.5 175.4 88.8 175.6 89.1C175.9 89.4 176.3 89.6 176.7 89.7C177 89.8 177.3 89.8 177.6 89.9C176.8 93.7 175.1 98.4 172.7 102.2C171.5 104.1 170.1 105.8 168.6 107C167.1 108.2 165.5 108.9 163.9 108.9H163.8C162.2 108.9 160.6 108.2 159.2 107C154.9 103.6 151.5 96 150.3 90.3C150.8 90.3 151.2 90.2 151.7 90ZM162.8 121.3H164.9L166 140C165.5 141.6 165 142.8 164.3 144.2C163.4 142.4 162.5 140.5 161.8 138.2L162.8 121.3ZM180 92.3H180.1C180.2 92.3 180.3 92.4 180.4 92.4V92.6C180.4 92.7 180.4 92.8 180.4 93L179.4 96.9C179.3 97.1 179.2 97.4 179 97.6C178.8 97.8 178.5 97.9 178.3 97.9H178.2C178.8 96 179.5 94.1 180 92.3ZM149.2 97.7C149 97.6 148.9 97.5 148.8 97.4C148.6 97.1 148.5 96.7 148.3 96C148.1 95.3 147.9 94.3 147.6 93V92.7C147.6 92.6 147.6 92.5 147.7 92.4C147.7 92.4 147.8 92.3 147.9 92.3H148.1C148.6 94.1 149.2 96 150 97.9C149.5 97.8 149.3 97.8 149.2 97.7ZM131.8 147.9C131.6 146.9 131.5 145.7 131.5 144.3C131.5 139.6 132.8 133.4 134.2 127.9C135.5 122.7 137 118.1 137.7 116.2C138.1 116.2 138.5 116.2 138.8 116.2C141.3 116.2 143.6 115.8 145.8 115.2C145.7 116.4 145.7 117.7 145.7 119.2C145.7 120.9 145.8 122.7 145.9 124.6C145.9 124.9 146.1 125.3 146.3 125.5C146.5 125.7 146.8 125.9 147.1 125.9L150.2 126.3L147 129.4C146.7 129.7 146.5 130.1 146.5 130.5C147.5 137 149.5 142.8 152.2 147.8H131.8V147.9ZM162.5 147.8H155.2C152.3 143 150.3 137.2 149.2 130.7L154 126.2C154.3 125.9 154.4 125.6 154.4 125.2C154.4 124.5 153.9 123.9 153.2 123.8L148.3 123.2C148.2 121.9 148.2 120.7 148.2 119.5C148.2 117.5 148.3 115.7 148.4 114.2C150.2 113.5 151.8 112.7 153.2 111.9C153.3 119.9 155.6 132.1 162.7 147.3C162.6 147.5 162.6 147.6 162.5 147.8Z" fill="#014BE4"/>
<path d="M130.4 61.9V73.4C130.4 73.8 130.5 74.1 130.8 74.4C131 74.7 131.4 74.8 131.8 74.8C132.2 74.8 132.5 74.7 132.8 74.4C133.1 74.2 133.2 73.8 133.2 73.4V63.3H143.4C143.8 63.3 144.1 63.2 144.4 62.9C144.7 62.7 144.8 62.3 144.8 61.9C144.8 61.5 144.7 61.2 144.4 60.9C144.2 60.6 143.8 60.5 143.4 60.5H131.9C131.5 60.6 131.1 60.7 130.9 61C130.5 61.2 130.4 61.6 130.4 61.9Z" fill="#014BE4"/>
<path d="M184.2 63.3H194.4V73.5C194.4 73.9 194.5 74.2 194.8 74.5C195 74.8 195.4 74.9 195.8 74.9C196.2 74.9 196.5 74.8 196.8 74.5C197.1 74.3 197.2 73.9 197.2 73.5V61.9C197.2 61.5 197.1 61.2 196.8 60.9C196.6 60.6 196.2 60.5 195.8 60.5H184.3C183.9 60.5 183.6 60.6 183.3 60.9C183.1 61.1 182.9 61.5 182.9 61.9V62.1C182.9 62.5 183.1 62.8 183.3 63C183.6 63.2 183.9 63.3 184.2 63.3Z" fill="#014BE4"/>
<path d="M195.7 95.3C195.3 95.3 195 95.4 194.7 95.7C194.4 95.9 194.3 96.3 194.3 96.7V106.9H184.1C183.7 106.9 183.4 107 183.1 107.3C182.8 107.5 182.7 107.9 182.7 108.3C182.8 108.6 183 108.9 183.2 109.1C183.5 109.3 183.8 109.4 184.1 109.4H195.6C196 109.4 196.3 109.3 196.6 109C196.9 108.8 197 108.4 197 108V96.7C197 96.3 196.9 96 196.6 95.7C196.5 95.5 196.1 95.3 195.7 95.3Z" fill="#014BE4"/>
<path d="M132.6 95.7C132.4 95.5 132 95.4 131.7 95.4C131.3 95.4 131 95.5 130.7 95.8C130.4 96 130.3 96.4 130.3 96.8V108.3C130.3 108.7 130.4 109 130.7 109.3C130.9 109.6 131.3 109.7 131.7 109.7H143.2C143.6 109.7 143.9 109.6 144.2 109.3C144.5 109.1 144.6 108.7 144.6 108.3C144.6 107.9 144.5 107.6 144.2 107.3C144 107 143.6 106.9 143.2 106.9H133V96.6C133 96.2 132.9 95.9 132.6 95.7Z" fill="#014BE4"/>
<path d="M131.7 21.4V12.2C131.7 11.4 131 10.7 130.2 10.7H71.5V5.6C71.5 2.5 68.9 0 65.9 0C62.8 0 60.3 2.6 60.3 5.6V10.7H1.5C0.7 10.7 0 11.4 0 12.2V21.5C0 22.3 0.7 23 1.5 23H9.4V85.9C9.4 86.7 10.1 87.4 10.9 87.4H120.8C121.6 87.4 122.3 86.7 122.3 85.9V22.9H130.2C131 22.9 131.7 22.2 131.7 21.4ZM119.4 84.3H12.4V22.8H119.4V84.3ZM65.9 2.9C67.4 2.9 68.6 4.1 68.6 5.6V10.7H63.2V5.6C63.2 4.1 64.4 2.9 65.9 2.9ZM128.8 20H3V13.6H128.9L128.8 20Z" fill="#014BE4"/>
<path d="M86.3 76.9C86.6 77.2 86.9 77.4 87.3 77.3H95C95.8 77.3 96.5 76.6 96.5 75.8V36.7C96.5 35.9 95.8 35.2 95 35.2H87.3C86.5 35.2 85.8 35.9 85.8 36.7V75.9C85.9 76.3 86 76.7 86.3 76.9ZM88.8 38.2H93.6V74.5H88.8V38.2Z" fill="#014BE4"/>
<path d="M73.2 41.6V76C73.2 76.8 73.9 77.5 74.7 77.5H82.4C83.2 77.5 83.9 76.8 83.9 76V41.6C83.9 40.8 83.2 40.1 82.4 40.1H74.7C73.9 40.1 73.2 40.8 73.2 41.6ZM80.9 74.5H76.1V43H80.9V74.5Z" fill="#014BE4"/>
<path d="M69.7 44.8H62C61.2 44.8 60.5 45.5 60.5 46.3V76C60.5 76.8 61.2 77.5 62 77.5H69.7C70.5 77.5 71.2 76.8 71.2 76V46.3C71.2 45.5 70.5 44.8 69.7 44.8ZM68.3 74.5H63.5V47.8H68.3V74.5Z" fill="#014BE4"/>
<path d="M57.1 51.4H49.4C48.6 51.4 47.9 52.1 47.9 52.9V76C47.9 76.8 48.6 77.5 49.4 77.5H57.1C57.9 77.5 58.6 76.8 58.6 76V52.9C58.6 52.1 57.9 51.4 57.1 51.4ZM55.6 74.5H50.8V54.3H55.6V74.5Z" fill="#014BE4"/>
<path d="M36.8 77.4H44.5C45.3 77.4 46 76.7 46 75.9V59.8C46 59 45.3 58.3 44.5 58.3H36.8C36 58.3 35.3 59 35.3 59.8V76C35.3 76.4 35.5 76.7 35.7 77C36 77.2 36.4 77.4 36.8 77.4ZM38.2 61.2H43V74.5H38.2V61.2Z" fill="#014BE4"/>
<path d="M35.5 53.3C35.5 53.4 35.5 53.4 35.5 53.3C35.6 53.6 35.8 53.9 36 54C36.2 54.2 36.5 54.2 36.8 54.2L37.1 54.1C37.7 53.9 44.4 51.4 52.7 47.3C60.8 43.3 70.3 37.7 77.2 31V33.8C77.2 34.6 77.9 35.3 78.7 35.3C79.5 35.3 80.2 34.6 80.2 33.8V27.8C80.3 27.6 80.3 27.4 80.3 27.2C80.3 26.8 80.1 26.4 79.8 26.2C79.5 26 79.2 25.8 78.9 25.8C78.7 25.8 78.4 25.9 78.2 26H72.6C71.8 26 71.2 26.6 71.2 27.4V27.6C71.2 28 71.4 28.3 71.7 28.6C72 28.8 72.3 29 72.7 29H75.4C68.8 35.5 59.3 41 51.3 45C47.2 47 43.5 48.7 40.8 49.8C39.4 50.4 38.3 50.8 37.6 51.1C37.2 51.3 36.9 51.4 36.7 51.5C36.6 51.5 36.5 51.6 36.4 51.6L36.3 51.7C36 51.8 35.8 52 35.6 52.2C35.4 52.5 35.3 52.7 35.3 53C35.4 53.1 35.5 53.2 35.5 53.3Z" fill="#014BE4"/>
<path d="M73 100.1L72.9 99.9C71.8 96.2 68.3 93.3 64.2 93.3C61.7 93.3 59.4 94.3 57.8 95.9C56.2 97.5 55.2 99.8 55.2 102.3C55.2 104.8 56.2 107.1 57.8 108.7C59.4 110.3 61.7 111.3 64.2 111.3C66.7 111.3 69 110.3 70.6 108.7C72.2 107.1 73.2 104.8 73.2 102.3C73.2 101.6 73.1 100.8 72.9 100.2V100.1H73ZM70.4 102.3C70.4 104 69.7 105.5 68.6 106.6C67.5 107.7 66 108.4 64.3 108.4H64.2C61.3 108.4 58.8 106.2 58.4 103.3C58.7 103.3 59.1 103.4 59.4 103.4C61.7 103.4 64 102.4 65.6 100.8C66.9 101.6 68.5 102 70.1 102C70.2 102 70.3 102 70.4 102C70.4 102.1 70.4 102.2 70.4 102.3ZM64.2 96.2C66.4 96.2 68.3 97.3 69.4 99.1C68.1 99 67.1 98.5 66.1 97.8C65.8 97.6 65.5 97.5 65.1 97.5C64.7 97.5 64.3 97.8 64.1 98.1C63 99.6 61.2 100.6 59.3 100.6C59 100.6 58.8 100.6 58.5 100.5C59.3 98 61.6 96.2 64.2 96.2Z" fill="#014BE4"/>
<path d="M108.9 108.8C110.5 107.2 111.5 104.9 111.5 102.4C111.5 99.9 110.5 97.6 108.9 96C107.3 94.4 105 93.4 102.5 93.4C100 93.4 97.7 94.4 96.1 96C94.5 97.6 93.5 99.9 93.5 102.4C93.5 104.9 94.5 107.2 96.1 108.8C97.7 110.4 100 111.4 102.5 111.4C105 111.4 107.3 110.4 108.9 108.8ZM102.5 96.2C104.7 96.2 106.6 97.3 107.7 99.1C106.5 99 105.3 98.5 104.4 97.8C104.1 97.6 103.8 97.5 103.4 97.5C103 97.5 102.6 97.8 102.4 98.1C101.3 99.6 99.5 100.6 97.6 100.6C97.3 100.6 97.1 100.6 96.8 100.5C97.6 98 99.8 96.2 102.5 96.2ZM97.5 103.4C99.8 103.4 102.1 102.4 103.7 100.8C105 101.6 106.6 102 108.2 102C108.3 102 108.4 102 108.5 102C108.5 102.1 108.5 102.3 108.5 102.4C108.5 104.1 107.8 105.6 106.7 106.7C105.6 107.8 104.1 108.5 102.4 108.5C99.4 108.5 96.9 106.2 96.4 103.3C96.8 103.4 97.1 103.4 97.5 103.4Z" fill="#014BE4"/>
<path d="M108.5 112H96.9C91.6 112 87.4 116.3 87.4 121.5V126.5C87.4 127.3 88.1 128 88.9 128C89.7 128 90.4 127.3 90.4 126.5V121.5C90.4 119.7 91.1 118 92.4 116.8C93.6 115.6 95.3 114.8 97.1 114.8H108.8C110.6 114.8 112.3 115.5 113.5 116.8C114.7 118 115.5 119.7 115.5 121.5V126.5C115.5 127.3 116.2 128 117 128C117.8 128 118.5 127.3 118.5 126.5V121.5C118.1 116.3 113.8 112 108.5 112Z" fill="#014BE4"/>
<path d="M70.3 112H58.7C53.4 112 49.2 116.3 49.2 121.5V126.5C49.2 127.3 49.9 128 50.7 128C51.5 128 52.2 127.3 52.2 126.5V121.5C52.2 119.7 52.9 118 54.2 116.8C55.4 115.6 57.1 114.8 58.9 114.8H70.6C72.4 114.8 74.1 115.5 75.3 116.8C76.5 118 77.3 119.7 77.3 121.5V126.5C77.3 127.3 78 128 78.8 128C79.6 128 80.3 127.3 80.3 126.5V121.5C79.9 116.3 75.6 112 70.3 112Z" fill="#014BE4"/>
<path d="M35.2 108.8C36.8 107.2 37.8 104.9 37.8 102.4C37.8 99.9 36.8 97.6 35.2 96C33.6 94.4 31.3 93.4 28.8 93.4C26.3 93.4 24 94.4 22.4 96C20.8 97.6 19.8 99.9 19.8 102.4C19.8 104.9 20.8 107.2 22.4 108.8C24 110.4 26.3 111.4 28.8 111.4C31.3 111.4 33.6 110.4 35.2 108.8ZM28.8 96.2C31 96.2 32.9 97.3 34 99.1C32.8 99 31.6 98.5 30.7 97.8C30.4 97.6 30.1 97.5 29.7 97.5C29.3 97.5 28.9 97.8 28.7 98.1C27.6 99.6 25.8 100.6 23.9 100.6C23.6 100.6 23.4 100.6 23.1 100.5C23.8 98 26.1 96.2 28.8 96.2ZM23.9 103.4C26.3 103.4 28.5 102.4 30.1 100.8C31.4 101.6 33 102 34.6 102C34.7 102 34.8 102 34.9 102C34.9 102.1 34.9 102.3 34.9 102.4C34.9 104.1 34.2 105.6 33.1 106.7C32 107.8 30.5 108.5 28.8 108.5C25.8 108.5 23.3 106.2 22.8 103.3C23.2 103.4 23.5 103.4 23.9 103.4Z" fill="#014BE4"/>
<path d="M34.9 112H23.3C18 112 13.8 116.3 13.8 121.5V126.5C13.8 127.3 14.5 128 15.3 128C16.1 128 16.8 127.3 16.8 126.5V121.5C16.8 119.7 17.5 118 18.8 116.8C20 115.6 21.7 114.8 23.5 114.8H35C36.8 114.8 38.5 115.5 39.7 116.8C40.9 118 41.7 119.7 41.7 121.5V126.5C41.7 127.3 42.4 128 43.2 128C44 128 44.7 127.3 44.7 126.5V121.5C44.5 116.3 40.2 112 34.9 112Z" fill="#014BE4"/>
</svg>
