<svg width="179" height="164" viewBox="0 0 179 164" fill="none" xmlns="http://www.w3.org/2000/svg">
<path d="M164.824 89.823C165.107 89.5402 165.485 89.1632 165.769 88.8805C172.951 81.7172 177.582 72.1977 178.716 61.6414C178.906 60.0391 179 58.4368 179 56.646C178.811 31.4805 158.397 11.0276 133.447 11.0276C119.648 11.0276 107.362 17.154 99.0454 26.7678C92.2408 34.6851 87.9879 45.0529 87.9879 56.4575C87.9879 69.2759 93.3749 80.9632 101.975 89.2575C102.448 89.7287 102.826 90.1057 103.298 90.577C110.481 98.023 113.694 106.977 113.694 118.287C113.694 129.315 109.441 139.4 102.542 146.846C102.07 145.715 101.408 144.584 100.747 143.641C100.274 142.793 99.6125 142.228 98.9509 141.379C98.2893 140.72 97.5333 140.06 96.8717 139.4C93.7529 137.138 89.878 135.63 85.8142 135.63H81.2777C80.8052 135.441 80.1436 135.63 79.8601 136.101C79.8601 136.101 79.8601 136.101 79.6711 136.29L79.4821 136.478C79.4821 136.478 79.4821 136.478 79.4821 136.667L77.2138 141.379L73.8115 148.166L70.4092 141.379L68.141 136.667C68.141 136.478 67.952 136.384 67.8575 136.195C67.8575 136.195 67.8574 136.195 67.6684 136.195L67.4794 136.007C67.4794 136.007 67.2904 136.007 67.2904 135.818H67.1014C66.9124 135.818 66.9124 135.818 66.8178 135.818H61.9979C61.8089 135.818 61.5253 135.818 61.1473 135.818C52.8305 136.29 45.9314 142.322 44.1357 150.051C35.2519 142.228 29.4868 130.917 29.4868 118.099C29.4868 107.543 33.3617 98.023 39.6938 90.4828C47.4435 81.5287 58.8791 75.8736 71.6378 75.8736C72.5829 75.8736 73.2445 75.2138 73.2445 74.2713C73.2445 74.0828 73.2445 73.8 73.0554 73.6115C72.7719 72.9517 72.2049 72.669 71.6378 72.669H34.7793L38.4652 68.3333C39.1267 67.6736 38.9377 66.5425 38.2761 66.0713C37.6146 65.4115 36.4805 65.6 36.0079 66.2598L29.9593 73.423C29.4868 74.0828 29.4868 74.8368 29.9593 75.4966L36.0079 82.6598C36.6695 83.3195 37.6146 83.508 38.2761 82.8483C38.9377 82.1885 39.1267 81.246 38.4652 80.5862L34.7793 76.0621H54.2482C47.4435 78.7954 41.3949 83.2253 36.764 88.5977C29.7703 96.892 25.6119 107.26 25.6119 118.57C25.6119 133.179 32.4166 146.186 43.0961 154.575C50.9403 160.418 60.4857 164 71.0708 164C83.3569 164 94.6035 159.099 102.826 150.993C111.426 142.699 116.813 131.2 116.624 118.382C116.624 106.694 113.222 96.9862 105.945 88.9747V87.6552C105.945 79.5494 112.466 72.7632 120.404 72.3862H125.13L127.115 76.2506L132.029 86.1471C132.313 86.6184 132.88 87.0897 133.447 87.0897C134.108 87.0897 134.581 86.8069 134.864 86.1471L139.779 76.2506L141.763 72.3862H145.827C150.08 72.3862 153.766 74.177 156.696 76.9103C159.437 79.6437 161.232 83.6023 161.232 87.7494V88.5977C153.766 94.9126 144.221 98.777 133.636 98.777C132.691 98.777 132.029 99.4368 132.029 100.379C132.029 101.322 132.691 101.982 133.636 101.982H170.494L166.808 106.317C166.147 106.977 166.336 108.108 166.997 108.579C167.659 109.239 168.793 109.051 169.266 108.391L175.314 101.228C175.787 100.568 175.787 99.8138 175.314 99.154L169.266 91.9908C168.604 91.331 167.659 91.1425 166.997 91.8023C166.336 92.4621 166.147 93.4046 166.808 94.0644L170.494 98.5885H150.553C155.562 96.6092 160.287 93.6874 164.162 90.2C164.351 90.3885 164.54 90.0115 164.824 89.823ZM83.924 159.005C79.6711 160.136 75.5127 160.795 71.2598 160.795C61.9979 160.795 53.3976 157.685 46.4039 152.69C47.2545 145.432 53.2086 139.683 60.6748 139.211H65.4002L67.3849 142.982L72.2994 152.69C72.5829 153.161 73.1499 153.632 73.717 153.632C74.3786 153.632 74.8511 153.349 75.1346 152.69L79.9546 142.982L81.9393 139.211H85.8142C92.4298 139.211 98.1003 143.547 100.085 149.579C95.5486 153.821 90.0671 157.025 83.924 159.005ZM145.733 69.2759H140.818C140.535 69.2759 140.157 69.2759 139.873 69.4644C139.684 69.4644 139.684 69.6529 139.59 69.6529C139.401 69.8414 139.401 69.8414 139.306 69.9356L136.849 74.6483L133.447 81.623L130.044 74.6483L127.776 69.9356C127.776 69.7471 127.587 69.6529 127.493 69.4644C127.493 69.4644 127.493 69.4644 127.304 69.4644C127.304 69.4644 127.115 69.2759 127.02 69.2759C127.02 69.2759 126.831 69.2759 126.831 69.0874H126.642C126.453 69.0874 126.453 69.0874 126.359 69.0874H121.35C121.161 69.0874 120.877 69.0874 120.499 69.0874H120.31C111.426 69.7471 103.96 76.9103 102.92 85.7701C95.6431 78.1356 91.2012 67.9563 91.2012 56.5517C91.2012 45.9954 95.076 36.2874 101.408 28.9356C109.158 19.9816 120.593 14.3264 133.352 14.3264C145.071 14.3264 155.562 19.0391 163.217 26.6736C170.872 34.308 175.503 44.8644 175.503 56.5517C175.503 67.7678 171.156 77.9471 163.973 85.5816C163.028 76.4391 155.278 69.2759 145.733 69.2759Z" fill="#0272B0"/>
<path d="M56.3274 115.366C56.3274 124.979 64.0771 132.52 73.528 132.52C83.0734 132.52 90.7286 124.885 90.7286 115.366C90.7286 110.653 88.7439 106.317 85.7196 103.207C82.6954 100.097 78.2534 98.2115 73.528 98.2115C68.8025 98.2115 64.4551 100.191 61.3363 103.207C58.2175 106.223 56.3274 110.653 56.3274 115.366ZM73.528 101.416C81.2777 101.416 87.5153 107.543 87.5153 115.366C87.5153 119.23 85.9087 122.623 83.4514 125.262C80.8997 127.901 77.4029 129.315 73.528 129.315C69.6531 129.315 66.2508 127.713 63.6045 125.262C61.0528 122.623 59.5407 119.23 59.5407 115.366C59.5407 111.501 61.1473 108.108 63.6045 105.469C66.1563 103.018 69.5586 101.416 73.528 101.416Z" fill="#0272B0"/>
<path d="M133.541 27.8989C128.816 27.8989 124.468 29.8782 121.35 32.8943C118.231 35.9103 116.341 40.3402 116.341 45.0529C116.341 54.4782 124.09 62.2069 133.541 62.2069C142.992 62.2069 150.742 54.3839 150.742 45.0529C150.742 35.5333 143.087 27.8989 133.541 27.8989ZM143.465 54.8552C140.913 57.4943 137.416 58.908 133.541 58.908C129.666 58.908 126.264 57.3057 123.618 54.8552C121.066 52.2161 119.554 48.823 119.554 44.9586C119.554 41.0943 121.161 37.7011 123.618 35.0621C126.169 32.423 129.666 31.0092 133.541 31.0092C137.416 31.0092 140.818 32.6115 143.465 35.0621C146.016 37.7011 147.529 41.0943 147.529 44.9586C147.529 48.823 146.016 52.4046 143.465 54.8552Z" fill="#0272B0"/>
<path d="M53.5866 58.531C53.8701 58.7195 54.2482 58.8138 54.5317 58.8138C54.8152 58.8138 55.0042 58.8138 55.1932 58.6253C55.6658 58.3425 56.0438 57.777 56.0438 57.3057V57.1172L53.8701 42.7908H63.132C63.9826 42.7908 64.5496 42.131 64.5496 41.377V1.41379C64.5496 0.565517 63.8881 0 63.132 0H1.41763C0.661563 0 0 0.65977 0 1.41379V41.1885C0 42.0368 0.661563 42.6023 1.41763 42.6023H34.4958L53.5866 58.531ZM2.92978 2.92184H61.6199V39.5862H52.169C51.6964 39.5862 51.3184 39.7747 51.0349 40.0575C50.8458 40.3402 50.7513 40.7172 50.7513 41L50.5623 41.2828L52.4525 53.7241L36.1969 40.0575C35.9134 39.869 35.5354 39.7747 35.2519 39.7747H2.92978V2.92184Z" fill="#0272B0"/>
<path d="M24.8559 17.8138H51.9799C52.8305 17.8138 53.3976 17.154 53.3976 16.4C53.3976 15.5517 52.736 14.9862 51.9799 14.9862H24.8559C24.0053 14.9862 23.4382 15.646 23.4382 16.4C23.3437 17.0598 24.0053 17.8138 24.8559 17.8138Z" fill="#0272B0"/>
<path d="M12.4752 17.8138H19.2798C20.1304 17.8138 20.6975 17.154 20.6975 16.4C20.6975 15.5517 20.0359 14.9862 19.2798 14.9862H12.4752C11.6246 14.9862 11.0576 15.646 11.0576 16.4C11.0576 17.0598 11.7191 17.8138 12.4752 17.8138Z" fill="#0272B0"/>
<path d="M41.0169 22.5264C41.0169 21.6782 40.3553 21.1126 39.5993 21.1126H12.4752C11.6246 21.1126 11.0576 21.7724 11.0576 22.5264C11.0576 23.3747 11.7191 23.9402 12.4752 23.9402H39.5993C40.3553 24.0345 41.0169 23.3747 41.0169 22.5264Z" fill="#0272B0"/>
<path d="M52.0744 20.9241H45.2698C44.4192 20.9241 43.8522 21.5839 43.8522 22.3379C43.8522 23.1862 44.5137 23.7517 45.2698 23.7517H52.0744C52.925 23.7517 53.4921 23.092 53.4921 22.3379C53.5866 21.7724 52.925 20.9241 52.0744 20.9241Z" fill="#0272B0"/>
<path d="M162.555 134.97L153.294 133.651L149.041 125.168C148.379 124.037 146.583 124.037 145.922 125.168L141.669 133.651L132.407 134.97C130.989 135.159 130.422 136.949 131.462 137.892L138.078 144.395L136.471 153.632C136.282 155.046 137.794 156.083 138.928 155.423L147.245 151.087L155.562 155.423C156.885 156.083 158.303 155.14 158.019 153.632L156.412 144.395L163.028 137.892C164.54 136.949 163.879 135.159 162.555 134.97ZM153.672 142.605C153.388 142.887 153.01 143.547 153.199 144.018L154.333 150.71L148.285 147.506C147.812 147.223 147.15 147.223 146.678 147.506L140.629 150.71L141.763 144.018C141.952 143.547 141.574 142.887 141.291 142.605L136.376 137.892L143.181 136.949C143.654 136.949 144.126 136.478 144.504 136.007L147.623 129.88L150.742 136.007C151.025 136.478 151.403 136.855 152.065 136.949L158.87 137.892L153.672 142.605Z" fill="#0272B0"/>
</svg>
