<svg width="195" height="124" viewBox="0 0 195 124" fill="none" xmlns="http://www.w3.org/2000/svg">
<path d="M178.2 18.9789C180.8 18.9789 183.1 17.9789 184.8 16.2789C186.5 14.5789 187.5 12.2789 187.5 9.67891C187.5 7.07891 186.5 4.77891 184.8 3.07891C183.1 1.37891 180.8 0.378906 178.2 0.378906C175.6 0.378906 173.3 1.37891 171.6 3.07891C169.9 4.77891 168.9 7.07891 168.9 9.67891C168.9 12.2789 169.9 14.5789 171.6 16.2789C173.3 17.8789 175.6 18.9789 178.2 18.9789ZM178.1 3.17891C180.4 3.17891 182.4 4.47891 183.5 6.27891C182.3 6.17891 181 5.67891 180.1 4.87891C179.9 4.77891 179.8 4.67891 179.6 4.57891C179.4 4.57891 179.2 4.57891 179.1 4.57891H178.9C178.7 4.67891 178.4 4.87891 178.1 5.07891C176.9 6.77891 175 7.67891 173 7.67891C172.7 7.67891 172.4 7.67891 172.2 7.67891C172.9 5.07891 175.3 3.17891 178.1 3.17891ZM172.8 10.6789C175.3 10.6789 177.7 9.67891 179.5 8.07891C181 8.87891 182.7 9.27891 184.4 9.27891C184.5 9.27891 184.5 9.27891 184.6 9.27891C184.6 9.37891 184.6 9.47891 184.6 9.57891C184.6 11.3789 183.9 12.9789 182.7 14.1789C181.5 15.3789 179.9 16.0789 178.2 16.0789C174.9 16.0789 172.3 13.7789 171.8 10.6789C172.1 10.6789 172.5 10.6789 172.8 10.6789Z" fill="#014BE4"/>
<path d="M191.5 22.5789C189.7 20.7789 187.3 19.6789 184.5 19.6789H172.4C169.7 19.6789 167.2 20.7789 165.4 22.5789C163.6 24.3789 162.5 26.8789 162.5 29.5789V34.7789C162.5 35.5789 163.1 36.1789 163.9 36.1789C164.7 36.1789 165.3 35.5789 165.3 34.7789V29.5789C165.3 27.6789 166.1 25.9789 167.3 24.6789C168.6 23.3789 170.3 22.6789 172.2 22.6789H184.3C186.2 22.6789 187.9 23.4789 189.2 24.6789C190.5 25.9789 191.2 27.6789 191.2 29.5789V34.7789C191.2 35.5789 191.8 36.1789 192.6 36.1789C193 36.1789 193.4 35.9789 193.7 35.7789C194 35.4789 194.2 35.1789 194.2 34.7789V29.5789C194.4 26.8789 193.3 24.3789 191.5 22.5789Z" fill="#014BE4"/>
<path d="M187.4 55.4789C187.4 52.8789 186.4 50.5789 184.7 48.8789C183 47.1789 180.7 46.1789 178.1 46.1789C175.5 46.1789 173.2 47.1789 171.5 48.8789C169.8 50.5789 168.8 52.8789 168.8 55.4789C168.8 58.0789 169.8 60.3789 171.5 62.0789C173.2 63.7789 175.5 64.7789 178.1 64.7789C183.3 64.7789 187.4 60.4789 187.4 55.4789ZM178.1 48.8789C180.4 48.8789 182.4 50.1789 183.5 51.9789C182.3 51.8789 181 51.3789 180.1 50.5789C179.9 50.4789 179.8 50.3789 179.6 50.2789C179.4 50.2789 179.2 50.2789 179.1 50.2789H178.9C178.7 50.3789 178.4 50.5789 178.1 50.7789C176.9 52.3789 175 53.3789 173 53.3789C172.7 53.3789 172.4 53.3789 172.2 53.3789C172.9 50.7789 175.3 48.9789 178.1 48.8789ZM172.7 56.3789C175.1 56.3789 177.6 55.3789 179.5 53.7789C181 54.5789 182.7 54.9789 184.4 54.9789C184.5 54.9789 184.5 54.9789 184.6 54.9789C184.6 55.0789 184.6 55.1789 184.6 55.2789C184.6 57.0789 183.9 58.6789 182.7 59.8789C181.5 61.0789 179.9 61.7789 178.2 61.7789C174.9 61.7789 172.3 59.4789 171.8 56.3789C172.1 56.3789 172.4 56.3789 172.7 56.3789Z" fill="#014BE4"/>
<path d="M184.5 65.4789H172.4C169.7 65.4789 167.2 66.5789 165.4 68.3789C163.6 70.1789 162.5 72.6789 162.5 75.3789V80.5789C162.5 81.3789 163.1 81.9789 163.9 81.9789C164.7 81.9789 165.3 81.3789 165.3 80.5789V75.3789C165.3 73.4789 166.1 71.7789 167.3 70.4789C168.6 69.1789 170.3 68.4789 172.2 68.4789H184.3C186.2 68.4789 187.9 69.2789 189.2 70.4789C190.5 71.7789 191.2 73.4789 191.2 75.3789V80.5789C191.2 81.3789 191.8 81.9789 192.6 81.9789C193 81.9789 193.4 81.7789 193.7 81.5789C194 81.2789 194.2 80.9789 194.2 80.5789V75.3789C194.2 72.5789 193.1 70.1789 191.3 68.3789C189.7 66.5789 187.2 65.4789 184.5 65.4789Z" fill="#014BE4"/>
<path d="M184.5 107.079H172.4C169.7 107.079 167.2 108.179 165.4 109.979C163.6 111.779 162.5 114.279 162.5 116.979V122.179C162.5 122.979 163.1 123.579 163.9 123.579C164.7 123.579 165.3 122.979 165.3 122.179V116.979C165.3 115.079 166.1 113.379 167.3 112.079C168.6 110.779 170.3 110.079 172.2 110.079H184.3C186.2 110.079 187.9 110.879 189.2 112.079C190.5 113.379 191.2 115.079 191.2 116.979V122.179C191.2 122.979 191.8 123.579 192.6 123.579C193 123.579 193.4 123.379 193.7 123.179C194 122.879 194.2 122.579 194.2 122.179V116.979C194.2 114.179 193.1 111.779 191.3 109.979C189.7 108.179 187.2 107.079 184.5 107.079Z" fill="#014BE4"/>
<path d="M184.7 103.679C186.4 101.979 187.4 99.6789 187.4 97.0789C187.4 94.4789 186.4 92.1789 184.7 90.4789C183 88.7789 180.7 87.7789 178.1 87.7789C175.5 87.7789 173.2 88.7789 171.5 90.4789C169.8 92.1789 168.8 94.4789 168.8 97.0789C168.8 99.6789 169.8 101.979 171.5 103.679C173.2 105.379 175.5 106.379 178.1 106.379C180.7 106.379 183.1 105.379 184.7 103.679ZM178.1 90.4789C180.4 90.4789 182.4 91.7789 183.5 93.5789C182.3 93.4789 181.1 93.0789 180.1 92.1789C179.9 92.0789 179.8 91.9789 179.6 91.8789C179.4 91.8789 179.2 91.8789 179.1 91.8789H178.9C178.7 91.9789 178.4 92.1789 178.1 92.3789C176.9 94.0789 175 94.9789 173 94.9789C172.7 94.9789 172.4 94.9789 172.2 94.9789C172.9 92.3789 175.3 90.5789 178.1 90.4789ZM173 98.0789C175.5 98.0789 177.9 97.0789 179.6 95.3789C181.1 96.1789 182.8 96.5789 184.5 96.5789C184.6 96.5789 184.6 96.5789 184.7 96.5789C184.7 96.6789 184.7 96.7789 184.7 96.8789C184.7 98.6789 184 100.279 182.8 101.479C181.6 102.679 180 103.379 178.3 103.379C175 103.379 172.4 101.079 171.9 97.9789C172.2 97.9789 172.5 98.0789 173 98.0789Z" fill="#014BE4"/>
<path d="M157.7 29.9789C158.5 29.9789 159.1 29.3789 159.1 28.5789C159.1 28.1789 158.9 27.7789 158.7 27.5789C158.4 27.2789 158.1 27.0789 157.7 26.9789H141.4C140.6 26.9789 140 27.5789 140 28.3789L139.6 66.0789H123.6C122.8 66.0789 122.2 66.6789 122.2 67.4789C122.2 68.2789 122.8 68.8789 123.6 68.8789H139.5L139.1 105.579C139.1 105.979 139.3 106.379 139.6 106.679C139.9 106.979 140.2 107.179 140.7 107.179H157.3C158.1 107.179 158.7 106.579 158.7 105.779C158.7 104.979 158.1 104.379 157.3 104.379H142.1L142.5 68.9789H149.1C149.9 68.9789 150.5 68.3789 150.5 67.5789C150.5 66.7789 149.9 66.1789 149.1 66.1789H142.5L142.9 30.1789L157.7 29.9789Z" fill="#014BE4"/>
<path d="M111.9 70.6789L82.6 58.9789C82.3 58.7789 82 58.5789 81.6 58.5789C81.6 58.5789 81.6 58.5789 81.5 58.5789C81.3 58.5789 81.1 58.4789 80.9 58.4789C80.5 58.4789 80.1 58.5789 79.8 58.8789L66.7 70.7789L54.6 59.0789C54.3 58.7789 53.9 58.5789 53.5 58.5789C53.3 58.5789 53.2 58.5789 53 58.6789C52.8 58.6789 52.7 58.5789 52.5 58.5789C52 58.5789 51.6 58.7789 51.3 59.0789C51.2 59.1789 51.2 59.2789 51.1 59.3789L22.4 70.7789C21.8 71.0789 21.3 71.6789 21.3 72.3789V104.879C21.3 105.379 21.5 105.779 21.7 106.079C22 106.379 22.4 106.679 22.9 106.679H111.2C111.7 106.679 112.1 106.479 112.4 106.179C112.7 105.879 112.9 105.579 113 105.179V72.2789C113 71.8789 112.9 71.4789 112.7 71.2789C112.5 70.9789 112.2 70.7789 111.9 70.6789ZM69.7 84.5789H64.4V77.7789H69.7V84.5789ZM64 87.9789H70L72.9 103.079H60.4L64 87.9789ZM79.9 74.2789H72.1C71.9 74.1789 71.7 74.1789 71.5 74.1789H68.2L79.9 63.5789V74.2789ZM62.7 74.1789C62.5 74.1789 62.3 74.1789 62.1 74.2789H54.1V63.6789L65 74.1789H62.7ZM51.3 77.1789C51.6 77.4789 52 77.7789 52.5 77.7789H61V85.5789C61 85.6789 60.9 85.7789 60.9 85.8789L56.8 103.179H39.5V84.4789C39.5 83.9789 39.3 83.5789 39.1 83.2789C38.8 82.9789 38.4 82.6789 37.9 82.6789C37.4 82.6789 37 82.8789 36.7 83.1789C36.4 83.4789 36.2 83.9789 36.2 84.4789V103.279H24.7V73.5789L50.9 63.1789V75.9789C50.8 76.3789 51 76.8789 51.3 77.1789ZM97.3 83.1789C97 82.8789 96.6 82.6789 96.1 82.6789C95.6 82.6789 95.2 82.8789 94.9 83.1789C94.6 83.4789 94.4 83.9789 94.4 84.4789V103.179H76.3L73.1 86.4789C73.1 86.3789 73.1 86.2789 73.1 86.1789V77.6789H81.6C82 77.6789 82.4 77.5789 82.7 77.2789C83 76.9789 83.2 76.5789 83.2 76.1789V63.1789L109.4 73.5789V103.279H97.8V84.4789C97.8 83.9789 97.6 83.4789 97.3 83.1789Z" fill="#014BE4"/>
<path d="M67.4 54.5789C80.4 54.5789 91 43.9789 91 31.0789V30.8789C91 24.2789 88.4 18.3789 84.1 14.0789C79.8 9.77891 73.9 7.17891 67.4 7.17891C60.9 7.17891 55 9.77891 50.7 14.0789C46.4 18.3789 43.8 24.2789 43.8 30.8789C43.8 43.7789 54.3 54.5789 67.4 54.5789ZM67.4 10.5789C69.6 10.5789 71.8 10.9789 73.8 11.5789C73.6 14.6789 71.8 17.5789 68.8 19.6789C68.7 19.6789 68.7 19.7789 68.6 19.7789C65.4 21.9789 61 23.3789 56.1 23.3789C53.6 23.3789 51.3 23.0789 49.1 22.3789C50.1 20.1789 51.5 18.0789 53.2 16.3789C56.8 12.8789 61.8 10.5789 67.4 10.5789ZM87.5 30.5789V30.7789C87.5 36.3789 85.2 41.3789 81.6 45.0789C78 48.7789 72.9 50.9789 67.4 50.9789C61.9 50.9789 56.8 48.6789 53.2 45.0789C49.6 41.3789 47.3 36.3789 47.3 30.7789C47.3 29.0789 47.5 27.3789 47.9 25.8789C50.5 26.6789 53.1 27.0789 55.9 27.0789C61.1 27.0789 65.9 25.6789 69.6 23.2789C73.6 25.8789 78.7 27.3789 84 27.3789C85.1 27.3789 86.2 27.2789 87.2 27.1789C87.4 28.3789 87.5 29.4789 87.5 30.5789ZM84.1 23.9789C79.9 23.9789 75.8 22.9789 72.6 21.0789C75 18.8789 76.6 16.0789 77 13.0789C78.7 13.9789 80.3 15.1789 81.6 16.4789C83.7 18.5789 85.3 21.0789 86.3 23.8789C85.5 23.8789 84.8 23.9789 84.1 23.9789Z" fill="#014BE4"/>
<path d="M1.7 115.579H132.4C132.9 115.579 133.3 115.379 133.5 114.979C133.8 114.679 133.9 114.179 133.9 113.779C133.9 113.279 133.7 112.879 133.5 112.579C133.2 112.279 132.8 111.979 132.3 111.979H1.7C1.2 111.979 0.8 112.179 0.5 112.479C0.2 112.879 0 113.279 0 113.779C0 114.279 0.2 114.679 0.4 114.979C0.7 115.379 1.2 115.579 1.7 115.579Z" fill="#014BE4"/>
<path d="M133.9 120.879C133.9 120.479 133.7 120.079 133.5 119.679C133.2 119.379 132.8 119.079 132.3 119.079H1.7C1.2 119.079 0.8 119.279 0.5 119.579C0.2 119.879 0 120.379 0 120.879C0 121.379 0.2 121.779 0.4 122.079C0.7 122.379 1.1 122.679 1.6 122.679H132.3C132.7 122.679 133.1 122.479 133.4 122.179C133.7 121.879 133.9 121.479 133.9 121.079V120.879Z" fill="#014BE4"/>
<path d="M13.5 25.7789H19.5V48.1789H22.7V24.2789C22.7 23.3789 21.9 22.6789 21.1 22.6789H18.1L25.7 16.5789L33.2 22.7789H30.2C29.4 22.7789 28.7 23.3789 28.7 24.2789V56.4789H31.9L32 25.8789H38C38.8 25.8789 39.5 25.1789 39.5 24.3789C39.5 23.7789 39.1 23.4789 38.8 23.0789L26.7 13.2789C26.1 12.7789 25.3 12.7789 24.7 13.2789L12.6 23.0789C11.9 23.6789 11.8 24.5789 12.4 25.2789C12.6 25.5789 13 25.7789 13.5 25.7789Z" fill="#014BE4"/>
<path d="M94.5 15.2789H100.5V37.6789H103.7V13.7789C103.7 12.8789 103 12.0789 102.1 12.0789H99.1L106.7 5.97891L116.4 12.9789L109.6 12.8789V45.8789H112.8V15.2789H118.8C119.6 15.2789 120.3 14.5789 120.3 13.7789C120.3 13.1789 120.1 12.6789 119.6 12.4789L107.7 2.67891C107.1 2.17891 106.3 2.17891 105.7 2.67891L93.6 12.4789C92.9 13.0789 92.8 13.9789 93.4 14.6789C93.6 15.0789 94 15.2789 94.5 15.2789Z" fill="#014BE4"/>
</svg>
