<svg width="196" height="150" viewBox="0 0 196 150" fill="none" xmlns="http://www.w3.org/2000/svg">
<g clip-path="url(#clip0_3320_4181)">
<path d="M54.8517 67.3276C51.2237 62.4138 45.2634 59.2241 38.6984 59.2241C32.1333 59.2241 26.173 62.5 22.545 67.3276C22.4586 67.4138 22.3722 67.5 22.1995 67.7586C19.8671 70.9483 18.485 75 18.485 79.3103C18.485 90.431 27.5551 99.3966 38.6984 99.3966C49.8416 99.3966 58.9117 90.431 58.9117 79.3103C58.9117 75 57.5296 71.0345 55.1109 67.6724C55.0245 67.5 54.9381 67.4138 54.8517 67.3276ZM32.2197 62.931C31.0968 64.4828 30.1466 66.2931 29.3691 68.4483C28.1598 68.1034 26.8641 67.8448 25.5683 67.5C27.3824 65.6034 29.6283 63.9655 32.2197 62.931ZM23.9271 69.7414C25.5683 70.2586 27.0368 70.6897 28.6781 70.9483C28.1598 73.1034 27.9006 75.431 27.7279 77.931H21.1629C21.422 74.9138 22.2858 72.1552 23.9271 69.7414ZM23.6679 88.4483C22.2858 86.1207 21.3356 83.3621 21.1629 80.6034H27.7279C27.8143 82.931 28.0734 85.1724 28.5053 87.1552C26.8641 87.4138 25.3092 87.931 23.6679 88.4483ZM25.3092 90.6034C26.6049 90.1724 27.987 89.9138 29.2828 89.569C29.9738 91.8966 31.0104 93.8793 32.2197 95.431C29.5419 94.3965 27.2096 92.7586 25.3092 90.6034ZM37.4026 96.5517C35.1567 95.7759 33.1699 93.0172 31.7878 89.1379C33.6882 88.7931 35.5886 88.6207 37.4026 88.6207V96.5517ZM37.4026 86.1207C35.2431 86.2069 33.2563 86.2931 31.0968 86.7241C30.6649 84.7414 30.4921 82.6724 30.4057 80.5172H37.4026V86.1207ZM30.4057 78.0172C30.4921 75.6897 30.8376 73.4483 31.3559 71.5517C33.4291 71.7241 35.4158 71.9828 37.489 72.069V78.0172H30.4057ZM37.4026 69.4828C35.5022 69.3103 33.6882 69.2241 31.9606 68.9655C33.2563 65.3448 35.2431 62.7586 37.3162 61.9828V69.4828H37.4026ZM51.8284 67.5C50.619 67.931 49.3233 68.1897 48.0276 68.4483C47.3365 66.2931 46.2999 64.3966 45.177 62.931C47.7684 63.9655 50.0144 65.6034 51.8284 67.5ZM39.9941 61.9828C42.24 62.6724 44.1404 65.3448 45.5225 68.9655C43.6221 69.3103 41.8945 69.4828 39.9941 69.4828V61.9828ZM39.9941 72.069C42.0672 71.9828 44.1404 71.8966 46.2136 71.4655C46.7318 73.4483 46.991 75.6034 47.1638 77.931H40.0805V72.069H39.9941ZM39.9941 80.431H47.0774C46.991 82.5862 46.7318 84.6552 46.2999 86.4655C44.1404 86.2931 42.0672 86.0345 39.9941 85.9483V80.431ZM39.9941 96.5517V88.7069C41.8081 88.7931 43.7949 88.8793 45.6089 89.2241C44.3132 93.0172 42.24 95.6897 39.9941 96.5517ZM45.177 95.5172C46.3863 93.8793 47.4229 91.8966 48.114 89.569C49.4097 89.9138 50.7918 90.1724 52.0875 90.6034C50.2735 92.7586 47.8548 94.3966 45.177 95.5172ZM53.6424 88.4483C52.0011 87.931 50.3599 87.5 48.805 87.1552C49.3233 85.1724 49.4961 82.931 49.5824 80.6034H56.1474C56.0611 83.3621 55.1972 86.1207 53.6424 88.4483ZM49.6688 77.8448V77.931C49.5824 75.431 49.2369 73.1034 48.7186 70.9483C50.3599 70.6034 51.8284 70.1724 53.4696 69.6552C55.0245 72.069 55.9747 74.9138 56.2338 77.8448H49.6688Z" fill="#014BE4"/>
<path d="M193.322 132.586C189.175 123.879 180.192 122.759 178.378 122.672L167.407 116.207V107.845C173.108 106.897 180.105 102.931 180.192 92.6724V88.1034H180.796C184.424 88.1034 187.361 85.0862 187.361 81.4655V72.7586C187.361 72.2414 187.275 71.8103 187.188 71.3793C187.275 71.2931 187.275 71.2069 187.361 71.1207C188.139 69.3103 188.571 61.7241 187.448 53.5345C186.238 44.6552 175.354 36.7241 167.666 36.7241H151.945V24.2241H161.188C161.792 24.2241 162.311 23.6207 162.311 23.0172V12.931C162.311 12.2414 161.706 11.7241 161.101 11.7241H96.1422V5.77586C96.1422 2.67241 93.4643 0 90.3546 0C87.2449 0 84.567 2.58621 84.567 5.77586V11.7241H19.608C18.917 11.7241 18.3987 12.3276 18.3987 12.931V23.0172C18.3987 23.7069 19.0033 24.2241 19.608 24.2241H28.7645V41.0345H31.0968V24.2241H149.612V29.4828C149.612 29.3103 149.526 29.2241 149.44 29.0517C149.008 28.6207 148.317 28.5345 147.798 28.9655C147.712 29.0517 147.366 29.1379 147.194 29.3103C146.244 29.7414 144.948 30.431 144.43 32.2414C143.998 33.5345 144.084 35.5172 144.17 36.8103C137.519 36.8966 133.459 37.5 126.894 43.8793C119.811 50.8621 119.811 60.5172 119.811 65.1724C119.811 68.4483 120.502 70.0862 121.106 70.9483C120.934 71.5517 120.847 72.1552 120.847 72.7586V81.5517C120.847 85.1724 123.784 88.1034 127.412 88.1034H129.831V92.1552H75.7561C75.9289 91.9828 76.1016 91.8103 76.188 91.5517L77.3973 86.9828C77.3973 86.4655 77.0518 85.7759 76.4471 85.6034L67.6362 81.7241C67.7226 80.3448 67.7226 78.8793 67.6362 77.5L76.4471 73.6207C77.0518 73.2759 77.3973 72.6724 77.1382 72.069L75.7561 66.8103C75.5833 66.2069 74.9787 65.7759 74.374 65.8621L64.6992 66.9828C64.0946 65.6897 63.4035 64.4828 62.5397 63.2759L68.3273 55.5172C68.7592 55 68.6728 54.3103 68.2409 53.7931L64.4401 50C64.0082 49.569 63.3171 49.4828 62.7125 49.9138L55.0245 55.6034C53.8151 54.8276 52.6058 54.0517 51.2237 53.4483L52.3467 43.8793C52.433 43.2759 52.0011 42.6724 51.3965 42.5L46.1272 41.1207C45.5225 40.9483 44.9178 41.2069 44.5723 41.8103L40.6851 50.7759C39.303 50.6897 37.8345 50.6897 36.4524 50.7759L32.5653 41.8965C32.2197 41.2931 31.6151 40.9483 31.0104 41.2069L25.7411 42.5862C25.1364 42.7586 24.7045 43.2759 24.7909 43.9655L25.9139 53.5345C24.6181 54.1379 23.4088 54.8276 22.1131 55.6897L14.2523 49.9138C13.734 49.4828 13.043 49.569 12.5247 50L8.63753 53.8793C8.20562 54.3103 8.11924 55 8.55115 55.6034L14.3387 63.3621C13.5613 64.569 12.7839 65.7759 12.1792 67.069L2.67719 66.0345C2.07252 65.9483 1.46785 66.3793 1.29509 66.9828L0.0857448 71.4655C-0.0870186 72.069 0.172126 72.6724 0.776798 73.0172L9.58773 76.7241C9.50135 78.1034 9.50135 79.569 9.58773 80.9483L0.86318 84.9138C0.258508 85.2586 -0.0870186 85.8621 0.172126 86.4655L1.55423 91.7241C1.727 92.3276 2.24529 92.7586 2.93634 92.6724L12.6111 91.5517C13.2158 92.8448 13.9068 94.0517 14.7706 95.2586L8.98306 103.017C8.55115 103.534 8.63753 104.224 9.06944 104.741L12.9566 108.621C13.4749 109.052 14.166 109.138 14.6842 108.707L22.545 102.931C23.6679 103.707 24.9637 104.483 26.3458 105.086L25.1364 114.655C25.05 115.259 25.482 115.862 26.0866 116.034L31.3559 117.414C31.4423 117.414 31.5287 117.414 31.7014 117.414C32.2197 117.414 32.738 117.069 32.9108 116.638L36.798 107.845C38.1801 107.931 39.6486 107.931 41.0307 107.845L44.9178 116.638C45.2634 117.241 45.868 117.586 46.4727 117.328L51.742 115.948C52.3467 115.776 52.7786 115.259 52.6922 114.569L51.5692 105C52.8649 104.397 54.0743 103.707 55.37 102.845L63.2307 108.621C63.749 109.052 64.4401 108.966 64.9584 108.534L68.8456 104.655C69.2775 104.224 69.3638 103.534 68.9319 102.931L63.1444 95.1724C63.9218 93.9655 64.6992 92.7586 65.3039 91.4655L74.9787 92.5862C75.2378 92.5862 75.4969 92.5862 75.6697 92.5V94.6552H78.5203V106.552L59.6027 125.259C59.43 125.431 59.2572 125.776 59.2572 126.034C59.2572 126.379 59.3436 126.638 59.6027 126.81L63.4035 130.517C63.8354 131.034 64.5265 131.034 65.0448 130.517L84.3943 111.293H97.0924L116.442 130.517C116.528 130.603 116.615 130.603 116.701 130.69C114.973 133.621 113.764 137.414 112.987 142.5C112.555 145.345 112.9 147.155 113.937 148.362C115.146 149.741 117.306 150 119.12 150H186.497C191.248 150 193.926 149.397 194.79 148.276C194.704 148.19 198.504 143.448 193.322 132.586ZM86.8993 5.77586C86.8993 3.87931 88.4542 2.32759 90.3546 2.32759C92.255 2.32759 93.8099 3.87931 93.8099 5.77586V11.7241H86.8993V5.77586ZM20.8173 21.8103V14.0517H159.978V21.8103H20.8173ZM73.8557 89.8276L64.4401 88.7069C63.8354 88.6207 63.3171 88.8793 63.1444 89.3965C62.4533 91.1207 61.4167 92.7586 60.2938 94.2241C59.9482 94.6552 59.9482 95.3448 60.2938 95.7759L65.995 103.362L63.749 105.69L56.0611 100.259C55.6292 99.9138 54.9381 99.9138 54.5062 100.259C52.9513 101.379 51.3965 102.241 49.6688 103.103C49.1505 103.276 48.8914 103.879 48.9778 104.397L50.0144 113.793L46.9046 114.569L43.1038 105.862C42.9311 105.345 42.4128 105.086 41.8945 105.086H41.8081C39.9077 105.259 37.9209 105.259 36.1069 105.086C35.5022 105.086 34.9839 105.259 34.8112 105.862L30.8376 114.655L27.7279 113.879L28.7645 104.483C28.8508 103.879 28.5917 103.362 27.987 103.19C26.2594 102.414 24.6181 101.466 23.1497 100.345C22.7177 100 22.0267 100 21.5948 100.345L13.9932 106.034L11.7473 103.707L17.4485 96.1207C17.794 95.6897 17.794 95 17.4485 94.569C16.3255 93.0172 15.3753 91.4655 14.5979 89.7414C14.4251 89.2241 13.9068 88.9655 13.3021 89.0517L3.88654 90.1724L3.1091 87.069L11.8337 83.3621C12.3519 83.1897 12.6111 82.6724 12.6111 82.069C12.4383 80.2586 12.4383 78.3621 12.6111 76.3793C12.6975 75.7759 12.2656 75.2586 11.8337 75.0862L2.93634 71.1207L3.54101 68.7069L12.9566 69.8276C13.5613 69.9138 14.0796 69.6552 14.2523 69.1379C15.0298 67.4138 15.98 65.7759 17.1029 64.3103C17.4485 63.8793 17.4485 63.1897 17.1029 62.7586L11.4881 55.1724L13.734 52.931L21.3356 58.6207C21.8539 58.9655 22.4586 58.9655 22.8905 58.6207C24.4454 57.5 26.0002 56.6379 27.7279 55.7759C28.2462 55.6034 28.5053 55 28.5053 54.4828L27.4687 44.7414L30.5785 43.9655L34.3793 52.6724C34.552 53.1897 35.0703 53.4483 35.675 53.4483C37.489 53.2759 39.4758 53.2759 41.3762 53.4483C41.9809 53.4483 42.4991 53.2759 42.6719 52.6724L46.5591 43.9655L49.6688 44.7414L48.5459 54.1379C48.4595 54.7414 48.7186 55.2586 49.3233 55.431C51.0509 56.2069 52.6922 57.1552 54.1607 58.2759C54.5926 58.6207 55.2836 58.6207 55.7155 58.2759L63.3171 52.5862L65.5631 54.8276L59.9482 62.4138C59.6027 62.8448 59.6027 63.5345 59.9482 63.9655C61.0712 65.5172 62.1078 67.2414 62.7988 68.7931C62.9716 69.3103 63.4899 69.569 64.0946 69.569L73.5102 68.4483L74.2876 71.5517L65.5631 75.2586C65.0448 75.431 64.7856 75.9483 64.7856 76.5517C64.9584 78.4483 64.9584 80.431 64.7856 82.2414C64.6992 82.8448 64.9584 83.3621 65.5631 83.5345L74.2876 87.2414L73.8557 89.8276ZM162.915 137.069C162.829 136.983 162.656 136.81 162.483 136.81L156.005 132.759L166.63 118.362L177.341 124.741L167.58 140L162.915 137.069ZM150.131 147.759L147.28 138.19L154.363 134.483L160.756 138.448L158.423 147.845H150.131V147.759ZM145.639 136.466C145.466 136.552 145.293 136.638 145.207 136.724L140.197 139.397L131.991 124.741C131.991 124.655 131.904 124.655 131.818 124.569L141.665 118.448L152.722 132.759L145.639 136.466ZM165.075 108.19V116.552L154.277 131.207L143.134 116.638V108.19H165.075ZM177.773 92.6724C177.773 105.517 165.766 105.948 164.47 105.948H142.616C137.433 105.948 132.077 101.466 132.077 93.1897V64.9138C132.077 60 134.15 59.569 137.433 58.9655C138.556 58.7931 139.592 58.5345 140.715 58.1897C143.047 57.5 144.516 55.8621 145.293 54.2241C147.021 57.5 150.822 59.1379 154.45 59.3103H166.025C174.49 59.3103 177.859 60.431 177.859 63.4483V92.6724H177.773ZM185.029 81.5517C185.029 83.8793 183.129 85.7759 180.796 85.7759H180.192V68.5345H180.796C183.129 68.5345 185.029 70.431 185.029 72.7586V81.5517ZM146.762 32.7586C147.107 31.9828 147.453 31.7241 148.317 31.3793C148.662 31.2069 149.008 31.0345 149.353 30.7759C149.526 30.6034 149.612 30.431 149.699 30.1724V36.8103H146.675C146.503 35.6034 146.416 33.7931 146.762 32.7586ZM121.97 65.1724C121.97 60.8621 121.97 51.8103 128.363 45.6034C134.668 39.3966 138.124 39.1379 145.38 39.1379H167.58C174.404 39.1379 184.165 46.2931 185.202 53.8793C186.152 60.0862 185.979 65.5172 185.72 68.3621C184.511 67.069 182.783 66.2931 180.883 66.2931H180.278V63.4483C180.278 57.5 172.935 56.9828 166.111 56.9828H154.536C150.649 56.9828 146.675 54.569 146.675 50C146.675 49.3966 146.157 48.8793 145.552 48.8793C144.948 48.7931 144.43 49.3103 144.343 49.9138C144.343 49.9138 143.825 54.7414 140.11 55.9483C139.074 56.2931 138.037 56.4655 137.173 56.6379C133.718 57.2414 129.831 57.931 129.831 64.8276V66.2069H127.412C125.426 66.2069 123.612 67.069 122.402 68.4483C122.143 67.7586 121.97 66.7241 121.97 65.1724ZM127.326 85.6897C124.994 85.6897 123.093 83.7931 123.093 81.4655V72.7586C123.093 70.431 124.994 68.5345 127.326 68.5345H129.745V85.6897H127.326ZM129.831 94.4828C130.349 102.414 135.446 107.069 140.715 107.931V116.293L130.436 122.672C129.399 122.845 125.512 123.448 122.057 125.345C121.97 125.259 121.97 125.172 121.884 125.086L102.448 105.776V94.4828H129.831ZM98.2153 109.397C98.0426 109.224 97.697 109.052 97.4379 109.052H83.7032C83.3577 109.052 83.0985 109.138 82.9258 109.397L64.0946 128.103L61.935 125.948L80.5071 107.759C80.6798 107.586 80.8526 107.241 80.8526 106.983V94.6552H100.202V106.379C100.202 106.724 100.288 106.983 100.548 107.155L119.379 125.948L117.219 128.103L98.2153 109.397ZM118.861 147.759C116.96 147.759 115.924 147.586 115.405 146.983C114.801 146.379 114.714 145.086 114.973 142.931C116.01 136.293 117.91 131.81 120.761 129.052C123.352 126.638 127.758 125.517 129.831 125.086C129.831 125.345 129.831 125.603 129.917 125.776L138.642 141.466C138.987 141.983 139.679 142.155 140.197 141.897L145.207 139.224L147.712 147.759H118.861ZM192.89 146.638C192.717 146.983 191.594 147.759 186.152 147.759H160.756L162.742 139.655L167.321 142.5C167.493 142.586 167.753 142.672 167.925 142.672C168.357 142.672 168.616 142.5 168.703 142.241L179.673 125.172V125.086C182.61 125.603 188.139 127.414 190.989 133.448C195.049 141.552 193.494 145.948 192.89 146.638Z" fill="#014BE4"/>
<path d="M147.971 70.6897C148.317 71.0345 148.576 71.1207 148.921 71.1207C149.094 71.1207 149.44 71.0345 149.699 70.9483C150.217 70.5172 150.217 69.8276 149.785 69.3103C148.058 67.4138 146.244 66.3793 144.084 66.2931C140.542 66.1207 137.778 68.7069 137.692 68.7931C137.26 69.2241 137.26 69.9138 137.692 70.431C138.124 70.8621 138.815 70.8621 139.333 70.431C139.333 70.3448 141.493 68.4483 143.998 68.5345C145.466 68.5345 146.762 69.2241 147.971 70.6897Z" fill="#014BE4"/>
<path d="M166.889 66.2069C163.347 66.0345 160.583 68.6207 160.497 68.7069C160.065 69.1379 160.065 69.8276 160.497 70.3448C160.928 70.7759 161.619 70.7759 162.138 70.3448C162.138 70.2586 164.297 68.3621 166.802 68.4483C168.184 68.5345 169.567 69.2241 170.776 70.6897C171.121 71.0345 171.381 71.1207 171.726 71.1207C172.072 71.1207 172.244 71.0345 172.504 70.9483C173.022 70.5172 173.022 69.8276 172.59 69.3103C170.862 67.3276 169.048 66.2931 166.889 66.2069Z" fill="#014BE4"/>
<path d="M143.825 72.5862C142.875 72.5862 142.184 73.2759 142.184 74.2241V77.6724C142.184 78.6207 142.875 79.3103 143.825 79.3103C144.775 79.3103 145.466 78.6207 145.466 77.6724V74.2241C145.466 73.2759 144.689 72.5862 143.825 72.5862Z" fill="#014BE4"/>
<path d="M166.457 72.5862C165.507 72.5862 164.816 73.2759 164.816 74.2241V77.6724C164.816 78.6207 165.507 79.3103 166.457 79.3103C167.407 79.3103 168.098 78.6207 168.098 77.6724V74.2241C168.098 73.2759 167.407 72.5862 166.457 72.5862Z" fill="#014BE4"/>
<path d="M161.619 91.5517C159.46 93.7931 157.387 94.9138 155.141 94.8276C151.513 94.6552 148.749 91.2069 148.749 91.2069C148.317 90.6897 147.626 90.6034 147.107 91.0345C146.589 91.4655 146.503 92.1552 146.935 92.6724C147.021 92.8448 150.303 96.9828 155.054 97.2414C155.141 97.2414 155.4 97.2414 155.486 97.2414C158.251 97.2414 160.842 95.9483 163.433 93.1897C163.865 92.6724 163.865 91.9828 163.347 91.5517C162.742 91.0345 161.965 91.0345 161.619 91.5517Z" fill="#014BE4"/>
<path d="M152.031 87.6724C152.636 87.7586 153.24 87.3276 153.327 86.7241C153.327 86.6379 153.759 84.569 155.227 84.569C156.609 84.569 156.868 86.4655 156.868 86.5517C156.868 87.1552 157.387 87.5862 157.991 87.5862C157.991 87.5862 158.078 87.5 158.337 87.5862C158.942 87.5862 159.46 86.9828 159.374 86.3793C159.201 85 158.251 82.2414 155.4 82.2414C152.636 82.2414 151.426 84.8276 151.167 86.2931C150.995 86.8965 151.426 87.5 152.031 87.6724Z" fill="#014BE4"/>
</g>
<defs>
<clipPath id="clip0_3320_4181">
<rect width="196" height="150" fill="white"/>
</clipPath>
</defs>
</svg>
