<svg width="193" height="132" viewBox="0 0 193 132" fill="none" xmlns="http://www.w3.org/2000/svg">
<path d="M191.3 108.8L173.1 101.6C172.9 101.3 172.5 101.1 172.1 101.1C172 101.1 171.9 101.1 171.8 101.2C171.7 101.2 171.7 101.2 171.6 101.2C171.3 101.2 171 101.3 170.7 101.6L162.6 108.9L155 101.7C154.7 101.4 154.4 101.3 154 101.3C153.9 101.3 153.8 101.3 153.7 101.3L153.5 101.2C153.1 101.2 152.7 101.4 152.5 101.7L134.2 108.9C133.7 109.1 133.3 109.6 133.3 110.1V130.7C133.4 131 133.5 131.3 133.8 131.5C134.1 131.7 134.4 131.9 134.8 131.9H190.9C191.7 131.9 192.2 131.2 192.2 130.6V110C192.2 109.5 191.9 109 191.3 108.8ZM170.7 105V110.9H164L170.7 105ZM161.3 113.7H164.1V117.4H161.3V113.7ZM154.8 105.2L160.9 111H154.8V105.2ZM158.6 118.7L156 129.3H145.5V117.8C145.5 117 144.8 116.5 144.2 116.5C143.8 116.5 143.5 116.7 143.3 116.9C143.1 117.1 142.9 117.5 142.9 117.8V129.4H136.2V111L152.2 104.7V112.4C152.2 113.2 152.9 113.7 153.5 113.7H158.7V118.7H158.6ZM158.8 129.3L161 120.3H164.4L166.1 129.3H158.8ZM182.7 129.3V117.7C182.7 116.9 182 116.4 181.4 116.4C181 116.4 180.7 116.6 180.5 116.8C180.3 117 180.1 117.4 180.1 117.7V129.2H169L167 118.6V113.7H172.1C172.9 113.7 173.4 113 173.4 112.4V104.7L189.5 111V129.3H182.7Z" fill="#0272B0"/>
<path d="M148.6 78.7C148.6 78.8 148.6 78.8 148.6 78.9V79C148.1 80.5 147.8 82.2 147.8 83.9V84.1C147.8 92.3 154.6 99 163 99C171.4 99 178.3 92.1 178.3 83.7C178.3 82.4 178.1 81.2 177.9 80.1V80C176.2 73.4 170.2 68.6 163.1 68.6C156.3 68.5 150.6 72.8 148.6 78.7ZM175.5 83.8C175.5 87.2 174.1 90.4 171.8 92.7C169.5 95 166.4 96.4 162.9 96.4C159.5 96.4 156.3 95 154 92.7C151.7 90.4 150.3 87.3 150.3 83.8C150.3 82.7 150.4 81.8 150.6 81C152.2 81.4 153.8 81.7 155.5 81.7C158.8 81.7 161.9 80.8 164.2 79.4C166.7 81.1 169.9 82 173.4 82C174.1 82 174.6 81.9 175.3 81.9C175.5 82.4 175.5 83.1 175.5 83.8ZM174.6 79.1C174.2 79.1 173.9 79.1 173.5 79.1C171 79.1 168.6 78.5 166.6 77.4C167.9 76.1 168.8 74.5 169.2 72.7C171.7 74.3 173.6 76.5 174.6 79.1ZM163 71.1C164.2 71.1 165.5 71.3 166.7 71.7C166.5 73.5 165.5 75.1 163.8 76.4H163.6C161.6 77.8 158.7 78.8 155.5 78.8C154.1 78.8 152.8 78.6 151.4 78.3C153.6 74.1 158 71.1 163 71.1Z" fill="#0272B0"/>
<path d="M20.6 81.6L14.5 80.7L11.8 75.2C11.4 74.5 10.2 74.5 9.80004 75.2L7.10004 80.7L1.00004 81.6C0.10004 81.7 -0.29996 82.9 0.40004 83.5L4.80004 87.8L3.70004 93.8C3.50004 94.7 4.50004 95.4 5.30004 95L10.7 92.1L16.1 95C16.9 95.5 17.9 94.7 17.7 93.8L16.6 87.8L21 83.5C21.9 82.8 21.5 81.7 20.6 81.6ZM14.8 86.6C14.5 86.9 14.4 87.2 14.4 87.6L15.1 92L11.1 89.9C10.7 89.7 10.4 89.7 10 89.9L6.40004 92L7.10004 87.6C7.20004 87.2 7.00004 86.9 6.70004 86.6L3.50004 83.4L7.90004 82.8C8.30004 82.7 8.60004 82.5 8.70004 82.2L10.7 78.1L12.7 82.2C12.9 82.6 13.2 82.7 13.5 82.8L17.9 83.4L14.8 86.6Z" fill="#0272B0"/>
<path d="M20.6 106.8L14.5 105.9L11.8 100.4C11.4 99.7 10.2 99.7 9.80004 100.4L7.10004 105.9L1.00004 106.8C0.10004 106.9 -0.29996 108.1 0.40004 108.7L4.80004 113L3.70004 119C3.50004 119.9 4.50004 120.6 5.30004 120.2L10.7 117.3L16.1 120.2C16.9 120.7 17.9 119.9 17.7 119L16.6 113L21 108.7C21.9 108.1 21.5 107 20.6 106.8ZM14.8 111.9C14.5 112.2 14.4 112.5 14.4 112.9L15.1 117.3L11.1 115.2C10.7 115 10.4 115 10 115.2L6.20004 117.3L6.90004 112.9C7.00004 112.5 6.80004 112.2 6.50004 111.9L3.30004 108.7L7.70004 108.1C8.10004 108 8.40004 107.8 8.50004 107.5L10.5 103.4L12.5 107.5C12.7 107.9 13 108 13.3 108.1L17.7 108.7L14.8 111.9Z" fill="#0272B0"/>
<path d="M20.6 55.8L14.5 54.9L11.8 49.4C11.4 48.7 10.2 48.7 9.80004 49.4L7.10004 54.9L1.00004 55.8C3.98159e-05 55.9 -0.29996 57 0.30004 57.7L4.70004 62L3.60004 68C3.40004 68.9 4.40004 69.6 5.20004 69.2L10.6 66.3L16 69.2C16.8 69.7 17.8 68.9 17.6 68L16.5 62L20.9 57.7C21.9 57 21.5 56 20.6 55.8ZM14.8 60.8C14.5 61.1 14.4 61.4 14.4 61.8L15.1 66.2L11.1 64.1C10.7 63.9 10.4 63.9 10 64.1L6.20004 66.2L6.90004 61.8C7.00004 61.4 6.80004 61.1 6.50004 60.8L3.30004 57.6L8.00004 57C8.40004 56.9 8.70004 56.7 8.80004 56.4L10.8 52.3L12.8 56.4C13 56.8 13.3 56.9 13.6 57L18.1 57.6L14.8 60.8Z" fill="#0272B0"/>
<path d="M143.2 95.7V56.5H144.5C144.9 56.5 145.3 56.4 145.5 56.1C145.8 55.8 145.9 55.5 145.9 55.1V46.6H153.5C154.3 46.6 154.9 46 154.9 45.2C154.9 44.6 154.6 44.1 154.1 43.9L92 0.3C91.8 0.1 91.5 0 91.2 0C90.9 0 90.6 0.1 90.4 0.3L28.1 43.9C27.8 44.2 27.5 44.6 27.5 45C27.5 45.2 27.5 45.3 27.6 45.5C27.8 46.1 28.3 46.5 28.9 46.5H36.5V55C36.5 55.4 36.7 55.8 37 56C37.3 56.3 37.6 56.4 38 56.4H39.4V103.7H38C37.6 103.7 37.2 103.9 37 104.2C36.7 104.5 36.6 104.8 36.6 105.2V113.7H29.3C28.9 113.7 28.6 113.9 28.4 114.2C28.2 114.5 28.1 114.8 28.1 115.2V125.6C28.1 126 28.2 126.3 28.4 126.6C28.6 126.9 28.9 127.1 29.3 127.1H122.2C122.6 127.1 122.9 126.9 123.1 126.6C123.3 126.3 123.4 126 123.4 125.6V115.2C123.4 114.8 123.3 114.5 123.1 114.2C122.9 113.9 122.6 113.7 122.2 113.7H103V105.2C103 104.8 102.8 104.4 102.5 104.2C102.2 103.9 101.9 103.8 101.5 103.8H100.1V56.5H101.5C101.9 56.5 102.2 56.3 102.5 56.1C102.8 55.8 103 55.5 103 55.1V46.6H122.5V55.1C122.5 55.5 122.7 55.9 123 56.1C123.3 56.4 123.6 56.5 124 56.5H125.5V95.7C125.5 96.1 125.7 96.4 126 96.6C126.3 96.8 126.6 96.9 127 96.9H141.8C142.4 96.8 143 96.4 143.2 95.7ZM39.4 53.7V46.5H57.1V53.7H39.4ZM54.2 56.7V103.9H42.2V56.7H54.2ZM39.4 106.7H40.5C40.6 106.7 40.8 106.8 41 106.8H55.7C55.9 106.8 56 106.8 56.2 106.7H57.2V113.9H39.4V106.7ZM121 116.7V124.3H30.4V116.7H121ZM80 56.1C80.3 56.4 80.6 56.5 81 56.5H82.4V103.8H81C80.6 103.8 80.2 104 80 104.3C79.7 104.6 79.6 104.9 79.6 105.3V113.8H60V105.3C60 104.9 59.8 104.5 59.5 104.3C59.2 104 58.9 103.9 58.5 103.9H57.1V56.5H58.4C58.8 56.5 59.2 56.4 59.4 56.1C59.7 55.8 59.8 55.5 59.9 55.1V46.5H79.4V55C79.5 55.5 79.7 55.8 80 56.1ZM100.2 106.7V113.9H82.4V106.7H83.4C83.5 106.7 83.7 106.8 83.9 106.8H98.7C98.9 106.8 99 106.8 99.1 106.7H100.2ZM85.3 56.7H97.3V103.9H85.3V56.7ZM100.2 53.7H82.4V46.5H100.1V53.7H100.2ZM123.5 43.7H102C101.9 43.7 101.7 43.6 101.6 43.6H81C80.8 43.6 80.7 43.6 80.5 43.7H59C58.9 43.7 58.7 43.6 58.6 43.6H38C37.8 43.6 37.7 43.6 37.5 43.7H33.5L91.3 3.1L149.1 43.7H145C144.9 43.7 144.7 43.6 144.6 43.6H124C123.8 43.6 123.6 43.6 123.5 43.7ZM125.4 53.7V46.5H143.1V53.7H125.4ZM140.3 94.5H128.4V56.5H140.3V94.5Z" fill="#0272B0"/>
<path d="M91.3 17.6C88.5 17.6 85.9 18.6 84 20.3C82.1 22 81 24.3 81 26.9C81 29.5 82.2 31.8 84 33.5C85.9 35.2 88.4 36.2 91.3 36.2C94.2 36.2 96.7 35.2 98.6 33.5C100.5 31.8 101.6 29.5 101.6 26.9C101.6 24.3 100.4 22 98.6 20.3C96.7 18.6 94.1 17.6 91.3 17.6ZM96.5 31.5C95.2 32.7 93.3 33.5 91.2 33.5C89.1 33.5 87.3 32.7 85.9 31.5C84.6 30.3 83.7 28.7 83.7 26.9C83.7 25.1 84.5 23.5 85.9 22.3C87.2 21.1 89.1 20.3 91.2 20.3C93.3 20.3 95.1 21.1 96.5 22.3C97.8 23.5 98.7 25.1 98.7 26.9C98.7 28.6 97.9 30.3 96.5 31.5Z" fill="#0272B0"/>
</svg>
