<svg width="20" height="21" viewBox="0 0 20 21" fill="none" xmlns="http://www.w3.org/2000/svg">
<path d="M4.51941 0.996857C4.26445 1.00424 4.01391 1.06526 3.78411 1.17595C3.55431 1.28664 3.35041 1.44451 3.1857 1.63927L1.48193 3.58744C1.03967 4.17134 0.823855 4.89567 0.874421 5.62641C0.874421 8.07734 2.61313 11.7014 5.88802 14.9763C9.16292 18.2512 12.787 19.9968 15.2449 19.9968C15.972 20.0439 16.6915 19.8256 17.2699 19.3824L19.218 17.6786C19.4167 17.5164 19.5782 17.3133 19.6914 17.0832C19.8047 16.8531 19.8671 16.6013 19.8744 16.3449C19.8653 16.092 19.8041 15.8436 19.6948 15.6154C19.5855 15.3871 19.4303 15.1839 19.239 15.0182L16.5646 12.3368C16.4041 12.1422 16.2026 11.9855 15.9744 11.878C15.7462 11.7704 15.4971 11.7146 15.2449 11.7146C14.9926 11.7146 14.7435 11.7704 14.5154 11.878C14.2872 11.9855 14.0856 12.1422 13.9251 12.3368L12.8847 13.3772C12.6822 13.5658 12.5286 13.5867 12.347 13.475L7.38233 8.51726C7.20776 8.34269 7.34741 8.16113 7.45215 8.02148L8.52749 6.93915C8.72432 6.7801 8.88307 6.57903 8.99213 6.35068C9.10119 6.12233 9.15779 5.87248 9.15779 5.61942C9.15779 5.36636 9.10119 5.11651 8.99213 4.88816C8.88307 4.65981 8.72432 4.45874 8.52749 4.29968L5.84613 1.61832C5.67974 1.42891 5.476 1.27593 5.24769 1.16898C5.01938 1.06204 4.77143 1.00344 4.51941 0.996857ZM5.16182 2.30961L7.8362 4.99098C8.11551 5.2633 8.17836 5.35408 8.17836 5.62641C8.17836 5.89873 8.0806 6.00347 7.8362 6.24787L6.76087 7.33018C6.55893 7.54393 6.42102 7.81005 6.36284 8.09829C6.32712 8.27894 6.33176 8.46526 6.37642 8.64391C6.42108 8.82256 6.50468 8.98914 6.62121 9.13173L11.7395 14.2501C12.0364 14.4693 12.4079 14.5622 12.773 14.5084C13.0523 14.4466 13.3102 14.3117 13.5201 14.1174L14.6164 13.0281C14.8538 12.7837 14.9795 12.6859 15.2449 12.6859C15.5102 12.6859 15.601 12.7558 15.8803 13.0281L18.5547 15.7095C18.7443 15.862 18.867 16.0824 18.8968 16.3239C18.8968 16.708 18.8968 16.6801 18.5826 16.9384L16.6275 18.6492C16.2164 18.9253 15.7247 19.0556 15.2309 19.0193C13.2618 19.0193 9.70059 17.4202 6.55836 14.285C3.41613 11.1497 1.83804 7.58855 1.83804 5.62641C1.80235 5.13364 1.92997 4.64284 2.20115 4.22986L3.90493 2.28168C3.97711 2.18757 4.06875 2.11015 4.17359 2.05472C4.27844 1.99928 4.39402 1.96714 4.51243 1.96048C4.7655 1.98975 4.99782 2.11465 5.16182 2.30961Z" fill="white"/>
</svg>
