<svg width="31" height="31" viewBox="0 0 31 31" fill="none" xmlns="http://www.w3.org/2000/svg">
<path d="M19.5274 17.3695H18.5851L18.2511 17.0475C19.4201 15.6878 20.1238 13.9226 20.1238 12.0024C20.1238 7.7207 16.6527 4.25 12.3705 4.25C8.08829 4.25 4.61719 7.7207 4.61719 12.0024C4.61719 16.2842 8.08829 19.7549 12.3705 19.7549C14.2909 19.7549 16.0563 19.0512 17.4161 17.8824L17.7382 18.2163V19.1585L23.7023 25.11L25.4796 23.3329L19.5274 17.3695V17.3695ZM12.3705 17.3695C9.40039 17.3695 7.00282 14.9722 7.00282 12.0024C7.00282 9.03265 9.40039 6.63536 12.3705 6.63536C15.3406 6.63536 17.7382 9.03265 17.7382 12.0024C17.7382 14.9722 15.3406 17.3695 12.3705 17.3695Z" fill="white"/>
</svg>
