<svg width="39" height="39" viewBox="0 0 39 39" fill="none" xmlns="http://www.w3.org/2000/svg">
<path d="M0.600098 19.7996C0.600098 14.7075 2.62295 9.82386 6.22365 6.22316C9.82435 2.62246 14.7079 0.599609 19.8001 0.599609C24.8923 0.599609 29.7759 2.62246 33.3765 6.22316C36.9772 9.82386 39.0001 14.7075 39.0001 19.7996C39.0001 24.8918 36.9772 29.7754 33.3765 33.3761C29.7759 36.9768 24.8923 38.9996 19.8001 38.9996C14.7079 38.9996 9.82435 36.9768 6.22365 33.3761C2.62295 29.7754 0.600098 24.8918 0.600098 19.7996ZM18.6001 3.18441C16.9921 3.67401 15.3961 5.15241 14.0713 7.63641C13.7281 8.27961 13.4089 8.98041 13.1233 9.72921C14.8153 10.106 16.6561 10.346 18.6001 10.418V3.18441ZM10.7977 9.09321C11.1385 8.17161 11.5273 7.30761 11.9521 6.50601C12.3671 5.72134 12.8463 4.97238 13.3849 4.26681C11.3417 5.11353 9.4855 6.3548 7.9225 7.91961C8.7913 8.36121 9.7537 8.75721 10.7977 9.09561V9.09321ZM9.0217 18.5996C9.1081 16.0316 9.4729 13.5908 10.0681 11.3804C8.76898 10.9649 7.51151 10.429 6.3121 9.77961C4.40061 12.3461 3.26607 15.4073 3.0433 18.5996H9.0193H9.0217ZM12.3817 12.0212C11.8159 14.171 11.4939 16.3777 11.4217 18.5996H18.6001V12.818C16.4161 12.746 14.3209 12.47 12.3817 12.0212ZM21.0001 12.8156V18.5996H28.1761C28.1048 16.3778 27.7835 14.1711 27.2185 12.0212C25.2793 12.47 23.1841 12.7436 21.0001 12.818V12.8156ZM11.4241 20.9996C11.5081 23.3684 11.8465 25.5932 12.3817 27.578C14.4242 27.1145 16.5066 26.8485 18.6001 26.7836V20.9996H11.4241ZM21.0001 20.9996V26.7812C23.1841 26.8532 25.2793 27.1292 27.2185 27.578C27.7537 25.5932 28.0921 23.3684 28.1785 20.9996H21.0001ZM13.1233 29.87C13.4113 30.6188 13.7281 31.3196 14.0713 31.9628C15.3961 34.4468 16.9945 35.9228 18.6001 36.4148V29.1836C16.6561 29.2556 14.8153 29.4956 13.1233 29.8724V29.87ZM13.3873 35.3324C12.8478 34.6269 12.3678 33.878 11.9521 33.0932C11.5101 32.2567 11.1244 31.3916 10.7977 30.5036C9.81041 30.8209 8.84915 31.2141 7.9225 31.6796C9.4855 33.2444 11.3417 34.4857 13.3849 35.3324H13.3873ZM10.0681 28.2188C9.445 25.8601 9.09312 23.4381 9.0193 20.9996H3.0433C3.26594 24.1919 4.40049 27.2532 6.3121 29.8196C7.4401 29.2004 8.7001 28.6628 10.0681 28.2188ZM26.2153 35.3324C28.2575 34.4862 30.1128 33.2457 31.6753 31.682C30.7494 31.2166 29.789 30.8234 28.8025 30.506C28.4757 31.3931 28.09 32.2575 27.6481 33.0932C27.2332 33.8779 26.754 34.6269 26.2153 35.3324ZM21.0001 29.1812V36.4148C22.6081 35.9252 24.2041 34.4468 25.5289 31.9628C25.8721 31.3196 26.1913 30.6188 26.4769 29.87C24.676 29.4751 22.8428 29.2454 21.0001 29.1836V29.1812ZM29.5321 28.2188C30.9001 28.6628 32.1601 29.2004 33.2881 29.8196C35.1997 27.2532 36.3343 24.1919 36.5569 20.9996H30.5809C30.5071 23.4381 30.1552 25.8601 29.5321 28.2188ZM36.5569 18.5996C36.3343 15.4073 35.1997 12.346 33.2881 9.77961C32.1601 10.3988 30.9001 10.9364 29.5321 11.3804C30.1273 13.5884 30.4921 16.0316 30.5809 18.5996H36.5569ZM27.6481 6.50601C28.0729 7.30761 28.4617 8.17161 28.8049 9.09321C29.7906 8.7758 30.7502 8.38263 31.6753 7.91721C30.1126 6.35439 28.2572 5.11478 26.2153 4.26921C26.7385 4.94841 27.2185 5.70201 27.6481 6.50601ZM26.4769 9.72921C26.2042 9.01278 25.8876 8.31385 25.5289 7.63641C24.2041 5.15241 22.6081 3.67641 21.0001 3.18441V10.4156C22.9441 10.3436 24.7849 10.1036 26.4769 9.72681V9.72921Z" fill="white"/>
</svg>
