<svg width="98" height="88" viewBox="0 0 98 88" fill="none" xmlns="http://www.w3.org/2000/svg">
<path d="M97.004 42.8743C97.7847 43.6557 97.7841 44.922 97.0026 45.7027L84.2687 58.4246C83.4873 59.2053 82.2209 59.2047 81.4403 58.4233C80.6596 57.6418 80.6602 56.3755 81.4416 55.5948L92.7607 44.2865L81.4523 32.9674C80.6717 32.186 80.6723 30.9197 81.4537 30.139C82.2351 29.3583 83.5014 29.3589 84.2821 30.1403L97.004 42.8743ZM65.8916 42.2737L95.5901 42.2878L95.5882 46.2878L65.8897 46.2737L65.8916 42.2737Z" fill="white"/>
<path d="M66.4085 44.2733L1.2172 44.5789" stroke="url(#paint0_linear_2003_7897)" stroke-width="4"/>
<defs>
<linearGradient id="paint0_linear_2003_7897" x1="60.4514" y1="46.002" x2="1.24222" y2="40.4906" gradientUnits="userSpaceOnUse">
<stop offset="0.135417" stop-color="white"/>
<stop offset="1" stop-color="white" stop-opacity="0"/>
</linearGradient>
</defs>
</svg>
