<svg width="233" height="207" viewBox="0 0 233 207" fill="none" xmlns="http://www.w3.org/2000/svg">
<path d="M198.759 207H24.8451C19.2709 207 14.6523 202.383 14.6523 196.81V193.943C14.6523 192.192 16.0857 190.918 17.6783 190.918H205.926C207.678 190.918 208.952 192.351 208.952 193.943V196.81C208.952 202.383 204.492 207 198.759 207ZM17.6783 192.829C17.0413 192.829 16.5635 193.306 16.5635 193.943V196.81C16.5635 201.427 20.2265 205.09 24.8451 205.09H198.918C203.537 205.09 207.2 201.427 207.2 196.81V193.943C207.2 193.306 206.722 192.829 206.085 192.829H17.6783Z" fill="#444444"/>
<path d="M198.281 192.829H25.3228C24.845 192.829 24.3672 192.351 24.3672 191.873V98.8825C24.3672 94.424 28.0302 90.7617 32.4895 90.7617H191.114C195.574 90.7617 199.237 94.424 199.237 98.8825V191.873C199.237 192.351 198.759 192.829 198.281 192.829ZM26.2783 190.918H197.326V98.8825C197.326 95.5386 194.618 92.6725 191.114 92.6725H32.4895C29.145 92.6725 26.2783 95.3794 26.2783 98.8825V190.918Z" fill="#444444"/>
<path d="M190.159 192.828C189.681 192.828 189.203 192.351 189.203 191.873V105.411C189.203 102.385 186.655 99.8375 183.629 99.8375H39.8154C36.7894 99.8375 34.2412 102.385 34.2412 105.411V191.714C34.2412 192.191 33.7634 192.669 33.2856 192.669C32.8079 192.669 32.3301 192.191 32.3301 191.714V105.411C32.3301 101.271 35.6746 97.9268 39.8154 97.9268H183.629C187.77 97.9268 191.114 101.271 191.114 105.411V191.714C191.114 192.351 190.796 192.828 190.159 192.828Z" fill="#444444"/>
<path d="M10.352 207H0.955571C0.477785 207 0 206.522 0 206.044V1.91046C0 1.43277 0.477785 0.955078 0.955571 0.955078H82.4976C82.9754 0.955078 83.4532 1.43277 83.4532 1.91046V83.9143C83.4532 84.392 82.9754 84.8697 82.4976 84.8697C82.0198 84.8697 81.542 84.392 81.542 83.9143V2.86585H1.91114V205.089H10.352C10.8298 205.089 11.3076 205.567 11.3076 206.044C11.3076 206.522 10.8298 207 10.352 207Z" fill="#444444"/>
<path d="M72.7826 13.0573H10.5112C10.0334 13.0573 9.55566 12.7388 9.55566 12.1019C9.55566 11.6242 10.0334 11.1465 10.5112 11.1465H72.7826C73.2604 11.1465 73.7382 11.6242 73.7382 12.1019C73.7382 12.7388 73.4196 13.0573 72.7826 13.0573Z" fill="#444444"/>
<path d="M72.7826 21.0182H10.5112C10.0334 21.0182 9.55566 20.6997 9.55566 20.0628C9.55566 19.5851 10.0334 19.1074 10.5112 19.1074H72.7826C73.2604 19.1074 73.7382 19.5851 73.7382 20.0628C73.7382 20.6997 73.4196 21.0182 72.7826 21.0182Z" fill="#444444"/>
<path d="M72.7826 29.1393H10.5112C10.0334 29.1393 9.55566 28.6616 9.55566 28.0247C9.55566 27.547 10.0334 27.0693 10.5112 27.0693H72.7826C73.2604 27.0693 73.7382 27.547 73.7382 28.0247C73.7382 28.6616 73.4196 29.1393 72.7826 29.1393Z" fill="#444444"/>
<path d="M29.3041 49.5212H14.652C11.7853 49.5212 9.55566 47.292 9.55566 44.4258V43.152C9.55566 40.4451 11.9446 38.2158 14.652 38.2158H29.1449C32.0116 38.2158 34.2412 40.4451 34.2412 43.3112V44.5851C34.4005 47.292 32.0116 49.5212 29.3041 49.5212ZM14.652 40.1266C12.9002 40.1266 11.4668 41.5597 11.4668 43.3112V44.5851C11.4668 46.3366 12.9002 47.7697 14.652 47.7697H29.1449C30.8967 47.7697 32.3301 46.3366 32.3301 44.5851V43.3112C32.3301 41.5597 30.8967 40.1266 29.1449 40.1266H14.652Z" fill="#444444"/>
<path d="M119.895 92.6724C119.417 92.6724 118.939 92.1947 118.939 91.717V66.2401L100.783 48.0878C100.624 47.9286 100.465 47.6101 100.465 47.4509V21.9739C100.465 21.4962 100.943 21.0186 101.42 21.0186C101.898 21.0186 102.376 21.4962 102.376 21.9739V47.1324L120.532 65.2847C120.691 65.4439 120.85 65.7624 120.85 65.9216V91.8762C120.85 92.1947 120.373 92.6724 119.895 92.6724Z" fill="#444444"/>
<path d="M119.894 81.048C119.576 81.048 119.417 80.8888 119.257 80.7296C118.939 80.4111 118.939 79.7742 119.257 79.4557L130.565 68.1503V38.8519C130.565 38.3742 131.043 37.8965 131.521 37.8965C131.998 37.8965 132.476 38.3742 132.476 38.8519V68.4688C132.476 68.7873 132.317 68.9465 132.158 69.1057L120.532 80.7296C120.372 80.8888 120.213 81.048 119.894 81.048Z" fill="#444444"/>
<path d="M131.52 59.075C131.202 59.075 131.043 58.9158 130.883 58.7565C130.565 58.4381 130.565 57.8011 130.883 57.4827L149.517 38.8527V8.9173C149.517 8.43961 149.995 7.96191 150.473 7.96191C150.95 7.96191 151.428 8.43961 151.428 8.9173V39.1711C151.428 39.4896 151.269 39.6488 151.11 39.8081L132.158 58.7565C131.998 58.9158 131.839 59.075 131.52 59.075Z" fill="#444444"/>
<path d="M105.402 22.7698H97.439C96.9612 22.7698 96.4834 22.2921 96.4834 21.8144V13.8528C96.4834 13.3752 96.9612 12.8975 97.439 12.8975H105.402C105.88 12.8975 106.358 13.3752 106.358 13.8528V21.8144C106.358 22.4513 105.88 22.7698 105.402 22.7698ZM98.3945 20.859H104.446V14.8082H98.3945V20.859Z" fill="#444444"/>
<path d="M135.503 39.8079H127.54C127.062 39.8079 126.584 39.3302 126.584 38.8525V30.8909C126.584 30.4132 127.062 29.9355 127.54 29.9355H135.503C135.98 29.9355 136.458 30.4132 136.458 30.8909V38.8525C136.458 39.4894 135.98 39.8079 135.503 39.8079ZM128.495 37.8971H134.547V31.8463H128.495V37.8971Z" fill="#444444"/>
<path d="M154.455 9.87231H146.492C146.014 9.87231 145.536 9.39462 145.536 8.91692V0.955385C145.536 0.477692 146.014 0 146.492 0H154.455C154.933 0 155.41 0.477692 155.41 0.955385V8.91692C155.41 9.39462 154.933 9.87231 154.455 9.87231ZM147.447 7.96154H153.499V1.91077H147.447V7.96154Z" fill="#444444"/>
<path d="M121.198 199.516H102.246C101.927 199.516 101.768 199.357 101.609 199.197L94.9196 192.51C94.601 192.191 94.601 191.554 94.9196 191.236C95.2381 190.917 95.8751 190.917 96.1937 191.236L102.564 197.605H120.72L127.09 191.236C127.409 190.917 128.046 190.917 128.365 191.236C128.683 191.554 128.683 192.191 128.365 192.51L121.676 199.197C121.835 199.357 121.516 199.516 121.198 199.516Z" fill="#444444"/>
<path d="M18.6335 108.436H10.6704C10.1926 108.436 9.71484 107.958 9.71484 107.48V56.845C9.71484 56.3673 10.1926 55.8896 10.6704 55.8896H33.4448C33.9226 55.8896 34.4004 56.3673 34.4004 56.845V85.0289C34.4004 85.5066 33.9226 85.9843 33.4448 85.9843C32.9671 85.9843 32.4893 85.5066 32.4893 85.0289V57.8004H11.4667V106.525H18.4742C18.952 106.525 19.4298 107.003 19.4298 107.48C19.5891 107.958 19.1113 108.436 18.6335 108.436Z" fill="#444444"/>
<path d="M50.0078 157.479V133.276H54.7857C57.4931 133.276 59.4043 133.436 60.3598 133.595C61.7932 133.913 62.908 134.55 63.7043 135.665C64.5006 136.62 64.9784 138.053 64.9784 139.646C64.9784 141.238 64.5006 142.512 63.7043 143.626C62.908 144.582 61.6339 145.378 60.2006 145.696C59.0857 146.015 57.0153 146.015 53.9894 146.015H52.0782V157.479H50.0078ZM51.919 144.104H56.219C57.9709 144.104 59.245 143.945 60.0413 143.626C60.8376 143.308 61.4747 142.83 61.9524 142.034C62.4302 141.238 62.5895 140.442 62.5895 139.646C62.5895 138.849 62.4302 138.053 61.9524 137.257C61.4747 136.62 60.8376 135.983 60.0413 135.665C59.245 135.346 58.1302 135.187 56.3783 135.187H51.7597V144.104H51.919Z" fill="#444444"/>
<path d="M76.2863 157.479V146.015L68.4824 133.276H70.8713L77.2418 143.626L83.6123 133.276H86.0012L78.3567 145.856V157.479H76.2863Z" fill="#444444"/>
<path d="M93.6455 157.479V135.346H88.0713V133.276H101.131V135.346H95.7159V157.479H93.6455Z" fill="#444444"/>
<path d="M120.083 157.479V145.696H107.183V157.479H105.112V133.276H107.183V143.626H120.083V133.276H122.153V157.479H120.083Z" fill="#444444"/>
<path d="M140.309 158.117C136.806 158.117 133.62 156.843 131.231 154.454C128.842 152.066 127.568 149.04 127.568 145.537C127.568 143.149 128.205 141.079 129.32 139.009C130.435 137.098 132.028 135.506 133.939 134.391C135.85 133.277 137.92 132.64 140.309 132.64C143.972 132.64 146.998 133.913 149.546 136.302C151.935 138.69 153.21 141.716 153.21 145.378C153.21 148.881 151.935 151.907 149.546 154.454C146.839 156.843 143.813 158.117 140.309 158.117ZM140.15 134.71C138.239 134.71 136.487 135.187 134.894 136.143C133.302 137.098 131.868 138.372 131.072 140.123C130.117 141.716 129.639 143.627 129.639 145.537C129.639 148.563 130.754 151.11 132.665 153.021C134.735 155.091 137.283 156.047 140.15 156.047C142.061 156.047 143.972 155.569 145.565 154.613C147.158 153.658 148.591 152.384 149.387 150.792C150.343 149.2 150.821 147.289 150.821 145.378C150.821 143.467 150.343 141.557 149.387 139.964C148.432 138.372 147.158 137.098 145.406 136.143C143.813 135.187 142.061 134.71 140.15 134.71Z" fill="#444444"/>
<path d="M176.939 157.479L160.535 138.531V157.479H158.306V133.276H158.783L175.347 152.543V133.276H177.258V157.479H176.939Z" fill="#444444"/>
<path d="M228.787 94.291L227.052 78.7733L217.38 79.8742C216.171 76.4142 214.384 73.2687 212.176 70.4377L218.274 62.8362L206.026 53.0852L199.928 60.6868C196.721 59.1664 193.2 58.118 189.572 57.6986L188.521 48L173.014 49.73L174.118 59.3761C170.649 60.6343 167.495 62.3644 164.656 64.5662L157.034 58.4849L147.309 70.6999L154.931 76.7811C153.407 79.979 152.356 83.4915 151.935 87.1088L142 88.6291L143.998 103.675L153.67 102.574C154.879 106.034 156.666 109.18 158.874 112.01L152.776 119.612L164.971 129.363L171.069 121.761C174.276 123.282 177.798 124.33 181.425 124.75L182.529 134.396L198.036 132.666L196.932 123.02C200.401 121.761 203.555 120.031 206.394 117.83L214.016 123.911L223.74 111.696L216.118 105.615C217.643 102.417 218.694 98.9043 219.115 95.287L228.787 94.291ZM187.68 110.805C176.851 112.01 167.127 104.252 165.918 93.3997C164.709 82.6003 172.488 72.8493 183.317 71.6435C194.146 70.4377 203.87 78.1966 205.079 89.0485C206.288 99.9004 198.509 109.599 187.68 110.805Z" fill="#1F75BA"/>
</svg>
