<svg width="262" height="193" viewBox="0 0 262 193" fill="none" xmlns="http://www.w3.org/2000/svg">
<path d="M260.913 21.1927H1.08669C0.470897 21.1927 0 20.7225 0 20.1077V1.08495C0 0.470145 0.470897 0 1.08669 0H260.913C261.493 0 262 0.470145 262 1.08495V20.1439C262 20.7225 261.529 21.1927 260.913 21.1927ZM2.17337 19.0589H259.827V2.1699H2.17337V19.0589Z" fill="#444444"/>
<path d="M250.083 184.007H11.9177C11.302 184.007 10.8311 183.537 10.8311 182.922V27.3404C10.8311 26.7256 11.302 26.2554 11.9177 26.2554C12.5335 26.2554 13.0044 26.7256 13.0044 27.3404V181.873H249.033V20.1435C249.033 19.5287 249.504 19.0586 250.119 19.0586C250.699 19.0586 251.206 19.5287 251.206 20.1435V182.958C251.17 183.537 250.699 184.007 250.083 184.007Z" fill="#444444"/>
<path d="M51.4 60.6483H30.6443C30.0285 60.6483 29.5576 60.1781 29.5576 59.5633V38.8408C29.5576 38.226 30.0285 37.7559 30.6443 37.7559H51.4C52.0158 37.7559 52.4867 38.226 52.4867 38.8408V59.5633C52.4867 60.142 52.0158 60.6483 51.4 60.6483ZM31.731 58.4784H50.3133V39.9258H31.731V58.4784Z" fill="#444444"/>
<path d="M43.5393 52.8008C43.2495 52.8008 42.9598 52.6924 42.7786 52.4754L36.2948 46.0018C35.8601 45.5678 35.8601 44.8807 36.2948 44.4829C36.7294 44.0489 37.4177 44.0489 37.8161 44.4829L43.5393 50.197L56.0724 37.6839C56.5071 37.2499 57.1954 37.2499 57.5938 37.6839C58.0285 38.1179 58.0285 38.805 57.5938 39.2028L44.3 52.4754C44.1189 52.6924 43.8291 52.8008 43.5393 52.8008Z" fill="#444444"/>
<path d="M117.362 42.747H72.1922C71.5764 42.747 71.1055 42.2769 71.1055 41.6621C71.1055 41.0473 71.5764 40.5771 72.1922 40.5771H117.362C117.978 40.5771 118.449 41.0473 118.449 41.6621C118.449 42.2407 117.942 42.747 117.362 42.747Z" fill="#444444"/>
<path d="M101.17 50.2695H72.2283C71.6125 50.2695 71.1416 49.7994 71.1416 49.1846C71.1416 48.5698 71.6125 48.0996 72.2283 48.0996H101.17C101.786 48.0996 102.257 48.5698 102.257 49.1846C102.257 49.7994 101.75 50.2695 101.17 50.2695Z" fill="#444444"/>
<path d="M111.059 57.8281H72.1922C71.5764 57.8281 71.1055 57.358 71.1055 56.7432C71.1055 56.1283 71.5764 55.6582 72.1922 55.6582H111.023C111.639 55.6582 112.11 56.1283 112.11 56.7432C112.146 57.358 111.639 57.8281 111.059 57.8281Z" fill="#444444"/>
<path d="M172.819 111.606C167.205 111.606 162.604 107.013 162.604 101.408C162.604 95.8019 167.169 91.209 172.819 91.209C178.47 91.209 183.034 95.8019 183.034 101.408C183.034 107.049 178.47 111.606 172.819 111.606ZM172.819 93.3789C168.364 93.3789 164.778 96.9954 164.778 101.408C164.778 105.856 168.4 109.436 172.819 109.436C177.239 109.436 180.861 105.82 180.861 101.408C180.861 96.9954 177.275 93.3789 172.819 93.3789Z" fill="#444444"/>
<path d="M172.819 93.3779C172.24 93.3779 171.732 92.9077 171.732 92.2929V69.4005C171.732 69.1112 171.841 68.8219 172.058 68.641L185.171 55.5493V45.0976C185.171 44.4828 185.642 44.0127 186.258 44.0127C186.837 44.0127 187.344 44.4828 187.344 45.0976V55.9833C187.344 56.2726 187.236 56.5619 187.018 56.7428L173.906 69.8345V92.2929C173.906 92.9077 173.435 93.3779 172.819 93.3779Z" fill="#444444"/>
<path d="M145.036 127.517H125.585C124.969 127.517 124.498 127.047 124.498 126.432C124.498 125.817 124.969 125.347 125.585 125.347H144.602L164.379 105.601C164.814 105.167 165.502 105.167 165.901 105.601C166.335 106.035 166.335 106.722 165.901 107.12L145.797 127.191C145.616 127.408 145.326 127.517 145.036 127.517Z" fill="#444444"/>
<path d="M213.969 144.949C213.389 144.949 212.882 144.479 212.882 143.864V123.576H196.69C196.401 123.576 196.111 123.467 195.93 123.25L179.738 107.085C179.303 106.651 179.303 105.964 179.738 105.566C180.173 105.132 180.861 105.132 181.259 105.566L197.161 121.406H214.005C214.585 121.406 215.092 121.876 215.092 122.491V143.864C215.055 144.479 214.585 144.949 213.969 144.949Z" fill="#444444"/>
<path d="M191.51 46.1831H181.042C180.462 46.1831 179.955 45.713 179.955 45.0982V34.6103C179.955 33.9955 180.426 33.5254 181.042 33.5254H191.51C192.09 33.5254 192.597 33.9955 192.597 34.6103V45.062C192.597 45.6768 192.09 46.1831 191.51 46.1831ZM182.092 44.0132H190.423V35.6953H182.092V44.0132Z" fill="#444444"/>
<path d="M125.584 132.725H115.116C114.5 132.725 114.029 132.255 114.029 131.64V121.188C114.029 120.574 114.5 120.104 115.116 120.104H125.584C126.2 120.104 126.671 120.574 126.671 121.188V131.64C126.671 132.255 126.2 132.725 125.584 132.725ZM116.203 130.591H124.534V122.273H116.203V130.591Z" fill="#444444"/>
<path d="M219.221 155.438H208.753C208.173 155.438 207.666 154.968 207.666 154.353V143.901C207.666 143.287 208.137 142.816 208.753 142.816H219.221C219.801 142.816 220.308 143.287 220.308 143.901V154.353C220.308 154.932 219.801 155.438 219.221 155.438ZM209.803 153.268H218.134V144.95H209.803V153.268Z" fill="#444444"/>
<path d="M43.1412 107.301H30.6443C30.0285 107.301 29.5576 106.831 29.5576 106.216C29.5576 105.601 30.0285 105.131 30.6443 105.131H43.105C43.7208 105.131 44.1917 105.601 44.1917 106.216C44.1917 106.794 43.7208 107.301 43.1412 107.301Z" fill="#444444"/>
<path d="M43.1412 112.111H30.6443C30.0285 112.111 29.5576 111.641 29.5576 111.026C29.5576 110.412 30.0285 109.941 30.6443 109.941H43.105C43.7208 109.941 44.1917 110.412 44.1917 111.026C44.1917 111.641 43.7208 112.111 43.1412 112.111Z" fill="#444444"/>
<path d="M43.1412 116.92H30.6443C30.0285 116.92 29.5576 116.45 29.5576 115.835C29.5576 115.22 30.0285 114.75 30.6443 114.75H43.105C43.7208 114.75 44.1917 115.22 44.1917 115.835C44.1917 116.45 43.7208 116.92 43.1412 116.92Z" fill="#444444"/>
<path d="M43.1412 121.73H30.6443C30.0285 121.73 29.5576 121.26 29.5576 120.645C29.5576 120.031 30.0285 119.561 30.6443 119.561H43.105C43.7208 119.561 44.1917 120.031 44.1917 120.645C44.1917 121.26 43.7208 121.73 43.1412 121.73Z" fill="#444444"/>
<path d="M43.1412 126.541H30.6443C30.0285 126.541 29.5576 126.071 29.5576 125.456C29.5576 124.841 30.0285 124.371 30.6443 124.371H43.105C43.7208 124.371 44.1917 124.841 44.1917 125.456C44.1917 126.071 43.7208 126.541 43.1412 126.541Z" fill="#444444"/>
<path d="M43.1412 131.35H30.6443C30.0285 131.35 29.5576 130.879 29.5576 130.265C29.5576 129.65 30.0285 129.18 30.6443 129.18H43.105C43.7208 129.18 44.1917 129.65 44.1917 130.265C44.1917 130.879 43.7208 131.35 43.1412 131.35Z" fill="#444444"/>
<path d="M43.1412 136.16H30.6443C30.0285 136.16 29.5576 135.69 29.5576 135.075C29.5576 134.46 30.0285 133.99 30.6443 133.99H43.105C43.7208 133.99 44.1917 134.46 44.1917 135.075C44.1917 135.69 43.7208 136.16 43.1412 136.16Z" fill="#444444"/>
<path d="M43.1412 140.971H30.6443C30.0285 140.971 29.5576 140.501 29.5576 139.886C29.5576 139.271 30.0285 138.801 30.6443 138.801H43.105C43.7208 138.801 44.1917 139.271 44.1917 139.886C44.1917 140.501 43.7208 140.971 43.1412 140.971Z" fill="#444444"/>
<path d="M43.1412 145.816H30.6443C30.0285 145.816 29.5576 145.346 29.5576 144.731C29.5576 144.117 30.0285 143.646 30.6443 143.646H43.105C43.7208 143.646 44.1917 144.117 44.1917 144.731C44.1917 145.31 43.7208 145.816 43.1412 145.816Z" fill="#444444"/>
<path d="M43.1412 150.627H30.6443C30.0285 150.627 29.5576 150.157 29.5576 149.542C29.5576 148.927 30.0285 148.457 30.6443 148.457H43.105C43.7208 148.457 44.1917 148.927 44.1917 149.542C44.1917 150.121 43.7208 150.627 43.1412 150.627Z" fill="#444444"/>
<path d="M43.1412 155.436H30.6443C30.0285 155.436 29.5576 154.965 29.5576 154.351C29.5576 153.736 30.0285 153.266 30.6443 153.266H43.105C43.7208 153.266 44.1917 153.736 44.1917 154.351C44.1917 154.929 43.7208 155.436 43.1412 155.436Z" fill="#444444"/>
<path d="M101.171 155.437H56.8338C56.218 155.437 55.7471 154.967 55.7471 154.353V79.708C55.7471 79.0932 56.218 78.623 56.8338 78.623H101.134C101.75 78.623 102.221 79.0932 102.221 79.708V154.353C102.221 154.931 101.75 155.437 101.171 155.437Z" fill="#1F75BA"/>
<path d="M260.913 192.94H1.08669C0.470897 192.94 0 192.469 0 191.855V182.958C0 182.343 0.470897 181.873 1.08669 181.873H260.913C261.493 181.873 262 182.343 262 182.958V191.855C262 192.433 261.529 192.94 260.913 192.94ZM2.17337 190.77H259.827V184.007H2.17337V190.77Z" fill="#444444"/>
<path d="M199.624 102.6C199.334 102.6 199.08 102.491 198.863 102.274C198.428 101.84 198.428 101.153 198.863 100.755L223.314 76.344V40.9385H201.218C200.638 40.9385 200.131 40.4683 200.131 39.8535C200.131 39.2387 200.602 38.7686 201.218 38.7686H224.4C224.98 38.7686 225.487 39.2387 225.487 39.8535V76.8141C225.487 77.1034 225.378 77.3927 225.161 77.5736L200.384 102.31C200.203 102.527 199.914 102.6 199.624 102.6Z" fill="#444444"/>
<path d="M206.579 46.8337C206.289 46.8337 206.036 46.7252 205.818 46.5082L199.914 40.6133C199.479 40.1793 199.479 39.4922 199.914 39.0944L205.818 33.1995C206.253 32.7655 206.941 32.7655 207.34 33.1995C207.774 33.6335 207.774 34.3206 207.34 34.7184L202.196 39.8539L207.34 44.9893C207.774 45.4233 207.774 46.1104 207.34 46.5082C207.158 46.7252 206.869 46.8337 206.579 46.8337Z" fill="#444444"/>
<path d="M140.255 109.941H111.023C110.407 109.941 109.937 109.471 109.937 108.856V79.6709C109.937 79.0561 110.407 78.5859 111.023 78.5859H140.255C140.835 78.5859 141.342 79.0561 141.342 79.6709V108.856C141.342 109.471 140.871 109.941 140.255 109.941ZM112.146 107.771H139.205V80.7558H112.146V107.771Z" fill="#444444"/>
<path d="M120.333 118.115C119.717 118.115 119.246 117.645 119.246 117.03V108.856C119.246 108.242 119.717 107.771 120.333 107.771C120.949 107.771 121.419 108.242 121.419 108.856V117.03C121.419 117.608 120.949 118.115 120.333 118.115Z" fill="#444444"/>
</svg>
