<svg width="274" height="225" viewBox="0 0 274 225" fill="none" xmlns="http://www.w3.org/2000/svg">
<g clip-path="url(#clip0_4553_5590)">
<path d="M30.4336 122.967H28.4707V43.0889H237.792V78.2606H235.829V45.0492H30.4336V122.967Z" fill="#444444"/>
<path d="M30.4336 160.918H28.4707V175.573H30.4336V160.918Z" fill="#444444"/>
<path d="M237.773 115.754H235.829V175.572H237.773V115.754Z" fill="#444444"/>
<path d="M230.246 59.2861H228.302V77.9759H230.246V59.2861Z" fill="#444444"/>
<path d="M37.9609 59.2861H35.998V123.558H37.9609V59.2861Z" fill="#444444"/>
<path d="M161.107 167.122H35.8457V160.918H37.7895V165.181H161.107V167.122Z" fill="#444444"/>
<path d="M230.245 167.122H222.908V165.181H228.301V115.754H230.245V167.122Z" fill="#444444"/>
<path d="M230.245 62.0457H35.998V52.1299H230.245V62.0457ZM37.9609 60.0854H228.301V54.0712H37.9609V60.0854Z" fill="#444444"/>
<path d="M215.798 186.396H174.564V188.305H215.798V186.396Z" fill="#444444"/>
<path d="M237.449 188.325H231.922V186.384H237.449C238.649 186.384 239.621 185.413 239.621 184.214V176.582H226.053V174.641H241.565V184.233C241.565 186.479 239.717 188.325 237.449 188.325Z" fill="#444444"/>
<path d="M150.321 188.324H28.7378C26.5082 188.324 24.6787 186.478 24.6787 184.213V174.621H156.705V176.562H26.6416V184.194C26.6416 185.393 27.5754 186.364 28.7378 186.364H150.321V188.324Z" fill="#444444"/>
<path d="M180.145 115.754H272.647C272.856 115.754 273.028 115.582 273.028 115.373V78.3553C273.028 78.1459 272.856 77.9746 272.647 77.9746H180.526C180.316 77.9746 180.145 78.1459 180.145 78.3553V115.754Z" fill="white"/>
<path d="M268.435 116.744H179.173V82.5809C179.173 79.5167 181.669 77.0234 184.737 77.0234H268.435C271.503 77.0234 274 79.5167 274 82.5809V111.186C274 114.232 271.503 116.744 268.435 116.744ZM181.117 114.784H268.435C270.436 114.784 272.056 113.166 272.056 111.167V82.5809C272.056 80.5825 270.436 78.9647 268.435 78.9647H184.737C182.736 78.9647 181.117 80.5825 181.117 82.5809V114.784Z" fill="#444444"/>
<path d="M72.4731 160.918H1.35282C1.14319 160.918 0.97168 160.747 0.97168 160.538V123.539C0.97168 123.329 1.14319 123.158 1.35282 123.158H72.0729C72.2826 123.158 72.4541 123.329 72.4541 123.539V160.918H72.4731Z" fill="#444444"/>
<path d="M72.4731 38.7498H1.35282C1.14319 38.7498 0.97168 38.5786 0.97168 38.3692V1.35135C0.97168 1.14199 1.14319 0.970703 1.35282 0.970703H72.0729C72.2826 0.970703 72.4541 1.14199 72.4541 1.35135V38.7498H72.4731Z" fill="white"/>
<path d="M73.4453 39.7204H5.56461C2.49645 39.7204 0 37.2272 0 34.163V5.55744C0 2.49323 2.49645 0 5.56461 0H67.8616C70.9297 0 73.4262 2.49323 73.4262 5.55744V39.7204H73.4453ZM5.56461 1.96033C3.56364 1.96033 1.9438 3.57807 1.9438 5.57647V34.182C1.9438 36.1804 3.56364 37.7982 5.56461 37.7982H71.4824V5.55744C71.4824 3.55904 69.8626 1.9413 67.8616 1.9413H5.56461V1.96033Z" fill="#444444"/>
<path d="M10.9954 23.5998C10.9954 22.2486 10.1569 22.0582 9.90918 22.0582H9.24219V20.2692H9.90918C10.1379 20.2692 10.9954 20.0979 10.9954 18.7276V12.523C10.9954 10.6769 12.3103 9.19238 13.9111 9.19238V10.5437C13.0345 10.5437 12.3485 11.4192 12.3485 12.523V18.7276C12.3485 19.9456 11.853 20.7069 11.2241 21.1637C11.853 21.6015 12.3485 22.3818 12.3485 23.5998V29.8044C12.3485 30.9273 13.0536 31.8218 13.9111 31.8218V33.135C12.3294 33.135 10.9954 31.6505 10.9954 29.8044V23.5998Z" fill="#444444"/>
<path d="M30.719 25.0085L24.2969 20.4407V19.2226L30.7572 14.8262L31.4813 15.9491L25.7452 19.8507L31.4813 23.9236L30.719 25.0085Z" fill="#444444"/>
<path d="M41.9629 15.9491L42.7061 14.8262L49.1473 19.2226V20.4407L42.7252 25.0085L41.9629 23.9236L47.699 19.8507L41.9629 15.9491Z" fill="#444444"/>
<path d="M59.5713 33.135V31.8218C60.4479 31.8218 61.1149 30.9273 61.1149 29.8044V23.5998C61.1149 22.3818 61.6104 21.6205 62.2393 21.1637C61.6104 20.726 61.1149 19.9456 61.1149 18.7276V12.523C61.1149 11.4001 60.4479 10.5437 59.5713 10.5437V9.19238C61.153 9.19238 62.4489 10.6769 62.4489 12.523V18.7276C62.4489 20.0979 63.3446 20.2692 63.5732 20.2692H64.2212V22.0582H63.5732C63.3255 22.0582 62.4489 22.2486 62.4489 23.5998V29.8044C62.4489 31.6315 61.1721 33.135 59.5713 33.135Z" fill="#444444"/>
<path d="M168.424 89.7949H147.69V91.5269H168.424V89.7949Z" fill="white"/>
<path d="M44.6691 66.6328H41.7725V68.5931H44.6691V66.6328Z" fill="#444444"/>
<path d="M58.8098 66.6328H49.2051V68.5931H58.8098V66.6328Z" fill="#444444"/>
<path d="M82.7255 66.6328H63.4971V68.5931H82.7255V66.6328Z" fill="#444444"/>
<path d="M131.263 89.6816H63.4971V91.642H131.263V89.6816Z" fill="#444444"/>
<path d="M91.9109 78.1465H63.4971V80.1068H91.9109V78.1465Z" fill="#444444"/>
<path d="M135.761 78.1465H96.0654V80.1068H135.761V78.1465Z" fill="#444444"/>
<path d="M121.964 66.6328H85.127V68.5931H121.964V66.6328Z" fill="#444444"/>
<path d="M138.753 66.6328H129.034V68.5931H138.753V66.6328Z" fill="#444444"/>
<path d="M156.266 78.1465H146.547V80.1068H156.266V78.1465Z" fill="#444444"/>
<path d="M144.108 89.6816H134.389V91.642H144.108V89.6816Z" fill="#444444"/>
<path d="M91.9108 83.9141H76.3223V85.8744H91.9108V83.9141Z" fill="#444444"/>
<path d="M72.3014 106.963H63.4971V108.923H72.3014V106.963Z" fill="#444444"/>
<path d="M143.651 101.195H134.847V103.156H143.651V101.195Z" fill="#444444"/>
<path d="M170.731 101.195H145.938V103.156H170.731V101.195Z" fill="#444444"/>
<path d="M101.782 101.195H76.3223V103.156H101.782V101.195Z" fill="#444444"/>
<path d="M109.5 118.648H76.3223V120.609H109.5V118.648Z" fill="#444444"/>
<path d="M105.346 124.49H76.3223V126.451H105.346V124.49Z" fill="#444444"/>
<path d="M105.327 130.314H89.5293V132.256H105.327V130.314Z" fill="#444444"/>
<path d="M105.346 142H93.1689V143.941H105.346V142Z" fill="#444444"/>
<path d="M134.827 130.314H108.319V132.256H134.827V130.314Z" fill="#444444"/>
<path d="M120.077 118.648H113.103V120.609H120.077V118.648Z" fill="#444444"/>
<path d="M141.707 130.314H137.4V132.256H141.707V130.314Z" fill="#444444"/>
<path d="M145.937 118.648H125.68V120.609H145.937V118.648Z" fill="#444444"/>
<path d="M132.197 101.195H103.783V103.156H132.197V101.195Z" fill="#444444"/>
<path d="M168.424 89.6816H147.69V91.642H168.424V89.6816Z" fill="#444444"/>
<path d="M158.343 66.6328H146.547V68.5931H158.343V66.6328Z" fill="#444444"/>
<path d="M44.6691 78.1465H41.7725V80.1068H44.6691V78.1465Z" fill="#444444"/>
<path d="M44.6691 89.6816H41.7725V91.642H44.6691V89.6816Z" fill="#444444"/>
<path d="M44.6691 106.963H41.7725V108.923H44.6691V106.963Z" fill="#444444"/>
<path d="M202.328 111.398C201.792 111.398 201.331 111.363 200.943 111.292C200.556 111.222 200.234 111.132 199.976 111.021V109.605C200.263 109.715 200.611 109.806 201.018 109.876C201.425 109.946 201.852 109.981 202.298 109.981C203.102 109.981 203.762 109.821 204.279 109.499C204.795 109.178 205.177 108.701 205.425 108.068C205.673 107.435 205.797 106.651 205.797 105.717V83.8242H207.331V105.687C207.331 106.852 207.147 107.862 206.78 108.716C206.423 109.58 205.877 110.243 205.142 110.705C204.408 111.167 203.47 111.398 202.328 111.398Z" fill="#444444"/>
<path d="M218.602 89.1882C220.379 89.1882 221.709 89.6403 222.592 90.5443C223.476 91.4484 223.917 92.8898 223.917 94.8687V105.853H222.756L222.488 102.99H222.399C222.051 103.603 221.629 104.15 221.133 104.632C220.637 105.105 220.026 105.476 219.302 105.747C218.587 106.019 217.714 106.154 216.681 106.154C215.639 106.154 214.746 105.978 214.001 105.627C213.267 105.275 212.696 104.763 212.289 104.09C211.892 103.417 211.693 102.598 211.693 101.634C211.693 100.007 212.358 98.7712 213.689 97.9274C215.019 97.0736 216.929 96.5914 219.421 96.4809L222.428 96.3302V95.1399C222.428 93.4624 222.101 92.267 221.446 91.5538C220.791 90.8407 219.823 90.4841 218.542 90.4841C217.709 90.4841 216.905 90.5945 216.13 90.8155C215.366 91.0265 214.587 91.3329 213.793 91.7347L213.316 90.469C214.091 90.0973 214.919 89.7909 215.803 89.5499C216.696 89.3088 217.629 89.1882 218.602 89.1882ZM222.414 97.5206L219.585 97.6411C217.53 97.7416 215.967 98.1132 214.895 98.7561C213.823 99.399 213.287 100.363 213.287 101.649C213.287 102.684 213.604 103.477 214.239 104.03C214.885 104.582 215.778 104.858 216.919 104.858C218.696 104.858 220.051 104.346 220.984 103.322C221.927 102.297 222.404 100.901 222.414 99.1328V97.5206Z" fill="#444444"/>
<path d="M232.642 105.853L226.434 89.4745H228.027L232.181 100.64C232.439 101.313 232.667 101.96 232.866 102.583C233.074 103.196 233.248 103.754 233.387 104.256H233.461C233.62 103.754 233.799 103.191 233.997 102.568C234.206 101.945 234.434 101.303 234.682 100.64L238.836 89.4745H240.444L234.221 105.853H232.642Z" fill="#444444"/>
<path d="M248.797 89.1882C250.574 89.1882 251.904 89.6403 252.788 90.5443C253.671 91.4484 254.113 92.8898 254.113 94.8687V105.853H252.951L252.683 102.99H252.594C252.247 103.603 251.825 104.15 251.328 104.632C250.832 105.105 250.222 105.476 249.497 105.747C248.782 106.019 247.909 106.154 246.877 106.154C245.834 106.154 244.941 105.978 244.196 105.627C243.462 105.275 242.891 104.763 242.484 104.09C242.087 103.417 241.889 102.598 241.889 101.634C241.889 100.007 242.554 98.7712 243.884 97.9274C245.214 97.0736 247.125 96.5914 249.616 96.4809L252.624 96.3302V95.1399C252.624 93.4624 252.296 92.267 251.641 91.5538C250.986 90.8407 250.018 90.4841 248.738 90.4841C247.904 90.4841 247.1 90.5945 246.326 90.8155C245.561 91.0265 244.782 91.3329 243.988 91.7347L243.512 90.469C244.286 90.0973 245.115 89.7909 245.998 89.5499C246.891 89.3088 247.824 89.1882 248.797 89.1882ZM252.609 97.5206L249.78 97.6411C247.725 97.7416 246.162 98.1132 245.09 98.7561C244.018 99.399 243.482 100.363 243.482 101.649C243.482 102.684 243.799 103.477 244.435 104.03C245.08 104.582 245.973 104.858 247.115 104.858C248.892 104.858 250.246 104.346 251.18 103.322C252.122 102.297 252.599 100.901 252.609 99.1328V97.5206Z" fill="#444444"/>
<path d="M245.274 180.537L243.309 162.906L232.35 164.156C230.98 160.225 228.955 156.651 226.454 153.435L233.362 144.798L219.485 133.719L212.577 142.356C208.943 140.629 204.953 139.437 200.844 138.961L199.652 127.941L182.083 129.907L183.333 140.867C179.403 142.296 175.829 144.262 172.613 146.764L163.977 139.854L152.959 153.733L161.595 160.642C159.867 164.276 158.676 168.266 158.2 172.376L146.943 174.104L149.207 191.199L160.165 189.948C161.535 193.879 163.56 197.453 166.062 200.669L159.153 209.306L172.97 220.385L179.879 211.748C183.512 213.476 187.503 214.667 191.612 215.143L192.863 226.103L210.432 224.138L209.182 213.178C213.113 211.748 216.686 209.783 219.902 207.281L228.538 214.19L239.556 200.312L230.92 193.402C232.648 189.769 233.839 185.778 234.315 181.668L245.274 180.537ZM198.699 199.299C186.43 200.669 175.412 191.854 174.042 179.524C172.673 167.254 181.487 156.175 193.756 154.805C206.025 153.435 217.043 162.25 218.413 174.58C219.783 186.91 210.968 197.929 198.699 199.299Z" fill="#1F75BA"/>
</g>
<defs>
<clipPath id="clip0_4553_5590">
<rect width="274" height="225" fill="white"/>
</clipPath>
</defs>
</svg>
