<svg width="31" height="31" viewBox="0 0 31 31" fill="none" xmlns="http://www.w3.org/2000/svg">
<path d="M13.4955 7.27538C14.1525 7.12158 14.8252 7.0447 15.5 7.04629C22.1818 7.04629 26 14.6827 26 14.6827C25.4206 15.7666 24.7296 16.7872 23.9382 17.7277M17.5236 16.7063C17.2615 16.9876 16.9453 17.2133 16.5941 17.3698C16.2428 17.5263 15.8636 17.6105 15.4791 17.6173C15.0946 17.6241 14.7127 17.5533 14.3561 17.4093C13.9995 17.2653 13.6756 17.0509 13.4037 16.779C13.1317 16.5071 12.9174 16.1831 12.7733 15.8266C12.6293 15.47 12.5586 15.0881 12.5654 14.7036C12.5722 14.3191 12.6563 13.9399 12.8128 13.5886C12.9694 13.2373 13.195 12.9212 13.4764 12.659M21.17 20.3527C19.5383 21.5964 17.5514 22.2855 15.5 22.319C8.81818 22.319 5 14.6827 5 14.6827C6.18735 12.4699 7.83417 10.5367 9.83 9.01265L21.17 20.3527Z" stroke="#0272B0" stroke-width="2" stroke-linecap="round" stroke-linejoin="round"/>
<path d="M5 4.30713L26 25.3071" stroke="#0272B0" stroke-width="2" stroke-linecap="round" stroke-linejoin="round"/>
</svg>
