<svg width="31" height="31" viewBox="0 0 31 31" fill="none" xmlns="http://www.w3.org/2000/svg">
<g clip-path="url(#clip0_1726_3589)">
<path d="M13.25 5.8C14.1104 5.5986 14.9913 5.49792 15.875 5.5C24.625 5.5 29.625 15.5 29.625 15.5C28.8662 16.9195 27.9613 18.2559 26.925 19.4875M18.525 18.15C18.1817 18.5184 17.7677 18.8139 17.3077 19.0189C16.8477 19.2239 16.3511 19.3341 15.8476 19.343C15.3441 19.3518 14.844 19.2592 14.377 19.0706C13.9101 18.882 13.4859 18.6013 13.1298 18.2452C12.7737 17.8891 12.493 17.4649 12.3044 16.998C12.1158 16.531 12.0232 16.0309 12.032 15.5274C12.0409 15.0239 12.1511 14.5273 12.3561 14.0673C12.5611 13.6073 12.8566 13.1933 13.225 12.85M23.3 22.925C21.1632 24.5538 18.5614 25.4561 15.875 25.5C7.125 25.5 2.125 15.5 2.125 15.5C3.67986 12.6024 5.83642 10.0708 8.45 8.075L23.3 22.925Z" stroke="#1D5EE4" stroke-width="2" stroke-linecap="round" stroke-linejoin="round"/>
<path d="M2.125 1.75L29.625 29.25" stroke="#1D5EE4" stroke-width="2" stroke-linecap="round" stroke-linejoin="round"/>
</g>
<defs>
<clipPath id="clip0_1726_3589">
<rect width="30" height="30" fill="white" transform="translate(0.875 0.5)"/>
</clipPath>
</defs>
</svg>
