<svg width="28" height="32" viewBox="0 0 28 32" fill="none" xmlns="http://www.w3.org/2000/svg">
<path d="M27.1562 9.09385L18.4062 0.343853C18.3228 0.253473 18.2212 0.18171 18.1081 0.133248C17.995 0.0847859 17.873 0.0607139 17.75 0.0626032H2.75C2.16984 0.0626032 1.61344 0.293071 1.2032 0.703307C0.792968 1.11354 0.5625 1.66994 0.5625 2.2501V29.7501C0.5625 30.3303 0.792968 30.8867 1.2032 31.2969C1.61344 31.7071 2.16984 31.9376 2.75 31.9376H25.25C25.8302 31.9376 26.3866 31.7071 26.7968 31.2969C27.207 30.8867 27.4375 30.3303 27.4375 29.7501V9.7501C27.4394 9.62709 27.4153 9.50506 27.3669 9.39199C27.3184 9.27891 27.2466 9.17732 27.1562 9.09385ZM18.6875 3.26573L24.2344 8.8126H18.6875V3.26573ZM25.25 30.0626H2.75C2.66712 30.0626 2.58763 30.0297 2.52903 29.9711C2.47042 29.9125 2.4375 29.833 2.4375 29.7501V2.2501C2.4375 2.16722 2.47042 2.08774 2.52903 2.02913C2.58763 1.97053 2.66712 1.9376 2.75 1.9376H16.8125V9.7501C16.8125 9.99874 16.9113 10.2372 17.0871 10.413C17.2629 10.5888 17.5014 10.6876 17.75 10.6876H25.5625V29.7501C25.5625 29.833 25.5296 29.9125 25.471 29.9711C25.4124 30.0297 25.3329 30.0626 25.25 30.0626ZM19.0312 19.7189C19.1201 19.8035 19.1909 19.9053 19.2392 20.0181C19.2876 20.1309 19.3125 20.2524 19.3125 20.3751C19.3125 20.4978 19.2876 20.6193 19.2392 20.7321C19.1909 20.8449 19.1201 20.9467 19.0312 21.0314L14.6562 25.4064C14.5716 25.4952 14.4698 25.566 14.357 25.6143C14.2442 25.6627 14.1227 25.6876 14 25.6876C13.8773 25.6876 13.7558 25.6627 13.643 25.6143C13.5302 25.566 13.4284 25.4952 13.3437 25.4064L8.96875 21.0314C8.7947 20.8573 8.69692 20.6212 8.69692 20.3751C8.69692 20.129 8.7947 19.8929 8.96875 19.7189C9.1428 19.5448 9.37886 19.447 9.625 19.447C9.87114 19.447 10.1072 19.5448 10.2812 19.7189L13.0625 22.4845V14.7501C13.0625 14.5015 13.1613 14.263 13.3371 14.0872C13.5129 13.9114 13.7514 13.8126 14 13.8126C14.2486 13.8126 14.4871 13.9114 14.6629 14.0872C14.8387 14.263 14.9375 14.5015 14.9375 14.7501V22.4845L17.7187 19.7189C17.8034 19.63 17.9052 19.5592 18.018 19.5109C18.1308 19.4625 18.2523 19.4376 18.375 19.4376C18.4977 19.4376 18.6192 19.4625 18.732 19.5109C18.8448 19.5592 18.9466 19.63 19.0312 19.7189Z" fill="#0272B0"/>
</svg>
