<svg width="446" height="442" viewBox="0 0 446 442" fill="none" xmlns="http://www.w3.org/2000/svg">
<g opacity="0.3">
<path d="M113.178 68.6724C94.2508 68.6724 78.864 53.2756 78.864 34.3362C78.8487 15.4122 94.2508 0 113.178 0C132.105 0 147.492 15.4122 147.492 34.3362C147.492 53.2756 132.089 68.6724 113.178 68.6724ZM113.178 3.83388C96.3657 3.83388 82.6954 17.5131 82.6954 34.3362C82.6954 51.1593 96.3657 64.8385 113.178 64.8385C129.99 64.8385 143.66 51.1593 143.66 34.3362C143.645 17.5285 129.975 3.83388 113.178 3.83388Z" fill="white"/>
<path d="M132.856 35.563H109.285C108.228 35.563 107.369 34.7043 107.369 33.6461C107.369 32.588 108.228 31.7292 109.285 31.7292H132.856C133.913 31.7292 134.771 32.588 134.771 33.6461C134.787 34.7043 133.913 35.563 132.856 35.563Z" fill="white"/>
<path d="M113.178 39.4583C112.12 39.4583 111.262 38.5995 111.262 37.5413V11.0109C111.262 9.95274 112.12 9.09396 113.178 9.09396C114.235 9.09396 115.093 9.95274 115.093 11.0109V37.5413C115.093 38.5841 114.235 39.4583 113.178 39.4583Z" fill="white"/>
<path d="M163.951 178.996H157.56C156.503 178.996 155.645 178.137 155.645 177.079C155.645 176.021 156.503 175.162 157.56 175.162H163.951C165.009 175.162 165.867 176.021 165.867 177.079C165.882 178.137 165.009 178.996 163.951 178.996Z" fill="white"/>
<path d="M144.948 178.996H132.335C131.277 178.996 130.419 178.137 130.419 177.079C130.419 176.021 131.277 175.162 132.335 175.162H144.948C146.005 175.162 146.863 176.021 146.863 177.079C146.863 178.137 146.005 178.996 144.948 178.996Z" fill="white"/>
<path d="M119.722 178.996H113.331C112.274 178.996 111.415 178.137 111.415 177.079V170.684C111.415 169.626 112.274 168.767 113.331 168.767C114.389 168.767 115.247 169.626 115.247 170.684V175.162H119.722C120.779 175.162 121.637 176.021 121.637 177.079C121.653 178.137 120.779 178.996 119.722 178.996Z" fill="white"/>
<path d="M113.331 158.799C112.274 158.799 111.415 157.94 111.415 156.882V143.096C111.415 142.037 112.274 141.179 113.331 141.179C114.389 141.179 115.247 142.037 115.247 143.096V156.882C115.247 157.94 114.389 158.799 113.331 158.799ZM113.331 131.226C112.274 131.226 111.415 130.367 111.415 129.309V115.522C111.415 114.464 112.274 113.605 113.331 113.605C114.389 113.605 115.247 114.464 115.247 115.522V129.309C115.247 130.367 114.389 131.226 113.331 131.226ZM113.331 103.653C112.274 103.653 111.415 102.794 111.415 101.736V87.9492C111.415 86.891 112.274 86.0322 113.331 86.0322C114.389 86.0322 115.247 86.891 115.247 87.9492V101.736C115.247 102.794 114.389 103.653 113.331 103.653Z" fill="white"/>
<path d="M113.331 76.0795C112.274 76.0795 111.415 75.2207 111.415 74.1625V67.7676C111.415 66.7095 112.274 65.8507 113.331 65.8507C114.389 65.8507 115.247 66.7095 115.247 67.7676V74.1625C115.247 75.2207 114.389 76.0795 113.331 76.0795Z" fill="white"/>
<path d="M393.489 124.001C392.431 124.001 391.573 123.142 391.573 122.084V108.298C391.573 107.239 392.431 106.381 393.489 106.381C394.546 106.381 395.405 107.239 395.405 108.298V122.084C395.405 123.142 394.546 124.001 393.489 124.001Z" fill="white"/>
<path d="M393.489 96.428C392.431 96.428 391.573 95.5692 391.573 94.511V88.1161C391.573 87.058 392.431 86.1992 393.489 86.1992C394.546 86.1992 395.405 87.058 395.405 88.1161V94.511C395.405 95.5538 394.546 96.428 393.489 96.428Z" fill="white"/>
<path d="M394.637 76.2687C378.178 76.2687 364.783 62.8655 364.783 46.3798C364.783 29.9095 378.178 16.5062 394.637 16.5062C411.097 16.5062 424.491 29.9095 424.491 46.3798C424.491 62.8655 411.097 76.2687 394.637 76.2687ZM394.637 20.3401C380.293 20.3401 368.615 32.0104 368.615 46.3645C368.615 60.7338 380.277 72.4195 394.637 72.4195C408.982 72.4195 420.66 60.7338 420.66 46.3645C420.645 32.0258 408.982 20.3401 394.637 20.3401Z" fill="white"/>
<path d="M394.637 76.2687C387.113 76.2687 381.442 63.4175 381.442 46.3798C381.442 29.3421 387.113 16.5062 394.637 16.5062C402.162 16.5062 407.848 29.3421 407.848 46.3798C407.833 63.4175 402.162 76.2687 394.637 76.2687ZM394.637 20.3401C390.224 20.3401 385.274 31.4737 385.274 46.3645C385.274 61.2706 390.224 72.4195 394.637 72.4195C399.066 72.4195 404.001 61.7153 404.001 46.3645C404.001 31.0443 399.066 20.3401 394.637 20.3401Z" fill="white"/>
<path d="M418.239 35.1082H370.147C369.09 35.1082 368.232 34.2494 368.232 33.1913C368.232 32.1331 369.09 31.2743 370.147 31.2743H418.239C419.296 31.2743 420.154 32.1331 420.154 33.1913C420.17 34.2341 419.311 35.1082 418.239 35.1082Z" fill="white"/>
<path d="M422.576 48.3121H366.699C365.642 48.3121 364.783 47.4533 364.783 46.3951C364.783 45.337 365.642 44.4782 366.699 44.4782H422.576C423.633 44.4782 424.491 45.337 424.491 46.3951C424.491 47.4533 423.633 48.3121 422.576 48.3121Z" fill="white"/>
<path d="M418.239 61.5159H370.147C369.09 61.5159 368.232 60.6572 368.232 59.599C368.232 58.5409 369.09 57.6821 370.147 57.6821H418.239C419.296 57.6821 420.154 58.5409 420.154 59.599C420.17 60.6572 419.311 61.5159 418.239 61.5159Z" fill="white"/>
<path d="M329.497 378.741C323.643 378.741 318.877 373.972 318.877 368.114C318.877 362.255 323.643 357.486 329.497 357.486C335.351 357.486 340.118 362.255 340.118 368.114C340.118 373.987 335.351 378.741 329.497 378.741ZM329.497 361.335C325.758 361.335 322.708 364.372 322.708 368.114C322.708 371.855 325.758 374.892 329.497 374.892C333.237 374.892 336.271 371.855 336.271 368.114C336.286 364.372 333.237 361.335 329.497 361.335Z" fill="white"/>
<path d="M468.116 396.699H194.403C193.345 396.699 192.487 395.84 192.487 394.782C192.487 393.724 193.345 392.865 194.403 392.865H468.116C469.174 392.865 470.032 393.724 470.032 394.782C470.047 395.84 469.174 396.699 468.116 396.699Z" fill="white"/>
<path d="M494.001 268.831C492.943 268.831 492.085 267.973 492.085 266.914V150.901C492.085 143.402 485.986 137.299 478.476 137.299H180.518C173.024 137.299 166.924 143.402 166.924 150.901V258.434C166.924 259.492 166.066 260.351 165.009 260.351C163.951 260.351 163.093 259.492 163.093 258.434V150.901C163.093 141.286 170.909 133.465 180.518 133.465H478.461C488.085 133.465 495.917 141.286 495.917 150.901V266.914C495.917 267.973 495.058 268.831 494.001 268.831Z" fill="white"/>
<path d="M468.116 396.699H194.403C193.345 396.699 192.487 395.84 192.487 394.782C192.487 393.724 193.345 392.865 194.403 392.865H468.116C469.174 392.865 470.032 393.724 470.032 394.782C470.047 395.84 469.174 396.699 468.116 396.699Z" fill="white"/>
<path d="M468.116 343.377H194.403C193.345 343.377 192.487 342.519 192.487 341.46C192.487 340.402 193.345 339.544 194.403 339.544H468.116C469.174 339.544 470.032 340.402 470.032 341.46C470.047 342.519 469.174 343.377 468.116 343.377Z" fill="white"/>
<path d="M468.116 324.407H194.403C193.345 324.407 192.487 323.549 192.487 322.49C192.487 321.432 193.345 320.573 194.403 320.573H468.116C469.174 320.573 470.032 321.432 470.032 322.49C470.047 323.549 469.174 324.407 468.116 324.407Z" fill="white"/>
<path d="M472.928 287.096C471.871 287.096 471.013 286.237 471.013 285.179V158.37H186.755V258.449C186.755 259.507 185.897 260.366 184.84 260.366C183.782 260.366 182.924 259.507 182.924 258.449V156.453C182.924 155.395 183.782 154.536 184.84 154.536H472.928C473.986 154.536 474.844 155.395 474.844 156.453V285.194C474.844 286.237 473.986 287.096 472.928 287.096Z" fill="white"/>
<path d="M384.592 441.985H274.417C273.636 441.985 272.931 441.509 272.639 440.789C272.348 440.068 272.517 439.24 273.084 438.688L277.298 434.608C288.042 424.241 294.218 409.719 294.218 394.767C294.218 393.708 295.076 392.85 296.134 392.85H362.861C363.918 392.85 364.776 393.708 364.776 394.767C364.776 409.719 370.937 424.226 381.696 434.608L385.91 438.688C386.477 439.24 386.646 440.068 386.355 440.789C386.079 441.509 385.374 441.985 384.592 441.985ZM279.168 438.151H379.841L379.044 437.384C368.01 426.741 361.497 412.004 360.991 396.699H298.034C297.528 412.004 291.015 426.741 279.98 437.384L279.168 438.151Z" fill="white"/>
<path d="M616.191 345.908C615.134 345.908 614.275 345.049 614.275 343.991V295.561C614.275 289.09 609.019 283.83 602.551 283.83H593.096C592.038 283.83 591.18 282.971 591.18 281.913C591.18 280.855 592.038 279.996 593.096 279.996H602.567C611.149 279.996 618.122 286.973 618.122 295.561V343.991C618.122 345.049 617.264 345.908 616.191 345.908Z" fill="white"/>
<path d="M582.49 283.845H562.659C561.602 283.845 560.743 282.986 560.743 281.928C560.743 280.87 561.602 280.011 562.659 280.011H582.49C583.548 280.011 584.406 280.87 584.406 281.928C584.406 282.986 583.548 283.845 582.49 283.845Z" fill="white"/>
<path d="M552.069 283.845H532.238C531.18 283.845 530.322 282.986 530.322 281.928C530.322 280.87 531.18 280.011 532.238 280.011H552.069C553.127 280.011 553.985 280.87 553.985 281.928C553.985 282.986 553.127 283.845 552.069 283.845Z" fill="white"/>
<path d="M521.633 283.845H501.802C500.744 283.845 499.886 282.986 499.886 281.928C499.886 280.87 500.744 280.011 501.802 280.011H521.633C522.69 280.011 523.548 280.87 523.548 281.928C523.548 282.986 522.69 283.845 521.633 283.845Z" fill="white"/>
<path d="M602.551 442H481.756C473.174 442 466.2 435.022 466.2 426.434V295.546C466.2 295.009 466.231 294.442 466.292 293.936C466.308 293.522 466.4 293.046 466.492 292.586C466.492 292.556 466.492 292.54 466.507 292.509V292.494C466.584 292.034 466.691 291.605 466.829 291.206L466.951 290.807C467.028 290.562 467.12 290.24 467.289 289.902C467.411 289.519 467.58 289.136 467.825 288.691C467.948 288.4 468.162 287.986 468.423 287.571C468.76 287.004 469.128 286.467 469.541 285.946C469.909 285.517 470.2 285.164 470.538 284.826C470.798 284.535 471.12 284.244 471.472 283.922C472.208 283.232 473.051 282.633 473.94 282.143C474.078 282.02 474.4 281.851 474.737 281.698C475.105 281.514 475.334 281.407 475.58 281.315C476.009 281.1 476.591 280.885 477.189 280.701C477.541 280.578 478.032 280.44 478.537 280.348C479.043 280.241 479.595 280.149 480.177 280.103C480.637 280.042 481.204 280.011 481.741 280.011H491.212C492.269 280.011 493.127 280.87 493.127 281.928C493.127 282.986 492.269 283.845 491.212 283.845H481.741C481.357 283.845 480.959 283.86 480.591 283.906C480.101 283.952 479.687 284.029 479.273 284.106C478.921 284.167 478.645 284.244 478.384 284.336C477.863 284.489 477.465 284.642 477.066 284.826C476.79 284.934 476.668 284.995 476.545 285.056C476.3 285.179 476.131 285.256 475.963 285.379C475.166 285.823 474.583 286.253 474.062 286.728C473.787 286.973 473.541 287.188 473.311 287.449C472.99 287.786 472.76 288.047 472.515 288.338C472.254 288.691 471.963 289.105 471.687 289.55C471.518 289.826 471.38 290.071 471.273 290.347C471.059 290.761 470.967 290.961 470.921 291.145C470.875 291.283 470.829 291.421 470.752 291.543C470.721 291.605 470.676 291.773 470.63 291.911L470.476 292.371C470.369 292.678 470.323 292.862 470.292 293.062C470.292 293.108 470.277 293.154 470.277 293.184C470.277 293.215 470.262 293.261 470.262 293.292C470.2 293.598 470.139 293.905 470.124 294.258C470.078 294.733 470.047 295.147 470.047 295.531V426.419C470.047 432.891 475.304 438.151 481.771 438.151H602.567C609.034 438.151 614.291 432.891 614.291 426.419V395.533C614.291 394.475 615.149 393.616 616.206 393.616C617.264 393.616 618.122 394.475 618.122 395.533V426.419C618.122 435.007 611.134 442 602.551 442Z" fill="white"/>
<path d="M552.069 283.845H532.238C531.18 283.845 530.322 282.986 530.322 281.928C530.322 280.87 531.18 280.011 532.238 280.011H552.069C553.127 280.011 553.985 280.87 553.985 281.928C553.985 282.986 553.127 283.845 552.069 283.845Z" fill="white"/>
<path d="M616.191 317.92H468.116C467.059 317.92 466.2 317.062 466.2 316.004C466.2 314.945 467.059 314.087 468.116 314.087H614.275V295.546C614.275 289.09 609.019 283.845 602.551 283.845H593.096C592.038 283.845 591.18 282.986 591.18 281.928C591.18 280.87 592.038 280.011 593.096 280.011H602.567C611.149 280.011 618.122 286.989 618.122 295.561V316.019C618.122 317.062 617.264 317.92 616.191 317.92Z" fill="white"/>
<path d="M582.49 283.845H562.659C561.602 283.845 560.743 282.986 560.743 281.928C560.743 280.87 561.602 280.011 562.659 280.011H582.49C583.548 280.011 584.406 280.87 584.406 281.928C584.406 282.986 583.548 283.845 582.49 283.845Z" fill="white"/>
<path d="M496.499 299.456C494.553 299.456 492.729 298.69 491.396 297.31C490.062 296.021 489.296 294.15 489.296 292.233V281.913C489.296 280.855 490.154 279.996 491.212 279.996C492.269 279.996 493.127 280.855 493.127 281.913V292.233C493.127 293.138 493.48 293.982 494.108 294.595C494.752 295.27 495.595 295.607 496.499 295.607C498.369 295.607 499.871 294.089 499.871 292.233V281.913C499.871 280.855 500.729 279.996 501.786 279.996H521.617C522.675 279.996 523.533 280.855 523.533 281.913C523.533 282.971 522.675 283.83 521.617 283.83H503.702V292.233C503.717 296.221 500.484 299.456 496.499 299.456Z" fill="white"/>
<path d="M596.237 413.813H483.794C482.737 413.813 481.878 412.955 481.878 411.896C481.878 410.838 482.737 409.979 483.794 409.979H596.237C597.295 409.979 598.153 410.838 598.153 411.896C598.153 412.955 597.295 413.813 596.237 413.813Z" fill="white"/>
<path d="M583.379 396.086H483.794C482.737 396.086 481.878 395.227 481.878 394.169C481.878 393.11 482.737 392.252 483.794 392.252H583.379C584.437 392.252 585.295 393.11 585.295 394.169C585.295 395.227 584.437 396.086 583.379 396.086Z" fill="white"/>
<path d="M587.655 378.358H483.779C482.721 378.358 481.863 377.499 481.863 376.441C481.863 375.383 482.721 374.524 483.779 374.524H587.655C588.712 374.524 589.571 375.383 589.571 376.441C589.571 377.499 588.728 378.358 587.655 378.358Z" fill="white"/>
<path d="M600.513 360.645H483.794C482.737 360.645 481.878 359.786 481.878 358.728C481.878 357.67 482.737 356.811 483.794 356.811H600.513C601.57 356.811 602.429 357.67 602.429 358.728C602.429 359.771 601.57 360.645 600.513 360.645Z" fill="white"/>
<path d="M600.513 342.917H483.794C482.737 342.917 481.879 342.059 481.879 341C481.879 339.942 482.737 339.083 483.794 339.083H600.513C601.571 339.083 602.429 339.942 602.429 341C602.429 342.059 601.571 342.917 600.513 342.917Z" fill="white"/>
<path d="M587.793 299.456C585.847 299.456 584.023 298.69 582.674 297.31C581.356 296.021 580.575 294.15 580.575 292.233V271.561C580.575 267.574 583.808 264.338 587.793 264.338C589.724 264.338 591.548 265.09 592.912 266.47C594.26 267.819 595.011 269.629 595.011 271.561V292.233C595.011 296.221 591.762 299.456 587.793 299.456ZM587.793 268.187C585.923 268.187 584.421 269.706 584.421 271.561V292.233C584.421 293.138 584.774 293.982 585.402 294.595C586.046 295.27 586.889 295.607 587.793 295.607C589.647 295.607 591.164 294.089 591.164 292.233V271.561C591.164 270.672 590.812 269.798 590.184 269.184C589.555 268.54 588.697 268.187 587.793 268.187Z" fill="white"/>
<path d="M557.356 299.456C555.41 299.456 553.586 298.69 552.253 297.31C550.92 296.021 550.154 294.15 550.154 292.233V271.561C550.154 267.574 553.387 264.338 557.372 264.338C559.303 264.338 561.127 265.09 562.491 266.47C563.839 267.819 564.59 269.629 564.59 271.561V292.233C564.575 296.221 561.341 299.456 557.356 299.456ZM557.356 268.187C555.502 268.187 553.985 269.706 553.985 271.561V292.233C553.985 293.138 554.337 293.982 554.966 294.595C555.609 295.27 556.452 295.607 557.356 295.607C559.211 295.607 560.728 294.089 560.728 292.233V271.561C560.728 270.672 560.376 269.798 559.747 269.184C559.104 268.54 558.276 268.187 557.356 268.187Z" fill="white"/>
<path d="M526.935 299.456C524.989 299.456 523.165 298.69 521.832 297.31C520.499 296.021 519.732 294.15 519.732 292.233V271.561C519.732 267.574 522.966 264.338 526.951 264.338C528.882 264.338 530.706 265.09 532.069 266.47C533.418 267.819 534.169 269.629 534.169 271.561V292.233C534.154 296.221 530.905 299.456 526.935 299.456ZM526.935 268.187C525.081 268.187 523.564 269.706 523.564 271.561V292.233C523.564 293.138 523.916 293.982 524.545 294.595C525.188 295.27 526.031 295.607 526.935 295.607C528.805 295.607 530.307 294.089 530.307 292.233V271.561C530.307 270.672 529.954 269.798 529.326 269.184C528.698 268.54 527.84 268.187 526.935 268.187Z" fill="white"/>
<path d="M496.499 299.456C494.553 299.456 492.729 298.69 491.396 297.31C490.062 296.021 489.296 294.15 489.296 292.233V271.561C489.296 268.908 490.752 266.47 493.097 265.213C495.763 263.74 499.411 264.246 501.633 266.47C502.982 267.82 503.733 269.629 503.733 271.561V292.234C503.717 296.221 500.484 299.456 496.499 299.456ZM496.499 268.188C495.947 268.188 495.38 268.326 494.92 268.586C493.802 269.184 493.127 270.335 493.127 271.561V292.233C493.127 293.138 493.48 293.982 494.108 294.595C494.752 295.27 495.595 295.607 496.499 295.607C498.369 295.607 499.871 294.089 499.871 292.233V271.561C499.871 270.672 499.518 269.798 498.89 269.184C498.246 268.54 497.418 268.188 496.499 268.188Z" fill="white"/>
<path d="M615.18 399.689C614.904 399.689 614.628 399.628 614.383 399.521L594.858 390.534C593.892 390.089 593.479 388.954 593.923 387.988L634.842 298.797C637.754 292.494 645.172 289.703 651.455 292.509C651.516 292.525 651.578 292.556 651.639 292.586C657.968 295.515 660.758 303.06 657.846 309.394L616.927 398.585C616.712 399.045 616.329 399.413 615.854 399.582C615.624 399.659 615.394 399.689 615.18 399.689ZM598.199 387.835L614.245 395.227L654.367 307.784C656.374 303.413 654.489 298.214 650.183 296.129C650.122 296.113 650.06 296.083 650.014 296.067C645.616 294.028 640.375 295.975 638.336 300.407L598.199 387.835Z" fill="white"/>
<path d="M652.237 318.887C651.976 318.887 651.7 318.825 651.44 318.718L631.915 309.747C630.949 309.302 630.536 308.167 630.965 307.201L634.812 298.797C636.221 295.715 638.75 293.384 641.923 292.203C645.064 291.037 648.482 291.16 651.532 292.54C651.562 292.556 651.578 292.556 651.608 292.571C657.953 295.485 660.742 303.014 657.83 309.363L653.968 317.767C653.662 318.473 652.972 318.887 652.237 318.887ZM635.256 307.048L651.286 314.424L654.336 307.768C656.359 303.367 654.444 298.138 650.06 296.098C650.03 296.083 650.014 296.083 649.984 296.067C647.838 295.086 645.447 294.994 643.241 295.807C641.034 296.619 639.271 298.26 638.29 300.392L635.256 307.048Z" fill="white"/>
<path d="M598.092 413.813C597.448 413.813 596.789 413.675 596.176 413.384C594.505 412.617 593.494 411.007 593.509 409.182L593.724 388.771C593.724 388.126 594.061 387.513 594.613 387.16C595.164 386.808 595.854 386.762 596.436 387.038L615.946 396.009C616.544 396.285 616.957 396.837 617.049 397.481C617.141 398.125 616.911 398.769 616.421 399.199L601.095 412.663C600.237 413.43 599.18 413.813 598.092 413.813ZM597.341 409.228C597.341 409.642 597.601 409.826 597.77 409.903C597.938 409.979 598.245 410.056 598.567 409.78L611.67 398.279L597.525 391.776L597.341 409.228Z" fill="white"/>
<path d="M605.387 395.196C605.126 395.196 604.85 395.135 604.59 395.027C603.624 394.583 603.21 393.448 603.639 392.482L640.712 311.679C641.156 310.713 642.29 310.283 643.256 310.728C644.221 311.173 644.635 312.308 644.206 313.274L607.134 394.077C606.812 394.782 606.122 395.196 605.387 395.196Z" fill="white"/>
<path d="M194.419 442H64.3822C53.2865 442 44.2598 432.967 44.2598 421.865V298.659C44.2598 297.954 44.643 297.294 45.2713 296.972C45.8997 296.635 46.6506 296.665 47.2483 297.064C48.8575 298.138 50.8038 298.506 52.7195 298.138C58.8957 296.849 64.9492 295.147 70.681 293.062C87.7229 286.866 103.202 276.913 116.688 263.495C118.052 262.13 118.818 260.32 118.834 258.403C118.849 257.345 119.707 256.502 120.749 256.502H194.404C195.461 256.502 196.319 257.361 196.319 258.419V440.068C196.335 441.141 195.476 442 194.419 442ZM48.1065 301.665V421.865C48.1065 430.851 55.4015 438.151 64.3822 438.151H192.503V260.351H122.496C122.098 262.559 121.025 264.584 119.401 266.209C105.516 280.026 89.562 290.271 71.999 296.665C66.0833 298.812 59.8612 300.561 53.4858 301.895C51.662 302.263 49.823 302.186 48.1065 301.665Z" fill="white"/>
<path d="M78.1751 442L64.3822 442C53.2865 442 44.2598 432.967 44.2598 421.865V298.659C44.2598 297.601 45.1181 296.742 46.1755 296.742C47.233 296.742 48.0912 297.601 48.0912 298.659V421.864C48.0912 430.851 55.3861 438.151 64.3669 438.151H76.2441V294.871C76.2441 293.813 77.1023 292.954 78.1598 292.954C79.2173 292.954 80.0755 293.813 80.0755 294.871V440.068C80.0908 441.141 79.2326 442 78.1751 442Z" fill="white"/>
<path d="M194.419 296.803H71.34C70.2825 296.803 69.4243 295.945 69.4243 294.887C69.4243 293.828 70.2825 292.97 71.34 292.97H192.488V260.366H120.765C119.707 260.366 118.849 259.507 118.849 258.449C118.849 257.391 119.707 256.532 120.765 256.532H194.419C195.476 256.532 196.335 257.391 196.335 258.449V294.887C196.335 295.929 195.476 296.803 194.419 296.803Z" fill="white"/>
<path d="M194.419 272.573H111.876C110.818 272.573 109.96 271.715 109.96 270.656C109.96 269.598 110.818 268.739 111.876 268.739H194.419C195.476 268.739 196.335 269.598 196.335 270.656C196.335 271.715 195.476 272.573 194.419 272.573Z" fill="white"/>
<path d="M194.419 284.581H112.673C111.615 284.581 110.757 283.722 110.757 282.664C110.757 281.606 111.615 280.747 112.673 280.747H194.419C195.476 280.747 196.335 281.606 196.335 282.664C196.335 283.722 195.476 284.581 194.419 284.581Z" fill="white"/>
<path d="M163.753 391.868H109.271C104.045 391.868 99.7841 387.59 99.7841 382.345V350.631C99.7841 345.386 104.045 341.108 109.271 341.108H163.737C168.979 341.108 173.254 345.371 173.254 350.631V382.345C173.27 387.605 168.994 391.868 163.753 391.868ZM109.271 344.957C106.159 344.957 103.631 347.503 103.631 350.631V382.345C103.631 385.473 106.159 388.019 109.271 388.019H163.737C166.864 388.019 169.408 385.473 169.408 382.345V350.631C169.408 347.503 166.864 344.957 163.737 344.957H109.271Z" fill="white"/>
<path d="M158.619 357.9H114.435C113.378 357.9 112.52 357.041 112.52 355.983C112.52 354.925 113.378 354.066 114.435 354.066H158.619C159.676 354.066 160.534 354.925 160.534 355.983C160.534 357.041 159.676 357.9 158.619 357.9Z" fill="white"/>
<path d="M158.619 368.42H114.435C113.378 368.42 112.52 367.561 112.52 366.503C112.52 365.445 113.378 364.586 114.435 364.586H158.619C159.676 364.586 160.534 365.445 160.534 366.503C160.534 367.561 159.676 368.42 158.619 368.42Z" fill="white"/>
<path d="M142.021 378.925H114.435C113.378 378.925 112.52 378.066 112.52 377.008C112.52 375.95 113.378 375.091 114.435 375.091H142.006C143.063 375.091 143.921 375.95 143.921 377.008C143.937 378.066 143.079 378.925 142.021 378.925Z" fill="white"/>
<path d="M1.91469 273.309C1.20972 273.309 0.566045 272.926 0.228885 272.297C-0.123602 271.653 -0.0622998 270.856 0.366814 270.258L44.5349 209.084C44.872 208.609 45.4238 208.318 46.0061 208.287L121.346 204.867C122.067 204.775 122.772 205.22 123.124 205.879C123.476 206.523 123.415 207.321 122.986 207.919L78.7873 269.031C78.4502 269.506 77.8985 269.798 77.3161 269.828L2.00664 273.309C1.97599 273.309 1.94534 273.309 1.91469 273.309ZM47.0942 212.09L5.80736 269.292L76.2127 266.04L117.546 208.9L47.0942 212.09Z" fill="white"/>
<path d="M1.93013 273.31C1.22516 273.31 0.581486 272.926 0.244325 272.297C-0.108161 271.653 -0.0468595 270.856 0.382254 270.258L44.5349 209.084C44.872 208.609 45.4238 208.318 46.0061 208.287L121.346 204.883C122.067 204.775 122.772 205.235 123.124 205.895C123.477 206.539 123.415 207.336 122.986 207.934L78.7875 269.046C78.4503 269.522 77.8986 269.813 77.3162 269.844L2.00664 273.309C1.99132 273.309 1.96078 273.31 1.93013 273.31ZM47.0942 212.09L5.80736 269.292L76.2127 266.04L117.53 208.9L47.0942 212.09Z" fill="white"/>
<path d="M51.2781 302.125C47.2781 302.125 43.4621 299.932 41.5311 296.343L27.8761 271.024C27.3703 270.089 27.7228 268.923 28.6577 268.417C29.5925 267.927 30.7573 268.264 31.263 269.2L44.918 294.503C46.4199 297.279 49.6076 298.766 52.7187 298.122C77.0862 293.123 98.6185 281.483 116.718 263.479C118.971 261.24 119.507 257.729 117.99 254.938L104.136 229.281C103.63 228.346 103.982 227.18 104.917 226.674C105.852 226.183 107.017 226.521 107.523 227.456L121.377 253.113C123.691 257.391 122.879 262.774 119.431 266.209C100.795 284.734 78.6034 296.742 53.5003 301.879C52.7493 302.048 52.0137 302.125 51.2781 302.125Z" fill="white"/>
<path d="M71.569 235.63C70.8794 235.63 70.2204 235.262 69.8832 234.618C69.3775 233.682 69.73 232.517 70.6648 232.011L120.503 205.082C121.438 204.591 122.603 204.928 123.109 205.864L134.756 227.456C135.262 228.392 134.909 229.557 133.974 230.063C133.04 230.554 131.875 230.217 131.369 229.281L120.626 209.391L72.4886 235.4C72.1974 235.553 71.8755 235.63 71.569 235.63Z" fill="white"/>
<path d="M57.5462 249.064C54.1746 249.064 51.3854 247.791 50.0521 245.337C47.7073 240.998 50.9716 234.848 57.4849 231.321C63.9983 227.809 70.9254 228.453 73.2702 232.793C74.4809 235.032 74.251 237.777 72.6418 240.522C71.2166 242.976 68.7951 245.199 65.8373 246.794C63.0174 248.328 60.1209 249.064 57.5462 249.064ZM65.7607 232.9C63.9063 232.9 61.6381 233.452 59.3087 234.695C54.4658 237.317 52.3202 241.442 53.439 243.497C54.5578 245.568 59.1707 246.028 64.0136 243.405C66.3277 242.163 68.2587 240.399 69.3162 238.575C69.8373 237.67 70.6189 235.967 69.8832 234.603C69.3009 233.544 67.7683 232.9 65.7607 232.9Z" fill="white"/>
<path d="M135.936 241.78C132.396 241.78 129.132 239.403 128.181 235.814C127.063 231.52 129.622 227.104 133.898 225.969C138.174 224.834 142.587 227.395 143.737 231.689V231.704C144.84 236.013 142.266 240.415 137.99 241.519C137.315 241.688 136.626 241.78 135.936 241.78ZM135.967 229.527C135.614 229.527 135.246 229.573 134.894 229.665C132.656 230.263 131.308 232.578 131.906 234.817C132.503 237.041 134.802 238.391 137.04 237.777C139.277 237.194 140.626 234.894 140.059 232.655C139.522 230.784 137.806 229.527 135.967 229.527Z" fill="white"/>
<path d="M138.649 249.892C137.959 249.892 137.3 249.524 136.963 248.88L133.009 241.55C132.503 240.614 132.856 239.449 133.791 238.943C134.725 238.452 135.89 238.789 136.396 239.725L140.35 247.055C140.856 247.991 140.503 249.156 139.568 249.662C139.262 249.815 138.955 249.892 138.649 249.892Z" fill="white"/>
<path d="M146.388 245.706C145.698 245.706 145.039 245.337 144.702 244.693L140.748 237.363C140.243 236.428 140.595 235.262 141.53 234.756C142.465 234.25 143.629 234.603 144.135 235.538L148.089 242.868C148.595 243.804 148.242 244.969 147.308 245.475C147.001 245.629 146.695 245.706 146.388 245.706Z" fill="white"/>
</g>
</svg>
