<svg width="438" height="363" viewBox="0 0 438 363" fill="none" xmlns="http://www.w3.org/2000/svg">
<path d="M348.164 310.447L193.447 221.121L348.164 131.795L348.164 310.447Z" fill="white"/>
<path d="M437.245 150.646L359.773 201.209L359.773 100.084L437.245 150.646Z" fill="url(#paint0_linear_1701_3043)"/>
<path fill-rule="evenodd" clip-rule="evenodd" d="M36.0005 219.948C18.4449 219.948 4.18858 234.299 4.18858 252.026C4.18858 269.614 12.3467 286.127 20.6369 298.342C24.7692 304.43 28.9035 309.406 32.0034 312.858C33.5526 314.582 34.8414 315.925 35.7398 316.832C35.8307 316.924 35.9177 317.012 36.0005 317.095C36.0833 317.012 36.1703 316.924 36.2613 316.832C37.1596 315.925 38.4484 314.582 39.9976 312.858C43.0975 309.406 47.2318 304.43 51.3641 298.342C59.6543 286.127 67.8124 269.614 67.8124 252.026C67.8124 234.299 53.5562 219.948 36.0005 219.948ZM36.0005 319.41C34.8703 320.621 34.8698 320.621 34.8692 320.62L34.8674 320.618L34.8615 320.613L34.8405 320.593L34.7632 320.52C34.6961 320.456 34.5983 320.363 34.4718 320.24C34.2188 319.995 33.8511 319.633 33.3851 319.162C32.4531 318.221 31.1273 316.84 29.5388 315.071C26.3634 311.535 22.1306 306.442 17.8959 300.202C9.45192 287.76 0.875977 270.581 0.875977 252.026C0.875977 232.494 16.5907 216.636 36.0005 216.636C55.4103 216.636 71.125 232.494 71.125 252.026C71.125 270.581 62.5491 287.76 54.1051 300.202C49.8704 306.442 45.6376 311.535 42.4622 315.071C40.8737 316.84 39.5479 318.221 38.6159 319.162C38.1499 319.633 37.7822 319.995 37.5293 320.24C37.4028 320.363 37.305 320.456 37.2379 320.52L37.1605 320.593L37.1396 320.613L37.1336 320.618L37.1318 320.62C37.1312 320.621 37.1307 320.621 36.0005 319.41ZM36.0005 319.41L37.1307 320.621C36.4943 321.215 35.5067 321.215 34.8703 320.621L36.0005 319.41ZM50.8844 234.197C42.664 225.912 29.3415 225.912 21.121 234.197C12.8934 242.49 12.8934 255.941 21.121 264.234C29.3415 272.52 42.664 272.52 50.8844 264.234C59.1121 255.941 59.1121 242.49 50.8844 234.197ZM18.7694 231.864C28.2856 222.273 43.7198 222.273 53.236 231.864C62.745 241.449 62.745 256.983 53.236 266.567C43.7198 276.159 28.2856 276.159 18.7694 266.567C9.26046 256.983 9.26046 241.449 18.7694 231.864ZM48.0973 310.638C48.2474 309.736 49.1006 309.126 50.003 309.276C54.9317 310.096 59.1893 311.351 62.2629 312.944C63.7984 313.739 65.1139 314.658 66.0642 315.714C67.0234 316.781 67.674 318.064 67.674 319.523C67.674 321.608 66.3647 323.311 64.6639 324.609C62.9379 325.925 60.5448 327.04 57.7358 327.946C52.0993 329.764 44.4155 330.861 36.0006 330.861C27.5857 330.861 19.9019 329.764 14.2653 327.946C11.4564 327.04 9.06323 325.925 7.33729 324.609C5.63646 323.311 4.32715 321.608 4.32715 319.523C4.32715 316.66 6.75452 314.512 9.61432 313.006C12.6179 311.424 16.7793 310.173 21.6016 309.343C22.5031 309.188 23.3596 309.793 23.5148 310.694C23.6699 311.596 23.0649 312.452 22.1634 312.608C17.5275 313.405 13.7393 314.577 11.1579 315.937C8.43278 317.372 7.63975 318.684 7.63975 319.523C7.63975 320.111 8.00984 320.955 9.34632 321.975C10.6577 322.975 12.6597 323.947 15.2823 324.793C20.5089 326.479 27.8336 327.549 36.0006 327.549C44.1676 327.549 51.4923 326.479 56.7189 324.793C59.3415 323.947 61.3435 322.975 62.6549 321.975C63.9913 320.955 64.3614 320.111 64.3614 319.523C64.3614 319.107 64.185 318.578 63.6015 317.93C63.0091 317.271 62.0661 316.573 60.7388 315.885C58.0867 314.511 54.201 313.333 49.4593 312.544C48.5569 312.394 47.9472 311.541 48.0973 310.638Z" fill="white" fill-opacity="0.6"/>
<path fill-rule="evenodd" clip-rule="evenodd" d="M151.254 3.4835C139.369 3.4835 129.74 13.102 129.74 24.9657V273.506C129.74 285.37 139.369 294.988 151.254 294.988H272.674C284.56 294.988 294.188 285.37 294.188 273.506V195.29C294.188 194.376 294.93 193.634 295.844 193.634C296.759 193.634 297.501 194.376 297.501 195.29V273.506C297.501 287.204 286.385 298.301 272.674 298.301H151.254C137.544 298.301 126.428 287.204 126.428 273.506V24.9657C126.428 11.2682 137.544 0.170898 151.254 0.170898H272.674C286.385 0.170898 297.501 11.2682 297.501 24.9657V73.4674C297.501 74.3822 296.759 75.1237 295.844 75.1237C294.93 75.1237 294.188 74.3822 294.188 73.4674V24.9657C294.188 13.102 284.56 3.4835 272.674 3.4835H151.254ZM148.261 24.9659C148.261 24.0511 149.002 23.3096 149.917 23.3096H274.035C274.95 23.3096 275.692 24.0511 275.692 24.9659V73.4676C275.692 74.3824 274.95 75.1239 274.035 75.1239C273.121 75.1239 272.379 74.3824 272.379 73.4676V26.6222H151.573V251.95H272.379V205.359C272.379 204.445 273.121 203.703 274.035 203.703C274.95 203.703 275.692 204.445 275.692 205.359V253.606C275.692 254.521 274.95 255.263 274.035 255.263H149.917C149.002 255.263 148.261 254.521 148.261 253.606V24.9659ZM205.219 86.1739C190.363 86.1739 178.309 98.2151 178.309 113.045V202.827L199.833 180.11C200.146 179.78 200.581 179.593 201.035 179.593H285.349C300.204 179.593 312.259 167.553 312.259 152.697V113.045C312.259 98.2151 300.205 86.1739 285.349 86.1739H205.219ZM174.996 113.045C174.996 96.3813 188.538 82.8613 205.219 82.8613H285.349C302.03 82.8613 315.572 96.3813 315.572 113.045V152.697C315.572 169.385 302.031 182.906 285.349 182.906H201.748L177.855 208.123C177.388 208.615 176.669 208.773 176.039 208.522C175.409 208.271 174.996 207.661 174.996 206.983V113.045ZM207.323 132.525C206.735 132.525 206.256 133.012 206.256 133.588C206.256 134.18 206.725 134.651 207.323 134.651C207.91 134.651 208.389 134.165 208.389 133.588C208.389 132.997 207.92 132.525 207.323 132.525ZM202.943 133.588C202.943 131.198 204.89 129.213 207.323 129.213C209.745 129.213 211.702 131.164 211.702 133.588C211.702 135.979 209.755 137.964 207.323 137.964C204.9 137.964 202.943 136.013 202.943 133.588ZM245.271 132.525C244.683 132.525 244.204 133.012 244.204 133.588C244.204 134.18 244.674 134.651 245.271 134.651C245.859 134.651 246.338 134.165 246.338 133.588C246.338 132.997 245.868 132.525 245.271 132.525ZM240.892 133.588C240.892 131.198 242.839 129.213 245.271 129.213C247.694 129.213 249.65 131.164 249.65 133.588C249.65 135.979 247.704 137.964 245.271 137.964C242.848 137.964 240.892 136.013 240.892 133.588ZM283.219 132.525C282.632 132.525 282.152 133.012 282.152 133.588C282.152 134.17 282.637 134.651 283.219 134.651C283.807 134.651 284.286 134.165 284.286 133.588C284.286 132.997 283.817 132.525 283.219 132.525ZM278.84 133.588C278.84 131.198 280.787 129.213 283.219 129.213C285.642 129.213 287.598 131.164 287.598 133.588C287.598 135.979 285.652 137.964 283.219 137.964C280.831 137.964 278.84 136.023 278.84 133.588ZM211.976 264.953C206.948 264.953 202.864 269.034 202.864 274.05C202.864 279.066 206.948 283.148 211.976 283.148C217.005 283.148 221.088 279.066 221.088 274.05C221.088 269.034 217.005 264.953 211.976 264.953ZM199.552 274.05C199.552 267.201 205.123 261.641 211.976 261.641C218.83 261.641 224.401 267.201 224.401 274.05C224.401 280.9 218.83 286.46 211.976 286.46C205.123 286.46 199.552 280.9 199.552 274.05Z" fill="white" fill-opacity="0.6"/>
<defs>
<linearGradient id="paint0_linear_1701_3043" x1="327.309" y1="218.206" x2="432.319" y2="201.274" gradientUnits="userSpaceOnUse">
<stop stop-color="#BD4534"/>
<stop offset="1" stop-color="#FFB398"/>
</linearGradient>
</defs>
</svg>
