<svg width="336" height="289" viewBox="0 0 336 289" fill="none" xmlns="http://www.w3.org/2000/svg">
<path d="M171.741 112.982C171.741 112.982 194.128 121.614 221.066 99.7461C227.17 94.7621 232.179 88.5728 235.781 81.5652C239.383 74.5577 241.5 66.8826 241.999 59.02C242.207 55.9173 243.594 53.0115 245.875 50.8969L262.588 40.254C262.747 40.1525 262.934 40.1038 263.123 40.1148C263.311 40.1258 263.491 40.196 263.637 40.3153C263.754 40.4548 263.838 40.6185 263.884 40.7945C263.929 40.9705 263.935 41.1545 263.901 41.333C263.748 43.2642 258.522 47.9909 256.651 52.1966C255.795 54.2465 255.49 56.4849 255.768 58.689L262.809 56.5923C263.056 56.5194 263.318 56.5158 263.567 56.5818C263.816 56.6477 264.042 56.7807 264.22 56.9663C264.369 57.1693 264.472 57.4019 264.523 57.6484C264.573 57.8949 264.571 58.1494 264.514 58.3947C264.208 60.7305 258.706 64.599 255.609 67.8421C253.695 69.862 252.141 72.1948 251.015 74.7391C251.677 82.7825 252.002 100.886 241.453 119.168C221.722 153.359 181.732 157.332 177.543 157.681L171.741 112.982Z" fill="white"/>
<path d="M177.524 158.178C177.403 158.178 177.286 158.134 177.195 158.054C177.105 157.974 177.047 157.863 177.034 157.742L171.274 113.044C171.264 112.959 171.275 112.872 171.307 112.793C171.34 112.714 171.392 112.644 171.458 112.59C171.526 112.538 171.606 112.504 171.691 112.491C171.776 112.478 171.862 112.487 171.943 112.516C172.164 112.602 194.397 120.781 220.777 99.3661C226.821 94.4181 231.783 88.2803 235.353 81.3343C238.924 74.3883 241.027 66.7824 241.532 58.9895C241.739 55.7587 243.182 52.7315 245.561 50.5353L245.635 50.4801L262.348 39.8373C262.594 39.6783 262.885 39.602 263.177 39.6197C263.47 39.6373 263.749 39.7479 263.974 39.9353C264.157 40.1216 264.294 40.349 264.371 40.5985C264.449 40.848 264.466 41.1125 264.422 41.3699C264.33 42.4735 263.048 44.0736 261.422 46.1089C259.797 48.1443 258.055 50.3085 257.129 52.399C256.372 54.1778 256.053 56.1118 256.197 58.0392L262.649 56.1203C262.982 56.0152 263.339 56.0073 263.677 56.0974C264.015 56.1875 264.32 56.372 264.556 56.6292C264.761 56.8842 264.905 57.1819 264.98 57.5001C265.054 57.8184 265.056 58.1492 264.986 58.4684C264.759 60.2217 262.195 62.4963 259.466 64.8995C258.239 66.003 256.933 67.1433 255.933 68.1916C254.091 70.1453 252.586 72.3911 251.48 74.8373C252.388 86.0258 251.437 102.799 241.845 119.426C222.144 153.555 182.051 157.816 177.543 158.184L177.524 158.178ZM172.354 113.7L177.954 157.148C184.203 156.535 222.114 151.63 241.004 118.923C250.511 102.45 251.431 85.8173 250.499 74.7821C250.491 74.698 250.506 74.6135 250.542 74.5369C251.702 71.9474 253.288 69.5706 255.234 67.505C256.264 66.426 257.564 65.2734 258.822 64.1577C261.171 62.0794 263.826 59.719 264.004 58.3335C264.047 58.1615 264.055 57.9826 264.026 57.8076C263.998 57.6327 263.934 57.4653 263.839 57.3158C263.724 57.196 263.579 57.1098 263.419 57.0666C263.259 57.0233 263.09 57.0247 262.931 57.0706L255.89 59.1734C255.821 59.1904 255.749 59.1926 255.68 59.1796C255.61 59.1666 255.544 59.1389 255.486 59.0982C255.428 59.0575 255.379 59.0049 255.343 58.9438C255.307 58.8828 255.284 58.8147 255.277 58.7443C255.012 56.4504 255.346 54.1272 256.246 52.0005C257.221 49.7996 259.049 47.5129 260.668 45.4959C262.066 43.7486 263.385 42.0933 263.452 41.3025C263.483 40.8917 263.422 40.7507 263.366 40.6894C263.298 40.64 263.215 40.6134 263.13 40.6134C263.046 40.6134 262.963 40.64 262.894 40.6894L246.224 51.3077C244.05 53.3296 242.733 56.107 242.544 59.0692C242.028 66.9969 239.888 74.734 236.255 81.8001C232.622 88.8661 227.575 95.1103 221.427 100.145C207.412 111.523 194.636 114.54 186.381 115.073C179.192 115.514 174.194 114.27 172.354 113.7Z" fill="#444444"/>
<path d="M29.4468 244.019H136.934C137.394 205.531 152.727 158.515 152.727 158.515L182.707 160.74L186.252 107.722C186.252 107.722 155.696 105.466 130.96 103.332C114.259 101.892 83.3037 107.943 64.9589 112.026C55.5583 114.119 47.2184 119.508 41.4497 127.217L24.2764 150.152L42.9402 160.74C26.9505 187.715 27.0916 222.01 29.4468 244.019Z" fill="#1F75BA"/>
<path d="M103.66 168.33L108.26 244.442C108.297 245.002 108.165 245.561 107.881 246.045C107.597 246.529 107.173 246.917 106.666 247.158L17.6279 288.748C17.2175 288.94 16.7648 289.024 16.3128 288.992C15.8609 288.96 15.4247 288.813 15.0457 288.564C14.3343 288.105 12.2428 286.787 12.2428 286.787L9.1761 210.245C9.13891 209.685 9.27034 209.126 9.55344 208.641C9.83653 208.156 10.2584 207.767 10.7647 207.523L100.17 164.565C100.17 164.565 101.747 165.657 102.501 166.196C102.842 166.442 103.123 166.762 103.323 167.131C103.524 167.5 103.639 167.91 103.66 168.33Z" fill="#444444"/>
<path d="M100.827 166.65L105.427 242.763C105.465 243.323 105.332 243.882 105.048 244.366C104.764 244.85 104.34 245.238 103.833 245.479L15.0342 286.812C14.6253 286.994 14.1779 287.074 13.7311 287.044C13.2843 287.014 12.8516 286.875 12.471 286.639C12.0903 286.403 11.7734 286.077 11.5477 285.691C11.322 285.304 11.1945 284.868 11.1763 284.421L6.5763 208.339C6.53964 207.778 6.67196 207.219 6.95619 206.734C7.24042 206.249 7.66359 205.86 8.17103 205.617L96.9696 164.278C97.3771 164.096 97.8229 164.016 98.2683 164.045C98.7138 164.074 99.1454 164.212 99.5256 164.445C99.9057 164.679 100.223 165.002 100.45 165.387C100.677 165.771 100.806 166.205 100.827 166.65Z" fill="white"/>
<path d="M13.905 287.565C13.3342 287.563 12.7745 287.406 12.2858 287.111C11.8218 286.833 11.4327 286.446 11.1527 285.984C10.8726 285.521 10.7099 284.997 10.6789 284.457L6.08501 208.338C6.04239 207.679 6.19838 207.021 6.53288 206.451C6.86738 205.881 7.36501 205.423 7.96177 205.138L96.7604 163.799C97.2274 163.578 97.7419 163.476 98.2579 163.503C98.7738 163.53 99.275 163.684 99.7166 163.952C100.181 164.23 100.57 164.618 100.85 165.08C101.13 165.543 101.293 166.067 101.324 166.607L105.918 242.719C105.961 243.378 105.805 244.035 105.47 244.605C105.135 245.174 104.637 245.63 104.041 245.913L15.2421 287.259C14.8246 287.459 14.3679 287.563 13.905 287.565ZM98.0975 164.498C97.7798 164.498 97.466 164.567 97.1775 164.7L8.37888 206.046C7.96239 206.245 7.61536 206.565 7.38251 206.964C7.14966 207.363 7.04167 207.822 7.07247 208.283L11.6725 284.396C11.6954 284.77 11.809 285.133 12.0035 285.453C12.1979 285.773 12.4674 286.042 12.7887 286.235C13.0924 286.421 13.4375 286.528 13.7929 286.547C14.1484 286.566 14.5031 286.497 14.825 286.345L103.624 245C104.039 244.798 104.386 244.476 104.619 244.077C104.851 243.677 104.96 243.217 104.93 242.756L100.33 166.65C100.307 166.276 100.193 165.913 99.999 165.593C99.8045 165.272 99.535 165.004 99.2137 164.811C98.8766 164.608 98.491 164.5 98.0975 164.498Z" fill="#444444"/>
<path d="M94.7737 160.642L99.3738 236.748C99.4104 237.31 99.2781 237.869 98.9939 238.354C98.7096 238.839 98.2865 239.228 97.7791 239.471L8.9805 280.81C8.57174 280.994 8.1239 281.075 7.67649 281.045C7.22907 281.016 6.79578 280.877 6.4147 280.641C6.03363 280.405 5.7165 280.078 5.49118 279.691C5.26587 279.303 5.13927 278.867 5.1226 278.419L0.522588 202.312C0.48593 201.751 0.618247 201.192 0.902478 200.707C1.18671 200.222 1.60981 199.833 2.11724 199.59L90.9158 158.245C91.3252 158.062 91.7732 157.983 92.2205 158.013C92.6678 158.044 93.1008 158.183 93.4816 158.42C93.8623 158.656 94.1792 158.983 94.4045 159.37C94.6298 159.758 94.7566 160.194 94.7737 160.642Z" fill="white"/>
<path d="M7.85172 281.557C7.28024 281.56 6.71941 281.402 6.2325 281.103C5.76844 280.825 5.37943 280.438 5.09935 279.976C4.81927 279.513 4.65662 278.989 4.62557 278.449L0.00714244 202.343C-0.0363188 201.683 0.119299 201.025 0.453891 200.454C0.788484 199.884 1.28669 199.427 1.88398 199.142L90.6825 157.797C91.1495 157.576 91.664 157.475 92.18 157.501C92.6959 157.528 93.1972 157.682 93.6388 157.95C94.1037 158.229 94.4932 158.617 94.7733 159.081C95.0535 159.545 95.2157 160.07 95.2458 160.611L99.8396 236.717C99.8823 237.377 99.7263 238.034 99.3918 238.605C99.0573 239.175 98.5596 239.632 97.9628 239.918L9.20716 281.257C8.78363 281.457 8.32037 281.56 7.85172 281.557ZM92.0442 158.49C91.7257 158.49 91.4113 158.561 91.1242 158.698L2.32557 200.037C1.90859 200.238 1.56135 200.559 1.32852 200.959C1.09569 201.359 0.987937 201.82 1.01916 202.281L5.61303 278.388C5.63868 278.762 5.75406 279.124 5.94942 279.444C6.14478 279.764 6.41436 280.033 6.73541 280.227C7.03996 280.41 7.38521 280.516 7.74046 280.534C8.09571 280.552 8.44998 280.483 8.77172 280.331L97.5703 238.992C97.9862 238.79 98.3326 238.468 98.5652 238.069C98.7978 237.669 98.9062 237.209 98.8767 236.748L94.2766 160.636C94.253 160.261 94.1385 159.898 93.943 159.577C93.7474 159.257 93.4767 158.989 93.1543 158.796C92.8191 158.595 92.4352 158.489 92.0442 158.49Z" fill="#444444"/>
<path d="M89.7133 167.214L93.7674 234.278C93.802 234.771 93.6863 235.264 93.4357 235.691C93.185 236.117 92.811 236.458 92.3628 236.669L14.1136 273.097C13.7534 273.259 13.3587 273.33 12.9645 273.304C12.5703 273.278 12.1886 273.155 11.853 272.947C11.5174 272.738 11.2382 272.451 11.0399 272.109C10.8415 271.768 10.7302 271.383 10.7157 270.988L6.66775 203.931C6.63138 203.437 6.74554 202.943 6.99516 202.516C7.24477 202.088 7.61816 201.745 8.06617 201.534L86.3092 165.105C86.6699 164.943 87.0648 164.873 87.4592 164.899C87.8537 164.925 88.2357 165.048 88.5717 165.256C88.9077 165.464 89.1875 165.752 89.3865 166.093C89.5856 166.434 89.6978 166.819 89.7133 167.214Z" fill="white"/>
<path d="M13.1264 273.814C12.6123 273.813 12.1081 273.673 11.6667 273.41C11.2504 273.158 10.9017 272.809 10.6506 272.392C10.3995 271.975 10.2536 271.504 10.2253 271.019L6.17735 203.961C6.14145 203.369 6.28265 202.779 6.583 202.267C6.88334 201.755 7.32926 201.344 7.86402 201.086L86.1071 164.658C86.5275 164.458 86.9911 164.366 87.4559 164.391C87.9208 164.415 88.372 164.555 88.7689 164.799C89.1851 165.049 89.5338 165.397 89.785 165.813C90.0362 166.228 90.1821 166.699 90.2103 167.183L94.2583 234.247C94.2951 234.839 94.1542 235.429 93.8537 235.942C93.5533 236.454 93.1069 236.865 92.5717 237.122L14.3285 273.544C13.9531 273.723 13.5423 273.816 13.1264 273.814ZM87.3092 165.381C87.0373 165.379 86.7687 165.44 86.5242 165.559L8.28105 201.981C7.92555 202.154 7.6296 202.429 7.43083 202.771C7.23205 203.112 7.13947 203.506 7.16481 203.9L11.2189 270.963C11.2357 271.287 11.3318 271.602 11.4986 271.88C11.6654 272.158 11.8979 272.39 12.1757 272.557C12.435 272.715 12.7292 272.805 13.0321 272.821C13.3349 272.837 13.637 272.778 13.9115 272.649L92.1546 236.221C92.5111 236.049 92.808 235.774 93.007 235.432C93.2059 235.09 93.2979 234.697 93.2709 234.302L89.2228 167.263C89.2032 166.939 89.1054 166.624 88.9378 166.345C88.7701 166.066 88.5375 165.832 88.2599 165.663C87.9748 165.484 87.6459 165.386 87.3092 165.381Z" fill="#444444"/>
<path d="M72.8286 246.238C72.7341 246.239 72.6413 246.212 72.5611 246.162C72.4808 246.113 72.4162 246.041 72.3747 245.956C72.3199 245.837 72.3143 245.7 72.359 245.576C72.4037 245.453 72.4953 245.351 72.6139 245.294L92.0076 236.258C92.3631 236.086 92.6593 235.812 92.8582 235.472C93.057 235.131 93.1495 234.738 93.1238 234.345L92.6761 226.896C92.6656 226.828 92.6696 226.758 92.6877 226.691C92.7058 226.624 92.7377 226.562 92.7813 226.508C92.825 226.454 92.8794 226.41 92.941 226.379C93.0027 226.347 93.0703 226.329 93.1394 226.325C93.2086 226.321 93.2778 226.332 93.3426 226.356C93.4074 226.381 93.4664 226.418 93.5157 226.467C93.5651 226.515 93.6037 226.574 93.6292 226.638C93.6546 226.703 93.6663 226.772 93.6635 226.841L94.1113 234.283C94.1472 234.876 94.006 235.466 93.7057 235.978C93.4053 236.49 92.9594 236.901 92.4247 237.159L73.0187 246.195C72.9587 246.222 72.8941 246.236 72.8286 246.238Z" fill="#444444"/>
<path d="M10.6366 200.921C10.5246 200.919 10.4164 200.88 10.3296 200.809C10.2427 200.739 10.1823 200.641 10.1582 200.531C10.134 200.422 10.1475 200.308 10.1965 200.207C10.2455 200.106 10.3271 200.025 10.4281 199.977L23.2652 193.962C23.3247 193.928 23.3906 193.907 23.4587 193.899C23.5269 193.892 23.5959 193.899 23.6613 193.919C23.7268 193.94 23.7872 193.974 23.8389 194.019C23.8906 194.064 23.9325 194.119 23.9618 194.181C23.9911 194.243 24.0072 194.31 24.0092 194.379C24.0112 194.447 23.9989 194.515 23.9733 194.579C23.9476 194.643 23.909 194.7 23.86 194.748C23.8109 194.796 23.7525 194.833 23.6884 194.858L10.8452 200.878C10.7797 200.907 10.7084 200.922 10.6366 200.921Z" fill="#444444"/>
<path d="M29.9751 152.917L56.9618 168.777C56.9618 168.777 34.4463 205.53 68.6703 244.448L90.7504 241.732C90.7504 241.732 85.9971 245.282 81.1027 246.171C76.2082 247.06 75.1595 252.271 75.1595 252.271L85.2059 257.788C85.2059 257.788 72.8472 269.289 65.1069 264.802C57.3666 260.314 -7.03353 212.078 29.9751 152.917Z" fill="white"/>
<path d="M69.2346 266.335C67.71 266.36 66.2065 265.977 64.8799 265.225C57.9124 261.185 28.0246 237.938 20.1065 205.929C15.6107 187.825 18.8001 169.899 29.5886 152.654C29.6219 152.599 29.6656 152.552 29.7173 152.514C29.769 152.477 29.8276 152.45 29.8897 152.435C29.9519 152.42 30.0163 152.418 30.0794 152.428C30.1424 152.438 30.2028 152.461 30.2571 152.494L57.2439 168.348C57.3568 168.417 57.4384 168.527 57.4708 168.655C57.5028 168.784 57.483 168.92 57.4156 169.035C57.3604 169.127 51.8158 178.323 50.4972 192.111C49.2705 204.783 51.5092 224.045 68.8972 243.927L90.7565 241.242C90.8643 241.228 90.9738 241.25 91.0673 241.306C91.1607 241.362 91.2327 241.447 91.2717 241.549C91.3207 241.653 91.3315 241.772 91.3024 241.884C91.2733 241.996 91.2061 242.094 91.1123 242.162C90.9099 242.309 86.2055 245.791 81.2498 246.686C77.4471 247.373 76.1224 250.922 75.7912 252.05L85.5064 257.384C85.5749 257.421 85.6338 257.474 85.6785 257.538C85.7232 257.601 85.7524 257.675 85.7639 257.752C85.7727 257.83 85.7629 257.909 85.7352 257.983C85.7074 258.056 85.6627 258.122 85.6045 258.175C85.1445 258.543 76.6743 266.335 69.2346 266.335ZM30.1406 153.592C19.7139 170.476 16.6473 187.997 21.0388 205.703C28.9017 237.38 58.4521 260.382 65.3767 264.379C71.8474 268.125 81.9858 259.959 84.3901 257.893L74.957 252.719C74.8647 252.667 74.7911 252.588 74.747 252.492C74.7029 252.396 74.6906 252.289 74.7117 252.185C74.7117 252.13 75.8831 246.631 81.0474 245.693C83.7865 245.084 86.3978 244.001 88.7631 242.493L68.7317 244.945C68.6519 244.956 68.5706 244.947 68.4955 244.918C68.4203 244.889 68.3538 244.841 68.3023 244.779C50.5156 224.548 48.2524 204.93 49.4914 191.976C50.2245 183.932 52.5358 176.112 56.2932 168.961L30.1406 153.592Z" fill="#444444"/>
<path d="M104.974 87.3684C102.293 89.0359 98.0736 91.6599 93.3754 90.2621C88.3767 88.7662 84.2245 83.1259 85.1506 79.3494C85.9663 76.0389 90.1983 76.1125 90.8423 72.667C91.4557 69.4178 87.9229 68.1916 87.6837 64.2006C87.3586 58.8853 93.1056 52.5523 98.4354 52.3929C101.711 52.3009 102.036 54.6183 105.795 54.8451C110.947 55.1517 111.972 50.9583 117.817 50.3881C122.03 49.9835 125.465 51.7737 128.366 53.288C132.66 55.5257 135.481 56.9664 135.726 59.3022C136.272 64.0166 125.244 64.7707 115.057 76.6765C111.395 81.0047 110.003 84.2356 104.974 87.3684Z" fill="#444444"/>
<path d="M122.355 91.3037C126.329 80.5198 117.663 66.8178 117.025 65.6836C117.025 65.6836 112.118 69.7666 105.58 69.362C99.0419 68.9574 99.5878 77.7733 99.5878 77.7733C96.0304 76.9886 95.411 79.3795 96.288 84.2595C97.1651 89.1395 102.017 87.7111 102.017 87.7111C102.659 88.48 103.367 89.1917 104.133 89.8385L95.828 102.1C93.5617 105.454 90.3939 108.099 86.6893 109.732L83.3221 111.216C83.1187 111.291 82.9469 111.433 82.8352 111.618C82.7235 111.804 82.6786 112.022 82.708 112.237C82.7373 112.451 82.8392 112.65 82.9966 112.798C83.154 112.947 83.3576 113.038 83.5736 113.055C90.1547 113.932 105.599 115.036 117.191 108.292C117.344 108.201 117.466 108.065 117.541 107.903C117.616 107.741 117.64 107.561 117.611 107.385C117.581 107.209 117.498 107.046 117.374 106.918C117.25 106.79 117.089 106.702 116.914 106.667L114.222 106.091C113.771 105.997 113.349 105.8 112.988 105.515C112.627 105.23 112.337 104.865 112.142 104.448C111.947 104.032 111.852 103.575 111.863 103.116C111.875 102.656 111.994 102.205 112.21 101.799L116.424 93.7437C117.648 93.697 118.867 93.5494 120.067 93.3023C120.587 93.192 121.071 92.9504 121.471 92.6006C121.872 92.2508 122.176 91.8043 122.355 91.3037Z" fill="white"/>
<path d="M93.4427 114.166C90.1199 114.162 86.801 113.943 83.5067 113.51C83.1939 113.467 82.9037 113.324 82.68 113.101C82.4564 112.878 82.3116 112.589 82.2679 112.276C82.2241 111.964 82.2837 111.646 82.4376 111.37C82.5915 111.095 82.8312 110.877 83.1203 110.751L86.4875 109.267C90.1069 107.672 93.2023 105.088 95.4177 101.812L103.477 89.8941C102.896 89.3759 102.349 88.821 101.839 88.2328C100.495 88.5445 99.0831 88.3526 97.871 87.6933C97.302 87.3137 96.8224 86.815 96.4655 86.2317C96.1086 85.6484 95.8828 84.9944 95.804 84.3152C95.1907 80.8208 95.3563 78.7976 96.4173 77.8045C96.7811 77.4943 97.2123 77.2735 97.6766 77.1596C98.141 77.0457 98.6255 77.0419 99.0915 77.1485C99.0915 75.7384 99.3368 72.293 101.349 70.2944C101.911 69.7481 102.588 69.3337 103.331 69.0814C104.073 68.829 104.863 68.745 105.642 68.8353C111.91 69.2583 116.682 65.3469 116.737 65.304C116.793 65.259 116.859 65.2264 116.928 65.2085C116.998 65.1905 117.071 65.1876 117.142 65.1998C117.214 65.2126 117.282 65.2412 117.341 65.2836C117.401 65.326 117.45 65.3812 117.485 65.445L117.645 65.7148C121.024 71.4347 126.232 82.3963 122.852 91.4636C122.642 92.0413 122.288 92.5558 121.823 92.9582C121.358 93.3606 120.798 93.6375 120.196 93.7626C119.064 93.9967 117.916 94.1443 116.762 94.204L112.683 102.002C112.503 102.339 112.405 102.712 112.395 103.093C112.385 103.474 112.464 103.853 112.626 104.198C112.788 104.543 113.029 104.845 113.328 105.082C113.627 105.318 113.978 105.481 114.351 105.558L117.05 106.134C117.325 106.191 117.576 106.331 117.769 106.535C117.962 106.739 118.088 106.997 118.129 107.275C118.175 107.547 118.137 107.826 118.02 108.076C117.903 108.326 117.712 108.534 117.473 108.672C109.905 113.068 100.723 114.166 93.4427 114.166ZM102.029 87.1905C102.102 87.1914 102.173 87.2078 102.239 87.2384C102.304 87.2691 102.363 87.3134 102.41 87.3683C103.032 88.1168 103.719 88.8082 104.464 89.4343C104.558 89.5132 104.619 89.6237 104.636 89.7448C104.653 89.8658 104.624 89.9888 104.556 90.0903L96.2518 102.352C93.9336 105.785 90.6909 108.493 86.8984 110.162L83.5373 111.646C83.4442 111.684 83.3663 111.751 83.3158 111.838C83.2654 111.925 83.2453 112.027 83.2586 112.126C83.272 112.226 83.318 112.318 83.3895 112.389C83.4611 112.459 83.5541 112.504 83.6539 112.516C89.8179 113.338 105.403 114.539 116.952 107.814C117.02 107.778 117.074 107.721 117.107 107.651C117.14 107.582 117.15 107.503 117.136 107.428C117.124 107.348 117.088 107.273 117.032 107.215C116.976 107.157 116.903 107.118 116.823 107.103L114.13 106.527C113.609 106.415 113.12 106.185 112.702 105.853C112.284 105.522 111.949 105.098 111.722 104.616C111.495 104.133 111.383 103.604 111.394 103.071C111.406 102.538 111.54 102.015 111.788 101.542L115.995 93.4929C116.035 93.416 116.095 93.3511 116.168 93.3048C116.241 93.2585 116.325 93.2324 116.412 93.2292C117.61 93.1779 118.801 93.0324 119.976 92.794C120.414 92.7033 120.822 92.5018 121.16 92.2088C121.498 91.9158 121.755 91.541 121.908 91.1203C125.183 82.2308 119.595 71.0239 116.89 66.4075C113.606 68.7853 109.614 69.9842 105.562 69.8101C104.926 69.7367 104.282 69.8035 103.675 70.0058C103.068 70.2081 102.512 70.541 102.048 70.981C99.8459 73.1697 100.091 77.6512 100.091 77.7248C100.097 77.801 100.084 77.8774 100.054 77.9477C100.024 78.018 99.978 78.0803 99.9195 78.1294C99.8614 78.1797 99.7923 78.2159 99.7178 78.2351C99.6433 78.2542 99.5654 78.2558 99.4901 78.2397C98.3493 77.9884 97.5705 78.0804 97.1043 78.5279C96.3438 79.2636 96.2395 81.1028 96.7854 84.1558C96.8439 84.6959 97.0183 85.2171 97.2967 85.6836C97.5751 86.1502 97.9509 86.5513 98.3985 86.8595C99.8889 87.7852 101.87 87.2273 101.888 87.2212C101.93 87.2039 101.973 87.1916 102.017 87.1844L102.029 87.1905Z" fill="#444444"/>
<path d="M115.364 94.3076C112.909 94.1991 110.518 93.4964 108.396 92.26C108.333 92.2307 108.276 92.1885 108.23 92.1359C108.184 92.0834 108.15 92.0218 108.129 91.9551C108.109 91.8884 108.103 91.8181 108.111 91.7489C108.12 91.6796 108.143 91.6129 108.179 91.5531C108.215 91.4934 108.263 91.4418 108.32 91.4019C108.377 91.3619 108.442 91.3345 108.511 91.3214C108.579 91.3082 108.65 91.3097 108.718 91.3256C108.786 91.3416 108.85 91.3717 108.905 91.414C108.948 91.414 112.763 93.713 116.363 93.2532C116.428 93.2451 116.494 93.2499 116.557 93.2672C116.62 93.2846 116.679 93.3142 116.73 93.3543C116.782 93.3945 116.825 93.4444 116.857 93.5012C116.89 93.558 116.91 93.6205 116.918 93.6853C116.926 93.7501 116.922 93.8159 116.904 93.8789C116.887 93.9418 116.857 94.0007 116.817 94.0523C116.777 94.1038 116.727 94.1469 116.67 94.1792C116.613 94.2114 116.551 94.2321 116.486 94.2402C116.113 94.2841 115.739 94.3066 115.364 94.3076Z" fill="#444444"/>
<path d="M263.772 143.09H262.594C262.462 143.09 262.336 143.037 262.243 142.944C262.15 142.851 262.097 142.725 262.097 142.593C262.097 142.462 262.15 142.335 262.243 142.242C262.336 142.149 262.462 142.097 262.594 142.097C264.544 142.097 266.538 142.097 268.488 141.95C268.62 141.943 268.748 141.988 268.847 142.075C268.946 142.162 269.006 142.284 269.016 142.415C269.02 142.48 269.011 142.544 268.99 142.606C268.969 142.667 268.937 142.723 268.894 142.771C268.851 142.82 268.799 142.859 268.741 142.888C268.683 142.916 268.62 142.933 268.556 142.937C266.986 143.041 265.366 143.09 263.772 143.09ZM256.675 142.74H256.626C254.651 142.544 252.664 142.262 250.708 141.9C250.579 141.877 250.465 141.803 250.391 141.696C250.317 141.588 250.288 141.456 250.312 141.327C250.336 141.199 250.409 141.085 250.517 141.011C250.624 140.937 250.757 140.908 250.885 140.932C252.818 141.281 254.78 141.545 256.724 141.753C256.846 141.772 256.957 141.835 257.035 141.93C257.113 142.025 257.153 142.146 257.147 142.269C257.141 142.392 257.089 142.508 257.002 142.596C256.915 142.683 256.798 142.734 256.675 142.74ZM274.462 142.299C274.337 142.298 274.218 142.25 274.127 142.165C274.036 142.08 273.98 141.964 273.971 141.839C273.961 141.715 273.999 141.592 274.077 141.494C274.154 141.396 274.265 141.331 274.389 141.312C276.327 141.024 278.271 140.644 280.172 140.19C280.237 140.173 280.304 140.168 280.37 140.178C280.436 140.187 280.5 140.209 280.557 140.244C280.614 140.278 280.664 140.324 280.703 140.377C280.743 140.431 280.771 140.493 280.786 140.558C280.805 140.622 280.811 140.689 280.803 140.756C280.795 140.822 280.773 140.886 280.739 140.944C280.705 141.001 280.659 141.051 280.605 141.09C280.551 141.129 280.489 141.157 280.424 141.171C278.492 141.631 276.517 142.017 274.554 142.311L274.462 142.299ZM245.022 140.588H244.893C242.98 140.067 241.06 139.46 239.195 138.749C239.076 138.705 238.979 138.616 238.925 138.502C238.87 138.388 238.861 138.257 238.901 138.136C238.947 138.018 239.035 137.922 239.149 137.868C239.263 137.813 239.394 137.804 239.514 137.842C241.354 138.516 243.243 139.117 245.126 139.632C245.246 139.659 245.351 139.729 245.422 139.83C245.492 139.931 245.522 140.054 245.506 140.175C245.49 140.297 245.428 140.408 245.334 140.487C245.24 140.566 245.12 140.606 244.997 140.601L245.022 140.588ZM285.999 139.552C285.883 139.55 285.772 139.507 285.685 139.431C285.598 139.355 285.54 139.251 285.521 139.137C285.502 139.023 285.523 138.906 285.582 138.806C285.64 138.706 285.731 138.63 285.839 138.59C287.679 137.977 289.556 137.284 291.359 136.518C291.481 136.467 291.617 136.466 291.739 136.515C291.861 136.565 291.958 136.66 292.01 136.781C292.036 136.841 292.05 136.906 292.05 136.971C292.051 137.036 292.039 137.101 292.014 137.162C291.99 137.222 291.953 137.277 291.907 137.324C291.861 137.37 291.806 137.406 291.746 137.431C289.906 138.204 288.066 138.909 286.158 139.528C286.103 139.547 286.045 139.555 285.987 139.552H285.999ZM233.865 136.518C233.793 136.516 233.722 136.499 233.657 136.469C231.854 135.635 230.069 134.709 228.339 133.728C228.225 133.662 228.141 133.554 228.106 133.426C228.072 133.298 228.089 133.162 228.155 133.048C228.221 132.933 228.33 132.849 228.458 132.815C228.585 132.78 228.721 132.798 228.836 132.864C230.535 133.839 232.295 134.746 234.074 135.574C234.175 135.622 234.257 135.703 234.306 135.804C234.355 135.905 234.368 136.019 234.344 136.128C234.32 136.238 234.259 136.336 234.173 136.406C234.086 136.477 233.977 136.516 233.865 136.518ZM296.898 134.924C296.807 134.923 296.719 134.898 296.641 134.852C296.564 134.805 296.5 134.739 296.456 134.66C296.396 134.544 296.384 134.408 296.423 134.283C296.462 134.158 296.549 134.053 296.665 133.992C298.394 133.078 300.112 132.079 301.762 131.025C301.872 130.966 302 130.952 302.12 130.983C302.241 131.015 302.345 131.091 302.412 131.196C302.48 131.301 302.505 131.427 302.483 131.55C302.461 131.673 302.394 131.783 302.295 131.858C300.621 132.925 298.885 133.937 297.131 134.862C297.06 134.903 296.98 134.924 296.898 134.924ZM223.555 130.632C223.456 130.634 223.36 130.604 223.279 130.546C221.642 129.425 220.029 128.217 218.495 126.96C218.444 126.919 218.402 126.868 218.371 126.811C218.34 126.754 218.32 126.691 218.314 126.626C218.307 126.561 218.313 126.495 218.331 126.433C218.35 126.37 218.381 126.312 218.422 126.261C218.506 126.161 218.627 126.098 218.758 126.085C218.888 126.073 219.019 126.112 219.121 126.194C220.636 127.42 222.224 128.646 223.837 129.731C223.923 129.792 223.987 129.878 224.02 129.977C224.054 130.077 224.055 130.184 224.024 130.284C223.992 130.384 223.93 130.472 223.846 130.534C223.762 130.597 223.66 130.631 223.555 130.632ZM306.889 128.529C306.813 128.531 306.738 128.514 306.67 128.481C306.602 128.448 306.543 128.4 306.497 128.339C306.417 128.235 306.383 128.104 306.4 127.974C306.417 127.844 306.485 127.727 306.589 127.647C308.146 126.457 309.655 125.194 311.121 123.876C311.169 123.833 311.225 123.799 311.286 123.777C311.347 123.756 311.411 123.746 311.476 123.749C311.541 123.752 311.604 123.768 311.663 123.796C311.721 123.823 311.774 123.862 311.817 123.91C311.861 123.958 311.894 124.014 311.916 124.075C311.938 124.136 311.948 124.2 311.944 124.265C311.941 124.33 311.926 124.393 311.898 124.451C311.87 124.51 311.831 124.562 311.784 124.606C310.312 125.942 308.766 127.23 307.19 128.431C307.103 128.495 306.997 128.53 306.889 128.529ZM214.368 123.122C214.239 123.121 214.116 123.07 214.024 122.981C212.601 121.602 211.209 120.149 209.902 118.653C209.854 118.605 209.817 118.547 209.792 118.484C209.767 118.42 209.755 118.353 209.758 118.285C209.76 118.216 209.777 118.15 209.806 118.088C209.835 118.027 209.877 117.972 209.928 117.927C209.98 117.883 210.04 117.849 210.105 117.829C210.17 117.808 210.238 117.801 210.306 117.808C210.374 117.815 210.439 117.836 210.499 117.87C210.558 117.903 210.61 117.949 210.651 118.003C211.939 119.474 213.306 120.909 214.717 122.295C214.809 122.388 214.861 122.513 214.861 122.644C214.861 122.775 214.809 122.9 214.717 122.993C214.671 123.038 214.616 123.072 214.556 123.094C214.496 123.116 214.432 123.126 214.368 123.122ZM315.69 120.566C315.564 120.566 315.442 120.52 315.347 120.437C315.255 120.344 315.203 120.218 315.203 120.088C315.203 119.957 315.255 119.831 315.347 119.738C316.684 118.303 317.978 116.801 319.192 115.269C319.233 115.218 319.283 115.176 319.339 115.144C319.396 115.113 319.458 115.093 319.523 115.085C319.587 115.078 319.652 115.083 319.714 115.101C319.777 115.119 319.835 115.149 319.886 115.189C319.936 115.229 319.979 115.279 320.01 115.336C320.042 115.392 320.062 115.455 320.069 115.519C320.076 115.583 320.071 115.648 320.053 115.711C320.036 115.773 320.006 115.831 319.965 115.882C318.739 117.433 317.426 118.947 316.071 120.412C316.022 120.465 315.964 120.506 315.898 120.533C315.832 120.561 315.761 120.574 315.69 120.572V120.566ZM206.554 114.196C206.477 114.196 206.4 114.179 206.331 114.145C206.262 114.111 206.202 114.061 206.155 114C204.977 112.4 203.849 110.732 202.806 109.046C202.772 108.991 202.749 108.929 202.739 108.864C202.728 108.8 202.731 108.734 202.746 108.671C202.776 108.543 202.856 108.432 202.969 108.363C203.081 108.293 203.216 108.272 203.344 108.302C203.473 108.333 203.583 108.413 203.653 108.525C204.677 110.193 205.787 111.836 206.952 113.43C207.03 113.535 207.063 113.668 207.043 113.798C207.024 113.927 206.954 114.044 206.848 114.122C206.76 114.178 206.658 114.205 206.554 114.202V114.196ZM323.044 111.265C322.955 111.263 322.869 111.237 322.793 111.19C322.717 111.144 322.655 111.078 322.614 110.999C322.572 110.92 322.552 110.832 322.555 110.743C322.559 110.654 322.586 110.568 322.633 110.493C323.719 108.862 324.743 107.17 325.7 105.454C325.768 105.348 325.873 105.273 325.994 105.242C326.116 105.211 326.244 105.227 326.354 105.286C326.465 105.346 326.548 105.445 326.588 105.563C326.628 105.682 326.622 105.811 326.571 105.926C325.614 107.667 324.571 109.389 323.474 111.045C323.427 111.116 323.363 111.174 323.288 111.213C323.213 111.253 323.129 111.273 323.044 111.272V111.265ZM200.328 104.117C200.237 104.118 200.147 104.093 200.069 104.045C199.991 103.997 199.928 103.929 199.887 103.847C198.991 102.082 198.157 100.249 197.433 98.4095C197.394 98.2913 197.401 98.1627 197.452 98.0491C197.503 97.9356 197.595 97.8454 197.709 97.7964C197.827 97.7556 197.957 97.7615 198.071 97.8128C198.185 97.864 198.275 97.9569 198.323 98.0723C199.059 99.8808 199.881 101.689 200.776 103.43C200.805 103.488 200.823 103.552 200.828 103.616C200.833 103.681 200.825 103.746 200.804 103.808C200.783 103.869 200.751 103.926 200.708 103.975C200.665 104.024 200.613 104.064 200.555 104.093C200.483 104.119 200.405 104.128 200.328 104.117ZM328.754 100.868C328.685 100.868 328.616 100.854 328.552 100.825C328.493 100.799 328.439 100.762 328.394 100.715C328.349 100.668 328.314 100.613 328.291 100.552C328.267 100.492 328.256 100.428 328.258 100.363C328.26 100.298 328.274 100.234 328.301 100.175C329.098 98.3849 329.828 96.5396 330.472 94.6575C330.515 94.5339 330.605 94.4325 330.723 94.3756C330.782 94.3474 330.845 94.331 330.91 94.3273C330.974 94.3236 331.039 94.3327 331.1 94.354C331.162 94.3753 331.218 94.4085 331.266 94.4516C331.315 94.4948 331.354 94.547 331.382 94.6054C331.411 94.6637 331.427 94.727 331.431 94.7917C331.434 94.8564 331.425 94.9212 331.404 94.9824C330.754 96.8584 330.012 98.7282 329.208 100.543C329.175 100.637 329.113 100.718 329.032 100.776C328.951 100.834 328.854 100.866 328.754 100.868ZM195.863 93.1248C195.758 93.1243 195.655 93.0902 195.57 93.0273C195.485 92.9645 195.422 92.8762 195.391 92.7754C194.778 90.881 194.293 88.9376 193.864 87.0003C193.842 86.8744 193.869 86.7449 193.94 86.6388C194.012 86.5326 194.121 86.458 194.246 86.4303C194.371 86.4027 194.501 86.4242 194.611 86.4904C194.72 86.5566 194.8 86.6623 194.833 86.7857C195.25 88.6984 195.759 90.6174 196.342 92.4811C196.378 92.6063 196.364 92.7407 196.302 92.8554C196.24 92.9701 196.135 93.0559 196.01 93.0942C195.966 93.1126 195.918 93.123 195.869 93.1248H195.863ZM332.637 89.661C332.596 89.6668 332.555 89.6668 332.514 89.661C332.45 89.6446 332.39 89.6157 332.338 89.5758C332.285 89.536 332.241 89.4861 332.208 89.429C332.174 89.372 332.153 89.3089 332.145 89.2434C332.136 89.178 332.141 89.1115 332.158 89.0479C332.643 87.1535 333.054 85.2101 333.385 83.2789C333.396 83.2147 333.419 83.1532 333.453 83.098C333.487 83.0427 333.532 82.9949 333.585 82.9572C333.639 82.9196 333.699 82.8928 333.762 82.8786C333.826 82.8644 333.891 82.8629 333.956 82.8743C334.02 82.8847 334.082 82.9078 334.137 82.9421C334.193 82.9764 334.241 83.0213 334.279 83.0743C334.317 83.1272 334.345 83.1872 334.36 83.2507C334.375 83.3142 334.377 83.3801 334.366 83.4445C334.035 85.4063 333.624 87.3681 333.14 89.2931C333.11 89.4 333.046 89.4939 332.957 89.5605C332.868 89.627 332.76 89.6623 332.649 89.661H332.637ZM193.306 81.544C193.186 81.5436 193.07 81.5 192.98 81.4211C192.89 81.3423 192.831 81.2335 192.815 81.1148C192.557 79.153 192.373 77.1544 192.275 75.1619C192.281 75.0389 192.333 74.9226 192.42 74.8355C192.507 74.7484 192.624 74.6968 192.747 74.6907C192.87 74.6846 192.991 74.7244 193.086 74.8024C193.181 74.8804 193.244 74.9911 193.263 75.1129C193.361 77.0747 193.539 79.0488 193.796 80.9861C193.805 81.0501 193.801 81.1152 193.784 81.1776C193.768 81.2401 193.739 81.2986 193.699 81.3499C193.66 81.4011 193.611 81.4441 193.555 81.4764C193.499 81.5086 193.437 81.5295 193.373 81.5378L193.306 81.544ZM334.6 77.9698H334.557C334.426 77.9573 334.305 77.8936 334.221 77.7925C334.137 77.6914 334.097 77.5611 334.109 77.4303C334.268 75.4868 334.348 73.5066 334.348 71.5448C334.34 71.4754 334.347 71.4051 334.369 71.3386C334.39 71.272 334.425 71.2107 334.472 71.1587C334.518 71.1066 334.575 71.0649 334.639 71.0364C334.703 71.0079 334.772 70.9932 334.842 70.9932C334.912 70.9932 334.981 71.0079 335.045 71.0364C335.108 71.0649 335.166 71.1066 335.212 71.1587C335.259 71.2107 335.294 71.272 335.315 71.3386C335.336 71.4051 335.343 71.4754 335.336 71.5448C335.336 73.5373 335.256 75.542 335.09 77.5161C335.081 77.6376 335.027 77.7514 334.939 77.8352C334.85 77.9191 334.734 77.9671 334.612 77.9698H334.6ZM334.833 70.7846C334.703 70.7847 334.578 70.734 334.486 70.6435C334.393 70.553 334.339 70.4299 334.336 70.3003C334.336 68.3385 334.189 66.3583 333.992 64.4149C333.98 64.285 334.02 64.1556 334.103 64.0547C334.185 63.9537 334.304 63.8893 334.434 63.8754C334.565 63.8632 334.695 63.9026 334.797 63.9851C334.899 64.0676 334.964 64.1866 334.98 64.3168C335.176 66.2909 335.293 68.2956 335.329 70.2819C335.33 70.3471 335.318 70.4119 335.294 70.4724C335.27 70.533 335.234 70.5882 335.188 70.6348C335.143 70.6815 335.088 70.7188 335.028 70.7445C334.968 70.7702 334.904 70.7838 334.839 70.7846H334.833ZM192.717 69.6995C192.586 69.6947 192.463 69.6386 192.373 69.5433C192.283 69.448 192.235 69.3214 192.238 69.1907C192.306 67.2043 192.453 65.1996 192.68 63.2316C192.707 63.1124 192.777 63.0074 192.877 62.9366C192.976 62.8658 193.099 62.8342 193.22 62.8478C193.342 62.8615 193.454 62.9195 193.535 63.0106C193.617 63.1018 193.662 63.2198 193.661 63.342C193.441 65.2854 193.293 67.2656 193.232 69.2213C193.227 69.3509 193.172 69.4734 193.078 69.5628C192.984 69.6521 192.859 69.7012 192.729 69.6995H192.717ZM333.661 58.9892C333.545 58.9898 333.432 58.9496 333.342 58.8757C333.253 58.8018 333.192 58.6987 333.17 58.5846C332.815 56.6595 332.373 54.7223 331.852 52.8401C331.824 52.7156 331.845 52.5851 331.91 52.4756C331.976 52.3662 332.081 52.2862 332.204 52.2523C332.328 52.2184 332.459 52.2332 332.571 52.2935C332.684 52.3539 332.769 52.4552 332.809 52.5765C333.33 54.4893 333.784 56.4511 334.146 58.4007C334.169 58.5299 334.14 58.6631 334.065 58.7711C333.991 58.8791 333.876 58.9531 333.747 58.9769L333.661 58.9892ZM194.097 57.9225H193.999C193.932 57.9095 193.868 57.8831 193.812 57.8448C193.756 57.8066 193.708 57.7573 193.671 57.7C193.634 57.6427 193.61 57.5785 193.599 57.5113C193.587 57.4442 193.59 57.3755 193.606 57.3094C194.005 55.3599 194.483 53.4103 195.035 51.5098C195.049 51.4423 195.076 51.3784 195.115 51.322C195.155 51.2656 195.206 51.218 195.265 51.1823C195.323 51.1466 195.389 51.1235 195.457 51.1144C195.525 51.1054 195.595 51.1107 195.661 51.1298C195.727 51.149 195.788 51.1817 195.841 51.2259C195.894 51.2701 195.937 51.3247 195.968 51.3863C195.998 51.448 196.016 51.5154 196.019 51.5841C196.022 51.6528 196.011 51.7215 195.986 51.7857C195.44 53.6555 194.968 55.5867 194.581 57.5056C194.561 57.6204 194.502 57.7248 194.414 57.8009C194.325 57.8769 194.213 57.9199 194.097 57.9225ZM330.521 47.5494C330.419 47.5494 330.32 47.5182 330.237 47.4601C330.153 47.402 330.09 47.3198 330.055 47.2245C329.386 45.3853 328.626 43.5461 327.798 41.7865C327.77 41.7279 327.754 41.6642 327.751 41.5993C327.748 41.5344 327.758 41.4696 327.78 41.4085C327.802 41.3475 327.836 41.2915 327.881 41.2438C327.925 41.1961 327.978 41.1576 328.037 41.1306C328.156 41.0761 328.291 41.0706 328.414 41.1154C328.537 41.1601 328.637 41.2515 328.693 41.3697C329.533 43.1721 330.306 45.0481 330.987 46.8873C331.027 47.0077 331.018 47.1388 330.963 47.2531C330.909 47.3674 330.811 47.456 330.693 47.5003C330.639 47.5287 330.581 47.5454 330.521 47.5494ZM197.427 46.5317C197.366 46.534 197.306 46.5236 197.249 46.501C197.133 46.4543 197.038 46.3651 196.984 46.2513C196.931 46.1375 196.923 46.0077 196.961 45.888C197.673 44.0488 198.476 42.2096 199.347 40.3704C199.412 40.2668 199.513 40.1909 199.63 40.157C199.748 40.1232 199.874 40.1339 199.984 40.187C200.094 40.2401 200.181 40.332 200.227 40.445C200.274 40.558 200.277 40.6842 200.236 40.7995C199.378 42.5651 198.593 44.3859 197.887 46.2129C197.851 46.3096 197.785 46.3924 197.7 46.4497C197.614 46.5069 197.512 46.5356 197.409 46.5317H197.427ZM325.534 36.8084C325.447 36.8086 325.361 36.7854 325.286 36.7412C325.21 36.697 325.148 36.6334 325.105 36.5571C324.13 34.8589 323.075 33.1852 321.965 31.5728C321.891 31.4635 321.863 31.3297 321.888 31.2001C321.912 31.0706 321.986 30.9556 322.094 30.8801C322.147 30.843 322.207 30.8168 322.271 30.8032C322.334 30.7896 322.4 30.7888 322.464 30.8008C322.528 30.8127 322.589 30.8373 322.643 30.873C322.698 30.9087 322.744 30.9549 322.781 31.0088C323.909 32.6457 324.976 34.3439 325.964 36.0666C326.028 36.1806 326.045 36.3153 326.011 36.4416C325.976 36.5679 325.893 36.6755 325.78 36.741C325.699 36.7861 325.608 36.8094 325.516 36.8084H325.534ZM202.604 35.8582C202.516 35.8568 202.429 35.8336 202.352 35.7907C202.24 35.7231 202.158 35.6139 202.124 35.4867C202.091 35.3595 202.109 35.2244 202.174 35.1102C203.186 33.4059 204.284 31.72 205.437 30.1015C205.517 30.0056 205.63 29.9433 205.754 29.927C205.878 29.9107 206.003 29.9415 206.105 30.0134C206.207 30.0852 206.279 30.1928 206.305 30.3148C206.331 30.4368 206.31 30.5642 206.247 30.6716C205.106 32.2717 204.027 33.9331 203.027 35.613C202.983 35.69 202.918 35.7535 202.84 35.7967C202.762 35.8399 202.674 35.8611 202.585 35.8582H202.604ZM318.806 27.0423C318.732 27.0428 318.659 27.0265 318.592 26.9946C318.525 26.9628 318.466 26.9162 318.42 26.8583C317.193 25.3441 315.862 23.8666 314.494 22.4626C314.402 22.3686 314.35 22.242 314.35 22.1101C314.35 21.9782 314.402 21.8516 314.494 21.7576C314.587 21.6655 314.713 21.6138 314.844 21.6138C314.975 21.6138 315.101 21.6655 315.194 21.7576C316.58 23.1861 317.917 24.6881 319.174 26.2208C319.235 26.2925 319.275 26.3804 319.288 26.4739C319.3 26.5675 319.286 26.6627 319.246 26.7481C319.205 26.8335 319.141 26.9056 319.061 26.9556C318.981 27.0056 318.888 27.0314 318.794 27.03L318.806 27.0423ZM209.485 26.1901C209.368 26.1916 209.255 26.1501 209.166 26.0736C209.117 26.0323 209.076 25.9815 209.046 25.9242C209.016 25.867 208.997 25.8043 208.992 25.74C208.986 25.6756 208.993 25.6107 209.013 25.5491C209.032 25.4875 209.063 25.4303 209.105 25.3809C210.387 23.8666 211.749 22.383 213.153 20.979C213.248 20.9008 213.369 20.8608 213.493 20.8669C213.616 20.8729 213.732 20.9246 213.82 21.0117C213.907 21.0989 213.958 21.2154 213.965 21.3385C213.971 21.4616 213.931 21.5826 213.852 21.6779C212.466 23.0635 211.123 24.5225 209.866 26.0184C209.817 26.0757 209.755 26.121 209.686 26.1507C209.617 26.1805 209.542 26.194 209.467 26.1901H209.485ZM310.551 18.5206C310.431 18.5232 310.314 18.4792 310.226 18.398C308.747 17.1106 307.202 15.866 305.626 14.7196C305.573 14.6814 305.528 14.633 305.494 14.5773C305.46 14.5215 305.438 14.4596 305.428 14.3951C305.418 14.3306 305.421 14.2648 305.438 14.2016C305.454 14.1383 305.482 14.0789 305.521 14.0268C305.6 13.9214 305.716 13.8513 305.846 13.8317C305.976 13.8122 306.109 13.8449 306.214 13.9226C307.809 15.0997 309.379 16.3749 310.876 17.6685C310.974 17.7557 311.033 17.8781 311.041 18.009C311.049 18.14 311.005 18.2688 310.919 18.3674C310.87 18.4203 310.81 18.4616 310.743 18.4881C310.676 18.5147 310.604 18.5258 310.532 18.5206H310.551ZM217.87 17.8033C217.769 17.8018 217.672 17.7698 217.59 17.7116C217.508 17.6534 217.446 17.5719 217.411 17.4776C217.376 17.3833 217.371 17.2808 217.396 17.1835C217.421 17.0862 217.475 16.9988 217.551 16.9328C219.072 15.6453 220.654 14.4069 222.267 13.2544C222.319 13.2087 222.381 13.1745 222.447 13.1538C222.513 13.1332 222.583 13.1266 222.651 13.1345C222.72 13.1424 222.787 13.1646 222.846 13.1997C222.906 13.2348 222.958 13.282 222.998 13.3383C223.039 13.3946 223.067 13.4587 223.081 13.5265C223.095 13.5944 223.095 13.6644 223.08 13.7321C223.066 13.7999 223.037 13.8638 222.997 13.9198C222.956 13.9758 222.904 14.0227 222.844 14.0575C221.255 15.1917 219.691 16.4117 218.189 17.6807C218.095 17.7612 217.975 17.8048 217.851 17.8033H217.87ZM300.995 11.4826C300.903 11.4858 300.813 11.46 300.737 11.4091C299.063 10.3852 297.333 9.41659 295.585 8.53377C295.527 8.5052 295.475 8.46519 295.432 8.41613C295.39 8.36707 295.358 8.30992 295.338 8.24815C295.318 8.18639 295.31 8.12122 295.316 8.05653C295.322 7.99185 295.34 7.92899 295.371 7.87165C295.399 7.8134 295.439 7.76141 295.488 7.71872C295.537 7.67603 295.594 7.64349 295.656 7.62296C295.717 7.60243 295.782 7.59432 295.847 7.59913C295.912 7.60393 295.975 7.62156 296.033 7.65095C297.806 8.54603 299.56 9.52691 301.252 10.5691C301.346 10.624 301.419 10.7084 301.46 10.809C301.5 10.9097 301.506 11.0209 301.477 11.1253C301.447 11.2297 301.384 11.3215 301.297 11.3861C301.21 11.4508 301.103 11.4847 300.995 11.4826ZM227.511 10.9308C227.425 10.931 227.339 10.9084 227.264 10.8654C227.189 10.8224 227.126 10.7604 227.082 10.6856C227.049 10.6297 227.027 10.5679 227.019 10.5037C227.01 10.4394 227.014 10.374 227.03 10.3113C227.047 10.2486 227.075 10.1898 227.115 10.1383C227.154 10.0868 227.204 10.0436 227.26 10.0112C228.965 8.99356 230.731 8.0433 232.516 7.17274C232.634 7.11548 232.77 7.1072 232.894 7.14969C233.018 7.19219 233.12 7.28201 233.179 7.39957C233.208 7.45783 233.225 7.52132 233.229 7.58633C233.234 7.65134 233.225 7.71657 233.204 7.77821C233.183 7.83985 233.15 7.89669 233.106 7.94536C233.063 7.99403 233.01 8.03358 232.952 8.0617C231.191 8.91999 229.443 9.85798 227.763 10.8573C227.687 10.9047 227.6 10.9302 227.511 10.9308ZM290.384 6.14893C290.319 6.14925 290.254 6.13676 290.194 6.11215C288.354 5.37647 286.514 4.7082 284.637 4.13191C284.523 4.08433 284.431 3.99581 284.378 3.88368C284.326 3.77155 284.317 3.64392 284.354 3.52577C284.391 3.40761 284.471 3.30745 284.577 3.24494C284.684 3.18243 284.811 3.16205 284.932 3.1878C286.827 3.80087 288.722 4.45073 290.568 5.19255C290.675 5.2359 290.763 5.31474 290.817 5.41567C290.872 5.51661 290.89 5.63337 290.868 5.74612C290.847 5.85886 290.787 5.96062 290.698 6.03405C290.61 6.10749 290.499 6.14809 290.384 6.14893ZM238.177 5.74428C238.078 5.7457 237.98 5.71648 237.898 5.66054C237.816 5.6046 237.752 5.52468 237.717 5.43165C237.677 5.31279 237.684 5.18293 237.736 5.06888C237.788 4.95483 237.883 4.86526 237.999 4.81858C239.839 4.10743 241.759 3.46367 243.66 2.90578C243.782 2.88151 243.909 2.90388 244.015 2.96842C244.122 3.03296 244.2 3.13499 244.234 3.25437C244.269 3.37375 244.258 3.50178 244.203 3.61318C244.147 3.72458 244.052 3.81127 243.936 3.85606C242.06 4.40169 240.183 5.03926 238.355 5.74428C238.296 5.75199 238.235 5.74785 238.177 5.73205V5.74428ZM279.044 2.64216C279.009 2.6485 278.974 2.6485 278.939 2.64216C277.026 2.22528 275.075 1.88198 273.131 1.62449C273.001 1.60765 272.883 1.54024 272.803 1.43691C272.723 1.33358 272.686 1.20268 272.702 1.07271C272.72 0.942394 272.789 0.824452 272.893 0.744214C272.998 0.663976 273.129 0.627833 273.26 0.643558C275.235 0.907177 277.216 1.25663 279.148 1.67964C279.274 1.69748 279.388 1.76357 279.466 1.86389C279.544 1.96422 279.581 2.09094 279.567 2.21739C279.553 2.34384 279.491 2.46012 279.394 2.54166C279.296 2.62319 279.171 2.66362 279.044 2.65444V2.64216ZM249.561 2.42147C249.439 2.41877 249.323 2.37184 249.234 2.28949C249.145 2.20714 249.089 2.09507 249.077 1.97443C249.065 1.85378 249.098 1.7329 249.169 1.63455C249.24 1.53621 249.344 1.46722 249.463 1.44058C251.407 1.04821 253.394 0.729393 255.369 0.496428C255.5 0.480981 255.632 0.518185 255.735 0.599816C255.839 0.681446 255.905 0.80083 255.921 0.931719C255.936 1.06261 255.899 1.19427 255.817 1.29775C255.736 1.40122 255.616 1.46805 255.486 1.48349C253.535 1.71033 251.579 2.02296 249.665 2.4092L249.561 2.42147ZM267.286 1.08499C265.33 0.993026 263.318 0.974629 261.386 1.04207C261.264 1.02851 261.152 0.970681 261.071 0.879632C260.989 0.788584 260.944 0.670715 260.944 0.548552C260.944 0.426389 260.989 0.30852 261.071 0.217472C261.152 0.126423 261.264 0.0685899 261.386 0.0550372C263.336 -0.0124003 265.379 -0.000134423 267.36 0.0979564C267.481 0.111509 267.593 0.169343 267.675 0.260391C267.756 0.351439 267.801 0.469308 267.801 0.591471C267.801 0.713635 267.756 0.831503 267.675 0.922552C267.593 1.0136 267.481 1.07143 267.36 1.08499H267.286Z" fill="#444444"/>
<path d="M263.772 10.8516C251.763 10.8516 240.023 14.4112 230.038 21.0803C220.052 27.7494 212.27 37.2284 207.674 48.3188C203.078 59.4091 201.876 71.6126 204.219 83.386C206.561 95.1594 212.344 105.974 220.836 114.462C229.328 122.95 240.147 128.731 251.926 131.073C263.705 133.415 275.913 132.213 287.008 127.619C298.104 123.025 307.587 115.246 314.259 105.265C320.931 95.2838 324.492 83.5493 324.492 71.5452C324.492 55.4483 318.095 40.0106 306.707 28.6283C295.32 17.2461 279.876 10.8516 263.772 10.8516ZM263.772 120.885C254.009 120.885 244.466 117.991 236.348 112.57C228.231 107.148 221.904 99.4423 218.168 90.4267C214.432 81.4111 213.455 71.4905 215.359 61.9195C217.264 52.3486 221.965 43.5571 228.868 36.6568C235.772 29.7565 244.567 25.0574 254.142 23.1536C263.717 21.2498 273.642 22.2269 282.662 25.9613C291.681 29.6957 299.39 36.0197 304.814 44.1336C310.238 52.2475 313.133 61.7868 313.133 71.5452C313.133 84.6309 307.933 97.1807 298.676 106.434C289.419 115.687 276.863 120.885 263.772 120.885Z" fill="white"/>
<path d="M263.772 132.735C251.664 132.735 239.828 129.146 229.761 122.423C219.694 115.699 211.848 106.142 207.215 94.9613C202.581 83.7802 201.369 71.4769 203.731 59.6071C206.093 47.7374 211.923 36.8344 220.485 28.2767C229.046 19.7191 239.954 13.8913 251.829 11.5303C263.704 9.16924 276.012 10.381 287.198 15.0123C298.384 19.6437 307.945 27.4866 314.672 37.5493C321.398 47.612 324.989 59.4425 324.989 71.5448C324.971 87.768 318.515 103.322 307.039 114.793C295.562 126.265 280.002 132.717 263.772 132.735ZM263.772 11.3477C251.859 11.3477 240.215 14.8785 230.31 21.4937C220.405 28.109 212.686 37.5114 208.127 48.5121C203.568 59.5128 202.376 71.6177 204.7 83.2959C207.023 94.9742 212.76 105.701 221.183 114.121C229.606 122.541 240.338 128.274 252.021 130.597C263.705 132.92 275.815 131.728 286.82 127.171C297.826 122.615 307.232 114.898 313.851 104.998C320.469 95.0977 324.001 83.458 324.001 71.5509C323.985 55.5884 317.634 40.2843 306.343 28.9966C295.051 17.7088 279.741 11.3594 263.772 11.3415V11.3477ZM263.772 121.387C253.911 121.387 244.271 118.464 236.072 112.988C227.873 107.512 221.483 99.7288 217.709 90.6224C213.935 81.516 212.948 71.4956 214.872 61.8283C216.795 52.161 221.544 43.2811 228.517 36.3113C235.49 29.3416 244.373 24.5952 254.045 22.6722C263.716 20.7493 273.741 21.7362 282.852 25.5082C291.962 29.2802 299.749 35.6678 305.227 43.8634C310.705 52.0589 313.63 61.6942 313.63 71.5509C313.612 84.7623 308.353 97.4273 299.007 106.769C289.66 116.11 276.989 121.365 263.772 121.381V121.387ZM263.772 22.6833C254.106 22.6833 244.657 25.5483 236.621 30.9159C228.584 36.2835 222.32 43.9127 218.621 52.8387C214.922 61.7648 213.954 71.5867 215.84 81.0625C217.726 90.5383 222.38 99.2424 229.215 106.074C236.05 112.906 244.757 117.558 254.237 119.443C263.717 121.328 273.544 120.361 282.474 116.663C291.404 112.966 299.036 106.705 304.406 98.6717C309.776 90.6385 312.642 81.194 312.642 71.5325C312.624 58.5835 307.469 46.1701 298.308 37.0149C289.146 27.8597 276.726 22.7102 263.772 22.6956V22.6833Z" fill="#444444"/>
<path d="M227.634 37.9361L219.581 29.9355C216.821 32.8535 214.356 36.0364 212.221 39.4381L222.034 45.1703C223.672 42.5904 225.547 40.1686 227.634 37.9361Z" fill="white"/>
<path d="M222.071 45.6371C221.982 45.6364 221.895 45.6109 221.819 45.5635L212.006 39.8375C211.891 39.7697 211.807 39.6597 211.773 39.5309C211.743 39.3991 211.765 39.2608 211.834 39.1447C213.985 35.718 216.464 32.5087 219.237 29.5625C219.283 29.5138 219.338 29.4751 219.399 29.4487C219.46 29.4224 219.526 29.4089 219.593 29.4092C219.726 29.4098 219.854 29.4626 219.948 29.5563L227.983 37.5875C228.072 37.6799 228.121 37.8029 228.121 37.9308C228.121 38.0587 228.072 38.1817 227.983 38.2741C225.926 40.4749 224.078 42.8618 222.463 45.4041C222.42 45.4708 222.363 45.5266 222.294 45.5671C222.226 45.6075 222.15 45.6315 222.071 45.6371ZM212.95 39.2428L221.905 44.4723C223.408 42.1646 225.096 39.9831 226.953 37.9492L219.593 30.5924C217.121 33.2687 214.898 36.1641 212.95 39.2428Z" fill="#444444"/>
<path d="M265.581 10.876V22.2361C276.967 22.6311 287.863 26.965 296.407 34.4975L304.221 26.2579C293.565 16.7263 279.875 11.2766 265.581 10.876Z" fill="white"/>
<path d="M296.377 34.9997C296.257 34.9993 296.142 34.9558 296.052 34.8771C287.583 27.4332 276.802 23.1429 265.532 22.7323C265.404 22.7275 265.282 22.6731 265.193 22.5805C265.103 22.4878 265.054 22.3643 265.054 22.2357V10.8755C265.054 10.809 265.068 10.7433 265.094 10.6822C265.121 10.6211 265.159 10.566 265.207 10.52C265.254 10.4749 265.31 10.4398 265.371 10.4167C265.432 10.3935 265.498 10.3828 265.563 10.3851C279.966 10.8067 293.76 16.2925 304.516 25.8773C304.615 25.9675 304.674 26.093 304.681 26.2268C304.684 26.293 304.674 26.3591 304.65 26.4213C304.627 26.4834 304.592 26.5402 304.546 26.5884L296.739 34.8403C296.693 34.8906 296.637 34.9307 296.575 34.9581C296.512 34.9855 296.445 34.9997 296.377 34.9997ZM266.047 21.7636C277.212 22.279 287.88 26.5231 296.346 33.8165L303.479 26.2574C293.085 17.1528 279.876 11.8954 266.066 11.366L266.047 21.7636Z" fill="#444444"/>
<path d="M298.959 36.9435C304.93 43.0187 309.229 50.5326 311.441 58.757C313.652 66.9814 313.701 75.6374 311.581 83.886L322.45 87.215C325.186 76.9447 325.179 66.1363 322.428 55.8699C319.677 45.6034 314.279 36.2382 306.773 28.71L298.959 36.9435Z" fill="#444444"/>
<path d="M299.928 105.153L307.962 113.184C314.054 106.741 318.66 99.0425 321.456 90.6295L310.587 87.3066C308.343 93.945 304.709 100.029 299.928 105.153Z" fill="#1F75BA"/>
<path d="M228.585 106.147C221.198 98.6381 216.406 88.9648 214.911 78.5404C213.416 68.1159 215.295 57.4867 220.274 48.2058L210.461 42.4736C204.191 53.9734 201.811 67.1918 203.676 80.1549C205.541 93.1181 211.55 105.131 220.808 114.399L228.585 106.147Z" fill="#444444"/>
<path d="M297.395 107.667C288.727 115.752 277.429 120.435 265.581 120.854V132.214C280.449 131.794 294.642 125.914 305.448 115.698L297.395 107.667Z" fill="white"/>
<path d="M265.581 132.711C265.453 132.709 265.33 132.658 265.237 132.57C265.189 132.524 265.15 132.469 265.124 132.408C265.097 132.347 265.084 132.281 265.084 132.214V120.854C265.084 120.725 265.134 120.602 265.223 120.509C265.312 120.417 265.434 120.362 265.562 120.357C277.299 119.939 288.492 115.305 297.088 107.305C297.18 107.215 297.303 107.165 297.431 107.165C297.56 107.165 297.683 107.215 297.775 107.305L305.816 115.336C305.861 115.383 305.898 115.439 305.922 115.5C305.946 115.561 305.958 115.626 305.957 115.692C305.957 115.759 305.943 115.825 305.917 115.886C305.891 115.947 305.852 116.002 305.803 116.048C294.897 126.349 280.58 132.28 265.581 132.711ZM266.078 121.326V131.705C280.473 131.173 294.199 125.49 304.755 115.692L297.395 108.335C288.79 116.201 277.696 120.799 266.047 121.326H266.078Z" fill="#444444"/>
<path d="M230.148 35.4539C238.825 27.3634 250.134 22.68 261.993 22.2668V10.876C247.124 11.2932 232.931 17.1733 222.126 27.392L230.148 35.4539Z" fill="#1F75BA"/>
<path d="M261.993 132.214V120.854C250.607 120.459 239.712 116.125 231.167 108.593L223.359 116.845C234.015 126.371 247.703 131.817 261.993 132.214Z" fill="white"/>
<path d="M261.993 132.711C247.589 132.284 233.797 126.796 223.04 117.213C222.941 117.122 222.882 116.997 222.874 116.863C222.872 116.797 222.882 116.731 222.905 116.669C222.928 116.607 222.964 116.55 223.009 116.501L230.817 108.25C230.909 108.16 231.032 108.109 231.161 108.109C231.289 108.109 231.412 108.16 231.504 108.25C239.974 115.69 250.755 119.977 262.024 120.388C262.153 120.392 262.275 120.445 262.365 120.538C262.454 120.631 262.504 120.756 262.502 120.885V132.245C262.501 132.378 262.449 132.506 262.355 132.601C262.252 132.681 262.123 132.72 261.993 132.711ZM224.07 116.808C234.463 125.916 247.673 131.174 261.484 131.699V121.326C250.318 120.811 239.647 116.567 231.179 109.273L224.07 116.808Z" fill="#444444"/>
<path d="M263.772 110.922C258.77 110.929 253.813 109.98 249.168 108.127C249.103 108.106 249.043 108.072 248.991 108.027C248.94 107.983 248.898 107.928 248.869 107.866C248.84 107.804 248.824 107.737 248.822 107.669C248.819 107.6 248.831 107.532 248.857 107.469C248.882 107.406 248.92 107.348 248.969 107.3C249.018 107.252 249.076 107.215 249.139 107.19C249.203 107.165 249.271 107.154 249.34 107.157C249.408 107.16 249.475 107.177 249.536 107.207C254.428 109.153 259.668 110.074 264.93 109.913C270.193 109.751 275.366 108.511 280.13 106.27C284.893 104.028 289.145 100.833 292.623 96.881C296.1 92.9294 298.728 88.3061 300.345 83.2976C300.389 83.1764 300.478 83.077 300.594 83.0203C300.71 82.9636 300.843 82.9542 300.966 82.994C301.088 83.0338 301.191 83.1197 301.251 83.2336C301.312 83.3474 301.325 83.4803 301.289 83.6041C298.754 91.5533 293.75 98.4876 287.003 103.4C280.256 108.313 272.119 110.948 263.772 110.922Z" fill="#444444"/>
<path d="M301.596 62.9379C301.486 62.9368 301.378 62.8989 301.292 62.83C301.205 62.7612 301.144 62.6653 301.118 62.5578C300.316 59.2612 299.079 56.0862 297.438 53.1165C297.387 53.0023 297.381 52.8729 297.421 52.7543C297.461 52.6358 297.544 52.5367 297.655 52.4771C297.765 52.4174 297.893 52.4015 298.015 52.4325C298.136 52.4635 298.241 52.5392 298.309 52.6444C299.982 55.6921 301.241 58.9498 302.05 62.3309C302.068 62.3954 302.072 62.4626 302.063 62.5287C302.053 62.5948 302.031 62.6584 301.997 62.7156C301.962 62.7728 301.917 62.8225 301.863 62.8618C301.809 62.901 301.747 62.929 301.682 62.944L301.596 62.9379Z" fill="#444444"/>
<path d="M238.766 101.824C238.65 101.823 238.537 101.782 238.447 101.708C231.463 95.8383 226.733 87.7279 225.065 78.7608C223.396 69.7937 224.893 60.5257 229.299 52.5387C233.705 44.5516 240.748 38.3404 249.225 34.9652C257.702 31.59 267.088 31.2599 275.781 34.0314C275.902 34.0751 276.002 34.1643 276.059 34.2801C276.115 34.3959 276.125 34.5292 276.085 34.6518C276.045 34.7744 275.959 34.8767 275.845 34.9371C275.731 34.9975 275.598 35.0112 275.474 34.9755C266.998 32.2661 257.844 32.5828 249.576 35.8714C241.308 39.16 234.439 45.2164 230.142 53.0059C225.846 60.7953 224.389 69.8344 226.02 78.5785C227.651 87.3227 232.269 95.2295 239.085 100.948C239.163 101.013 239.219 101.101 239.246 101.199C239.272 101.298 239.267 101.402 239.233 101.497C239.198 101.593 239.134 101.676 239.051 101.734C238.968 101.793 238.868 101.824 238.766 101.824Z" fill="#444444"/>
</svg>
