<svg width="283" height="265" viewBox="0 0 283 265" fill="none" xmlns="http://www.w3.org/2000/svg">
<g clip-path="url(#clip0_4545_4824)">
<path d="M83.6121 104.73C83.0676 104.73 82.5232 104.684 81.9788 104.593L11.4783 92.2056C6.26113 91.298 2.04199 86.1705 2.04199 80.816V8.3494C2.04199 5.67218 3.04007 3.35796 4.90012 1.81516C6.7148 0.272348 9.11926 -0.317549 11.6598 0.136218L82.1603 12.5241C87.3775 13.4316 91.5967 18.5592 91.5967 23.9136V96.4256C91.5967 99.1028 90.5986 101.417 88.7385 102.96C87.3322 104.094 85.5175 104.73 83.6121 104.73ZM10.0266 0.998376C8.34802 0.998376 6.76017 1.5429 5.53526 2.58656C3.90204 3.94786 3.04007 5.98981 3.04007 8.3494V80.816C3.04007 85.7167 6.89627 90.3451 11.6598 91.2073L82.1603 103.595C84.4287 104.004 86.5155 103.459 88.1034 102.143C89.7366 100.782 90.5986 98.7398 90.5986 96.3802V23.9136C90.5986 19.0129 86.7424 14.3845 81.9788 13.5223L11.4783 1.13451C10.9793 1.04375 10.4803 0.998376 10.0266 0.998376Z" fill="#444444"/>
<path d="M60.9289 42.7895C57.2541 42.2904 51.3111 42.5626 50.4491 41.4282C49.5871 40.2938 54.6682 35.257 55.3034 30.9462C55.9385 26.6354 54.5775 18.2407 41.9201 17.4693C31.531 16.7887 9.52795 24.775 8.84744 49.2784C7.39569 99.5558 62.6528 89.3007 66.4637 60.3503C68.1423 47.3272 64.6036 43.2887 60.9289 42.7895ZM46.8197 53.5438C45.2319 56.4025 42.5552 57.7638 40.7859 56.5387C39.0166 55.3135 38.8805 52.001 40.4683 49.0969C42.0562 46.2382 44.7328 44.8768 46.5021 46.102C48.2715 47.3272 48.4076 50.6851 46.8197 53.5438Z" fill="white"/>
<path d="M35.9313 85.0356C35.024 85.0356 34.162 84.9902 33.2547 84.8995C25.9959 84.2642 19.826 81.0424 15.4708 75.5972C10.435 69.2899 8.03055 60.4414 8.34812 49.2787C8.62032 39.8404 12.159 31.7633 18.5557 25.9097C25.9052 19.194 35.6138 16.5621 41.9651 16.9705C47.2277 17.2882 51.0839 18.9217 53.443 21.8258C56.2558 25.2745 56.0289 29.4037 55.8021 30.9919C55.4392 33.3969 53.806 35.9834 52.4903 38.0707C51.7644 39.2051 50.7664 40.7479 50.9025 41.1109C51.3108 41.6554 54.3957 41.7916 56.6641 41.9277C57.7075 41.9731 58.751 42.0185 59.7491 42.1092C60.0213 42.1546 60.2481 42.3815 60.2027 42.6537C60.1574 42.926 59.9305 43.1529 59.6583 43.1075C58.7056 43.0168 57.6622 42.9714 56.6187 42.926C52.9894 42.7445 50.7664 42.563 50.0859 41.7008C49.4961 40.884 50.3127 39.6135 51.6737 37.5262C52.944 35.5296 54.5318 33.0793 54.8494 30.8558C55.0762 29.4037 55.2577 25.6375 52.7171 22.4611C50.5395 19.7839 46.9102 18.2411 41.9198 17.9688C35.9767 17.6058 26.3589 20.1469 19.2362 26.6811C12.9302 32.444 9.6184 40.0673 9.34619 49.3695C8.75642 69.6529 17.7391 82.5852 33.3454 83.9919C47.1824 85.2171 63.5599 76.2325 65.8736 60.8498C65.919 60.5775 66.1912 60.396 66.4634 60.4414C66.7356 60.4868 66.917 60.759 66.8717 61.0313C65.7829 68.2462 61.473 74.7351 54.7587 79.2727C49.1785 82.9483 42.4188 85.0356 35.9313 85.0356ZM42.2373 57.4919C41.6022 57.4919 41.0124 57.3104 40.468 56.9474C38.4719 55.5407 38.2904 52.0013 40.0144 48.8703C41.0578 46.9645 42.6003 45.6486 44.1881 45.2402C45.1408 45.0133 46.0482 45.1495 46.7741 45.694C48.7702 47.1007 48.9517 50.64 47.2277 53.771C46.1843 55.6769 44.6418 56.9928 43.054 57.4012C42.8271 57.4465 42.5096 57.4919 42.2373 57.4919ZM45.0501 46.1477C44.8686 46.1477 44.6418 46.1931 44.4603 46.2385C43.1447 46.5561 41.829 47.6906 40.9217 49.3695C39.47 52.0013 39.5607 55.087 41.0578 56.1306C41.5568 56.4936 42.192 56.5844 42.8271 56.4029C44.1428 56.0852 45.4584 54.9508 46.3658 53.2719C47.8175 50.64 47.7268 47.5544 46.2297 46.5108C45.8667 46.2839 45.5038 46.1477 45.0501 46.1477Z" fill="#444444"/>
<path d="M50.1313 31.4912C50.1313 33.987 48.1805 35.6205 45.7307 35.2121C43.3262 34.8037 41.3301 32.4441 41.3301 29.9484C41.3301 27.4527 43.2809 25.8191 45.7307 26.2275C48.1805 26.6359 50.1313 28.9955 50.1313 31.4912Z" fill="#444444"/>
<path d="M36.3852 30.4932C36.3852 32.9889 34.4344 34.6225 31.9846 34.2141C29.5801 33.8057 27.584 31.4461 27.584 28.9504C27.584 26.4547 29.5348 24.8211 31.9846 25.2295C34.4344 25.6833 36.3852 28.0428 36.3852 30.4932Z" fill="#444444"/>
<path d="M25.5874 38.751C25.5874 41.2467 23.6366 42.8803 21.1867 42.4719C18.7823 42.0635 16.7861 39.7039 16.7861 37.2082C16.7861 34.7125 18.7369 33.0789 21.1867 33.4873C23.6366 33.9411 25.5874 36.3007 25.5874 38.751Z" fill="#444444"/>
<path d="M22.1401 51.8194C22.1401 54.3151 20.1893 55.9486 17.7395 55.5402C15.335 55.1319 13.3389 52.7723 13.3389 50.2765C13.3389 47.7808 15.2897 46.1473 17.7395 46.5557C20.1893 46.964 22.1401 49.3236 22.1401 51.8194Z" fill="#444444"/>
<path d="M62.5613 47.9629L66.8711 54.3156L32.3014 73.6007L25.7686 75.0074C25.7686 75.0074 29.6248 70.0613 29.897 69.8798L62.5613 47.9629Z" fill="white"/>
<path d="M62.5619 47.9629L66.8718 54.2703L59.2047 58.5357L55.2578 52.8182L62.5619 47.9629Z" fill="white"/>
<path d="M59.2048 59.0349C59.0233 59.0349 58.8872 58.9441 58.7965 58.808L54.8495 53.0905C54.7588 52.9998 54.7588 52.8636 54.7588 52.7275C54.8042 52.5914 54.8495 52.5006 54.9856 52.4099L62.2897 47.5092C62.5166 47.3731 62.8341 47.4184 62.9702 47.6453L67.2801 53.9981C67.3708 54.1342 67.3708 54.2703 67.3708 54.4065C67.3255 54.5426 67.2347 54.6787 67.144 54.7241L59.477 58.9895C59.3862 59.0349 59.2955 59.0349 59.2048 59.0349ZM55.9837 52.9544L59.3862 57.9005L66.1459 54.1342L62.4258 48.6436L55.9837 52.9544Z" fill="#444444"/>
<path d="M67.4616 40.1125C63.6054 42.6536 62.2444 45.3762 62.4712 47.9627L66.8719 54.3154C69.2763 55.5406 72.4066 55.3591 76.3082 52.818C82.1152 49.0064 85.8353 37.3445 85.8353 37.3445C85.8353 37.3445 73.2686 36.3009 67.4616 40.1125Z" fill="#444444"/>
<path d="M62.5613 47.9629L66.8711 54.3156L32.3014 73.6007L25.7686 75.0074C25.7686 75.0074 29.6248 70.0613 29.897 69.8798L62.5613 47.9629Z" fill="white"/>
<path d="M25.8143 75.4612C25.6328 75.4612 25.4967 75.3705 25.406 75.2344C25.3153 75.0529 25.3153 74.826 25.4514 74.6445C28.0373 71.332 29.489 69.5623 29.6705 69.3808L62.2895 47.5092C62.5163 47.3731 62.8339 47.4184 62.97 47.6453L67.2799 53.9981C67.3706 54.1342 67.3706 54.2703 67.3706 54.4065C67.3252 54.5426 67.2345 54.6787 67.1437 54.7241L32.574 74.0092C32.5286 74.0546 32.4833 74.0546 32.4379 74.0546L25.905 75.4612C25.8597 75.4612 25.8143 75.4612 25.8143 75.4612ZM30.2149 70.1975C29.9427 70.4698 28.3549 72.4664 27.0392 74.1453L32.1203 73.0563L66.1457 54.0888L62.4256 48.5982L30.2149 70.1975Z" fill="#444444"/>
<path d="M0.0908203 124.831V181.643C0.0908203 181.643 56.9812 197.025 75.7178 154.371C94.4544 111.717 106.976 40.1127 133.016 57.7189L134.695 57.855C134.695 57.855 134.74 40.1127 114.507 42.2908C84.519 45.5125 79.3925 127.644 50.1761 132.318C21.0504 136.992 0.0908203 124.831 0.0908203 124.831Z" fill="#444444"/>
<path d="M23.1372 184.411C10.253 184.411 0.226836 181.734 0.0907342 181.734H0V124.65L0.136101 124.741C0.181468 124.786 5.48942 127.826 14.2453 130.231C22.3206 132.455 35.1595 134.633 50.2214 132.228C56.6635 131.184 62.5159 126.193 68.1414 116.981C73.1318 108.723 77.5324 97.923 81.7062 87.4863C86.016 76.7774 90.5074 65.7055 95.7246 57.3108C98.5374 52.7731 101.305 49.3699 104.254 46.9195C107.565 44.1516 110.923 42.6087 114.597 42.2004C121.085 41.5197 126.166 42.7449 129.705 45.9666C134.876 50.5951 134.876 57.8099 134.876 57.8553V57.9461L133.062 57.8099C129.115 55.1327 125.44 54.4521 121.811 55.6772C118.771 56.7209 115.822 59.0805 112.828 62.8921C110.151 66.3408 107.52 70.8784 104.753 76.7774C99.6262 87.8039 94.9534 101.553 90.0083 116.074C85.517 129.278 80.8895 142.937 75.8538 154.417C71.5439 164.173 64.9203 171.66 56.0737 176.742C48.9965 180.781 40.5582 183.277 30.895 184.139C28.2183 184.32 25.6324 184.411 23.1372 184.411ZM0.226836 181.552C1.36101 181.87 15.1526 185.319 30.895 183.866C46.0022 182.505 66.0091 176.289 75.6723 154.281C80.7081 142.846 85.3355 129.188 89.8269 115.983C94.7719 101.417 99.4447 87.6678 104.571 76.6413C107.339 70.6969 109.97 66.1593 112.647 62.7106C115.641 58.8536 118.59 56.4486 121.72 55.405C125.349 54.1798 129.206 54.9058 133.152 57.5377L134.695 57.6738C134.65 56.7663 134.332 50.2774 129.568 46.012C126.075 42.881 121.039 41.6105 114.643 42.2911C107.883 43.0171 101.758 47.9178 95.9514 57.3108C90.7342 65.7962 86.2429 76.8682 81.933 87.5771C77.7139 98.0137 73.3586 108.813 68.3229 117.072C65.6008 121.519 62.9242 124.877 60.1568 127.418C57.0265 130.231 53.76 131.865 50.3121 132.409C45.5939 133.181 41.1026 133.453 36.9288 133.453C27.6739 133.453 19.8254 131.955 14.2453 130.413C6.26066 128.189 1.17954 125.512 0.272203 124.967V181.552H0.226836Z" fill="#444444"/>
<path d="M149.168 52.4099C145.72 51.2301 142 51.2755 138.506 52.4099C131.973 54.5426 119.135 65.9775 128.616 81.6779C140.639 101.598 157.742 81.451 159.239 70.3337C160.464 61.5306 156.245 54.8149 149.168 52.4099Z" fill="#444444"/>
<path d="M140.547 90.2543C136.056 90.2543 131.973 87.3502 128.571 81.7689C126.71 78.6833 125.576 75.5523 125.259 72.4667C124.987 69.7894 125.304 67.1122 126.257 64.5711C128.797 57.6739 134.967 53.4538 138.461 52.3194C142.045 51.1396 145.765 51.1396 149.167 52.3194C152.706 53.5446 155.564 55.8134 157.333 58.9444C159.193 62.1662 159.874 66.1139 159.329 70.3793C158.83 74.0095 156.789 78.411 153.795 82.2227C150.483 86.4427 146.536 89.2107 142.725 90.0275C142.045 90.1636 141.273 90.2543 140.547 90.2543ZM143.95 51.6388C142.181 51.6388 140.366 51.911 138.551 52.5009C135.058 53.6353 128.979 57.81 126.438 64.6165C124.442 70.0617 125.168 75.7792 128.707 81.6328C132.608 88.0763 137.417 90.8896 142.725 89.8006C150.619 88.167 158.15 77.8211 159.148 70.334C160.282 61.8485 156.426 54.9966 149.122 52.5009C147.489 51.911 145.719 51.6388 143.95 51.6388Z" fill="#444444"/>
<path d="M130.794 78.4562C130.794 78.4562 128.299 74.3269 128.843 69.9253C129.433 65.5238 130.34 70.9236 130.34 72.2395C130.295 73.5555 130.794 78.4562 130.794 78.4562Z" fill="#444444"/>
<path d="M130.93 78.9103L130.703 78.5019C130.658 78.4565 128.162 74.2819 128.752 69.8803C128.979 68.2921 129.206 68.0653 129.387 68.1106C130.023 68.156 130.431 71.4231 130.431 72.2399C130.385 73.5558 130.885 78.4111 130.885 78.4565L130.93 78.9103ZM129.387 68.3375C129.387 68.3375 129.161 68.3375 128.934 69.9711C128.48 73.4651 130.023 76.8683 130.612 78.0027C130.476 76.7322 130.159 73.3289 130.204 72.2399C130.249 71.0601 129.705 68.3375 129.387 68.3375Z" fill="#444444"/>
<path d="M143.813 68.4273C143.813 68.4273 137.326 78.0925 137.916 79.2723C138.505 80.4067 134.286 81.8134 135.874 88.2115C135.874 88.2115 123.852 82.9932 128.116 63.7988L143.813 68.4273Z" fill="#444444"/>
<path d="M136.056 88.348L135.874 88.2573C135.829 88.2573 132.789 86.896 130.34 83.2204C128.888 81.0424 127.935 78.5466 127.436 75.6879C126.846 72.1485 127.073 68.11 128.026 63.7538L128.071 63.6631L143.995 68.3823L143.904 68.5184C141.319 72.3754 137.598 78.4559 138.007 79.2273C138.234 79.6357 137.916 80.0895 137.417 80.6794C136.464 81.8591 134.876 83.9011 135.965 88.1665L136.056 88.348ZM128.207 63.89C126.03 73.6913 128.253 79.7264 130.476 83.0843C132.563 86.1699 135.012 87.622 135.738 87.985C134.74 83.765 136.328 81.723 137.281 80.5432C137.735 79.9987 138.007 79.6357 137.825 79.3181C137.235 78.1836 142.68 69.9251 143.632 68.5184L128.207 63.89Z" fill="#444444"/>
<path d="M166.589 110.719C166.589 110.719 160.147 121.11 148.261 122.608C136.374 124.06 123.898 110.81 123.898 110.81C123.898 110.81 131.611 107.497 135.286 102.96C138.915 98.4675 137.282 89.3468 137.282 89.3468C137.236 88.9838 137.327 88.6207 137.463 88.2577C122.492 79.7269 132.7 61.1225 139.55 59.4889C147.535 57.5831 154.204 52.7278 158.06 62.6653C158.06 62.6653 162.597 85.036 153.886 90.5266C153.206 90.935 152.434 91.298 151.572 91.4795C151.618 92.4324 151.618 93.4761 151.708 94.6105C151.754 95.6088 151.845 96.6524 151.935 97.8322C152.707 108.314 166.589 110.719 166.589 110.719Z" fill="white"/>
<path d="M166.226 110.493C165.953 110.901 165.681 111.31 165.364 111.673C165.227 111.854 165.137 111.99 164.955 112.172C164.774 112.399 164.592 112.625 164.366 112.852C163.912 113.397 163.413 113.896 162.959 114.395C160.237 117.163 157.016 119.432 153.387 120.793C151.254 121.61 148.941 122.155 146.672 122.2C144.54 122.245 142.362 121.837 140.321 121.156C136.374 119.84 132.745 117.617 129.433 115.076C128.208 114.123 127.074 113.17 125.94 112.126C125.35 111.582 124.805 111.037 124.261 110.493C124.216 110.447 124.216 110.447 124.17 110.402C124.125 110.629 124.125 110.856 124.08 111.083C125.168 110.584 126.257 110.039 127.346 109.449C129.524 108.224 131.656 106.863 133.561 105.229C134.469 104.412 135.376 103.505 136.102 102.461C136.737 101.508 137.145 100.419 137.463 99.3301C138.053 97.152 138.189 94.8378 138.053 92.6143C138.007 91.7522 137.962 90.89 137.826 90.0279C137.735 89.3926 137.599 88.8935 137.871 88.2582C137.962 88.0767 137.826 87.8498 137.69 87.759C134.605 85.9893 132.019 83.4029 130.885 79.9996C129.887 77.0955 130.023 73.9645 130.794 71.0604C131.52 68.2924 132.881 65.6606 134.695 63.4825C135.467 62.575 136.329 61.6674 137.281 60.9868C137.69 60.6691 138.143 60.3969 138.642 60.17C138.688 60.1246 138.733 60.1246 138.778 60.0792C138.824 60.0792 138.824 60.0792 138.869 60.0339C139.005 59.9885 139.096 59.9431 139.232 59.8977C139.504 59.807 139.777 59.7616 140.094 59.6709C141.909 59.2171 143.633 58.6272 145.402 58.0827C146.945 57.5835 148.487 57.1298 150.075 56.9936C151.436 56.8575 152.842 56.9936 154.022 57.7197C155.519 58.6272 156.517 60.17 157.243 61.7128C157.424 62.0758 157.606 62.4388 157.697 62.8018C157.742 62.9833 157.787 63.1649 157.787 63.3917C157.923 64.1631 158.059 64.9799 158.15 65.7513C158.241 66.2505 158.286 66.795 158.332 67.3395C158.422 67.9748 158.468 68.6101 158.513 69.2453C158.649 70.6974 158.74 72.1494 158.74 73.6015C158.831 76.6871 158.649 79.8181 157.969 82.8584C157.379 85.3995 156.29 88.0767 154.158 89.7102C153.341 90.3455 152.389 90.7539 151.436 91.0262C151.254 91.0715 151.118 91.253 151.118 91.4345C151.164 93.2042 151.254 94.9286 151.391 96.6982C151.481 97.9688 151.572 99.2393 151.98 100.465C152.615 102.461 153.75 104.185 155.247 105.637C157.742 108.042 161.008 109.585 164.275 110.538C165.001 110.765 165.727 110.947 166.452 111.083C166.997 111.173 167.224 110.357 166.679 110.221C164.728 109.903 162.778 109.177 160.963 108.36C157.651 106.817 154.43 104.412 153.024 100.918C152.525 99.6931 152.343 98.4679 152.252 97.152C152.116 95.2462 152.026 93.3404 151.98 91.4345C151.89 91.5707 151.753 91.7068 151.663 91.8429C153.387 91.4345 154.929 90.4363 156.063 89.075C156.971 87.9859 157.651 86.7154 158.105 85.3541C159.194 82.4046 159.511 79.1375 159.602 76.0065C159.647 73.057 159.466 70.1075 159.148 67.2034C158.967 65.6606 158.785 64.0724 158.468 62.575C158.332 62.0304 158.014 61.4405 157.787 60.9414C157.334 60.0792 156.835 59.2171 156.154 58.4911C155.111 57.3113 153.75 56.4945 152.207 56.2676C150.665 56.0407 149.077 56.2676 147.534 56.6306C145.765 57.0844 144.086 57.6743 142.362 58.2188C141.41 58.4911 140.502 58.7633 139.55 58.9902C139.005 59.1263 138.506 59.3078 138.007 59.5347C136.964 60.0339 136.011 60.8053 135.194 61.6221C133.108 63.664 131.565 66.2051 130.522 68.9277C129.387 71.8772 128.888 75.0989 129.433 78.2299C130.023 81.6786 131.928 84.7188 134.65 86.8969C135.467 87.5322 136.283 88.122 137.191 88.6212C137.145 88.4397 137.055 88.3036 137.009 88.122C136.737 88.7573 136.828 89.3018 136.918 89.9371C136.918 89.9825 136.918 90.0279 136.918 90.0732C136.918 90.2094 136.918 89.9825 136.918 90.1186C136.918 90.164 136.918 90.164 136.918 90.2094C136.918 90.3909 136.964 90.527 136.964 90.7085C137.009 91.0715 137.055 91.4799 137.055 91.8429C137.191 93.9303 137.191 96.063 136.782 98.1503C136.555 99.2847 136.238 100.374 135.694 101.417C135.149 102.461 134.378 103.323 133.516 104.14C131.747 105.864 129.614 107.226 127.482 108.451C126.212 109.177 124.941 109.857 123.58 110.447C123.308 110.584 123.308 110.947 123.49 111.128C124.851 112.58 126.393 113.896 127.936 115.167C131.157 117.753 134.741 120.067 138.597 121.61C140.684 122.427 142.861 123.017 145.084 123.153C147.398 123.334 149.757 122.971 151.98 122.291C155.973 121.111 159.557 118.842 162.596 116.029C163.64 115.03 164.638 113.987 165.5 112.852C165.953 112.262 166.407 111.718 166.815 111.083C166.815 111.037 166.861 111.037 166.861 110.992C167.269 110.447 166.498 110.039 166.226 110.493Z" fill="#444444"/>
<path d="M154.475 61.1672C154.475 61.1672 152.751 79.2272 140.684 73.3282C131.61 68.8813 137.145 89.3915 137.145 89.3915C137.145 89.3915 122.401 75.96 129.886 64.3436C137.372 52.7272 152.434 55.6313 152.434 55.6313C152.434 55.6313 155.473 56.6749 154.475 61.1672Z" fill="#444444"/>
<path d="M137.326 89.7096L137.054 89.4828C137.009 89.4374 133.334 86.0795 130.612 81.3149C129.024 78.5016 128.026 75.779 127.754 73.2379C127.391 70.0161 128.071 67.0213 129.795 64.3441C133.697 58.309 139.64 56.267 143.95 55.5864C148.623 54.8603 152.434 55.5864 152.479 55.5864C152.524 55.5864 155.609 56.6754 154.566 61.2131C154.52 61.5307 153.522 70.9237 148.441 73.8278C146.264 75.053 143.632 74.9168 140.683 73.4648C139.096 72.6934 137.871 72.648 137.054 73.3286C133.742 76.0513 137.281 89.3013 137.281 89.4374L137.326 89.7096ZM148.26 55.4502C146.99 55.4502 145.538 55.541 143.95 55.7679C139.685 56.4485 133.788 58.4905 129.931 64.4348C126.121 70.3792 128.253 76.8227 130.748 81.1788C133.062 85.172 136.011 88.2122 136.918 89.0744C136.374 86.8963 133.697 75.6882 136.827 73.1018C137.735 72.3757 139.005 72.3757 140.683 73.1925C143.587 74.6446 146.173 74.7353 148.26 73.5555C153.341 70.6968 154.294 61.2131 154.294 61.1223C155.246 56.8115 152.524 55.7679 152.343 55.7225C152.252 55.7225 150.619 55.4502 148.26 55.4502Z" fill="#444444"/>
<path d="M152.705 57.4018C152.705 57.4018 158.058 68.6098 159.147 68.9729C160.236 69.3359 159.964 58.8085 153.204 56.1312C146.444 53.454 152.705 57.4018 152.705 57.4018Z" fill="#444444"/>
<path d="M159.238 69.0634C159.193 69.0634 159.193 69.0634 159.147 69.0634C158.059 68.7003 153.25 58.7628 152.66 57.4923C152.524 57.4015 151.889 56.9932 151.299 56.5848C150.029 55.6772 149.938 55.405 150.029 55.2688C150.119 55.0873 150.482 54.9512 153.295 56.0856C156.561 57.3562 158.195 60.351 158.966 62.6652C159.919 65.4786 159.919 67.9743 159.646 68.7457C159.465 69.018 159.329 69.0634 159.238 69.0634ZM150.165 55.3142C150.21 55.5411 151.526 56.5394 152.751 57.3108H152.796V57.3562C154.928 61.8485 158.421 68.6096 159.193 68.8819C159.283 68.9272 159.374 68.7457 159.374 68.655C159.692 67.8382 159.601 65.2971 158.694 62.7106C157.922 60.4418 156.335 57.4923 153.159 56.2671C150.709 55.2688 150.255 55.2688 150.165 55.3142Z" fill="#444444"/>
<path d="M141.046 73.2835C141.046 73.2835 139.504 67.2031 134.74 69.4719C129.976 71.7407 131.746 80.2262 136.918 80.8615C142.044 81.4967 141.046 73.2835 141.046 73.2835Z" fill="white"/>
<path d="M133.424 74.1913C133.424 74.1913 134.15 69.8351 137.507 70.5611L133.424 74.1913Z" fill="white"/>
<path d="M133.833 74.3272C133.878 74.1911 133.878 74.0549 133.923 73.9188C133.969 73.7827 134.014 73.6465 134.059 73.5104C134.105 73.4197 134.105 73.3289 134.15 73.2835C134.15 73.2382 134.195 73.1928 134.195 73.1474C134.195 73.1474 134.195 73.102 134.241 73.102C134.195 73.1474 134.286 73.0113 134.241 73.102C134.332 72.9205 134.422 72.6936 134.513 72.5121C134.558 72.4214 134.604 72.3306 134.649 72.2399C134.695 72.1945 134.695 72.1491 134.74 72.1037C134.74 72.0584 134.876 71.9222 134.785 72.013C134.921 71.8315 135.103 71.65 135.284 71.5138L135.33 71.4685C135.239 71.5138 135.42 71.4231 135.33 71.4685C135.375 71.4231 135.42 71.4231 135.466 71.3777C135.556 71.3323 135.647 71.2416 135.783 71.1962C135.829 71.1962 135.829 71.1508 135.874 71.1508C135.919 71.1055 135.783 71.1962 135.919 71.1508C135.965 71.1055 136.056 71.1054 136.101 71.1054C136.192 71.1054 136.237 71.0601 136.328 71.0601C136.373 71.0601 136.373 71.0601 136.418 71.0601H136.464C136.373 71.0601 136.418 71.0601 136.464 71.0601C136.6 71.0601 136.781 71.0601 136.918 71.0601C136.963 71.0601 137.008 71.0601 137.008 71.0601C137.008 71.0601 137.19 71.0601 137.054 71.0601C137.144 71.0601 137.235 71.1054 137.326 71.1054C137.553 71.1508 137.779 71.0601 137.87 70.7878C137.916 70.5609 137.779 70.2887 137.553 70.2433C136.918 70.1072 136.282 70.1072 135.693 70.334C135.194 70.5156 134.695 70.8332 134.332 71.2416C133.742 71.9222 133.334 72.7844 133.061 73.6465C133.016 73.8281 132.971 74.0096 132.925 74.1911C132.88 74.418 132.971 74.6448 133.243 74.7356C133.515 74.6902 133.833 74.5541 133.833 74.3272Z" fill="#444444"/>
<path d="M151.572 91.525C151.618 92.4779 151.618 93.5216 151.708 94.656C150.483 94.2476 146.083 92.7048 143.814 90.2998C143.951 90.3452 149.259 92.1602 152.888 90.7536C153.251 90.6174 153.568 90.5721 153.886 90.5721C153.205 90.9805 152.434 91.2981 151.572 91.525Z" fill="#444444"/>
<path d="M151.799 94.7919L151.663 94.7465C150.392 94.3381 146.037 92.7953 143.723 90.345L143.451 90.0273L143.859 90.1635C144.404 90.345 149.394 91.9785 152.888 90.6172C153.25 90.4811 153.568 90.3904 153.886 90.3904H154.249L153.931 90.5719C153.25 90.9803 152.479 91.3433 151.708 91.5248C151.753 92.5231 151.753 93.5214 151.844 94.565L151.799 94.7919ZM144.177 90.5265C146.4 92.6592 150.211 94.0659 151.572 94.5196C151.527 93.476 151.481 92.4777 151.436 91.5248V91.434H151.527C152.162 91.2979 152.797 91.0256 153.387 90.7534C153.25 90.7988 153.069 90.8441 152.933 90.8895C149.803 92.0693 145.538 90.9349 144.177 90.5265Z" fill="#444444"/>
<path d="M183.601 167.94C183.284 167.803 183.148 167.44 183.239 167.123C183.601 165.807 185.371 161.088 193.9 155.189C201.521 149.925 205.332 149.88 206.784 150.197C207.192 150.288 207.51 150.424 207.374 150.833C206.829 152.33 204.561 156.459 195.306 162.676C187.775 167.713 184.736 168.439 183.601 167.94Z" fill="#444444"/>
<path d="M184.372 168.167C184.055 168.167 183.783 168.121 183.556 168.03C183.238 167.849 183.057 167.486 183.147 167.123C183.51 165.807 185.28 161.088 193.854 155.143C201.34 149.97 205.196 149.789 206.784 150.107C207.01 150.152 207.328 150.243 207.464 150.47C207.51 150.606 207.555 150.742 207.464 150.878C206.92 152.375 204.697 156.505 195.351 162.767C190.089 166.306 186.323 168.167 184.372 168.167ZM183.646 167.804C184.463 168.212 187.049 168.03 195.26 162.54C204.515 156.323 206.738 152.239 207.283 150.787C207.328 150.697 207.328 150.606 207.283 150.515C207.192 150.379 206.965 150.288 206.784 150.288C205.513 150.016 201.657 149.97 193.99 155.28C185.461 161.179 183.692 165.852 183.374 167.123C183.283 167.395 183.42 167.713 183.646 167.804Z" fill="#444444"/>
<path d="M257.05 114.123C254.328 115.847 248.295 117.208 248.295 117.208C248.295 117.208 251.425 112.762 254.555 109.767C257.685 106.772 260.362 103.459 258.684 102.506C257.05 101.599 245.572 112.444 246.661 111.309C247.024 110.901 257.912 101.19 258.366 100.737C259.137 99.9653 258.82 98.241 257.368 98.0595C255.599 97.878 242.397 108.95 242.397 108.95C242.397 108.95 253.013 99.2393 253.512 98.241C254.011 97.2427 253.285 96.1083 251.879 96.1537C250.427 96.1537 233.006 113.669 232.053 113.896C231.146 114.123 233.142 106.953 233.097 104.185C233.051 101.417 230.647 100.827 230.375 102.098C230.057 103.414 230.057 105.774 227.244 111.536C224.431 117.299 225.792 124.741 225.792 124.741C225.792 124.741 220.938 133.726 209.097 152.512C208.371 153.691 207.691 154.826 207.01 155.915C200.069 142.937 191.313 128.689 191.313 128.689L177.885 149.335C177.885 149.335 192.493 180.327 200.614 184.729C204.107 186.635 209.188 185.319 211.23 183.549C214.995 180.055 217.49 175.699 217.49 175.699C224.84 163.402 231.146 143.754 232.416 140.623C234.231 136.131 236.454 133.68 238.223 131.321C240.038 128.961 248.068 122.699 249.02 121.792C249.973 120.884 256.143 117.98 258.457 116.301C260.861 114.713 259.772 112.399 257.05 114.123Z" fill="white"/>
<path d="M256.823 113.76C255.19 114.803 253.285 115.393 251.47 115.938C250.381 116.256 249.292 116.573 248.158 116.8C248.34 117.027 248.476 117.208 248.657 117.435C250.291 115.076 252.151 112.807 254.147 110.765C255.644 109.268 257.186 107.815 258.411 106.091C259.046 105.229 260.181 103.595 259.319 102.506C258.865 101.916 258.23 101.962 257.595 102.234C256.823 102.552 256.098 103.051 255.372 103.55C253.466 104.911 251.652 106.409 249.837 107.952C249.02 108.678 248.204 109.404 247.387 110.084C247.115 110.311 246.843 110.538 246.616 110.765C246.525 110.81 246.48 110.901 246.389 110.946C246.298 111.037 246.344 110.946 246.389 110.946C246.253 110.946 246.616 110.901 246.57 110.901C246.707 110.992 246.843 111.037 246.933 111.128C246.933 111.219 246.979 111.355 246.979 111.446C246.979 111.582 246.843 111.672 246.979 111.536C247.069 111.446 247.16 111.4 247.206 111.309C247.523 110.992 247.886 110.674 248.249 110.357C249.383 109.313 250.517 108.315 251.697 107.271C253.92 105.274 256.098 103.323 258.321 101.327C258.593 101.054 258.865 100.827 259.046 100.464C259.409 99.6476 259.228 98.604 258.547 98.0141C257.595 97.1973 256.597 97.6965 255.644 98.241C252.922 99.8292 250.381 101.916 247.886 103.868C246.661 104.866 245.391 105.864 244.166 106.863C243.531 107.407 242.76 107.906 242.17 108.496C242.124 108.541 242.124 108.541 242.079 108.587C242.306 108.814 242.487 108.995 242.714 109.222C244.302 107.77 245.845 106.363 247.387 104.911C249.429 102.96 251.606 101.1 253.512 98.967C253.829 98.6494 254.056 98.3317 254.147 97.878C254.328 96.8343 253.557 95.9721 252.559 95.7906C251.697 95.6091 251.243 95.9721 250.608 96.4713C248.567 98.0141 246.707 99.8292 244.801 101.599C242.351 103.868 239.947 106.182 237.542 108.496C235.864 110.084 234.185 111.763 232.416 113.261C232.371 113.306 232.325 113.351 232.28 113.397C232.234 113.397 232.234 113.442 232.189 113.442C232.098 113.488 232.234 113.397 232.189 113.442C232.144 113.488 232.053 113.533 232.008 113.578C231.962 113.624 232.053 113.578 232.053 113.578C232.189 113.624 232.234 113.578 232.371 113.669C232.416 113.669 232.371 113.76 232.371 113.714C232.416 113.624 232.371 113.669 232.371 113.533C232.371 113.397 232.371 113.306 232.371 113.17C232.461 111.446 232.915 109.767 233.187 108.088C233.459 106.409 234.004 104.321 233.323 102.688C233.006 102.007 232.461 101.327 231.69 101.145C231.055 101.009 230.374 101.236 230.102 101.826C229.921 102.234 229.921 102.688 229.83 103.142C229.739 103.732 229.603 104.367 229.422 104.957C228.832 107.18 227.925 109.313 226.926 111.4C225.066 115.257 224.749 119.84 225.293 124.106C225.339 124.378 225.384 124.696 225.429 124.968C225.429 124.877 225.475 124.741 225.475 124.65C224.613 126.238 223.705 127.827 222.798 129.369C220.031 134.179 217.127 138.944 214.224 143.663C211.728 147.702 209.143 151.695 206.738 155.779C207.01 155.779 207.237 155.779 207.509 155.779C204.833 150.787 202.02 145.841 199.207 140.895C197.166 137.401 195.124 133.907 193.037 130.458C192.629 129.823 192.266 129.188 191.858 128.553C191.676 128.28 191.268 128.28 191.086 128.553C189.045 131.684 187.003 134.815 184.962 137.946C182.557 141.621 180.198 145.297 177.794 148.972C177.612 149.244 177.567 149.426 177.703 149.744C177.885 150.107 178.021 150.47 178.202 150.787C179.019 152.466 179.881 154.145 180.697 155.824C183.419 161.224 186.323 166.533 189.499 171.66C191.086 174.247 192.765 176.788 194.625 179.238C196.031 181.099 197.529 182.914 199.343 184.366C202.201 186.589 206.148 186.589 209.369 185.274C210.141 184.956 210.912 184.593 211.547 184.048C212.454 183.322 213.271 182.369 214.042 181.507C215.267 180.055 216.447 178.558 217.445 176.924C219.259 174.111 220.757 171.071 222.208 168.03C224.023 164.173 225.702 160.226 227.289 156.278C228.605 152.92 229.875 149.517 231.1 146.113C231.826 144.071 232.507 141.984 233.369 139.988C234.276 137.946 235.455 136.04 236.771 134.225C237.678 133.045 238.54 131.774 239.584 130.731C241.852 128.416 244.393 126.42 246.888 124.378C247.705 123.697 248.567 123.017 249.383 122.336C250.154 121.655 251.243 121.111 252.241 120.566C253.875 119.659 255.508 118.842 257.096 117.889C258.366 117.163 260.317 116.21 260.407 114.531C260.453 113.896 260.09 113.351 259.5 113.125C258.502 112.898 257.549 113.306 256.823 113.76C256.324 114.077 256.778 114.803 257.277 114.531C257.731 114.259 258.547 113.76 259.137 114.032C259.545 114.259 259.364 114.758 259.182 115.076C258.865 115.666 258.275 116.029 257.731 116.392C257.232 116.709 256.687 117.027 256.143 117.345C253.875 118.615 251.515 119.704 249.338 121.156C248.839 121.474 248.43 121.882 247.977 122.245C247.206 122.881 246.434 123.516 245.663 124.151C243.667 125.785 241.716 127.418 239.811 129.188C238.087 130.776 236.68 132.682 235.319 134.588C233.777 136.766 232.552 139.125 231.645 141.621C230.057 145.932 228.56 150.288 226.881 154.599C224.477 160.77 221.936 166.851 218.806 172.659C217.808 174.519 216.719 176.38 215.494 178.104C214.496 179.511 213.362 180.872 212.182 182.143C211.638 182.732 211.093 183.322 210.413 183.731C209.823 184.094 209.233 184.366 208.598 184.593C205.921 185.546 202.7 185.682 200.251 184.048C198.89 183.141 197.801 181.916 196.757 180.69C193.808 177.196 191.359 173.294 189 169.392C186.595 165.308 184.327 161.178 182.149 156.958C180.879 154.508 179.654 152.058 178.474 149.562C178.429 149.426 178.384 149.335 178.293 149.199C178.293 149.335 178.293 149.471 178.293 149.653C179.79 147.339 181.333 144.979 182.83 142.665C185.234 138.989 187.639 135.268 190.043 131.593C190.587 130.731 191.132 129.914 191.722 129.052C191.449 129.052 191.223 129.052 190.95 129.052C192.085 130.912 193.219 132.773 194.308 134.633C196.893 138.944 199.389 143.3 201.884 147.656C203.517 150.515 205.105 153.374 206.647 156.278C206.783 156.55 207.237 156.55 207.419 156.278C209.46 152.784 211.683 149.381 213.815 145.932C215.539 143.119 217.263 140.305 218.942 137.492C220.983 134.089 223.025 130.685 224.976 127.237C225.339 126.601 225.702 125.966 226.064 125.331C226.155 125.149 226.246 125.013 226.201 124.786C226.155 124.242 226.064 123.743 226.019 123.107C225.747 120.203 225.883 117.208 226.7 114.395C227.199 112.625 228.106 110.992 228.832 109.313C229.376 108.042 229.83 106.772 230.193 105.456C230.42 104.684 230.556 103.913 230.692 103.096C230.783 102.597 230.783 101.916 231.372 102.007C232.461 102.189 232.733 103.732 232.688 104.639C232.643 105.774 232.461 106.908 232.234 107.997C232.008 109.222 231.781 110.447 231.599 111.672C231.509 112.353 231.236 113.306 231.463 113.987C231.871 115.076 233.096 113.805 233.505 113.397C236.272 110.946 238.949 108.315 241.625 105.774C244.484 103.051 247.296 100.328 250.336 97.7872C250.79 97.4242 251.107 97.1519 251.561 96.8343C251.652 96.7889 251.697 96.7435 251.788 96.6982C251.833 96.6528 252.014 96.5167 251.878 96.6528C251.924 96.6074 252.105 96.6074 251.878 96.6528C252.196 96.6528 252.559 96.6982 252.831 96.8797C253.285 97.1973 253.375 97.6965 253.149 98.1502C253.058 98.2864 253.194 98.1048 253.058 98.241C252.967 98.3317 252.922 98.4225 252.831 98.5132C252.332 99.0578 251.833 99.5569 251.334 100.056C248.521 102.824 245.618 105.501 242.714 108.133C242.487 108.315 242.306 108.496 242.079 108.723C241.671 109.086 242.261 109.676 242.714 109.358C246.117 106.5 249.565 103.732 253.149 101.145C254.101 100.464 255.054 99.7838 256.052 99.1939C256.234 99.1031 256.415 98.967 256.597 98.8762C256.687 98.8309 256.778 98.7855 256.823 98.7401C256.959 98.6947 256.914 98.6947 257.005 98.6494C257.096 98.604 257.232 98.5586 257.322 98.5586C257.413 98.5132 257.232 98.5586 257.368 98.5586C257.549 98.604 257.685 98.604 257.867 98.7401C258.457 99.1031 258.547 100.011 258.094 100.51C257.958 100.646 257.821 100.782 257.685 100.873C256.959 101.553 256.234 102.189 255.508 102.869C253.376 104.821 251.198 106.726 249.066 108.678C248.34 109.358 247.568 109.994 246.843 110.674C246.707 110.81 246.525 110.946 246.389 111.083C246.117 111.355 246.071 111.945 246.616 111.945C246.843 111.945 247.024 111.763 247.16 111.627C247.387 111.4 247.659 111.219 247.886 110.992C248.703 110.266 249.565 109.54 250.381 108.814C252.377 107.089 254.374 105.365 256.597 103.913C257.005 103.641 257.413 103.414 257.821 103.232C257.912 103.187 258.048 103.142 258.23 103.096C258.275 103.096 258.366 103.051 258.411 103.051C258.275 103.051 258.502 103.051 258.502 103.051C258.457 103.051 258.457 103.051 258.457 103.051C258.502 103.096 258.593 103.142 258.683 103.187C258.82 103.414 258.774 103.686 258.729 103.913C258.502 104.821 257.867 105.637 257.277 106.363C255.735 108.315 253.829 109.948 252.196 111.809C250.88 113.261 249.701 114.803 248.521 116.392C248.34 116.664 248.158 116.891 247.931 117.163C247.705 117.481 248.068 117.889 248.43 117.798C249.565 117.526 250.699 117.208 251.833 116.891C253.693 116.346 255.644 115.711 257.277 114.667C257.731 114.214 257.322 113.442 256.823 113.76Z" fill="#444444"/>
<path d="M216.047 42.0379L202.898 57.9521L218.809 71.1039L231.958 55.1897L216.047 42.0379Z" fill="white"/>
<path d="M219.123 70.7872C218.579 70.3335 218.08 69.9251 217.535 69.4713C216.265 68.4277 214.995 67.384 213.724 66.3403C212.182 65.0698 210.639 63.7992 209.142 62.5287C207.827 61.4396 206.511 60.3506 205.15 59.2616C204.696 58.8985 204.288 58.5355 203.834 58.1725C203.607 57.991 203.426 57.8095 203.199 57.6734C203.199 57.6734 203.199 57.6734 203.154 57.6734C203.154 57.9003 203.154 58.0818 203.154 58.3086C203.607 57.7641 204.016 57.265 204.469 56.7205C205.513 55.4499 206.556 54.1794 207.6 52.9088C208.87 51.366 210.14 49.8232 211.411 48.3258C212.499 47.0098 213.588 45.6939 214.677 44.3326C215.04 43.8789 215.403 43.4705 215.766 43.0167C215.947 42.7898 216.129 42.6083 216.265 42.3814C216.265 42.3814 216.265 42.3814 216.265 42.336C216.038 42.336 215.857 42.336 215.63 42.336C216.174 42.7898 216.673 43.1982 217.218 43.652C218.488 44.6956 219.758 45.7393 221.028 46.783C222.571 48.0535 224.113 49.3241 225.611 50.5946C226.926 51.6836 228.242 52.7727 229.603 53.8617C230.056 54.2247 230.465 54.5878 230.918 54.9508C231.145 55.1323 231.327 55.3138 231.554 55.4499C231.554 55.4499 231.554 55.4499 231.599 55.4499C231.599 55.223 231.599 55.0415 231.599 54.8146C231.145 55.3592 230.737 55.8583 230.283 56.4028C229.24 57.6734 228.196 58.9439 227.153 60.2145C225.883 61.7573 224.612 63.3001 223.342 64.7975C222.253 66.1134 221.165 67.4294 220.076 68.7907C219.531 69.4259 218.987 70.0612 218.488 70.6965C218.488 70.6965 218.488 70.6965 218.488 70.7419C218.352 70.9234 218.306 71.1956 218.488 71.3771C218.624 71.5133 218.942 71.5586 219.123 71.3771C219.577 70.8326 219.985 70.3335 220.439 69.789C221.482 68.5184 222.526 67.2479 223.569 65.9773C224.839 64.4345 226.11 62.8917 227.38 61.3943C228.469 60.0783 229.557 58.7624 230.646 57.4011C231.191 56.7658 231.735 56.1306 232.234 55.4953C232.234 55.4953 232.234 55.4953 232.234 55.4499C232.37 55.2684 232.416 54.9961 232.234 54.8146C231.69 54.3609 231.191 53.9525 230.646 53.4987C229.376 52.4551 228.106 51.4114 226.835 50.3677C225.293 49.0972 223.75 47.8266 222.253 46.5561C220.938 45.467 219.622 44.378 218.261 43.289C217.626 42.7444 216.991 42.1999 216.356 41.7008C216.356 41.7008 216.356 41.7008 216.31 41.7008C216.129 41.5646 215.857 41.5193 215.675 41.7008C215.221 42.2453 214.813 42.7444 214.359 43.289C213.316 44.5595 212.273 45.8301 211.229 47.1006C209.959 48.6434 208.689 50.1862 207.418 51.6836C206.33 52.9996 205.241 54.3155 204.152 55.6768C203.607 56.3121 203.063 56.9473 202.564 57.5826C202.564 57.5826 202.564 57.5826 202.564 57.628C202.428 57.8095 202.383 58.0818 202.564 58.2633C203.108 58.717 203.607 59.1254 204.152 59.5792C205.422 60.6229 206.692 61.6665 207.963 62.7102C209.505 63.9807 211.048 65.2513 212.545 66.5218C213.86 67.6109 215.176 68.6999 216.537 69.789C217.172 70.3335 217.807 70.878 218.443 71.3771C218.443 71.3771 218.443 71.3771 218.488 71.3771C218.669 71.5133 218.942 71.5586 219.123 71.3771C219.304 71.241 219.304 70.9234 219.123 70.7872Z" fill="#444444"/>
<path d="M240.174 51.7297L243.44 62.0756L232.87 59.7614L222.254 57.4471L229.558 49.4155L236.862 41.3838L240.174 51.7297Z" fill="#1F75BA"/>
<path d="M83.8379 141.893C83.8379 141.893 85.6526 159.726 102.484 166.941C102.484 166.941 108.245 140.849 83.8379 141.893Z" fill="#444444"/>
<path d="M102.529 167.077L102.393 167.031C98.5372 165.398 95.1347 163.038 92.3219 160.043C90.0535 157.639 88.1935 154.871 86.6964 151.74C84.1558 146.43 83.7021 141.938 83.7021 141.893V141.802H83.7929C90.6433 141.53 95.8152 143.345 99.0816 147.247C102.303 151.104 103.074 156.232 103.165 159.907C103.255 163.855 102.575 166.941 102.575 166.986L102.529 167.077ZM83.929 141.984C84.0197 142.71 84.6095 146.839 86.9232 151.649C89.2369 156.504 93.7736 163.038 102.393 166.805C102.529 166.215 103.029 163.401 102.938 159.907C102.847 156.277 102.076 151.15 98.9001 147.383C95.7244 143.526 90.6887 141.711 83.929 141.984Z" fill="#444444"/>
<path d="M110.288 120.929C110.288 120.929 89.1015 140.532 74.7201 157.639C69.639 144.479 63.1968 130.549 62.2895 128.053C60.7017 123.788 60.7017 121.156 60.1119 119.068C59.5221 116.981 56.7093 114.894 54.5317 114.304C52.3541 113.714 46.6378 110.492 43.6436 109.539C40.6494 108.541 39.8782 110.038 40.967 112.217C42.0558 114.395 46.3656 115.892 46.3656 115.892C46.3656 115.892 42.6909 115.484 40.8762 114.985C39.0615 114.485 31.6213 110.991 29.8067 109.812C27.992 108.632 25.6329 108.496 25.8143 109.812C25.9958 111.128 31.8935 114.712 31.8935 114.712C30.0789 115.03 24.2265 110.901 22.8201 109.948C21.4137 108.949 19.463 108.995 19.5083 110.356C19.5991 111.944 27.992 117.616 27.992 117.616C27.992 117.616 23.9997 115.03 22.4118 113.805C20.824 112.625 18.7371 112.307 18.601 113.623C18.5556 114.485 22.4572 117.163 25.1338 118.887C23.3192 117.843 21.0962 116.8 20.9601 117.934C20.824 119.068 25.5421 121.927 27.5383 123.515C29.5345 125.104 35.1146 124.695 38.1088 125.104C41.1031 125.512 42.2826 126.283 48.8608 128.189C55.4391 130.095 56.8455 158.319 60.0211 173.067C60.5202 175.336 61.609 179.873 61.7451 180.191C65.2837 191.263 73.722 192.261 79.8012 186.725C86.3341 180.826 122.582 139.579 122.582 139.579L110.288 120.929Z" fill="white"/>
<path d="M109.97 120.611C107.248 123.107 104.617 125.693 101.94 128.28C95.9969 134.042 90.1899 139.941 84.519 145.977C81.0711 149.697 77.6686 153.464 74.4022 157.366C74.629 157.411 74.9012 157.502 75.128 157.548C72.6782 151.195 70.0015 144.933 67.2795 138.671C66.2814 136.311 65.238 133.997 64.1946 131.638C63.6048 130.322 63.015 129.006 62.516 127.644C61.9716 126.147 61.5633 124.65 61.2457 123.107C61.0189 122.018 60.8828 120.883 60.6559 119.794C60.3837 118.569 59.8847 117.571 59.0681 116.663C58.1154 115.62 56.8451 114.757 55.5748 114.213C54.6221 113.804 53.6694 113.578 52.7167 113.169C51.5371 112.67 50.403 112.08 49.2234 111.536C48.0439 110.946 46.819 110.401 45.594 109.857C44.5506 109.403 43.4164 108.904 42.2822 108.813C41.4203 108.722 40.4222 108.995 40.1046 109.902C39.7871 110.81 40.1954 111.944 40.6944 112.715C41.7832 114.44 43.9155 115.438 45.7301 116.164C45.8662 116.209 46.0477 116.3 46.1838 116.346C46.2292 116.073 46.2745 115.756 46.3199 115.483C44.3691 115.257 42.2369 115.075 40.3768 114.394C38.1538 113.578 35.9762 112.534 33.844 111.49C32.8005 110.991 31.8024 110.492 30.8044 109.902C29.7609 109.312 28.7628 108.632 27.5379 108.45C26.5852 108.314 25.0881 108.632 25.4057 109.902C25.5871 110.628 26.3584 111.263 26.9028 111.717C28.3999 112.942 30.0331 114.031 31.6663 115.03C31.7117 114.757 31.7571 114.485 31.7571 114.213C31.0766 114.304 30.1239 113.804 29.5341 113.487C28.4906 112.988 27.4926 112.398 26.4945 111.763C25.5871 111.218 24.7252 110.628 23.8632 110.038C23.0466 109.494 22.3207 108.904 21.3226 108.722C20.3246 108.541 19.0543 108.904 19.0543 110.129C19.0543 110.719 19.508 111.218 19.8709 111.626C21.1412 113.033 22.729 114.213 24.2715 115.347C25.4057 116.209 26.5852 117.026 27.7194 117.843C27.8555 117.571 27.9916 117.344 28.1731 117.072C27.3565 116.527 26.5852 116.028 25.7686 115.483C24.5437 114.667 23.3642 113.714 22.0939 112.942C21.1412 112.352 18.7821 111.445 18.1923 113.033C17.8294 114.122 19.1904 115.03 19.8709 115.574C21.4587 116.845 23.1373 117.979 24.8613 119.068C24.9974 118.796 25.1335 118.569 25.3149 118.297C24.5891 117.888 20.5968 115.483 20.506 117.707C20.4607 118.251 20.9143 118.705 21.2773 119.068C21.867 119.658 22.5476 120.203 23.2281 120.702C23.9993 121.292 24.8159 121.882 25.6325 122.426C26.313 122.88 26.9028 123.47 27.6287 123.878C29.1712 124.831 31.2127 124.876 32.9366 125.013C34.7967 125.149 36.6567 125.103 38.5168 125.376C39.7417 125.557 40.9212 125.92 42.0554 126.283C43.9608 126.918 45.8662 127.508 47.7717 128.098C48.8605 128.416 49.5863 128.643 50.3122 129.55C51.8547 131.411 52.6259 133.997 53.2611 136.266C54.2138 139.76 54.8943 143.299 55.4841 146.839C56.7544 154.598 57.6163 162.403 59.0227 170.117C59.6125 173.384 60.3384 176.697 61.2457 179.873C62.2438 183.412 64.3307 187.088 67.5517 188.948C70.2737 190.536 73.4948 190.491 76.3529 189.221C78.3945 188.313 80.0277 186.861 81.5702 185.273C84.882 181.96 88.0576 178.466 91.188 175.018C95.4979 170.298 99.8077 165.534 104.072 160.724C108.019 156.277 111.966 151.83 115.913 147.383C118.091 144.888 120.314 142.437 122.491 139.941C122.582 139.805 122.673 139.715 122.809 139.578C122.945 139.442 122.99 139.215 122.9 139.034C121.493 136.947 120.132 134.859 118.726 132.727C116.503 129.369 114.28 126.056 112.057 122.698C111.558 121.927 111.059 121.155 110.514 120.384C110.197 119.93 109.471 120.339 109.743 120.838C111.149 122.925 112.511 125.013 113.917 127.145C116.14 130.503 118.363 133.816 120.586 137.173C121.085 137.945 121.584 138.716 122.128 139.488C122.174 139.306 122.174 139.125 122.219 138.943C120.722 140.622 119.27 142.301 117.773 143.98C114.234 147.973 110.696 152.012 107.112 156.005C102.847 160.769 98.5828 165.534 94.3183 170.298C90.7343 174.246 87.1503 178.239 83.4302 182.096C80.4813 185.182 77.3964 188.858 72.8143 189.221C69.5479 189.493 66.6444 187.769 64.739 185.182C63.514 183.548 62.6067 181.643 62.0623 179.691C61.654 178.239 61.3364 176.742 60.9735 175.245C59.2495 167.984 58.3422 160.588 57.2988 153.237C56.7544 149.425 56.1646 145.568 55.3933 141.802C54.8036 138.716 54.1231 135.585 52.9435 132.681C52.263 130.911 51.3103 128.688 49.541 127.735C48.8605 127.372 48.0892 127.236 47.4087 127.009C46.3653 126.691 45.3218 126.374 44.2784 126.011C42.9627 125.602 41.6471 125.103 40.2861 124.74C36.9743 123.878 33.481 124.332 30.1239 123.697C29.3073 123.56 28.4906 123.334 27.8101 122.88C27.175 122.426 26.5399 121.927 25.9047 121.473C24.4983 120.475 22.8651 119.477 21.6856 118.206C21.5948 118.07 21.3226 117.843 21.3226 117.661C21.3226 117.525 21.5041 117.525 21.6856 117.571C22.7744 117.707 23.8632 118.388 24.8159 118.932C25.3149 119.204 25.7232 118.478 25.2696 118.161C23.9086 117.298 22.5929 116.436 21.3226 115.483C20.7782 115.075 20.1885 114.621 19.6894 114.167C19.4626 113.986 19.0089 113.623 18.9636 113.305C18.9636 113.26 19.0543 113.033 19.2358 112.942C19.508 112.806 19.8709 112.852 20.1431 112.942C20.9143 113.078 21.5948 113.487 22.23 113.941C23.2281 114.712 24.3169 115.393 25.3603 116.119C26.1316 116.618 26.9028 117.162 27.7194 117.661C28.1731 117.979 28.6267 117.208 28.1731 116.89C25.7686 115.257 23.3642 113.532 21.2319 111.536C20.7782 111.127 20.2792 110.673 20.007 110.129C19.9616 110.084 19.9616 110.038 19.9616 109.947C19.9616 110.084 19.9616 109.857 19.9616 109.811C20.007 109.675 20.0524 109.63 20.1431 109.539C20.506 109.221 21.2319 109.358 21.6402 109.494C22.4568 109.766 23.1373 110.356 23.8178 110.81C24.6344 111.4 25.4964 111.944 26.3584 112.443C27.4018 113.078 28.4453 113.714 29.5795 114.213C30.3507 114.531 31.1673 114.939 32.0293 114.803C32.4376 114.757 32.4376 114.167 32.12 113.986C30.8497 113.215 29.5795 112.352 28.3545 111.445C27.674 110.946 26.9028 110.401 26.4038 109.675C25.7232 108.722 27.674 108.995 28.1277 109.176C29.1258 109.494 29.9878 110.129 30.8951 110.628C31.8932 111.173 32.8913 111.626 33.8893 112.126C35.9308 113.078 37.9724 114.077 40.0593 114.848C42.01 115.574 44.233 115.756 46.3199 115.983C46.819 116.028 46.8643 115.257 46.456 115.12C45.0043 114.621 43.5072 113.85 42.3276 112.852C41.6017 112.216 40.9666 111.309 40.9212 110.31C40.8759 109.312 41.7378 109.221 42.5544 109.312C43.6886 109.494 44.7321 109.993 45.7755 110.447C46.9551 110.946 48.0892 111.536 49.2234 112.08C50.3122 112.579 51.401 113.124 52.4898 113.623C53.3518 113.986 54.2138 114.258 55.0758 114.576C56.3914 115.075 57.571 115.937 58.5237 116.935C59.3403 117.798 59.7032 118.796 59.93 119.93C60.4291 122.426 60.792 124.922 61.654 127.327C62.1077 128.643 62.6974 129.913 63.2418 131.184C64.1492 133.316 65.1019 135.404 66.0092 137.536C68.5498 143.345 71.045 149.198 73.3587 155.143C73.6763 155.914 73.9485 156.685 74.266 157.457C74.3568 157.729 74.7651 157.911 74.9919 157.638C80.7989 150.741 86.9688 144.161 93.2749 137.763C98.0384 132.908 102.847 128.189 107.792 123.515C108.7 122.653 109.607 121.791 110.56 120.929C111.013 120.838 110.424 120.248 109.97 120.611Z" fill="#444444"/>
<path d="M207.509 150.424L207.418 150.469C207.328 150.288 207.101 150.242 206.829 150.152C205.377 149.834 201.566 149.925 193.944 155.143C185.415 161.042 183.601 165.761 183.283 167.077C183.238 167.168 183.238 167.304 183.283 167.395L183.192 167.44L177.113 153.237C183.192 180.146 171.533 192.76 171.533 192.76H115.958C106.522 172.568 110.015 155.189 110.015 155.189L102.439 166.896C99.8529 149.199 83.793 141.848 83.793 141.848C101.395 117.844 124.669 109.585 124.669 109.585C146.717 127.6 164.592 109.585 164.592 109.585C164.592 109.585 166.951 109.766 182.103 116.437C197.301 123.107 207.509 150.424 207.509 150.424Z" fill="#1F75BA"/>
<path d="M78.3037 175.336C78.3037 175.336 76.5798 161.768 72.1338 151.104L78.3037 175.336Z" fill="white"/>
<path d="M78.712 175.336C78.6666 174.837 78.5759 174.337 78.4852 173.793C78.3037 172.522 78.0769 171.252 77.85 169.981C77.5325 168.166 77.1242 166.351 76.7159 164.536C76.2168 162.403 75.6724 160.316 75.0826 158.229C74.4475 156.005 73.6763 153.827 72.8597 151.694C72.7689 151.422 72.6328 151.195 72.5421 150.923C72.4513 150.696 72.2699 150.56 71.9977 150.605C71.7708 150.651 71.5894 150.923 71.6801 151.15C72.5421 153.237 73.3133 155.415 73.9938 157.593C74.629 159.726 75.2187 161.859 75.7178 163.992C76.1715 165.852 76.5344 167.712 76.8973 169.573C77.1695 170.934 77.3964 172.25 77.5778 173.611C77.6232 174.02 77.7139 174.428 77.7593 174.837C77.7593 174.973 77.8047 175.063 77.8047 175.2C77.8047 175.29 77.8047 175.063 77.8047 175.154V175.2C77.8047 175.245 77.8047 175.245 77.8047 175.29C77.8047 175.29 77.8047 175.29 77.8047 175.336C77.85 175.563 77.9861 175.789 78.2583 175.789C78.5305 175.789 78.7574 175.563 78.712 175.336Z" fill="#444444"/>
<path d="M24.997 119.204C25.496 119.567 26.0404 119.93 26.5848 120.248C27.6736 120.928 28.8532 121.518 30.0781 121.881C30.7586 122.108 31.4845 122.244 32.2103 122.199C32.4372 122.199 32.664 122.017 32.664 121.745C32.664 121.518 32.4825 121.291 32.2103 121.291C32.0742 121.291 31.9381 121.291 31.7567 121.291C31.7113 121.291 31.6206 121.291 31.5752 121.291C31.5298 121.291 31.4845 121.291 31.4391 121.291C31.3937 121.291 31.3937 121.291 31.3484 121.291C31.3937 121.291 31.3937 121.291 31.3484 121.291C31.0308 121.246 30.7586 121.201 30.441 121.11C30.1234 121.019 29.8059 120.928 29.5337 120.792C29.4429 120.747 29.3976 120.747 29.3068 120.702C29.3068 120.702 29.1707 120.656 29.2615 120.702C29.2161 120.702 29.1707 120.656 29.1254 120.656C28.9893 120.611 28.8078 120.52 28.6717 120.429C27.719 119.976 26.7663 119.431 25.9043 118.796C25.7228 118.66 25.5414 118.569 25.3599 118.433C25.1784 118.297 24.8609 118.387 24.7701 118.569C24.6794 118.841 24.7701 119.068 24.997 119.204Z" fill="#444444"/>
<path d="M25.3605 116.3C25.9049 116.709 26.4493 117.072 26.9937 117.435C28.0826 118.115 29.2167 118.751 30.4416 119.159C31.1221 119.386 31.848 119.522 32.5739 119.522C32.8007 119.522 33.0276 119.341 33.0276 119.068C33.0276 118.842 32.8461 118.615 32.5739 118.615C32.4378 118.615 32.3017 118.615 32.1202 118.615C32.0749 118.615 31.9841 118.615 31.9388 118.615C31.8934 118.615 31.848 118.615 31.8027 118.615C31.8934 118.615 31.7573 118.615 31.7119 118.615C31.3943 118.569 31.1221 118.479 30.8046 118.388C30.487 118.297 30.2148 118.206 29.8972 118.07C29.8519 118.07 29.8065 118.025 29.7611 118.025C29.8519 118.07 29.7158 118.025 29.7158 118.025C29.6704 117.979 29.5797 117.979 29.5343 117.934C29.3982 117.843 29.2167 117.798 29.0806 117.707C28.1279 117.253 27.2206 116.663 26.3132 116.028C26.1771 115.937 26.041 115.847 25.9049 115.756C25.8596 115.711 25.8142 115.711 25.8142 115.665C25.7688 115.62 25.9503 115.756 25.8596 115.711C25.6781 115.574 25.4059 115.529 25.2244 115.711C25.1791 115.847 25.1791 116.164 25.3605 116.3Z" fill="#444444"/>
<path d="M30.2144 114.44C30.532 114.621 30.8496 114.758 31.2125 114.939C31.9384 115.257 32.6642 115.529 33.4355 115.71C33.8892 115.801 34.3428 115.892 34.7965 115.892C35.0233 115.892 35.2502 115.71 35.2502 115.438C35.2502 115.211 35.0687 114.984 34.7965 114.984C34.615 114.984 34.4336 114.984 34.2521 114.939C34.2521 114.939 34.116 114.939 34.2067 114.939C34.1614 114.939 34.116 114.939 34.0706 114.894C33.9799 114.894 33.8892 114.848 33.7984 114.848C33.4355 114.758 33.0272 114.667 32.6643 114.531C32.4828 114.485 32.3013 114.395 32.1652 114.349C32.0745 114.304 31.9837 114.304 31.9384 114.258C31.9384 114.258 31.893 114.258 31.893 114.213C31.8476 114.213 31.8023 114.168 31.7569 114.168C31.5301 114.077 31.2579 113.941 31.031 113.805C30.9403 113.759 30.8042 113.714 30.7135 113.623C30.4866 113.487 30.2144 113.578 30.1237 113.759C29.9422 114.077 29.9876 114.349 30.2144 114.44Z" fill="#444444"/>
<path d="M200.477 170.208C200.567 169.981 200.658 169.708 200.749 169.482C200.84 169.209 200.976 168.892 201.112 168.619C201.203 168.438 201.248 168.256 201.339 168.075C201.384 167.984 201.429 167.893 201.475 167.803C201.475 167.757 201.52 167.712 201.52 167.666C201.52 167.621 201.566 167.621 201.566 167.576C202.564 165.171 203.698 162.811 204.968 160.542C205.875 158.818 206.873 157.139 207.917 155.46C208.053 155.279 207.962 154.961 207.781 154.87C207.554 154.734 207.327 154.825 207.191 155.006C205.467 157.774 203.879 160.633 202.473 163.583C201.611 165.398 200.794 167.213 200.068 169.073C199.932 169.391 199.842 169.708 199.706 170.026C199.615 170.253 199.796 170.525 200.023 170.571C200.205 170.571 200.386 170.434 200.477 170.208Z" fill="#444444"/>
<path d="M103.392 226.203C103.392 226.203 118.862 216.992 123.761 198.841L103.392 226.203Z" fill="white"/>
<path d="M103.618 226.611C103.754 226.52 103.89 226.43 104.026 226.339C104.435 226.067 104.798 225.84 105.206 225.567C105.841 225.114 106.431 224.66 107.021 224.206C107.792 223.616 108.518 223.026 109.198 222.391C110.06 221.62 110.877 220.848 111.693 220.031C112.601 219.124 113.508 218.126 114.37 217.127C115.323 215.993 116.23 214.858 117.092 213.679C117.999 212.408 118.861 211.092 119.633 209.776C120.449 208.324 121.221 206.872 121.901 205.375C122.627 203.741 123.262 202.062 123.761 200.383C123.897 199.975 124.033 199.521 124.124 199.113C124.169 198.886 124.033 198.659 123.806 198.568C123.58 198.523 123.353 198.659 123.262 198.886C122.808 200.61 122.219 202.289 121.538 203.923C121.221 204.649 120.903 205.42 120.54 206.192C120.177 206.918 119.814 207.644 119.406 208.37C118.635 209.731 117.818 211.092 116.911 212.408C116.502 213.043 116.049 213.633 115.595 214.223C115.55 214.314 115.504 214.359 115.459 214.45C115.414 214.495 115.414 214.541 115.368 214.541L115.323 214.586C115.232 214.722 115.096 214.858 115.005 214.995C114.778 215.267 114.552 215.539 114.325 215.811C113.463 216.855 112.601 217.853 111.648 218.806C110.831 219.668 109.97 220.485 109.108 221.302C108.382 221.983 107.61 222.618 106.839 223.253C106.658 223.389 106.522 223.525 106.34 223.662C106.249 223.707 106.159 223.798 106.068 223.843L106.023 223.888C105.977 223.934 105.932 223.934 105.886 223.979C105.614 224.206 105.297 224.433 105.024 224.614C104.616 224.932 104.163 225.25 103.709 225.522C103.527 225.658 103.301 225.794 103.119 225.93C103.119 225.93 103.119 225.93 103.074 225.93C102.892 226.067 102.801 226.339 102.938 226.52C103.119 226.656 103.391 226.702 103.618 226.611Z" fill="#444444"/>
<path d="M162.051 198.887C162.051 198.887 168.039 218.126 181.423 227.156L162.051 198.887Z" fill="white"/>
<path d="M161.643 198.977C161.688 199.159 161.779 199.34 161.824 199.522C162.006 200.021 162.187 200.52 162.368 200.974C162.641 201.745 162.958 202.471 163.23 203.197C163.639 204.195 164.047 205.148 164.501 206.101C165 207.236 165.544 208.325 166.134 209.414C166.769 210.639 167.45 211.819 168.13 212.998C168.901 214.269 169.673 215.494 170.535 216.674C171.442 217.945 172.349 219.17 173.393 220.349C174.391 221.529 175.48 222.709 176.614 223.753C177.748 224.842 178.973 225.885 180.288 226.838C180.606 227.065 180.924 227.292 181.241 227.519C181.423 227.655 181.74 227.564 181.831 227.383C181.967 227.156 181.876 226.929 181.695 226.793C180.379 225.885 179.245 225.023 178.065 223.934C176.886 222.891 175.797 221.802 174.799 220.622C174.3 220.032 173.801 219.442 173.302 218.852C173.166 218.716 173.075 218.534 172.939 218.398C172.894 218.308 172.803 218.262 172.758 218.171C172.758 218.171 172.667 218.081 172.712 218.126C172.667 218.081 172.621 218.035 172.621 217.99C172.395 217.672 172.168 217.4 171.941 217.082C171.079 215.903 170.262 214.677 169.446 213.407C168.72 212.227 168.039 211.047 167.359 209.822C166.769 208.733 166.179 207.599 165.635 206.464C165.181 205.511 164.728 204.513 164.319 203.515C164.274 203.469 164.274 203.424 164.229 203.333C164.229 203.288 164.274 203.424 164.229 203.333C164.229 203.288 164.183 203.288 164.183 203.242C164.138 203.152 164.092 203.016 164.047 202.925C163.956 202.698 163.866 202.516 163.775 202.29C163.639 201.927 163.503 201.564 163.321 201.201C163.094 200.656 162.913 200.111 162.731 199.567C162.641 199.295 162.55 199.068 162.459 198.796C162.459 198.796 162.459 198.796 162.459 198.75C162.368 198.523 162.142 198.387 161.915 198.433C161.733 198.523 161.597 198.75 161.643 198.977Z" fill="#444444"/>
<path d="M115.959 192.805L116.912 198.885H171.488V192.805H115.959Z" fill="white"/>
<path d="M115.55 192.896C115.823 194.666 116.095 196.435 116.367 198.205C116.412 198.477 116.458 198.704 116.503 198.976C116.548 199.158 116.73 199.294 116.911 199.294C117.41 199.294 117.864 199.294 118.363 199.294C119.679 199.294 120.994 199.294 122.355 199.294C124.306 199.294 126.257 199.294 128.208 199.294C130.612 199.294 132.971 199.294 135.376 199.294C138.007 199.294 140.593 199.294 143.224 199.294C145.856 199.294 148.487 199.294 151.164 199.294C153.613 199.294 156.109 199.294 158.558 199.294C160.645 199.294 162.732 199.294 164.819 199.294C166.316 199.294 167.813 199.294 169.31 199.294C170.036 199.294 170.717 199.294 171.443 199.294C171.488 199.294 171.488 199.294 171.533 199.294C171.76 199.294 171.987 199.113 171.987 198.84C171.987 197.071 171.987 195.301 171.987 193.531C171.987 193.304 171.987 193.032 171.987 192.805C171.987 192.578 171.806 192.351 171.533 192.351C171.034 192.351 170.535 192.351 170.036 192.351C168.675 192.351 167.36 192.351 165.999 192.351C164.002 192.351 162.006 192.351 160.01 192.351C157.56 192.351 155.156 192.351 152.706 192.351C150.075 192.351 147.398 192.351 144.767 192.351C142.09 192.351 139.368 192.351 136.691 192.351C134.196 192.351 131.701 192.351 129.206 192.351C127.074 192.351 124.987 192.351 122.855 192.351C121.312 192.351 119.815 192.351 118.272 192.351C117.547 192.351 116.821 192.351 116.095 192.351C116.049 192.351 116.049 192.351 116.004 192.351C115.46 192.351 115.46 193.214 116.004 193.214C116.503 193.214 117.002 193.214 117.501 193.214C118.862 193.214 120.178 193.214 121.539 193.214C123.535 193.214 125.531 193.214 127.527 193.214C129.977 193.214 132.382 193.214 134.831 193.214C137.463 193.214 140.139 193.214 142.771 193.214C145.447 193.214 148.169 193.214 150.846 193.214C153.341 193.214 155.836 193.214 158.332 193.214C160.464 193.214 162.551 193.214 164.683 193.214C166.225 193.214 167.723 193.214 169.265 193.214C169.991 193.214 170.717 193.259 171.443 193.214C171.488 193.214 171.488 193.214 171.533 193.214C171.397 193.077 171.261 192.941 171.08 192.76C171.08 194.529 171.08 196.299 171.08 198.069C171.08 198.296 171.08 198.568 171.08 198.795C171.216 198.659 171.352 198.523 171.533 198.341C171.034 198.341 170.581 198.341 170.082 198.341C168.766 198.341 167.45 198.341 166.089 198.341C164.139 198.341 162.188 198.341 160.237 198.341C157.833 198.341 155.473 198.341 153.069 198.341C150.438 198.341 147.852 198.341 145.22 198.341C142.589 198.341 139.958 198.341 137.281 198.341C134.831 198.341 132.336 198.341 129.886 198.341C127.8 198.341 125.713 198.341 123.626 198.341C122.129 198.341 120.632 198.341 119.134 198.341C118.409 198.341 117.728 198.296 117.002 198.341C116.957 198.341 116.957 198.341 116.911 198.341C117.048 198.432 117.184 198.568 117.32 198.659C117.048 196.889 116.775 195.119 116.503 193.35C116.458 193.077 116.412 192.851 116.367 192.578C116.322 192.351 116.049 192.215 115.823 192.261C115.596 192.442 115.505 192.669 115.55 192.896Z" fill="#444444"/>
<path d="M282.092 82.9032C282.092 83.5384 282.092 84.1737 282.092 84.8544C282.092 86.6241 282.092 88.3938 282.092 90.1181C282.092 92.7045 282.092 95.291 282.092 97.8775C282.092 101.054 282.092 104.23 282.092 107.407C282.092 110.855 282.092 114.349 282.092 117.798C282.092 121.292 282.092 124.786 282.092 128.28C282.092 131.547 282.092 134.859 282.092 138.127C282.092 140.895 282.092 143.663 282.092 146.385C282.092 148.382 282.092 150.333 282.092 152.33C282.092 153.237 282.002 154.235 282.092 155.188C282.092 155.234 282.092 155.279 282.092 155.324C282.228 155.188 282.364 155.052 282.546 154.871C281.639 154.871 280.777 154.871 279.869 154.871C277.465 154.871 275.06 154.871 272.656 154.871C269.072 154.871 265.533 154.871 261.949 154.871C257.594 154.871 253.239 154.871 248.884 154.871C244.12 154.871 239.356 154.871 234.593 154.871C229.739 154.871 224.93 154.871 220.075 154.871C215.584 154.871 211.138 154.871 206.647 154.871C202.836 154.871 199.07 154.871 195.26 154.871C192.538 154.871 189.816 154.871 187.094 154.871C185.823 154.871 184.508 154.78 183.237 154.871C183.192 154.871 183.147 154.871 183.056 154.871C183.192 155.007 183.328 155.143 183.51 155.324C183.51 154.689 183.51 154.054 183.51 153.373C183.51 151.604 183.51 149.834 183.51 148.109C183.51 145.523 183.51 142.937 183.51 140.35C183.51 137.174 183.51 133.997 183.51 130.821C183.51 127.372 183.51 123.878 183.51 120.43C183.51 116.936 183.51 113.442 183.51 109.948C183.51 106.681 183.51 103.368 183.51 100.101C183.51 97.333 183.51 94.565 183.51 91.8424C183.51 89.8458 183.51 87.8946 183.51 85.898C183.51 84.9905 183.6 83.9922 183.51 83.0393C183.51 82.9939 183.51 82.9485 183.51 82.9032C183.373 83.0393 183.237 83.1754 183.056 83.3569C183.963 83.3569 184.825 83.3569 185.733 83.3569C188.137 83.3569 190.541 83.3569 192.946 83.3569C196.53 83.3569 200.069 83.3569 203.653 83.3569C208.008 83.3569 212.363 83.3569 216.718 83.3569C221.482 83.3569 226.245 83.3569 231.009 83.3569C235.863 83.3569 240.672 83.3569 245.526 83.3569C250.018 83.3569 254.464 83.3569 258.955 83.3569C262.766 83.3569 266.531 83.3569 270.342 83.3569C273.064 83.3569 275.786 83.3569 278.508 83.3569C279.779 83.3569 281.094 83.4023 282.364 83.3569C282.41 83.3569 282.455 83.3569 282.546 83.3569C283.09 83.3569 283.09 82.4948 282.546 82.4948C281.639 82.4948 280.777 82.4948 279.869 82.4948C277.465 82.4948 275.06 82.4948 272.656 82.4948C269.072 82.4948 265.533 82.4948 261.949 82.4948C257.594 82.4948 253.239 82.4948 248.884 82.4948C244.12 82.4948 239.356 82.4948 234.593 82.4948C229.739 82.4948 224.93 82.4948 220.075 82.4948C215.584 82.4948 211.138 82.4948 206.647 82.4948C202.836 82.4948 199.07 82.4948 195.26 82.4948C192.538 82.4948 189.816 82.4948 187.094 82.4948C185.823 82.4948 184.508 82.4494 183.237 82.4948C183.192 82.4948 183.147 82.4948 183.056 82.4948C182.829 82.4948 182.602 82.6763 182.602 82.9485C182.602 83.5838 182.602 84.2191 182.602 84.8997C182.602 86.6694 182.602 88.4391 182.602 90.1634C182.602 92.7499 182.602 95.3364 182.602 97.9229C182.602 101.099 182.602 104.276 182.602 107.452C182.602 110.901 182.602 114.395 182.602 117.843C182.602 121.337 182.602 124.831 182.602 128.325C182.602 131.592 182.602 134.905 182.602 138.172C182.602 140.94 182.602 143.708 182.602 146.431C182.602 148.427 182.602 150.378 182.602 152.375C182.602 153.328 182.557 154.281 182.602 155.234C182.602 155.279 182.602 155.324 182.602 155.37C182.602 155.597 182.784 155.824 183.056 155.824C183.963 155.824 184.825 155.824 185.733 155.824C188.137 155.824 190.541 155.824 192.946 155.824C196.53 155.824 200.069 155.824 203.653 155.824C208.008 155.824 212.363 155.824 216.718 155.824C221.482 155.824 226.245 155.824 231.009 155.824C235.863 155.824 240.672 155.824 245.526 155.824C250.018 155.824 254.464 155.824 258.955 155.824C262.766 155.824 266.531 155.824 270.342 155.824C273.064 155.824 275.786 155.824 278.508 155.824C279.779 155.824 281.094 155.869 282.364 155.824C282.41 155.824 282.455 155.824 282.546 155.824C282.773 155.824 283 155.642 283 155.37C283 154.734 283 154.099 283 153.419C283 151.649 283 149.879 283 148.155C283 145.568 283 142.982 283 140.395C283 137.219 283 134.043 283 130.866C283 127.418 283 123.924 283 120.475C283 116.981 283 113.487 283 109.993C283 106.726 283 103.413 283 100.146C283 97.3783 283 94.6104 283 91.8878C283 89.8912 283 87.94 283 85.9434C283 84.9905 283.045 84.0376 283 83.0847C283 83.0393 283 82.9939 283 82.9485C283 82.3586 282.092 82.3586 282.092 82.9032Z" fill="#444444"/>
<g opacity="0.14">
<path d="M282.546 110.719V155.415H183.056V132.817C190.269 125.239 200.93 118.161 212.862 124.014C234.683 134.678 249.927 137.083 264.989 124.014C270.342 119.295 276.467 114.667 282.546 110.719Z" fill="#444444"/>
<path d="M282.637 155.461H182.92V132.727L182.965 132.681C187.275 128.144 191.721 124.967 196.122 123.198C201.838 120.974 207.464 121.156 212.908 123.833C233.459 133.861 249.383 137.355 264.944 123.833C270.388 119.114 276.467 114.531 282.501 110.583L282.637 110.492V155.461ZM183.147 155.279H282.455V110.901C276.467 114.848 270.433 119.386 265.08 124.06C257.685 130.458 250.199 133.271 241.489 132.999C233.731 132.727 224.884 129.959 212.817 124.105C200.795 118.252 190.043 125.603 183.147 132.863V155.279Z" fill="#444444"/>
</g>
<path d="M208.507 114.122C213.518 114.122 217.58 110.059 217.58 105.047C217.58 100.035 213.518 95.9717 208.507 95.9717C203.496 95.9717 199.434 100.035 199.434 105.047C199.434 110.059 203.496 114.122 208.507 114.122Z" fill="#1F75BA"/>
<path d="M147.262 199.204C147.262 199.476 147.216 199.794 147.216 200.066C147.171 200.838 147.126 201.609 147.08 202.38C146.99 203.515 146.944 204.649 146.854 205.784C146.763 207.19 146.672 208.552 146.581 209.958C146.491 211.501 146.4 212.998 146.309 214.541C146.218 216.084 146.128 217.627 146.037 219.17C145.946 220.622 145.855 222.028 145.765 223.48C145.674 224.706 145.629 225.885 145.538 227.111C145.492 227.973 145.447 228.88 145.356 229.742C145.311 230.151 145.311 230.559 145.266 230.968V231.013C145.447 230.877 145.629 230.741 145.81 230.605C145.765 230.605 145.719 230.559 145.674 230.559C145.583 230.514 145.765 230.605 145.719 230.559C145.674 230.559 145.674 230.514 145.629 230.514C145.583 230.469 145.493 230.469 145.447 230.423C145.266 230.332 145.13 230.242 144.948 230.105L144.903 230.06C144.948 230.105 145.039 230.151 144.903 230.06C144.857 230.015 144.812 229.969 144.767 229.924C144.676 229.833 144.54 229.742 144.449 229.652C144.358 229.561 144.222 229.425 144.131 229.289C144.086 229.243 144.041 229.153 143.95 229.107L143.905 229.062C143.859 229.016 143.905 229.016 143.905 229.062C143.905 229.016 143.814 228.971 143.814 228.926C143.587 228.608 143.36 228.245 143.133 227.882C143.043 227.655 142.907 227.428 142.816 227.247C142.816 227.201 142.77 227.201 142.77 227.156C142.725 227.065 142.816 227.247 142.77 227.156C142.725 227.111 142.725 227.02 142.68 226.975C142.634 226.838 142.589 226.702 142.544 226.566C142.317 225.976 142.181 225.386 142.045 224.796C141.682 223.208 141.591 221.665 141.591 220.032C141.591 218.126 141.636 216.175 141.682 214.269C141.818 210.866 142.045 207.417 142.317 204.014C142.453 202.29 142.634 200.611 142.816 198.886C142.816 198.841 142.816 198.841 142.816 198.796C142.861 198.569 142.589 198.342 142.362 198.342C142.09 198.342 141.954 198.523 141.908 198.796C141.863 199.204 141.818 199.567 141.772 199.975C141.682 201.019 141.591 202.063 141.5 203.106C141.364 204.604 141.228 206.147 141.137 207.644C141.001 209.459 140.91 211.274 140.82 213.044C140.729 214.995 140.684 216.901 140.684 218.852C140.684 220.622 140.729 222.391 141.001 224.116C141.228 225.341 141.546 226.566 142.045 227.701C142.408 228.472 142.861 229.243 143.406 229.879C143.769 230.287 144.222 230.695 144.676 230.968C144.903 231.104 145.175 231.24 145.447 231.331C145.447 231.331 145.447 231.331 145.493 231.331C145.765 231.421 146.037 231.195 146.037 230.922C146.037 230.65 146.082 230.332 146.082 230.06C146.128 229.289 146.173 228.517 146.218 227.746C146.309 226.611 146.354 225.477 146.445 224.343C146.536 222.936 146.627 221.575 146.717 220.168C146.808 218.625 146.899 217.128 146.99 215.585C147.08 214.042 147.171 212.499 147.262 210.957C147.353 209.504 147.443 208.098 147.534 206.646C147.625 205.421 147.67 204.241 147.761 203.016C147.806 202.153 147.852 201.246 147.942 200.384C147.988 199.975 147.988 199.567 148.033 199.159V199.113C148.033 198.886 147.806 198.659 147.579 198.659C147.443 198.75 147.262 198.977 147.262 199.204Z" fill="#444444"/>
<path d="M186.776 264.501C186.504 260.735 186.232 257.286 185.96 253.883C185.415 248.075 184.826 242.811 184.145 237.819C183.51 233.236 182.829 229.107 182.013 225.159C181.287 221.62 180.561 218.489 179.744 215.494C179.019 212.908 178.293 210.593 177.521 208.461C176.841 206.6 176.251 205.148 175.525 203.696C174.981 202.562 174.436 201.563 173.847 200.701C173.62 200.384 173.438 200.066 173.212 199.794L172.985 199.521C172.894 199.431 172.849 199.34 172.758 199.249C172.667 199.158 172.576 199.068 172.486 198.977L172.35 198.841L172.123 198.886C172.077 198.886 172.032 198.886 171.987 198.886C171.896 198.886 171.851 198.886 171.714 198.886C171.624 198.886 171.578 198.886 171.488 198.886H116.548L116.412 199.068C116.004 199.612 115.686 200.021 115.414 200.474C113.372 203.469 111.694 206.6 110.469 209.005C108.79 212.272 107.157 215.812 105.252 220.122C103.573 224.025 101.804 228.29 99.9437 233.1C98.2651 237.456 96.5412 241.994 94.7718 246.986C93.1386 251.478 91.5508 256.061 89.8268 261.052C89.5546 261.824 89.3278 262.595 89.0556 263.321L88.4658 265H140.457L143.95 254.382C143.95 254.427 143.95 254.427 143.95 254.473C144.086 255.789 144.086 257.15 144.131 258.511C144.131 259.192 144.131 259.872 144.177 260.553L144.313 265H186.776V264.501ZM144.086 253.474C144.041 253.474 143.995 253.474 143.95 253.474C143.541 253.474 143.224 253.701 143.088 254.11L139.821 264.093H89.7361L89.9629 263.457C90.1898 262.731 90.462 262.005 90.6888 261.279C92.3674 256.333 94.0006 251.705 95.6338 247.212C97.4485 242.221 99.1271 237.683 100.806 233.372C102.666 228.563 104.435 224.343 106.114 220.44C107.974 216.129 109.607 212.635 111.285 209.368C112.51 206.963 114.144 203.878 116.185 200.928C116.457 200.565 116.684 200.202 117.047 199.748H171.488C171.533 199.748 171.624 199.748 171.714 199.748C171.805 199.748 171.896 199.748 171.987 199.748C172.032 199.794 172.032 199.839 172.077 199.839C172.168 199.93 172.214 199.975 172.259 200.066L172.44 200.293C172.667 200.565 172.849 200.837 173.03 201.155C173.575 201.972 174.074 202.925 174.618 204.014C175.298 205.466 175.888 206.827 176.569 208.688C177.34 210.82 178.066 213.089 178.746 215.676C179.563 218.625 180.289 221.756 180.969 225.295C181.741 229.198 182.466 233.327 183.102 237.91C183.782 242.902 184.417 248.165 184.916 253.928C185.188 257.15 185.461 260.462 185.733 264.002H145.129L144.993 260.417C144.948 259.782 144.948 259.101 144.948 258.42C144.948 257.059 144.903 255.698 144.766 254.337V254.246C144.857 253.883 144.54 253.565 144.086 253.474Z" fill="#444444"/>
</g>
<defs>
<clipPath id="clip0_4545_4824">
<rect width="283" height="265" fill="white"/>
</clipPath>
</defs>
</svg>
