<svg width="410" height="325" viewBox="0 0 410 325" fill="none" xmlns="http://www.w3.org/2000/svg">
<path fill-rule="evenodd" clip-rule="evenodd" d="M204.761 0.332699C209.129 -0.802911 214.108 1.03154 216.554 4.87514C219.699 9.33023 218.738 16.2312 214.37 19.5507C210.352 22.7828 203.888 22.7829 200.132 19.2013C197.074 16.4933 195.851 12.0382 196.899 8.10727C197.86 4.26366 201.005 1.20625 204.761 0.332699ZM158.638 10.6406C165.102 8.71875 172.615 12.3876 174.886 18.7645C177.07 24.1805 175.148 30.9068 170.344 34.3137C165.19 38.2446 157.153 37.7205 152.698 32.916C147.369 27.5874 147.981 17.7163 154.008 13.0865C155.406 11.8635 156.978 11.0773 158.638 10.6406ZM246.604 14.4842C249.924 13.0865 254.117 13.698 256.825 16.1439C259.882 18.6772 261.018 23.1323 259.62 26.8885C258.048 31.3436 253.068 34.0516 248.526 33.0907C244.42 32.3919 241.101 28.6356 240.839 24.5299C240.315 20.3369 242.761 16.0565 246.604 14.4842ZM189.562 32.8286C193.231 31.8677 197.424 33.0907 200.044 35.7987C202.49 38.332 203.626 42.0882 203.014 45.4951C202.403 48.9893 199.957 51.9593 196.725 53.357C192.968 55.0167 188.251 54.4926 185.107 51.872C181.7 49.0766 180.477 44.1847 181.787 40.0791C182.835 36.5849 185.98 33.7022 189.562 32.8286ZM220.573 33.9642C224.416 33.0907 228.784 34.8378 230.88 38.1573C232.802 41.04 232.89 44.8836 231.405 47.941C229.046 52.8329 222.407 54.6673 217.777 51.9593C213.759 49.7754 212.099 44.6215 213.497 40.4285C214.458 37.1964 217.253 34.6631 220.573 33.9642ZM126.055 44.8836C129.636 43.5733 133.742 44.2721 136.712 46.718C139.333 48.8145 140.905 52.0467 140.818 55.3661C140.818 59.035 138.809 62.6166 135.576 64.5384C132.257 66.5475 127.889 66.7223 124.482 64.8878C120.814 62.966 118.63 58.8603 118.892 54.842C118.979 50.3869 121.949 46.2813 126.055 44.8836ZM281.896 47.0675C286.438 45.4951 291.854 48.5525 292.815 53.2696C294.038 57.6374 290.98 62.5292 286.525 63.4901C282.42 64.6257 277.615 62.1798 276.392 58.0741C274.82 53.7064 277.353 48.2904 281.896 47.0675ZM163.006 47.5042C166.762 46.6307 170.868 47.8536 173.488 50.5616C175.672 52.7455 176.808 55.9776 176.458 59.1224C176.196 63.4901 172.877 67.4211 168.684 68.6441C165.626 69.4302 162.132 69.0808 159.424 67.3337C155.581 64.8878 153.834 59.9086 154.969 55.6282C155.755 51.6099 159.075 48.3778 163.006 47.5042ZM248.264 49.6881C252.544 48.7272 257.349 51.6099 258.31 55.8903C259.707 60.6074 256.126 65.9361 251.234 66.4602C247.128 67.159 242.761 64.451 241.8 60.258C240.402 55.8029 243.547 50.4743 248.264 49.6881ZM191.221 63.7522C196.375 62.7039 201.879 66.4602 202.665 71.7015C203.713 76.768 199.869 82.184 194.803 82.9702C189.649 84.1058 184.058 80.2622 183.447 75.0209C182.486 69.9544 186.067 64.5384 191.221 63.7522ZM219.437 65.4119C223.979 63.5775 229.657 66.2855 230.88 71.09C232.453 76.0692 228.434 81.922 223.106 81.922C219.088 82.3587 215.157 79.476 214.37 75.5451C213.235 71.4394 215.506 66.897 219.437 65.4119ZM148.942 74.2347C151.475 73.6233 154.27 73.8853 156.542 75.1956C160.385 77.3795 162.394 82.4461 160.909 86.6391C159.424 91.4436 153.921 94.4137 149.116 93.016C144.487 92.0551 141.342 87.1632 141.953 82.5334C142.215 78.6898 145.185 75.283 148.942 74.2347ZM261.28 76.4186C265.473 75.1956 270.452 78.6025 270.452 83.0576C270.889 87.1632 267.307 90.9195 263.202 90.8321C259.445 91.0068 255.951 87.8621 255.864 84.1058C255.427 80.6116 257.873 77.1175 261.28 76.4186ZM115.747 89.8712C119.94 88.3862 125.094 90.1333 127.365 94.0643C130.073 98.2573 128.763 104.547 124.482 107.167C120.115 110.312 113.388 108.915 110.68 104.197C107.448 99.2182 109.982 91.6183 115.747 89.8712ZM175.498 91.0068C180.215 89.085 186.155 92.2298 186.941 97.2964C187.989 101.664 185.019 106.381 180.651 107.342C176.633 108.39 171.916 106.119 170.606 102.101C168.946 97.8205 171.13 92.4919 175.498 91.0068ZM204.325 91.0068C209.391 88.823 215.855 92.6666 216.03 98.1699C216.642 102.8 212.623 107.342 207.993 107.43C204.15 107.692 200.394 105.158 199.433 101.402C198.035 97.3837 200.219 92.4919 204.325 91.0068ZM235.685 91.8804C239.616 90.8321 244.071 93.7148 244.595 97.7332C245.381 101.664 242.324 105.944 238.306 106.294C234.462 106.993 230.444 103.935 230.094 100.004C229.57 96.3355 232.016 92.5792 235.685 91.8804ZM292.64 91.8804C296.658 91.0068 301.026 94.1516 301.376 98.2573C301.987 102.45 298.406 106.469 294.213 106.381C290.544 106.556 287.049 103.499 286.875 99.8297C286.351 96.2481 289.059 92.4919 292.64 91.8804ZM148.854 105.595C153.484 103.935 158.988 106.993 159.948 111.797C161.084 116.252 157.939 121.057 153.572 122.018C149.291 123.153 144.487 120.358 143.438 116.078C142.128 111.885 144.574 106.905 148.854 105.595ZM261.28 107.779C265.123 106.643 269.404 109.963 268.967 113.981C269.054 117.825 264.861 120.707 261.28 119.659C257.873 118.873 255.864 114.855 257.087 111.623C257.698 109.788 259.358 108.303 261.28 107.779ZM191.221 117.65C195.414 116.34 200.219 119.397 200.568 123.765C201.267 128.045 197.424 132.326 193.143 131.976C189.3 132.151 185.893 128.657 185.98 124.813C185.893 121.581 188.164 118.436 191.221 117.65ZM220.485 118.611C223.717 117.475 227.648 119.31 228.522 122.717C229.745 126.473 226.513 130.753 222.494 130.491C219 130.666 216.03 127.172 216.554 123.765C216.729 121.494 218.301 119.31 220.485 118.611ZM165.102 132.762C169.295 131.365 174.275 134.509 174.537 138.965C175.148 143.158 171.392 147.263 167.111 147.089C163.355 147.176 159.948 143.856 159.948 140.1C159.774 136.868 161.958 133.636 165.102 132.762ZM128.85 134.422C133.829 132.762 139.769 136.868 139.769 142.197C140.294 147.351 135.314 151.806 130.335 151.107C126.404 150.757 122.997 147.351 122.823 143.332C122.299 139.489 124.919 135.383 128.85 134.422ZM245.556 135.47C248.351 133.811 252.457 135.645 252.894 138.965C253.68 142.633 249.4 145.953 245.993 144.293C242.411 142.896 242.062 137.217 245.556 135.47ZM280.236 137.13C284.254 135.208 289.321 138.877 288.709 143.332C288.622 147.875 282.769 150.495 279.188 147.962C275.257 145.516 275.868 138.702 280.236 137.13ZM190.173 149.098C193.842 147.787 198.297 150.67 198.21 154.688C198.559 158.445 194.716 161.764 191.047 160.978C187.902 160.541 185.543 157.309 186.067 154.077C186.33 151.893 187.989 149.797 190.173 149.098ZM220.485 150.583C223.281 149.098 227.212 151.02 227.561 154.252C228.347 157.833 224.241 161.065 220.922 159.668C217.078 158.357 216.816 152.155 220.485 150.583ZM160.298 167.617C164.84 166.132 170.082 169.975 169.732 174.78C169.907 179.148 165.364 182.729 161.084 181.856C157.765 181.419 155.057 178.187 155.144 174.867C154.969 171.635 157.153 168.49 160.298 167.617ZM248.788 169.713C252.37 168.141 256.563 171.985 255.252 175.741C254.379 179.235 249.574 180.371 247.128 177.925C244.508 175.566 245.469 170.762 248.788 169.713ZM205.897 180.545C210.265 179.235 214.807 183.69 213.409 188.058C212.449 192.6 205.897 194.173 202.927 190.679C199.957 187.446 201.529 181.419 205.897 180.545ZM78.0097 232.259C83.3384 225.97 91.6371 222.563 99.761 222.825C108.933 222.738 118.018 227.63 122.648 235.666C120.027 237.151 117.494 238.636 114.873 240.209C112.69 236.452 109.108 233.482 104.828 232.347C98.6254 230.6 91.5497 231.823 86.5705 236.103C77.7477 243.703 78.2718 259.776 87.9682 266.415C92.2485 269.385 97.7519 270.346 102.818 269.472C107.71 268.599 112.34 265.541 114.699 261.086C117.319 262.571 119.853 264.056 122.473 265.541C117.931 273.578 108.846 278.557 99.6737 278.383C91.8991 278.645 83.8625 275.587 78.6212 269.734C69.1869 259.776 69.0122 242.655 78.0097 232.259ZM180.651 243.79C186.33 236.016 198.559 235.579 205.722 241.606C214.545 248.42 215.681 262.571 208.43 271.045C203.538 277.16 194.716 279.518 187.378 276.723C184.67 275.762 182.486 273.84 180.651 271.656C180.651 278.47 180.651 285.284 180.651 292.185C177.856 292.185 175.148 292.185 172.353 292.185C172.353 274.277 172.353 256.457 172.353 238.549C174.275 238.549 176.109 238.549 178.031 238.549C178.904 240.209 179.778 241.956 180.651 243.79ZM190.173 245.712C187.465 246.236 184.932 247.809 183.272 249.992C179.429 254.972 180.127 263.008 185.107 267.027C189.474 270.695 196.375 270.608 200.743 266.852C205.984 262.397 206.246 253.399 201.267 248.682C198.384 245.887 194.017 244.926 190.173 245.712ZM308.189 242.567C315.265 236.103 327.145 235.666 334.658 241.781C336.58 243.266 337.977 245.275 339.2 247.372C336.842 248.769 334.396 250.167 331.95 251.565C328.805 245.1 319.283 243.79 314.129 248.507C308.539 253.137 308.888 262.833 314.654 267.114C318.584 270.171 324.525 270.346 328.63 267.463C330.028 266.502 331.076 265.017 332.124 263.62C334.483 265.017 336.929 266.328 339.288 267.725C334.832 276.286 323.738 279.868 314.916 276.636C307.228 274.19 301.812 266.415 301.725 258.378C301.55 252.526 303.822 246.498 308.189 242.567ZM129.898 238.462C132.694 238.462 135.402 238.462 138.197 238.462C138.284 246.586 138.11 254.797 138.284 262.921C144.487 254.797 150.514 246.586 156.629 238.462C158.813 238.462 160.997 238.462 163.181 238.462C163.181 251.215 163.181 263.969 163.181 276.723C160.385 276.723 157.677 276.723 154.882 276.723C154.882 268.948 154.882 261.086 154.882 253.312C148.942 261.086 143.002 268.948 137.061 276.723C134.703 276.723 132.257 276.723 129.898 276.723C129.898 263.969 129.898 251.215 129.898 238.462ZM220.31 238.462C223.106 238.462 225.814 238.462 228.609 238.462C228.609 246.673 228.609 254.797 228.609 263.008C234.811 254.884 240.839 246.673 247.041 238.462C249.225 238.462 251.321 238.462 253.505 238.462C253.505 251.215 253.505 263.969 253.505 276.723C250.797 276.723 248.089 276.723 245.381 276.723C245.381 268.948 245.381 261.086 245.381 253.312C239.441 261.086 233.501 268.861 227.648 276.723C225.202 276.81 222.844 276.723 220.398 276.723C220.311 263.969 220.31 251.215 220.31 238.462ZM259.795 238.462C262.765 238.462 265.735 238.462 268.792 238.462C272.636 247.721 276.48 256.893 280.323 266.153C283.468 256.893 286.787 247.721 290.02 238.462C292.99 238.462 296.047 238.462 299.017 238.462C294.649 250.167 290.282 261.873 285.914 273.665C284.167 278.557 282.42 283.711 278.576 287.38C275.169 290.787 270.277 292.447 265.56 292.097C265.56 289.477 265.56 286.856 265.56 284.235C267.569 284.235 269.666 284.061 271.413 282.925C273.684 281.44 274.907 278.907 275.868 276.461C270.539 263.794 265.211 251.128 259.795 238.462Z" fill="#4A328E"/>
<path fill-rule="evenodd" clip-rule="evenodd" d="M40.798 293.32C41.8462 293.932 42.8945 294.543 43.8554 295.155C42.283 300.745 34.8579 299.785 32.1499 304.327C34.8579 302.405 38.7015 301.794 41.5842 303.628C45.6898 306.074 46.3013 312.364 43.0692 315.683C40.2738 318.653 35.4693 319.003 31.9752 317.081C29.2672 315.596 27.7821 312.451 27.6948 309.481C27.6948 306.686 27.8695 303.541 29.7913 301.27C32.0625 298.562 35.6441 297.688 38.6141 295.941C39.6624 295.417 40.1865 294.281 40.798 293.32ZM34.8579 305.987C32.1499 306.686 30.6648 310.005 32.3246 312.364C34.2464 315.945 40.5359 315.159 41.2348 311.053C42.0209 307.559 38.0026 304.676 34.8579 305.987ZM8.82617 293.932C12.6698 292.796 17.1249 293.582 20.2696 296.116C23.2397 298.474 24.9868 302.318 24.8121 306.161C24.8121 310.879 21.7547 315.334 17.4743 317.168C12.4951 319.352 6.20553 317.954 2.79869 313.587C-0.520784 309.656 -0.870203 303.628 1.83779 299.26C3.32282 296.727 5.85611 294.805 8.82617 293.932ZM9.78707 297.775C4.89521 299.173 2.62398 305.375 4.98256 309.743C6.81701 313.674 11.9709 315.334 15.8145 313.499C20.1823 311.752 21.9294 306.074 19.8329 301.968C18.1731 298.387 13.6307 296.465 9.78707 297.775ZM288.623 295.067C291.855 295.067 295.087 295.067 298.232 295.067C298.232 296.203 298.232 297.339 298.232 298.474C295 298.474 291.768 298.474 288.623 298.474C288.623 297.339 288.623 296.203 288.623 295.067ZM52.2414 302.929C55.2115 299.435 61.1516 299.435 64.209 302.842C68.0526 306.598 67.5285 313.674 63.0734 316.731C59.8413 319.177 54.9494 318.653 52.2414 315.596C52.3288 318.566 52.2414 321.536 52.3288 324.506C51.0185 324.506 49.7955 324.506 48.4852 324.506C48.4852 316.557 48.4852 308.607 48.4852 300.658C49.7955 300.658 51.0185 300.658 52.3288 300.658C52.2414 301.357 52.2414 302.143 52.2414 302.929ZM55.9103 304.152C52.0667 305.201 51.1058 310.791 54.0759 313.325C56.9586 316.12 62.4619 314.111 62.8114 310.092C63.6849 306.336 59.5792 302.755 55.9103 304.152ZM72.5951 302.318C75.7398 299.348 81.1558 299.523 84.0385 302.842C84.0385 302.318 84.0385 301.182 84.0385 300.658C85.3489 300.658 86.5718 300.658 87.8821 300.658C87.8821 306.336 87.8821 312.102 87.8821 317.78C86.5718 317.78 85.3489 317.78 84.0385 317.78C84.0385 317.255 84.0385 316.12 84.0385 315.596C81.2432 319.003 75.6525 319.09 72.5077 316.12C68.5768 312.626 68.6641 305.725 72.5951 302.318ZM76.6134 304.24C72.4204 305.812 72.333 312.538 76.526 314.198C80.1076 315.858 84.4753 312.626 83.9512 308.782C83.8638 305.288 79.8455 302.842 76.6134 304.24ZM91.1143 304.065C93.1234 300.047 99.0635 298.911 102.47 301.794C104.654 303.628 104.48 307.122 102.47 309.044C105.091 310.529 105.702 314.373 103.519 316.469C99.8497 319.614 93.1234 318.828 91.0269 314.111C92.0752 313.499 93.0361 312.888 94.0843 312.276C95.1326 314.984 99.675 316.033 101.073 313.15C101.509 310.442 98.0153 310.704 96.2682 310.791C96.2682 309.656 96.2682 308.607 96.2682 307.472C97.5785 307.297 99.3256 307.821 100.199 306.511C100.898 305.288 99.9371 303.803 98.6268 303.716C96.7923 303.191 95.2199 304.502 94.259 305.899C93.2108 305.288 92.1625 304.676 91.1143 304.065ZM113.652 300.658C118.806 298.824 125.095 302.755 125.357 308.345C125.969 312.975 122.475 317.605 117.845 318.129C113.39 318.915 108.673 315.945 107.712 311.577C106.314 307.035 109.109 301.881 113.652 300.658ZM115.137 304.152C112.516 304.676 110.769 307.472 111.206 310.005C111.381 312.626 114.001 314.722 116.622 314.46C119.505 314.46 121.863 311.665 121.514 308.869C121.601 305.725 118.107 303.279 115.137 304.152ZM146.672 305.987C147.895 302.056 152.35 299.522 156.368 300.396C158.028 300.658 159.338 301.706 160.561 302.842C160.561 302.143 160.561 301.357 160.474 300.658C161.697 300.658 163.007 300.658 164.317 300.658C164.317 306.336 164.317 312.102 164.317 317.78C163.007 317.78 161.784 317.78 160.474 317.78C160.474 317.255 160.561 316.295 160.561 315.77C158.29 318.216 154.446 319.003 151.389 317.605C146.934 315.77 145.012 310.267 146.672 305.987ZM153.223 304.24C149.292 305.637 148.856 311.84 152.437 313.849C155.669 316.033 160.561 313.412 160.474 309.481C160.911 305.725 156.63 302.667 153.223 304.24ZM187.117 302.318C190.611 299.348 196.551 299.523 199.521 303.104C201.356 305.201 201.793 308.083 201.618 310.791C197.075 310.879 192.446 310.791 187.903 310.791C188.515 312.276 189.476 313.761 191.048 314.285C193.407 315.246 196.115 314.46 197.862 312.626C198.91 313.237 199.958 313.849 200.919 314.46C197.862 318.915 191.048 319.439 187.03 316.12C183.011 312.713 183.011 305.637 187.117 302.318ZM187.903 307.646C191.223 307.734 194.542 307.734 197.862 307.646C197.25 305.55 195.503 303.628 193.232 303.716C190.699 303.453 188.602 305.375 187.903 307.646ZM253.07 300.658C254.293 300.658 255.603 300.658 256.913 300.658C256.913 306.336 256.913 312.102 256.913 317.78C255.603 317.78 254.38 317.78 253.07 317.78C253.07 315.596 253.07 313.325 253.07 311.141C250.537 311.141 248.003 311.141 245.47 311.141C245.47 313.325 245.47 315.596 245.47 317.78C244.16 317.78 242.937 317.78 241.626 317.78C241.626 312.102 241.626 306.336 241.626 300.658C242.849 300.658 244.16 300.658 245.47 300.658C245.47 302.929 245.47 305.201 245.47 307.472C248.003 307.472 250.537 307.472 253.07 307.472C253.07 305.201 253.07 302.929 253.07 300.658ZM336.756 303.191C339.9 299.523 346.365 299.173 349.684 302.755C351.693 304.851 352.479 307.909 352.13 310.791C347.588 310.791 343.045 310.791 338.415 310.791C339.114 312.451 340.25 314.111 342.172 314.46C344.443 315.246 346.889 314.285 348.374 312.626C349.422 313.237 350.47 313.849 351.519 314.548C348.374 318.828 341.56 319.439 337.454 316.033C333.873 312.888 333.611 306.773 336.756 303.191ZM338.503 307.646C341.822 307.646 345.142 307.646 348.548 307.646C347.85 305.463 346.103 303.541 343.657 303.716C341.123 303.541 339.202 305.463 338.503 307.646ZM355.886 300.658C357.109 300.658 358.42 300.658 359.73 300.658C359.73 302.929 359.73 305.201 359.73 307.472C362.263 307.472 364.796 307.472 367.33 307.472C367.33 305.201 367.33 302.929 367.33 300.658C368.553 300.658 369.863 300.658 371.173 300.658C371.173 306.336 371.173 312.102 371.173 317.78C369.863 317.78 368.64 317.78 367.33 317.78C367.33 315.596 367.33 313.325 367.33 311.141C364.796 311.141 362.263 311.141 359.73 311.141C359.73 313.325 359.73 315.596 359.73 317.78C358.42 317.78 357.197 317.78 355.886 317.78C355.886 312.014 355.886 306.336 355.886 300.658ZM395.633 302.842C398.515 299.348 404.281 299.523 407.338 302.667C411.094 306.249 410.832 313.062 406.814 316.295C403.669 319.09 398.428 318.915 395.633 315.683C395.633 318.653 395.633 321.536 395.633 324.506C394.322 324.506 393.099 324.506 391.789 324.506C391.789 316.557 391.789 308.607 391.789 300.658C393.012 300.658 394.322 300.658 395.633 300.658C395.72 301.182 395.72 302.231 395.633 302.842ZM398.69 304.327C394.759 305.987 394.672 312.364 398.69 314.023C402.359 315.945 407.076 312.364 406.203 308.345C405.853 304.938 401.747 302.842 398.69 304.327ZM129.114 300.658C132.171 300.745 135.316 300.483 138.373 300.745C140.295 300.92 142.217 302.143 142.654 304.152C143.178 305.899 142.566 307.646 141.431 309.044C144.925 311.053 143.964 316.906 140.033 317.605C136.451 318.042 132.782 317.692 129.201 317.78C129.114 312.014 129.114 306.336 129.114 300.658ZM132.782 303.89C132.782 305.113 132.782 306.336 132.782 307.559C134.442 307.559 136.102 307.646 137.762 307.472C139.334 307.297 139.596 304.764 138.198 304.24C136.451 303.716 134.617 303.978 132.782 303.89ZM132.782 310.704C132.782 311.927 132.782 313.237 132.782 314.46C134.617 314.46 136.451 314.548 138.286 314.373C139.858 314.198 140.382 311.752 138.897 311.053C136.975 310.354 134.792 310.791 132.782 310.704ZM167.288 300.658C172.179 300.658 177.159 300.658 182.05 300.658C182.05 301.881 182.05 303.104 182.05 304.327C180.216 304.327 178.469 304.327 176.634 304.327C176.634 308.782 176.634 313.325 176.634 317.78C175.324 317.78 174.101 317.78 172.791 317.78C172.791 313.325 172.791 308.782 172.791 304.327C170.956 304.327 169.035 304.327 167.2 304.327C167.288 303.104 167.288 301.881 167.288 300.658ZM206.772 300.658C211.14 300.658 215.507 300.658 219.962 300.658C219.962 306.336 219.962 312.102 219.962 317.78C218.652 317.78 217.429 317.78 216.119 317.78C216.119 313.325 216.119 308.782 216.119 304.327C214.284 304.327 212.363 304.327 210.528 304.327C210.353 307.909 211.14 311.752 209.655 315.159C208.694 317.518 205.898 318.042 203.627 317.954C203.627 316.819 203.627 315.683 203.54 314.548C204.413 314.198 205.636 314.285 206.073 313.325C206.684 312.364 206.597 311.141 206.684 310.092C206.772 306.86 206.772 303.803 206.772 300.658ZM224.68 300.658C225.903 300.658 227.213 300.658 228.523 300.658C228.523 302.58 228.523 304.589 228.523 306.511C231.406 306.511 234.987 305.987 237.171 308.52C239.792 311.403 238.307 316.557 234.463 317.518C231.231 318.042 227.999 317.605 224.767 317.78C224.68 312.014 224.68 306.336 224.68 300.658ZM228.436 309.83C228.436 311.315 228.436 312.8 228.436 314.285C230.008 314.198 231.581 314.46 233.066 314.111C234.813 313.674 235.075 311.053 233.59 310.267C232.017 309.568 230.183 310.005 228.436 309.83ZM261.543 300.658C262.766 300.658 264.077 300.658 265.387 300.658C265.387 302.58 265.387 304.589 265.387 306.511C268.007 306.598 270.89 305.987 273.161 307.646C275.607 309.394 276.044 313.15 274.21 315.508C273.161 316.819 271.414 317.692 269.755 317.692C267.047 317.78 264.339 317.692 261.631 317.692C261.543 312.014 261.543 306.336 261.543 300.658ZM265.387 309.83C265.387 311.315 265.387 312.8 265.387 314.285C267.047 314.198 268.794 314.548 270.366 314.023C272.026 313.325 271.851 310.617 270.104 310.092C268.619 309.656 266.959 309.918 265.387 309.83ZM277.18 300.658C278.403 300.658 279.713 300.658 281.023 300.658C281.023 306.336 281.023 312.102 281.023 317.78C279.713 317.78 278.49 317.78 277.18 317.78C277.18 312.014 277.18 306.336 277.18 300.658ZM285.74 300.658C286.963 300.658 288.274 300.658 289.584 300.658C289.584 304.152 289.584 307.734 289.584 311.228C292.467 307.734 295.262 304.24 298.145 300.658C299.106 300.658 300.067 300.658 301.028 300.658C301.028 306.336 301.028 312.102 301.028 317.78C299.805 317.78 298.582 317.78 297.359 317.78C297.359 314.285 297.359 310.704 297.359 307.21C294.476 310.704 291.681 314.285 288.798 317.78C287.837 317.78 286.789 317.78 285.828 317.78C285.74 312.014 285.74 306.336 285.74 300.658ZM314.917 300.658C316.14 300.658 317.45 300.658 318.761 300.658C318.761 305.201 318.761 309.743 318.761 314.198C321.119 314.198 323.565 314.198 325.924 314.198C325.924 309.656 325.924 305.113 325.924 300.658C327.147 300.658 328.457 300.658 329.767 300.658C329.767 305.201 329.767 309.743 329.767 314.285C330.641 314.285 331.602 314.285 332.475 314.285C332.475 316.993 332.475 319.701 332.475 322.409C331.252 322.409 330.029 322.409 328.806 322.409C328.806 320.837 328.806 319.352 328.806 317.78C324.177 317.78 319.547 317.78 315.004 317.78C314.917 312.014 314.917 306.336 314.917 300.658ZM374.143 300.658C379.035 300.658 384.014 300.658 388.906 300.658C388.906 301.881 388.906 303.104 388.906 304.327C387.072 304.327 385.325 304.327 383.49 304.327C383.49 308.782 383.49 313.325 383.49 317.78C382.18 317.78 380.957 317.78 379.647 317.78C379.647 313.325 379.647 308.782 379.647 304.327C377.812 304.327 375.891 304.327 374.056 304.327C374.143 303.104 374.143 301.881 374.143 300.658Z" fill="#879CC0"/>
</svg>
