<svg width="31" height="31" viewBox="0 0 31 31" fill="none" xmlns="http://www.w3.org/2000/svg">
<path d="M19.5352 17.3695H18.5929L18.2589 17.0475C19.4279 15.6878 20.1316 13.9226 20.1316 12.0024C20.1316 7.7207 16.6605 4.25 12.3783 4.25C8.0961 4.25 4.625 7.7207 4.625 12.0024C4.625 16.2842 8.0961 19.7549 12.3783 19.7549C14.2988 19.7549 16.0641 19.0512 17.4239 17.8824L17.746 18.2163V19.1585L23.7101 25.11L25.4874 23.3329L19.5352 17.3695ZM12.3783 17.3695C9.4082 17.3695 7.01064 14.9722 7.01064 12.0024C7.01064 9.03265 9.4082 6.63536 12.3783 6.63536C15.3484 6.63536 17.746 9.03265 17.746 12.0024C17.746 14.9722 15.3484 17.3695 12.3783 17.3695Z" fill="black"/>
</svg>
