<svg width="40" height="41" viewBox="0 0 40 41" fill="none" xmlns="http://www.w3.org/2000/svg">
<path d="M20 0.5C9 0.5 0 9.5 0 20.5C0 31.5 9 40.5 20 40.5C31 40.5 40 31.5 40 20.5C40 9.5 31 0.5 20 0.5ZM29.8 12.7L26.4 29.1C26.2 30.3 25.4 30.5 24.6 29.9L19.4 25.9C18.2 27.1 17 28.1 16.8 28.5C16.4 28.7 16.2 29.1 15.8 29.1C15.2 29.1 15.2 28.7 15 28.3L13.2 22.3L7.8 20.5C6.6 20.1 6.6 19.3 8 18.7L28.4 10.9C29.2 10.7 30.2 11.1 29.8 12.7ZM25 14.5L13.6 21.7L15.4 27.7L15.8 23.7L25.6 14.9C26.2 14.3 25.8 14.3 25 14.5Z" fill="black"/>
</svg>
