<svg width="477" height="116" viewBox="0 0 477 116" fill="none" xmlns="http://www.w3.org/2000/svg">
<path d="M12.445 15.2658H10.0427V9.09079H3.83668V15.2658H1.42482V1.36958H3.83668V7.15333H10.0427V1.36958H12.445V15.2658Z" fill="white"/>
<path d="M21.244 15.2658C21.1423 15.0686 21.0534 14.7473 20.9771 14.3019C20.2399 15.0718 19.3374 15.4567 18.2697 15.4567C17.2338 15.4567 16.3885 15.1609 15.7339 14.5691C15.0793 13.9774 14.752 13.2457 14.752 12.374C14.752 11.2732 15.1588 10.4301 15.9722 9.84477C16.7921 9.25304 17.9615 8.95717 19.4804 8.95717H20.9008V8.27953C20.9008 7.74506 20.7515 7.31876 20.4528 7.00062C20.1541 6.67612 19.6997 6.51387 19.0895 6.51387C18.5621 6.51387 18.1299 6.64749 17.7931 6.91472C17.4562 7.1756 17.2878 7.50964 17.2878 7.91686H14.9713C14.9713 7.35057 15.1588 6.82246 15.5337 6.33253C15.9087 5.83624 16.4171 5.44811 17.059 5.16815C17.7073 4.88819 18.4286 4.7482 19.223 4.7482C20.4305 4.7482 21.3934 5.05362 22.1115 5.66444C22.8297 6.2689 23.1983 7.12151 23.2174 8.22227V12.8798C23.2174 13.8088 23.3476 14.55 23.6082 15.1036V15.2658H21.244ZM18.6987 13.5956C19.1563 13.5956 19.5853 13.4843 19.9857 13.2616C20.3924 13.0389 20.6975 12.7398 20.9008 12.3644V10.4174H19.652C18.794 10.4174 18.149 10.5669 17.7168 10.866C17.2846 11.165 17.0685 11.5882 17.0685 12.1354C17.0685 12.5808 17.2147 12.9371 17.5071 13.2043C17.8058 13.4652 18.203 13.5956 18.6987 13.5956Z" fill="white"/>
<path d="M25.7341 4.93909H28.0506V13.4143H32.0736V4.93909H34.3901V13.4143H35.7914L35.6008 18.3295H33.494V15.2658H25.7341V4.93909Z" fill="white"/>
<path d="M43.8659 4.93909H46.1729V15.2658H43.8659V8.37498L39.8239 15.2658H37.5169V4.93909H39.8239V11.83L43.8659 4.93909Z" fill="white"/>
<path d="M48.2035 10.007C48.2035 8.99535 48.4037 8.08547 48.804 7.2774C49.2044 6.46297 49.7669 5.83942 50.4914 5.40675C51.2159 4.96772 52.0485 4.7482 52.9891 4.7482C54.3809 4.7482 55.5089 5.19678 56.3733 6.09393C57.244 6.99108 57.7143 8.18091 57.7842 9.66343L57.7937 10.2074C57.7937 11.2255 57.5967 12.1354 57.2027 12.9371C56.815 13.7388 56.2557 14.3591 55.5248 14.7982C54.8003 15.2372 53.9614 15.4567 53.0081 15.4567C51.5527 15.4567 50.3865 14.9732 49.5095 14.006C48.6388 13.0325 48.2035 11.7377 48.2035 10.1216V10.007ZM50.52 10.2074C50.52 11.27 50.7393 12.1036 51.1778 12.708C51.6163 13.3061 52.2264 13.6052 53.0081 13.6052C53.7898 13.6052 54.3968 13.2998 54.8289 12.6889C55.2674 12.0781 55.4867 11.1841 55.4867 10.007C55.4867 8.96353 55.2611 8.13637 54.8099 7.52555C54.365 6.91472 53.758 6.60931 52.9891 6.60931C52.2328 6.60931 51.6322 6.91154 51.1873 7.516C50.7424 8.1141 50.52 9.01125 50.52 10.2074Z" fill="white"/>
<path d="M68.4898 15.2658H66.1732V11.0951H62.1598V15.2658H59.8433V4.93909H62.1598V9.24349H66.1732V4.93909H68.4898V15.2658Z" fill="white"/>
<path d="M77.1267 15.2658C77.025 15.0686 76.9361 14.7473 76.8598 14.3019C76.1226 15.0718 75.2201 15.4567 74.1524 15.4567C73.1165 15.4567 72.2712 15.1609 71.6166 14.5691C70.962 13.9774 70.6347 13.2457 70.6347 12.374C70.6347 11.2732 71.0415 10.4301 71.8549 9.84477C72.6748 9.25304 73.8442 8.95717 75.3631 8.95717H76.7835V8.27953C76.7835 7.74506 76.6342 7.31876 76.3355 7.00062C76.0368 6.67612 75.5824 6.51387 74.9722 6.51387C74.4447 6.51387 74.0126 6.64749 73.6758 6.91472C73.3389 7.1756 73.1705 7.50964 73.1705 7.91686H70.854C70.854 7.35057 71.0415 6.82246 71.4164 6.33253C71.7914 5.83624 72.2998 5.44811 72.9417 5.16815C73.59 4.88819 74.3113 4.7482 75.1057 4.7482C76.3132 4.7482 77.2761 5.05362 77.9942 5.66444C78.7124 6.2689 79.081 7.12151 79.1001 8.22227V12.8798C79.1001 13.8088 79.2303 14.55 79.4909 15.1036V15.2658H77.1267ZM74.5814 13.5956C75.039 13.5956 75.468 13.4843 75.8684 13.2616C76.2751 13.0389 76.5802 12.7398 76.7835 12.3644V10.4174H75.5347C74.6767 10.4174 74.0317 10.5669 73.5995 10.866C73.1673 11.165 72.9512 11.5882 72.9512 12.1354C72.9512 12.5808 73.0974 12.9371 73.3898 13.2043C73.6885 13.4652 74.0857 13.5956 74.5814 13.5956Z" fill="white"/>
<path d="M90.2918 4.93909V15.2658H87.9753V6.80974H85.0582L84.8675 10.4079C84.7468 12.1385 84.4131 13.3825 83.8666 14.1396C83.3264 14.8904 82.497 15.2658 81.3785 15.2658H80.6635L80.6539 13.3379L81.1306 13.2902C81.639 13.2202 82.0076 12.9116 82.2364 12.3644C82.4716 11.8109 82.6209 10.8055 82.6845 9.34848L82.8751 4.93909H90.2918Z" fill="white"/>
<path d="M95.249 8.22227H97.5179C98.3632 8.22227 99.1004 8.36861 99.7296 8.6613C100.359 8.95399 100.835 9.36438 101.16 9.89249C101.49 10.4206 101.655 11.0346 101.655 11.7345C101.655 12.7971 101.28 13.6497 100.53 14.2923C99.7804 14.935 98.7826 15.2595 97.537 15.2658H92.9325V4.93909H95.249V8.22227ZM95.249 10.0834V13.4143H97.5084C98.074 13.4143 98.5189 13.2743 98.843 12.9943C99.1735 12.708 99.3387 12.304 99.3387 11.7822C99.3387 11.2605 99.1767 10.8501 98.8525 10.551C98.5348 10.2456 98.1026 10.0897 97.556 10.0834H95.249Z" fill="white"/>
<path d="M112.246 15.2658H109.93V11.0951H105.916V15.2658H103.6V4.93909H105.916V9.24349H109.93V4.93909H112.246V15.2658Z" fill="white"/>
<path d="M117.213 8.22227H119.482C120.327 8.22227 121.065 8.36861 121.694 8.6613C122.323 8.95399 122.8 9.36438 123.124 9.89249C123.454 10.4206 123.619 11.0346 123.619 11.7345C123.619 12.7971 123.244 13.6497 122.494 14.2923C121.745 14.935 120.747 15.2595 119.501 15.2658H114.897V4.93909H117.213V8.22227ZM127.652 15.2658H125.335V4.93909H127.652V15.2658ZM117.213 10.0834V13.4143H119.472C120.038 13.4143 120.483 13.2743 120.807 12.9943C121.138 12.708 121.303 12.304 121.303 11.7822C121.303 11.2605 121.141 10.8501 120.817 10.551C120.499 10.2456 120.067 10.0897 119.52 10.0834H117.213Z" fill="white"/>
<path d="M136.87 4.93909H139.177V15.2658H136.87V8.37498L132.828 15.2658H130.521V4.93909H132.828V11.83L136.87 4.93909ZM137.957 0.978271C137.957 1.77998 137.677 2.42898 137.118 2.92528C136.559 3.42157 135.812 3.66972 134.878 3.66972C133.944 3.66972 133.197 3.42157 132.638 2.92528C132.078 2.42898 131.799 1.77998 131.799 0.978271H133.534C133.534 1.39821 133.651 1.7259 133.886 1.96132C134.128 2.19038 134.458 2.30491 134.878 2.30491C135.297 2.30491 135.625 2.19038 135.86 1.96132C136.095 1.7259 136.213 1.39821 136.213 0.978271H137.957Z" fill="white"/>
<path d="M155.25 15.2658H152.933V6.80974H148.911V15.2658H146.594V4.93909H155.25V15.2658Z" fill="white"/>
<path d="M166.747 10.2074C166.747 11.8045 166.385 13.0802 165.66 14.0346C164.936 14.9827 163.963 15.4567 162.743 15.4567C161.612 15.4567 160.706 15.0845 160.026 14.3401V19.2362H157.71V4.93909H159.845L159.94 5.98894C160.62 5.16178 161.545 4.7482 162.714 4.7482C163.973 4.7482 164.958 5.21905 165.67 6.16074C166.388 7.09606 166.747 8.39725 166.747 10.0643V10.2074ZM164.44 10.007C164.44 8.97626 164.233 8.15864 163.82 7.55418C163.413 6.94972 162.829 6.64749 162.066 6.64749C161.119 6.64749 160.439 7.0388 160.026 7.82142V12.4026C160.446 13.2043 161.132 13.6052 162.085 13.6052C162.822 13.6052 163.398 13.3093 163.811 12.7176C164.23 12.1195 164.44 11.2159 164.44 10.007Z" fill="white"/>
<path d="M168.282 10.007C168.282 8.99535 168.482 8.08547 168.882 7.2774C169.283 6.46297 169.845 5.83942 170.57 5.40675C171.294 4.96772 172.127 4.7482 173.067 4.7482C174.459 4.7482 175.587 5.19678 176.451 6.09393C177.322 6.99108 177.792 8.18091 177.862 9.66343L177.872 10.2074C177.872 11.2255 177.675 12.1354 177.281 12.9371C176.893 13.7388 176.334 14.3591 175.603 14.7982C174.879 15.2372 174.04 15.4567 173.086 15.4567C171.631 15.4567 170.465 14.9732 169.588 14.006C168.717 13.0325 168.282 11.7377 168.282 10.1216V10.007ZM170.598 10.2074C170.598 11.27 170.817 12.1036 171.256 12.708C171.695 13.3061 172.305 13.6052 173.086 13.6052C173.868 13.6052 174.475 13.2998 174.907 12.6889C175.346 12.0781 175.565 11.1841 175.565 10.007C175.565 8.96353 175.339 8.13637 174.888 7.52555C174.443 6.91472 173.836 6.60931 173.067 6.60931C172.311 6.60931 171.71 6.91154 171.266 7.516C170.821 8.1141 170.598 9.01125 170.598 10.2074Z" fill="white"/>
<path d="M184.373 15.4567C182.905 15.4567 181.714 14.9954 180.799 14.0728C179.89 13.1439 179.435 11.9095 179.435 10.3697V10.0834C179.435 9.05261 179.632 8.13319 180.026 7.32512C180.427 6.51069 180.986 5.87759 181.704 5.42584C182.422 4.97408 183.223 4.7482 184.107 4.7482C185.511 4.7482 186.595 5.19678 187.357 6.09393C188.126 6.99108 188.511 8.26045 188.511 9.90204V10.8374H181.771C181.841 11.69 182.124 12.3644 182.619 12.8607C183.121 13.357 183.751 13.6052 184.507 13.6052C185.568 13.6052 186.433 13.1757 187.1 12.3167L188.349 13.5097C187.936 14.1269 187.383 14.6073 186.69 14.9509C186.004 15.2881 185.231 15.4567 184.373 15.4567ZM184.097 6.60931C183.461 6.60931 182.947 6.83201 182.553 7.2774C182.165 7.72279 181.917 8.34316 181.809 9.13851H186.223V8.96671C186.172 8.19046 185.965 7.60508 185.603 7.21059C185.241 6.80974 184.739 6.60931 184.097 6.60931Z" fill="white"/>
<path d="M193.983 11.181H192.81V15.2658H190.494V4.93909H192.81V9.06215H193.83L196.681 4.93909H199.541L195.813 9.88295L199.855 15.2658H196.843L193.983 11.181Z" fill="white"/>
<path d="M209.245 6.78111H205.899V15.2658H203.583V6.78111H200.275V4.93909H209.245V6.78111Z" fill="white"/>
<path d="M12.3901 56.2401C12.3901 50.7829 14.7885 48.7092 18.604 48.7092C22.4196 48.7092 24.818 50.7829 24.818 56.2401V97.4962C24.818 102.953 22.4196 105.027 18.604 105.027C14.7885 105.027 12.3901 102.953 12.3901 97.4962V56.2401ZM0.398315 96.7322C0.398315 108.956 6.83028 115.941 18.604 115.941C30.3778 115.941 36.8098 108.956 36.8098 96.7322V57.0041C36.8098 44.7801 30.3778 37.7949 18.604 37.7949C6.83028 37.7949 0.398315 44.7801 0.398315 57.0041V96.7322Z" fill="white"/>
<path d="M63.6806 115.068C75.6724 115.068 81.7773 108.411 81.7773 96.1865V88.0007C81.7773 75.7767 75.6724 69.119 63.6806 69.119H56.7035V49.5824H78.2888V38.668H44.7117V115.068H63.6806ZM56.7035 104.154V80.0333H63.6806C67.4962 80.0333 69.7855 81.7796 69.7855 87.2367V96.9505C69.7855 102.408 67.4962 104.154 63.6806 104.154H56.7035Z" fill="white"/>
<path d="M107.509 38.668H89.8488V115.068H101.841V86.3636H107.509C119.501 86.3636 125.388 79.7059 125.388 67.4818V57.5498C125.388 45.3258 119.501 38.668 107.509 38.668ZM107.509 49.5824C111.325 49.5824 113.396 51.3286 113.396 56.7858V68.2458C113.396 73.703 111.325 75.4493 107.509 75.4493H101.841V49.5824H107.509Z" fill="white"/>
<path d="M157.543 38.668H139.991L127.781 115.068H138.792L140.863 101.207H155.581L157.652 115.068H169.753L157.543 38.668ZM148.167 52.2018L153.945 90.8385H142.39L148.167 52.2018Z" fill="white"/>
<path d="M198.449 61.6972C198.449 67.8093 195.723 69.7738 191.254 69.7738H187.656V80.6882H190.599C196.05 80.6882 198.449 83.3076 198.449 90.4019V96.4048C198.449 103.172 196.05 105.027 192.235 105.027C188.419 105.027 186.021 102.953 186.021 97.4962V88.3282H174.683V96.7322C174.683 108.956 180.788 115.941 192.562 115.941C204.336 115.941 210.44 108.956 210.44 96.7322V90.7293C210.44 82.9802 208.042 77.3047 202.046 74.6853C207.824 72.2841 210.44 67.1544 210.44 58.9687V57.0041C210.44 44.7801 204.336 37.7949 192.562 37.7949C180.788 37.7949 174.901 44.5618 174.901 56.7858V62.4613H185.912V56.2401C185.912 50.7829 188.419 48.7092 192.235 48.7092C196.05 48.7092 198.449 50.5646 198.449 57.4407V61.6972Z" fill="white"/>
<path d="M229.571 56.2401C229.571 50.7829 231.969 48.7092 235.785 48.7092C239.601 48.7092 241.999 50.7829 241.999 56.2401V97.4962C241.999 102.953 239.601 105.027 235.785 105.027C231.969 105.027 229.571 102.953 229.571 97.4962V56.2401ZM217.579 96.7322C217.579 108.956 224.011 115.941 235.785 115.941C247.559 115.941 253.991 108.956 253.991 96.7322V57.0041C253.991 44.7801 247.559 37.7949 235.785 37.7949C224.011 37.7949 217.579 44.7801 217.579 57.0041V96.7322Z" fill="white"/>
<path d="M279.88 38.668H261.784V115.068H280.644C292.635 115.068 298.849 108.738 298.849 96.9505V90.7293C298.849 82.6527 296.342 76.8681 289.91 74.3578C295.252 71.8476 297.65 66.827 297.65 58.9687V56.2401C297.65 44.4526 292.308 38.668 279.88 38.668ZM279.117 80.6882C284.568 80.6882 286.857 82.871 286.857 89.9653V96.6231C286.857 102.299 284.677 104.154 280.644 104.154H273.775V80.6882H279.117ZM279.553 49.5824C283.805 49.5824 285.658 51.9835 285.658 57.4407V61.6972C285.658 67.8093 282.933 69.7738 278.463 69.7738H273.775V49.5824H279.553Z" fill="white"/>
<path d="M332.672 38.668H315.12L302.91 115.068H313.921L315.992 101.207H330.709L332.781 115.068H344.881L332.672 38.668ZM323.296 52.2018L329.074 90.8385H317.518L323.296 52.2018Z" fill="white"/>
<path d="M362.458 82.3253H376.085V115.068H388.295V38.668H376.085V71.411H362.458V38.668H350.466V115.068H362.458V82.3253Z" fill="white"/>
<path d="M419.338 80.0333L424.244 61.2607V115.068H435.036V38.668H421.845L412.034 70.2104L407.673 87.0185V38.668H396.99V115.068H409.308L419.338 80.0333Z" fill="white"/>
<path d="M455.505 49.5824H476.218V38.668H443.513V115.068H476.218V104.154H455.505V81.7796H471.966V70.8653H455.505V49.5824Z" fill="white"/>
</svg>
