<svg width="364" height="482" viewBox="0 0 364 482" fill="none" xmlns="http://www.w3.org/2000/svg">
<g opacity="0.3">
<path d="M123.485 74.8871C102.835 74.8871 86.0468 58.0969 86.0468 37.4436C86.0301 16.807 102.835 0 123.485 0C144.135 0 160.923 16.807 160.923 37.4436C160.923 58.0969 144.119 74.8871 123.485 74.8871ZM123.485 4.18083C105.142 4.18083 90.227 19.098 90.227 37.4436C90.227 55.789 105.142 70.7063 123.485 70.7063C141.828 70.7063 156.743 55.789 156.743 37.4436C156.726 19.1148 141.811 4.18083 123.485 4.18083Z" fill="white"/>
<path d="M144.955 38.7814H119.238C118.084 38.7814 117.148 37.8449 117.148 36.691C117.148 35.5371 118.084 34.6006 119.238 34.6006H144.955C146.108 34.6006 147.045 35.5371 147.045 36.691C147.061 37.8449 146.108 38.7814 144.955 38.7814Z" fill="white"/>
<path d="M123.485 43.0291C122.331 43.0291 121.395 42.0926 121.395 40.9387V12.0074C121.395 10.8534 122.331 9.91694 123.485 9.91694C124.639 9.91694 125.575 10.8534 125.575 12.0074V40.9387C125.575 42.0759 124.639 43.0291 123.485 43.0291Z" fill="white"/>
<path d="M178.881 195.195H171.909C170.755 195.195 169.819 194.258 169.819 193.104C169.819 191.95 170.755 191.014 171.909 191.014H178.881C180.035 191.014 180.972 191.95 180.972 193.104C180.988 194.258 180.035 195.195 178.881 195.195Z" fill="white"/>
<path d="M158.147 195.195H144.386C143.232 195.195 142.296 194.258 142.296 193.104C142.296 191.95 143.232 191.014 144.386 191.014H158.147C159.301 191.014 160.238 191.95 160.238 193.104C160.238 194.258 159.301 195.195 158.147 195.195Z" fill="white"/>
<path d="M130.625 195.195H123.652C122.498 195.195 121.562 194.258 121.562 193.104V186.131C121.562 184.977 122.498 184.04 123.652 184.04C124.806 184.04 125.742 184.977 125.742 186.131V191.014H130.625C131.779 191.014 132.715 191.95 132.715 193.104C132.732 194.258 131.779 195.195 130.625 195.195Z" fill="white"/>
<path d="M123.652 173.17C122.498 173.17 121.562 172.234 121.562 171.08V156.045C121.562 154.892 122.498 153.955 123.652 153.955C124.806 153.955 125.742 154.892 125.742 156.045V171.08C125.742 172.234 124.806 173.17 123.652 173.17ZM123.652 143.102C122.498 143.102 121.562 142.165 121.562 141.011V125.977C121.562 124.823 122.498 123.886 123.652 123.886C124.806 123.886 125.742 124.823 125.742 125.977V141.011C125.742 142.165 124.806 143.102 123.652 143.102ZM123.652 113.033C122.498 113.033 121.562 112.097 121.562 110.943V95.9083C121.562 94.7544 122.498 93.8179 123.652 93.8179C124.806 93.8179 125.742 94.7544 125.742 95.9083V110.943C125.742 112.097 124.806 113.033 123.652 113.033Z" fill="white"/>
<path d="M123.652 82.9645C122.498 82.9645 121.562 82.028 121.562 80.8741V73.9004C121.562 72.7465 122.498 71.81 123.652 71.81C124.806 71.81 125.742 72.7465 125.742 73.9004V80.8741C125.742 82.028 124.806 82.9645 123.652 82.9645Z" fill="white"/>
<path d="M429.319 135.223C428.166 135.223 427.229 134.287 427.229 133.133V118.098C427.229 116.944 428.166 116.008 429.319 116.008C430.473 116.008 431.41 116.944 431.41 118.098V133.133C431.41 134.287 430.473 135.223 429.319 135.223Z" fill="white"/>
<path d="M429.319 105.154C428.166 105.154 427.229 104.218 427.229 103.064V96.0904C427.229 94.9365 428.166 94 429.319 94C430.473 94 431.41 94.9365 431.41 96.0904V103.064C431.41 104.201 430.473 105.154 429.319 105.154Z" fill="white"/>
<path d="M430.572 83.1708C412.614 83.1708 398 68.5546 398 50.5771C398 32.6162 412.614 18 430.572 18C448.531 18 463.145 32.6162 463.145 50.5771C463.145 68.5546 448.531 83.1708 430.572 83.1708ZM430.572 22.1808C414.922 22.1808 402.18 34.9073 402.18 50.5603C402.18 66.2301 414.905 78.9733 430.572 78.9733C446.223 78.9733 458.965 66.2301 458.965 50.5603C458.948 34.924 446.223 22.1808 430.572 22.1808Z" fill="white"/>
<path d="M430.572 83.1708C422.362 83.1708 416.176 69.1567 416.176 50.5771C416.176 31.9974 422.362 18 430.572 18C438.782 18 444.986 31.9974 444.986 50.5771C444.969 69.1567 438.782 83.1708 430.572 83.1708ZM430.572 22.1808C425.757 22.1808 420.356 34.322 420.356 50.5603C420.356 66.8154 425.757 78.9733 430.572 78.9733C435.405 78.9733 440.789 67.3004 440.789 50.5603C440.789 33.8537 435.405 22.1808 430.572 22.1808Z" fill="white"/>
<path d="M456.323 38.2854H403.852C402.699 38.2854 401.762 37.3489 401.762 36.195C401.762 35.0411 402.699 34.1046 403.852 34.1046H456.323C457.476 34.1046 458.413 35.0411 458.413 36.195C458.43 37.3322 457.493 38.2854 456.323 38.2854Z" fill="white"/>
<path d="M461.055 52.6842H400.09C398.936 52.6842 398 51.7477 398 50.5938C398 49.4399 398.936 48.5034 400.09 48.5034H461.055C462.208 48.5034 463.145 49.4399 463.145 50.5938C463.145 51.7477 462.208 52.6842 461.055 52.6842Z" fill="white"/>
<path d="M456.323 67.083H403.852C402.699 67.083 401.762 66.1465 401.762 64.9926C401.762 63.8387 402.699 62.9022 403.852 62.9022H456.323C457.476 62.9022 458.413 63.8387 458.413 64.9926C458.43 66.1465 457.493 67.083 456.323 67.083Z" fill="white"/>
<path d="M359.501 413.016C353.114 413.016 347.913 407.815 347.913 401.427C347.913 395.039 353.114 389.838 359.501 389.838C365.888 389.838 371.089 395.039 371.089 401.427C371.089 407.832 365.888 413.016 359.501 413.016ZM359.501 394.035C355.421 394.035 352.094 397.346 352.094 401.427C352.094 405.507 355.421 408.819 359.501 408.819C363.581 408.819 366.892 405.507 366.892 401.427C366.908 397.346 363.581 394.035 359.501 394.035Z" fill="white"/>
<path d="M510.742 432.599H212.106C210.952 432.599 210.016 431.663 210.016 430.509C210.016 429.355 210.952 428.418 212.106 428.418H510.742C511.895 428.418 512.832 429.355 512.832 430.509C512.849 431.663 511.895 432.599 510.742 432.599Z" fill="white"/>
<path d="M538.983 293.16C537.83 293.16 536.893 292.224 536.893 291.07V164.558C536.893 156.38 530.238 149.724 522.045 149.724H196.957C188.78 149.724 182.125 156.38 182.125 164.558V281.822C182.125 282.976 181.189 283.912 180.035 283.912C178.881 283.912 177.945 282.976 177.945 281.822V164.558C177.945 154.072 186.473 145.543 196.957 145.543H522.028C532.529 145.543 541.073 154.072 541.073 164.558V291.07C541.073 292.224 540.137 293.16 538.983 293.16Z" fill="white"/>
<path d="M510.742 432.599H212.106C210.952 432.599 210.016 431.663 210.016 430.509C210.016 429.355 210.952 428.418 212.106 428.418H510.742C511.895 428.418 512.832 429.355 512.832 430.509C512.849 431.663 511.895 432.599 510.742 432.599Z" fill="white"/>
<path d="M510.742 374.452H212.106C210.952 374.452 210.016 373.516 210.016 372.362C210.016 371.208 210.952 370.271 212.106 370.271H510.742C511.895 370.271 512.832 371.208 512.832 372.362C512.849 373.516 511.895 374.452 510.742 374.452Z" fill="white"/>
<path d="M510.742 353.765H212.106C210.952 353.765 210.016 352.829 210.016 351.675C210.016 350.521 210.952 349.585 212.106 349.585H510.742C511.895 349.585 512.832 350.521 512.832 351.675C512.849 352.829 511.895 353.765 510.742 353.765Z" fill="white"/>
<path d="M515.992 313.078C514.838 313.078 513.902 312.141 513.902 310.987V172.702H203.762V281.838C203.762 282.992 202.826 283.929 201.672 283.929C200.518 283.929 199.582 282.992 199.582 281.838V170.611C199.582 169.458 200.518 168.521 201.672 168.521H515.992C517.146 168.521 518.082 169.458 518.082 170.611V311.004C518.082 312.141 517.146 313.078 515.992 313.078Z" fill="white"/>
<path d="M419.613 481.983H299.406C298.553 481.983 297.784 481.465 297.466 480.679C297.149 479.893 297.332 478.99 297.951 478.388L302.549 473.939C314.271 462.634 321.009 446.797 321.009 430.492C321.009 429.338 321.946 428.402 323.099 428.402H395.902C397.056 428.402 397.992 429.338 397.992 430.492C397.992 446.797 404.714 462.618 416.452 473.939L421.051 478.388C421.669 478.99 421.853 479.893 421.536 480.679C421.235 481.465 420.465 481.983 419.613 481.983ZM304.589 477.802H414.429L413.56 476.966C401.521 465.36 394.414 449.289 393.862 432.599H325.173C324.621 449.289 317.515 465.36 305.476 476.966L304.589 477.802Z" fill="white"/>
<path d="M672.299 377.212C671.146 377.212 670.209 376.275 670.209 375.121V322.309C670.209 315.252 664.474 309.516 657.418 309.516H647.101C645.947 309.516 645.011 308.579 645.011 307.425C645.011 306.271 645.947 305.335 647.101 305.335H657.434C666.798 305.335 674.406 312.944 674.406 322.309V375.121C674.406 376.275 673.47 377.212 672.299 377.212Z" fill="white"/>
<path d="M635.53 309.532H613.893C612.739 309.532 611.803 308.596 611.803 307.442C611.803 306.288 612.739 305.351 613.893 305.351H635.53C636.684 305.351 637.62 306.288 637.62 307.442C637.62 308.596 636.684 309.532 635.53 309.532Z" fill="white"/>
<path d="M602.339 309.532H580.702C579.548 309.532 578.612 308.596 578.612 307.442C578.612 306.288 579.548 305.351 580.702 305.351H602.339C603.493 305.351 604.429 306.288 604.429 307.442C604.429 308.596 603.493 309.532 602.339 309.532Z" fill="white"/>
<path d="M569.131 309.532H547.494C546.341 309.532 545.404 308.596 545.404 307.442C545.404 306.288 546.341 305.351 547.494 305.351H569.131C570.285 305.351 571.221 306.288 571.221 307.442C571.221 308.596 570.285 309.532 569.131 309.532Z" fill="white"/>
<path d="M657.418 482H525.623C516.26 482 508.652 474.391 508.652 465.026V322.292C508.652 321.707 508.685 321.088 508.752 320.536C508.769 320.085 508.869 319.566 508.969 319.065C508.969 319.031 508.969 319.014 508.986 318.981V318.964C509.07 318.462 509.187 317.994 509.337 317.559L509.471 317.125C509.555 316.857 509.655 316.506 509.839 316.138C509.973 315.72 510.156 315.302 510.424 314.817C510.558 314.499 510.792 314.048 511.076 313.596C511.444 312.977 511.845 312.392 512.297 311.823C512.698 311.355 513.016 310.97 513.384 310.603C513.668 310.285 514.019 309.967 514.404 309.616C515.206 308.863 516.126 308.211 517.096 307.676C517.246 307.542 517.597 307.358 517.965 307.191C518.366 306.99 518.617 306.873 518.885 306.773C519.353 306.539 519.988 306.305 520.641 306.104C521.025 305.97 521.56 305.82 522.112 305.719C522.664 305.602 523.266 305.502 523.901 305.452C524.403 305.385 525.021 305.351 525.607 305.351H535.94C537.094 305.351 538.03 306.288 538.03 307.442C538.03 308.596 537.094 309.532 535.94 309.532H525.607C525.189 309.532 524.754 309.549 524.353 309.599C523.817 309.649 523.366 309.733 522.915 309.817C522.53 309.883 522.229 309.967 521.945 310.067C521.376 310.235 520.941 310.402 520.507 310.603C520.206 310.72 520.072 310.786 519.938 310.853C519.671 310.987 519.487 311.071 519.303 311.205C518.433 311.69 517.798 312.158 517.229 312.676C516.928 312.944 516.661 313.178 516.41 313.462C516.059 313.83 515.808 314.114 515.541 314.432C515.256 314.817 514.939 315.268 514.638 315.753C514.454 316.054 514.303 316.322 514.186 316.623C513.952 317.074 513.852 317.292 513.802 317.493C513.751 317.643 513.701 317.794 513.618 317.927C513.584 317.994 513.534 318.178 513.484 318.329L513.317 318.83C513.2 319.165 513.15 319.366 513.116 319.583C513.116 319.633 513.099 319.683 513.099 319.717C513.099 319.75 513.083 319.8 513.083 319.834C513.016 320.168 512.949 320.503 512.932 320.887C512.882 321.406 512.849 321.857 512.849 322.275V465.009C512.849 472.066 518.584 477.802 525.64 477.802H657.434C664.491 477.802 670.226 472.066 670.226 465.009V431.328C670.226 430.174 671.162 429.238 672.316 429.238C673.47 429.238 674.406 430.174 674.406 431.328V465.009C674.406 474.374 666.781 482 657.418 482Z" fill="white"/>
<path d="M602.339 309.532H580.702C579.548 309.532 578.612 308.596 578.612 307.442C578.612 306.288 579.548 305.351 580.702 305.351H602.339C603.493 305.351 604.429 306.288 604.429 307.442C604.429 308.596 603.493 309.532 602.339 309.532Z" fill="white"/>
<path d="M672.299 346.691H510.742C509.588 346.691 508.652 345.755 508.652 344.601C508.652 343.447 509.588 342.511 510.742 342.511H670.209V322.292C670.209 315.252 664.474 309.532 657.418 309.532H647.101C645.947 309.532 645.011 308.596 645.011 307.442C645.011 306.288 645.947 305.351 647.101 305.351H657.434C666.798 305.351 674.406 312.961 674.406 322.309V344.618C674.406 345.755 673.47 346.691 672.299 346.691Z" fill="white"/>
<path d="M635.53 309.532H613.893C612.739 309.532 611.803 308.596 611.803 307.442C611.803 306.288 612.739 305.351 613.893 305.351H635.53C636.684 305.351 637.62 306.288 637.62 307.442C637.62 308.596 636.684 309.532 635.53 309.532Z" fill="white"/>
<path d="M541.709 326.557C539.585 326.557 537.596 325.72 536.141 324.215C534.686 322.811 533.85 320.77 533.85 318.68V307.425C533.85 306.271 534.786 305.335 535.94 305.335C537.094 305.335 538.03 306.271 538.03 307.425V318.68C538.03 319.667 538.415 320.586 539.1 321.255C539.803 321.991 540.722 322.359 541.709 322.359C543.749 322.359 545.387 320.703 545.387 318.68V307.425C545.387 306.271 546.324 305.335 547.478 305.335H569.115C570.268 305.335 571.205 306.271 571.205 307.425C571.205 308.579 570.268 309.516 569.115 309.516H549.568V318.68C549.584 323.028 546.056 326.557 541.709 326.557Z" fill="white"/>
<path d="M650.529 451.263H527.847C526.693 451.263 525.757 450.326 525.757 449.172C525.757 448.018 526.693 447.082 527.847 447.082H650.529C651.682 447.082 652.619 448.018 652.619 449.172C652.619 450.326 651.682 451.263 650.529 451.263Z" fill="white"/>
<path d="M636.5 431.93H527.847C526.693 431.93 525.757 430.994 525.757 429.84C525.757 428.686 526.693 427.75 527.847 427.75H636.5C637.654 427.75 638.59 428.686 638.59 429.84C638.59 430.994 637.654 431.93 636.5 431.93Z" fill="white"/>
<path d="M641.165 412.598H527.831C526.677 412.598 525.74 411.662 525.74 410.508C525.74 409.354 526.677 408.417 527.831 408.417H641.165C642.319 408.417 643.255 409.354 643.255 410.508C643.255 411.662 642.335 412.598 641.165 412.598Z" fill="white"/>
<path d="M655.194 393.283H527.847C526.693 393.283 525.757 392.346 525.757 391.192C525.757 390.038 526.693 389.102 527.847 389.102H655.194C656.348 389.102 657.284 390.038 657.284 391.192C657.284 392.329 656.348 393.283 655.194 393.283Z" fill="white"/>
<path d="M655.194 373.951H527.847C526.694 373.951 525.757 373.014 525.757 371.86C525.757 370.706 526.694 369.77 527.847 369.77H655.194C656.348 369.77 657.284 370.706 657.284 371.86C657.284 373.014 656.348 373.951 655.194 373.951Z" fill="white"/>
<path d="M641.315 326.557C639.192 326.557 637.202 325.72 635.731 324.215C634.293 322.811 633.44 320.77 633.44 318.68V296.137C633.44 291.789 636.968 288.26 641.315 288.26C643.422 288.26 645.412 289.08 646.9 290.585C648.372 292.056 649.191 294.03 649.191 296.137V318.68C649.191 323.028 645.646 326.557 641.315 326.557ZM641.315 292.458C639.275 292.458 637.637 294.113 637.637 296.137V318.68C637.637 319.667 638.021 320.586 638.707 321.255C639.409 321.991 640.329 322.359 641.315 322.359C643.339 322.359 644.994 320.703 644.994 318.68V296.137C644.994 295.167 644.609 294.214 643.924 293.545C643.238 292.842 642.302 292.458 641.315 292.458Z" fill="white"/>
<path d="M608.108 326.557C605.984 326.557 603.994 325.72 602.54 324.215C601.085 322.811 600.249 320.77 600.249 318.68V296.137C600.249 291.789 603.777 288.26 608.124 288.26C610.231 288.26 612.221 289.08 613.709 290.585C615.181 292.056 616 294.03 616 296.137V318.68C615.983 323.028 612.455 326.557 608.108 326.557ZM608.108 292.458C606.084 292.458 604.429 294.113 604.429 296.137V318.68C604.429 319.667 604.814 320.586 605.499 321.255C606.201 321.991 607.121 322.359 608.108 322.359C610.131 322.359 611.786 320.703 611.786 318.68V296.137C611.786 295.167 611.402 294.214 610.716 293.545C610.014 292.842 609.111 292.458 608.108 292.458Z" fill="white"/>
<path d="M574.917 326.557C572.793 326.557 570.803 325.72 569.349 324.215C567.894 322.811 567.058 320.77 567.058 318.68V296.137C567.058 291.789 570.586 288.26 574.933 288.26C577.04 288.26 579.03 289.08 580.518 290.585C581.99 292.056 582.809 294.03 582.809 296.137V318.68C582.792 323.028 579.247 326.557 574.917 326.557ZM574.917 292.458C572.893 292.458 571.238 294.113 571.238 296.137V318.68C571.238 319.667 571.623 320.586 572.308 321.255C573.01 321.991 573.93 322.359 574.917 322.359C576.957 322.359 578.595 320.703 578.595 318.68V296.137C578.595 295.167 578.211 294.214 577.525 293.545C576.84 292.842 575.903 292.458 574.917 292.458Z" fill="white"/>
<path d="M541.709 326.557C539.585 326.557 537.596 325.72 536.141 324.215C534.686 322.811 533.85 320.77 533.85 318.68V296.137C533.85 293.244 535.439 290.585 537.997 289.214C540.906 287.608 544.886 288.16 547.31 290.585C548.782 292.057 549.601 294.03 549.601 296.137V318.68C549.584 323.028 546.056 326.557 541.709 326.557ZM541.709 292.458C541.107 292.458 540.488 292.608 539.987 292.893C538.766 293.545 538.03 294.799 538.03 296.137V318.68C538.03 319.667 538.415 320.586 539.1 321.255C539.803 321.991 540.722 322.359 541.709 322.359C543.749 322.359 545.387 320.703 545.387 318.68V296.137C545.387 295.167 545.003 294.214 544.317 293.545C543.615 292.843 542.712 292.458 541.709 292.458Z" fill="white"/>
<path d="M671.196 435.86C670.895 435.86 670.594 435.793 670.326 435.676L649.024 425.876C647.97 425.392 647.519 424.154 648.004 423.1L692.649 325.837C695.826 318.964 703.919 315.921 710.774 318.981C710.841 318.998 710.908 319.031 710.975 319.065C717.881 322.259 720.924 330.487 717.747 337.393L673.102 434.656C672.868 435.158 672.45 435.559 671.931 435.743C671.681 435.827 671.43 435.86 671.196 435.86ZM652.669 422.933L670.176 430.994L713.951 335.637C716.142 330.871 714.085 325.202 709.386 322.928C709.319 322.911 709.253 322.877 709.202 322.861C704.404 320.637 698.685 322.76 696.461 327.593L652.669 422.933Z" fill="white"/>
<path d="M711.627 347.745C711.343 347.745 711.042 347.678 710.758 347.561L689.455 337.778C688.402 337.293 687.95 336.055 688.418 335.002L692.615 325.837C694.154 322.476 696.913 319.934 700.374 318.646C703.802 317.375 707.53 317.509 710.858 319.014C710.891 319.031 710.908 319.031 710.941 319.048C717.864 322.225 720.907 330.436 717.73 337.36L713.516 346.524C713.182 347.294 712.43 347.745 711.627 347.745ZM693.1 334.835L710.59 342.879L713.918 335.621C716.125 330.821 714.035 325.118 709.253 322.894C709.219 322.877 709.203 322.877 709.169 322.861C706.828 321.79 704.22 321.69 701.812 322.576C699.404 323.463 697.481 325.252 696.411 327.577L693.1 334.835Z" fill="white"/>
<path d="M652.552 451.263C651.85 451.263 651.131 451.112 650.462 450.794C648.639 449.958 647.536 448.202 647.552 446.212L647.786 423.953C647.786 423.251 648.154 422.582 648.756 422.197C649.358 421.813 650.111 421.763 650.746 422.064L672.032 431.847C672.684 432.148 673.135 432.75 673.236 433.452C673.336 434.155 673.085 434.857 672.55 435.325L655.829 450.008C654.893 450.844 653.739 451.263 652.552 451.263ZM651.733 446.262C651.733 446.714 652.017 446.914 652.201 446.998C652.385 447.082 652.719 447.165 653.07 446.864L667.367 434.322L651.933 427.231L651.733 446.262Z" fill="white"/>
<path d="M660.511 430.96C660.227 430.96 659.926 430.893 659.642 430.776C658.588 430.291 658.137 429.054 658.605 428L699.053 339.885C699.538 338.832 700.775 338.363 701.828 338.848C702.882 339.333 703.333 340.571 702.865 341.624L662.417 429.74C662.066 430.509 661.314 430.96 660.511 430.96Z" fill="white"/>
<path d="M212.123 482H70.2464C58.1404 482 48.2918 472.15 48.2918 460.042V325.687C48.2918 324.918 48.7098 324.199 49.3954 323.847C50.0809 323.479 50.9003 323.513 51.5524 323.948C53.3081 325.118 55.4316 325.52 57.5218 325.118C64.2603 323.714 70.8651 321.857 77.1187 319.583C95.7124 312.827 112.601 301.973 127.315 287.34C128.803 285.852 129.639 283.879 129.656 281.788C129.673 280.634 130.609 279.715 131.746 279.715H212.107C213.26 279.715 214.197 280.651 214.197 281.805V479.893C214.214 481.063 213.277 482 212.123 482ZM52.4888 328.965V460.042C52.4888 469.842 60.4479 477.802 70.2464 477.802H210.033V283.912H133.652C133.217 286.32 132.047 288.528 130.275 290.3C115.125 305.368 97.7189 316.539 78.5567 323.513C72.1024 325.854 65.3137 327.761 58.3578 329.216C56.368 329.617 54.3615 329.533 52.4888 328.965Z" fill="white"/>
<path d="M85.2952 482L70.2464 482C58.1404 482 48.2918 472.15 48.2918 460.042V325.687C48.2918 324.533 49.2282 323.597 50.3819 323.597C51.5357 323.597 52.472 324.533 52.472 325.687V460.042C52.472 469.842 60.4312 477.802 70.2297 477.802H83.1884V321.556C83.1884 320.402 84.1247 319.466 85.2785 319.466C86.4322 319.466 87.3686 320.402 87.3686 321.556V479.893C87.3853 481.063 86.449 482 85.2952 482Z" fill="white"/>
<path d="M212.123 323.663H77.8377C76.6839 323.663 75.7476 322.727 75.7476 321.573C75.7476 320.419 76.6839 319.483 77.8377 319.483H210.017V283.929H131.763C130.609 283.929 129.673 282.992 129.673 281.838C129.673 280.684 130.609 279.748 131.763 279.748H212.123C213.277 279.748 214.214 280.684 214.214 281.838V321.573C214.214 322.71 213.277 323.663 212.123 323.663Z" fill="white"/>
<path d="M212.123 297.241H122.065C120.911 297.241 119.974 296.304 119.974 295.15C119.974 293.996 120.911 293.06 122.065 293.06H212.123C213.277 293.06 214.214 293.996 214.214 295.15C214.214 296.304 213.277 297.241 212.123 297.241Z" fill="white"/>
<path d="M212.123 310.335H122.934C121.78 310.335 120.844 309.398 120.844 308.245C120.844 307.091 121.78 306.154 122.934 306.154H212.123C213.277 306.154 214.214 307.091 214.214 308.245C214.214 309.398 213.277 310.335 212.123 310.335Z" fill="white"/>
<path d="M178.665 427.331H119.222C113.52 427.331 108.872 422.666 108.872 416.946V382.362C108.872 376.643 113.52 371.977 119.222 371.977H178.648C184.367 371.977 189.032 376.626 189.032 382.362V416.946C189.049 422.682 184.383 427.331 178.665 427.331ZM119.222 376.175C115.828 376.175 113.069 378.951 113.069 382.362V416.946C113.069 420.358 115.828 423.134 119.222 423.134H178.648C182.059 423.134 184.835 420.358 184.835 416.946V382.362C184.835 378.951 182.059 376.175 178.648 376.175H119.222Z" fill="white"/>
<path d="M173.063 390.289H124.857C123.703 390.289 122.767 389.353 122.767 388.199C122.767 387.045 123.703 386.108 124.857 386.108H173.063C174.217 386.108 175.153 387.045 175.153 388.199C175.153 389.353 174.217 390.289 173.063 390.289Z" fill="white"/>
<path d="M173.063 401.761H124.857C123.703 401.761 122.767 400.825 122.767 399.671C122.767 398.517 123.703 397.581 124.857 397.581H173.063C174.217 397.581 175.153 398.517 175.153 399.671C175.153 400.825 174.217 401.761 173.063 401.761Z" fill="white"/>
<path d="M154.955 413.217H124.857C123.703 413.217 122.767 412.28 122.767 411.126C122.767 409.973 123.703 409.036 124.857 409.036H154.938C156.092 409.036 157.028 409.973 157.028 411.126C157.045 412.28 156.108 413.217 154.955 413.217Z" fill="white"/>
<path d="M2.09098 298.043C1.32182 298.043 0.619539 297.625 0.251678 296.94C-0.132903 296.237 -0.0660193 295.368 0.402167 294.715L48.5919 228.006C48.9598 227.488 49.5617 227.17 50.1971 227.136L132.397 223.407C133.183 223.307 133.952 223.792 134.337 224.511C134.721 225.213 134.655 226.083 134.186 226.735L85.9632 293.378C85.5953 293.896 84.9934 294.214 84.358 294.247L2.19131 298.043C2.15786 298.043 2.12442 298.043 2.09098 298.043ZM51.3843 231.284L6.3381 293.662L83.1541 290.116L128.25 227.805L51.3843 231.284Z" fill="white"/>
<path d="M2.10783 298.043C1.33866 298.043 0.636385 297.625 0.268525 296.94C-0.116057 296.237 -0.0491731 295.368 0.419013 294.716L48.5919 228.006C48.9598 227.488 49.5617 227.17 50.1971 227.136L132.397 223.424C133.183 223.307 133.952 223.809 134.337 224.528C134.722 225.23 134.655 226.1 134.186 226.752L85.9633 293.394C85.5954 293.913 84.9935 294.23 84.3581 294.264L2.19131 298.043C2.17459 298.043 2.14127 298.043 2.10783 298.043ZM51.3843 231.284L6.3381 293.662L83.1541 290.116L128.234 227.805L51.3843 231.284Z" fill="white"/>
<path d="M55.9491 329.466C51.5849 329.466 47.4214 327.075 45.3146 323.162L30.4162 295.552C29.8644 294.531 30.249 293.26 31.269 292.709C32.289 292.173 33.5598 292.541 34.1116 293.561L49.0099 321.155C50.6486 324.182 54.1265 325.804 57.5209 325.102C84.1071 319.65 107.6 306.957 127.347 287.324C129.805 284.882 130.391 281.052 128.735 278.009L113.62 250.031C113.068 249.01 113.452 247.74 114.472 247.188C115.492 246.652 116.763 247.02 117.315 248.041L132.431 276.019C134.956 280.684 134.069 286.554 130.307 290.3C109.974 310.502 85.7625 323.597 58.3736 329.199C57.5543 329.383 56.7517 329.466 55.9491 329.466Z" fill="white"/>
<path d="M78.0876 256.954C77.3352 256.954 76.6162 256.553 76.2483 255.85C75.6965 254.83 76.0811 253.559 77.1011 253.007L131.478 223.641C132.498 223.106 133.768 223.474 134.32 224.494L147.028 248.041C147.58 249.061 147.195 250.332 146.175 250.883C145.155 251.419 143.884 251.051 143.333 250.031L131.611 228.34L79.0909 256.703C78.7732 256.87 78.422 256.954 78.0876 256.954Z" fill="white"/>
<path d="M62.788 271.604C59.1094 271.604 56.0661 270.216 54.6114 267.54C52.0531 262.807 55.6147 256.101 62.7211 252.255C69.8275 248.425 77.3853 249.128 79.9436 253.86C81.2646 256.302 81.0138 259.295 79.2581 262.289C77.703 264.965 75.0611 267.389 71.834 269.129C68.7573 270.801 65.5971 271.604 62.788 271.604ZM71.7504 253.977C69.7271 253.977 67.2524 254.579 64.7109 255.934C59.4271 258.794 57.0861 263.292 58.3068 265.533C59.5274 267.791 64.5604 268.292 69.8442 265.433C72.3691 264.078 74.4759 262.155 75.6296 260.165C76.1982 259.178 77.0509 257.322 76.2483 255.834C75.6129 254.68 73.9408 253.977 71.7504 253.977Z" fill="white"/>
<path d="M148.316 263.66C144.453 263.66 140.891 261.068 139.855 257.155C138.634 252.472 141.426 247.656 146.092 246.418C150.757 245.181 155.572 247.974 156.826 252.656V252.673C158.03 257.372 155.221 262.172 150.556 263.376C149.82 263.56 149.068 263.66 148.316 263.66ZM148.349 250.298C147.964 250.298 147.563 250.348 147.178 250.449C144.737 251.101 143.266 253.626 143.918 256.068C144.57 258.493 147.078 259.964 149.519 259.295C151.961 258.66 153.432 256.151 152.813 253.71C152.228 251.669 150.355 250.298 148.349 250.298Z" fill="white"/>
<path d="M151.275 272.507C150.523 272.507 149.804 272.105 149.436 271.403L145.122 263.409C144.57 262.389 144.955 261.118 145.975 260.566C146.995 260.031 148.265 260.399 148.817 261.419L153.131 269.413C153.683 270.433 153.298 271.704 152.278 272.256C151.944 272.423 151.61 272.507 151.275 272.507Z" fill="white"/>
<path d="M159.719 267.941C158.967 267.941 158.248 267.54 157.88 266.838L153.566 258.844C153.014 257.824 153.399 256.553 154.419 256.001C155.439 255.449 156.709 255.834 157.261 256.854L161.575 264.847C162.127 265.868 161.742 267.139 160.722 267.69C160.388 267.858 160.054 267.941 159.719 267.941Z" fill="white"/>
</g>
</svg>
