<svg width="1441" height="809" viewBox="0 0 1441 809" fill="none" xmlns="http://www.w3.org/2000/svg">
<mask id="path-1-inside-1_4220_4259" fill="white">
<path d="M499.2 336.8H497L494.6 333.1L493.2 333.9L489 329.8L485.8 326.4L487 322.7L490.2 321.7L491.4 319.7L489.2 317.9L489.4 313L488 312.6L486.6 308.9L483.6 308.7L481.2 305.3L482 300.8L485.2 296.3L489.1 296.7L490.3 298.1L491.7 298.7L492.3 296.1L497 294.7L500.7 290.9L498.3 288.3L501.5 286.3L505.2 287.7L506.2 284.7V281.6H510.9L513.1 283.8L515.4 281.5L515.9 279.4L521 278.4L519.3 276.7L515 275.2V273.6L520.1 272.2L525.4 270.8L528 268.2H531.4V265.8L536.3 265.6L533.7 263L538 262.8L539.6 264.4L539.4 260.3L541.4 258.3L539.2 255.7L540.6 253.5L543 255.9H546V252.9L550.5 254.5L552.7 252.1L554.9 249.5H557.7L562.6 247.3L566 248.5H571.1L574.4 245.1L578.4 245.4L580.2 248H584.4L586.4 250L590 249H595.1L598.4 245.7L602.4 243.6L607.7 241.6H612.6L615.5 246.1V251L611.2 254.9L607.3 258.5L602.2 258.9L596.1 261.7L590.6 259.7L588 262.3L581.7 262.1H573.6L570.6 265.3H564L559.3 267.9L560.7 271.1L557.5 272.3L553.6 271.9H550.2L549.8 274.1L546.2 273.1V276.7L542.6 279.3L539.6 281.5V278L537.2 280.2L537.8 284.3H535.4L533.7 282.6V287.6L531.9 285.8L529.6 288.1L527.7 290H525.1L523.1 292.6L520.5 297.1H516L512.6 299.9V303.8L509.2 305.2L508 309.3L505.2 312.1V317.2L503.8 320.9L505.6 326.2L504 331.5L506.2 334.9L507.2 338.5L506 339.7L502.6 341.3V338.7L499.2 336.8Z"/>
</mask>
<path d="M499.2 336.8H497L494.6 333.1L493.2 333.9L489 329.8L485.8 326.4L487 322.7L490.2 321.7L491.4 319.7L489.2 317.9L489.4 313L488 312.6L486.6 308.9L483.6 308.7L481.2 305.3L482 300.8L485.2 296.3L489.1 296.7L490.3 298.1L491.7 298.7L492.3 296.1L497 294.7L500.7 290.9L498.3 288.3L501.5 286.3L505.2 287.7L506.2 284.7V281.6H510.9L513.1 283.8L515.4 281.5L515.9 279.4L521 278.4L519.3 276.7L515 275.2V273.6L520.1 272.2L525.4 270.8L528 268.2H531.4V265.8L536.3 265.6L533.7 263L538 262.8L539.6 264.4L539.4 260.3L541.4 258.3L539.2 255.7L540.6 253.5L543 255.9H546V252.9L550.5 254.5L552.7 252.1L554.9 249.5H557.7L562.6 247.3L566 248.5H571.1L574.4 245.1L578.4 245.4L580.2 248H584.4L586.4 250L590 249H595.1L598.4 245.7L602.4 243.6L607.7 241.6H612.6L615.5 246.1V251L611.2 254.9L607.3 258.5L602.2 258.9L596.1 261.7L590.6 259.7L588 262.3L581.7 262.1H573.6L570.6 265.3H564L559.3 267.9L560.7 271.1L557.5 272.3L553.6 271.9H550.2L549.8 274.1L546.2 273.1V276.7L542.6 279.3L539.6 281.5V278L537.2 280.2L537.8 284.3H535.4L533.7 282.6V287.6L531.9 285.8L529.6 288.1L527.7 290H525.1L523.1 292.6L520.5 297.1H516L512.6 299.9V303.8L509.2 305.2L508 309.3L505.2 312.1V317.2L503.8 320.9L505.6 326.2L504 331.5L506.2 334.9L507.2 338.5L506 339.7L502.6 341.3V338.7L499.2 336.8Z" fill="#0159FF" stroke="white" stroke-opacity="0.6" stroke-width="2" mask="url(#path-1-inside-1_4220_4259)"/>
<mask id="path-2-inside-2_4220_4259" fill="white">
<path d="M378.2 359.8L374.3 363.7L371.5 367.2V362.3L374.6 359.2L370.8 353.4L368.2 350.8H364.1L358.1 352.7L352.7 349.8L346.2 352.3L339.3 351.2L339.1 359L335.3 362.1L336.9 365.9L335 367.8L328.6 365.9L326.1 360.8L322.2 356.9L321 350.3L319.7 340.2H316L312.2 344.2V348L311.8 352.9L314.7 355.8L313.6 361.4L308 365.4L298.5 355.9L297.3 357.4L295.6 360L293.3 358.4L292.3 359.4L290.6 357.2L289.3 358.8L289.5 362.3L288.2 365.4L285.4 366.9L284.3 369.4L283.7 375L288 379.3L286.3 383.8L282.6 384.9L283 387.9L282.2 391.5L277.8 395.9L276.2 396.3L274.5 398.2L271.1 405L271.6 407.1L269.9 408.8L271.1 415L273.7 416.6V419.4L277.2 421.2L278.1 423.4L279.5 424.3L281.6 426.4H283.9L285.8 428.3L286.6 430.8L291.1 431L294.4 431.9L295.9 433.4L298.8 434.1L299.9 436.9L302.5 439.5L304.2 440.8V443L306.1 443.7H309.9V442.2L311.7 442.8H314.2V445.7L315.7 447.3H317V449.1L319.7 450.5L321.4 452.2L323.7 449.9L324.4 447.9L326.9 449L328.6 451.9L326.7 453.8L329.3 455.3V456.6H331.2L333.7 457.6L332.6 458.7L334.1 460.8L335.5 462.2L337.9 460.1L339.6 460.7L340.8 462.7L341.6 463.5L343.8 465.7L343 468.2L345 469.2L347.8 468.4L347.6 466.8L349.5 467.4H353.1L353.5 469.2L355.7 469.7L357.6 467.5L359.8 465.8L361.7 462.6L359.2 460.1L360.9 458.4L363.6 456.7L363.9 454.7L367.4 452.6L370.4 449.6L372.4 448.8L375.2 446L373.3 444.1L373.1 441.1L370.9 442.2L369.4 440.7H367.4L364 441L362.8 443.9L361.3 443.3L359.3 446.2L357.3 444.3L355.1 443.6L352.9 442.6L352.6 438.7L355.3 437.4L354.9 434.9L356 433.8L356.8 431.6L359.4 430.9L362.5 431.7L363.1 429.6L362.7 426.1L361.1 424.5L361.9 421.1L364.9 419.2V416L365.8 412.9L363.5 410.6L361.2 407.2V404.5L360.6 401.5H363.4L366.5 403.8L369.2 404.7L371.1 406.6L374.9 407.4L378.1 409.3L381.7 412.9L382.4 416.4L385 415.1L388 414L390.3 415.5L393.2 416.2L396 418.4H398L399.4 419.8L401.4 417.9L403.4 414.4L401.7 412.7L401 409.7L402.5 406.7L401.4 404.6L398.9 402.1L397.9 400.1L401.5 396.5V394.9L403 393.4L404.3 390L406.8 387.5L405 385.7L400.7 383.7L400.3 385L396.5 386.4L394.4 385.6L391.7 382.5L389.7 380.5L388.8 376.7L385 373L383 370.4L381.8 365.7L380 362L378.2 359.8Z"/>
</mask>
<path d="M378.2 359.8L374.3 363.7L371.5 367.2V362.3L374.6 359.2L370.8 353.4L368.2 350.8H364.1L358.1 352.7L352.7 349.8L346.2 352.3L339.3 351.2L339.1 359L335.3 362.1L336.9 365.9L335 367.8L328.6 365.9L326.1 360.8L322.2 356.9L321 350.3L319.7 340.2H316L312.2 344.2V348L311.8 352.9L314.7 355.8L313.6 361.4L308 365.4L298.5 355.9L297.3 357.4L295.6 360L293.3 358.4L292.3 359.4L290.6 357.2L289.3 358.8L289.5 362.3L288.2 365.4L285.4 366.9L284.3 369.4L283.7 375L288 379.3L286.3 383.8L282.6 384.9L283 387.9L282.2 391.5L277.8 395.9L276.2 396.3L274.5 398.2L271.1 405L271.6 407.1L269.9 408.8L271.1 415L273.7 416.6V419.4L277.2 421.2L278.1 423.4L279.5 424.3L281.6 426.4H283.9L285.8 428.3L286.6 430.8L291.1 431L294.4 431.9L295.9 433.4L298.8 434.1L299.9 436.9L302.5 439.5L304.2 440.8V443L306.1 443.7H309.9V442.2L311.7 442.8H314.2V445.7L315.7 447.3H317V449.1L319.7 450.5L321.4 452.2L323.7 449.9L324.4 447.9L326.9 449L328.6 451.9L326.7 453.8L329.3 455.3V456.6H331.2L333.7 457.6L332.6 458.7L334.1 460.8L335.5 462.2L337.9 460.1L339.6 460.7L340.8 462.7L341.6 463.5L343.8 465.7L343 468.2L345 469.2L347.8 468.4L347.6 466.8L349.5 467.4H353.1L353.5 469.2L355.7 469.7L357.6 467.5L359.8 465.8L361.7 462.6L359.2 460.1L360.9 458.4L363.6 456.7L363.9 454.7L367.4 452.6L370.4 449.6L372.4 448.8L375.2 446L373.3 444.1L373.1 441.1L370.9 442.2L369.4 440.7H367.4L364 441L362.8 443.9L361.3 443.3L359.3 446.2L357.3 444.3L355.1 443.6L352.9 442.6L352.6 438.7L355.3 437.4L354.9 434.9L356 433.8L356.8 431.6L359.4 430.9L362.5 431.7L363.1 429.6L362.7 426.1L361.1 424.5L361.9 421.1L364.9 419.2V416L365.8 412.9L363.5 410.6L361.2 407.2V404.5L360.6 401.5H363.4L366.5 403.8L369.2 404.7L371.1 406.6L374.9 407.4L378.1 409.3L381.7 412.9L382.4 416.4L385 415.1L388 414L390.3 415.5L393.2 416.2L396 418.4H398L399.4 419.8L401.4 417.9L403.4 414.4L401.7 412.7L401 409.7L402.5 406.7L401.4 404.6L398.9 402.1L397.9 400.1L401.5 396.5V394.9L403 393.4L404.3 390L406.8 387.5L405 385.7L400.7 383.7L400.3 385L396.5 386.4L394.4 385.6L391.7 382.5L389.7 380.5L388.8 376.7L385 373L383 370.4L381.8 365.7L380 362L378.2 359.8Z" fill="#0159FF" stroke="white" stroke-opacity="0.6" stroke-width="2" mask="url(#path-2-inside-2_4220_4259)"/>
<mask id="path-3-inside-3_4220_4259" fill="white">
<path d="M542.3 385.4L540.5 388.1L538.3 390.3L537 391.7L539.2 393.8L539.6 395.5L541.3 396.1V403.7H539.2L536.6 402.2H534L529.5 406L525.6 406.2L523.8 410.5L517.9 409.5L516.3 412.1L513.7 414.7L511.1 416.2L506.1 418L501.9 419L496.9 416.4L494.2 417L491.2 414.4L485.3 412L479.3 408.1L474.8 406.3L467.5 403.5L463.9 399.9L459.6 399.5L452.6 394.9L449.1 391.4L443.7 389L438.3 384.4L433.3 385L429.6 387.5L406.4 387.6L404.6 385.8L400.3 383.8L399.9 385.1L396.1 386.4L394 385.6C394 385.6 391.8 382.9 391.3 382.5L389.3 380.5L388.4 376.7L384.9 373.2L382.9 370.6L381.7 365.9L380 362L378.2 359.8L383.6 358.7L388.1 352.2V346.6L389.9 342.8L395.7 339.9V336.3L401.3 333V327.4L400.4 322H404.2L405.4 324.8L410.4 329.8L414.2 335.6V343.5L412.9 347.5L410.9 349.5L407.6 346.1L402.9 345L395.7 347.5V353.3L397.5 358.7V363.2L402.6 364.6L407.6 366.8L413.2 364.1V360.1L419 358.8L424.6 361.5L423.7 357.9L432.4 359.5L437.1 358.6L445.6 359.7H450.6L453.1 364.2H455.3V360.2L462.4 358H466.2L467.8 363.8H463.5L462.3 367.7L459 368.8L464.1 373.5H467.7L474.4 370.6L480.8 371.8L487.7 378.7L490 376.4H494.7L500.6 374.5L502.9 376.9L502.2 380L498.6 382.5V386.3L502.8 389.9L503.1 385.8L505 383.9L509.5 385V381.4L513.7 380.7L514.6 375.3L513.9 368.8L517.9 366.8L521.4 365.8L525.5 369.9L527.3 368.1L531.9 373.8L537.2 379.1L541.4 383.4L542.3 385.4Z"/>
</mask>
<path d="M542.3 385.4L540.5 388.1L538.3 390.3L537 391.7L539.2 393.8L539.6 395.5L541.3 396.1V403.7H539.2L536.6 402.2H534L529.5 406L525.6 406.2L523.8 410.5L517.9 409.5L516.3 412.1L513.7 414.7L511.1 416.2L506.1 418L501.9 419L496.9 416.4L494.2 417L491.2 414.4L485.3 412L479.3 408.1L474.8 406.3L467.5 403.5L463.9 399.9L459.6 399.5L452.6 394.9L449.1 391.4L443.7 389L438.3 384.4L433.3 385L429.6 387.5L406.4 387.6L404.6 385.8L400.3 383.8L399.9 385.1L396.1 386.4L394 385.6C394 385.6 391.8 382.9 391.3 382.5L389.3 380.5L388.4 376.7L384.9 373.2L382.9 370.6L381.7 365.9L380 362L378.2 359.8L383.6 358.7L388.1 352.2V346.6L389.9 342.8L395.7 339.9V336.3L401.3 333V327.4L400.4 322H404.2L405.4 324.8L410.4 329.8L414.2 335.6V343.5L412.9 347.5L410.9 349.5L407.6 346.1L402.9 345L395.7 347.5V353.3L397.5 358.7V363.2L402.6 364.6L407.6 366.8L413.2 364.1V360.1L419 358.8L424.6 361.5L423.7 357.9L432.4 359.5L437.1 358.6L445.6 359.7H450.6L453.1 364.2H455.3V360.2L462.4 358H466.2L467.8 363.8H463.5L462.3 367.7L459 368.8L464.1 373.5H467.7L474.4 370.6L480.8 371.8L487.7 378.7L490 376.4H494.7L500.6 374.5L502.9 376.9L502.2 380L498.6 382.5V386.3L502.8 389.9L503.1 385.8L505 383.9L509.5 385V381.4L513.7 380.7L514.6 375.3L513.9 368.8L517.9 366.8L521.4 365.8L525.5 369.9L527.3 368.1L531.9 373.8L537.2 379.1L541.4 383.4L542.3 385.4Z" fill="#0159FF" stroke="white" stroke-opacity="0.6" stroke-width="2" mask="url(#path-3-inside-3_4220_4259)"/>
<path d="M628.3 137.4L626.6 137.9L627.9 139.7V141.4H630.3V138.2L628.3 137.4Z" fill="#0159FF"/>
<path d="M628.4 139.7V139.538L628.305 139.407L627.419 138.18L628.275 137.928L629.8 138.538V140.9H628.4V139.7Z" stroke="white" stroke-opacity="0.6"/>
<path d="M627.8 151.6L626.6 153.4L622.3 154.2L619.5 155.7L621.7 156.7L620.7 159L622.5 159.5H626.2L629.1 156.6L631.3 154.4L630.5 151.1L627.8 151.6Z" fill="#0159FF"/>
<path d="M626.691 153.892L626.899 153.853L627.016 153.677L628.099 152.053L630.126 151.678L630.748 154.245L628.746 156.247L629.1 156.6L628.746 156.247L625.993 159H622.568L621.388 158.672L622.159 156.899L622.355 156.448L621.907 156.245L620.627 155.663L622.468 154.677L626.691 153.892Z" stroke="white" stroke-opacity="0.6"/>
<path d="M613.9 148.6L613 149.5L614.8 151.3L618 150.1V147.4H616.2L613.9 148.6Z" fill="#0159FF"/>
<path d="M616.323 147.9H617.5V149.753L614.926 150.719L613.707 149.5L614.199 149.008L616.323 147.9Z" stroke="white" stroke-opacity="0.6"/>
<path d="M611.5 153.9L609.1 151.1L607.3 152.9L605.9 155.6V158.9L608.8 159.4L609.5 161.4L613 160.6L615.3 158.3L617 156.6L617.9 153.8H615.4L611.5 153.9Z" fill="#0159FF"/>
<path d="M611.121 154.225L611.275 154.406L611.513 154.4L615.407 154.3H617.214L616.561 156.332L614.947 157.947L615.3 158.3L614.947 157.947L612.749 160.145L609.825 160.813L609.272 159.235L609.175 158.957L608.885 158.907L606.4 158.479V155.722L607.709 153.199L609.072 151.835L611.121 154.225Z" stroke="white" stroke-opacity="0.6"/>
<path d="M601.5 165.5L600.4 166.6V168.7H602.7L603.5 166L601.5 165.5Z" fill="#0159FF"/>
<path d="M600.9 168.2V166.807L601.654 166.054L602.873 166.358L602.327 168.2H600.9Z" stroke="white" stroke-opacity="0.6"/>
<path d="M596.8 157L595.6 155.8H591.9V158.3L589.9 160.3L591.1 161.5L595.1 160.7L596.6 162.2L600.1 161.4L601.1 159L603.6 159.8L602.3 156.8L600 154.5L596.8 157Z" fill="#0159FF"/>
<path d="M596.447 157.354L596.76 157.666L597.108 157.394L599.96 155.166L601.879 157.086L602.704 158.988L601.253 158.524L600.815 158.384L600.639 158.808L599.738 160.97L596.758 161.651L595.454 160.346L595.265 160.157L595.002 160.21L591.265 160.957L590.607 160.3L592.254 158.654L592.4 158.507V158.3V156.3H595.393L596.447 157.354Z" stroke="white" stroke-opacity="0.6"/>
<path d="M615.4 129L614.4 131L616.2 132.8L617.9 131.1L615.4 129Z" fill="#0159FF"/>
<path d="M616.2 132.093L615.009 130.901L615.564 129.791L617.161 131.132L616.2 132.093Z" stroke="white" stroke-opacity="0.6"/>
<path d="M611.7 133.7H609V136.7L611.8 139.6V141.9L614.3 140.7L612.8 137.5L611.7 133.7Z" fill="#0159FF"/>
<path d="M612.3 139.6V139.398L612.16 139.253L609.5 136.498V134.2H611.324L612.32 137.639L612.331 137.677L612.347 137.712L613.637 140.464L612.3 141.105V139.6Z" stroke="white" stroke-opacity="0.6"/>
<path d="M595 142.4H592.7L592.2 142.9L594.1 144.8L595 142.4Z" fill="#0159FF"/>
<path d="M592.907 142.9H594.279L593.905 143.897L592.907 142.9L592.907 142.9Z" stroke="white" stroke-opacity="0.6"/>
<path d="M597 146.2L595.4 147.8L597 149.6L598.8 149.4L597 146.2Z" fill="#0159FF"/>
<path d="M597.202 149.074L596.087 147.82L596.888 147.02L597.994 148.986L597.202 149.074Z" stroke="white" stroke-opacity="0.6"/>
<path d="M598.5 138.9V141.1H600.8L600.3 138.6L598.5 138.9Z" fill="#0159FF"/>
<path d="M600.19 140.6H599V139.324L599.905 139.173L600.19 140.6Z" stroke="white" stroke-opacity="0.6"/>
<path d="M601.7 144.3V146.2H603.6L602.1 144.7L601.7 144.3Z" fill="#0159FF"/>
<path d="M602.2 145.507L602.393 145.7H602.2V145.507Z" stroke="white" stroke-opacity="0.6"/>
<mask id="path-28-inside-4_4220_4259" fill="white">
<path d="M603.7 148.8L604.5 149.6L606 148.1L603.7 148.8Z"/>
</mask>
<path d="M603.7 148.8L604.5 149.6L606 148.1L603.7 148.8Z" fill="#0159FF"/>
<path d="M603.7 148.8L603.409 147.843L601.815 148.329L602.993 149.507L603.7 148.8ZM604.5 149.6L603.793 150.307L604.5 151.014L605.207 150.307L604.5 149.6ZM606 148.1L606.707 148.807L605.709 147.143L606 148.1ZM602.993 149.507L603.793 150.307L605.207 148.893L604.407 148.093L602.993 149.507ZM605.207 150.307L606.707 148.807L605.293 147.393L603.793 148.893L605.207 150.307ZM605.709 147.143L603.409 147.843L603.991 149.757L606.291 149.057L605.709 147.143Z" fill="white" fill-opacity="0.6" mask="url(#path-28-inside-4_4220_4259)"/>
<path d="M606 139.9V142.2L608 142.4V139.9H606Z" fill="#0159FF"/>
<path d="M607.5 141.847L606.5 141.747V140.4H607.5V141.847Z" stroke="white" stroke-opacity="0.6"/>
<path d="M603 135.2L604.2 137.4L605.3 136.3L604.2 135.2H603Z" fill="#0159FF"/>
<path d="M604.593 136.3L604.319 136.574L603.842 135.7H603.993L604.593 136.3Z" stroke="white" stroke-opacity="0.6"/>
<path d="M581.4 149.3L580.1 150.6L582.3 152.8L584.7 152.9V148.9L583 146.7L581.4 149.3Z" fill="#0159FF"/>
<path d="M581.753 149.654L581.795 149.612L581.825 149.562L583.046 147.578L584.2 149.071V152.379L582.515 152.309L580.807 150.6L581.753 149.654Z" stroke="white" stroke-opacity="0.6"/>
<path d="M586.9 146.6L587.7 149H589.4V147L586.9 146.6Z" fill="#0159FF"/>
<path d="M588.061 148.5L587.635 147.224L588.9 147.426V148.5H588.061Z" stroke="white" stroke-opacity="0.6"/>
<path d="M577.5 133.2L575.8 134.9V136.7L573.9 138.6L570.5 136.2L567.7 137.7V139.7L564.2 137.2L561.5 138.2L562.3 142.2L564.8 141.4V144.1L567.5 144.8L569.9 142.4L573.3 141L576.1 141.8H580.3L583.3 138.8L580.5 135.9L582.4 134L579.1 132.1L577.5 133.2Z" fill="#0159FF"/>
<path d="M581.585 134.108L580.146 135.547L579.799 135.894L580.14 136.247L582.599 138.794L580.093 141.3H576.17L573.437 140.519L573.27 140.472L573.11 140.538L569.71 141.938L569.617 141.976L569.546 142.047L567.349 144.244L565.3 143.713V141.4V140.715L564.648 140.924L562.681 141.553L562.074 138.521L564.125 137.761L567.409 140.107L568.2 140.672V139.7V137.999L570.464 136.787L573.612 139.009L573.956 139.251L574.254 138.954L576.154 137.054L576.3 136.907V136.7V135.107L577.821 133.586L579.124 132.691L581.585 134.108Z" stroke="white" stroke-opacity="0.6"/>
<path d="M568 129H564.3L562.1 126.8L560.6 129.8L562.5 131.7L563.3 134L567.7 132.5L569.2 134L572.1 132.8L573.3 134V131.5L571.4 129.6H569.7L568 129Z" fill="#0159FF"/>
<path d="M563.946 129.354L564.093 129.5H564.3H567.914L569.533 130.072L569.614 130.1H569.7H571.193L572.8 131.707V132.793L572.453 132.446L572.217 132.21L571.908 132.338L569.317 133.41L568.053 132.146L567.833 131.926L567.538 132.027L563.609 133.366L562.972 131.536L562.934 131.428L562.853 131.346L561.208 129.701L562.237 127.644L563.946 129.354Z" stroke="white" stroke-opacity="0.6"/>
<path d="M513.4 348.8L510.2 350.4L507.8 351.2L508.4 356.5L508.8 359.3L511 359.9L511.8 364.2L516 364.6L517.4 361.2L515.4 357.8L515.6 353.9L513.4 348.8Z" fill="#0159FF"/>
<path d="M510.358 350.874L510.392 350.863L510.423 350.847L513.15 349.484L515.094 353.991L514.9 357.774L514.893 357.924L514.969 358.054L516.843 361.239L515.679 364.067L512.222 363.738L511.491 359.809L511.434 359.5L511.131 359.418L509.248 358.904L508.896 356.437L508.342 351.546L510.358 350.874Z" stroke="white" stroke-opacity="0.6"/>
<path d="M441.7 331.1L437.2 332.3L434.6 335.7L432.6 338.3L434 342.2L437.2 343.4L440.2 344.6L443 342.6L446.4 343.2L448.2 338.9L445.4 335.2L445.2 332.2L441.7 331.1Z" fill="#0159FF"/>
<path d="M434.996 336.005L434.997 336.004L437.493 332.739L441.688 331.621L444.723 332.575L444.901 335.233L444.911 335.383L445.001 335.502L447.627 338.972L446.093 342.638L443.086 342.108L442.88 342.071L442.709 342.193L440.131 344.034L437.385 342.936L437.385 342.936L437.375 342.932L434.392 341.813L433.163 338.388L434.996 336.005Z" stroke="white" stroke-opacity="0.6"/>
<rect x="0.599609" y="0.5" width="1439" height="808" stroke="white" stroke-opacity="0.6"/>
</svg>
